<?xml version="1.0" encoding="UTF-8" standalone="no"?>
<!-- Created with Inkscape (http://www.inkscape.org/) -->

<svg
   width="6mm"
   height="10mm"
   viewBox="0 0 6.0000001 9.9999994"
   version="1.1"
   id="svg1681"
   inkscape:version="1.2.1 (9c6d41e410, 2022-07-14)"
   sodipodi:docname="lower h 1.2.svg"
   inkscape:export-filename="..\..\..\..\Downloads\lower a diff canvas resize 3.0.png"
   inkscape:export-xdpi="96"
   inkscape:export-ydpi="96"
   xmlns:inkscape="http://www.inkscape.org/namespaces/inkscape"
   xmlns:sodipodi="http://sodipodi.sourceforge.net/DTD/sodipodi-0.dtd"
   xmlns="http://www.w3.org/2000/svg"
   xmlns:svg="http://www.w3.org/2000/svg"
   xmlns:rdf="http://www.w3.org/1999/02/22-rdf-syntax-ns#"
   xmlns:cc="http://creativecommons.org/ns#"
   xmlns:dc="http://purl.org/dc/elements/1.1/">
  <defs
     id="defs1675">
    <inkscape:path-effect
       effect="powerstroke"
       id="path-effect654"
       is_visible="true"
       lpeversion="1"
       offset_points="2.1442528,0.10618711 | 3.7591028,0.14325027 | 4.9146319,0.10777878 | 6.5156848,0.12210381"
       not_jump="true"
       sort_points="true"
       interpolator_type="CentripetalCatmullRom"
       interpolator_beta="0.75"
       start_linecap_type="round"
       linejoin_type="spiro"
       miter_limit="4"
       scale_width="1"
       end_linecap_type="round" />
    <inkscape:path-effect
       effect="simplify"
       id="path-effect652"
       is_visible="true"
       lpeversion="1"
       steps="1"
       threshold="0.0035951417"
       smooth_angles="0"
       helper_size="0"
       simplify_individual_paths="false"
       simplify_just_coalesce="false"
       step="1" />
    <inkscape:path-effect
       effect="powerstroke"
       id="path-effect647"
       is_visible="true"
       lpeversion="1"
       offset_points="1.1062798,0.070471456 | 4.5789157,0.07986765"
       not_jump="true"
       sort_points="true"
       interpolator_type="CentripetalCatmullRom"
       interpolator_beta="0.75"
       start_linecap_type="round"
       linejoin_type="spiro"
       miter_limit="4"
       scale_width="1"
       end_linecap_type="round" />
    <inkscape:path-effect
       effect="simplify"
       id="path-effect645"
       is_visible="true"
       lpeversion="1"
       steps="1"
       threshold="0.0035951417"
       smooth_angles="0"
       helper_size="0"
       simplify_individual_paths="false"
       simplify_just_coalesce="false"
       step="1" />
    <inkscape:path-effect
       effect="powerstroke"
       id="path-effect502"
       is_visible="true"
       lpeversion="1"
       offset_points="3.0091841,0.21607495 | 7.3602657,0.17554228 | 9.4159651,0.20236537"
       not_jump="true"
       sort_points="true"
       interpolator_type="CentripetalCatmullRom"
       interpolator_beta="0.75"
       start_linecap_type="round"
       linejoin_type="spiro"
       miter_limit="4"
       scale_width="1"
       end_linecap_type="round" />
    <inkscape:path-effect
       effect="simplify"
       id="path-effect500"
       is_visible="true"
       lpeversion="1"
       steps="1"
       threshold="0.0035951417"
       smooth_angles="0"
       helper_size="0"
       simplify_individual_paths="false"
       simplify_just_coalesce="false"
       step="1" />
    <inkscape:path-effect
       effect="powerstroke"
       id="path-effect241"
       is_visible="true"
       lpeversion="1"
       offset_points="2.6879454,0.34086734"
       not_jump="true"
       sort_points="true"
       interpolator_type="CentripetalCatmullRom"
       interpolator_beta="0.75"
       start_linecap_type="round"
       linejoin_type="spiro"
       miter_limit="4"
       scale_width="1"
       end_linecap_type="round" />
    <inkscape:path-effect
       effect="simplify"
       id="path-effect239"
       is_visible="true"
       lpeversion="1"
       steps="1"
       threshold="0.0028332064"
       smooth_angles="0"
       helper_size="0"
       simplify_individual_paths="false"
       simplify_just_coalesce="false"
       step="1" />
    <inkscape:path-effect
       effect="powerstroke"
       id="path-effect234"
       is_visible="true"
       lpeversion="1"
       offset_points="2.13563,0.075169555"
       not_jump="true"
       sort_points="true"
       interpolator_type="CentripetalCatmullRom"
       interpolator_beta="0.75"
       start_linecap_type="round"
       linejoin_type="spiro"
       miter_limit="4"
       scale_width="1"
       end_linecap_type="round" />
    <inkscape:path-effect
       effect="simplify"
       id="path-effect232"
       is_visible="true"
       lpeversion="1"
       steps="1"
       threshold="0.0028332064"
       smooth_angles="0"
       helper_size="0"
       simplify_individual_paths="false"
       simplify_just_coalesce="false"
       step="1" />
    <inkscape:path-effect
       effect="powerstroke"
       id="path-effect227"
       is_visible="true"
       lpeversion="1"
       offset_points="2.1868266,0.075169555"
       not_jump="true"
       sort_points="true"
       interpolator_type="CentripetalCatmullRom"
       interpolator_beta="0.75"
       start_linecap_type="round"
       linejoin_type="spiro"
       miter_limit="4"
       scale_width="1"
       end_linecap_type="round" />
    <inkscape:path-effect
       effect="simplify"
       id="path-effect225"
       is_visible="true"
       lpeversion="1"
       steps="1"
       threshold="0.0028332064"
       smooth_angles="0"
       helper_size="0"
       simplify_individual_paths="false"
       simplify_just_coalesce="false"
       step="1" />
    <inkscape:path-effect
       effect="powerstroke"
       id="path-effect166"
       is_visible="true"
       lpeversion="1"
       offset_points="1.9637935,0.075169555"
       not_jump="true"
       sort_points="true"
       interpolator_type="CentripetalCatmullRom"
       interpolator_beta="0.75"
       start_linecap_type="round"
       linejoin_type="spiro"
       miter_limit="4"
       scale_width="1"
       end_linecap_type="round" />
    <inkscape:path-effect
       effect="simplify"
       id="path-effect164"
       is_visible="true"
       lpeversion="1"
       steps="1"
       threshold="0.0028332064"
       smooth_angles="0"
       helper_size="0"
       simplify_individual_paths="false"
       simplify_just_coalesce="false"
       step="1" />
    <inkscape:path-effect
       effect="powerstroke"
       id="path-effect159"
       is_visible="true"
       lpeversion="1"
       offset_points="2.2611036,0.075169555"
       not_jump="true"
       sort_points="true"
       interpolator_type="CentripetalCatmullRom"
       interpolator_beta="0.75"
       start_linecap_type="round"
       linejoin_type="spiro"
       miter_limit="4"
       scale_width="1"
       end_linecap_type="round" />
    <inkscape:path-effect
       effect="simplify"
       id="path-effect157"
       is_visible="true"
       lpeversion="1"
       steps="1"
       threshold="0.0028332064"
       smooth_angles="0"
       helper_size="0"
       simplify_individual_paths="false"
       simplify_just_coalesce="false"
       step="1" />
    <inkscape:path-effect
       effect="powerstroke"
       id="path-effect152"
       is_visible="true"
       lpeversion="1"
       offset_points="2.826981,0.075169555"
       not_jump="true"
       sort_points="true"
       interpolator_type="CentripetalCatmullRom"
       interpolator_beta="0.75"
       start_linecap_type="round"
       linejoin_type="spiro"
       miter_limit="4"
       scale_width="1"
       end_linecap_type="round" />
    <inkscape:path-effect
       effect="simplify"
       id="path-effect150"
       is_visible="true"
       lpeversion="1"
       steps="1"
       threshold="0.0028332064"
       smooth_angles="0"
       helper_size="0"
       simplify_individual_paths="false"
       simplify_just_coalesce="false"
       step="1" />
    <inkscape:path-effect
       effect="powerstroke"
       id="path-effect145"
       is_visible="true"
       lpeversion="1"
       offset_points="3.8374447,0.075169555"
       not_jump="true"
       sort_points="true"
       interpolator_type="CentripetalCatmullRom"
       interpolator_beta="0.75"
       start_linecap_type="round"
       linejoin_type="spiro"
       miter_limit="4"
       scale_width="1"
       end_linecap_type="round" />
    <inkscape:path-effect
       effect="simplify"
       id="path-effect143"
       is_visible="true"
       lpeversion="1"
       steps="1"
       threshold="0.0028332064"
       smooth_angles="0"
       helper_size="0"
       simplify_individual_paths="false"
       simplify_just_coalesce="false"
       step="1" />
    <inkscape:path-effect
       effect="powerstroke"
       id="path-effect138"
       is_visible="true"
       lpeversion="1"
       offset_points="2.6880907,0.075169555"
       not_jump="true"
       sort_points="true"
       interpolator_type="CentripetalCatmullRom"
       interpolator_beta="0.75"
       start_linecap_type="round"
       linejoin_type="spiro"
       miter_limit="4"
       scale_width="1"
       end_linecap_type="round" />
    <inkscape:path-effect
       effect="simplify"
       id="path-effect136"
       is_visible="true"
       lpeversion="1"
       steps="1"
       threshold="0.0028332064"
       smooth_angles="0"
       helper_size="0"
       simplify_individual_paths="false"
       simplify_just_coalesce="false"
       step="1" />
    <inkscape:path-effect
       effect="powerstroke"
       id="path-effect131"
       is_visible="true"
       lpeversion="1"
       offset_points="1.9940581,0.075169555"
       not_jump="true"
       sort_points="true"
       interpolator_type="CentripetalCatmullRom"
       interpolator_beta="0.75"
       start_linecap_type="round"
       linejoin_type="spiro"
       miter_limit="4"
       scale_width="1"
       end_linecap_type="round" />
    <inkscape:path-effect
       effect="simplify"
       id="path-effect129"
       is_visible="true"
       lpeversion="1"
       steps="1"
       threshold="0.0028332064"
       smooth_angles="0"
       helper_size="0"
       simplify_individual_paths="false"
       simplify_just_coalesce="false"
       step="1" />
  </defs>
  <sodipodi:namedview
     id="base"
     pagecolor="#ffffff"
     bordercolor="#666666"
     borderopacity="1.0"
     inkscape:pageopacity="0.0"
     inkscape:pageshadow="2"
     inkscape:zoom="7.919596"
     inkscape:cx="-5.3033008"
     inkscape:cy="20.834396"
     inkscape:document-units="mm"
     inkscape:current-layer="layer1"
     showgrid="false"
     fit-margin-top="0"
     fit-margin-left="0"
     fit-margin-right="0"
     fit-margin-bottom="0"
     inkscape:window-width="1920"
     inkscape:window-height="974"
     inkscape:window-x="-11"
     inkscape:window-y="2869"
     inkscape:window-maximized="1"
     showguides="true"
     inkscape:guide-bbox="true"
     inkscape:snap-bbox="true"
     inkscape:bbox-nodes="true"
     inkscape:snap-nodes="false"
     inkscape:snap-others="false"
     inkscape:snap-page="true"
     inkscape:snap-grids="false"
     inkscape:snap-to-guides="false"
     inkscape:snap-global="false"
     inkscape:pagecheckerboard="0"
     inkscape:showpageshadow="2"
     inkscape:deskcolor="#d1d1d1">
    <sodipodi:guide
       position="-6.1806075,9.4988692"
       orientation="0,1"
       id="guide816"
       inkscape:locked="false" />
    <sodipodi:guide
       position="-4.4101636,10.646923"
       orientation="0,1"
       id="guide818"
       inkscape:locked="false" />
    <sodipodi:guide
       position="2.7595724,11.09577"
       orientation="1,0"
       id="guide820"
       inkscape:locked="false" />
    <sodipodi:guide
       position="3.6572659,10.942217"
       orientation="1,0"
       id="guide822"
       inkscape:locked="false" />
    <sodipodi:guide
       position="-0.051625511,9.7492299"
       orientation="1,0"
       id="guide1853"
       inkscape:locked="false" />
    <sodipodi:guide
       position="-2.3720169,3.0175835"
       orientation="0,1"
       id="guide1855"
       inkscape:locked="false" />
  </sodipodi:namedview>
  <metadata
     id="metadata1678">
    <rdf:RDF>
      <cc:Work
         rdf:about="">
        <dc:format>image/svg+xml</dc:format>
        <dc:type
           rdf:resource="http://purl.org/dc/dcmitype/StillImage" />
      </cc:Work>
    </rdf:RDF>
  </metadata>
  <g
     inkscape:label="Layer 1"
     inkscape:groupmode="layer"
     id="layer1"
     transform="translate(17.028496,-147.22856)">
    <path
       d="m -14.592101,150.09503 c 0.05475,0.46567 0.129939,0.79399 0.301165,1.57587 0.102054,0.466 0.215046,1.00971 0.239807,1.55623 0.01374,0.29639 -0.0011,0.57484 -0.04401,0.83147 l 0.04614,-0.0714 c -0.0018,8e-4 0.0028,-0.003 0.01496,-0.005 0.002,-3.3e-4 0.0041,-5.9e-4 0.0063,-7.5e-4 0.0052,-3.7e-4 0.01085,-1.9e-4 0.01689,7.9e-4 0.0089,0.001 0.01716,0.004 0.02441,0.008 0.0071,0.004 0.01249,0.008 0.0163,0.0116 0.0036,0.003 0.0064,0.006 0.0077,0.008 0.003,0.003 0.0034,0.003 0.0035,-7.1e-4 2.58e-4,-0.007 -7.3e-5,-0.0233 0.001,-0.04 5.76e-4,-0.009 0.0013,-0.0171 0.0022,-0.0257 8.94e-4,-0.009 0.0019,-0.0166 0.0027,-0.0251 0.002,-0.0748 0.0097,-0.15411 0.0129,-0.23587 0.0017,-0.0443 0.0022,-0.0893 -3.33e-4,-0.13473 -0.0024,-0.044 -0.0077,-0.0869 -0.01608,-0.12912 -0.01656,-0.19292 -0.04279,-0.36963 -0.05259,-0.54761 -0.0078,-0.14099 -0.0058,-0.2905 0.02574,-0.43898 0.0062,-0.0292 0.01345,-0.0581 0.02183,-0.0868 0.01078,-0.0392 0.02659,-0.0782 0.04624,-0.11693 6.24e-4,4.2e-4 0.0012,8.3e-4 0.0019,0.001 0.02355,0.0159 0.0468,0.0361 0.06973,0.0612 0.0014,0.002 0.0028,0.003 0.0042,0.005 0.03849,0.0431 0.07575,0.1 0.110965,0.17318 0.04652,0.092 0.09051,0.20324 0.151508,0.31954 0.02859,0.0545 0.06172,0.11074 0.101879,0.16434 0.03964,0.0529 0.08639,0.10365 0.143131,0.14851 0.0049,0.004 0.01007,0.007 0.01551,0.0105 0.0071,0.004 0.01453,0.009 0.02288,0.0169 0.0086,0.008 0.01754,0.0172 0.02782,0.029 0.02111,0.0244 0.04553,0.0571 0.07702,0.0898 0.291234,0.33249 0.562147,0.56358 0.727848,0.6961 a 0.12210381,0.12210381 90 0 0 0.152528,-0.19072 c -0.158185,-0.12651 -0.417011,-0.34853 -0.698707,-0.67143 -0.02123,-0.0226 -0.04221,-0.0508 -0.07114,-0.0847 -0.0137,-0.0161 -0.0299,-0.0339 -0.04877,-0.0511 -0.01653,-0.0151 -0.03542,-0.0301 -0.0572,-0.0435 -0.03464,-0.0284 -0.06494,-0.0612 -0.09248,-0.098 -0.02975,-0.0397 -0.05605,-0.0837 -0.08087,-0.13094 -0.05251,-0.0999 -0.09721,-0.21143 -0.14988,-0.31429 -0.04238,-0.0866 -0.09283,-0.16443 -0.151832,-0.228 -0.0021,-0.002 -0.0043,-0.005 -0.0065,-0.007 -0.03586,-0.0376 -0.07554,-0.0705 -0.119225,-0.0971 -0.0467,-0.0285 -0.09703,-0.0493 -0.150619,-0.0612 -0.0128,-0.003 -0.02569,-0.006 -0.03879,-0.006 -0.0131,-6.3e-4 -0.02642,0.001 -0.03861,0.006 -0.01219,0.005 -0.02303,0.0129 -0.03157,0.0228 -0.0085,0.01 -0.01473,0.0217 -0.02065,0.0334 -0.04496,0.089 -0.07513,0.18203 -0.101369,0.26259 -0.01032,0.034 -0.01927,0.0677 -0.02713,0.10144 -0.03959,0.17016 -0.05166,0.33962 -0.05445,0.48998 -0.0036,0.19386 0.0078,0.38262 0.01432,0.57057 7.3e-5,0.002 2.62e-4,0.004 5.69e-4,0.006 3.07e-4,0.002 5.89e-4,0.004 7.7e-4,0.006 0.0028,0.0323 0.0045,0.0662 0.0059,0.10317 0.0015,0.0388 0.0024,0.0757 0.0035,0.11879 0.0019,0.074 0.0042,0.16455 0.01355,0.25201 0.0017,0.007 0.0035,0.015 0.0054,0.0247 0.0019,0.01 0.0039,0.0211 0.0063,0.0335 0.0045,0.0229 0.01118,0.0543 0.02213,0.0836 0.0055,0.0147 0.01328,0.0323 0.02459,0.0494 0.0058,0.009 0.01292,0.018 0.02183,0.0269 0.0089,0.009 0.01987,0.0179 0.03309,0.0253 0.01331,0.007 0.02813,0.013 0.04416,0.0158 0.01095,0.002 0.02181,0.003 0.03242,0.002 0.0047,-2.5e-4 0.0092,-7.3e-4 0.01375,-0.001 0.02785,-0.004 0.05181,-0.0159 0.07156,-0.0292 0.01225,-0.008 0.02443,-0.0173 0.03257,-0.0296 0.0081,-0.0123 0.0114,-0.0272 0.01357,-0.0418 0.04065,-0.27375 0.05604,-0.56274 0.04321,-0.87321 -0.02489,-0.56621 -0.140496,-1.12592 -0.241412,-1.5917 -0.170484,-0.78687 -0.241252,-1.09976 -0.294904,-1.55608 a 0.10618711,0.10618711 90 0 0 -0.210922,0.0248 z"
       id="path-1"
       inkscape:path-effect="#path-effect652;#path-effect654"
       inkscape:original-d="m -14.48664,150.08263 c 0.156018,1.33014 0.708135,2.63566 0.495034,3.99228 -0.146043,0.11989 -0.06312,-0.45807 -0.101138,-0.60519 -0.02567,-0.46301 -0.11195,-0.96676 0.129288,-1.39101 0.414452,0.11107 0.383051,0.73047 0.758607,0.95947 0.24506,0.29664 0.519686,0.56908 0.820233,0.80945"
       style="fill:#000000;fill-rule:nonzero;stroke:none;stroke-width:1.54875" />
  </g>
</svg>
