<?xml version="1.0" encoding="UTF-8" standalone="no"?>
<!-- Created with Inkscape (http://www.inkscape.org/) -->

<svg
   width="6mm"
   height="10mm"
   viewBox="0 0 6.0000001 9.9999994"
   version="1.1"
   id="svg1681"
   inkscape:version="1.2.1 (9c6d41e410, 2022-07-14)"
   sodipodi:docname="lower h 1.4.svg"
   inkscape:export-filename="..\..\..\..\Downloads\lower a diff canvas resize 3.0.png"
   inkscape:export-xdpi="96"
   inkscape:export-ydpi="96"
   xmlns:inkscape="http://www.inkscape.org/namespaces/inkscape"
   xmlns:sodipodi="http://sodipodi.sourceforge.net/DTD/sodipodi-0.dtd"
   xmlns="http://www.w3.org/2000/svg"
   xmlns:svg="http://www.w3.org/2000/svg"
   xmlns:rdf="http://www.w3.org/1999/02/22-rdf-syntax-ns#"
   xmlns:cc="http://creativecommons.org/ns#"
   xmlns:dc="http://purl.org/dc/elements/1.1/">
  <defs
     id="defs1675">
    <inkscape:path-effect
       effect="powerstroke"
       id="path-effect1885"
       is_visible="true"
       lpeversion="1"
       offset_points="1.9653105,0.11085123 | 3.6971897,0.12818365 | 5.2487235,0.098851877 | 7.6199249,0.11942221"
       not_jump="true"
       sort_points="true"
       interpolator_type="CentripetalCatmullRom"
       interpolator_beta="0.75"
       start_linecap_type="round"
       linejoin_type="spiro"
       miter_limit="4"
       scale_width="1"
       end_linecap_type="round" />
    <inkscape:path-effect
       effect="simplify"
       id="path-effect1883"
       is_visible="true"
       lpeversion="1"
       steps="1"
       threshold="0.0035951417"
       smooth_angles="0"
       helper_size="0"
       simplify_individual_paths="false"
       simplify_just_coalesce="false"
       step="1" />
    <inkscape:path-effect
       effect="powerstroke"
       id="path-effect502"
       is_visible="true"
       lpeversion="1"
       offset_points="3.0091841,0.21607495 | 7.3602657,0.17554228 | 9.4159651,0.20236537"
       not_jump="true"
       sort_points="true"
       interpolator_type="CentripetalCatmullRom"
       interpolator_beta="0.75"
       start_linecap_type="round"
       linejoin_type="spiro"
       miter_limit="4"
       scale_width="1"
       end_linecap_type="round" />
    <inkscape:path-effect
       effect="simplify"
       id="path-effect500"
       is_visible="true"
       lpeversion="1"
       steps="1"
       threshold="0.0035951417"
       smooth_angles="0"
       helper_size="0"
       simplify_individual_paths="false"
       simplify_just_coalesce="false"
       step="1" />
    <inkscape:path-effect
       effect="powerstroke"
       id="path-effect241"
       is_visible="true"
       lpeversion="1"
       offset_points="2.6879454,0.34086734"
       not_jump="true"
       sort_points="true"
       interpolator_type="CentripetalCatmullRom"
       interpolator_beta="0.75"
       start_linecap_type="round"
       linejoin_type="spiro"
       miter_limit="4"
       scale_width="1"
       end_linecap_type="round" />
    <inkscape:path-effect
       effect="simplify"
       id="path-effect239"
       is_visible="true"
       lpeversion="1"
       steps="1"
       threshold="0.0028332064"
       smooth_angles="0"
       helper_size="0"
       simplify_individual_paths="false"
       simplify_just_coalesce="false"
       step="1" />
    <inkscape:path-effect
       effect="powerstroke"
       id="path-effect234"
       is_visible="true"
       lpeversion="1"
       offset_points="2.13563,0.075169555"
       not_jump="true"
       sort_points="true"
       interpolator_type="CentripetalCatmullRom"
       interpolator_beta="0.75"
       start_linecap_type="round"
       linejoin_type="spiro"
       miter_limit="4"
       scale_width="1"
       end_linecap_type="round" />
    <inkscape:path-effect
       effect="simplify"
       id="path-effect232"
       is_visible="true"
       lpeversion="1"
       steps="1"
       threshold="0.0028332064"
       smooth_angles="0"
       helper_size="0"
       simplify_individual_paths="false"
       simplify_just_coalesce="false"
       step="1" />
    <inkscape:path-effect
       effect="powerstroke"
       id="path-effect227"
       is_visible="true"
       lpeversion="1"
       offset_points="2.1868266,0.075169555"
       not_jump="true"
       sort_points="true"
       interpolator_type="CentripetalCatmullRom"
       interpolator_beta="0.75"
       start_linecap_type="round"
       linejoin_type="spiro"
       miter_limit="4"
       scale_width="1"
       end_linecap_type="round" />
    <inkscape:path-effect
       effect="simplify"
       id="path-effect225"
       is_visible="true"
       lpeversion="1"
       steps="1"
       threshold="0.0028332064"
       smooth_angles="0"
       helper_size="0"
       simplify_individual_paths="false"
       simplify_just_coalesce="false"
       step="1" />
    <inkscape:path-effect
       effect="powerstroke"
       id="path-effect166"
       is_visible="true"
       lpeversion="1"
       offset_points="1.9637935,0.075169555"
       not_jump="true"
       sort_points="true"
       interpolator_type="CentripetalCatmullRom"
       interpolator_beta="0.75"
       start_linecap_type="round"
       linejoin_type="spiro"
       miter_limit="4"
       scale_width="1"
       end_linecap_type="round" />
    <inkscape:path-effect
       effect="simplify"
       id="path-effect164"
       is_visible="true"
       lpeversion="1"
       steps="1"
       threshold="0.0028332064"
       smooth_angles="0"
       helper_size="0"
       simplify_individual_paths="false"
       simplify_just_coalesce="false"
       step="1" />
    <inkscape:path-effect
       effect="powerstroke"
       id="path-effect159"
       is_visible="true"
       lpeversion="1"
       offset_points="2.2611036,0.075169555"
       not_jump="true"
       sort_points="true"
       interpolator_type="CentripetalCatmullRom"
       interpolator_beta="0.75"
       start_linecap_type="round"
       linejoin_type="spiro"
       miter_limit="4"
       scale_width="1"
       end_linecap_type="round" />
    <inkscape:path-effect
       effect="simplify"
       id="path-effect157"
       is_visible="true"
       lpeversion="1"
       steps="1"
       threshold="0.0028332064"
       smooth_angles="0"
       helper_size="0"
       simplify_individual_paths="false"
       simplify_just_coalesce="false"
       step="1" />
    <inkscape:path-effect
       effect="powerstroke"
       id="path-effect152"
       is_visible="true"
       lpeversion="1"
       offset_points="2.826981,0.075169555"
       not_jump="true"
       sort_points="true"
       interpolator_type="CentripetalCatmullRom"
       interpolator_beta="0.75"
       start_linecap_type="round"
       linejoin_type="spiro"
       miter_limit="4"
       scale_width="1"
       end_linecap_type="round" />
    <inkscape:path-effect
       effect="simplify"
       id="path-effect150"
       is_visible="true"
       lpeversion="1"
       steps="1"
       threshold="0.0028332064"
       smooth_angles="0"
       helper_size="0"
       simplify_individual_paths="false"
       simplify_just_coalesce="false"
       step="1" />
    <inkscape:path-effect
       effect="powerstroke"
       id="path-effect145"
       is_visible="true"
       lpeversion="1"
       offset_points="3.8374447,0.075169555"
       not_jump="true"
       sort_points="true"
       interpolator_type="CentripetalCatmullRom"
       interpolator_beta="0.75"
       start_linecap_type="round"
       linejoin_type="spiro"
       miter_limit="4"
       scale_width="1"
       end_linecap_type="round" />
    <inkscape:path-effect
       effect="simplify"
       id="path-effect143"
       is_visible="true"
       lpeversion="1"
       steps="1"
       threshold="0.0028332064"
       smooth_angles="0"
       helper_size="0"
       simplify_individual_paths="false"
       simplify_just_coalesce="false"
       step="1" />
    <inkscape:path-effect
       effect="powerstroke"
       id="path-effect138"
       is_visible="true"
       lpeversion="1"
       offset_points="2.6880907,0.075169555"
       not_jump="true"
       sort_points="true"
       interpolator_type="CentripetalCatmullRom"
       interpolator_beta="0.75"
       start_linecap_type="round"
       linejoin_type="spiro"
       miter_limit="4"
       scale_width="1"
       end_linecap_type="round" />
    <inkscape:path-effect
       effect="simplify"
       id="path-effect136"
       is_visible="true"
       lpeversion="1"
       steps="1"
       threshold="0.0028332064"
       smooth_angles="0"
       helper_size="0"
       simplify_individual_paths="false"
       simplify_just_coalesce="false"
       step="1" />
    <inkscape:path-effect
       effect="powerstroke"
       id="path-effect131"
       is_visible="true"
       lpeversion="1"
       offset_points="1.9940581,0.075169555"
       not_jump="true"
       sort_points="true"
       interpolator_type="CentripetalCatmullRom"
       interpolator_beta="0.75"
       start_linecap_type="round"
       linejoin_type="spiro"
       miter_limit="4"
       scale_width="1"
       end_linecap_type="round" />
    <inkscape:path-effect
       effect="simplify"
       id="path-effect129"
       is_visible="true"
       lpeversion="1"
       steps="1"
       threshold="0.0028332064"
       smooth_angles="0"
       helper_size="0"
       simplify_individual_paths="false"
       simplify_just_coalesce="false"
       step="1" />
  </defs>
  <sodipodi:namedview
     id="base"
     pagecolor="#ffffff"
     bordercolor="#666666"
     borderopacity="1.0"
     inkscape:pageopacity="0.0"
     inkscape:pageshadow="2"
     inkscape:zoom="7.919596"
     inkscape:cx="-5.1770318"
     inkscape:cy="20.960665"
     inkscape:document-units="mm"
     inkscape:current-layer="layer1"
     showgrid="false"
     fit-margin-top="0"
     fit-margin-left="0"
     fit-margin-right="0"
     fit-margin-bottom="0"
     inkscape:window-width="1920"
     inkscape:window-height="974"
     inkscape:window-x="-11"
     inkscape:window-y="2869"
     inkscape:window-maximized="1"
     showguides="true"
     inkscape:guide-bbox="true"
     inkscape:snap-bbox="true"
     inkscape:bbox-nodes="true"
     inkscape:snap-nodes="false"
     inkscape:snap-others="false"
     inkscape:snap-page="true"
     inkscape:snap-grids="false"
     inkscape:snap-to-guides="false"
     inkscape:snap-global="false"
     inkscape:pagecheckerboard="0"
     inkscape:showpageshadow="2"
     inkscape:deskcolor="#d1d1d1">
    <sodipodi:guide
       position="-6.1806075,9.4988692"
       orientation="0,1"
       id="guide816"
       inkscape:locked="false" />
    <sodipodi:guide
       position="-4.4101636,10.646923"
       orientation="0,1"
       id="guide818"
       inkscape:locked="false" />
    <sodipodi:guide
       position="2.7595724,11.09577"
       orientation="1,0"
       id="guide820"
       inkscape:locked="false" />
    <sodipodi:guide
       position="3.6572659,10.942217"
       orientation="1,0"
       id="guide822"
       inkscape:locked="false" />
    <sodipodi:guide
       position="-0.051625511,9.7492299"
       orientation="1,0"
       id="guide1853"
       inkscape:locked="false" />
    <sodipodi:guide
       position="-2.3720169,3.0175835"
       orientation="0,1"
       id="guide1855"
       inkscape:locked="false" />
  </sodipodi:namedview>
  <metadata
     id="metadata1678">
    <rdf:RDF>
      <cc:Work
         rdf:about="">
        <dc:format>image/svg+xml</dc:format>
        <dc:type
           rdf:resource="http://purl.org/dc/dcmitype/StillImage" />
      </cc:Work>
    </rdf:RDF>
  </metadata>
  <g
     inkscape:label="Layer 1"
     inkscape:groupmode="layer"
     id="layer1"
     transform="translate(17.028496,-147.22856)">
    <path
       d="m -14.873319,148.85431 c -0.04729,0.48042 -0.06964,1.08768 -0.01556,1.99163 0.03629,0.60659 0.105371,1.28241 0.160903,1.97291 0.01578,0.19364 0.0289,0.37755 0.03751,0.54094 1.17e-4,0.002 2.33e-4,0.004 3.48e-4,0.007 -0.01363,0.0895 -0.01032,0.17769 0.0019,0.26081 0.01217,0.0826 0.03352,0.16241 0.05766,0.23569 0.0063,0.0377 0.02147,0.075 0.04842,0.10538 0.01478,0.0167 0.03329,0.0315 0.05559,0.042 0.02249,0.0106 0.0485,0.0168 0.0762,0.0155 0.02803,-0.001 0.05514,-0.01 0.07873,-0.0252 0.01347,-0.009 0.02513,-0.0192 0.03494,-0.0307 0.0072,-0.008 0.0133,-0.0173 0.01841,-0.0263 0.01224,-0.0216 0.01886,-0.0442 0.02185,-0.0655 0.0027,-0.019 0.0026,-0.0379 5.94e-4,-0.0561 0.0073,-0.17721 8.85e-4,-0.35305 -0.006,-0.52304 -0.0067,-0.16687 -0.01483,-0.34558 -0.01043,-0.52089 0.0017,-0.10417 0.0072,-0.21167 0.01895,-0.32045 0.0111,-0.10274 0.02799,-0.20938 0.05333,-0.31614 0.04416,-0.18607 0.113864,-0.37229 0.224012,-0.54237 0.04119,-0.0107 0.0853,-0.01 0.127311,0.002 0.05211,0.0143 0.09792,0.0437 0.131026,0.0817 0.08782,0.0907 0.151572,0.19952 0.211862,0.30694 0.02058,0.0367 0.02645,0.0474 0.04703,0.0841 0.04733,0.084 0.101789,0.17767 0.169351,0.26431 0.420527,0.73357 0.762488,1.52556 0.902341,1.85101 a 0.11942221,0.11942221 90 0 0 0.219442,-0.0943 c -0.140064,-0.32594 -0.486358,-1.13519 -0.917399,-1.88418 -0.003,-0.005 -0.0063,-0.0102 -0.01008,-0.0148 -0.05786,-0.0727 -0.106657,-0.15455 -0.15617,-0.24029 -0.01492,-0.0258 -0.03218,-0.0559 -0.04843,-0.0838 -0.06222,-0.10657 -0.142297,-0.23806 -0.254857,-0.34743 -0.06463,-0.0658 -0.151765,-0.11292 -0.245741,-0.13245 -0.09305,-0.0193 -0.191632,-0.0113 -0.281272,0.029 -0.0089,0.004 -0.01786,0.008 -0.02545,0.0144 -0.0076,0.006 -0.01346,0.0142 -0.01886,0.0223 -0.135309,0.20467 -0.216012,0.42599 -0.265898,0.63897 -0.02715,0.11592 -0.04542,0.23049 -0.05802,0.33934 -0.01334,0.11519 -0.02095,0.22842 -0.02522,0.33553 -0.0097,0.17876 -0.01034,0.36852 -0.01201,0.5312 -0.0018,0.17447 -0.0047,0.34677 -0.01824,0.51702 -1.35e-4,0.002 -2.16e-4,0.003 -7.1e-5,0.005 1.45e-4,0.002 4.85e-4,0.003 7.86e-4,0.005 3.01e-4,0.002 5.37e-4,0.003 4.95e-4,0.005 -4.2e-5,0.002 -3.88e-4,0.003 -7.91e-4,0.005 -4.69e-4,0.002 -0.0016,0.002 -0.0015,-0.003 1.59e-4,-0.004 0.0016,-0.012 0.0069,-0.0218 0.0022,-0.004 0.0052,-0.008 0.0089,-0.0129 0.0051,-0.006 0.01164,-0.012 0.01961,-0.0172 0.0141,-0.009 0.03071,-0.0145 0.04786,-0.0153 0.01686,-7.1e-4 0.03165,0.003 0.04319,0.009 0.0114,0.006 0.01931,0.0126 0.02433,0.0186 0.01008,0.0121 0.0095,0.0203 0.0081,0.0186 -0.0014,-0.002 -0.0026,-0.003 -0.0034,-0.005 -7.17e-4,-0.002 -8.87e-4,-0.004 -8.93e-4,-0.006 -6e-6,-0.002 8.9e-5,-0.004 -1.85e-4,-0.006 -2.74e-4,-0.002 -9.67e-4,-0.004 -0.0018,-0.006 -0.02719,-0.0672 -0.05091,-0.13588 -0.06535,-0.20447 -0.01416,-0.0673 -0.01918,-0.13361 -0.01015,-0.1974 5.63e-4,-0.004 0.0011,-0.008 0.0014,-0.012 2.36e-4,-0.004 6.2e-5,-0.008 -2.23e-4,-0.012 1.4e-5,2e-4 -0.0014,-0.0198 -0.0014,-0.0196 -0.01278,-0.18121 -0.02378,-0.33369 -0.04042,-0.54481 -0.05556,-0.69419 -0.123885,-1.36783 -0.159331,-1.96847 -0.05275,-0.89388 -0.02982,-1.48888 0.01624,-1.95684 a 0.11085123,0.11085123 90 0 0 -0.220636,-0.0217 z"
       id="path-1"
       inkscape:path-effect="#path-effect1883;#path-effect1885"
       inkscape:original-d="m -14.763001,148.86517 c -0.148051,1.50509 0.09324,3.00805 0.184378,4.50732 -0.05257,0.20737 0.158113,0.8528 0.16472,0.33944 0.01348,-0.73688 -0.09619,-1.55144 0.332544,-2.19792 0.454104,-0.16666 0.616318,0.47288 0.843903,0.7422 0.349777,0.60643 0.644035,1.24288 0.920208,1.88556"
       style="fill:#000000;fill-rule:nonzero;stroke:none;stroke-width:1.29731" />
  </g>
</svg>
