<?xml version="1.0" encoding="UTF-8" standalone="no"?>
<!-- Created with Inkscape (http://www.inkscape.org/) -->

<svg
   width="6mm"
   height="10mm"
   viewBox="0 0 6.0000001 9.9999994"
   version="1.1"
   id="svg1681"
   inkscape:version="1.2.1 (9c6d41e410, 2022-07-14)"
   sodipodi:docname="lower h 1.3.svg"
   inkscape:export-filename="..\..\..\..\Downloads\lower a diff canvas resize 3.0.png"
   inkscape:export-xdpi="96"
   inkscape:export-ydpi="96"
   xmlns:inkscape="http://www.inkscape.org/namespaces/inkscape"
   xmlns:sodipodi="http://sodipodi.sourceforge.net/DTD/sodipodi-0.dtd"
   xmlns="http://www.w3.org/2000/svg"
   xmlns:svg="http://www.w3.org/2000/svg"
   xmlns:rdf="http://www.w3.org/1999/02/22-rdf-syntax-ns#"
   xmlns:cc="http://creativecommons.org/ns#"
   xmlns:dc="http://purl.org/dc/elements/1.1/">
  <defs
     id="defs1675">
    <inkscape:path-effect
       effect="powerstroke"
       id="path-effect2158"
       is_visible="true"
       lpeversion="1"
       offset_points="2.9735088,0.1108665 | 7.2770039,0.12695165 | 9.829368,0.1120772"
       not_jump="true"
       sort_points="true"
       interpolator_type="CentripetalCatmullRom"
       interpolator_beta="0.75"
       start_linecap_type="round"
       linejoin_type="spiro"
       miter_limit="4"
       scale_width="1"
       end_linecap_type="round" />
    <inkscape:path-effect
       effect="simplify"
       id="path-effect2156"
       is_visible="true"
       lpeversion="1"
       steps="1"
       threshold="0.0035951417"
       smooth_angles="0"
       helper_size="0"
       simplify_individual_paths="false"
       simplify_just_coalesce="false"
       step="1" />
    <inkscape:path-effect
       effect="powerstroke"
       id="path-effect502"
       is_visible="true"
       lpeversion="1"
       offset_points="3.0091841,0.21607495 | 7.3602657,0.17554228 | 9.4159651,0.20236537"
       not_jump="true"
       sort_points="true"
       interpolator_type="CentripetalCatmullRom"
       interpolator_beta="0.75"
       start_linecap_type="round"
       linejoin_type="spiro"
       miter_limit="4"
       scale_width="1"
       end_linecap_type="round" />
    <inkscape:path-effect
       effect="simplify"
       id="path-effect500"
       is_visible="true"
       lpeversion="1"
       steps="1"
       threshold="0.0035951417"
       smooth_angles="0"
       helper_size="0"
       simplify_individual_paths="false"
       simplify_just_coalesce="false"
       step="1" />
    <inkscape:path-effect
       effect="powerstroke"
       id="path-effect241"
       is_visible="true"
       lpeversion="1"
       offset_points="2.6879454,0.34086734"
       not_jump="true"
       sort_points="true"
       interpolator_type="CentripetalCatmullRom"
       interpolator_beta="0.75"
       start_linecap_type="round"
       linejoin_type="spiro"
       miter_limit="4"
       scale_width="1"
       end_linecap_type="round" />
    <inkscape:path-effect
       effect="simplify"
       id="path-effect239"
       is_visible="true"
       lpeversion="1"
       steps="1"
       threshold="0.0028332064"
       smooth_angles="0"
       helper_size="0"
       simplify_individual_paths="false"
       simplify_just_coalesce="false"
       step="1" />
    <inkscape:path-effect
       effect="powerstroke"
       id="path-effect234"
       is_visible="true"
       lpeversion="1"
       offset_points="2.13563,0.075169555"
       not_jump="true"
       sort_points="true"
       interpolator_type="CentripetalCatmullRom"
       interpolator_beta="0.75"
       start_linecap_type="round"
       linejoin_type="spiro"
       miter_limit="4"
       scale_width="1"
       end_linecap_type="round" />
    <inkscape:path-effect
       effect="simplify"
       id="path-effect232"
       is_visible="true"
       lpeversion="1"
       steps="1"
       threshold="0.0028332064"
       smooth_angles="0"
       helper_size="0"
       simplify_individual_paths="false"
       simplify_just_coalesce="false"
       step="1" />
    <inkscape:path-effect
       effect="powerstroke"
       id="path-effect227"
       is_visible="true"
       lpeversion="1"
       offset_points="2.1868266,0.075169555"
       not_jump="true"
       sort_points="true"
       interpolator_type="CentripetalCatmullRom"
       interpolator_beta="0.75"
       start_linecap_type="round"
       linejoin_type="spiro"
       miter_limit="4"
       scale_width="1"
       end_linecap_type="round" />
    <inkscape:path-effect
       effect="simplify"
       id="path-effect225"
       is_visible="true"
       lpeversion="1"
       steps="1"
       threshold="0.0028332064"
       smooth_angles="0"
       helper_size="0"
       simplify_individual_paths="false"
       simplify_just_coalesce="false"
       step="1" />
    <inkscape:path-effect
       effect="powerstroke"
       id="path-effect166"
       is_visible="true"
       lpeversion="1"
       offset_points="1.9637935,0.075169555"
       not_jump="true"
       sort_points="true"
       interpolator_type="CentripetalCatmullRom"
       interpolator_beta="0.75"
       start_linecap_type="round"
       linejoin_type="spiro"
       miter_limit="4"
       scale_width="1"
       end_linecap_type="round" />
    <inkscape:path-effect
       effect="simplify"
       id="path-effect164"
       is_visible="true"
       lpeversion="1"
       steps="1"
       threshold="0.0028332064"
       smooth_angles="0"
       helper_size="0"
       simplify_individual_paths="false"
       simplify_just_coalesce="false"
       step="1" />
    <inkscape:path-effect
       effect="powerstroke"
       id="path-effect159"
       is_visible="true"
       lpeversion="1"
       offset_points="2.2611036,0.075169555"
       not_jump="true"
       sort_points="true"
       interpolator_type="CentripetalCatmullRom"
       interpolator_beta="0.75"
       start_linecap_type="round"
       linejoin_type="spiro"
       miter_limit="4"
       scale_width="1"
       end_linecap_type="round" />
    <inkscape:path-effect
       effect="simplify"
       id="path-effect157"
       is_visible="true"
       lpeversion="1"
       steps="1"
       threshold="0.0028332064"
       smooth_angles="0"
       helper_size="0"
       simplify_individual_paths="false"
       simplify_just_coalesce="false"
       step="1" />
    <inkscape:path-effect
       effect="powerstroke"
       id="path-effect152"
       is_visible="true"
       lpeversion="1"
       offset_points="2.826981,0.075169555"
       not_jump="true"
       sort_points="true"
       interpolator_type="CentripetalCatmullRom"
       interpolator_beta="0.75"
       start_linecap_type="round"
       linejoin_type="spiro"
       miter_limit="4"
       scale_width="1"
       end_linecap_type="round" />
    <inkscape:path-effect
       effect="simplify"
       id="path-effect150"
       is_visible="true"
       lpeversion="1"
       steps="1"
       threshold="0.0028332064"
       smooth_angles="0"
       helper_size="0"
       simplify_individual_paths="false"
       simplify_just_coalesce="false"
       step="1" />
    <inkscape:path-effect
       effect="powerstroke"
       id="path-effect145"
       is_visible="true"
       lpeversion="1"
       offset_points="3.8374447,0.075169555"
       not_jump="true"
       sort_points="true"
       interpolator_type="CentripetalCatmullRom"
       interpolator_beta="0.75"
       start_linecap_type="round"
       linejoin_type="spiro"
       miter_limit="4"
       scale_width="1"
       end_linecap_type="round" />
    <inkscape:path-effect
       effect="simplify"
       id="path-effect143"
       is_visible="true"
       lpeversion="1"
       steps="1"
       threshold="0.0028332064"
       smooth_angles="0"
       helper_size="0"
       simplify_individual_paths="false"
       simplify_just_coalesce="false"
       step="1" />
    <inkscape:path-effect
       effect="powerstroke"
       id="path-effect138"
       is_visible="true"
       lpeversion="1"
       offset_points="2.6880907,0.075169555"
       not_jump="true"
       sort_points="true"
       interpolator_type="CentripetalCatmullRom"
       interpolator_beta="0.75"
       start_linecap_type="round"
       linejoin_type="spiro"
       miter_limit="4"
       scale_width="1"
       end_linecap_type="round" />
    <inkscape:path-effect
       effect="simplify"
       id="path-effect136"
       is_visible="true"
       lpeversion="1"
       steps="1"
       threshold="0.0028332064"
       smooth_angles="0"
       helper_size="0"
       simplify_individual_paths="false"
       simplify_just_coalesce="false"
       step="1" />
    <inkscape:path-effect
       effect="powerstroke"
       id="path-effect131"
       is_visible="true"
       lpeversion="1"
       offset_points="1.9940581,0.075169555"
       not_jump="true"
       sort_points="true"
       interpolator_type="CentripetalCatmullRom"
       interpolator_beta="0.75"
       start_linecap_type="round"
       linejoin_type="spiro"
       miter_limit="4"
       scale_width="1"
       end_linecap_type="round" />
    <inkscape:path-effect
       effect="simplify"
       id="path-effect129"
       is_visible="true"
       lpeversion="1"
       steps="1"
       threshold="0.0028332064"
       smooth_angles="0"
       helper_size="0"
       simplify_individual_paths="false"
       simplify_just_coalesce="false"
       step="1" />
  </defs>
  <sodipodi:namedview
     id="base"
     pagecolor="#ffffff"
     bordercolor="#666666"
     borderopacity="1.0"
     inkscape:pageopacity="0.0"
     inkscape:pageshadow="2"
     inkscape:zoom="7.919596"
     inkscape:cx="-5.3033008"
     inkscape:cy="20.834396"
     inkscape:document-units="mm"
     inkscape:current-layer="layer1"
     showgrid="false"
     fit-margin-top="0"
     fit-margin-left="0"
     fit-margin-right="0"
     fit-margin-bottom="0"
     inkscape:window-width="1920"
     inkscape:window-height="974"
     inkscape:window-x="-11"
     inkscape:window-y="2869"
     inkscape:window-maximized="1"
     showguides="true"
     inkscape:guide-bbox="true"
     inkscape:snap-bbox="true"
     inkscape:bbox-nodes="true"
     inkscape:snap-nodes="false"
     inkscape:snap-others="false"
     inkscape:snap-page="true"
     inkscape:snap-grids="false"
     inkscape:snap-to-guides="false"
     inkscape:snap-global="false"
     inkscape:pagecheckerboard="0"
     inkscape:showpageshadow="2"
     inkscape:deskcolor="#d1d1d1">
    <sodipodi:guide
       position="-6.1806075,9.4988692"
       orientation="0,1"
       id="guide816"
       inkscape:locked="false" />
    <sodipodi:guide
       position="-4.4101636,10.646923"
       orientation="0,1"
       id="guide818"
       inkscape:locked="false" />
    <sodipodi:guide
       position="2.7595724,11.09577"
       orientation="1,0"
       id="guide820"
       inkscape:locked="false" />
    <sodipodi:guide
       position="3.6572659,10.942217"
       orientation="1,0"
       id="guide822"
       inkscape:locked="false" />
    <sodipodi:guide
       position="-0.051625511,9.7492299"
       orientation="1,0"
       id="guide1853"
       inkscape:locked="false" />
    <sodipodi:guide
       position="-2.3720169,3.0175835"
       orientation="0,1"
       id="guide1855"
       inkscape:locked="false" />
  </sodipodi:namedview>
  <metadata
     id="metadata1678">
    <rdf:RDF>
      <cc:Work
         rdf:about="">
        <dc:format>image/svg+xml</dc:format>
        <dc:type
           rdf:resource="http://purl.org/dc/dcmitype/StillImage" />
      </cc:Work>
    </rdf:RDF>
  </metadata>
  <g
     inkscape:label="Layer 1"
     inkscape:groupmode="layer"
     id="layer1"
     transform="translate(17.028496,-147.22856)">
    <path
       d="m -14.216305,149.37891 c 0.0012,-0.002 0.0011,-0.002 -1.64e-4,0 -4.85e-4,6.5e-4 -0.0053,0.007 -0.0144,0.0144 -0.0045,0.004 -0.01243,0.009 -0.02356,0.0139 -0.0109,0.005 -0.02727,0.009 -0.04742,0.008 -0.0098,-5.5e-4 -0.01986,-0.002 -0.02971,-0.006 -0.0097,-0.003 -0.01833,-0.008 -0.02589,-0.0132 -0.0146,-0.0102 -0.02368,-0.0217 -0.02938,-0.0308 -0.0054,-0.009 -0.0084,-0.0162 -0.01007,-0.0212 -0.0017,-0.005 -0.0026,-0.009 -0.0031,-0.0119 -9.52e-4,-0.005 -0.001,-0.008 -0.0011,-0.009 -3.4e-5,-0.001 7.3e-5,0.002 -3.3e-4,0.008 -3.89e-4,0.005 -0.0011,0.0122 -0.0021,0.0203 -9.26e-4,0.008 -0.002,0.0156 -0.0032,0.0238 -0.0012,0.008 -0.0022,0.015 -0.0033,0.0225 -4.98e-4,0.003 -9.95e-4,0.007 -0.0014,0.01 -4.11e-4,0.003 -8.72e-4,0.006 -0.0012,0.01 -0.01583,0.11074 -0.0385,0.23346 -0.05814,0.36323 -0.01849,0.12217 -0.03417,0.25206 -0.03533,0.38521 -0.09859,1.22615 -0.05669,2.57344 -0.06749,3.71129 -3.18e-4,0.0335 -6.77e-4,0.0671 -0.0011,0.10071 -3.57e-4,0.0296 10e-5,0.0602 0.01189,0.0874 0.0059,0.0136 0.01448,0.0261 0.02551,0.036 0.01104,0.01 0.0245,0.0171 0.0389,0.0206 0.0144,0.003 0.02966,0.003 0.044,-5.5e-4 0.01433,-0.004 0.02768,-0.011 0.03914,-0.0203 0.02293,-0.0188 0.03737,-0.0457 0.05069,-0.0722 0.05574,-0.11082 0.08931,-0.22793 0.113626,-0.34897 0.02299,-0.11444 0.03691,-0.22781 0.05477,-0.33875 0.02571,-0.18974 0.05736,-0.37856 0.102663,-0.56449 0.09205,-0.474 0.204068,-0.92336 0.377823,-1.34493 0.02751,-0.003 0.05453,-0.003 0.07892,0.002 0.02007,0.004 0.03752,0.0101 0.05206,0.0181 0.01486,0.008 0.02729,0.0184 0.03756,0.0307 0.02352,0.028 0.04245,0.0585 0.05827,0.0913 0.0018,0.004 0.0035,0.007 0.0052,0.011 0.01375,0.0301 0.02555,0.0631 0.03594,0.0992 0.02329,0.081 0.03621,0.16502 0.05253,0.26121 0.01534,0.10035 0.02637,0.20769 0.0413,0.31428 0.01586,0.11322 0.03539,0.21982 0.06719,0.32412 0.05639,0.39354 0.09434,0.71938 0.117267,0.87674 0.0134,0.092 0.02392,0.15868 0.02804,0.18398 a 0.1120772,0.1120772 90 0 0 0.221236,-0.036 c -0.0042,-0.0258 -0.01457,-0.0882 -0.02738,-0.17967 -0.02182,-0.15565 -0.05449,-0.48096 -0.106962,-0.88682 -7.83e-4,-0.006 -0.0022,-0.012 -0.0039,-0.0179 -0.02568,-0.09 -0.0414,-0.18519 -0.05452,-0.29569 -0.012,-0.10107 -0.02098,-0.20947 -0.03611,-0.32048 -0.01384,-0.092 -0.02781,-0.19372 -0.05514,-0.29236 -0.01274,-0.046 -0.02839,-0.0914 -0.04829,-0.13549 -0.0024,-0.005 -0.005,-0.0108 -0.0076,-0.0163 -0.02341,-0.0488 -0.05342,-0.0981 -0.09274,-0.14462 -0.03171,-0.0377 -0.0698,-0.0678 -0.111946,-0.0903 -0.04049,-0.0216 -0.08391,-0.0357 -0.127864,-0.0433 -0.08402,-0.0145 -0.172177,-0.006 -0.251285,0.0207 -0.01703,0.006 -0.03418,0.0124 -0.04747,0.0245 -0.01329,0.0121 -0.02154,0.0286 -0.02852,0.0451 -0.195439,0.46296 -0.314394,0.95274 -0.407508,1.45131 -0.04341,0.19277 -0.07274,0.39087 -0.09554,0.58224 -0.01752,0.11922 -0.02796,0.21853 -0.04861,0.32748 -0.02082,0.10986 -0.04845,0.2061 -0.09148,0.29293 l 0.210129,0.0509 c 3.73e-4,-0.0338 7e-4,-0.0676 9.86e-4,-0.10128 0.0098,-1.15167 -0.03265,-2.47943 0.06538,-3.70357 0.0013,-0.12566 0.01527,-0.24368 0.03327,-0.3619 0.01898,-0.12473 0.04201,-0.24845 0.05926,-0.36803 0.0012,-0.009 0.0017,-0.0114 0.0022,-0.0147 0.001,-0.007 0.0023,-0.0146 0.0036,-0.0233 0.0014,-0.009 0.0028,-0.0188 0.004,-0.0286 0.0013,-0.0102 0.0025,-0.0208 0.0033,-0.0309 8.31e-4,-0.0104 0.0014,-0.0224 9.66e-4,-0.0343 -2.53e-4,-0.006 -8.81e-4,-0.0146 -0.0026,-0.0238 -9.23e-4,-0.005 -0.0023,-0.0109 -0.0046,-0.0176 -0.0023,-0.007 -0.0059,-0.0157 -0.01203,-0.0254 -0.0065,-0.0103 -0.01636,-0.0227 -0.03187,-0.0335 -0.008,-0.006 -0.01717,-0.0104 -0.02734,-0.014 -0.01037,-0.004 -0.02092,-0.006 -0.03131,-0.006 -0.02128,-0.001 -0.03887,0.004 -0.05107,0.009 -0.01248,0.005 -0.02181,0.0118 -0.02784,0.0165 -0.01232,0.01 -0.02069,0.0202 -0.02499,0.0259 -0.0055,0.007 -0.01017,0.0147 -0.01371,0.0207 a 0.1108665,0.1108665 90 0 0 0.190994,0.11264 z"
       id="path-1"
       inkscape:path-effect="#path-effect2156;#path-effect2158"
       inkscape:original-d="m -14.311802,149.32259 c 0.08342,-0.18821 -0.09882,0.62132 -0.08071,0.79976 -0.106475,1.28317 -0.0565,2.57166 -0.07132,3.85746 0.142131,-0.25749 0.147231,-0.80298 0.242713,-1.17064 0.09413,-0.50547 0.213826,-1.00976 0.415628,-1.48424 0.621172,-0.17489 0.493959,0.82892 0.631768,1.21639 0.0498,0.36156 0.08415,0.72521 0.142864,1.08553"
       style="fill:#000000;fill-rule:nonzero;stroke:none;stroke-width:1.17806" />
  </g>
</svg>
