<?xml version="1.0" encoding="UTF-8" standalone="no"?>
<!-- Created with Inkscape (http://www.inkscape.org/) -->

<svg
   width="6mm"
   height="10mm"
   viewBox="0 0 6.0000001 9.9999994"
   version="1.1"
   id="svg1681"
   inkscape:version="1.2.1 (9c6d41e410, 2022-07-14)"
   sodipodi:docname="lower b 1.2.svg"
   inkscape:export-filename="..\..\..\..\Downloads\lower a diff canvas resize 3.0.png"
   inkscape:export-xdpi="96"
   inkscape:export-ydpi="96"
   xmlns:inkscape="http://www.inkscape.org/namespaces/inkscape"
   xmlns:sodipodi="http://sodipodi.sourceforge.net/DTD/sodipodi-0.dtd"
   xmlns="http://www.w3.org/2000/svg"
   xmlns:svg="http://www.w3.org/2000/svg"
   xmlns:rdf="http://www.w3.org/1999/02/22-rdf-syntax-ns#"
   xmlns:cc="http://creativecommons.org/ns#"
   xmlns:dc="http://purl.org/dc/elements/1.1/">
  <defs
     id="defs1675">
    <inkscape:path-effect
       effect="powerstroke"
       id="path-effect783"
       is_visible="true"
       lpeversion="1"
       offset_points="4.3708016,0.16509901 | 8.4420096,0.14812366 | 12.262353,0.16893216"
       not_jump="true"
       sort_points="true"
       interpolator_type="CentripetalCatmullRom"
       interpolator_beta="0.75"
       start_linecap_type="round"
       linejoin_type="spiro"
       miter_limit="4"
       scale_width="1"
       end_linecap_type="round" />
    <inkscape:path-effect
       effect="simplify"
       id="path-effect781"
       is_visible="true"
       lpeversion="1"
       steps="1"
       threshold="0.0035951417"
       smooth_angles="0"
       helper_size="0"
       simplify_individual_paths="false"
       simplify_just_coalesce="false"
       step="1" />
    <inkscape:path-effect
       effect="powerstroke"
       id="path-effect740"
       is_visible="true"
       lpeversion="1"
       offset_points="2.6307602,0.15508784 | 9.2167423,0.19052838"
       not_jump="true"
       sort_points="true"
       interpolator_type="CentripetalCatmullRom"
       interpolator_beta="0.75"
       start_linecap_type="round"
       linejoin_type="spiro"
       miter_limit="4"
       scale_width="1"
       end_linecap_type="round" />
    <inkscape:path-effect
       effect="simplify"
       id="path-effect738"
       is_visible="true"
       lpeversion="1"
       steps="1"
       threshold="0.0035951417"
       smooth_angles="0"
       helper_size="0"
       simplify_individual_paths="false"
       simplify_just_coalesce="false"
       step="1" />
    <inkscape:path-effect
       effect="powerstroke"
       id="path-effect733"
       is_visible="true"
       lpeversion="1"
       offset_points="2.8560834,0.10619657 | 5.4008278,0.12870828"
       not_jump="true"
       sort_points="true"
       interpolator_type="CentripetalCatmullRom"
       interpolator_beta="0.75"
       start_linecap_type="round"
       linejoin_type="spiro"
       miter_limit="4"
       scale_width="1"
       end_linecap_type="round" />
    <inkscape:path-effect
       effect="simplify"
       id="path-effect731"
       is_visible="true"
       lpeversion="1"
       steps="1"
       threshold="0.0035951417"
       smooth_angles="0"
       helper_size="0"
       simplify_individual_paths="false"
       simplify_just_coalesce="false"
       step="1" />
    <inkscape:path-effect
       effect="powerstroke"
       id="path-effect502"
       is_visible="true"
       lpeversion="1"
       offset_points="3.0091841,0.21607495 | 7.3602657,0.17554228 | 9.4159651,0.20236537"
       not_jump="true"
       sort_points="true"
       interpolator_type="CentripetalCatmullRom"
       interpolator_beta="0.75"
       start_linecap_type="round"
       linejoin_type="spiro"
       miter_limit="4"
       scale_width="1"
       end_linecap_type="round" />
    <inkscape:path-effect
       effect="simplify"
       id="path-effect500"
       is_visible="true"
       lpeversion="1"
       steps="1"
       threshold="0.0035951417"
       smooth_angles="0"
       helper_size="0"
       simplify_individual_paths="false"
       simplify_just_coalesce="false"
       step="1" />
    <inkscape:path-effect
       effect="powerstroke"
       id="path-effect241"
       is_visible="true"
       lpeversion="1"
       offset_points="2.6879454,0.34086734"
       not_jump="true"
       sort_points="true"
       interpolator_type="CentripetalCatmullRom"
       interpolator_beta="0.75"
       start_linecap_type="round"
       linejoin_type="spiro"
       miter_limit="4"
       scale_width="1"
       end_linecap_type="round" />
    <inkscape:path-effect
       effect="simplify"
       id="path-effect239"
       is_visible="true"
       lpeversion="1"
       steps="1"
       threshold="0.0028332064"
       smooth_angles="0"
       helper_size="0"
       simplify_individual_paths="false"
       simplify_just_coalesce="false"
       step="1" />
    <inkscape:path-effect
       effect="powerstroke"
       id="path-effect234"
       is_visible="true"
       lpeversion="1"
       offset_points="2.13563,0.075169555"
       not_jump="true"
       sort_points="true"
       interpolator_type="CentripetalCatmullRom"
       interpolator_beta="0.75"
       start_linecap_type="round"
       linejoin_type="spiro"
       miter_limit="4"
       scale_width="1"
       end_linecap_type="round" />
    <inkscape:path-effect
       effect="simplify"
       id="path-effect232"
       is_visible="true"
       lpeversion="1"
       steps="1"
       threshold="0.0028332064"
       smooth_angles="0"
       helper_size="0"
       simplify_individual_paths="false"
       simplify_just_coalesce="false"
       step="1" />
    <inkscape:path-effect
       effect="powerstroke"
       id="path-effect227"
       is_visible="true"
       lpeversion="1"
       offset_points="2.1868266,0.075169555"
       not_jump="true"
       sort_points="true"
       interpolator_type="CentripetalCatmullRom"
       interpolator_beta="0.75"
       start_linecap_type="round"
       linejoin_type="spiro"
       miter_limit="4"
       scale_width="1"
       end_linecap_type="round" />
    <inkscape:path-effect
       effect="simplify"
       id="path-effect225"
       is_visible="true"
       lpeversion="1"
       steps="1"
       threshold="0.0028332064"
       smooth_angles="0"
       helper_size="0"
       simplify_individual_paths="false"
       simplify_just_coalesce="false"
       step="1" />
    <inkscape:path-effect
       effect="powerstroke"
       id="path-effect166"
       is_visible="true"
       lpeversion="1"
       offset_points="1.9637935,0.075169555"
       not_jump="true"
       sort_points="true"
       interpolator_type="CentripetalCatmullRom"
       interpolator_beta="0.75"
       start_linecap_type="round"
       linejoin_type="spiro"
       miter_limit="4"
       scale_width="1"
       end_linecap_type="round" />
    <inkscape:path-effect
       effect="simplify"
       id="path-effect164"
       is_visible="true"
       lpeversion="1"
       steps="1"
       threshold="0.0028332064"
       smooth_angles="0"
       helper_size="0"
       simplify_individual_paths="false"
       simplify_just_coalesce="false"
       step="1" />
    <inkscape:path-effect
       effect="powerstroke"
       id="path-effect159"
       is_visible="true"
       lpeversion="1"
       offset_points="2.2611036,0.075169555"
       not_jump="true"
       sort_points="true"
       interpolator_type="CentripetalCatmullRom"
       interpolator_beta="0.75"
       start_linecap_type="round"
       linejoin_type="spiro"
       miter_limit="4"
       scale_width="1"
       end_linecap_type="round" />
    <inkscape:path-effect
       effect="simplify"
       id="path-effect157"
       is_visible="true"
       lpeversion="1"
       steps="1"
       threshold="0.0028332064"
       smooth_angles="0"
       helper_size="0"
       simplify_individual_paths="false"
       simplify_just_coalesce="false"
       step="1" />
    <inkscape:path-effect
       effect="powerstroke"
       id="path-effect152"
       is_visible="true"
       lpeversion="1"
       offset_points="2.826981,0.075169555"
       not_jump="true"
       sort_points="true"
       interpolator_type="CentripetalCatmullRom"
       interpolator_beta="0.75"
       start_linecap_type="round"
       linejoin_type="spiro"
       miter_limit="4"
       scale_width="1"
       end_linecap_type="round" />
    <inkscape:path-effect
       effect="simplify"
       id="path-effect150"
       is_visible="true"
       lpeversion="1"
       steps="1"
       threshold="0.0028332064"
       smooth_angles="0"
       helper_size="0"
       simplify_individual_paths="false"
       simplify_just_coalesce="false"
       step="1" />
    <inkscape:path-effect
       effect="powerstroke"
       id="path-effect145"
       is_visible="true"
       lpeversion="1"
       offset_points="3.8374447,0.075169555"
       not_jump="true"
       sort_points="true"
       interpolator_type="CentripetalCatmullRom"
       interpolator_beta="0.75"
       start_linecap_type="round"
       linejoin_type="spiro"
       miter_limit="4"
       scale_width="1"
       end_linecap_type="round" />
    <inkscape:path-effect
       effect="simplify"
       id="path-effect143"
       is_visible="true"
       lpeversion="1"
       steps="1"
       threshold="0.0028332064"
       smooth_angles="0"
       helper_size="0"
       simplify_individual_paths="false"
       simplify_just_coalesce="false"
       step="1" />
    <inkscape:path-effect
       effect="powerstroke"
       id="path-effect138"
       is_visible="true"
       lpeversion="1"
       offset_points="2.6880907,0.075169555"
       not_jump="true"
       sort_points="true"
       interpolator_type="CentripetalCatmullRom"
       interpolator_beta="0.75"
       start_linecap_type="round"
       linejoin_type="spiro"
       miter_limit="4"
       scale_width="1"
       end_linecap_type="round" />
    <inkscape:path-effect
       effect="simplify"
       id="path-effect136"
       is_visible="true"
       lpeversion="1"
       steps="1"
       threshold="0.0028332064"
       smooth_angles="0"
       helper_size="0"
       simplify_individual_paths="false"
       simplify_just_coalesce="false"
       step="1" />
    <inkscape:path-effect
       effect="powerstroke"
       id="path-effect131"
       is_visible="true"
       lpeversion="1"
       offset_points="1.9940581,0.075169555"
       not_jump="true"
       sort_points="true"
       interpolator_type="CentripetalCatmullRom"
       interpolator_beta="0.75"
       start_linecap_type="round"
       linejoin_type="spiro"
       miter_limit="4"
       scale_width="1"
       end_linecap_type="round" />
    <inkscape:path-effect
       effect="simplify"
       id="path-effect129"
       is_visible="true"
       lpeversion="1"
       steps="1"
       threshold="0.0028332064"
       smooth_angles="0"
       helper_size="0"
       simplify_individual_paths="false"
       simplify_just_coalesce="false"
       step="1" />
  </defs>
  <sodipodi:namedview
     id="base"
     pagecolor="#ffffff"
     bordercolor="#666666"
     borderopacity="1.0"
     inkscape:pageopacity="0.0"
     inkscape:pageshadow="2"
     inkscape:zoom="7.919596"
     inkscape:cx="-5.3033008"
     inkscape:cy="10.985409"
     inkscape:document-units="mm"
     inkscape:current-layer="layer1"
     showgrid="false"
     fit-margin-top="0"
     fit-margin-left="0"
     fit-margin-right="0"
     fit-margin-bottom="0"
     inkscape:window-width="1920"
     inkscape:window-height="974"
     inkscape:window-x="1108"
     inkscape:window-y="2149"
     inkscape:window-maximized="1"
     showguides="true"
     inkscape:guide-bbox="true"
     inkscape:snap-bbox="true"
     inkscape:bbox-nodes="true"
     inkscape:snap-nodes="false"
     inkscape:snap-others="false"
     inkscape:snap-page="true"
     inkscape:snap-grids="false"
     inkscape:snap-to-guides="false"
     inkscape:snap-global="false"
     inkscape:pagecheckerboard="0"
     inkscape:showpageshadow="2"
     inkscape:deskcolor="#d1d1d1">
    <sodipodi:guide
       position="-6.1806075,9.4988692"
       orientation="0,1"
       id="guide816"
       inkscape:locked="false" />
    <sodipodi:guide
       position="-4.4101636,10.646923"
       orientation="0,1"
       id="guide818"
       inkscape:locked="false" />
    <sodipodi:guide
       position="2.7595724,11.09577"
       orientation="1,0"
       id="guide820"
       inkscape:locked="false" />
    <sodipodi:guide
       position="3.6572659,10.942217"
       orientation="1,0"
       id="guide822"
       inkscape:locked="false" />
    <sodipodi:guide
       position="-0.051625511,9.7492299"
       orientation="1,0"
       id="guide1853"
       inkscape:locked="false" />
    <sodipodi:guide
       position="-2.3720169,3.0175835"
       orientation="0,1"
       id="guide1855"
       inkscape:locked="false" />
  </sodipodi:namedview>
  <metadata
     id="metadata1678">
    <rdf:RDF>
      <cc:Work
         rdf:about="">
        <dc:format>image/svg+xml</dc:format>
        <dc:type
           rdf:resource="http://purl.org/dc/dcmitype/StillImage" />
      </cc:Work>
    </rdf:RDF>
  </metadata>
  <g
     inkscape:label="Layer 1"
     inkscape:groupmode="layer"
     id="layer1"
     transform="translate(17.028496,-147.22856)">
    <path
       d="m -14.425607,147.87267 c 0.01554,1.14412 -0.0071,3.05751 -0.319455,5.27867 -6.52e-4,0.005 -0.0011,0.009 -0.0014,0.014 -0.0055,0.098 -0.0058,0.19755 -0.01482,0.2897 -0.0043,0.0434 -0.01043,0.0846 -0.01977,0.12355 -0.0091,0.0377 -0.02096,0.0728 -0.03685,0.10564 l 0.01267,-0.0218 c -0.0021,0.003 -0.0031,0.004 -0.0019,0.003 8.47e-4,-9.6e-4 0.0048,-0.005 0.01216,-0.0108 0.0072,-0.005 0.02054,-0.0138 0.03978,-0.0195 0.02028,-0.006 0.04511,-0.008 0.07168,-0.003 0.02608,0.005 0.04638,0.0171 0.06059,0.0284 0.01355,0.0108 0.02185,0.0216 0.02624,0.028 0.0094,0.0139 0.0091,0.0171 0.0085,0.0153 -8.15e-4,-0.003 -0.0023,-0.008 -0.0042,-0.0176 -0.0019,-0.009 -0.0036,-0.0197 -0.0055,-0.0319 -0.0019,-0.0119 -0.0037,-0.0246 -0.0058,-0.0378 -0.0016,-0.01 -0.0036,-0.0218 -0.0062,-0.034 -0.03441,-0.24042 -0.03278,-0.50282 -0.04516,-0.74571 8.3e-4,-0.1936 0.01668,-0.3883 0.04963,-0.57195 0.0119,-0.0663 0.02613,-0.13184 0.04291,-0.19625 0.06516,-0.25018 0.168333,-0.48257 0.321157,-0.68256 0.06359,-0.08 0.128677,-0.1553 0.199867,-0.21372 0.03513,-0.0288 0.07042,-0.0524 0.106331,-0.0702 0.03575,-0.0177 0.07254,-0.03 0.111269,-0.036 0.124998,-0.0224 0.253122,-0.003 0.368429,0.052 0.115805,0.0549 0.213868,0.14262 0.275644,0.2501 0.0024,0.004 0.005,0.008 0.0078,0.0124 0.112126,0.15848 0.17894,0.34306 0.209418,0.53967 0.03064,0.19764 0.02417,0.40529 -0.0087,0.60541 -8.82e-4,0.005 -0.0015,0.0108 -0.0018,0.0162 -0.01034,0.19526 -0.07095,0.38297 -0.168554,0.55438 -0.01265,0.0222 -0.02609,0.0445 -0.04034,0.0667 -0.112084,0.17473 -0.272378,0.34443 -0.474509,0.48106 -0.182779,0.12822 -0.395333,0.21795 -0.63854,0.29128 -0.709478,0.25088 -1.425468,0.38722 -1.425751,0.38555 -2.43e-4,-0.001 0.663295,-0.15117 0.794238,-0.19057 a 0.16893216,0.16893216 90 0 0 0.09735,0.32354 c -0.135999,0.0409 -0.834587,0.20153 -0.834833,0.20009 -2.86e-4,-0.002 0.755878,-0.16465 1.466457,-0.42804 0.252729,-0.0797 0.49662,-0.18355 0.711143,-0.33663 0.232609,-0.15859 0.420605,-0.3579 0.553996,-0.56647 0.01701,-0.0266 0.0331,-0.0533 0.0483,-0.08 0.115823,-0.20383 0.19197,-0.43272 0.206876,-0.67633 0.03649,-0.22265 0.04534,-0.45947 0.0108,-0.69111 -0.03448,-0.23122 -0.112648,-0.45983 -0.252126,-0.66272 -0.0931,-0.16329 -0.236795,-0.29219 -0.402245,-0.3732 -0.16669,-0.0816 -0.360274,-0.11688 -0.55201,-0.0849 -0.06948,0.009 -0.13775,0.0311 -0.200419,0.0607 -0.0623,0.0295 -0.118603,0.0664 -0.169521,0.1068 -0.100467,0.0796 -0.184599,0.17631 -0.254847,0.26238 -0.187789,0.24306 -0.308858,0.51682 -0.38373,0.80059 -0.01929,0.0731 -0.03553,0.14696 -0.04903,0.22113 -0.03734,0.20518 -0.0549,0.41936 -0.05594,0.63817 0.01053,0.22642 0.0097,0.52938 0.048,0.79262 7.47e-4,0.005 0.0016,0.0102 0.003,0.0152 -6.6e-5,-2.3e-4 0.0014,0.007 0.003,0.0169 0.0016,0.01 0.0034,0.0225 0.0056,0.0367 0.0022,0.0139 0.0048,0.0301 0.0082,0.0465 0.0033,0.0161 0.0077,0.035 0.0138,0.054 0.0057,0.0176 0.01553,0.0437 0.03293,0.0693 0.0091,0.0134 0.02248,0.0299 0.04149,0.0451 0.01968,0.0157 0.04583,0.0302 0.07821,0.037 0.03288,0.007 0.06444,0.004 0.09193,-0.004 0.02647,-0.008 0.04747,-0.0203 0.06292,-0.0318 0.01558,-0.0115 0.02831,-0.0241 0.03844,-0.0355 0.01033,-0.0116 0.01953,-0.0237 0.02775,-0.0357 0.0048,-0.007 0.009,-0.0142 0.01267,-0.0218 0.02802,-0.0581 0.04719,-0.11654 0.06067,-0.17317 0.0138,-0.058 0.02186,-0.11508 0.02701,-0.16858 0.01075,-0.11165 0.01061,-0.212 0.01487,-0.29691 0.314049,-2.24109 0.336151,-4.17001 0.320501,-5.32203 a 0.16509901,0.16509901 90 0 0 -0.330168,0.004 z"
       id="path-1"
       inkscape:path-effect="#path-effect781;#path-effect783"
       inkscape:original-d="m -14.260523,147.87043 c 0.02408,1.77267 -0.07379,3.54821 -0.320484,5.30396 -0.0043,0.18948 -0.01637,0.61283 -0.150485,0.63079 -0.08423,-0.28954 -0.06763,-0.59741 -0.08879,-0.89594 -0.0098,-0.68433 0.154256,-1.444 0.714436,-1.89213 0.339289,-0.24072 0.842967,-0.0898 1.046162,0.25923 0.260555,0.36046 0.307357,0.82835 0.235622,1.25605 -0.03569,0.74848 -0.674989,1.32797 -1.361417,1.52586 -0.228773,0.0838 -0.459129,0.16355 -0.692473,0.23376"
       style="fill:#000000;fill-rule:nonzero;stroke:none;stroke-width:1.11894" />
  </g>
</svg>
