<?xml version="1.0" encoding="UTF-8" standalone="no"?>
<!-- Created with Inkscape (http://www.inkscape.org/) -->

<svg
   width="6mm"
   height="10mm"
   viewBox="0 0 6.0000001 9.9999994"
   version="1.1"
   id="svg1681"
   inkscape:version="1.2.1 (9c6d41e410, 2022-07-14)"
   sodipodi:docname="lower b 1.4.svg"
   inkscape:export-filename="..\..\..\..\Downloads\lower a diff canvas resize 3.0.png"
   inkscape:export-xdpi="96"
   inkscape:export-ydpi="96"
   xmlns:inkscape="http://www.inkscape.org/namespaces/inkscape"
   xmlns:sodipodi="http://sodipodi.sourceforge.net/DTD/sodipodi-0.dtd"
   xmlns="http://www.w3.org/2000/svg"
   xmlns:svg="http://www.w3.org/2000/svg"
   xmlns:rdf="http://www.w3.org/1999/02/22-rdf-syntax-ns#"
   xmlns:cc="http://creativecommons.org/ns#"
   xmlns:dc="http://purl.org/dc/elements/1.1/">
  <defs
     id="defs1675">
    <inkscape:path-effect
       effect="powerstroke"
       id="path-effect306"
       is_visible="true"
       lpeversion="1"
       offset_points="1.7184063,0.082328547"
       not_jump="true"
       sort_points="true"
       interpolator_type="CentripetalCatmullRom"
       interpolator_beta="0.75"
       start_linecap_type="round"
       linejoin_type="spiro"
       miter_limit="4"
       scale_width="1"
       end_linecap_type="round" />
    <inkscape:path-effect
       effect="simplify"
       id="path-effect304"
       is_visible="true"
       lpeversion="1"
       steps="1"
       threshold="0.0035951417"
       smooth_angles="0"
       helper_size="0"
       simplify_individual_paths="false"
       simplify_just_coalesce="false"
       step="1" />
    <inkscape:path-effect
       effect="powerstroke"
       id="path-effect191"
       is_visible="true"
       lpeversion="1"
       offset_points="2.569243,0.097644555 | 16.16105,0.11717347"
       not_jump="true"
       sort_points="true"
       interpolator_type="CentripetalCatmullRom"
       interpolator_beta="0.75"
       start_linecap_type="round"
       linejoin_type="spiro"
       miter_limit="4"
       scale_width="1"
       end_linecap_type="round" />
    <inkscape:path-effect
       effect="simplify"
       id="path-effect189"
       is_visible="true"
       lpeversion="1"
       steps="1"
       threshold="0.0035951417"
       smooth_angles="0"
       helper_size="0"
       simplify_individual_paths="false"
       simplify_just_coalesce="false"
       step="1" />
    <inkscape:path-effect
       effect="powerstroke"
       id="path-effect184"
       is_visible="true"
       lpeversion="1"
       offset_points="0.25204241,0.11839403 | 1.5893063,0.1371906"
       not_jump="true"
       sort_points="true"
       interpolator_type="CentripetalCatmullRom"
       interpolator_beta="0.75"
       start_linecap_type="round"
       linejoin_type="spiro"
       miter_limit="4"
       scale_width="1"
       end_linecap_type="round" />
    <inkscape:path-effect
       effect="simplify"
       id="path-effect182"
       is_visible="true"
       lpeversion="1"
       steps="1"
       threshold="0.0035951417"
       smooth_angles="0"
       helper_size="0"
       simplify_individual_paths="false"
       simplify_just_coalesce="false"
       step="1" />
    <inkscape:path-effect
       effect="powerstroke"
       id="path-effect177"
       is_visible="true"
       lpeversion="1"
       offset_points="1.4912441,0.093374679 | 6.9846573,0.08251033"
       not_jump="true"
       sort_points="true"
       interpolator_type="CentripetalCatmullRom"
       interpolator_beta="0.75"
       start_linecap_type="round"
       linejoin_type="spiro"
       miter_limit="4"
       scale_width="1"
       end_linecap_type="round" />
    <inkscape:path-effect
       effect="simplify"
       id="path-effect175"
       is_visible="true"
       lpeversion="1"
       steps="1"
       threshold="0.0035951417"
       smooth_angles="0"
       helper_size="0"
       simplify_individual_paths="false"
       simplify_just_coalesce="false"
       step="1" />
    <inkscape:path-effect
       effect="powerstroke"
       id="path-effect170"
       is_visible="true"
       lpeversion="1"
       offset_points="3.6092516,0.14353749 | 5.1910262,0.1201028 | 7.6167306,0.14402572 | 13.490976,0.10325912"
       not_jump="true"
       sort_points="true"
       interpolator_type="CentripetalCatmullRom"
       interpolator_beta="0.75"
       start_linecap_type="round"
       linejoin_type="spiro"
       miter_limit="4"
       scale_width="1"
       end_linecap_type="round" />
    <inkscape:path-effect
       effect="simplify"
       id="path-effect168"
       is_visible="true"
       lpeversion="1"
       steps="1"
       threshold="0.0035951417"
       smooth_angles="0"
       helper_size="0"
       simplify_individual_paths="false"
       simplify_just_coalesce="false"
       step="1" />
    <inkscape:path-effect
       effect="powerstroke"
       id="path-effect163"
       is_visible="true"
       lpeversion="1"
       offset_points="3.9439887,0.10218361 | 11.274103,0.092787417"
       not_jump="true"
       sort_points="true"
       interpolator_type="CentripetalCatmullRom"
       interpolator_beta="0.75"
       start_linecap_type="round"
       linejoin_type="spiro"
       miter_limit="4"
       scale_width="1"
       end_linecap_type="round" />
    <inkscape:path-effect
       effect="simplify"
       id="path-effect161"
       is_visible="true"
       lpeversion="1"
       steps="1"
       threshold="0.0035951417"
       smooth_angles="0"
       helper_size="0"
       simplify_individual_paths="false"
       simplify_just_coalesce="false"
       step="1" />
    <inkscape:path-effect
       effect="powerstroke"
       id="path-effect106"
       is_visible="true"
       lpeversion="1"
       offset_points="1.2630326,0.090144738 | 3.9169825,0.10879031 | 6.0229174,0.090438369"
       not_jump="true"
       sort_points="true"
       interpolator_type="CentripetalCatmullRom"
       interpolator_beta="0.75"
       start_linecap_type="round"
       linejoin_type="spiro"
       miter_limit="4"
       scale_width="1"
       end_linecap_type="round" />
    <inkscape:path-effect
       effect="simplify"
       id="path-effect104"
       is_visible="true"
       lpeversion="1"
       steps="1"
       threshold="0.0035951417"
       smooth_angles="0"
       helper_size="0"
       simplify_individual_paths="false"
       simplify_just_coalesce="false"
       step="1" />
    <inkscape:path-effect
       effect="powerstroke"
       id="path-effect99"
       is_visible="true"
       lpeversion="1"
       offset_points="1.3188671,0.058138951 | 3.5594741,0.067975592 | 4.5446389,0.05784532 | 9.4327823,0.07561"
       not_jump="true"
       sort_points="true"
       interpolator_type="CentripetalCatmullRom"
       interpolator_beta="0.75"
       start_linecap_type="round"
       linejoin_type="spiro"
       miter_limit="4"
       scale_width="1"
       end_linecap_type="round" />
    <inkscape:path-effect
       effect="simplify"
       id="path-effect97"
       is_visible="true"
       lpeversion="1"
       steps="1"
       threshold="0.0035951417"
       smooth_angles="0"
       helper_size="0"
       simplify_individual_paths="false"
       simplify_just_coalesce="false"
       step="1" />
    <inkscape:path-effect
       effect="powerstroke"
       id="path-effect502"
       is_visible="true"
       lpeversion="1"
       offset_points="3.0091841,0.21607495 | 7.3602657,0.17554228 | 9.4159651,0.20236537"
       not_jump="true"
       sort_points="true"
       interpolator_type="CentripetalCatmullRom"
       interpolator_beta="0.75"
       start_linecap_type="round"
       linejoin_type="spiro"
       miter_limit="4"
       scale_width="1"
       end_linecap_type="round" />
    <inkscape:path-effect
       effect="simplify"
       id="path-effect500"
       is_visible="true"
       lpeversion="1"
       steps="1"
       threshold="0.0035951417"
       smooth_angles="0"
       helper_size="0"
       simplify_individual_paths="false"
       simplify_just_coalesce="false"
       step="1" />
    <inkscape:path-effect
       effect="powerstroke"
       id="path-effect241"
       is_visible="true"
       lpeversion="1"
       offset_points="2.6879454,0.34086734"
       not_jump="true"
       sort_points="true"
       interpolator_type="CentripetalCatmullRom"
       interpolator_beta="0.75"
       start_linecap_type="round"
       linejoin_type="spiro"
       miter_limit="4"
       scale_width="1"
       end_linecap_type="round" />
    <inkscape:path-effect
       effect="simplify"
       id="path-effect239"
       is_visible="true"
       lpeversion="1"
       steps="1"
       threshold="0.0028332064"
       smooth_angles="0"
       helper_size="0"
       simplify_individual_paths="false"
       simplify_just_coalesce="false"
       step="1" />
    <inkscape:path-effect
       effect="powerstroke"
       id="path-effect234"
       is_visible="true"
       lpeversion="1"
       offset_points="2.13563,0.075169555"
       not_jump="true"
       sort_points="true"
       interpolator_type="CentripetalCatmullRom"
       interpolator_beta="0.75"
       start_linecap_type="round"
       linejoin_type="spiro"
       miter_limit="4"
       scale_width="1"
       end_linecap_type="round" />
    <inkscape:path-effect
       effect="simplify"
       id="path-effect232"
       is_visible="true"
       lpeversion="1"
       steps="1"
       threshold="0.0028332064"
       smooth_angles="0"
       helper_size="0"
       simplify_individual_paths="false"
       simplify_just_coalesce="false"
       step="1" />
    <inkscape:path-effect
       effect="powerstroke"
       id="path-effect227"
       is_visible="true"
       lpeversion="1"
       offset_points="2.1868266,0.075169555"
       not_jump="true"
       sort_points="true"
       interpolator_type="CentripetalCatmullRom"
       interpolator_beta="0.75"
       start_linecap_type="round"
       linejoin_type="spiro"
       miter_limit="4"
       scale_width="1"
       end_linecap_type="round" />
    <inkscape:path-effect
       effect="simplify"
       id="path-effect225"
       is_visible="true"
       lpeversion="1"
       steps="1"
       threshold="0.0028332064"
       smooth_angles="0"
       helper_size="0"
       simplify_individual_paths="false"
       simplify_just_coalesce="false"
       step="1" />
    <inkscape:path-effect
       effect="powerstroke"
       id="path-effect166"
       is_visible="true"
       lpeversion="1"
       offset_points="1.9637935,0.075169555"
       not_jump="true"
       sort_points="true"
       interpolator_type="CentripetalCatmullRom"
       interpolator_beta="0.75"
       start_linecap_type="round"
       linejoin_type="spiro"
       miter_limit="4"
       scale_width="1"
       end_linecap_type="round" />
    <inkscape:path-effect
       effect="simplify"
       id="path-effect164"
       is_visible="true"
       lpeversion="1"
       steps="1"
       threshold="0.0028332064"
       smooth_angles="0"
       helper_size="0"
       simplify_individual_paths="false"
       simplify_just_coalesce="false"
       step="1" />
    <inkscape:path-effect
       effect="powerstroke"
       id="path-effect159"
       is_visible="true"
       lpeversion="1"
       offset_points="2.2611036,0.075169555"
       not_jump="true"
       sort_points="true"
       interpolator_type="CentripetalCatmullRom"
       interpolator_beta="0.75"
       start_linecap_type="round"
       linejoin_type="spiro"
       miter_limit="4"
       scale_width="1"
       end_linecap_type="round" />
    <inkscape:path-effect
       effect="simplify"
       id="path-effect157"
       is_visible="true"
       lpeversion="1"
       steps="1"
       threshold="0.0028332064"
       smooth_angles="0"
       helper_size="0"
       simplify_individual_paths="false"
       simplify_just_coalesce="false"
       step="1" />
    <inkscape:path-effect
       effect="powerstroke"
       id="path-effect152"
       is_visible="true"
       lpeversion="1"
       offset_points="2.826981,0.075169555"
       not_jump="true"
       sort_points="true"
       interpolator_type="CentripetalCatmullRom"
       interpolator_beta="0.75"
       start_linecap_type="round"
       linejoin_type="spiro"
       miter_limit="4"
       scale_width="1"
       end_linecap_type="round" />
    <inkscape:path-effect
       effect="simplify"
       id="path-effect150"
       is_visible="true"
       lpeversion="1"
       steps="1"
       threshold="0.0028332064"
       smooth_angles="0"
       helper_size="0"
       simplify_individual_paths="false"
       simplify_just_coalesce="false"
       step="1" />
    <inkscape:path-effect
       effect="powerstroke"
       id="path-effect145"
       is_visible="true"
       lpeversion="1"
       offset_points="3.8374447,0.075169555"
       not_jump="true"
       sort_points="true"
       interpolator_type="CentripetalCatmullRom"
       interpolator_beta="0.75"
       start_linecap_type="round"
       linejoin_type="spiro"
       miter_limit="4"
       scale_width="1"
       end_linecap_type="round" />
    <inkscape:path-effect
       effect="simplify"
       id="path-effect143"
       is_visible="true"
       lpeversion="1"
       steps="1"
       threshold="0.0028332064"
       smooth_angles="0"
       helper_size="0"
       simplify_individual_paths="false"
       simplify_just_coalesce="false"
       step="1" />
    <inkscape:path-effect
       effect="powerstroke"
       id="path-effect138"
       is_visible="true"
       lpeversion="1"
       offset_points="2.6880907,0.075169555"
       not_jump="true"
       sort_points="true"
       interpolator_type="CentripetalCatmullRom"
       interpolator_beta="0.75"
       start_linecap_type="round"
       linejoin_type="spiro"
       miter_limit="4"
       scale_width="1"
       end_linecap_type="round" />
    <inkscape:path-effect
       effect="simplify"
       id="path-effect136"
       is_visible="true"
       lpeversion="1"
       steps="1"
       threshold="0.0028332064"
       smooth_angles="0"
       helper_size="0"
       simplify_individual_paths="false"
       simplify_just_coalesce="false"
       step="1" />
    <inkscape:path-effect
       effect="powerstroke"
       id="path-effect131"
       is_visible="true"
       lpeversion="1"
       offset_points="1.9940581,0.075169555"
       not_jump="true"
       sort_points="true"
       interpolator_type="CentripetalCatmullRom"
       interpolator_beta="0.75"
       start_linecap_type="round"
       linejoin_type="spiro"
       miter_limit="4"
       scale_width="1"
       end_linecap_type="round" />
    <inkscape:path-effect
       effect="simplify"
       id="path-effect129"
       is_visible="true"
       lpeversion="1"
       steps="1"
       threshold="0.0028332064"
       smooth_angles="0"
       helper_size="0"
       simplify_individual_paths="false"
       simplify_just_coalesce="false"
       step="1" />
  </defs>
  <sodipodi:namedview
     id="base"
     pagecolor="#ffffff"
     bordercolor="#666666"
     borderopacity="1.0"
     inkscape:pageopacity="0.0"
     inkscape:pageshadow="2"
     inkscape:zoom="7.919596"
     inkscape:cx="-5.3033008"
     inkscape:cy="20.834396"
     inkscape:document-units="mm"
     inkscape:current-layer="layer1"
     showgrid="false"
     fit-margin-top="0"
     fit-margin-left="0"
     fit-margin-right="0"
     fit-margin-bottom="0"
     inkscape:window-width="1920"
     inkscape:window-height="974"
     inkscape:window-x="-11"
     inkscape:window-y="2869"
     inkscape:window-maximized="1"
     showguides="true"
     inkscape:guide-bbox="true"
     inkscape:snap-bbox="true"
     inkscape:bbox-nodes="true"
     inkscape:snap-nodes="false"
     inkscape:snap-others="false"
     inkscape:snap-page="true"
     inkscape:snap-grids="false"
     inkscape:snap-to-guides="false"
     inkscape:snap-global="false"
     inkscape:pagecheckerboard="0"
     inkscape:showpageshadow="2"
     inkscape:deskcolor="#d1d1d1">
    <sodipodi:guide
       position="-6.1806075,9.4988692"
       orientation="0,1"
       id="guide816"
       inkscape:locked="false" />
    <sodipodi:guide
       position="-4.4101636,10.646923"
       orientation="0,1"
       id="guide818"
       inkscape:locked="false" />
    <sodipodi:guide
       position="2.7595724,11.09577"
       orientation="1,0"
       id="guide820"
       inkscape:locked="false" />
    <sodipodi:guide
       position="3.6572659,10.942217"
       orientation="1,0"
       id="guide822"
       inkscape:locked="false" />
    <sodipodi:guide
       position="-0.051625511,9.7492299"
       orientation="1,0"
       id="guide1853"
       inkscape:locked="false" />
    <sodipodi:guide
       position="-2.3720169,3.0175835"
       orientation="0,1"
       id="guide1855"
       inkscape:locked="false" />
  </sodipodi:namedview>
  <metadata
     id="metadata1678">
    <rdf:RDF>
      <cc:Work
         rdf:about="">
        <dc:format>image/svg+xml</dc:format>
        <dc:type
           rdf:resource="http://purl.org/dc/dcmitype/StillImage" />
      </cc:Work>
    </rdf:RDF>
  </metadata>
  <g
     inkscape:label="Layer 1"
     inkscape:groupmode="layer"
     id="layer1"
     transform="translate(17.028496,-147.22856)">
    <path
       d="m -14.295752,148.93877 c 0.0233,0.36272 0.06989,0.70106 0.166057,1.28576 0.05979,0.36351 0.138398,0.82267 0.173499,1.25852 0.01565,0.11068 0.02704,0.2218 0.04209,0.33893 0.01426,0.11103 0.03228,0.22868 0.06228,0.3462 0.0016,0.006 0.0036,0.0124 0.006,0.0183 0.0029,0.007 0.0062,0.0149 0.01,0.0226 0.0019,0.004 0.0043,0.008 0.007,0.0131 0.0027,0.005 0.0065,0.0107 0.01149,0.0173 0.0046,0.006 0.01288,0.0163 0.02512,0.0264 0.01135,0.009 0.03509,0.0264 0.07024,0.0324 0.01855,0.003 0.03906,0.003 0.06008,-0.002 0.02093,-0.005 0.03865,-0.0142 0.05284,-0.0247 0.01385,-0.0102 0.02384,-0.0213 0.03079,-0.0305 0.007,-0.009 0.01181,-0.018 0.01513,-0.0248 0.0064,-0.0132 0.0097,-0.0249 0.01136,-0.0319 0.0018,-0.008 0.0028,-0.0141 0.0034,-0.0189 0.0012,-0.009 0.0015,-0.0179 0.0016,-0.0238 1.99e-4,-0.0121 -3.99e-4,-0.0244 -0.001,-0.0343 -0.0013,-0.0203 -0.0038,-0.0449 -0.0053,-0.0611 -8.98e-4,-0.009 -0.0015,-0.0163 -0.0019,-0.022 -2.01e-4,-0.003 -3.2e-4,-0.005 -3.76e-4,-0.005 -5.7e-5,-6.3e-4 1.6e-5,-1.3e-4 -2.26e-4,0.004 l -2.3e-4,-0.0181 c -0.02745,-0.36171 -0.09299,-0.72591 -0.144712,-1.00666 -0.0091,-0.0496 -0.03079,-0.16579 -0.03994,-0.21544 -0.05297,-0.286 -0.09473,-0.52243 -0.124302,-0.76383 -0.01329,-0.0642 -0.02342,-0.10315 -0.03163,-0.14979 -0.0075,-0.0424 -0.01172,-0.0841 -0.0078,-0.12424 l -0.208373,0.0665 c -7.1e-5,-8.9e-4 0.002,7.1e-4 0.0051,0.007 9.16e-4,0.002 0.0019,0.004 0.0029,0.006 0.0045,0.0103 0.0088,0.0243 0.0132,0.0431 0.0046,0.0196 0.008,0.0377 0.01309,0.0624 0.0045,0.0218 0.01043,0.0485 0.01899,0.0745 l -0.0041,-0.0131 c 0.06225,0.25129 0.08251,0.51175 0.08811,0.79696 0.0051,0.26225 -0.0036,0.54042 0.0092,0.836 -0.0012,0.44476 -0.01931,0.90837 -0.04907,1.41398 -0.01639,0.27857 -0.03562,0.55844 -0.05911,0.88473 l 0.287088,0.0181 c 0.01617,-0.31163 0.02023,-0.64674 0.04872,-0.99016 0.02571,-0.30995 0.07287,-0.63049 0.179542,-0.94025 0.03154,-0.0878 0.06625,-0.17917 0.107153,-0.26586 0.03969,-0.0841 0.08494,-0.16334 0.139765,-0.23442 0.04115,-0.0482 0.09736,-0.0933 0.161135,-0.12838 0.06372,-0.035 0.133844,-0.0594 0.205429,-0.0714 0.07186,-0.0121 0.143973,-0.0114 0.211815,0.002 0.06827,0.0139 0.132099,0.041 0.188139,0.0822 0.06236,0.0464 0.11256,0.11097 0.151855,0.18584 0.04147,0.079 0.06942,0.16694 0.08807,0.25203 0.04024,0.21647 0.0093,0.43853 -0.06558,0.62565 -0.04154,0.10378 -0.0961,0.19611 -0.159161,0.27495 -0.06992,0.0874 -0.149377,0.15722 -0.23353,0.21041 -0.05542,0.0359 -0.106706,0.0588 -0.14374,0.0727 -0.07701,0.029 -0.139959,0.0375 -0.162822,0.0407 a 0.10325912,0.10325912 90 0 0 0.02869,0.20452 c 0.02857,-0.004 0.1082,-0.0169 0.204888,-0.0512 0.04664,-0.0166 0.112214,-0.0431 0.184886,-0.0859 0.105508,-0.0651 0.20382,-0.14971 0.289963,-0.25479 0.07761,-0.0947 0.144368,-0.20485 0.195416,-0.32793 0.09156,-0.22076 0.132756,-0.48557 0.08676,-0.75209 -0.01901,-0.10152 -0.04955,-0.21168 -0.100485,-0.31638 -0.0484,-0.0995 -0.117098,-0.19786 -0.21512,-0.27558 -0.08729,-0.0664 -0.184282,-0.10918 -0.285458,-0.13159 -0.100041,-0.0222 -0.203679,-0.0243 -0.30451,-0.009 -0.100386,0.0151 -0.19872,0.0475 -0.28884,0.0952 -0.09019,0.0477 -0.172906,0.11115 -0.241173,0.18878 -0.07585,0.093 -0.133135,0.18883 -0.180949,0.28423 -0.04905,0.0979 -0.08958,0.19838 -0.124914,0.29079 -0.120499,0.34297 -0.172264,0.68926 -0.200396,1.01037 -0.0313,0.35733 -0.03636,0.69434 -0.05281,0.99912 -0.0013,0.0243 -0.0026,0.0488 -5.94e-4,0.0731 0.002,0.0243 0.0072,0.0485 0.01745,0.0706 0.01027,0.0221 0.02565,0.042 0.04527,0.0565 0.01962,0.0145 0.04338,0.0234 0.06772,0.0249 0.02434,0.002 0.04902,-0.004 0.0703,-0.0162 0.02128,-0.0119 0.03903,-0.0297 0.052,-0.0504 0.01297,-0.0206 0.02121,-0.044 0.02624,-0.0679 0.005,-0.0239 0.0069,-0.0482 0.0087,-0.0726 0.02401,-0.32527 0.0437,-0.60985 0.05977,-0.88891 0.02931,-0.50903 0.04491,-0.97969 0.04184,-1.43794 -0.01585,-0.28804 -0.0119,-0.56568 -0.02203,-0.83644 -0.01099,-0.29386 -0.03745,-0.57553 -0.111007,-0.85222 -5.9e-4,-0.002 -0.0011,-0.004 -0.0017,-0.007 -5.83e-4,-0.002 -0.0015,-0.004 -0.0025,-0.006 -0.0054,-0.0108 -0.01079,-0.0259 -0.01656,-0.0451 -0.0058,-0.0191 -0.01155,-0.0412 -0.01837,-0.0649 -0.0067,-0.0232 -0.01508,-0.0501 -0.02633,-0.0762 -0.0027,-0.006 -0.0057,-0.0128 -0.0089,-0.0193 -0.0109,-0.0219 -0.0246,-0.0438 -0.04279,-0.0639 -0.01706,-0.0189 -0.035,-0.0378 -0.05774,-0.0492 -0.02274,-0.0114 -0.04993,-0.0146 -0.07408,-0.007 -0.02415,0.008 -0.044,0.0267 -0.056,0.0492 -0.012,0.0224 -0.01654,0.048 -0.02055,0.0732 -0.01046,0.0655 -0.01086,0.12951 -0.0087,0.18263 0.0023,0.0559 0.0077,0.10847 0.01323,0.16185 0.02566,0.24446 0.06592,0.49076 0.116823,0.77743 0.0099,0.0557 0.02862,0.15994 0.03851,0.21565 0.04987,0.2799 0.110925,0.628 0.136642,0.96967 -2.2e-5,0.003 1.9e-5,0.006 7.5e-5,0.009 1.19e-4,0.005 3.61e-4,0.0104 6.4e-4,0.0152 5.44e-4,0.009 0.0014,0.0196 0.0022,0.0293 0.0017,0.0202 0.0035,0.0384 0.0044,0.0533 4.02e-4,0.007 4.53e-4,0.0118 4.64e-4,0.0112 6e-6,-3.1e-4 -9.1e-5,-0.002 6.44e-4,-0.008 3.28e-4,-0.003 0.001,-0.007 0.0024,-0.0131 0.0013,-0.005 0.0041,-0.0155 0.0099,-0.0276 0.0031,-0.006 0.0076,-0.0145 0.01426,-0.0233 0.0066,-0.009 0.0163,-0.0196 0.02981,-0.0295 0.01384,-0.0102 0.0312,-0.0192 0.05174,-0.0242 0.02063,-0.005 0.04074,-0.005 0.05886,-0.002 0.0343,0.006 0.0571,0.0224 0.06743,0.0309 0.01122,0.009 0.01837,0.0182 0.02179,0.0228 0.0038,0.005 0.0063,0.009 0.0076,0.0114 0.0014,0.002 0.0022,0.004 0.0025,0.005 7.57e-4,0.002 1.82e-4,5e-4 -8.9e-4,-0.002 l 0.006,0.0183 c -0.02586,-0.10033 -0.04247,-0.2042 -0.0567,-0.31121 -0.01486,-0.11183 -0.02702,-0.22496 -0.04331,-0.33396 -0.03586,-0.44109 -0.117633,-0.9136 -0.17722,-1.27269 -0.09643,-0.58113 -0.141779,-0.90971 -0.164102,-1.25715 a 0.14353749,0.14353749 90 0 0 -0.286484,0.0184 z"
       id="path-1"
       inkscape:path-effect="#path-effect168;#path-effect170"
       inkscape:original-d="m -14.15251,148.92957 c 0.05371,0.84825 0.269722,1.67477 0.338145,2.52151 0.02961,0.20774 0.07612,0.67209 0.121532,0.71533 -0.03003,-0.71517 -0.228559,-1.41092 -0.307437,-2.12127 -0.02604,-0.10187 -0.06025,-0.51698 0.02443,-0.20616 0.180942,0.56893 0.120513,1.17253 0.149727,1.75977 0.0026,0.7793 -0.04812,1.55747 -0.104758,2.33433 0.04238,-0.81103 0.01314,-1.68625 0.444039,-2.40697 0.220883,-0.37482 0.809093,-0.49152 1.106319,-0.14507 0.463931,0.60023 0.10532,1.66745 -0.675593,1.77829"
       style="fill:#000000;fill-rule:nonzero;stroke:none;stroke-width:1.66271" />
    <path
       d="m -12.43784,153.12674 c -0.06591,0.0377 -0.147341,0.0869 -0.298609,0.18162 -0.04853,0.0304 -0.19468,0.12235 -0.287218,0.17882 -0.172798,0.10545 -0.372874,0.22111 -0.586149,0.30749 -0.137352,0.0534 -0.250977,0.0822 -0.340059,0.10044 -0.109723,0.0225 -0.193026,0.0305 -0.240269,0.0331 a 0.1371906,0.1371906 90 0 0 0.01535,0.27396 c 0.05562,-0.003 0.156566,-0.0102 0.283085,-0.039 0.102263,-0.0233 0.232561,-0.0635 0.381836,-0.13024 0.231155,-0.0999 0.442673,-0.22981 0.614872,-0.33998 0.09061,-0.058 0.194621,-0.12665 0.285231,-0.18462 0.144735,-0.0927 0.230015,-0.14208 0.289572,-0.17617 a 0.11839403,0.11839403 90 0 0 -0.117644,-0.2055 z"
       id="path-1-3"
       inkscape:path-effect="#path-effect182;#path-effect184"
       inkscape:original-d="m -12.379018,153.22949 c -0.573441,0.32814 -1.114097,0.7958 -1.80345,0.83574"
       style="fill:#000000;fill-rule:nonzero;stroke:none;stroke-width:1.66271" />
    <path
       d="m -13.040035,153.63427 c 0.08685,-0.0641 0.147598,-0.0974 0.325412,-0.19904 0.07367,-0.0422 0.198822,-0.10947 0.297689,-0.18095 0.01308,-0.01 0.02939,-0.0222 0.04468,-0.0358 0.0022,-0.002 0.0043,-0.004 0.0065,-0.006 0.01234,-0.0115 0.02719,-0.0271 0.04061,-0.0469 0.01323,-0.0195 0.02632,-0.0398 0.03106,-0.0629 0.0024,-0.0115 0.0027,-0.0236 3.33e-4,-0.0351 -0.0023,-0.0115 -0.0073,-0.0226 -0.01446,-0.0319 -0.0072,-0.009 -0.01661,-0.0169 -0.02718,-0.0221 -0.01057,-0.005 -0.02225,-0.008 -0.03401,-0.009 -0.02352,-0.001 -0.04659,0.006 -0.0689,0.0134 -0.08146,0.0277 -0.158395,0.067 -0.234991,0.11528 -0.06982,0.0439 -0.134915,0.0923 -0.202196,0.14289 -0.0783,0.0586 -0.162645,0.1225 -0.250339,0.1723 l 0.112061,0.16664 c 0.18125,-0.14076 0.355714,-0.29983 0.539286,-0.45271 0.003,-0.002 0.0059,-0.005 0.0085,-0.008 -7.2e-4,8e-4 -0.0023,0.002 -0.0048,0.005 -0.0021,0.002 -0.007,0.006 -0.01421,0.0103 -0.0037,0.002 -0.0094,0.005 -0.01667,0.008 -0.0071,0.003 -0.01804,0.006 -0.03172,0.006 -0.01426,3.5e-4 -0.03171,-0.002 -0.04928,-0.0114 -0.01768,-0.009 -0.03035,-0.0222 -0.03873,-0.0351 -0.008,-0.0123 -0.01173,-0.0239 -0.01362,-0.0319 -0.0019,-0.008 -0.0025,-0.015 -0.0027,-0.0197 -3.19e-4,-0.009 6.75e-4,-0.0161 0.0012,-0.0192 5.85e-4,-0.004 0.0013,-0.006 0.0016,-0.008 -0.0046,0.003 -0.01535,0.0161 -0.03073,0.0312 -0.01628,0.016 -0.0322,0.0294 -0.0545,0.0493 -0.02077,0.0183 -0.04489,0.0377 -0.07049,0.0593 -0.02506,0.0212 -0.05249,0.0453 -0.0785,0.0729 -4.75e-4,2.2e-4 -0.0041,0.004 -0.0075,0.008 -0.0034,0.004 -0.0068,0.008 -0.01021,0.013 -0.006,0.008 -0.0147,0.0222 -0.02057,0.0398 -0.003,0.009 -0.0062,0.0218 -0.0066,0.0369 -1.99e-4,0.008 3.18e-4,0.0166 0.0022,0.026 0.0019,0.01 0.005,0.0196 0.01,0.0296 0.005,0.0101 0.01138,0.0194 0.01908,0.0278 0.0077,0.008 0.01604,0.015 0.02453,0.0203 0.01669,0.0104 0.03324,0.0151 0.04611,0.0174 0.0047,8.1e-4 0.0095,0.001 0.01431,0.001 0.06313,0.003 0.124476,-0.0119 0.17667,-0.0343 0.05362,-0.0284 0.09123,-0.0628 0.119931,-0.10183 0.02895,-0.0394 0.0497,-0.0846 0.06051,-0.13201 0.0039,-0.0116 0.0062,-0.0314 0.0058,-0.0499 -3.34e-4,-0.0185 -0.0034,-0.0405 -0.01229,-0.0627 -0.0046,-0.0114 -0.01106,-0.0239 -0.02036,-0.0361 -0.0094,-0.0124 -0.02187,-0.0246 -0.03782,-0.0345 -0.01622,-0.0101 -0.03433,-0.0167 -0.0534,-0.0195 -0.01891,-0.003 -0.03685,-0.002 -0.05289,0.002 -0.02317,0.005 -0.04248,0.0128 -0.05926,0.0214 -0.0168,0.009 -0.03135,0.0183 -0.04352,0.0273 -0.02229,0.0165 -0.03868,0.0315 -0.05096,0.0419 -0.0077,0.005 -0.01472,0.0109 -0.01763,0.0132 -0.0035,0.003 -0.0089,0.007 -0.007,0.005 5.93e-4,-5e-4 0.0049,-0.004 0.01489,-0.006 0.01105,-0.003 0.02568,-0.004 0.04131,-2.4e-4 0.009,0.002 0.01801,0.005 0.02654,0.008 0.0085,0.004 0.01654,0.009 0.02341,0.0149 0.0069,0.006 0.01257,0.0137 0.01716,0.0218 0.0046,0.008 0.0081,0.0167 0.01151,0.0254 0.0036,0.009 0.0039,0.0165 0.0038,0.02 -7.2e-5,0.003 -3.55e-4,0.003 0.0012,-0.003 0.0015,-0.005 0.0043,-0.0132 0.0079,-0.0243 0.0035,-0.0108 0.0083,-0.0266 0.01123,-0.0445 -9.28e-4,0.005 -9.24e-4,0.005 -4.09e-4,0.003 8.22e-4,-0.003 0.0013,-0.006 0.0019,-0.008 7.35e-4,-0.004 0.0016,-0.008 0.0024,-0.0139 7.13e-4,-0.005 0.0015,-0.0127 0.0014,-0.0213 -1.3e-5,-0.008 -6.89e-4,-0.0208 -0.0046,-0.0353 -0.002,-0.008 -0.0052,-0.0165 -0.01013,-0.0259 -0.005,-0.01 -0.01198,-0.0199 -0.0216,-0.0296 -0.0097,-0.01 -0.02132,-0.0183 -0.03445,-0.0246 -0.01303,-0.006 -0.02608,-0.01 -0.03825,-0.0113 -0.02348,-0.003 -0.0431,0.001 -0.05566,0.005 -0.0086,0.003 -0.01684,0.006 -0.02461,0.0108 -0.03162,0.0184 -0.05567,0.0411 -0.07285,0.0587 -0.01619,0.0165 -0.02842,0.0301 -0.03768,0.0392 -0.0086,0.007 -0.01554,0.0142 -0.01945,0.0181 -0.0054,0.005 -0.0087,0.009 -0.0094,0.009 -6.81e-4,6e-4 0.0014,-0.002 0.0085,-0.005 0.0075,-0.004 0.01918,-0.008 0.03384,-0.008 0.01471,-2.6e-4 0.02955,-3.5e-4 0.04395,0.003 0.0144,0.003 0.02823,0.009 0.03949,0.0187 0.01126,0.009 0.01972,0.022 0.02515,0.0357 0.0054,0.0137 0.0079,0.0283 0.01014,0.0429 8.65e-4,0.006 1.84e-4,0.008 5.04e-4,0.006 4.95e-4,-0.003 0.0015,-0.008 0.0043,-0.0188 0.0023,-0.009 0.0063,-0.0252 0.0087,-0.0423 0.0025,-0.0183 0.0037,-0.0412 -7.98e-4,-0.0667 -0.0039,-0.0197 -0.0104,-0.0381 -0.02177,-0.0556 -0.01168,-0.018 -0.02683,-0.0326 -0.04408,-0.0433 -0.01705,-0.0106 -0.03421,-0.0163 -0.04911,-0.0193 -0.01493,-0.003 -0.02857,-0.003 -0.03977,-0.003 -0.02217,0.001 -0.04153,0.006 -0.05498,0.0105 -0.01282,0.004 -0.02425,0.009 -0.03347,0.0135 -0.0066,0.003 -0.01191,0.006 -0.01491,0.007 -0.0045,0.002 -0.0065,0.004 -0.0061,0.003 4.17e-4,-1.8e-4 0.0035,-0.002 0.0093,-0.003 0.0064,-0.002 0.015,-0.004 0.02523,-0.003 l -0.01526,8.4e-4 c -0.01611,0.002 -0.02862,0.004 -0.03852,0.005 a 0.11717347,0.11717347 90 0 0 0.02806,0.23266 c 0.0082,-9.9e-4 0.01983,-0.002 0.03293,-0.004 0.01302,-7e-4 0.0248,-0.003 0.03511,-0.006 0.0117,-0.003 0.02117,-0.008 0.02744,-0.0109 0.0062,-0.003 0.01001,-0.005 0.01147,-0.006 0.0014,-7.1e-4 5.53e-4,-8e-5 -0.0032,0.001 l 0.0098,-0.004 c 0.0017,-7.9e-4 0.0036,-0.002 0.005,-0.002 9.44e-4,-2.9e-4 5.38e-4,5.2e-4 -0.007,8.8e-4 -0.0034,1.7e-4 -0.0094,1.6e-4 -0.01724,-0.001 -0.0078,-0.002 -0.01839,-0.005 -0.02956,-0.0118 -0.01143,-0.007 -0.02146,-0.0168 -0.029,-0.0284 -0.0073,-0.0112 -0.01068,-0.0218 -0.0122,-0.0295 -0.0014,-0.008 -8.11e-4,-0.0105 -0.0011,-0.009 -4.07e-4,0.003 -0.0012,0.007 -0.0039,0.0174 -0.0021,0.008 -0.0062,0.0241 -0.0087,0.0406 -0.0027,0.0175 -0.0044,0.0399 -3.85e-4,0.0655 0.0023,0.0145 0.0047,0.0292 0.01014,0.0428 0.0054,0.0137 0.01389,0.0262 0.02515,0.0357 0.01126,0.009 0.02509,0.0156 0.03949,0.0187 0.0144,0.003 0.02924,0.003 0.04395,0.003 0.02779,-4.9e-4 0.05152,-0.008 0.07028,-0.018 0.01774,-0.009 0.03125,-0.0201 0.04012,-0.028 0.0084,-0.007 0.01638,-0.0157 0.01964,-0.019 0.0047,-0.005 0.0052,-0.005 0.0039,-0.004 l 0.0079,-0.007 c 0.02046,-0.0194 0.03515,-0.0365 0.04661,-0.0482 0.01207,-0.0124 0.01871,-0.0176 0.02325,-0.0204 l -0.02461,0.0108 c -0.0077,0.002 -0.0233,0.006 -0.04353,0.004 -0.01054,-0.001 -0.02215,-0.004 -0.03391,-0.01 -0.01186,-0.006 -0.02234,-0.0133 -0.03113,-0.0222 -0.0087,-0.009 -0.01485,-0.018 -0.01919,-0.0263 -0.0043,-0.008 -0.0069,-0.0158 -0.0085,-0.0218 -0.0031,-0.0115 -0.0034,-0.0207 -0.0034,-0.0252 2e-6,-0.005 4.29e-4,-0.008 6.3e-4,-0.01 -9.6e-5,6.2e-4 -0.0011,0.005 -0.0017,0.008 -4.8e-4,0.003 -0.0012,0.007 -0.0035,0.0146 -0.0014,0.005 -0.0066,0.0205 -0.0097,0.032 -0.0036,0.0131 -0.008,0.0319 -0.009,0.0535 -0.001,0.0219 0.0013,0.0479 0.01194,0.0752 0.0034,0.009 0.0068,0.0173 0.01139,0.0254 0.0046,0.008 0.0103,0.0156 0.01721,0.0218 0.0069,0.006 0.01494,0.0111 0.02348,0.0148 0.0085,0.004 0.01755,0.006 0.02655,0.008 0.02847,0.007 0.05549,0.006 0.07864,-6.4e-4 0.0214,-0.006 0.03819,-0.0154 0.04948,-0.0228 0.01096,-0.007 0.02027,-0.0147 0.02536,-0.0189 0.0059,-0.005 0.0083,-0.007 0.0079,-0.007 l 0.0096,-0.007 c 0.01981,-0.0169 0.03462,-0.031 0.04505,-0.0391 0.0053,-0.004 0.0089,-0.006 0.01144,-0.008 -0.0046,-1.5e-4 -0.01402,7.5e-4 -0.02527,-9.3e-4 -0.01145,-0.002 -0.02281,-0.006 -0.03309,-0.0122 -0.01003,-0.006 -0.01737,-0.0137 -0.02247,-0.0204 -0.005,-0.007 -0.0079,-0.0126 -0.0096,-0.017 -0.0032,-0.008 -0.0034,-0.014 -0.0034,-0.0164 3.6e-5,-0.002 3.95e-4,-0.006 0.0022,-0.0118 -0.0055,0.0249 -0.01302,0.0422 -0.02375,0.0574 -0.0106,0.015 -0.02352,0.0268 -0.03725,0.0345 -0.01917,0.009 -0.04751,0.0152 -0.07204,0.0149 l 0.01431,0.001 c 0.007,0.001 0.01903,0.004 0.03223,0.0126 0.0067,0.004 0.01365,0.01 0.02009,0.0167 0.0065,0.007 0.0119,0.0149 0.01612,0.0235 0.0042,0.008 0.0068,0.0169 0.0083,0.0248 0.0015,0.008 0.0019,0.0148 0.0017,0.0207 -3.12e-4,0.0115 -0.0027,0.0203 -0.0044,0.0254 -0.0033,0.01 -0.0072,0.0149 -0.0081,0.0161 0.01545,-0.0171 0.0353,-0.0354 0.05813,-0.0554 0.02278,-0.0199 0.04781,-0.0408 0.07339,-0.0641 0.01749,-0.0163 0.04089,-0.0371 0.06168,-0.0584 0.02205,-0.0226 0.04517,-0.0497 0.06414,-0.0826 0.0019,-0.003 0.0036,-0.007 0.0051,-0.0102 8.5e-4,-0.002 0.0018,-0.004 0.0027,-0.006 9.48e-4,-0.002 0.002,-0.005 0.0031,-0.008 0.001,-0.003 0.0023,-0.006 0.0036,-0.0104 6.41e-4,-0.002 0.0014,-0.005 0.0021,-0.007 7.05e-4,-0.003 0.0016,-0.007 0.0024,-0.0113 6.71e-4,-0.004 0.0017,-0.012 0.0014,-0.0217 -1.77e-4,-0.005 -7.84e-4,-0.0123 -0.0028,-0.0207 -0.002,-0.008 -0.0058,-0.0201 -0.0139,-0.0326 -0.0085,-0.0131 -0.02133,-0.0263 -0.03919,-0.0356 -0.01775,-0.009 -0.03542,-0.0119 -0.04993,-0.0115 -0.01392,3.4e-4 -0.02514,0.003 -0.03257,0.006 -0.0076,0.003 -0.0136,0.006 -0.01773,0.008 -0.008,0.005 -0.01385,0.01 -0.01703,0.0124 -0.0015,0.001 -0.0028,0.003 -0.0041,0.004 -0.186325,0.1568 -0.356695,0.31324 -0.527984,0.44745 -0.02513,0.0197 -0.05059,0.0409 -0.06417,0.0698 -0.0068,0.0144 -0.01046,0.0305 -0.0098,0.0464 6.41e-4,0.016 0.0056,0.0317 0.01454,0.045 0.0089,0.0133 0.02161,0.0239 0.03613,0.0305 0.01453,0.007 0.03074,0.009 0.04668,0.008 0.03188,-0.002 0.06109,-0.0175 0.0887,-0.0335 0.100321,-0.0583 0.194935,-0.13163 0.269622,-0.18849 0.06722,-0.0511 0.126171,-0.0953 0.188037,-0.13465 0.06701,-0.0427 0.129775,-0.0746 0.192933,-0.0964 l -0.113148,-0.14728 c -0.0025,0.004 -0.0063,0.009 -0.01195,0.0141 -0.01125,0.0104 -0.02098,0.018 -0.03326,0.0275 -0.08577,0.0622 -0.195903,0.12125 -0.27792,0.16806 -0.175328,0.0999 -0.247301,0.13897 -0.344815,0.2109 a 0.09764456,0.09764456 90 0 0 0.11593,0.15716 z"
       id="path-1-7"
       inkscape:path-effect="#path-effect189;#path-effect191"
       inkscape:original-d="m -13.098,153.55569 c 0.197975,-0.1494 0.624555,-0.33897 0.691437,-0.4446 -0.253832,0.087 -0.440804,0.29388 -0.669059,0.42498 0.174178,-0.13464 0.430613,-0.36615 0.540872,-0.45605 -0.01467,0.10679 -0.46907,0.36409 -0.169609,0.29012 0.174665,-0.0399 0.233875,-0.37576 0.01787,-0.17341 -0.209364,0.17634 0.07532,-0.27253 -0.147464,-0.0316 -0.197265,0.19908 0.06982,-0.18828 -0.166454,-0.0607 l -0.04966,0.006"
       style="fill:#000000;fill-rule:nonzero;stroke:none;stroke-width:1.66271" />
    <path
       d="m -12.825447,153.06698 c -0.02705,0.0138 -0.0578,0.0332 -0.08974,0.0611 -0.02394,0.0209 -0.04763,0.0458 -0.07079,0.0756 -0.03709,0.0478 -0.069,0.10311 -0.09913,0.16781 -0.02863,0.0594 -0.05252,0.11983 -0.08163,0.18021 -0.01149,0.0238 -0.02376,0.0473 -0.0373,0.0697 -0.01538,0.0255 -0.03383,0.052 -0.05654,0.0766 l 0.131893,0.0968 c 0.05586,-0.0971 0.127155,-0.22309 0.201833,-0.33386 0.06624,-0.0983 0.144575,-0.19957 0.240978,-0.28778 0.0028,-0.003 0.0055,-0.005 0.0079,-0.008 0.0019,-0.002 0.0044,-0.005 0.0082,-0.007 0.0038,-0.003 0.0088,-0.006 0.01603,-0.009 0.01343,-0.007 0.03376,-0.0141 0.05944,-0.0272 0.0919,-0.0484 0.19041,-0.1069 0.282169,-0.1803 0.0057,-0.003 0.01692,-0.014 0.02516,-0.0266 0.004,-0.006 0.008,-0.0137 0.01086,-0.0225 0.0015,-0.004 0.0029,-0.01 0.0037,-0.0162 8.05e-4,-0.006 0.0013,-0.0146 -2.55e-4,-0.0247 -0.0015,-0.01 -0.0057,-0.0247 -0.0171,-0.0392 -0.0058,-0.007 -0.0133,-0.0142 -0.0224,-0.0197 -0.0091,-0.005 -0.01868,-0.009 -0.02808,-0.0106 -0.0093,-0.002 -0.01771,-0.002 -0.02487,-7.4e-4 -0.0071,8.5e-4 -0.0132,0.002 -0.01812,0.004 -0.0095,0.003 -0.01675,0.008 -0.02143,0.0112 -0.0091,0.007 -0.01551,0.0136 -0.01933,0.0183 -0.0042,0.005 -0.0077,0.0104 -0.01067,0.0154 -0.02368,0.0294 -0.04722,0.0723 -0.06359,0.11817 -0.01537,0.0431 -0.02455,0.0892 -0.02588,0.13634 -0.0025,0.0199 3.5e-5,0.04 0.0072,0.058 0.0081,0.0204 0.02265,0.04 0.04398,0.0533 0.01077,0.007 0.02354,0.0119 0.0377,0.0143 0.01434,0.002 0.02932,0.002 0.04395,-0.002 0.01455,-0.004 0.0273,-0.0112 0.03796,-0.0199 0.0086,-0.007 0.01561,-0.0149 0.02137,-0.023 0.03198,-0.0386 0.06065,-0.0848 0.07864,-0.13514 0.0017,-0.005 0.0029,-0.009 0.0037,-0.0143 0.0067,-0.0403 0.01863,-0.0806 0.03398,-0.12209 0.01509,-0.0408 0.03282,-0.0812 0.05142,-0.12357 0.0014,-0.003 0.0025,-0.005 0.0034,-0.007 0.0016,-0.003 0.0032,-0.007 0.0046,-0.01 0.0031,-0.007 0.005,-0.0113 0.0073,-0.016 0.001,-0.002 0.0017,-0.003 0.0021,-0.004 3.4e-4,-6.2e-4 3.4e-4,-3.7e-4 -0.0013,0.002 -7.46e-4,0.001 -0.0022,0.003 -0.0045,0.006 -0.0021,0.002 -0.0062,0.007 -0.0124,0.0108 -0.006,0.004 -0.01721,0.0106 -0.033,0.013 -0.0082,0.001 -0.01726,0.001 -0.02675,-5.3e-4 -0.0095,-0.002 -0.01821,-0.005 -0.02578,-0.01 -0.0083,-0.005 -0.01653,-0.01 -0.02359,-0.0164 -0.0071,-0.006 -0.01283,-0.0145 -0.01625,-0.0234 -0.0034,-0.009 -0.0044,-0.0188 -0.0035,-0.0283 9.46e-4,-0.01 0.0038,-0.0188 0.0067,-0.0279 -0.0077,0.0241 -0.0174,0.0482 -0.02821,0.0746 -0.01082,0.0264 -0.02273,0.0551 -0.03295,0.0849 -0.01469,0.0316 -0.03159,0.057 -0.05098,0.0726 l 0.02229,-0.0128 c 0.0013,-4.9e-4 0.0042,-0.002 0.0084,-0.002 0.0041,-8e-4 0.01121,-0.002 0.02024,-8.7e-4 0.0094,9.5e-4 0.02178,0.004 0.03417,0.0121 0.01282,0.008 0.02185,0.0196 0.02744,0.031 0.0053,0.0108 0.0069,0.0206 0.0074,0.0269 5.2e-4,0.006 5e-5,0.0115 -3.5e-4,0.0144 -8.85e-4,0.007 -0.0018,0.008 -0.002,0.009 0.0016,-0.003 0.0025,-0.005 0.0036,-0.007 0.0011,-0.002 0.0023,-0.004 0.0034,-0.006 0.0012,-0.002 0.0021,-0.004 0.0032,-0.005 0.09344,-0.14227 0.173479,-0.26735 0.229152,-0.41237 0.03961,-0.10476 0.05328,-0.1953 0.05402,-0.27009 a 0.08232855,0.08232855 90 0 0 -0.16465,-0.002 c -5.5e-4,0.0555 -0.01065,0.1269 -0.04324,0.21311 -0.04838,0.126 -0.118915,0.23748 -0.214747,0.38352 -0.0026,0.004 -0.0041,0.007 -0.0058,0.01 -0.0017,0.003 -0.0037,0.006 -0.0059,0.0104 -0.0021,0.004 -0.0045,0.008 -0.0068,0.0132 -0.0022,0.005 -0.0048,0.0104 -0.0071,0.0167 -0.0021,0.006 -0.0049,0.0146 -0.0063,0.0251 -7.27e-4,0.005 -0.0013,0.0126 -6.2e-4,0.0211 6.73e-4,0.008 0.0027,0.0198 0.0088,0.0322 0.0063,0.0129 0.01638,0.0254 0.03058,0.0346 0.01376,0.009 0.02784,0.0126 0.03938,0.0138 0.01113,0.001 0.02074,-2e-5 0.02775,-0.001 0.0071,-0.001 0.01336,-0.003 0.01844,-0.005 0.0081,-0.003 0.01557,-0.007 0.02229,-0.0127 0.04966,-0.0398 0.07937,-0.0929 0.100842,-0.14041 0.01118,-0.0315 0.021,-0.0552 0.03242,-0.0831 0.01068,-0.0261 0.02273,-0.0558 0.03266,-0.0869 0.0029,-0.009 0.0058,-0.0184 0.0067,-0.0279 9.47e-4,-0.01 -5.6e-5,-0.0193 -0.0035,-0.0283 -0.0034,-0.009 -0.0092,-0.0169 -0.01625,-0.0234 -0.0071,-0.006 -0.01533,-0.0115 -0.02359,-0.0164 -0.008,-0.005 -0.01716,-0.008 -0.02717,-0.0102 -0.01,-0.002 -0.01953,-0.002 -0.02822,-5.6e-4 -0.01679,0.003 -0.02907,0.009 -0.03616,0.0143 -0.0073,0.005 -0.01254,0.0103 -0.01582,0.0139 -0.0034,0.004 -0.0061,0.007 -0.0081,0.0101 -0.0039,0.005 -0.0069,0.0108 -0.0091,0.0147 -0.0023,0.004 -0.0043,0.008 -0.006,0.0119 -0.0032,0.007 -0.0067,0.0146 -0.0087,0.0191 -0.0012,0.003 -0.002,0.004 -0.0026,0.006 -7.48e-4,0.002 -5.53e-4,0.001 3.88e-4,-5.6e-4 l -0.0048,0.009 c -0.01867,0.0426 -0.03913,0.0888 -0.05666,0.13623 -0.0167,0.0452 -0.03149,0.0933 -0.04058,0.14415 -0.01094,0.0279 -0.02854,0.0563 -0.04998,0.0816 -0.0024,0.003 -0.0046,0.006 -0.0066,0.009 0.0016,-0.003 0.0046,-0.007 0.0098,-0.0108 0.0053,-0.004 0.0125,-0.009 0.02152,-0.0111 0.0091,-0.003 0.01855,-0.003 0.02758,-0.002 0.0088,0.001 0.0165,0.005 0.02256,0.008 0.01187,0.007 0.01863,0.0173 0.02202,0.0259 0.0036,0.009 0.0042,0.0188 0.0024,0.0271 l 0.0018,-0.0161 c 4.13e-4,-0.0301 0.0061,-0.0605 0.01646,-0.0895 0.01053,-0.0295 0.02563,-0.0569 0.04408,-0.0806 0.0016,-0.003 -0.0027,0.002 -0.0101,0.008 -0.0038,0.003 -0.01026,0.007 -0.01912,0.01 -0.0046,0.002 -0.01037,0.003 -0.01717,0.004 -0.0069,8.2e-4 -0.01505,9.1e-4 -0.02406,-7.2e-4 -0.0092,-0.002 -0.01853,-0.005 -0.02742,-0.0103 -0.0089,-0.005 -0.01618,-0.012 -0.02187,-0.0192 -0.01114,-0.0141 -0.01507,-0.0285 -0.01651,-0.0376 -0.0015,-0.009 -9.68e-4,-0.0173 -2.74e-4,-0.0225 7.3e-4,-0.005 0.0019,-0.01 0.0031,-0.0134 0.0022,-0.007 0.0051,-0.0121 0.0076,-0.0159 0.0051,-0.008 0.0113,-0.0136 0.01771,-0.0176 -0.08834,0.07 -0.176939,0.12294 -0.262771,0.16816 -0.01307,0.007 -0.03341,0.0143 -0.05679,0.0259 -0.01234,0.006 -0.02562,0.0135 -0.03878,0.0229 -0.01233,0.009 -0.02425,0.0192 -0.03521,0.0316 -0.107786,0.0994 -0.193213,0.21084 -0.262605,0.31378 -0.07874,0.11679 -0.153388,0.24877 -0.208043,0.34382 -0.01243,0.0216 -0.02463,0.0444 -0.02627,0.0693 -8.2e-4,0.0124 0.001,0.0251 0.0059,0.0366 0.0049,0.0115 0.0128,0.0217 0.02285,0.029 0.01005,0.007 0.02214,0.0119 0.03454,0.0131 0.01241,0.001 0.02505,-8.4e-4 0.03667,-0.005 0.02324,-0.009 0.04133,-0.0275 0.05823,-0.0458 0.03235,-0.0351 0.05723,-0.0713 0.07645,-0.10313 0.01699,-0.0281 0.03168,-0.0564 0.04458,-0.0831 0.02829,-0.0585 0.0539,-0.12289 0.08219,-0.18139 0.02708,-0.0582 0.05297,-0.10202 0.08039,-0.13733 0.01698,-0.0219 0.03345,-0.039 0.04908,-0.0526 0.02072,-0.0181 0.03994,-0.0301 0.05611,-0.0383 a 0.08232855,0.08232855 90 0 0 -0.07471,-0.14674 z"
       id="path-1-6"
       inkscape:path-effect="#path-effect304;#path-effect306"
       inkscape:original-d="m -12.78809,153.14035 c -0.232846,0.12121 -0.249973,0.44151 -0.411965,0.61347 0.138015,-0.24049 0.282859,-0.49687 0.498161,-0.67577 0.114651,-0.0376 0.380901,-0.21909 0.348833,-0.21838 -0.120382,0.12518 -0.12368,0.44346 0.02157,0.14836 0.0108,-0.13584 0.213219,-0.53033 0.07556,-0.2049 -0.04384,0.15157 -0.185853,0.2361 -0.0465,0.0433 0.110943,-0.17663 0.229209,-0.36554 0.231666,-0.58127"
       style="fill:#000000;fill-rule:nonzero;stroke:none;stroke-width:1.0931" />
  </g>
</svg>
