<?xml version="1.0" encoding="UTF-8" standalone="no"?>
<!-- Created with Inkscape (http://www.inkscape.org/) -->

<svg
   width="6mm"
   height="10mm"
   viewBox="0 0 6.0000001 9.9999994"
   version="1.1"
   id="svg1681"
   inkscape:version="1.2.1 (9c6d41e410, 2022-07-14)"
   sodipodi:docname="upper N 1.3.svg"
   inkscape:export-filename="..\..\..\..\Downloads\lower a diff canvas resize 3.0.png"
   inkscape:export-xdpi="96"
   inkscape:export-ydpi="96"
   xmlns:inkscape="http://www.inkscape.org/namespaces/inkscape"
   xmlns:sodipodi="http://sodipodi.sourceforge.net/DTD/sodipodi-0.dtd"
   xmlns="http://www.w3.org/2000/svg"
   xmlns:svg="http://www.w3.org/2000/svg"
   xmlns:rdf="http://www.w3.org/1999/02/22-rdf-syntax-ns#"
   xmlns:cc="http://creativecommons.org/ns#"
   xmlns:dc="http://purl.org/dc/elements/1.1/">
  <defs
     id="defs1675">
    <inkscape:path-effect
       effect="powerstroke"
       id="path-effect773"
       is_visible="true"
       lpeversion="1"
       offset_points="1.5376652,0.1439738"
       not_jump="true"
       sort_points="true"
       interpolator_type="CentripetalCatmullRom"
       interpolator_beta="0.75"
       start_linecap_type="round"
       linejoin_type="spiro"
       miter_limit="4"
       scale_width="1"
       end_linecap_type="round" />
    <inkscape:path-effect
       effect="simplify"
       id="path-effect771"
       is_visible="true"
       lpeversion="1"
       steps="1"
       threshold="0.0035951417"
       smooth_angles="0"
       helper_size="0"
       simplify_individual_paths="false"
       simplify_just_coalesce="false"
       step="1" />
    <inkscape:path-effect
       effect="powerstroke"
       id="path-effect502"
       is_visible="true"
       lpeversion="1"
       offset_points="3.0091841,0.21607495 | 7.3602657,0.17554228 | 9.4159651,0.20236537"
       not_jump="true"
       sort_points="true"
       interpolator_type="CentripetalCatmullRom"
       interpolator_beta="0.75"
       start_linecap_type="round"
       linejoin_type="spiro"
       miter_limit="4"
       scale_width="1"
       end_linecap_type="round" />
    <inkscape:path-effect
       effect="simplify"
       id="path-effect500"
       is_visible="true"
       lpeversion="1"
       steps="1"
       threshold="0.0035951417"
       smooth_angles="0"
       helper_size="0"
       simplify_individual_paths="false"
       simplify_just_coalesce="false"
       step="1" />
    <inkscape:path-effect
       effect="powerstroke"
       id="path-effect241"
       is_visible="true"
       lpeversion="1"
       offset_points="2.6879454,0.34086734"
       not_jump="true"
       sort_points="true"
       interpolator_type="CentripetalCatmullRom"
       interpolator_beta="0.75"
       start_linecap_type="round"
       linejoin_type="spiro"
       miter_limit="4"
       scale_width="1"
       end_linecap_type="round" />
    <inkscape:path-effect
       effect="simplify"
       id="path-effect239"
       is_visible="true"
       lpeversion="1"
       steps="1"
       threshold="0.0028332064"
       smooth_angles="0"
       helper_size="0"
       simplify_individual_paths="false"
       simplify_just_coalesce="false"
       step="1" />
    <inkscape:path-effect
       effect="powerstroke"
       id="path-effect234"
       is_visible="true"
       lpeversion="1"
       offset_points="2.13563,0.075169555"
       not_jump="true"
       sort_points="true"
       interpolator_type="CentripetalCatmullRom"
       interpolator_beta="0.75"
       start_linecap_type="round"
       linejoin_type="spiro"
       miter_limit="4"
       scale_width="1"
       end_linecap_type="round" />
    <inkscape:path-effect
       effect="simplify"
       id="path-effect232"
       is_visible="true"
       lpeversion="1"
       steps="1"
       threshold="0.0028332064"
       smooth_angles="0"
       helper_size="0"
       simplify_individual_paths="false"
       simplify_just_coalesce="false"
       step="1" />
    <inkscape:path-effect
       effect="powerstroke"
       id="path-effect227"
       is_visible="true"
       lpeversion="1"
       offset_points="2.1868266,0.075169555"
       not_jump="true"
       sort_points="true"
       interpolator_type="CentripetalCatmullRom"
       interpolator_beta="0.75"
       start_linecap_type="round"
       linejoin_type="spiro"
       miter_limit="4"
       scale_width="1"
       end_linecap_type="round" />
    <inkscape:path-effect
       effect="simplify"
       id="path-effect225"
       is_visible="true"
       lpeversion="1"
       steps="1"
       threshold="0.0028332064"
       smooth_angles="0"
       helper_size="0"
       simplify_individual_paths="false"
       simplify_just_coalesce="false"
       step="1" />
    <inkscape:path-effect
       effect="powerstroke"
       id="path-effect166"
       is_visible="true"
       lpeversion="1"
       offset_points="1.9637935,0.075169555"
       not_jump="true"
       sort_points="true"
       interpolator_type="CentripetalCatmullRom"
       interpolator_beta="0.75"
       start_linecap_type="round"
       linejoin_type="spiro"
       miter_limit="4"
       scale_width="1"
       end_linecap_type="round" />
    <inkscape:path-effect
       effect="simplify"
       id="path-effect164"
       is_visible="true"
       lpeversion="1"
       steps="1"
       threshold="0.0028332064"
       smooth_angles="0"
       helper_size="0"
       simplify_individual_paths="false"
       simplify_just_coalesce="false"
       step="1" />
    <inkscape:path-effect
       effect="powerstroke"
       id="path-effect159"
       is_visible="true"
       lpeversion="1"
       offset_points="2.2611036,0.075169555"
       not_jump="true"
       sort_points="true"
       interpolator_type="CentripetalCatmullRom"
       interpolator_beta="0.75"
       start_linecap_type="round"
       linejoin_type="spiro"
       miter_limit="4"
       scale_width="1"
       end_linecap_type="round" />
    <inkscape:path-effect
       effect="simplify"
       id="path-effect157"
       is_visible="true"
       lpeversion="1"
       steps="1"
       threshold="0.0028332064"
       smooth_angles="0"
       helper_size="0"
       simplify_individual_paths="false"
       simplify_just_coalesce="false"
       step="1" />
    <inkscape:path-effect
       effect="powerstroke"
       id="path-effect152"
       is_visible="true"
       lpeversion="1"
       offset_points="2.826981,0.075169555"
       not_jump="true"
       sort_points="true"
       interpolator_type="CentripetalCatmullRom"
       interpolator_beta="0.75"
       start_linecap_type="round"
       linejoin_type="spiro"
       miter_limit="4"
       scale_width="1"
       end_linecap_type="round" />
    <inkscape:path-effect
       effect="simplify"
       id="path-effect150"
       is_visible="true"
       lpeversion="1"
       steps="1"
       threshold="0.0028332064"
       smooth_angles="0"
       helper_size="0"
       simplify_individual_paths="false"
       simplify_just_coalesce="false"
       step="1" />
    <inkscape:path-effect
       effect="powerstroke"
       id="path-effect145"
       is_visible="true"
       lpeversion="1"
       offset_points="3.8374447,0.075169555"
       not_jump="true"
       sort_points="true"
       interpolator_type="CentripetalCatmullRom"
       interpolator_beta="0.75"
       start_linecap_type="round"
       linejoin_type="spiro"
       miter_limit="4"
       scale_width="1"
       end_linecap_type="round" />
    <inkscape:path-effect
       effect="simplify"
       id="path-effect143"
       is_visible="true"
       lpeversion="1"
       steps="1"
       threshold="0.0028332064"
       smooth_angles="0"
       helper_size="0"
       simplify_individual_paths="false"
       simplify_just_coalesce="false"
       step="1" />
    <inkscape:path-effect
       effect="powerstroke"
       id="path-effect138"
       is_visible="true"
       lpeversion="1"
       offset_points="2.6880907,0.075169555"
       not_jump="true"
       sort_points="true"
       interpolator_type="CentripetalCatmullRom"
       interpolator_beta="0.75"
       start_linecap_type="round"
       linejoin_type="spiro"
       miter_limit="4"
       scale_width="1"
       end_linecap_type="round" />
    <inkscape:path-effect
       effect="simplify"
       id="path-effect136"
       is_visible="true"
       lpeversion="1"
       steps="1"
       threshold="0.0028332064"
       smooth_angles="0"
       helper_size="0"
       simplify_individual_paths="false"
       simplify_just_coalesce="false"
       step="1" />
    <inkscape:path-effect
       effect="powerstroke"
       id="path-effect131"
       is_visible="true"
       lpeversion="1"
       offset_points="1.9940581,0.075169555"
       not_jump="true"
       sort_points="true"
       interpolator_type="CentripetalCatmullRom"
       interpolator_beta="0.75"
       start_linecap_type="round"
       linejoin_type="spiro"
       miter_limit="4"
       scale_width="1"
       end_linecap_type="round" />
    <inkscape:path-effect
       effect="simplify"
       id="path-effect129"
       is_visible="true"
       lpeversion="1"
       steps="1"
       threshold="0.0028332064"
       smooth_angles="0"
       helper_size="0"
       simplify_individual_paths="false"
       simplify_just_coalesce="false"
       step="1" />
  </defs>
  <sodipodi:namedview
     id="base"
     pagecolor="#ffffff"
     bordercolor="#666666"
     borderopacity="1.0"
     inkscape:pageopacity="0.0"
     inkscape:pageshadow="2"
     inkscape:zoom="7.919596"
     inkscape:cx="-5.3033008"
     inkscape:cy="20.834396"
     inkscape:document-units="mm"
     inkscape:current-layer="layer1"
     showgrid="false"
     fit-margin-top="0"
     fit-margin-left="0"
     fit-margin-right="0"
     fit-margin-bottom="0"
     inkscape:window-width="1920"
     inkscape:window-height="974"
     inkscape:window-x="-11"
     inkscape:window-y="2869"
     inkscape:window-maximized="1"
     showguides="true"
     inkscape:guide-bbox="true"
     inkscape:snap-bbox="true"
     inkscape:bbox-nodes="true"
     inkscape:snap-nodes="false"
     inkscape:snap-others="false"
     inkscape:snap-page="true"
     inkscape:snap-grids="false"
     inkscape:snap-to-guides="false"
     inkscape:snap-global="false"
     inkscape:pagecheckerboard="0"
     inkscape:showpageshadow="2"
     inkscape:deskcolor="#d1d1d1">
    <sodipodi:guide
       position="-6.1806075,9.4988692"
       orientation="0,1"
       id="guide816"
       inkscape:locked="false" />
    <sodipodi:guide
       position="-4.4101636,10.646923"
       orientation="0,1"
       id="guide818"
       inkscape:locked="false" />
    <sodipodi:guide
       position="2.7595724,11.09577"
       orientation="1,0"
       id="guide820"
       inkscape:locked="false" />
    <sodipodi:guide
       position="3.6572659,10.942217"
       orientation="1,0"
       id="guide822"
       inkscape:locked="false" />
    <sodipodi:guide
       position="-0.051625511,9.7492299"
       orientation="1,0"
       id="guide1853"
       inkscape:locked="false" />
    <sodipodi:guide
       position="-2.3720169,3.0175835"
       orientation="0,1"
       id="guide1855"
       inkscape:locked="false" />
  </sodipodi:namedview>
  <metadata
     id="metadata1678">
    <rdf:RDF>
      <cc:Work
         rdf:about="">
        <dc:format>image/svg+xml</dc:format>
        <dc:type
           rdf:resource="http://purl.org/dc/dcmitype/StillImage" />
      </cc:Work>
    </rdf:RDF>
  </metadata>
  <g
     inkscape:label="Layer 1"
     inkscape:groupmode="layer"
     id="layer1"
     transform="translate(17.028496,-147.22856)">
    <path
       d="m -14.920054,153.75582 c 0.0043,0.0153 0.01038,0.033 0.0188,0.0525 0.0068,0.0157 0.01541,0.0333 0.02618,0.0517 0.01672,0.0286 0.04305,0.0668 0.08006,0.0994 0.01655,0.0146 0.03742,0.03 0.0626,0.0424 0.02367,0.0117 0.05284,0.0215 0.08644,0.024 0.0323,0.002 0.06599,-0.002 0.09904,-0.0153 0.03101,-0.0123 0.05831,-0.031 0.08199,-0.0535 0.003,-0.003 0.0059,-0.006 0.0087,-0.009 0.06579,-0.0746 0.10832,-0.17231 0.11952,-0.27948 7.85e-4,-0.008 0.0014,-0.0151 0.0019,-0.0227 0.0043,-0.0699 -0.0043,-0.15697 -0.04247,-0.24331 -0.07643,-1.07115 -0.278067,-2.85928 -0.209945,-4.28257 -3e-5,0.001 -4.58e-4,0.002 1.02e-4,-1.3e-4 4.91e-4,-0.002 0.0014,-0.005 0.0029,-0.008 0.0026,-0.006 0.0081,-0.0111 0.0015,-0.005 -0.0025,0.002 -0.0107,0.01 -0.02546,0.0152 -0.0077,0.003 -0.01755,0.006 -0.02908,0.007 -0.01171,9.4e-4 -0.02415,2e-5 -0.03659,-0.003 -0.01232,-0.003 -0.02287,-0.008 -0.03143,-0.0138 -0.0084,-0.005 -0.01423,-0.0111 -0.01801,-0.0153 -0.0076,-0.008 -0.0077,-0.0114 -0.006,-0.007 0.05148,0.10836 0.08352,0.21811 0.116362,0.34434 0.02987,0.1148 0.06178,0.24965 0.108339,0.37699 0.307519,1.10069 0.707673,2.18584 1.161398,3.26616 0.01867,0.11325 0.06004,0.22246 0.119203,0.31998 0.06284,0.10359 0.146479,0.1952 0.246332,0.26505 0.02528,0.019 0.0579,0.0355 0.09144,0.0464 0.03385,0.011 0.07103,0.0171 0.109175,0.0157 0.03873,-0.001 0.08034,-0.0105 0.119692,-0.032 0.01989,-0.0108 0.03868,-0.0245 0.05564,-0.0411 0.01711,-0.0168 0.0317,-0.0359 0.0436,-0.0569 0.02567,-0.0447 0.04223,-0.0907 0.05314,-0.13469 0.01103,-0.0444 0.01654,-0.0878 0.01987,-0.1269 0.0033,-0.0388 0.0049,-0.0796 0.0065,-0.11194 0.0018,-0.0357 0.0037,-0.0656 0.0075,-0.0935 4.56e-4,-0.003 7.91e-4,-0.007 0.001,-0.0102 0.02191,-0.34648 0.01711,-0.70479 0.01547,-1.01709 -0.0019,-0.36279 9.7e-5,-0.67662 0.02947,-0.99258 0.04972,-1.12119 0.135738,-1.92955 0.231953,-2.57716 a 0.1439738,0.1439738 90 0 0 -0.284822,-0.0423 c -0.09778,0.65815 -0.184673,1.47643 -0.23432,2.59979 -0.03031,0.3243 -0.03213,0.6505 -0.03022,1.01378 0.0017,0.31505 0.0062,0.65979 -0.0146,0.99258 -0.005,0.0388 -0.0073,0.0771 -0.009,0.11245 -0.0018,0.0371 -0.003,0.0696 -0.0058,0.1017 -0.0026,0.0308 -0.0064,0.0577 -0.01242,0.0819 -0.0058,0.0234 -0.01352,0.0435 -0.0238,0.0614 5.55e-4,-9.9e-4 0.0023,-0.003 0.005,-0.006 0.0026,-0.003 0.0055,-0.005 0.0083,-0.006 0.0054,-0.003 0.0085,-0.003 0.0076,-0.003 -0.0013,4e-5 -0.0049,-1.6e-4 -0.01,-0.002 -0.005,-0.002 -0.0091,-0.004 -0.01154,-0.006 -0.06886,-0.0483 -0.12556,-0.10963 -0.168961,-0.18117 -0.04318,-0.0712 -0.07193,-0.15037 -0.08323,-0.23022 -0.0017,-0.0122 -0.005,-0.0242 -0.0098,-0.0356 -0.453415,-1.07825 -0.851468,-2.157 -1.157945,-3.25396 -0.0011,-0.004 -0.0023,-0.008 -0.0036,-0.0112 -0.04129,-0.11166 -0.06906,-0.22936 -0.101819,-0.35527 -0.03338,-0.12832 -0.071,-0.26092 -0.132017,-0.38879 -0.0071,-0.0178 -0.02148,-0.0443 -0.04238,-0.0676 -0.01078,-0.0121 -0.02379,-0.0238 -0.03936,-0.034 -0.01582,-0.0103 -0.03371,-0.0186 -0.05338,-0.0237 -0.01984,-0.005 -0.0397,-0.007 -0.0588,-0.005 -0.01896,0.002 -0.03624,0.006 -0.0512,0.0117 -0.0295,0.0113 -0.05212,0.0284 -0.06811,0.0434 -0.03211,0.0301 -0.05407,0.067 -0.06795,0.0983 -0.0076,0.0171 -0.0139,0.035 -0.01857,0.0531 -0.0047,0.0183 -0.0082,0.0387 -0.0089,0.0602 -0.0697,1.45602 0.139137,3.29784 0.212349,4.34185 6.97e-4,0.01 0.0017,0.0199 0.0044,0.0295 0.0027,0.01 0.0072,0.0186 0.0118,0.0274 0.02056,0.0391 0.02653,0.0832 0.02419,0.12095 -2.2e-4,0.004 -5.14e-4,0.007 -8.79e-4,0.0106 -0.0052,0.0498 -0.02495,0.0916 -0.04906,0.11891 l 0.0087,-0.009 c -9.76e-4,9.3e-4 0.0026,-0.003 0.01013,-0.006 0.0087,-0.003 0.01877,-0.005 0.02877,-0.004 0.0099,7.4e-4 0.01665,0.004 0.01946,0.005 0.0028,0.001 0.0029,0.002 6.33e-4,-6e-5 -0.006,-0.005 -0.0142,-0.0155 -0.02197,-0.0288 -0.0043,-0.007 -0.0078,-0.0145 -0.01045,-0.0206 -0.0032,-0.008 -0.0051,-0.0131 -0.006,-0.0163 a 0.1439738,0.1439738 90 0 0 -0.27715,0.0781 z"
       id="path-1"
       inkscape:path-effect="#path-effect771;#path-effect773"
       inkscape:original-d="m -14.781479,153.71676 c 0.159414,0.4105 0.399604,-0.0353 0.262468,-0.27677 -0.100966,-1.4399 -0.281343,-2.88152 -0.212076,-4.327 0.126101,-0.47256 0.276677,0.45343 0.356232,0.6267 0.312499,1.12433 0.719128,2.22231 1.171233,3.29738 0.0362,0.36909 0.559836,0.8801 0.576459,0.23707 0.06731,-0.71116 -0.0092,-1.42735 0.05675,-2.13952 0.03788,-0.8783 0.105452,-1.75623 0.234695,-2.62616"
       style="fill:#000000;fill-rule:nonzero;stroke:none;stroke-width:1.42122" />
  </g>
</svg>
