<?xml version="1.0" encoding="UTF-8" standalone="no"?>
<!-- Created with Inkscape (http://www.inkscape.org/) -->

<svg
   width="6mm"
   height="10mm"
   viewBox="0 0 6.0000001 9.9999994"
   version="1.1"
   id="svg1681"
   inkscape:version="1.2.1 (9c6d41e410, 2022-07-14)"
   sodipodi:docname="upper N 1.4.svg"
   inkscape:export-filename="..\..\..\..\Downloads\lower a diff canvas resize 3.0.png"
   inkscape:export-xdpi="96"
   inkscape:export-ydpi="96"
   xmlns:inkscape="http://www.inkscape.org/namespaces/inkscape"
   xmlns:sodipodi="http://sodipodi.sourceforge.net/DTD/sodipodi-0.dtd"
   xmlns="http://www.w3.org/2000/svg"
   xmlns:svg="http://www.w3.org/2000/svg"
   xmlns:rdf="http://www.w3.org/1999/02/22-rdf-syntax-ns#"
   xmlns:cc="http://creativecommons.org/ns#"
   xmlns:dc="http://purl.org/dc/elements/1.1/">
  <defs
     id="defs1675">
    <inkscape:path-effect
       effect="powerstroke"
       id="path-effect814"
       is_visible="true"
       lpeversion="1"
       offset_points="2.3333876,0.12849115 | 10.488866,0.15610892"
       not_jump="true"
       sort_points="true"
       interpolator_type="CentripetalCatmullRom"
       interpolator_beta="0.75"
       start_linecap_type="round"
       linejoin_type="spiro"
       miter_limit="4"
       scale_width="1"
       end_linecap_type="round" />
    <inkscape:path-effect
       effect="simplify"
       id="path-effect812"
       is_visible="true"
       lpeversion="1"
       steps="1"
       threshold="0.0035951417"
       smooth_angles="0"
       helper_size="0"
       simplify_individual_paths="false"
       simplify_just_coalesce="false"
       step="1" />
    <inkscape:path-effect
       effect="powerstroke"
       id="path-effect502"
       is_visible="true"
       lpeversion="1"
       offset_points="3.0091841,0.21607495 | 7.3602657,0.17554228 | 9.4159651,0.20236537"
       not_jump="true"
       sort_points="true"
       interpolator_type="CentripetalCatmullRom"
       interpolator_beta="0.75"
       start_linecap_type="round"
       linejoin_type="spiro"
       miter_limit="4"
       scale_width="1"
       end_linecap_type="round" />
    <inkscape:path-effect
       effect="simplify"
       id="path-effect500"
       is_visible="true"
       lpeversion="1"
       steps="1"
       threshold="0.0035951417"
       smooth_angles="0"
       helper_size="0"
       simplify_individual_paths="false"
       simplify_just_coalesce="false"
       step="1" />
    <inkscape:path-effect
       effect="powerstroke"
       id="path-effect241"
       is_visible="true"
       lpeversion="1"
       offset_points="2.6879454,0.34086734"
       not_jump="true"
       sort_points="true"
       interpolator_type="CentripetalCatmullRom"
       interpolator_beta="0.75"
       start_linecap_type="round"
       linejoin_type="spiro"
       miter_limit="4"
       scale_width="1"
       end_linecap_type="round" />
    <inkscape:path-effect
       effect="simplify"
       id="path-effect239"
       is_visible="true"
       lpeversion="1"
       steps="1"
       threshold="0.0028332064"
       smooth_angles="0"
       helper_size="0"
       simplify_individual_paths="false"
       simplify_just_coalesce="false"
       step="1" />
    <inkscape:path-effect
       effect="powerstroke"
       id="path-effect234"
       is_visible="true"
       lpeversion="1"
       offset_points="2.13563,0.075169555"
       not_jump="true"
       sort_points="true"
       interpolator_type="CentripetalCatmullRom"
       interpolator_beta="0.75"
       start_linecap_type="round"
       linejoin_type="spiro"
       miter_limit="4"
       scale_width="1"
       end_linecap_type="round" />
    <inkscape:path-effect
       effect="simplify"
       id="path-effect232"
       is_visible="true"
       lpeversion="1"
       steps="1"
       threshold="0.0028332064"
       smooth_angles="0"
       helper_size="0"
       simplify_individual_paths="false"
       simplify_just_coalesce="false"
       step="1" />
    <inkscape:path-effect
       effect="powerstroke"
       id="path-effect227"
       is_visible="true"
       lpeversion="1"
       offset_points="2.1868266,0.075169555"
       not_jump="true"
       sort_points="true"
       interpolator_type="CentripetalCatmullRom"
       interpolator_beta="0.75"
       start_linecap_type="round"
       linejoin_type="spiro"
       miter_limit="4"
       scale_width="1"
       end_linecap_type="round" />
    <inkscape:path-effect
       effect="simplify"
       id="path-effect225"
       is_visible="true"
       lpeversion="1"
       steps="1"
       threshold="0.0028332064"
       smooth_angles="0"
       helper_size="0"
       simplify_individual_paths="false"
       simplify_just_coalesce="false"
       step="1" />
    <inkscape:path-effect
       effect="powerstroke"
       id="path-effect166"
       is_visible="true"
       lpeversion="1"
       offset_points="1.9637935,0.075169555"
       not_jump="true"
       sort_points="true"
       interpolator_type="CentripetalCatmullRom"
       interpolator_beta="0.75"
       start_linecap_type="round"
       linejoin_type="spiro"
       miter_limit="4"
       scale_width="1"
       end_linecap_type="round" />
    <inkscape:path-effect
       effect="simplify"
       id="path-effect164"
       is_visible="true"
       lpeversion="1"
       steps="1"
       threshold="0.0028332064"
       smooth_angles="0"
       helper_size="0"
       simplify_individual_paths="false"
       simplify_just_coalesce="false"
       step="1" />
    <inkscape:path-effect
       effect="powerstroke"
       id="path-effect159"
       is_visible="true"
       lpeversion="1"
       offset_points="2.2611036,0.075169555"
       not_jump="true"
       sort_points="true"
       interpolator_type="CentripetalCatmullRom"
       interpolator_beta="0.75"
       start_linecap_type="round"
       linejoin_type="spiro"
       miter_limit="4"
       scale_width="1"
       end_linecap_type="round" />
    <inkscape:path-effect
       effect="simplify"
       id="path-effect157"
       is_visible="true"
       lpeversion="1"
       steps="1"
       threshold="0.0028332064"
       smooth_angles="0"
       helper_size="0"
       simplify_individual_paths="false"
       simplify_just_coalesce="false"
       step="1" />
    <inkscape:path-effect
       effect="powerstroke"
       id="path-effect152"
       is_visible="true"
       lpeversion="1"
       offset_points="2.826981,0.075169555"
       not_jump="true"
       sort_points="true"
       interpolator_type="CentripetalCatmullRom"
       interpolator_beta="0.75"
       start_linecap_type="round"
       linejoin_type="spiro"
       miter_limit="4"
       scale_width="1"
       end_linecap_type="round" />
    <inkscape:path-effect
       effect="simplify"
       id="path-effect150"
       is_visible="true"
       lpeversion="1"
       steps="1"
       threshold="0.0028332064"
       smooth_angles="0"
       helper_size="0"
       simplify_individual_paths="false"
       simplify_just_coalesce="false"
       step="1" />
    <inkscape:path-effect
       effect="powerstroke"
       id="path-effect145"
       is_visible="true"
       lpeversion="1"
       offset_points="3.8374447,0.075169555"
       not_jump="true"
       sort_points="true"
       interpolator_type="CentripetalCatmullRom"
       interpolator_beta="0.75"
       start_linecap_type="round"
       linejoin_type="spiro"
       miter_limit="4"
       scale_width="1"
       end_linecap_type="round" />
    <inkscape:path-effect
       effect="simplify"
       id="path-effect143"
       is_visible="true"
       lpeversion="1"
       steps="1"
       threshold="0.0028332064"
       smooth_angles="0"
       helper_size="0"
       simplify_individual_paths="false"
       simplify_just_coalesce="false"
       step="1" />
    <inkscape:path-effect
       effect="powerstroke"
       id="path-effect138"
       is_visible="true"
       lpeversion="1"
       offset_points="2.6880907,0.075169555"
       not_jump="true"
       sort_points="true"
       interpolator_type="CentripetalCatmullRom"
       interpolator_beta="0.75"
       start_linecap_type="round"
       linejoin_type="spiro"
       miter_limit="4"
       scale_width="1"
       end_linecap_type="round" />
    <inkscape:path-effect
       effect="simplify"
       id="path-effect136"
       is_visible="true"
       lpeversion="1"
       steps="1"
       threshold="0.0028332064"
       smooth_angles="0"
       helper_size="0"
       simplify_individual_paths="false"
       simplify_just_coalesce="false"
       step="1" />
    <inkscape:path-effect
       effect="powerstroke"
       id="path-effect131"
       is_visible="true"
       lpeversion="1"
       offset_points="1.9940581,0.075169555"
       not_jump="true"
       sort_points="true"
       interpolator_type="CentripetalCatmullRom"
       interpolator_beta="0.75"
       start_linecap_type="round"
       linejoin_type="spiro"
       miter_limit="4"
       scale_width="1"
       end_linecap_type="round" />
    <inkscape:path-effect
       effect="simplify"
       id="path-effect129"
       is_visible="true"
       lpeversion="1"
       steps="1"
       threshold="0.0028332064"
       smooth_angles="0"
       helper_size="0"
       simplify_individual_paths="false"
       simplify_just_coalesce="false"
       step="1" />
  </defs>
  <sodipodi:namedview
     id="base"
     pagecolor="#ffffff"
     bordercolor="#666666"
     borderopacity="1.0"
     inkscape:pageopacity="0.0"
     inkscape:pageshadow="2"
     inkscape:zoom="7.919596"
     inkscape:cx="-5.3033008"
     inkscape:cy="20.834396"
     inkscape:document-units="mm"
     inkscape:current-layer="layer1"
     showgrid="false"
     fit-margin-top="0"
     fit-margin-left="0"
     fit-margin-right="0"
     fit-margin-bottom="0"
     inkscape:window-width="1920"
     inkscape:window-height="974"
     inkscape:window-x="-11"
     inkscape:window-y="2869"
     inkscape:window-maximized="1"
     showguides="true"
     inkscape:guide-bbox="true"
     inkscape:snap-bbox="true"
     inkscape:bbox-nodes="true"
     inkscape:snap-nodes="false"
     inkscape:snap-others="false"
     inkscape:snap-page="true"
     inkscape:snap-grids="false"
     inkscape:snap-to-guides="false"
     inkscape:snap-global="false"
     inkscape:pagecheckerboard="0"
     inkscape:showpageshadow="2"
     inkscape:deskcolor="#d1d1d1">
    <sodipodi:guide
       position="-6.1806075,9.4988692"
       orientation="0,1"
       id="guide816"
       inkscape:locked="false" />
    <sodipodi:guide
       position="-4.4101636,10.646923"
       orientation="0,1"
       id="guide818"
       inkscape:locked="false" />
    <sodipodi:guide
       position="2.7595724,11.09577"
       orientation="1,0"
       id="guide820"
       inkscape:locked="false" />
    <sodipodi:guide
       position="3.6572659,10.942217"
       orientation="1,0"
       id="guide822"
       inkscape:locked="false" />
    <sodipodi:guide
       position="-0.051625511,9.7492299"
       orientation="1,0"
       id="guide1853"
       inkscape:locked="false" />
    <sodipodi:guide
       position="-2.3720169,3.0175835"
       orientation="0,1"
       id="guide1855"
       inkscape:locked="false" />
  </sodipodi:namedview>
  <metadata
     id="metadata1678">
    <rdf:RDF>
      <cc:Work
         rdf:about="">
        <dc:format>image/svg+xml</dc:format>
        <dc:type
           rdf:resource="http://purl.org/dc/dcmitype/StillImage" />
      </cc:Work>
    </rdf:RDF>
  </metadata>
  <g
     inkscape:label="Layer 1"
     inkscape:groupmode="layer"
     id="layer1"
     transform="translate(17.028496,-147.22856)">
    <path
       d="m -14.711213,153.59808 c -0.02104,-0.13126 -0.0789,-0.47263 -0.108187,-0.73137 -0.02411,-0.21304 -0.04207,-0.46288 -0.02539,-0.72101 0.0072,-0.32451 0.01421,-0.69071 0.04588,-1.04151 0.0297,-0.32902 0.0825,-0.66756 0.185878,-0.99905 0.03491,-0.12285 0.06583,-0.24439 0.10011,-0.36339 0.01608,-0.0558 0.03391,-0.11458 0.05382,-0.17333 0.05157,-0.15214 0.121011,-0.31691 0.230752,-0.4623 7.38e-4,-6.9e-4 2.35e-4,0.001 -0.0058,0.005 -0.0064,0.004 -0.01631,0.008 -0.02848,0.008 -0.01148,6e-4 -0.02038,-0.002 -0.02556,-0.004 -0.0049,-0.002 -0.0059,-0.003 -0.0049,-0.002 0.0032,0.003 0.01001,0.0108 0.01765,0.0251 0.0034,0.006 0.0062,0.0127 0.0084,0.0188 0.0022,0.006 0.0034,0.0108 0.0038,0.0135 4.01e-4,0.003 9.16e-4,0.005 0.0017,0.008 7.51e-4,0.002 0.0016,0.005 0.0024,0.007 0.05298,0.15952 0.10792,0.32743 0.141195,0.49686 0.100053,0.44371 0.167468,0.89007 0.233524,1.35223 0.0644,0.45059 0.127174,0.9138 0.216476,1.37067 0.04265,0.23802 0.09007,0.48493 0.15783,0.72684 0.06843,0.24428 0.157688,0.48384 0.284701,0.70926 0.0029,0.005 0.0063,0.0102 0.0098,0.0151 0.01215,0.0168 0.02851,0.0392 0.04743,0.0617 0.01908,0.0227 0.04297,0.0483 0.07148,0.071 0.02879,0.023 0.06644,0.0464 0.112649,0.0588 0.02379,0.006 0.04946,0.01 0.07649,0.009 0.0274,-0.001 0.05435,-0.007 0.0803,-0.0164 0.0094,-0.004 0.01876,-0.007 0.0272,-0.0129 0.0084,-0.005 0.01586,-0.0123 0.0231,-0.0193 0.03574,-0.0344 0.05899,-0.073 0.0747,-0.10929 0.01575,-0.0364 0.02465,-0.0724 0.03064,-0.10135 0.0064,-0.031 0.0104,-0.0576 0.01447,-0.0791 0.0044,-0.0233 0.0083,-0.0384 0.01243,-0.0495 0.0023,-0.006 0.0039,-0.0125 0.0052,-0.0189 0.07452,-0.35647 0.115322,-0.71569 0.146151,-1.02641 0.04208,-0.42412 0.05951,-0.67002 0.10302,-1.01162 0.06636,-0.62911 0.09851,-0.93442 0.143635,-1.32427 0.08353,-0.72154 0.148792,-1.15785 0.182158,-1.3727 a 0.15610892,0.15610892 90 0 0 -0.30852,-0.0479 c -0.03392,0.2184 -0.100571,0.65796 -0.183807,1.38491 -0.0441,0.38518 -0.07722,0.70543 -0.141079,1.3246 -0.04272,0.34353 -0.06044,0.60109 -0.100301,1.01727 -0.02935,0.30647 -0.06735,0.6496 -0.136195,0.98718 -0.0094,0.0305 -0.01501,0.0601 -0.01918,0.0856 -0.0046,0.028 -0.0079,0.053 -0.0115,0.0732 -0.0037,0.0203 -0.0072,0.0336 -0.01087,0.0431 -0.0031,0.008 -0.0058,0.012 -0.0072,0.0137 l 0.0503,-0.0322 c 0.0028,-8.8e-4 0.0068,-0.002 0.01179,-0.002 0.0048,-6e-5 0.0087,7.1e-4 0.01122,0.002 0.0046,0.002 0.0011,0.002 -0.0069,-0.004 -0.0085,-0.006 -0.01904,-0.0161 -0.03151,-0.0302 -0.01068,-0.012 -0.02092,-0.0249 -0.03172,-0.0388 -0.111079,-0.19685 -0.192319,-0.41019 -0.256794,-0.63588 -0.06503,-0.22764 -0.111693,-0.46299 -0.155746,-0.7017 -0.08917,-0.44987 -0.152017,-0.90428 -0.218092,-1.35802 -0.06731,-0.46223 -0.137209,-0.918 -0.240432,-1.37019 -0.03851,-0.18316 -0.100413,-0.364 -0.154257,-0.51969 -0.0039,-0.0153 -0.0089,-0.0301 -0.01448,-0.0443 -0.007,-0.0175 -0.01531,-0.0349 -0.02475,-0.0516 -0.01893,-0.0334 -0.04483,-0.0683 -0.07797,-0.0962 -0.01741,-0.0147 -0.03843,-0.0288 -0.06309,-0.0392 -0.02567,-0.0108 -0.05546,-0.0175 -0.0879,-0.0161 -0.03374,0.002 -0.06518,0.0117 -0.09284,0.0281 -0.02783,0.0165 -0.05016,0.0383 -0.06805,0.061 -0.135017,0.1806 -0.21426,0.37554 -0.268914,0.53875 -0.02137,0.0638 -0.04018,0.12668 -0.05674,0.1848 -0.0354,0.12429 -0.06608,0.24611 -0.09852,0.36125 -0.109276,0.35148 -0.164267,0.70932 -0.194868,1.04901 -0.03252,0.36106 -0.03967,0.73672 -0.04675,1.05334 -0.01799,0.27395 0.0013,0.54056 0.02602,0.7608 0.02999,0.26771 0.08873,0.61606 0.109142,0.74337 a 0.12849115,0.12849115 90 0 0 0.253742,-0.0407 z"
       id="path-1"
       inkscape:path-effect="#path-effect812;#path-effect814"
       inkscape:original-d="m -14.838084,153.61842 c -0.07593,-0.4796 -0.164493,-0.96146 -0.135001,-1.44937 0.01605,-0.67459 0.02384,-1.35839 0.211865,-2.01226 0.113663,-0.38059 0.182954,-0.79204 0.420898,-1.11991 0.172083,-0.19804 0.238502,0.25075 0.295936,0.3714 0.228103,0.87626 0.302556,1.78232 0.45955,2.67231 0.102878,0.55005 0.183587,1.12059 0.447628,1.62123 0.05609,0.14105 0.27801,0.34943 0.313098,0.0795 0.167041,-0.68876 0.184228,-1.40031 0.271188,-2.10116 0.09732,-0.93121 0.19054,-1.86342 0.334265,-2.78891"
       style="fill:#000000;fill-rule:nonzero;stroke:none;stroke-width:1.33413" />
  </g>
</svg>
