<?xml version="1.0" encoding="UTF-8" standalone="no"?>
<!-- Created with Inkscape (http://www.inkscape.org/) -->

<svg
   width="6mm"
   height="10mm"
   viewBox="0 0 6.0000001 9.9999994"
   version="1.1"
   id="svg1681"
   inkscape:version="1.2.1 (9c6d41e410, 2022-07-14)"
   sodipodi:docname="upper N 1.2.svg"
   inkscape:export-filename="..\..\..\..\Downloads\lower a diff canvas resize 3.0.png"
   inkscape:export-xdpi="96"
   inkscape:export-ydpi="96"
   xmlns:inkscape="http://www.inkscape.org/namespaces/inkscape"
   xmlns:sodipodi="http://sodipodi.sourceforge.net/DTD/sodipodi-0.dtd"
   xmlns="http://www.w3.org/2000/svg"
   xmlns:svg="http://www.w3.org/2000/svg"
   xmlns:rdf="http://www.w3.org/1999/02/22-rdf-syntax-ns#"
   xmlns:cc="http://creativecommons.org/ns#"
   xmlns:dc="http://purl.org/dc/elements/1.1/">
  <defs
     id="defs1675">
    <inkscape:path-effect
       effect="powerstroke"
       id="path-effect732"
       is_visible="true"
       lpeversion="1"
       offset_points="2.5905135,0.10984732 | 6.6337069,0.13877319 | 7.5106297,0.11641331"
       not_jump="true"
       sort_points="true"
       interpolator_type="CentripetalCatmullRom"
       interpolator_beta="0.75"
       start_linecap_type="round"
       linejoin_type="spiro"
       miter_limit="4"
       scale_width="1"
       end_linecap_type="round" />
    <inkscape:path-effect
       effect="simplify"
       id="path-effect730"
       is_visible="true"
       lpeversion="1"
       steps="1"
       threshold="0.0035951417"
       smooth_angles="0"
       helper_size="0"
       simplify_individual_paths="false"
       simplify_just_coalesce="false"
       step="1" />
    <inkscape:path-effect
       effect="powerstroke"
       id="path-effect502"
       is_visible="true"
       lpeversion="1"
       offset_points="3.0091841,0.21607495 | 7.3602657,0.17554228 | 9.4159651,0.20236537"
       not_jump="true"
       sort_points="true"
       interpolator_type="CentripetalCatmullRom"
       interpolator_beta="0.75"
       start_linecap_type="round"
       linejoin_type="spiro"
       miter_limit="4"
       scale_width="1"
       end_linecap_type="round" />
    <inkscape:path-effect
       effect="simplify"
       id="path-effect500"
       is_visible="true"
       lpeversion="1"
       steps="1"
       threshold="0.0035951417"
       smooth_angles="0"
       helper_size="0"
       simplify_individual_paths="false"
       simplify_just_coalesce="false"
       step="1" />
    <inkscape:path-effect
       effect="powerstroke"
       id="path-effect241"
       is_visible="true"
       lpeversion="1"
       offset_points="2.6879454,0.34086734"
       not_jump="true"
       sort_points="true"
       interpolator_type="CentripetalCatmullRom"
       interpolator_beta="0.75"
       start_linecap_type="round"
       linejoin_type="spiro"
       miter_limit="4"
       scale_width="1"
       end_linecap_type="round" />
    <inkscape:path-effect
       effect="simplify"
       id="path-effect239"
       is_visible="true"
       lpeversion="1"
       steps="1"
       threshold="0.0028332064"
       smooth_angles="0"
       helper_size="0"
       simplify_individual_paths="false"
       simplify_just_coalesce="false"
       step="1" />
    <inkscape:path-effect
       effect="powerstroke"
       id="path-effect234"
       is_visible="true"
       lpeversion="1"
       offset_points="2.13563,0.075169555"
       not_jump="true"
       sort_points="true"
       interpolator_type="CentripetalCatmullRom"
       interpolator_beta="0.75"
       start_linecap_type="round"
       linejoin_type="spiro"
       miter_limit="4"
       scale_width="1"
       end_linecap_type="round" />
    <inkscape:path-effect
       effect="simplify"
       id="path-effect232"
       is_visible="true"
       lpeversion="1"
       steps="1"
       threshold="0.0028332064"
       smooth_angles="0"
       helper_size="0"
       simplify_individual_paths="false"
       simplify_just_coalesce="false"
       step="1" />
    <inkscape:path-effect
       effect="powerstroke"
       id="path-effect227"
       is_visible="true"
       lpeversion="1"
       offset_points="2.1868266,0.075169555"
       not_jump="true"
       sort_points="true"
       interpolator_type="CentripetalCatmullRom"
       interpolator_beta="0.75"
       start_linecap_type="round"
       linejoin_type="spiro"
       miter_limit="4"
       scale_width="1"
       end_linecap_type="round" />
    <inkscape:path-effect
       effect="simplify"
       id="path-effect225"
       is_visible="true"
       lpeversion="1"
       steps="1"
       threshold="0.0028332064"
       smooth_angles="0"
       helper_size="0"
       simplify_individual_paths="false"
       simplify_just_coalesce="false"
       step="1" />
    <inkscape:path-effect
       effect="powerstroke"
       id="path-effect166"
       is_visible="true"
       lpeversion="1"
       offset_points="1.9637935,0.075169555"
       not_jump="true"
       sort_points="true"
       interpolator_type="CentripetalCatmullRom"
       interpolator_beta="0.75"
       start_linecap_type="round"
       linejoin_type="spiro"
       miter_limit="4"
       scale_width="1"
       end_linecap_type="round" />
    <inkscape:path-effect
       effect="simplify"
       id="path-effect164"
       is_visible="true"
       lpeversion="1"
       steps="1"
       threshold="0.0028332064"
       smooth_angles="0"
       helper_size="0"
       simplify_individual_paths="false"
       simplify_just_coalesce="false"
       step="1" />
    <inkscape:path-effect
       effect="powerstroke"
       id="path-effect159"
       is_visible="true"
       lpeversion="1"
       offset_points="2.2611036,0.075169555"
       not_jump="true"
       sort_points="true"
       interpolator_type="CentripetalCatmullRom"
       interpolator_beta="0.75"
       start_linecap_type="round"
       linejoin_type="spiro"
       miter_limit="4"
       scale_width="1"
       end_linecap_type="round" />
    <inkscape:path-effect
       effect="simplify"
       id="path-effect157"
       is_visible="true"
       lpeversion="1"
       steps="1"
       threshold="0.0028332064"
       smooth_angles="0"
       helper_size="0"
       simplify_individual_paths="false"
       simplify_just_coalesce="false"
       step="1" />
    <inkscape:path-effect
       effect="powerstroke"
       id="path-effect152"
       is_visible="true"
       lpeversion="1"
       offset_points="2.826981,0.075169555"
       not_jump="true"
       sort_points="true"
       interpolator_type="CentripetalCatmullRom"
       interpolator_beta="0.75"
       start_linecap_type="round"
       linejoin_type="spiro"
       miter_limit="4"
       scale_width="1"
       end_linecap_type="round" />
    <inkscape:path-effect
       effect="simplify"
       id="path-effect150"
       is_visible="true"
       lpeversion="1"
       steps="1"
       threshold="0.0028332064"
       smooth_angles="0"
       helper_size="0"
       simplify_individual_paths="false"
       simplify_just_coalesce="false"
       step="1" />
    <inkscape:path-effect
       effect="powerstroke"
       id="path-effect145"
       is_visible="true"
       lpeversion="1"
       offset_points="3.8374447,0.075169555"
       not_jump="true"
       sort_points="true"
       interpolator_type="CentripetalCatmullRom"
       interpolator_beta="0.75"
       start_linecap_type="round"
       linejoin_type="spiro"
       miter_limit="4"
       scale_width="1"
       end_linecap_type="round" />
    <inkscape:path-effect
       effect="simplify"
       id="path-effect143"
       is_visible="true"
       lpeversion="1"
       steps="1"
       threshold="0.0028332064"
       smooth_angles="0"
       helper_size="0"
       simplify_individual_paths="false"
       simplify_just_coalesce="false"
       step="1" />
    <inkscape:path-effect
       effect="powerstroke"
       id="path-effect138"
       is_visible="true"
       lpeversion="1"
       offset_points="2.6880907,0.075169555"
       not_jump="true"
       sort_points="true"
       interpolator_type="CentripetalCatmullRom"
       interpolator_beta="0.75"
       start_linecap_type="round"
       linejoin_type="spiro"
       miter_limit="4"
       scale_width="1"
       end_linecap_type="round" />
    <inkscape:path-effect
       effect="simplify"
       id="path-effect136"
       is_visible="true"
       lpeversion="1"
       steps="1"
       threshold="0.0028332064"
       smooth_angles="0"
       helper_size="0"
       simplify_individual_paths="false"
       simplify_just_coalesce="false"
       step="1" />
    <inkscape:path-effect
       effect="powerstroke"
       id="path-effect131"
       is_visible="true"
       lpeversion="1"
       offset_points="1.9940581,0.075169555"
       not_jump="true"
       sort_points="true"
       interpolator_type="CentripetalCatmullRom"
       interpolator_beta="0.75"
       start_linecap_type="round"
       linejoin_type="spiro"
       miter_limit="4"
       scale_width="1"
       end_linecap_type="round" />
    <inkscape:path-effect
       effect="simplify"
       id="path-effect129"
       is_visible="true"
       lpeversion="1"
       steps="1"
       threshold="0.0028332064"
       smooth_angles="0"
       helper_size="0"
       simplify_individual_paths="false"
       simplify_just_coalesce="false"
       step="1" />
  </defs>
  <sodipodi:namedview
     id="base"
     pagecolor="#ffffff"
     bordercolor="#666666"
     borderopacity="1.0"
     inkscape:pageopacity="0.0"
     inkscape:pageshadow="2"
     inkscape:zoom="7.919596"
     inkscape:cx="-5.3033008"
     inkscape:cy="20.834396"
     inkscape:document-units="mm"
     inkscape:current-layer="layer1"
     showgrid="false"
     fit-margin-top="0"
     fit-margin-left="0"
     fit-margin-right="0"
     fit-margin-bottom="0"
     inkscape:window-width="1920"
     inkscape:window-height="974"
     inkscape:window-x="-11"
     inkscape:window-y="2869"
     inkscape:window-maximized="1"
     showguides="true"
     inkscape:guide-bbox="true"
     inkscape:snap-bbox="true"
     inkscape:bbox-nodes="true"
     inkscape:snap-nodes="false"
     inkscape:snap-others="false"
     inkscape:snap-page="true"
     inkscape:snap-grids="false"
     inkscape:snap-to-guides="false"
     inkscape:snap-global="false"
     inkscape:pagecheckerboard="0"
     inkscape:showpageshadow="2"
     inkscape:deskcolor="#d1d1d1">
    <sodipodi:guide
       position="-6.1806075,9.4988692"
       orientation="0,1"
       id="guide816"
       inkscape:locked="false" />
    <sodipodi:guide
       position="-4.4101636,10.646923"
       orientation="0,1"
       id="guide818"
       inkscape:locked="false" />
    <sodipodi:guide
       position="2.7595724,11.09577"
       orientation="1,0"
       id="guide820"
       inkscape:locked="false" />
    <sodipodi:guide
       position="3.6572659,10.942217"
       orientation="1,0"
       id="guide822"
       inkscape:locked="false" />
    <sodipodi:guide
       position="-0.051625511,9.7492299"
       orientation="1,0"
       id="guide1853"
       inkscape:locked="false" />
    <sodipodi:guide
       position="-2.3720169,3.0175835"
       orientation="0,1"
       id="guide1855"
       inkscape:locked="false" />
  </sodipodi:namedview>
  <metadata
     id="metadata1678">
    <rdf:RDF>
      <cc:Work
         rdf:about="">
        <dc:format>image/svg+xml</dc:format>
        <dc:type
           rdf:resource="http://purl.org/dc/dcmitype/StillImage" />
      </cc:Work>
    </rdf:RDF>
  </metadata>
  <g
     inkscape:label="Layer 1"
     inkscape:groupmode="layer"
     id="layer1"
     transform="translate(17.028496,-147.22856)">
    <path
       d="m -15.162729,154.03506 c 0.139941,-0.65159 0.186307,-1.01054 0.357908,-2.04131 0.09926,-0.59625 0.227869,-1.31241 0.437549,-2.00431 0.0017,-0.006 0.003,-0.0114 0.0037,-0.0172 0.02562,-0.19544 0.09994,-0.39751 0.223899,-0.57504 0.0093,-0.0147 0.01882,-0.0264 0.03054,-0.0371 0.01207,-0.011 0.02336,-0.0182 0.03149,-0.0215 0.0028,-0.001 0.0048,-0.002 0.0058,-0.002 9.23e-4,9e-5 -9.1e-4,6.5e-4 -0.0044,2.5e-4 -0.0037,-4.1e-4 -0.0072,-0.002 -0.01012,-0.003 -0.0026,-0.001 -0.0029,-0.002 -0.0013,5.9e-4 0.0139,0.0221 0.02735,0.0515 0.03826,0.0849 0.01057,0.0324 0.01849,0.0676 0.02521,0.10695 0.01285,0.0753 0.01958,0.16251 0.03833,0.25585 0.177552,1.04155 0.375079,2.10569 0.541909,3.1292 0.05758,0.3459 0.111538,0.65602 0.165267,0.943 0.0021,0.0112 0.0043,0.0224 0.0081,0.0331 0.0038,0.0107 0.0092,0.0209 0.01636,0.0298 0.0071,0.009 0.0159,0.0164 0.0255,0.0225 0.0096,0.006 0.01999,0.0109 0.03037,0.0156 0.02617,0.0118 0.05334,0.0192 0.081,0.022 0.0291,0.003 0.05686,2.5e-4 0.08244,-0.006 0.02695,-0.007 0.05039,-0.018 0.07016,-0.0305 0.02118,-0.0134 0.03869,-0.0288 0.05288,-0.0439 0.01675,-0.0178 0.02997,-0.0364 0.04025,-0.0536 0.01017,-0.017 0.01807,-0.0337 0.02418,-0.0492 0.01579,-0.0401 0.02208,-0.0781 0.02319,-0.11003 l -0.0018,0.0117 c 0.01894,-0.12025 0.01569,-0.23782 0.0175,-0.36878 -10e-7,8e-5 1.09e-4,-0.007 1.07e-4,-0.007 0.0014,-0.0925 0.0048,-0.20977 0.02977,-0.31626 0.0012,-0.005 0.002,-0.0102 0.0025,-0.0154 0.188084,-2.00442 0.365512,-3.11746 0.608457,-4.15007 a 0.11641331,0.11641331 90 0 0 -0.226638,-0.0533 c -0.246075,1.04591 -0.419318,2.16872 -0.608059,4.17446 -0.02936,0.12916 -0.03429,0.26689 -0.03875,0.35276 6e-6,-1.3e-4 -3.97e-4,0.008 -3.91e-4,0.007 -0.0072,0.13686 -0.01721,0.22919 -0.04178,0.3251 -2.46e-4,9.6e-4 -4.61e-4,0.002 -5.42e-4,0.003 -8e-5,9.9e-4 -4.4e-5,0.002 -3.3e-5,0.003 1.1e-5,9.9e-4 -2.2e-5,0.002 -2.23e-4,0.003 -2e-4,9.7e-4 -5.82e-4,0.002 -9.94e-4,0.003 -0.0031,0.007 -0.0077,0.0176 -0.01422,0.0287 -0.0025,0.004 -0.0051,0.008 -0.0077,0.0117 -0.0028,0.004 -0.0051,0.006 -0.0068,0.008 -0.0015,0.001 -0.0015,8.7e-4 -2.88e-4,9e-5 0.0013,-8.7e-4 0.0043,-0.002 0.0089,-0.004 0.0045,-0.001 0.0094,-0.001 0.01381,-8.9e-4 0.0039,5e-4 0.0064,0.002 0.0058,0.002 l 0.08035,0.10102 c -0.05756,-0.29223 -0.113952,-0.58509 -0.179538,-0.93493 -0.173507,-1.02496 -0.378363,-2.08833 -0.563267,-3.13154 -0.01888,-0.0784 -0.02925,-0.16433 -0.0477,-0.25274 -0.0096,-0.0459 -0.02147,-0.0925 -0.03826,-0.13847 -0.01753,-0.048 -0.04011,-0.0946 -0.07018,-0.13855 -0.0192,-0.0257 -0.03838,-0.0441 -0.06064,-0.0582 -0.02311,-0.0147 -0.04768,-0.0238 -0.07237,-0.028 -0.02534,-0.004 -0.0493,-0.003 -0.07059,5.2e-4 -0.006,0.001 -0.01191,0.002 -0.01757,0.004 -0.01482,0.004 -0.02882,0.009 -0.04187,0.015 -0.03472,0.0159 -0.06539,0.0385 -0.09052,0.0623 -0.02468,0.0233 -0.04668,0.0501 -0.06337,0.0775 -0.138242,0.19908 -0.224702,0.4302 -0.256466,0.65616 -0.212953,0.70373 -0.343292,1.42853 -0.442712,2.02319 -0.173434,1.03736 -0.217975,1.38339 -0.357091,2.03114 a 0.10984732,0.10984732 90 0 0 0.214796,0.0461 z"
       id="path-1"
       inkscape:path-effect="#path-effect730;#path-effect732"
       inkscape:original-d="m -15.270127,154.01199 c 0.289314,-1.34699 0.397664,-2.73133 0.798878,-4.05409 0.02897,-0.34319 0.430228,-1.16995 0.562485,-0.4423 0.183122,1.08017 0.392259,2.15775 0.570747,3.23993 0.06286,0.35794 0.127385,0.7156 0.195941,1.0725 0.291193,0.0991 0.175288,-0.60247 0.249291,-0.81822 0.131928,-1.40855 0.287198,-2.81978 0.611712,-4.19908"
       style="fill:#000000;fill-rule:nonzero;stroke:none;stroke-width:1.20872" />
  </g>
</svg>
