<?xml version="1.0" encoding="UTF-8" standalone="no"?>
<!-- Created with Inkscape (http://www.inkscape.org/) -->

<svg
   width="6mm"
   height="10mm"
   viewBox="0 0 6.0000001 9.9999994"
   version="1.1"
   id="svg1681"
   inkscape:version="1.2.1 (9c6d41e410, 2022-07-14)"
   sodipodi:docname="upper R 1.4.svg"
   inkscape:export-filename="..\..\..\..\Downloads\lower a diff canvas resize 3.0.png"
   inkscape:export-xdpi="96"
   inkscape:export-ydpi="96"
   xmlns:inkscape="http://www.inkscape.org/namespaces/inkscape"
   xmlns:sodipodi="http://sodipodi.sourceforge.net/DTD/sodipodi-0.dtd"
   xmlns="http://www.w3.org/2000/svg"
   xmlns:svg="http://www.w3.org/2000/svg"
   xmlns:rdf="http://www.w3.org/1999/02/22-rdf-syntax-ns#"
   xmlns:cc="http://creativecommons.org/ns#"
   xmlns:dc="http://purl.org/dc/elements/1.1/">
  <defs
     id="defs1675">
    <inkscape:path-effect
       effect="powerstroke"
       id="path-effect1494"
       is_visible="true"
       lpeversion="1"
       offset_points="1.5338795,0.061662524 | 10.317476,0.077959048"
       not_jump="true"
       sort_points="true"
       interpolator_type="CentripetalCatmullRom"
       interpolator_beta="0.75"
       start_linecap_type="round"
       linejoin_type="spiro"
       miter_limit="4"
       scale_width="1"
       end_linecap_type="round" />
    <inkscape:path-effect
       effect="simplify"
       id="path-effect1492"
       is_visible="true"
       lpeversion="1"
       steps="1"
       threshold="0.0035951417"
       smooth_angles="0"
       helper_size="0"
       simplify_individual_paths="false"
       simplify_just_coalesce="false"
       step="1" />
    <inkscape:path-effect
       effect="powerstroke"
       id="path-effect1487"
       is_visible="true"
       lpeversion="1"
       offset_points="3.8165105,0.09380755 | 4.8673546,0.10561549"
       not_jump="true"
       sort_points="true"
       interpolator_type="CentripetalCatmullRom"
       interpolator_beta="0.75"
       start_linecap_type="round"
       linejoin_type="spiro"
       miter_limit="4"
       scale_width="1"
       end_linecap_type="round" />
    <inkscape:path-effect
       effect="simplify"
       id="path-effect1485"
       is_visible="true"
       lpeversion="1"
       steps="1"
       threshold="0.0035951417"
       smooth_angles="0"
       helper_size="0"
       simplify_individual_paths="false"
       simplify_just_coalesce="false"
       step="1" />
    <inkscape:path-effect
       effect="powerstroke"
       id="path-effect502"
       is_visible="true"
       lpeversion="1"
       offset_points="3.0091841,0.21607495 | 7.3602657,0.17554228 | 9.4159651,0.20236537"
       not_jump="true"
       sort_points="true"
       interpolator_type="CentripetalCatmullRom"
       interpolator_beta="0.75"
       start_linecap_type="round"
       linejoin_type="spiro"
       miter_limit="4"
       scale_width="1"
       end_linecap_type="round" />
    <inkscape:path-effect
       effect="simplify"
       id="path-effect500"
       is_visible="true"
       lpeversion="1"
       steps="1"
       threshold="0.0035951417"
       smooth_angles="0"
       helper_size="0"
       simplify_individual_paths="false"
       simplify_just_coalesce="false"
       step="1" />
    <inkscape:path-effect
       effect="powerstroke"
       id="path-effect241"
       is_visible="true"
       lpeversion="1"
       offset_points="2.6879454,0.34086734"
       not_jump="true"
       sort_points="true"
       interpolator_type="CentripetalCatmullRom"
       interpolator_beta="0.75"
       start_linecap_type="round"
       linejoin_type="spiro"
       miter_limit="4"
       scale_width="1"
       end_linecap_type="round" />
    <inkscape:path-effect
       effect="simplify"
       id="path-effect239"
       is_visible="true"
       lpeversion="1"
       steps="1"
       threshold="0.0028332064"
       smooth_angles="0"
       helper_size="0"
       simplify_individual_paths="false"
       simplify_just_coalesce="false"
       step="1" />
    <inkscape:path-effect
       effect="powerstroke"
       id="path-effect234"
       is_visible="true"
       lpeversion="1"
       offset_points="2.13563,0.075169555"
       not_jump="true"
       sort_points="true"
       interpolator_type="CentripetalCatmullRom"
       interpolator_beta="0.75"
       start_linecap_type="round"
       linejoin_type="spiro"
       miter_limit="4"
       scale_width="1"
       end_linecap_type="round" />
    <inkscape:path-effect
       effect="simplify"
       id="path-effect232"
       is_visible="true"
       lpeversion="1"
       steps="1"
       threshold="0.0028332064"
       smooth_angles="0"
       helper_size="0"
       simplify_individual_paths="false"
       simplify_just_coalesce="false"
       step="1" />
    <inkscape:path-effect
       effect="powerstroke"
       id="path-effect227"
       is_visible="true"
       lpeversion="1"
       offset_points="2.1868266,0.075169555"
       not_jump="true"
       sort_points="true"
       interpolator_type="CentripetalCatmullRom"
       interpolator_beta="0.75"
       start_linecap_type="round"
       linejoin_type="spiro"
       miter_limit="4"
       scale_width="1"
       end_linecap_type="round" />
    <inkscape:path-effect
       effect="simplify"
       id="path-effect225"
       is_visible="true"
       lpeversion="1"
       steps="1"
       threshold="0.0028332064"
       smooth_angles="0"
       helper_size="0"
       simplify_individual_paths="false"
       simplify_just_coalesce="false"
       step="1" />
    <inkscape:path-effect
       effect="powerstroke"
       id="path-effect166"
       is_visible="true"
       lpeversion="1"
       offset_points="1.9637935,0.075169555"
       not_jump="true"
       sort_points="true"
       interpolator_type="CentripetalCatmullRom"
       interpolator_beta="0.75"
       start_linecap_type="round"
       linejoin_type="spiro"
       miter_limit="4"
       scale_width="1"
       end_linecap_type="round" />
    <inkscape:path-effect
       effect="simplify"
       id="path-effect164"
       is_visible="true"
       lpeversion="1"
       steps="1"
       threshold="0.0028332064"
       smooth_angles="0"
       helper_size="0"
       simplify_individual_paths="false"
       simplify_just_coalesce="false"
       step="1" />
    <inkscape:path-effect
       effect="powerstroke"
       id="path-effect159"
       is_visible="true"
       lpeversion="1"
       offset_points="2.2611036,0.075169555"
       not_jump="true"
       sort_points="true"
       interpolator_type="CentripetalCatmullRom"
       interpolator_beta="0.75"
       start_linecap_type="round"
       linejoin_type="spiro"
       miter_limit="4"
       scale_width="1"
       end_linecap_type="round" />
    <inkscape:path-effect
       effect="simplify"
       id="path-effect157"
       is_visible="true"
       lpeversion="1"
       steps="1"
       threshold="0.0028332064"
       smooth_angles="0"
       helper_size="0"
       simplify_individual_paths="false"
       simplify_just_coalesce="false"
       step="1" />
    <inkscape:path-effect
       effect="powerstroke"
       id="path-effect152"
       is_visible="true"
       lpeversion="1"
       offset_points="2.826981,0.075169555"
       not_jump="true"
       sort_points="true"
       interpolator_type="CentripetalCatmullRom"
       interpolator_beta="0.75"
       start_linecap_type="round"
       linejoin_type="spiro"
       miter_limit="4"
       scale_width="1"
       end_linecap_type="round" />
    <inkscape:path-effect
       effect="simplify"
       id="path-effect150"
       is_visible="true"
       lpeversion="1"
       steps="1"
       threshold="0.0028332064"
       smooth_angles="0"
       helper_size="0"
       simplify_individual_paths="false"
       simplify_just_coalesce="false"
       step="1" />
    <inkscape:path-effect
       effect="powerstroke"
       id="path-effect145"
       is_visible="true"
       lpeversion="1"
       offset_points="3.8374447,0.075169555"
       not_jump="true"
       sort_points="true"
       interpolator_type="CentripetalCatmullRom"
       interpolator_beta="0.75"
       start_linecap_type="round"
       linejoin_type="spiro"
       miter_limit="4"
       scale_width="1"
       end_linecap_type="round" />
    <inkscape:path-effect
       effect="simplify"
       id="path-effect143"
       is_visible="true"
       lpeversion="1"
       steps="1"
       threshold="0.0028332064"
       smooth_angles="0"
       helper_size="0"
       simplify_individual_paths="false"
       simplify_just_coalesce="false"
       step="1" />
    <inkscape:path-effect
       effect="powerstroke"
       id="path-effect138"
       is_visible="true"
       lpeversion="1"
       offset_points="2.6880907,0.075169555"
       not_jump="true"
       sort_points="true"
       interpolator_type="CentripetalCatmullRom"
       interpolator_beta="0.75"
       start_linecap_type="round"
       linejoin_type="spiro"
       miter_limit="4"
       scale_width="1"
       end_linecap_type="round" />
    <inkscape:path-effect
       effect="simplify"
       id="path-effect136"
       is_visible="true"
       lpeversion="1"
       steps="1"
       threshold="0.0028332064"
       smooth_angles="0"
       helper_size="0"
       simplify_individual_paths="false"
       simplify_just_coalesce="false"
       step="1" />
    <inkscape:path-effect
       effect="powerstroke"
       id="path-effect131"
       is_visible="true"
       lpeversion="1"
       offset_points="1.9940581,0.075169555"
       not_jump="true"
       sort_points="true"
       interpolator_type="CentripetalCatmullRom"
       interpolator_beta="0.75"
       start_linecap_type="round"
       linejoin_type="spiro"
       miter_limit="4"
       scale_width="1"
       end_linecap_type="round" />
    <inkscape:path-effect
       effect="simplify"
       id="path-effect129"
       is_visible="true"
       lpeversion="1"
       steps="1"
       threshold="0.0028332064"
       smooth_angles="0"
       helper_size="0"
       simplify_individual_paths="false"
       simplify_just_coalesce="false"
       step="1" />
  </defs>
  <sodipodi:namedview
     id="base"
     pagecolor="#ffffff"
     bordercolor="#666666"
     borderopacity="1.0"
     inkscape:pageopacity="0.0"
     inkscape:pageshadow="2"
     inkscape:zoom="7.919596"
     inkscape:cx="-5.3033008"
     inkscape:cy="20.834396"
     inkscape:document-units="mm"
     inkscape:current-layer="layer1"
     showgrid="false"
     fit-margin-top="0"
     fit-margin-left="0"
     fit-margin-right="0"
     fit-margin-bottom="0"
     inkscape:window-width="1920"
     inkscape:window-height="974"
     inkscape:window-x="-11"
     inkscape:window-y="2869"
     inkscape:window-maximized="1"
     showguides="true"
     inkscape:guide-bbox="true"
     inkscape:snap-bbox="true"
     inkscape:bbox-nodes="true"
     inkscape:snap-nodes="false"
     inkscape:snap-others="false"
     inkscape:snap-page="true"
     inkscape:snap-grids="false"
     inkscape:snap-to-guides="false"
     inkscape:snap-global="false"
     inkscape:pagecheckerboard="0"
     inkscape:showpageshadow="2"
     inkscape:deskcolor="#d1d1d1">
    <sodipodi:guide
       position="-6.1806075,9.4988692"
       orientation="0,1"
       id="guide816"
       inkscape:locked="false" />
    <sodipodi:guide
       position="-4.4101636,10.646923"
       orientation="0,1"
       id="guide818"
       inkscape:locked="false" />
    <sodipodi:guide
       position="2.7595724,11.09577"
       orientation="1,0"
       id="guide820"
       inkscape:locked="false" />
    <sodipodi:guide
       position="3.6572659,10.942217"
       orientation="1,0"
       id="guide822"
       inkscape:locked="false" />
    <sodipodi:guide
       position="-0.051625511,9.7492299"
       orientation="1,0"
       id="guide1853"
       inkscape:locked="false" />
    <sodipodi:guide
       position="-2.3720169,3.0175835"
       orientation="0,1"
       id="guide1855"
       inkscape:locked="false" />
  </sodipodi:namedview>
  <metadata
     id="metadata1678">
    <rdf:RDF>
      <cc:Work
         rdf:about="">
        <dc:format>image/svg+xml</dc:format>
        <dc:type
           rdf:resource="http://purl.org/dc/dcmitype/StillImage" />
      </cc:Work>
    </rdf:RDF>
  </metadata>
  <g
     inkscape:label="Layer 1"
     inkscape:groupmode="layer"
     id="layer1"
     transform="translate(17.028496,-147.22856)">
    <path
       d="m -14.94989,148.53761 c -0.03786,0.23814 -0.04863,0.53926 0.01793,0.94403 0.04792,0.29143 0.1237,0.57297 0.218209,0.90401 0.09977,0.33634 0.192068,0.69822 0.264685,1.07938 0.170436,0.82842 0.286224,1.57921 0.234163,2.33017 l 0.08903,-0.0854 c -0.02659,6.6e-4 -0.04919,-0.006 -0.06879,-0.0156 -0.02202,-0.0113 -0.04175,-0.0283 -0.05875,-0.0488 -0.01974,-0.0238 -0.03476,-0.0509 -0.04552,-0.0769 -0.0033,-0.008 -0.0061,-0.0157 -0.0086,-0.0232 -0.0081,-0.0244 -0.01243,-0.0465 -0.01459,-0.0648 -0.01039,-0.0751 -0.0055,-0.15098 -0.0016,-0.23006 0.0018,-0.0363 0.0063,-0.11658 0.0025,-0.19048 -0.0011,-0.0222 -0.0031,-0.047 -0.0065,-0.0735 -0.01658,-0.20138 -0.04749,-0.37881 -0.0907,-0.64144 -0.03083,-0.18737 -0.06574,-0.4083 -0.07327,-0.62625 -0.02891,-0.39794 -0.04444,-0.83305 -0.01491,-1.27207 0.02699,-0.40127 0.09231,-0.81969 0.227399,-1.23193 0.06365,-0.18588 0.138796,-0.38782 0.244757,-0.56963 0.0204,-0.0283 0.05324,-0.0567 0.09184,-0.0777 0.03816,-0.0207 0.08237,-0.0343 0.130225,-0.0399 0.04712,-0.006 0.09674,-0.003 0.145227,0.007 0.04784,0.0102 0.09339,0.0279 0.133175,0.0519 0.03259,0.0187 0.05987,0.0406 0.08537,0.0671 0.0254,0.0264 0.04887,0.057 0.07168,0.0917 0.04814,0.0732 0.0824,0.14564 0.131905,0.23354 0.128009,0.25782 0.219254,0.54273 0.27547,0.83606 0.01162,0.14885 -0.01306,0.30582 -0.07311,0.44368 -0.03039,0.0698 -0.0695,0.13389 -0.116797,0.18952 -0.04743,0.0558 -0.103091,0.10305 -0.166832,0.13935 -0.04464,0.0238 -0.09718,0.0416 -0.153951,0.0551 -0.05594,0.0132 -0.114434,0.0218 -0.174404,0.0294 -0.03964,-1.3e-4 -0.08188,-0.006 -0.128802,-0.0146 -0.04936,-0.009 -0.102056,-0.0215 -0.15767,-0.0311 -0.05609,-0.01 -0.116599,-0.017 -0.178989,-0.0139 -0.06445,0.003 -0.130128,0.0176 -0.194951,0.0504 -0.01382,0.007 -0.0277,0.0143 -0.03932,0.0245 -0.01161,0.0102 -0.02075,0.0235 -0.02512,0.0383 -0.0044,0.0149 -0.0039,0.0309 3.67e-4,0.0458 0.0042,0.0149 0.01201,0.0285 0.01988,0.0418 0.03087,0.0523 0.06714,0.0974 0.104984,0.13723 0.03856,0.0406 0.07973,0.0767 0.119363,0.10918 0.08333,0.0684 0.163157,0.12557 0.226002,0.18434 0.113008,0.10449 0.207622,0.22328 0.303712,0.32555 0.759148,0.86175 1.355591,2.01263 1.662436,2.58793 a 0.10561549,0.10561549 90 0 0 0.186378,-0.0994 c -0.303238,-0.56855 -0.911337,-1.74443 -1.691885,-2.6311 -0.09113,-0.0976 -0.185822,-0.21876 -0.315073,-0.33904 -0.07606,-0.0715 -0.160369,-0.13166 -0.235504,-0.19365 -0.0361,-0.0298 -0.06976,-0.0597 -0.09975,-0.0914 -0.0292,-0.0309 -0.05471,-0.0633 -0.07551,-0.0987 l -0.04419,0.15048 c 0.03412,-0.0171 0.06966,-0.0254 0.108855,-0.0273 0.03947,-0.002 0.08212,0.003 0.131137,0.0113 0.04761,0.008 0.09937,0.0205 0.155009,0.031 0.05411,0.0102 0.11439,0.0192 0.176724,0.0187 0.0041,-4e-5 0.0081,-3.2e-4 0.01216,-8.1e-4 0.06372,-0.008 0.133908,-0.0174 0.203712,-0.0336 0.06901,-0.0161 0.140569,-0.0392 0.20929,-0.0756 0.09006,-0.0511 0.165136,-0.11509 0.227931,-0.18877 0.06246,-0.0733 0.112626,-0.15597 0.150887,-0.24353 0.07605,-0.17405 0.106079,-0.36965 0.09067,-0.55484 -3.13e-4,-0.004 -8.28e-4,-0.008 -0.0015,-0.0112 -0.05902,-0.31249 -0.156114,-0.61892 -0.297384,-0.90368 -0.04274,-0.0764 -0.08896,-0.17059 -0.142133,-0.25163 -0.02796,-0.0426 -0.05969,-0.0848 -0.09701,-0.12359 -0.03784,-0.0393 -0.08133,-0.0751 -0.132257,-0.1042 -0.0599,-0.0363 -0.128704,-0.0626 -0.198905,-0.0776 -0.07121,-0.0152 -0.144986,-0.019 -0.216764,-0.0107 -0.07305,0.009 -0.144666,0.0297 -0.209922,0.0652 -0.0667,0.0362 -0.125828,0.087 -0.171926,0.15249 -0.122728,0.20996 -0.203393,0.42961 -0.26778,0.61884 -0.142431,0.4353 -0.209919,0.87262 -0.237482,1.28698 -0.03014,0.45317 -0.01355,0.8994 0.01599,1.29853 0.0084,0.22976 0.04633,0.46331 0.07774,0.64983 0.04479,0.26606 0.07465,0.43239 0.09242,0.62972 0.0036,0.0253 0.0055,0.0446 0.0068,0.0626 0.0044,0.0589 0.0036,0.13537 0.0037,0.17271 1.68e-4,0.076 0.0015,0.17141 0.01807,0.26392 0.0045,0.0273 0.01249,0.0611 0.02562,0.0976 0.0041,0.0114 0.0087,0.0231 0.01399,0.0351 0.01701,0.0388 0.04148,0.0823 0.07585,0.12265 0.02963,0.0348 0.06823,0.069 0.116916,0.0935 0.0448,0.0226 0.09758,0.0366 0.157138,0.0349 0.01178,-3.4e-4 0.02367,-8.2e-4 0.03506,-0.004 0.01139,-0.003 0.02219,-0.009 0.0307,-0.0168 0.0085,-0.008 0.01455,-0.0187 0.01803,-0.03 0.0035,-0.0113 0.0044,-0.0231 0.0052,-0.0349 0.05334,-0.77705 -0.06668,-1.54772 -0.237111,-2.37842 -0.07324,-0.38695 -0.166354,-0.75494 -0.266595,-1.09549 -0.09367,-0.32974 -0.166428,-0.60244 -0.212122,-0.88249 -0.06295,-0.3858 -0.05161,-0.66662 -0.01699,-0.88437 a 0.09380755,0.09380755 90 0 0 -0.185288,-0.0295 z"
       id="path-1"
       inkscape:path-effect="#path-effect1485;#path-effect1487"
       inkscape:original-d="m -14.857246,148.55234 c -0.144061,0.9223 0.284975,1.79052 0.452976,2.67759 0.178018,0.84407 0.340654,1.70481 0.280927,2.57159 -0.234103,-0.002 -0.312248,-0.26696 -0.304266,-0.46069 0.03081,-0.52112 -0.142783,-1.02492 -0.167137,-1.54311 -0.08462,-1.06645 -0.05719,-2.19453 0.439414,-3.16727 0.169091,-0.30612 0.630667,-0.2668 0.825317,-0.009 0.241375,0.34344 0.381874,0.75164 0.467001,1.1594 0.0474,0.41388 -0.186347,0.92515 -0.642047,0.97387 -0.250336,0.0964 -0.520858,-0.12042 -0.76165,0.004 0.08448,0.1748 0.408871,0.34301 0.560583,0.54372 0.777842,0.81636 1.329752,1.81729 1.856529,2.80535"
       style="fill:#000000;fill-rule:nonzero;stroke:none;stroke-width:1.11704" />
    <path
       d="m -14.326637,151.78313 c -0.004,-0.006 -0.0092,-0.0145 -0.0163,-0.0277 -0.0055,-0.0102 -0.01061,-0.0201 -0.0177,-0.0339 -0.0053,-0.0104 -0.01208,-0.0235 -0.01869,-0.0354 -0.0059,-0.0106 -0.01321,-0.023 -0.02141,-0.0341 -0.01067,-0.0145 -0.02215,-0.0291 -0.03802,-0.0375 -0.0079,-0.004 -0.01679,-0.007 -0.02577,-0.007 -0.009,-2.7e-4 -0.01804,0.002 -0.02595,0.006 -0.0079,0.004 -0.01461,0.0107 -0.01932,0.0183 -0.0047,0.008 -0.0074,0.0165 -0.0083,0.0254 -0.0017,0.0179 0.0042,0.0355 0.01037,0.0524 0.0087,0.0237 0.01857,0.0471 0.02627,0.0695 4.88e-4,0.001 9.67e-4,0.003 0.0014,0.004 0.0052,0.0158 0.01043,0.0345 0.01178,0.0536 0.0055,0.0433 0.0053,0.0858 0.001,0.13357 -0.004,0.0448 -0.01082,0.0881 -0.01861,0.13969 -0.0069,0.0455 -0.01441,0.0973 -0.01738,0.14926 -0.0028,0.0498 -0.0018,0.10369 0.0089,0.15947 0.0054,0.0315 0.01514,0.0612 0.02444,0.0889 0.0089,0.0265 0.01681,0.0495 0.02162,0.0725 0.04139,0.14628 0.08385,0.29408 0.116496,0.44161 0.03192,0.14422 0.05509,0.29061 0.0593,0.43919 0.01022,0.0718 0.01164,0.13521 6.37e-4,0.19479 l 0.0048,-0.0156 c 9.74e-4,-0.002 0.0033,-0.006 0.0075,-0.01 0.0043,-0.004 0.01165,-0.0106 0.02261,-0.0147 0.0055,-0.002 0.01156,-0.003 0.01794,-0.004 0.0064,-4.3e-4 0.01247,1.1e-4 0.01808,0.001 0.01108,0.002 0.01887,0.007 0.02388,0.0108 0.0048,0.004 0.0079,0.007 0.0094,0.009 0.0035,0.004 0.0036,0.005 0.0034,0.004 -5e-4,-0.002 -0.0013,-0.004 -0.0018,-0.005 -8.53e-4,-0.003 -0.0017,-0.006 -0.0026,-0.009 -8.34e-4,-0.003 -0.0016,-0.006 -0.0022,-0.009 -5.92e-4,-0.003 -0.001,-0.005 -0.0012,-0.006 -0.04426,-0.1823 -0.09204,-0.35356 -0.130455,-0.515 -0.132794,-0.53944 -0.210669,-1.00162 -0.205435,-1.4562 l -0.144266,0.0274 c 0.01618,0.0409 0.0252,0.0834 0.03112,0.12259 0.02012,0.1331 0.02293,0.23054 0.02275,0.23056 -1.64e-4,2e-5 -0.0082,-0.0773 -0.0095,-0.0925 a 0.07795905,0.07795905 90 0 0 0.1553,-0.0139 c 0.0013,0.015 0.0091,0.0866 0.0089,0.0866 -1.8e-4,2e-5 -0.0016,-0.0795 -0.02743,-0.23474 -0.0075,-0.0448 -0.01948,-0.0997 -0.04231,-0.15498 -0.0079,-0.019 -0.0165,-0.0385 -0.03152,-0.0526 -0.0075,-0.007 -0.01645,-0.0126 -0.02624,-0.0159 -0.0098,-0.003 -0.02038,-0.004 -0.0305,-0.002 -0.01012,0.002 -0.01971,0.006 -0.02765,0.013 -0.0079,0.007 -0.01422,0.015 -0.01861,0.0244 -0.0088,0.0186 -0.0096,0.0399 -0.0097,0.0605 -0.0041,0.47267 0.07823,0.94847 0.213654,1.49236 0.04039,0.16427 0.08957,0.33564 0.133772,0.51197 1.62e-4,5.9e-4 0.0011,0.004 0.0022,0.009 0.0011,0.004 0.0025,0.009 0.0041,0.0143 0.0016,0.005 0.0034,0.0108 0.0056,0.0166 0.0021,0.006 0.0047,0.0121 0.0079,0.0185 0.0029,0.006 0.0075,0.0144 0.01426,0.0226 0.0034,0.004 0.0084,0.01 0.01518,0.0146 0.007,0.005 0.01673,0.0109 0.0298,0.0137 0.0066,0.001 0.0137,0.002 0.02108,0.002 0.0074,-4.9e-4 0.01443,-0.002 0.02097,-0.005 0.01298,-0.005 0.02239,-0.0123 0.0287,-0.0189 0.0063,-0.006 0.01061,-0.0131 0.01362,-0.0185 0.0031,-0.006 0.0054,-0.011 0.0073,-0.016 0.0016,-0.004 0.0028,-0.008 0.0036,-0.0129 0.01302,-0.0785 0.0091,-0.1575 -0.0031,-0.23099 -0.0044,-0.15127 -0.02983,-0.30646 -0.06343,-0.45552 -0.03425,-0.15195 -0.07848,-0.30363 -0.119138,-0.44488 -0.0064,-0.0281 -0.01789,-0.0589 -0.02638,-0.0826 -0.0099,-0.0275 -0.01699,-0.0487 -0.02114,-0.07 -0.0085,-0.0432 -0.0099,-0.0861 -0.0077,-0.12913 0.0023,-0.0455 0.0088,-0.0919 0.01544,-0.13771 0.0073,-0.0502 0.01461,-0.0978 0.01877,-0.1474 0.0045,-0.0539 0.0049,-0.10578 -0.002,-0.15749 -0.0028,-0.0313 -0.01218,-0.0612 -0.01868,-0.0801 -6.25e-4,-0.002 -0.0013,-0.004 -0.0019,-0.005 -0.0099,-0.0279 -0.02001,-0.0511 -0.02738,-0.0711 l -0.106968,0.0576 c 0.0035,0.005 0.0079,0.0118 0.01285,0.0208 0.0054,0.01 0.01109,0.0209 0.01652,0.0316 0.0069,0.0135 0.01247,0.0246 0.01875,0.0364 0.0083,0.0155 0.01523,0.0273 0.02167,0.037 a 0.06166252,0.06166252 90 0 0 0.103018,-0.0678 z"
       id="path-1-2"
       inkscape:path-effect="#path-effect1492;#path-effect1494"
       inkscape:original-d="m -14.378146,151.81703 c -0.04244,-0.0687 -0.113852,-0.22819 -0.04255,-0.0532 0.07182,0.24226 -0.08942,0.48826 0.01736,0.73615 0.08897,0.31488 0.187781,0.62938 0.197981,0.95937 0.02013,0.0982 0.0074,0.37355 -0.04543,0.12249 -0.16954,-0.63568 -0.338471,-1.28253 -0.33195,-1.9455 0.03626,0.0894 0.04411,0.18671 0.0526,0.28185"
       style="fill:#000000;fill-rule:nonzero;stroke:none" />
  </g>
</svg>
