<?xml version="1.0" encoding="UTF-8" standalone="no"?>
<!-- Created with Inkscape (http://www.inkscape.org/) -->

<svg
   width="6mm"
   height="10mm"
   viewBox="0 0 6.0000001 9.9999994"
   version="1.1"
   id="svg1681"
   inkscape:version="1.2.1 (9c6d41e410, 2022-07-14)"
   sodipodi:docname="upper R 1.2.svg"
   inkscape:export-filename="..\..\..\..\Downloads\lower a diff canvas resize 3.0.png"
   inkscape:export-xdpi="96"
   inkscape:export-ydpi="96"
   xmlns:inkscape="http://www.inkscape.org/namespaces/inkscape"
   xmlns:sodipodi="http://sodipodi.sourceforge.net/DTD/sodipodi-0.dtd"
   xmlns="http://www.w3.org/2000/svg"
   xmlns:svg="http://www.w3.org/2000/svg"
   xmlns:rdf="http://www.w3.org/1999/02/22-rdf-syntax-ns#"
   xmlns:cc="http://creativecommons.org/ns#"
   xmlns:dc="http://purl.org/dc/elements/1.1/">
  <defs
     id="defs1675">
    <inkscape:path-effect
       effect="powerstroke"
       id="path-effect1401"
       is_visible="true"
       lpeversion="1"
       offset_points="2.339574,0.1306361 | 4.7077305,0.15611679 | 6.9849136,0.1285444 | 11.450638,0.14794015 | 14.123816,0.12264961"
       not_jump="true"
       sort_points="true"
       interpolator_type="CentripetalCatmullRom"
       interpolator_beta="0.75"
       start_linecap_type="round"
       linejoin_type="spiro"
       miter_limit="4"
       scale_width="1"
       end_linecap_type="round" />
    <inkscape:path-effect
       effect="simplify"
       id="path-effect1399"
       is_visible="true"
       lpeversion="1"
       steps="1"
       threshold="0.0035951417"
       smooth_angles="0"
       helper_size="0"
       simplify_individual_paths="false"
       simplify_just_coalesce="false"
       step="1" />
    <inkscape:path-effect
       effect="powerstroke"
       id="path-effect1394"
       is_visible="true"
       lpeversion="1"
       offset_points="3.7112771,0.089851107"
       not_jump="true"
       sort_points="true"
       interpolator_type="CentripetalCatmullRom"
       interpolator_beta="0.75"
       start_linecap_type="round"
       linejoin_type="spiro"
       miter_limit="4"
       scale_width="1"
       end_linecap_type="round" />
    <inkscape:path-effect
       effect="simplify"
       id="path-effect1392"
       is_visible="true"
       lpeversion="1"
       steps="1"
       threshold="0.0035951417"
       smooth_angles="0"
       helper_size="0"
       simplify_individual_paths="false"
       simplify_just_coalesce="false"
       step="1" />
    <inkscape:path-effect
       effect="powerstroke"
       id="path-effect1387"
       is_visible="true"
       lpeversion="1"
       offset_points="1.4782106,0.072673689 | 3.251151,0.090732"
       not_jump="true"
       sort_points="true"
       interpolator_type="CentripetalCatmullRom"
       interpolator_beta="0.75"
       start_linecap_type="round"
       linejoin_type="spiro"
       miter_limit="4"
       scale_width="1"
       end_linecap_type="round" />
    <inkscape:path-effect
       effect="simplify"
       id="path-effect1385"
       is_visible="true"
       lpeversion="1"
       steps="1"
       threshold="0.0035951417"
       smooth_angles="0"
       helper_size="0"
       simplify_individual_paths="false"
       simplify_just_coalesce="false"
       step="1" />
    <inkscape:path-effect
       effect="powerstroke"
       id="path-effect502"
       is_visible="true"
       lpeversion="1"
       offset_points="3.0091841,0.21607495 | 7.3602657,0.17554228 | 9.4159651,0.20236537"
       not_jump="true"
       sort_points="true"
       interpolator_type="CentripetalCatmullRom"
       interpolator_beta="0.75"
       start_linecap_type="round"
       linejoin_type="spiro"
       miter_limit="4"
       scale_width="1"
       end_linecap_type="round" />
    <inkscape:path-effect
       effect="simplify"
       id="path-effect500"
       is_visible="true"
       lpeversion="1"
       steps="1"
       threshold="0.0035951417"
       smooth_angles="0"
       helper_size="0"
       simplify_individual_paths="false"
       simplify_just_coalesce="false"
       step="1" />
    <inkscape:path-effect
       effect="powerstroke"
       id="path-effect241"
       is_visible="true"
       lpeversion="1"
       offset_points="2.6879454,0.34086734"
       not_jump="true"
       sort_points="true"
       interpolator_type="CentripetalCatmullRom"
       interpolator_beta="0.75"
       start_linecap_type="round"
       linejoin_type="spiro"
       miter_limit="4"
       scale_width="1"
       end_linecap_type="round" />
    <inkscape:path-effect
       effect="simplify"
       id="path-effect239"
       is_visible="true"
       lpeversion="1"
       steps="1"
       threshold="0.0028332064"
       smooth_angles="0"
       helper_size="0"
       simplify_individual_paths="false"
       simplify_just_coalesce="false"
       step="1" />
    <inkscape:path-effect
       effect="powerstroke"
       id="path-effect234"
       is_visible="true"
       lpeversion="1"
       offset_points="2.13563,0.075169555"
       not_jump="true"
       sort_points="true"
       interpolator_type="CentripetalCatmullRom"
       interpolator_beta="0.75"
       start_linecap_type="round"
       linejoin_type="spiro"
       miter_limit="4"
       scale_width="1"
       end_linecap_type="round" />
    <inkscape:path-effect
       effect="simplify"
       id="path-effect232"
       is_visible="true"
       lpeversion="1"
       steps="1"
       threshold="0.0028332064"
       smooth_angles="0"
       helper_size="0"
       simplify_individual_paths="false"
       simplify_just_coalesce="false"
       step="1" />
    <inkscape:path-effect
       effect="powerstroke"
       id="path-effect227"
       is_visible="true"
       lpeversion="1"
       offset_points="2.1868266,0.075169555"
       not_jump="true"
       sort_points="true"
       interpolator_type="CentripetalCatmullRom"
       interpolator_beta="0.75"
       start_linecap_type="round"
       linejoin_type="spiro"
       miter_limit="4"
       scale_width="1"
       end_linecap_type="round" />
    <inkscape:path-effect
       effect="simplify"
       id="path-effect225"
       is_visible="true"
       lpeversion="1"
       steps="1"
       threshold="0.0028332064"
       smooth_angles="0"
       helper_size="0"
       simplify_individual_paths="false"
       simplify_just_coalesce="false"
       step="1" />
    <inkscape:path-effect
       effect="powerstroke"
       id="path-effect166"
       is_visible="true"
       lpeversion="1"
       offset_points="1.9637935,0.075169555"
       not_jump="true"
       sort_points="true"
       interpolator_type="CentripetalCatmullRom"
       interpolator_beta="0.75"
       start_linecap_type="round"
       linejoin_type="spiro"
       miter_limit="4"
       scale_width="1"
       end_linecap_type="round" />
    <inkscape:path-effect
       effect="simplify"
       id="path-effect164"
       is_visible="true"
       lpeversion="1"
       steps="1"
       threshold="0.0028332064"
       smooth_angles="0"
       helper_size="0"
       simplify_individual_paths="false"
       simplify_just_coalesce="false"
       step="1" />
    <inkscape:path-effect
       effect="powerstroke"
       id="path-effect159"
       is_visible="true"
       lpeversion="1"
       offset_points="2.2611036,0.075169555"
       not_jump="true"
       sort_points="true"
       interpolator_type="CentripetalCatmullRom"
       interpolator_beta="0.75"
       start_linecap_type="round"
       linejoin_type="spiro"
       miter_limit="4"
       scale_width="1"
       end_linecap_type="round" />
    <inkscape:path-effect
       effect="simplify"
       id="path-effect157"
       is_visible="true"
       lpeversion="1"
       steps="1"
       threshold="0.0028332064"
       smooth_angles="0"
       helper_size="0"
       simplify_individual_paths="false"
       simplify_just_coalesce="false"
       step="1" />
    <inkscape:path-effect
       effect="powerstroke"
       id="path-effect152"
       is_visible="true"
       lpeversion="1"
       offset_points="2.826981,0.075169555"
       not_jump="true"
       sort_points="true"
       interpolator_type="CentripetalCatmullRom"
       interpolator_beta="0.75"
       start_linecap_type="round"
       linejoin_type="spiro"
       miter_limit="4"
       scale_width="1"
       end_linecap_type="round" />
    <inkscape:path-effect
       effect="simplify"
       id="path-effect150"
       is_visible="true"
       lpeversion="1"
       steps="1"
       threshold="0.0028332064"
       smooth_angles="0"
       helper_size="0"
       simplify_individual_paths="false"
       simplify_just_coalesce="false"
       step="1" />
    <inkscape:path-effect
       effect="powerstroke"
       id="path-effect145"
       is_visible="true"
       lpeversion="1"
       offset_points="3.8374447,0.075169555"
       not_jump="true"
       sort_points="true"
       interpolator_type="CentripetalCatmullRom"
       interpolator_beta="0.75"
       start_linecap_type="round"
       linejoin_type="spiro"
       miter_limit="4"
       scale_width="1"
       end_linecap_type="round" />
    <inkscape:path-effect
       effect="simplify"
       id="path-effect143"
       is_visible="true"
       lpeversion="1"
       steps="1"
       threshold="0.0028332064"
       smooth_angles="0"
       helper_size="0"
       simplify_individual_paths="false"
       simplify_just_coalesce="false"
       step="1" />
    <inkscape:path-effect
       effect="powerstroke"
       id="path-effect138"
       is_visible="true"
       lpeversion="1"
       offset_points="2.6880907,0.075169555"
       not_jump="true"
       sort_points="true"
       interpolator_type="CentripetalCatmullRom"
       interpolator_beta="0.75"
       start_linecap_type="round"
       linejoin_type="spiro"
       miter_limit="4"
       scale_width="1"
       end_linecap_type="round" />
    <inkscape:path-effect
       effect="simplify"
       id="path-effect136"
       is_visible="true"
       lpeversion="1"
       steps="1"
       threshold="0.0028332064"
       smooth_angles="0"
       helper_size="0"
       simplify_individual_paths="false"
       simplify_just_coalesce="false"
       step="1" />
    <inkscape:path-effect
       effect="powerstroke"
       id="path-effect131"
       is_visible="true"
       lpeversion="1"
       offset_points="1.9940581,0.075169555"
       not_jump="true"
       sort_points="true"
       interpolator_type="CentripetalCatmullRom"
       interpolator_beta="0.75"
       start_linecap_type="round"
       linejoin_type="spiro"
       miter_limit="4"
       scale_width="1"
       end_linecap_type="round" />
    <inkscape:path-effect
       effect="simplify"
       id="path-effect129"
       is_visible="true"
       lpeversion="1"
       steps="1"
       threshold="0.0028332064"
       smooth_angles="0"
       helper_size="0"
       simplify_individual_paths="false"
       simplify_just_coalesce="false"
       step="1" />
  </defs>
  <sodipodi:namedview
     id="base"
     pagecolor="#ffffff"
     bordercolor="#666666"
     borderopacity="1.0"
     inkscape:pageopacity="0.0"
     inkscape:pageshadow="2"
     inkscape:zoom="7.919596"
     inkscape:cx="-5.3033008"
     inkscape:cy="20.834396"
     inkscape:document-units="mm"
     inkscape:current-layer="layer1"
     showgrid="false"
     fit-margin-top="0"
     fit-margin-left="0"
     fit-margin-right="0"
     fit-margin-bottom="0"
     inkscape:window-width="1920"
     inkscape:window-height="974"
     inkscape:window-x="-11"
     inkscape:window-y="2869"
     inkscape:window-maximized="1"
     showguides="true"
     inkscape:guide-bbox="true"
     inkscape:snap-bbox="true"
     inkscape:bbox-nodes="true"
     inkscape:snap-nodes="false"
     inkscape:snap-others="false"
     inkscape:snap-page="true"
     inkscape:snap-grids="false"
     inkscape:snap-to-guides="false"
     inkscape:snap-global="false"
     inkscape:pagecheckerboard="0"
     inkscape:showpageshadow="2"
     inkscape:deskcolor="#d1d1d1">
    <sodipodi:guide
       position="-6.1806075,9.4988692"
       orientation="0,1"
       id="guide816"
       inkscape:locked="false" />
    <sodipodi:guide
       position="-4.4101636,10.646923"
       orientation="0,1"
       id="guide818"
       inkscape:locked="false" />
    <sodipodi:guide
       position="2.7595724,11.09577"
       orientation="1,0"
       id="guide820"
       inkscape:locked="false" />
    <sodipodi:guide
       position="3.6572659,10.942217"
       orientation="1,0"
       id="guide822"
       inkscape:locked="false" />
    <sodipodi:guide
       position="-0.051625511,9.7492299"
       orientation="1,0"
       id="guide1853"
       inkscape:locked="false" />
    <sodipodi:guide
       position="-2.3720169,3.0175835"
       orientation="0,1"
       id="guide1855"
       inkscape:locked="false" />
  </sodipodi:namedview>
  <metadata
     id="metadata1678">
    <rdf:RDF>
      <cc:Work
         rdf:about="">
        <dc:format>image/svg+xml</dc:format>
        <dc:type
           rdf:resource="http://purl.org/dc/dcmitype/StillImage" />
      </cc:Work>
    </rdf:RDF>
  </metadata>
  <g
     inkscape:label="Layer 1"
     inkscape:groupmode="layer"
     id="layer1"
     transform="translate(17.028496,-147.22856)">
    <path
       d="m -14.894147,148.25181 c -0.04833,0.43749 -0.06797,0.98479 -0.0074,1.7714 0.04514,0.58623 0.111885,1.07419 0.187714,1.74525 0.06302,0.54456 0.10958,1.08653 0.117879,1.6265 0.0037,0.0717 0.0069,0.12497 0.0086,0.18292 8.21e-4,0.0273 0.0012,0.0543 9.73e-4,0.081 -7.33e-4,0.0831 -0.0075,0.16115 -0.02499,0.23481 l 0.06642,-0.0917 c 0.0071,-0.004 0.01784,-0.009 0.03188,-0.0123 0.01443,-0.003 0.02997,-0.003 0.04541,3.7e-4 0.01512,0.003 0.02734,0.009 0.03639,0.0148 0.0088,0.006 0.01487,0.0112 0.01843,0.0148 0.007,0.007 0.0082,0.01 0.0076,0.007 -4.34e-4,-0.002 -0.0023,-0.009 -0.0042,-0.0168 -0.0042,-0.0178 -0.0078,-0.0386 -0.01125,-0.0628 -0.0017,-0.0117 -0.0031,-0.0226 -0.0045,-0.0337 -2.8e-4,-0.002 -5.71e-4,-0.004 -8.71e-4,-0.007 0.01197,-0.3047 0.01808,-0.60844 0.01458,-0.91133 -0.0015,-0.12978 -0.0048,-0.25677 -0.0097,-0.38155 0.01448,-1.32742 0.337556,-2.6753 1.02414,-3.82799 0.01089,-0.009 0.0228,-0.0165 0.03541,-0.0234 0.0196,-0.0108 0.03979,-0.0186 0.0591,-0.0228 0.01834,-0.004 0.03483,-0.004 0.04895,-0.002 0.01223,0.002 0.02409,0.007 0.03564,0.0154 0.03268,0.027 0.06062,0.0581 0.08594,0.0951 0.02402,0.0351 0.04532,0.0751 0.06473,0.12029 0.03778,0.088 0.06326,0.18252 0.0927,0.2922 0.02801,0.10267 0.04477,0.20856 0.0603,0.32539 0.01449,0.10902 0.02842,0.23257 0.05042,0.35133 0.0257,0.16289 0.05379,0.32206 0.06211,0.48034 0.0041,0.0783 0.0032,0.15389 -0.0049,0.22698 -0.0081,0.0736 -0.02345,0.14406 -0.04782,0.21185 -0.02191,0.053 -0.0499,0.10574 -0.08232,0.15075 -0.03158,0.0439 -0.06558,0.0779 -0.101493,0.10287 -0.02752,0.0124 -0.05638,0.0197 -0.08706,0.0234 -0.02849,0.003 -0.0588,0.004 -0.09103,0.002 -0.0081,-4.9e-4 -0.01631,-0.001 -0.02468,-0.002 -0.0831,-0.008 -0.178913,-0.03 -0.280808,-0.0451 -0.03343,-0.008 -0.06738,-0.0119 -0.09833,-0.0115 -0.01821,2.3e-4 -0.03709,0.002 -0.05574,0.005 -0.01812,0.003 -0.04002,0.009 -0.06187,0.02 -0.01126,0.006 -0.02421,0.0133 -0.037,0.024 -0.01294,0.0109 -0.02692,0.0258 -0.03805,0.0458 -0.01153,0.0207 -0.01871,0.0445 -0.01969,0.0699 -9.77e-4,0.0252 0.0043,0.0476 0.01177,0.0659 0.0074,0.0181 0.01716,0.0327 0.02629,0.0439 0.0093,0.0114 0.0192,0.0209 0.02857,0.0288 0.01516,0.0127 0.03204,0.0238 0.04923,0.0336 0.196006,0.17033 0.359889,0.30609 0.524093,0.468 0.184153,0.18157 0.323355,0.35426 0.425578,0.53961 0.0017,0.003 0.0035,0.006 0.0054,0.009 0.02683,0.04 0.05244,0.0793 0.07676,0.1174 0.212045,0.33224 0.428653,0.7455 0.49537,0.86982 a 0.12264961,0.12264961 90 0 0 0.216142,-0.116 c -0.06342,-0.11818 -0.291057,-0.54486 -0.504188,-0.88493 -0.02382,-0.038 -0.04883,-0.0773 -0.07498,-0.11742 -0.11448,-0.21136 -0.26661,-0.4036 -0.458302,-0.59884 -0.172363,-0.17555 -0.346831,-0.3249 -0.539372,-0.49835 -0.0036,-0.003 -0.0073,-0.006 -0.01134,-0.009 -0.004,-0.003 -0.0082,-0.005 -0.01231,-0.008 -0.0081,-0.005 -0.01678,-0.0118 -0.01301,-0.01 7.64e-4,3.7e-4 0.0035,0.002 0.0074,0.007 0.0037,0.004 0.0096,0.0123 0.01451,0.0242 0.0051,0.0121 0.0093,0.0287 0.0086,0.0484 -7.19e-4,0.02 -0.0064,0.0387 -0.01518,0.0546 -0.0084,0.0152 -0.01859,0.0259 -0.02667,0.0327 -0.0079,0.007 -0.01509,0.011 -0.0196,0.0133 -0.0096,0.005 -0.01255,0.005 -0.01242,0.006 1.23e-4,4.1e-4 0.0033,4.3e-4 0.0076,8.6e-4 0.0095,9.6e-4 0.02014,0.003 0.02798,0.006 0.0034,0.001 0.0068,0.003 0.01043,0.003 0.0036,6.8e-4 0.0072,0.001 0.01081,0.002 0.08598,0.0148 0.188966,0.0418 0.30337,0.0537 0.01127,0.001 0.02267,0.002 0.03417,0.003 0.04541,0.003 0.09475,0.003 0.145918,-0.003 0.06135,-0.007 0.126118,-0.0239 0.190678,-0.056 0.0055,-0.003 0.01082,-0.006 0.01592,-0.009 0.07518,-0.05 0.13664,-0.11523 0.186389,-0.1879 0.04717,-0.0689 0.08354,-0.14409 0.111421,-0.21874 0.03345,-0.0966 0.0519,-0.18967 0.06083,-0.28244 0.0088,-0.0919 0.0083,-0.18319 0.0023,-0.27275 -0.01184,-0.17644 -0.0458,-0.35343 -0.07328,-0.5119 -0.0233,-0.11309 -0.03802,-0.22432 -0.05567,-0.34041 -0.01811,-0.11915 -0.03869,-0.23865 -0.07294,-0.35766 -0.02997,-0.10521 -0.06096,-0.21704 -0.107728,-0.32431 -0.02477,-0.0568 -0.05363,-0.11152 -0.08852,-0.16271 -0.03702,-0.0543 -0.08,-0.10346 -0.130348,-0.14629 -0.0035,-0.003 -0.0061,-0.005 -0.0088,-0.007 -0.04293,-0.0339 -0.08963,-0.055 -0.136242,-0.0662 -0.05174,-0.0125 -0.102585,-0.0127 -0.14872,-0.006 -0.04839,0.007 -0.09398,0.0212 -0.134656,0.0394 -0.04244,0.019 -0.08166,0.043 -0.116013,0.0699 -0.0061,0.005 -0.012,0.01 -0.01694,0.0157 -0.0049,0.006 -0.009,0.0126 -0.01304,0.0191 -0.733908,1.20015 -1.085115,2.60488 -1.105434,3.9949 0.0035,0.1295 0.0058,0.25425 0.0071,0.38172 0.0032,0.30128 6.57e-4,0.6038 -0.0059,0.90921 -1.29e-4,0.006 -5.46e-4,0.012 -3.46e-4,0.018 2e-4,0.006 0.0016,0.0119 0.0034,0.0176 0.0013,0.004 0.0035,0.0127 0.0059,0.0232 0.0025,0.0105 0.0053,0.0232 0.0086,0.037 0.0064,0.0268 0.01493,0.0605 0.02634,0.0928 0.0057,0.0162 0.01288,0.0341 0.0218,0.0516 0.0085,0.0168 0.02116,0.0382 0.03935,0.0579 0.0094,0.0102 0.0215,0.0213 0.0367,0.0312 0.01543,0.01 0.0343,0.0189 0.05639,0.0238 0.0224,0.005 0.0452,0.005 0.06722,8.8e-4 0.02162,-0.004 0.04024,-0.0122 0.0556,-0.0213 0.01698,-0.0101 0.034,-0.021 0.04584,-0.0368 0.0059,-0.008 0.01049,-0.0168 0.01372,-0.0261 0.0032,-0.009 0.0051,-0.0191 0.0069,-0.0288 0.01814,-0.0999 0.02129,-0.19857 0.01924,-0.29201 -6.65e-4,-0.0302 -0.0019,-0.0601 -0.0034,-0.0895 -0.003,-0.059 -0.0074,-0.12042 -0.01122,-0.18183 -0.01,-0.54707 -0.05706,-1.09651 -0.119836,-1.64619 -0.07595,-0.67647 -0.141186,-1.15629 -0.185196,-1.73586 -0.05864,-0.77229 -0.03836,-1.30281 0.0081,-1.7229 a 0.1306361,0.1306361 90 0 0 -0.259692,-0.0287 z"
       id="path-1"
       inkscape:path-effect="#path-effect1399;#path-effect1401"
       inkscape:original-d="m -14.764301,148.26616 c -0.188164,1.70897 0.277324,3.39703 0.295411,5.10311 0.02496,0.23762 0.02809,0.91181 -0.109628,0.363 0.01121,-0.42108 0.02047,-0.84221 0.0021,-1.26464 0.01013,-1.38533 0.349559,-2.783 1.070792,-3.97305 0.490039,-0.3719 0.659363,0.49991 0.71894,0.82956 0.0456,0.52036 0.308117,1.2012 -0.08675,1.63553 -0.20892,0.27754 -0.728902,-0.008 -0.837761,0.0791 0.381314,0.34435 0.800647,0.66264 1.052567,1.12387 0.211964,0.32069 0.395636,0.65882 0.57726,0.99726"
       style="fill:#000000;fill-rule:nonzero;stroke:none;stroke-width:1.29519" />
  </g>
</svg>
