<?xml version="1.0" encoding="UTF-8" standalone="no"?>
<!-- Created with Inkscape (http://www.inkscape.org/) -->

<svg
   width="6mm"
   height="10mm"
   viewBox="0 0 6.0000001 9.9999994"
   version="1.1"
   id="svg1681"
   inkscape:version="1.2.1 (9c6d41e410, 2022-07-14)"
   sodipodi:docname="upper R 1.1.svg"
   inkscape:export-filename="..\..\..\..\Downloads\lower a diff canvas resize 3.0.png"
   inkscape:export-xdpi="96"
   inkscape:export-ydpi="96"
   xmlns:inkscape="http://www.inkscape.org/namespaces/inkscape"
   xmlns:sodipodi="http://sodipodi.sourceforge.net/DTD/sodipodi-0.dtd"
   xmlns="http://www.w3.org/2000/svg"
   xmlns:svg="http://www.w3.org/2000/svg"
   xmlns:rdf="http://www.w3.org/1999/02/22-rdf-syntax-ns#"
   xmlns:cc="http://creativecommons.org/ns#"
   xmlns:dc="http://purl.org/dc/elements/1.1/">
  <defs
     id="defs1675">
    <inkscape:path-effect
       effect="powerstroke"
       id="path-effect388"
       is_visible="true"
       lpeversion="1"
       offset_points="1.4987633,0.086602546 | 3.8634606,0.1067728 | 5.2668693,0.081976341 | 9.6457555,0.10584756 | 11.904742,0.088823123"
       not_jump="true"
       sort_points="true"
       interpolator_type="CentripetalCatmullRom"
       interpolator_beta="0.75"
       start_linecap_type="round"
       linejoin_type="spiro"
       miter_limit="4"
       scale_width="1"
       end_linecap_type="round" />
    <inkscape:path-effect
       effect="simplify"
       id="path-effect386"
       is_visible="true"
       lpeversion="1"
       steps="1"
       threshold="0.0035951417"
       smooth_angles="0"
       helper_size="0"
       simplify_individual_paths="false"
       simplify_just_coalesce="false"
       step="1" />
    <inkscape:path-effect
       effect="powerstroke"
       id="path-effect381"
       is_visible="true"
       lpeversion="1"
       offset_points="4.0204944,0.081629437"
       not_jump="true"
       sort_points="true"
       interpolator_type="CentripetalCatmullRom"
       interpolator_beta="0.75"
       start_linecap_type="round"
       linejoin_type="spiro"
       miter_limit="4"
       scale_width="1"
       end_linecap_type="round" />
    <inkscape:path-effect
       effect="simplify"
       id="path-effect379"
       is_visible="true"
       lpeversion="1"
       steps="1"
       threshold="0.0035951417"
       smooth_angles="0"
       helper_size="0"
       simplify_individual_paths="false"
       simplify_just_coalesce="false"
       step="1" />
    <inkscape:path-effect
       effect="powerstroke"
       id="path-effect502"
       is_visible="true"
       lpeversion="1"
       offset_points="3.0091841,0.21607495 | 7.3602657,0.17554228 | 9.4159651,0.20236537"
       not_jump="true"
       sort_points="true"
       interpolator_type="CentripetalCatmullRom"
       interpolator_beta="0.75"
       start_linecap_type="round"
       linejoin_type="spiro"
       miter_limit="4"
       scale_width="1"
       end_linecap_type="round" />
    <inkscape:path-effect
       effect="simplify"
       id="path-effect500"
       is_visible="true"
       lpeversion="1"
       steps="1"
       threshold="0.0035951417"
       smooth_angles="0"
       helper_size="0"
       simplify_individual_paths="false"
       simplify_just_coalesce="false"
       step="1" />
    <inkscape:path-effect
       effect="powerstroke"
       id="path-effect241"
       is_visible="true"
       lpeversion="1"
       offset_points="2.6879454,0.34086734"
       not_jump="true"
       sort_points="true"
       interpolator_type="CentripetalCatmullRom"
       interpolator_beta="0.75"
       start_linecap_type="round"
       linejoin_type="spiro"
       miter_limit="4"
       scale_width="1"
       end_linecap_type="round" />
    <inkscape:path-effect
       effect="simplify"
       id="path-effect239"
       is_visible="true"
       lpeversion="1"
       steps="1"
       threshold="0.0028332064"
       smooth_angles="0"
       helper_size="0"
       simplify_individual_paths="false"
       simplify_just_coalesce="false"
       step="1" />
    <inkscape:path-effect
       effect="powerstroke"
       id="path-effect234"
       is_visible="true"
       lpeversion="1"
       offset_points="2.13563,0.075169555"
       not_jump="true"
       sort_points="true"
       interpolator_type="CentripetalCatmullRom"
       interpolator_beta="0.75"
       start_linecap_type="round"
       linejoin_type="spiro"
       miter_limit="4"
       scale_width="1"
       end_linecap_type="round" />
    <inkscape:path-effect
       effect="simplify"
       id="path-effect232"
       is_visible="true"
       lpeversion="1"
       steps="1"
       threshold="0.0028332064"
       smooth_angles="0"
       helper_size="0"
       simplify_individual_paths="false"
       simplify_just_coalesce="false"
       step="1" />
    <inkscape:path-effect
       effect="powerstroke"
       id="path-effect227"
       is_visible="true"
       lpeversion="1"
       offset_points="2.1868266,0.075169555"
       not_jump="true"
       sort_points="true"
       interpolator_type="CentripetalCatmullRom"
       interpolator_beta="0.75"
       start_linecap_type="round"
       linejoin_type="spiro"
       miter_limit="4"
       scale_width="1"
       end_linecap_type="round" />
    <inkscape:path-effect
       effect="simplify"
       id="path-effect225"
       is_visible="true"
       lpeversion="1"
       steps="1"
       threshold="0.0028332064"
       smooth_angles="0"
       helper_size="0"
       simplify_individual_paths="false"
       simplify_just_coalesce="false"
       step="1" />
    <inkscape:path-effect
       effect="powerstroke"
       id="path-effect166"
       is_visible="true"
       lpeversion="1"
       offset_points="1.9637935,0.075169555"
       not_jump="true"
       sort_points="true"
       interpolator_type="CentripetalCatmullRom"
       interpolator_beta="0.75"
       start_linecap_type="round"
       linejoin_type="spiro"
       miter_limit="4"
       scale_width="1"
       end_linecap_type="round" />
    <inkscape:path-effect
       effect="simplify"
       id="path-effect164"
       is_visible="true"
       lpeversion="1"
       steps="1"
       threshold="0.0028332064"
       smooth_angles="0"
       helper_size="0"
       simplify_individual_paths="false"
       simplify_just_coalesce="false"
       step="1" />
    <inkscape:path-effect
       effect="powerstroke"
       id="path-effect159"
       is_visible="true"
       lpeversion="1"
       offset_points="2.2611036,0.075169555"
       not_jump="true"
       sort_points="true"
       interpolator_type="CentripetalCatmullRom"
       interpolator_beta="0.75"
       start_linecap_type="round"
       linejoin_type="spiro"
       miter_limit="4"
       scale_width="1"
       end_linecap_type="round" />
    <inkscape:path-effect
       effect="simplify"
       id="path-effect157"
       is_visible="true"
       lpeversion="1"
       steps="1"
       threshold="0.0028332064"
       smooth_angles="0"
       helper_size="0"
       simplify_individual_paths="false"
       simplify_just_coalesce="false"
       step="1" />
    <inkscape:path-effect
       effect="powerstroke"
       id="path-effect152"
       is_visible="true"
       lpeversion="1"
       offset_points="2.826981,0.075169555"
       not_jump="true"
       sort_points="true"
       interpolator_type="CentripetalCatmullRom"
       interpolator_beta="0.75"
       start_linecap_type="round"
       linejoin_type="spiro"
       miter_limit="4"
       scale_width="1"
       end_linecap_type="round" />
    <inkscape:path-effect
       effect="simplify"
       id="path-effect150"
       is_visible="true"
       lpeversion="1"
       steps="1"
       threshold="0.0028332064"
       smooth_angles="0"
       helper_size="0"
       simplify_individual_paths="false"
       simplify_just_coalesce="false"
       step="1" />
    <inkscape:path-effect
       effect="powerstroke"
       id="path-effect145"
       is_visible="true"
       lpeversion="1"
       offset_points="3.8374447,0.075169555"
       not_jump="true"
       sort_points="true"
       interpolator_type="CentripetalCatmullRom"
       interpolator_beta="0.75"
       start_linecap_type="round"
       linejoin_type="spiro"
       miter_limit="4"
       scale_width="1"
       end_linecap_type="round" />
    <inkscape:path-effect
       effect="simplify"
       id="path-effect143"
       is_visible="true"
       lpeversion="1"
       steps="1"
       threshold="0.0028332064"
       smooth_angles="0"
       helper_size="0"
       simplify_individual_paths="false"
       simplify_just_coalesce="false"
       step="1" />
    <inkscape:path-effect
       effect="powerstroke"
       id="path-effect138"
       is_visible="true"
       lpeversion="1"
       offset_points="2.6880907,0.075169555"
       not_jump="true"
       sort_points="true"
       interpolator_type="CentripetalCatmullRom"
       interpolator_beta="0.75"
       start_linecap_type="round"
       linejoin_type="spiro"
       miter_limit="4"
       scale_width="1"
       end_linecap_type="round" />
    <inkscape:path-effect
       effect="simplify"
       id="path-effect136"
       is_visible="true"
       lpeversion="1"
       steps="1"
       threshold="0.0028332064"
       smooth_angles="0"
       helper_size="0"
       simplify_individual_paths="false"
       simplify_just_coalesce="false"
       step="1" />
    <inkscape:path-effect
       effect="powerstroke"
       id="path-effect131"
       is_visible="true"
       lpeversion="1"
       offset_points="1.9940581,0.075169555"
       not_jump="true"
       sort_points="true"
       interpolator_type="CentripetalCatmullRom"
       interpolator_beta="0.75"
       start_linecap_type="round"
       linejoin_type="spiro"
       miter_limit="4"
       scale_width="1"
       end_linecap_type="round" />
    <inkscape:path-effect
       effect="simplify"
       id="path-effect129"
       is_visible="true"
       lpeversion="1"
       steps="1"
       threshold="0.0028332064"
       smooth_angles="0"
       helper_size="0"
       simplify_individual_paths="false"
       simplify_just_coalesce="false"
       step="1" />
  </defs>
  <sodipodi:namedview
     id="base"
     pagecolor="#ffffff"
     bordercolor="#666666"
     borderopacity="1.0"
     inkscape:pageopacity="0.0"
     inkscape:pageshadow="2"
     inkscape:zoom="7.919596"
     inkscape:cx="-5.3033008"
     inkscape:cy="20.834396"
     inkscape:document-units="mm"
     inkscape:current-layer="layer1"
     showgrid="false"
     fit-margin-top="0"
     fit-margin-left="0"
     fit-margin-right="0"
     fit-margin-bottom="0"
     inkscape:window-width="1280"
     inkscape:window-height="649"
     inkscape:window-x="-8"
     inkscape:window-y="1912"
     inkscape:window-maximized="1"
     showguides="true"
     inkscape:guide-bbox="true"
     inkscape:snap-bbox="true"
     inkscape:bbox-nodes="true"
     inkscape:snap-nodes="false"
     inkscape:snap-others="false"
     inkscape:snap-page="true"
     inkscape:snap-grids="false"
     inkscape:snap-to-guides="false"
     inkscape:snap-global="false"
     inkscape:pagecheckerboard="0"
     inkscape:showpageshadow="2"
     inkscape:deskcolor="#d1d1d1">
    <sodipodi:guide
       position="-6.1806075,9.4988692"
       orientation="0,1"
       id="guide816"
       inkscape:locked="false" />
    <sodipodi:guide
       position="-4.4101636,10.646923"
       orientation="0,1"
       id="guide818"
       inkscape:locked="false" />
    <sodipodi:guide
       position="2.7595724,11.09577"
       orientation="1,0"
       id="guide820"
       inkscape:locked="false" />
    <sodipodi:guide
       position="3.6572659,10.942217"
       orientation="1,0"
       id="guide822"
       inkscape:locked="false" />
    <sodipodi:guide
       position="-0.051625511,9.7492299"
       orientation="1,0"
       id="guide1853"
       inkscape:locked="false" />
    <sodipodi:guide
       position="-2.3720169,3.0175835"
       orientation="0,1"
       id="guide1855"
       inkscape:locked="false" />
  </sodipodi:namedview>
  <metadata
     id="metadata1678">
    <rdf:RDF>
      <cc:Work
         rdf:about="">
        <dc:format>image/svg+xml</dc:format>
        <dc:type
           rdf:resource="http://purl.org/dc/dcmitype/StillImage" />
      </cc:Work>
    </rdf:RDF>
  </metadata>
  <g
     inkscape:label="Layer 1"
     inkscape:groupmode="layer"
     id="layer1"
     transform="translate(17.028496,-147.22856)">
    <path
       d="m -14.278697,148.84727 c -0.02293,1.03656 -0.09649,2.92701 -0.427153,5.19605 l 0.170217,0.0141 c 0.0071,-0.34198 0.01874,-0.68794 0.0301,-1.01262 0.01054,-0.30123 0.02461,-0.67389 0.03409,-1.01954 0.01986,-0.38208 0.04283,-0.7887 0.09703,-1.18574 0.05376,-0.39385 0.137654,-0.77568 0.27785,-1.13989 0.01721,-0.0545 0.03919,-0.10006 0.06672,-0.14181 0.02855,-0.0433 0.06233,-0.0814 0.09898,-0.11284 0.03883,-0.0333 0.0799,-0.0582 0.121116,-0.0749 0.01978,-0.008 0.03954,-0.0142 0.05915,-0.0185 0.02506,-0.006 0.04977,-0.008 0.074,-0.008 0.02943,-1.1e-4 0.05744,0.006 0.08377,0.0149 0.02895,0.0102 0.0579,0.0256 0.0873,0.0453 0.05981,0.0402 0.107811,0.0873 0.179413,0.15552 0.06343,0.0683 0.129504,0.15116 0.19154,0.24714 0.135055,0.20894 0.254434,0.48619 0.296559,0.81355 0.0082,0.0973 -0.0025,0.2022 -0.03262,0.30558 -0.02881,0.0989 -0.07511,0.19531 -0.137388,0.28252 -0.06024,0.0844 -0.134888,0.15931 -0.221139,0.21817 -0.08415,0.0574 -0.178926,0.0993 -0.281513,0.11965 -0.01803,0.005 -0.0298,0.006 -0.04874,0.006 -0.01795,-7e-5 -0.04026,-0.001 -0.06614,-0.001 -0.02492,8e-5 -0.05631,0.002 -0.08851,0.0109 -0.01652,0.005 -0.03356,0.0116 -0.05035,0.0214 -0.01693,0.01 -0.03277,0.0224 -0.04712,0.0377 -0.008,0.009 -0.01565,0.0178 -0.01984,0.0288 -0.0042,0.011 -0.0049,0.0229 -0.0053,0.0346 -8.08e-4,0.0245 0.0026,0.0483 0.01016,0.0708 0.0076,0.0226 0.0189,0.0423 0.03205,0.0591 0.02596,0.0333 0.05919,0.0556 0.08729,0.0709 0.02896,0.0158 0.05968,0.028 0.08332,0.0371 0.02727,0.0106 0.04488,0.0171 0.05854,0.024 0.139631,0.0745 0.252022,0.18615 0.341444,0.30481 0.02868,0.0381 0.05514,0.077 0.07957,0.11605 0.05978,0.0954 0.112491,0.19926 0.160497,0.30868 0.129084,0.28753 0.220169,0.58013 0.285029,0.86461 0.04086,0.16268 0.07706,0.32436 0.08602,0.3674 0.0044,0.0213 0.0065,0.0328 0.0077,0.039 a 0.08882312,0.08882312 90 0 0 0.174272,-0.0345 c -0.0013,-0.007 -0.0037,-0.0175 -0.0078,-0.0392 -0.01009,-0.0532 -0.03398,-0.19798 -0.07004,-0.37501 -0.0609,-0.29473 -0.150672,-0.60345 -0.283229,-0.9065 -0.04966,-0.116 -0.10649,-0.23007 -0.172985,-0.33672 -0.02723,-0.0437 -0.0572,-0.0879 -0.09015,-0.13144 -0.102401,-0.13538 -0.237968,-0.27051 -0.418186,-0.36411 -0.02926,-0.0132 -0.05781,-0.0226 -0.08025,-0.0302 -0.02395,-0.008 -0.04358,-0.0152 -0.06022,-0.0232 -0.01691,-0.008 -0.02305,-0.0134 -0.02642,-0.0161 -0.0015,2.1e-4 -0.0021,8.7e-4 -0.0024,-0.002 l -0.02518,0.0635 c 0.0012,-0.002 0.0023,-0.003 0.0034,-0.004 0.0013,-0.001 0.0031,-0.002 0.0065,-0.004 0.0074,-0.003 0.019,-0.005 0.03793,-0.007 0.01815,-0.001 0.04089,-0.001 0.06677,-0.003 0.02542,-0.002 0.05636,-0.005 0.08746,-0.0157 0.118071,-0.0244 0.234054,-0.0777 0.335056,-0.14827 0.103384,-0.0723 0.191225,-0.16276 0.261207,-0.26287 0.07236,-0.10351 0.125847,-0.21754 0.158875,-0.33456 0.03455,-0.12241 0.04666,-0.24772 0.03554,-0.36945 -0.04833,-0.35721 -0.177554,-0.65623 -0.321508,-0.88384 -0.06619,-0.10467 -0.136444,-0.19617 -0.206507,-0.27535 -0.06406,-0.0692 -0.117468,-0.13387 -0.186377,-0.19148 -0.03565,-0.0298 -0.07694,-0.0587 -0.124643,-0.0806 -0.04418,-0.0203 -0.09697,-0.0361 -0.158107,-0.0386 -0.04117,-0.001 -0.08196,0.002 -0.122999,0.0109 -0.03205,0.007 -0.06376,0.0163 -0.09486,0.0288 -0.06476,0.026 -0.125859,0.0643 -0.180868,0.11266 -0.05185,0.0456 -0.09794,0.1 -0.135856,0.16053 -0.03653,0.0583 -0.06553,0.12256 -0.08425,0.18969 -0.141639,0.37699 -0.22437,0.77597 -0.275262,1.17998 -0.0512,0.40648 -0.07018,0.82084 -0.08658,1.2046 -0.0059,0.35344 -0.01642,0.71198 -0.02591,1.02013 -0.01,0.32472 -0.02105,0.67147 -0.02808,1.01478 -5.6e-4,0.0274 -2.45e-4,0.0558 0.01168,0.0804 0.006,0.0123 0.01467,0.0234 0.02567,0.0315 0.011,0.008 0.02425,0.0132 0.03789,0.0144 0.01363,0.001 0.02754,-0.002 0.03973,-0.008 0.01219,-0.006 0.0226,-0.0157 0.03051,-0.0268 0.01581,-0.0223 0.0208,-0.0503 0.02474,-0.0774 0.331705,-2.27868 0.407957,-4.17628 0.430973,-5.21687 a 0.08660255,0.08660255 90 0 0 -0.173162,-0.004 z"
       id="path-1"
       inkscape:path-effect="#path-effect386;#path-effect388"
       inkscape:original-d="m -14.192116,148.84919 c -0.03853,1.74196 -0.177915,3.48211 -0.429063,5.20646 0.01252,-0.65852 0.04449,-1.31653 0.05635,-1.97515 0.03826,-0.81358 0.08006,-1.6485 0.372371,-2.41729 0.08921,-0.31519 0.471687,-0.57884 0.759929,-0.32285 0.34399,0.28612 0.569203,0.71139 0.657068,1.14747 0.117182,0.51388 -0.247369,1.08631 -0.778916,1.15511 -0.304946,-0.0134 -0.196687,0.14351 0.01223,0.19739 0.442005,0.22104 0.638316,0.7214 0.797881,1.15916 0.09926,0.30344 0.164483,0.61657 0.226335,0.92935"
       style="fill:#000000;fill-rule:nonzero;stroke:none;stroke-width:1.26041" />
  </g>
</svg>
