<?xml version="1.0" encoding="UTF-8" standalone="no"?>
<!-- Created with Inkscape (http://www.inkscape.org/) -->

<svg
   width="6mm"
   height="10mm"
   viewBox="0 0 6.0000001 9.9999994"
   version="1.1"
   id="svg1681"
   inkscape:version="1.2.1 (9c6d41e410, 2022-07-14)"
   sodipodi:docname="number nine 1.1.svg"
   inkscape:export-filename="..\..\..\..\Downloads\lower a diff canvas resize 3.0.png"
   inkscape:export-xdpi="96"
   inkscape:export-ydpi="96"
   xmlns:inkscape="http://www.inkscape.org/namespaces/inkscape"
   xmlns:sodipodi="http://sodipodi.sourceforge.net/DTD/sodipodi-0.dtd"
   xmlns="http://www.w3.org/2000/svg"
   xmlns:svg="http://www.w3.org/2000/svg"
   xmlns:rdf="http://www.w3.org/1999/02/22-rdf-syntax-ns#"
   xmlns:cc="http://creativecommons.org/ns#"
   xmlns:dc="http://purl.org/dc/elements/1.1/">
  <defs
     id="defs1675">
    <inkscape:path-effect
       effect="powerstroke"
       id="path-effect1311"
       is_visible="true"
       lpeversion="1"
       offset_points="1.6852059,0.10996998"
       not_jump="true"
       sort_points="true"
       interpolator_type="CentripetalCatmullRom"
       interpolator_beta="0.75"
       start_linecap_type="round"
       linejoin_type="spiro"
       miter_limit="4"
       scale_width="1"
       end_linecap_type="round" />
    <inkscape:path-effect
       effect="simplify"
       id="path-effect1309"
       is_visible="true"
       lpeversion="1"
       steps="1"
       threshold="0.0035951417"
       smooth_angles="0"
       helper_size="0"
       simplify_individual_paths="false"
       simplify_just_coalesce="false"
       step="1" />
    <inkscape:path-effect
       effect="powerstroke"
       id="path-effect502"
       is_visible="true"
       lpeversion="1"
       offset_points="3.0091841,0.21607495 | 7.3602657,0.17554228 | 9.4159651,0.20236537"
       not_jump="true"
       sort_points="true"
       interpolator_type="CentripetalCatmullRom"
       interpolator_beta="0.75"
       start_linecap_type="round"
       linejoin_type="spiro"
       miter_limit="4"
       scale_width="1"
       end_linecap_type="round" />
    <inkscape:path-effect
       effect="simplify"
       id="path-effect500"
       is_visible="true"
       lpeversion="1"
       steps="1"
       threshold="0.0035951417"
       smooth_angles="0"
       helper_size="0"
       simplify_individual_paths="false"
       simplify_just_coalesce="false"
       step="1" />
    <inkscape:path-effect
       effect="powerstroke"
       id="path-effect241"
       is_visible="true"
       lpeversion="1"
       offset_points="2.6879454,0.34086734"
       not_jump="true"
       sort_points="true"
       interpolator_type="CentripetalCatmullRom"
       interpolator_beta="0.75"
       start_linecap_type="round"
       linejoin_type="spiro"
       miter_limit="4"
       scale_width="1"
       end_linecap_type="round" />
    <inkscape:path-effect
       effect="simplify"
       id="path-effect239"
       is_visible="true"
       lpeversion="1"
       steps="1"
       threshold="0.0028332064"
       smooth_angles="0"
       helper_size="0"
       simplify_individual_paths="false"
       simplify_just_coalesce="false"
       step="1" />
    <inkscape:path-effect
       effect="powerstroke"
       id="path-effect234"
       is_visible="true"
       lpeversion="1"
       offset_points="2.13563,0.075169555"
       not_jump="true"
       sort_points="true"
       interpolator_type="CentripetalCatmullRom"
       interpolator_beta="0.75"
       start_linecap_type="round"
       linejoin_type="spiro"
       miter_limit="4"
       scale_width="1"
       end_linecap_type="round" />
    <inkscape:path-effect
       effect="simplify"
       id="path-effect232"
       is_visible="true"
       lpeversion="1"
       steps="1"
       threshold="0.0028332064"
       smooth_angles="0"
       helper_size="0"
       simplify_individual_paths="false"
       simplify_just_coalesce="false"
       step="1" />
    <inkscape:path-effect
       effect="powerstroke"
       id="path-effect227"
       is_visible="true"
       lpeversion="1"
       offset_points="2.1868266,0.075169555"
       not_jump="true"
       sort_points="true"
       interpolator_type="CentripetalCatmullRom"
       interpolator_beta="0.75"
       start_linecap_type="round"
       linejoin_type="spiro"
       miter_limit="4"
       scale_width="1"
       end_linecap_type="round" />
    <inkscape:path-effect
       effect="simplify"
       id="path-effect225"
       is_visible="true"
       lpeversion="1"
       steps="1"
       threshold="0.0028332064"
       smooth_angles="0"
       helper_size="0"
       simplify_individual_paths="false"
       simplify_just_coalesce="false"
       step="1" />
    <inkscape:path-effect
       effect="powerstroke"
       id="path-effect166"
       is_visible="true"
       lpeversion="1"
       offset_points="1.9637935,0.075169555"
       not_jump="true"
       sort_points="true"
       interpolator_type="CentripetalCatmullRom"
       interpolator_beta="0.75"
       start_linecap_type="round"
       linejoin_type="spiro"
       miter_limit="4"
       scale_width="1"
       end_linecap_type="round" />
    <inkscape:path-effect
       effect="simplify"
       id="path-effect164"
       is_visible="true"
       lpeversion="1"
       steps="1"
       threshold="0.0028332064"
       smooth_angles="0"
       helper_size="0"
       simplify_individual_paths="false"
       simplify_just_coalesce="false"
       step="1" />
    <inkscape:path-effect
       effect="powerstroke"
       id="path-effect159"
       is_visible="true"
       lpeversion="1"
       offset_points="2.2611036,0.075169555"
       not_jump="true"
       sort_points="true"
       interpolator_type="CentripetalCatmullRom"
       interpolator_beta="0.75"
       start_linecap_type="round"
       linejoin_type="spiro"
       miter_limit="4"
       scale_width="1"
       end_linecap_type="round" />
    <inkscape:path-effect
       effect="simplify"
       id="path-effect157"
       is_visible="true"
       lpeversion="1"
       steps="1"
       threshold="0.0028332064"
       smooth_angles="0"
       helper_size="0"
       simplify_individual_paths="false"
       simplify_just_coalesce="false"
       step="1" />
    <inkscape:path-effect
       effect="powerstroke"
       id="path-effect152"
       is_visible="true"
       lpeversion="1"
       offset_points="2.826981,0.075169555"
       not_jump="true"
       sort_points="true"
       interpolator_type="CentripetalCatmullRom"
       interpolator_beta="0.75"
       start_linecap_type="round"
       linejoin_type="spiro"
       miter_limit="4"
       scale_width="1"
       end_linecap_type="round" />
    <inkscape:path-effect
       effect="simplify"
       id="path-effect150"
       is_visible="true"
       lpeversion="1"
       steps="1"
       threshold="0.0028332064"
       smooth_angles="0"
       helper_size="0"
       simplify_individual_paths="false"
       simplify_just_coalesce="false"
       step="1" />
    <inkscape:path-effect
       effect="powerstroke"
       id="path-effect145"
       is_visible="true"
       lpeversion="1"
       offset_points="3.8374447,0.075169555"
       not_jump="true"
       sort_points="true"
       interpolator_type="CentripetalCatmullRom"
       interpolator_beta="0.75"
       start_linecap_type="round"
       linejoin_type="spiro"
       miter_limit="4"
       scale_width="1"
       end_linecap_type="round" />
    <inkscape:path-effect
       effect="simplify"
       id="path-effect143"
       is_visible="true"
       lpeversion="1"
       steps="1"
       threshold="0.0028332064"
       smooth_angles="0"
       helper_size="0"
       simplify_individual_paths="false"
       simplify_just_coalesce="false"
       step="1" />
    <inkscape:path-effect
       effect="powerstroke"
       id="path-effect138"
       is_visible="true"
       lpeversion="1"
       offset_points="2.6880907,0.075169555"
       not_jump="true"
       sort_points="true"
       interpolator_type="CentripetalCatmullRom"
       interpolator_beta="0.75"
       start_linecap_type="round"
       linejoin_type="spiro"
       miter_limit="4"
       scale_width="1"
       end_linecap_type="round" />
    <inkscape:path-effect
       effect="simplify"
       id="path-effect136"
       is_visible="true"
       lpeversion="1"
       steps="1"
       threshold="0.0028332064"
       smooth_angles="0"
       helper_size="0"
       simplify_individual_paths="false"
       simplify_just_coalesce="false"
       step="1" />
    <inkscape:path-effect
       effect="powerstroke"
       id="path-effect131"
       is_visible="true"
       lpeversion="1"
       offset_points="1.9940581,0.075169555"
       not_jump="true"
       sort_points="true"
       interpolator_type="CentripetalCatmullRom"
       interpolator_beta="0.75"
       start_linecap_type="round"
       linejoin_type="spiro"
       miter_limit="4"
       scale_width="1"
       end_linecap_type="round" />
    <inkscape:path-effect
       effect="simplify"
       id="path-effect129"
       is_visible="true"
       lpeversion="1"
       steps="1"
       threshold="0.0028332064"
       smooth_angles="0"
       helper_size="0"
       simplify_individual_paths="false"
       simplify_just_coalesce="false"
       step="1" />
  </defs>
  <sodipodi:namedview
     id="base"
     pagecolor="#ffffff"
     bordercolor="#666666"
     borderopacity="1.0"
     inkscape:pageopacity="0.0"
     inkscape:pageshadow="2"
     inkscape:zoom="7.919596"
     inkscape:cx="-5.3033008"
     inkscape:cy="20.834396"
     inkscape:document-units="mm"
     inkscape:current-layer="layer1"
     showgrid="false"
     fit-margin-top="0"
     fit-margin-left="0"
     fit-margin-right="0"
     fit-margin-bottom="0"
     inkscape:window-width="1920"
     inkscape:window-height="974"
     inkscape:window-x="-11"
     inkscape:window-y="2869"
     inkscape:window-maximized="1"
     showguides="true"
     inkscape:guide-bbox="true"
     inkscape:snap-bbox="true"
     inkscape:bbox-nodes="true"
     inkscape:snap-nodes="false"
     inkscape:snap-others="false"
     inkscape:snap-page="true"
     inkscape:snap-grids="false"
     inkscape:snap-to-guides="false"
     inkscape:snap-global="false"
     inkscape:pagecheckerboard="0"
     inkscape:showpageshadow="2"
     inkscape:deskcolor="#d1d1d1">
    <sodipodi:guide
       position="-6.1806075,9.4988692"
       orientation="0,1"
       id="guide816"
       inkscape:locked="false" />
    <sodipodi:guide
       position="-4.4101636,10.646923"
       orientation="0,1"
       id="guide818"
       inkscape:locked="false" />
    <sodipodi:guide
       position="2.7595724,11.09577"
       orientation="1,0"
       id="guide820"
       inkscape:locked="false" />
    <sodipodi:guide
       position="3.6572659,10.942217"
       orientation="1,0"
       id="guide822"
       inkscape:locked="false" />
    <sodipodi:guide
       position="-0.051625511,9.7492299"
       orientation="1,0"
       id="guide1853"
       inkscape:locked="false" />
    <sodipodi:guide
       position="-2.3720169,3.0175835"
       orientation="0,1"
       id="guide1855"
       inkscape:locked="false" />
  </sodipodi:namedview>
  <metadata
     id="metadata1678">
    <rdf:RDF>
      <cc:Work
         rdf:about="">
        <dc:format>image/svg+xml</dc:format>
        <dc:type
           rdf:resource="http://purl.org/dc/dcmitype/StillImage" />
      </cc:Work>
    </rdf:RDF>
  </metadata>
  <g
     inkscape:label="Layer 1"
     inkscape:groupmode="layer"
     id="layer1"
     transform="translate(17.028496,-147.22856)">
    <path
       d="m -13.428389,149.46926 c -0.196481,-0.0121 -0.493591,0.0104 -0.820292,0.16588 -0.222482,0.1059 -0.458653,0.27391 -0.655042,0.51473 -0.143512,0.17268 -0.268467,0.39032 -0.341628,0.64013 -0.02496,0.0852 -0.04384,0.17418 -0.05507,0.26584 -0.01653,0.13507 -0.01812,0.29026 0.01178,0.45559 0.0049,0.11927 0.04102,0.24577 0.115304,0.36318 0.06514,0.10297 0.16018,0.19892 0.282736,0.26501 0.122432,0.0691 0.264515,0.11146 0.414835,0.12272 0.137618,0.0103 0.281457,-0.006 0.419779,-0.0496 0.151249,-0.0279 0.291246,-0.0941 0.413457,-0.1875 0.119791,-0.0915 0.222031,-0.20883 0.299924,-0.33978 0.167511,-0.27635 0.256971,-0.59017 0.315184,-0.90198 6.74e-4,-0.004 0.0012,-0.007 0.0015,-0.0109 0.02369,-0.28004 0.01621,-0.57375 -0.06779,-0.85313 -0.01163,-0.0357 -0.02485,-0.0712 -0.04127,-0.10645 -0.01653,-0.0355 -0.03674,-0.0717 -0.06176,-0.10541 -0.02542,-0.0342 -0.05627,-0.0666 -0.09411,-0.093 -0.03878,-0.027 -0.08357,-0.0468 -0.134278,-0.0558 -0.0047,-8.4e-4 -0.0095,-0.001 -0.01434,-0.002 -0.01237,-5.6e-4 -0.02588,2.4e-4 -0.03992,0.003 -0.01427,0.003 -0.02841,0.009 -0.04175,0.0166 -0.0134,0.008 -0.02462,0.018 -0.03378,0.0287 -0.0091,0.0107 -0.01572,0.0217 -0.02058,0.0319 -0.0095,0.02 -0.0134,0.0394 -0.01528,0.0537 -0.002,0.0149 -0.0023,0.0293 -0.0022,0.041 2.55e-4,0.0249 0.0023,0.0456 0.0029,0.0606 3.63e-4,0.008 3.92e-4,0.0132 2.37e-4,0.0167 -1.73e-4,0.004 -4.65e-4,0.002 7.77e-4,-0.002 l -0.004,0.0285 c -0.0014,0.20525 0.01432,0.41428 0.02727,0.59717 0.01506,0.21252 0.02674,0.39393 0.02334,0.57897 0.03819,1.26342 0.234776,2.40728 0.368059,3.09615 a 0.10996998,0.10996998 90 0 0 0.215936,-0.0418 c -0.132455,-0.68459 -0.326496,-1.81504 -0.364125,-3.05568 0.0036,-0.1907 -0.0088,-0.38114 -0.02382,-0.5932 -0.01288,-0.18183 -0.0275,-0.37766 -0.02679,-0.56917 0.0019,-0.0108 0.0027,-0.0208 0.003,-0.0292 5.77e-4,-0.013 2.43e-4,-0.0257 -2.49e-4,-0.0365 -9.92e-4,-0.0218 -0.0026,-0.0409 -0.0027,-0.0528 -6e-5,-0.006 2.74e-4,-0.01 3.19e-4,-0.0102 4.6e-5,-3.4e-4 9.3e-5,0.003 -0.0041,0.0121 -0.0021,0.004 -0.0054,0.0101 -0.01058,0.0162 -0.0053,0.006 -0.01198,0.0121 -0.02018,0.0171 -0.0082,0.005 -0.01644,0.008 -0.02407,0.01 -0.0074,0.002 -0.01355,0.002 -0.01769,0.002 -0.0048,-2.2e-4 -0.0096,-7.5e-4 -0.01434,-0.002 0.01737,0.003 0.03268,0.01 0.04707,0.0197 0.01457,0.0101 0.02908,0.0245 0.0433,0.0436 0.01409,0.019 0.02707,0.0416 0.03897,0.0671 0.01176,0.0252 0.0219,0.0522 0.03082,0.0795 0.07177,0.23884 0.08076,0.50013 0.05893,0.76327 -0.05599,0.29795 -0.139057,0.58041 -0.28652,0.82369 -0.06493,0.10915 -0.1488,0.20481 -0.244898,0.27823 -0.09912,0.0757 -0.209856,0.12672 -0.32563,0.14702 -0.0051,9e-4 -0.01013,0.002 -0.01506,0.004 -0.113037,0.0368 -0.230806,0.0501 -0.342593,0.0417 -0.119769,-0.009 -0.230292,-0.0425 -0.324998,-0.0959 -0.08813,-0.0476 -0.156227,-0.1159 -0.203131,-0.19004 -0.05417,-0.0856 -0.07928,-0.17759 -0.08163,-0.26062 -1.62e-4,-0.006 -7.73e-4,-0.0115 -0.0018,-0.0171 -0.0267,-0.14287 -0.02572,-0.27803 -0.01119,-0.39675 0.0097,-0.0792 0.02605,-0.15639 0.04783,-0.23074 0.06397,-0.21843 0.173627,-0.40968 0.300354,-0.56216 0.174341,-0.21378 0.383516,-0.36252 0.579771,-0.45593 0.290204,-0.13814 0.545092,-0.1552 0.712295,-0.14495 a 0.10996998,0.10996998 90 0 0 0.01347,-0.21952 z"
       id="path-1"
       inkscape:path-effect="#path-effect1309;#path-effect1311"
       inkscape:original-d="m -13.435123,149.57902 c -1.001168,-0.0591 -1.92493,0.9177 -1.743891,1.92049 0.02803,0.53875 0.622739,0.76179 1.081746,0.60904 0.625298,-0.11112 0.852734,-0.78607 0.95998,-1.32925 0.03885,-0.33382 0.0094,-1.10937 -0.338872,-1.11496 -0.03101,0.43234 0.05069,0.87569 0.04267,1.31349 0.02905,1.04451 0.168788,2.08493 0.367143,3.10996"
       style="fill:#000000;fill-rule:nonzero;stroke:none;stroke-width:1.17403" />
  </g>
</svg>
