<?xml version="1.0" encoding="UTF-8" standalone="no"?>
<!-- Created with Inkscape (http://www.inkscape.org/) -->

<svg
   width="6mm"
   height="10mm"
   viewBox="0 0 6.0000001 9.9999994"
   version="1.1"
   id="svg1681"
   inkscape:version="1.2.1 (9c6d41e410, 2022-07-14)"
   sodipodi:docname="number nine 1.4.svg"
   inkscape:export-filename="..\..\..\..\Downloads\lower a diff canvas resize 3.0.png"
   inkscape:export-xdpi="96"
   inkscape:export-ydpi="96"
   xmlns:inkscape="http://www.inkscape.org/namespaces/inkscape"
   xmlns:sodipodi="http://sodipodi.sourceforge.net/DTD/sodipodi-0.dtd"
   xmlns="http://www.w3.org/2000/svg"
   xmlns:svg="http://www.w3.org/2000/svg"
   xmlns:rdf="http://www.w3.org/1999/02/22-rdf-syntax-ns#"
   xmlns:cc="http://creativecommons.org/ns#"
   xmlns:dc="http://purl.org/dc/elements/1.1/">
  <defs
     id="defs1675">
    <inkscape:path-effect
       effect="powerstroke"
       id="path-effect756"
       is_visible="true"
       lpeversion="1"
       offset_points="3.2309902,0.10809488 | 8.2691135,0.12488632 | 13.320889,0.10914435"
       not_jump="true"
       sort_points="true"
       interpolator_type="CentripetalCatmullRom"
       interpolator_beta="0.75"
       start_linecap_type="round"
       linejoin_type="spiro"
       miter_limit="4"
       scale_width="1"
       end_linecap_type="round" />
    <inkscape:path-effect
       effect="simplify"
       id="path-effect754"
       is_visible="true"
       lpeversion="1"
       steps="1"
       threshold="0.0035951417"
       smooth_angles="0"
       helper_size="0"
       simplify_individual_paths="false"
       simplify_just_coalesce="false"
       step="1" />
    <inkscape:path-effect
       effect="powerstroke"
       id="path-effect502"
       is_visible="true"
       lpeversion="1"
       offset_points="3.0091841,0.21607495 | 7.3602657,0.17554228 | 9.4159651,0.20236537"
       not_jump="true"
       sort_points="true"
       interpolator_type="CentripetalCatmullRom"
       interpolator_beta="0.75"
       start_linecap_type="round"
       linejoin_type="spiro"
       miter_limit="4"
       scale_width="1"
       end_linecap_type="round" />
    <inkscape:path-effect
       effect="simplify"
       id="path-effect500"
       is_visible="true"
       lpeversion="1"
       steps="1"
       threshold="0.0035951417"
       smooth_angles="0"
       helper_size="0"
       simplify_individual_paths="false"
       simplify_just_coalesce="false"
       step="1" />
    <inkscape:path-effect
       effect="powerstroke"
       id="path-effect241"
       is_visible="true"
       lpeversion="1"
       offset_points="2.6879454,0.34086734"
       not_jump="true"
       sort_points="true"
       interpolator_type="CentripetalCatmullRom"
       interpolator_beta="0.75"
       start_linecap_type="round"
       linejoin_type="spiro"
       miter_limit="4"
       scale_width="1"
       end_linecap_type="round" />
    <inkscape:path-effect
       effect="simplify"
       id="path-effect239"
       is_visible="true"
       lpeversion="1"
       steps="1"
       threshold="0.0028332064"
       smooth_angles="0"
       helper_size="0"
       simplify_individual_paths="false"
       simplify_just_coalesce="false"
       step="1" />
    <inkscape:path-effect
       effect="powerstroke"
       id="path-effect234"
       is_visible="true"
       lpeversion="1"
       offset_points="2.13563,0.075169555"
       not_jump="true"
       sort_points="true"
       interpolator_type="CentripetalCatmullRom"
       interpolator_beta="0.75"
       start_linecap_type="round"
       linejoin_type="spiro"
       miter_limit="4"
       scale_width="1"
       end_linecap_type="round" />
    <inkscape:path-effect
       effect="simplify"
       id="path-effect232"
       is_visible="true"
       lpeversion="1"
       steps="1"
       threshold="0.0028332064"
       smooth_angles="0"
       helper_size="0"
       simplify_individual_paths="false"
       simplify_just_coalesce="false"
       step="1" />
    <inkscape:path-effect
       effect="powerstroke"
       id="path-effect227"
       is_visible="true"
       lpeversion="1"
       offset_points="2.1868266,0.075169555"
       not_jump="true"
       sort_points="true"
       interpolator_type="CentripetalCatmullRom"
       interpolator_beta="0.75"
       start_linecap_type="round"
       linejoin_type="spiro"
       miter_limit="4"
       scale_width="1"
       end_linecap_type="round" />
    <inkscape:path-effect
       effect="simplify"
       id="path-effect225"
       is_visible="true"
       lpeversion="1"
       steps="1"
       threshold="0.0028332064"
       smooth_angles="0"
       helper_size="0"
       simplify_individual_paths="false"
       simplify_just_coalesce="false"
       step="1" />
    <inkscape:path-effect
       effect="powerstroke"
       id="path-effect166"
       is_visible="true"
       lpeversion="1"
       offset_points="1.9637935,0.075169555"
       not_jump="true"
       sort_points="true"
       interpolator_type="CentripetalCatmullRom"
       interpolator_beta="0.75"
       start_linecap_type="round"
       linejoin_type="spiro"
       miter_limit="4"
       scale_width="1"
       end_linecap_type="round" />
    <inkscape:path-effect
       effect="simplify"
       id="path-effect164"
       is_visible="true"
       lpeversion="1"
       steps="1"
       threshold="0.0028332064"
       smooth_angles="0"
       helper_size="0"
       simplify_individual_paths="false"
       simplify_just_coalesce="false"
       step="1" />
    <inkscape:path-effect
       effect="powerstroke"
       id="path-effect159"
       is_visible="true"
       lpeversion="1"
       offset_points="2.2611036,0.075169555"
       not_jump="true"
       sort_points="true"
       interpolator_type="CentripetalCatmullRom"
       interpolator_beta="0.75"
       start_linecap_type="round"
       linejoin_type="spiro"
       miter_limit="4"
       scale_width="1"
       end_linecap_type="round" />
    <inkscape:path-effect
       effect="simplify"
       id="path-effect157"
       is_visible="true"
       lpeversion="1"
       steps="1"
       threshold="0.0028332064"
       smooth_angles="0"
       helper_size="0"
       simplify_individual_paths="false"
       simplify_just_coalesce="false"
       step="1" />
    <inkscape:path-effect
       effect="powerstroke"
       id="path-effect152"
       is_visible="true"
       lpeversion="1"
       offset_points="2.826981,0.075169555"
       not_jump="true"
       sort_points="true"
       interpolator_type="CentripetalCatmullRom"
       interpolator_beta="0.75"
       start_linecap_type="round"
       linejoin_type="spiro"
       miter_limit="4"
       scale_width="1"
       end_linecap_type="round" />
    <inkscape:path-effect
       effect="simplify"
       id="path-effect150"
       is_visible="true"
       lpeversion="1"
       steps="1"
       threshold="0.0028332064"
       smooth_angles="0"
       helper_size="0"
       simplify_individual_paths="false"
       simplify_just_coalesce="false"
       step="1" />
    <inkscape:path-effect
       effect="powerstroke"
       id="path-effect145"
       is_visible="true"
       lpeversion="1"
       offset_points="3.8374447,0.075169555"
       not_jump="true"
       sort_points="true"
       interpolator_type="CentripetalCatmullRom"
       interpolator_beta="0.75"
       start_linecap_type="round"
       linejoin_type="spiro"
       miter_limit="4"
       scale_width="1"
       end_linecap_type="round" />
    <inkscape:path-effect
       effect="simplify"
       id="path-effect143"
       is_visible="true"
       lpeversion="1"
       steps="1"
       threshold="0.0028332064"
       smooth_angles="0"
       helper_size="0"
       simplify_individual_paths="false"
       simplify_just_coalesce="false"
       step="1" />
    <inkscape:path-effect
       effect="powerstroke"
       id="path-effect138"
       is_visible="true"
       lpeversion="1"
       offset_points="2.6880907,0.075169555"
       not_jump="true"
       sort_points="true"
       interpolator_type="CentripetalCatmullRom"
       interpolator_beta="0.75"
       start_linecap_type="round"
       linejoin_type="spiro"
       miter_limit="4"
       scale_width="1"
       end_linecap_type="round" />
    <inkscape:path-effect
       effect="simplify"
       id="path-effect136"
       is_visible="true"
       lpeversion="1"
       steps="1"
       threshold="0.0028332064"
       smooth_angles="0"
       helper_size="0"
       simplify_individual_paths="false"
       simplify_just_coalesce="false"
       step="1" />
    <inkscape:path-effect
       effect="powerstroke"
       id="path-effect131"
       is_visible="true"
       lpeversion="1"
       offset_points="1.9940581,0.075169555"
       not_jump="true"
       sort_points="true"
       interpolator_type="CentripetalCatmullRom"
       interpolator_beta="0.75"
       start_linecap_type="round"
       linejoin_type="spiro"
       miter_limit="4"
       scale_width="1"
       end_linecap_type="round" />
    <inkscape:path-effect
       effect="simplify"
       id="path-effect129"
       is_visible="true"
       lpeversion="1"
       steps="1"
       threshold="0.0028332064"
       smooth_angles="0"
       helper_size="0"
       simplify_individual_paths="false"
       simplify_just_coalesce="false"
       step="1" />
  </defs>
  <sodipodi:namedview
     id="base"
     pagecolor="#ffffff"
     bordercolor="#666666"
     borderopacity="1.0"
     inkscape:pageopacity="0.0"
     inkscape:pageshadow="2"
     inkscape:zoom="7.919596"
     inkscape:cx="-5.3033008"
     inkscape:cy="20.834396"
     inkscape:document-units="mm"
     inkscape:current-layer="layer1"
     showgrid="false"
     fit-margin-top="0"
     fit-margin-left="0"
     fit-margin-right="0"
     fit-margin-bottom="0"
     inkscape:window-width="1920"
     inkscape:window-height="974"
     inkscape:window-x="-11"
     inkscape:window-y="2869"
     inkscape:window-maximized="1"
     showguides="true"
     inkscape:guide-bbox="true"
     inkscape:snap-bbox="true"
     inkscape:bbox-nodes="true"
     inkscape:snap-nodes="false"
     inkscape:snap-others="false"
     inkscape:snap-page="true"
     inkscape:snap-grids="false"
     inkscape:snap-to-guides="false"
     inkscape:snap-global="false"
     inkscape:pagecheckerboard="0"
     inkscape:showpageshadow="2"
     inkscape:deskcolor="#d1d1d1">
    <sodipodi:guide
       position="-6.1806075,9.4988692"
       orientation="0,1"
       id="guide816"
       inkscape:locked="false" />
    <sodipodi:guide
       position="-4.4101636,10.646923"
       orientation="0,1"
       id="guide818"
       inkscape:locked="false" />
    <sodipodi:guide
       position="2.7595724,11.09577"
       orientation="1,0"
       id="guide820"
       inkscape:locked="false" />
    <sodipodi:guide
       position="3.6572659,10.942217"
       orientation="1,0"
       id="guide822"
       inkscape:locked="false" />
    <sodipodi:guide
       position="-0.051625511,9.7492299"
       orientation="1,0"
       id="guide1853"
       inkscape:locked="false" />
    <sodipodi:guide
       position="-2.3720169,3.0175835"
       orientation="0,1"
       id="guide1855"
       inkscape:locked="false" />
  </sodipodi:namedview>
  <metadata
     id="metadata1678">
    <rdf:RDF>
      <cc:Work
         rdf:about="">
        <dc:format>image/svg+xml</dc:format>
        <dc:type
           rdf:resource="http://purl.org/dc/dcmitype/StillImage" />
      </cc:Work>
    </rdf:RDF>
  </metadata>
  <g
     inkscape:label="Layer 1"
     inkscape:groupmode="layer"
     id="layer1"
     transform="translate(17.028496,-147.22856)">
    <path
       d="m -13.234713,149.82894 c 0.0037,-0.053 -0.0013,-0.11521 -0.02427,-0.18204 -0.01777,-0.0518 -0.04557,-0.10409 -0.0848,-0.15376 -0.06444,-0.0816 -0.160118,-0.15565 -0.277157,-0.19627 -0.0613,-0.0244 -0.130313,-0.0392 -0.201228,-0.0433 -0.06755,-0.004 -0.135761,0.002 -0.203048,0.0165 -0.128702,0.0277 -0.252951,0.0866 -0.359691,0.16529 -0.183544,0.1316 -0.344841,0.30002 -0.452808,0.50325 -0.05405,0.0983 -0.09801,0.20128 -0.132285,0.3054 -0.03994,0.12132 -0.068,0.24796 -0.084,0.37789 -0.0287,0.23304 -0.01845,0.47613 0.03133,0.714 0.0223,0.0814 0.05636,0.14924 0.100585,0.20933 0.04344,0.059 0.09637,0.1102 0.155315,0.15303 0.115131,0.0836 0.255214,0.13685 0.396454,0.15368 0.13971,0.0158 0.282976,0.005 0.420526,-0.0313 0.135761,-0.0362 0.266426,-0.0984 0.380901,-0.18674 0.15085,-0.11469 0.275539,-0.26098 0.369525,-0.42446 0.09389,-0.16331 0.15735,-0.34406 0.186892,-0.52916 0.02067,-0.10605 0.03716,-0.22987 0.0296,-0.35375 -0.0038,-0.0628 -0.01389,-0.12646 -0.03306,-0.18896 -0.01825,-0.0595 -0.04464,-0.11748 -0.08127,-0.17212 -0.01244,-0.0266 -0.02633,-0.0517 -0.03832,-0.0731 -1.99e-4,-3.5e-4 -0.003,-0.005 -0.0032,-0.006 -0.01245,-0.0222 -0.02394,-0.0425 -0.03364,-0.0622 -0.0098,-0.0199 -0.01668,-0.0371 -0.02067,-0.0525 -0.0036,-0.0141 -0.0048,-0.0265 -0.0036,-0.0384 -0.0022,0.0129 -0.0029,0.0136 -0.0034,0.0144 -1.85e-4,2.7e-4 -0.0014,0.002 -0.0032,0.004 -9.64e-4,0.001 -0.0026,0.003 -0.0048,0.006 -0.0021,0.002 -0.0057,0.006 -0.01099,0.01 -0.0046,0.004 -0.01446,0.0109 -0.029,0.0166 -0.0076,0.003 -0.01825,0.006 -0.03137,0.008 -0.01333,0.001 -0.03025,7.1e-4 -0.04793,-0.005 -0.01836,-0.006 -0.03475,-0.0155 -0.04807,-0.0283 -0.01289,-0.0124 -0.02102,-0.0256 -0.02607,-0.0367 -0.005,-0.0109 -0.0074,-0.0206 -0.0087,-0.0278 -0.0013,-0.007 -0.0017,-0.0134 -0.0018,-0.0179 -1.32e-4,-0.009 8.46e-4,-0.015 0.0014,-0.0179 5.99e-4,-0.003 0.0012,-0.005 0.0013,-0.005 0.0012,-0.003 -0.0011,0.004 -0.0023,0.007 -0.0021,0.006 -0.0041,0.0113 -0.0055,0.0171 -0.06072,0.2525 -0.07927,0.5073 -0.09057,0.7556 -0.01164,0.25579 -0.01548,0.49073 -0.04477,0.72873 -0.02783,0.35474 -0.07772,0.70253 -0.110877,1.04341 -0.03608,0.37095 -0.05143,0.71899 -0.01489,1.0669 0.07031,0.64442 0.342245,1.06092 0.342611,1.0607 2.29e-4,-1.4e-4 -0.107609,-0.20267 -0.126054,-0.24442 a 0.10914435,0.10914435 90 0 0 0.199668,-0.0882 c 0.01673,0.0379 0.113638,0.22097 0.113867,0.22083 3.67e-4,-2.2e-4 -0.241359,-0.3746 -0.300719,-0.9727 -0.03297,-0.32567 -0.01789,-0.65611 0.0188,-1.01998 0.03366,-0.33389 0.08498,-0.68244 0.114251,-1.04224 0.03138,-0.24458 0.03678,-0.49482 0.04904,-0.74154 0.01205,-0.24252 0.03055,-0.47506 0.08478,-0.70091 0.0033,-0.008 0.0062,-0.0168 0.0086,-0.0251 0.0016,-0.006 0.0033,-0.0122 0.0045,-0.0193 0.0012,-0.007 0.0024,-0.0164 0.0023,-0.0277 -9.6e-5,-0.006 -5.86e-4,-0.0131 -0.0021,-0.0214 -0.0015,-0.008 -0.0042,-0.0188 -0.0095,-0.0304 -0.0054,-0.0118 -0.01392,-0.0256 -0.02728,-0.0384 -0.01379,-0.0132 -0.03072,-0.0234 -0.04967,-0.0292 -0.01828,-0.006 -0.03585,-0.006 -0.04989,-0.005 -0.01383,0.001 -0.02525,0.005 -0.03364,0.008 -0.01617,0.006 -0.02783,0.0147 -0.03435,0.0199 -0.0072,0.006 -0.01294,0.0114 -0.01717,0.0159 -0.0044,0.005 -0.0082,0.009 -0.01149,0.0138 -0.0065,0.009 -0.01223,0.0177 -0.01707,0.0267 -0.0098,0.018 -0.01862,0.0402 -0.02347,0.0649 -0.0067,0.0562 -0.0018,0.0987 0.0075,0.13606 0.0096,0.0388 0.02432,0.0733 0.03814,0.10159 0.0134,0.0275 0.02869,0.0545 0.04015,0.0748 -5.73e-4,-0.001 0.0037,0.007 0.0031,0.006 0.01374,0.0245 0.02467,0.0444 0.03325,0.0634 0.0033,0.007 0.0071,0.0141 0.01169,0.0206 0.02409,0.0342 0.04199,0.0718 0.0547,0.11244 0.01267,0.0406 0.02024,0.0845 0.02343,0.13132 0.0064,0.094 -0.0051,0.19471 -0.02377,0.29614 -0.02461,0.16002 -0.07715,0.31302 -0.15523,0.45122 -0.07811,0.13826 -0.181063,0.26046 -0.304916,0.35627 -0.08798,0.0695 -0.189358,0.11965 -0.296934,0.14977 -0.109016,0.0305 -0.22319,0.0402 -0.334064,0.029 -0.103592,-0.011 -0.207231,-0.0494 -0.290678,-0.10852 -0.04229,-0.03 -0.07873,-0.0648 -0.107849,-0.10349 -0.02951,-0.0392 -0.05163,-0.0825 -0.06511,-0.12944 -0.04432,-0.20743 -0.05442,-0.42628 -0.02946,-0.63522 0.0139,-0.11637 0.03861,-0.22921 0.0737,-0.33671 0.03012,-0.0923 0.06869,-0.18305 0.116585,-0.27054 0.0895,-0.17002 0.225794,-0.3149 0.389176,-0.43207 0.08586,-0.0633 0.182513,-0.10828 0.278698,-0.1289 0.04993,-0.0107 0.09875,-0.0147 0.145471,-0.0119 0.04889,0.003 0.09524,0.0131 0.138673,0.0304 0.08019,0.0281 0.142351,0.0769 0.182773,0.12829 0.02418,0.0308 0.04009,0.0616 0.04983,0.0902 0.01245,0.0366 0.0149,0.0695 0.01298,0.0971 a 0.10809488,0.10809488 90 0 0 0.21567,0.015 z"
       id="path-1"
       inkscape:path-effect="#path-effect754;#path-effect756"
       inkscape:original-d="m -13.342548,149.82146 c 0.01419,-0.31211 -0.327971,-0.49886 -0.606377,-0.45596 -0.249666,0.0319 -0.457189,0.20457 -0.626014,0.38065 -0.357621,0.42105 -0.450488,1.02112 -0.344171,1.55158 0.08559,0.33041 0.457964,0.48449 0.773185,0.43948 0.483265,-0.0369 0.844787,-0.45639 0.973678,-0.89859 0.06145,-0.25867 0.128476,-0.58133 -0.03397,-0.81158 -0.04663,-0.10192 -0.179741,-0.27411 -0.08053,-0.36638 -0.130003,0.48708 -0.08424,0.99715 -0.145828,1.49369 -0.07376,0.95753 -0.334422,1.96935 0.07081,2.89011"
       style="fill:#000000;fill-rule:nonzero;stroke:none;stroke-width:1.19136" />
  </g>
</svg>
