<?xml version="1.0" encoding="UTF-8" standalone="no"?>
<!-- Created with Inkscape (http://www.inkscape.org/) -->

<svg
   width="6mm"
   height="10mm"
   viewBox="0 0 6.0000001 9.9999994"
   version="1.1"
   id="svg1681"
   inkscape:version="1.2.1 (9c6d41e410, 2022-07-14)"
   sodipodi:docname="number nine 1.3.svg"
   inkscape:export-filename="..\..\..\..\Downloads\lower a diff canvas resize 3.0.png"
   inkscape:export-xdpi="96"
   inkscape:export-ydpi="96"
   xmlns:inkscape="http://www.inkscape.org/namespaces/inkscape"
   xmlns:sodipodi="http://sodipodi.sourceforge.net/DTD/sodipodi-0.dtd"
   xmlns="http://www.w3.org/2000/svg"
   xmlns:svg="http://www.w3.org/2000/svg"
   xmlns:rdf="http://www.w3.org/1999/02/22-rdf-syntax-ns#"
   xmlns:cc="http://creativecommons.org/ns#"
   xmlns:dc="http://purl.org/dc/elements/1.1/">
  <defs
     id="defs1675">
    <inkscape:path-effect
       effect="powerstroke"
       id="path-effect715"
       is_visible="true"
       lpeversion="1"
       offset_points="2.0065613,0.11879286 | 6.1879042,0.10017724 | 7.4947195,0.13141361"
       not_jump="true"
       sort_points="true"
       interpolator_type="CentripetalCatmullRom"
       interpolator_beta="0.75"
       start_linecap_type="round"
       linejoin_type="spiro"
       miter_limit="4"
       scale_width="1"
       end_linecap_type="round" />
    <inkscape:path-effect
       effect="simplify"
       id="path-effect713"
       is_visible="true"
       lpeversion="1"
       steps="1"
       threshold="0.0035951417"
       smooth_angles="0"
       helper_size="0"
       simplify_individual_paths="false"
       simplify_just_coalesce="false"
       step="1" />
    <inkscape:path-effect
       effect="powerstroke"
       id="path-effect502"
       is_visible="true"
       lpeversion="1"
       offset_points="3.0091841,0.21607495 | 7.3602657,0.17554228 | 9.4159651,0.20236537"
       not_jump="true"
       sort_points="true"
       interpolator_type="CentripetalCatmullRom"
       interpolator_beta="0.75"
       start_linecap_type="round"
       linejoin_type="spiro"
       miter_limit="4"
       scale_width="1"
       end_linecap_type="round" />
    <inkscape:path-effect
       effect="simplify"
       id="path-effect500"
       is_visible="true"
       lpeversion="1"
       steps="1"
       threshold="0.0035951417"
       smooth_angles="0"
       helper_size="0"
       simplify_individual_paths="false"
       simplify_just_coalesce="false"
       step="1" />
    <inkscape:path-effect
       effect="powerstroke"
       id="path-effect241"
       is_visible="true"
       lpeversion="1"
       offset_points="2.6879454,0.34086734"
       not_jump="true"
       sort_points="true"
       interpolator_type="CentripetalCatmullRom"
       interpolator_beta="0.75"
       start_linecap_type="round"
       linejoin_type="spiro"
       miter_limit="4"
       scale_width="1"
       end_linecap_type="round" />
    <inkscape:path-effect
       effect="simplify"
       id="path-effect239"
       is_visible="true"
       lpeversion="1"
       steps="1"
       threshold="0.0028332064"
       smooth_angles="0"
       helper_size="0"
       simplify_individual_paths="false"
       simplify_just_coalesce="false"
       step="1" />
    <inkscape:path-effect
       effect="powerstroke"
       id="path-effect234"
       is_visible="true"
       lpeversion="1"
       offset_points="2.13563,0.075169555"
       not_jump="true"
       sort_points="true"
       interpolator_type="CentripetalCatmullRom"
       interpolator_beta="0.75"
       start_linecap_type="round"
       linejoin_type="spiro"
       miter_limit="4"
       scale_width="1"
       end_linecap_type="round" />
    <inkscape:path-effect
       effect="simplify"
       id="path-effect232"
       is_visible="true"
       lpeversion="1"
       steps="1"
       threshold="0.0028332064"
       smooth_angles="0"
       helper_size="0"
       simplify_individual_paths="false"
       simplify_just_coalesce="false"
       step="1" />
    <inkscape:path-effect
       effect="powerstroke"
       id="path-effect227"
       is_visible="true"
       lpeversion="1"
       offset_points="2.1868266,0.075169555"
       not_jump="true"
       sort_points="true"
       interpolator_type="CentripetalCatmullRom"
       interpolator_beta="0.75"
       start_linecap_type="round"
       linejoin_type="spiro"
       miter_limit="4"
       scale_width="1"
       end_linecap_type="round" />
    <inkscape:path-effect
       effect="simplify"
       id="path-effect225"
       is_visible="true"
       lpeversion="1"
       steps="1"
       threshold="0.0028332064"
       smooth_angles="0"
       helper_size="0"
       simplify_individual_paths="false"
       simplify_just_coalesce="false"
       step="1" />
    <inkscape:path-effect
       effect="powerstroke"
       id="path-effect166"
       is_visible="true"
       lpeversion="1"
       offset_points="1.9637935,0.075169555"
       not_jump="true"
       sort_points="true"
       interpolator_type="CentripetalCatmullRom"
       interpolator_beta="0.75"
       start_linecap_type="round"
       linejoin_type="spiro"
       miter_limit="4"
       scale_width="1"
       end_linecap_type="round" />
    <inkscape:path-effect
       effect="simplify"
       id="path-effect164"
       is_visible="true"
       lpeversion="1"
       steps="1"
       threshold="0.0028332064"
       smooth_angles="0"
       helper_size="0"
       simplify_individual_paths="false"
       simplify_just_coalesce="false"
       step="1" />
    <inkscape:path-effect
       effect="powerstroke"
       id="path-effect159"
       is_visible="true"
       lpeversion="1"
       offset_points="2.2611036,0.075169555"
       not_jump="true"
       sort_points="true"
       interpolator_type="CentripetalCatmullRom"
       interpolator_beta="0.75"
       start_linecap_type="round"
       linejoin_type="spiro"
       miter_limit="4"
       scale_width="1"
       end_linecap_type="round" />
    <inkscape:path-effect
       effect="simplify"
       id="path-effect157"
       is_visible="true"
       lpeversion="1"
       steps="1"
       threshold="0.0028332064"
       smooth_angles="0"
       helper_size="0"
       simplify_individual_paths="false"
       simplify_just_coalesce="false"
       step="1" />
    <inkscape:path-effect
       effect="powerstroke"
       id="path-effect152"
       is_visible="true"
       lpeversion="1"
       offset_points="2.826981,0.075169555"
       not_jump="true"
       sort_points="true"
       interpolator_type="CentripetalCatmullRom"
       interpolator_beta="0.75"
       start_linecap_type="round"
       linejoin_type="spiro"
       miter_limit="4"
       scale_width="1"
       end_linecap_type="round" />
    <inkscape:path-effect
       effect="simplify"
       id="path-effect150"
       is_visible="true"
       lpeversion="1"
       steps="1"
       threshold="0.0028332064"
       smooth_angles="0"
       helper_size="0"
       simplify_individual_paths="false"
       simplify_just_coalesce="false"
       step="1" />
    <inkscape:path-effect
       effect="powerstroke"
       id="path-effect145"
       is_visible="true"
       lpeversion="1"
       offset_points="3.8374447,0.075169555"
       not_jump="true"
       sort_points="true"
       interpolator_type="CentripetalCatmullRom"
       interpolator_beta="0.75"
       start_linecap_type="round"
       linejoin_type="spiro"
       miter_limit="4"
       scale_width="1"
       end_linecap_type="round" />
    <inkscape:path-effect
       effect="simplify"
       id="path-effect143"
       is_visible="true"
       lpeversion="1"
       steps="1"
       threshold="0.0028332064"
       smooth_angles="0"
       helper_size="0"
       simplify_individual_paths="false"
       simplify_just_coalesce="false"
       step="1" />
    <inkscape:path-effect
       effect="powerstroke"
       id="path-effect138"
       is_visible="true"
       lpeversion="1"
       offset_points="2.6880907,0.075169555"
       not_jump="true"
       sort_points="true"
       interpolator_type="CentripetalCatmullRom"
       interpolator_beta="0.75"
       start_linecap_type="round"
       linejoin_type="spiro"
       miter_limit="4"
       scale_width="1"
       end_linecap_type="round" />
    <inkscape:path-effect
       effect="simplify"
       id="path-effect136"
       is_visible="true"
       lpeversion="1"
       steps="1"
       threshold="0.0028332064"
       smooth_angles="0"
       helper_size="0"
       simplify_individual_paths="false"
       simplify_just_coalesce="false"
       step="1" />
    <inkscape:path-effect
       effect="powerstroke"
       id="path-effect131"
       is_visible="true"
       lpeversion="1"
       offset_points="1.9940581,0.075169555"
       not_jump="true"
       sort_points="true"
       interpolator_type="CentripetalCatmullRom"
       interpolator_beta="0.75"
       start_linecap_type="round"
       linejoin_type="spiro"
       miter_limit="4"
       scale_width="1"
       end_linecap_type="round" />
    <inkscape:path-effect
       effect="simplify"
       id="path-effect129"
       is_visible="true"
       lpeversion="1"
       steps="1"
       threshold="0.0028332064"
       smooth_angles="0"
       helper_size="0"
       simplify_individual_paths="false"
       simplify_just_coalesce="false"
       step="1" />
  </defs>
  <sodipodi:namedview
     id="base"
     pagecolor="#ffffff"
     bordercolor="#666666"
     borderopacity="1.0"
     inkscape:pageopacity="0.0"
     inkscape:pageshadow="2"
     inkscape:zoom="7.919596"
     inkscape:cx="-5.3033008"
     inkscape:cy="20.834396"
     inkscape:document-units="mm"
     inkscape:current-layer="layer1"
     showgrid="false"
     fit-margin-top="0"
     fit-margin-left="0"
     fit-margin-right="0"
     fit-margin-bottom="0"
     inkscape:window-width="1920"
     inkscape:window-height="974"
     inkscape:window-x="-11"
     inkscape:window-y="2869"
     inkscape:window-maximized="1"
     showguides="true"
     inkscape:guide-bbox="true"
     inkscape:snap-bbox="true"
     inkscape:bbox-nodes="true"
     inkscape:snap-nodes="false"
     inkscape:snap-others="false"
     inkscape:snap-page="true"
     inkscape:snap-grids="false"
     inkscape:snap-to-guides="false"
     inkscape:snap-global="false"
     inkscape:pagecheckerboard="0"
     inkscape:showpageshadow="2"
     inkscape:deskcolor="#d1d1d1">
    <sodipodi:guide
       position="-6.1806075,9.4988692"
       orientation="0,1"
       id="guide816"
       inkscape:locked="false" />
    <sodipodi:guide
       position="-4.4101636,10.646923"
       orientation="0,1"
       id="guide818"
       inkscape:locked="false" />
    <sodipodi:guide
       position="2.7595724,11.09577"
       orientation="1,0"
       id="guide820"
       inkscape:locked="false" />
    <sodipodi:guide
       position="3.6572659,10.942217"
       orientation="1,0"
       id="guide822"
       inkscape:locked="false" />
    <sodipodi:guide
       position="-0.051625511,9.7492299"
       orientation="1,0"
       id="guide1853"
       inkscape:locked="false" />
    <sodipodi:guide
       position="-2.3720169,3.0175835"
       orientation="0,1"
       id="guide1855"
       inkscape:locked="false" />
  </sodipodi:namedview>
  <metadata
     id="metadata1678">
    <rdf:RDF>
      <cc:Work
         rdf:about="">
        <dc:format>image/svg+xml</dc:format>
        <dc:type
           rdf:resource="http://purl.org/dc/dcmitype/StillImage" />
      </cc:Work>
    </rdf:RDF>
  </metadata>
  <g
     inkscape:label="Layer 1"
     inkscape:groupmode="layer"
     id="layer1"
     transform="translate(17.028496,-147.22856)">
    <path
       d="m -13.702865,149.62363 c -0.151108,-0.001 -0.372485,0.0261 -0.616327,0.1576 -0.169757,0.0916 -0.339568,0.22883 -0.476707,0.41282 -0.08888,0.11429 -0.158443,0.24413 -0.213754,0.3834 -0.05364,0.13507 -0.09209,0.27451 -0.123043,0.40886 -9.51e-4,0.004 -0.0015,0.007 -0.0021,0.01 -0.07408,0.34767 -0.09097,0.79468 0.0687,1.23754 0.0022,0.006 0.0047,0.0119 0.0079,0.0174 0.05052,0.0881 0.126454,0.15918 0.216441,0.20603 0.08721,0.0454 0.187734,0.068 0.289335,0.0604 0.133194,-0.008 0.260844,-0.0495 0.373245,-0.11171 0.116042,-0.0642 0.216036,-0.1503 0.294789,-0.24625 0.131396,-0.14185 0.230521,-0.30536 0.302082,-0.46784 0.08154,-0.18513 0.128072,-0.3704 0.153281,-0.5358 0.01051,-0.0662 0.01821,-0.13009 0.02387,-0.19004 0.02959,-0.31338 0.01343,-0.62198 -0.0055,-0.82258 -6.33e-4,-0.007 -0.0018,-0.0134 -0.004,-0.0198 -0.0022,-0.006 -0.005,-0.0125 -0.0076,-0.0188 -0.0066,-0.0161 -0.01492,-0.0314 -0.02439,-0.0456 -0.0088,-0.0133 -0.0193,-0.0266 -0.03134,-0.0394 -0.01907,-0.0202 -0.04832,-0.0456 -0.08644,-0.0624 -0.01981,-0.008 -0.04347,-0.0159 -0.07135,-0.0173 -0.02617,-0.001 -0.05898,0.003 -0.09024,0.0197 -0.03041,0.016 -0.05405,0.0399 -0.07063,0.0678 -0.01515,0.0255 -0.02362,0.0528 -0.02817,0.0789 -0.0193,0.10254 -0.02058,0.20607 -0.0161,0.31241 0.0041,0.0969 0.01255,0.19173 0.01333,0.28032 -0.004,0.22315 0.01067,0.44638 0.01414,0.64254 0.03619,1.35889 0.112404,2.0482 0.302157,2.75142 a 0.13141361,0.13141361 90 0 0 0.253752,-0.0685 c -0.181399,-0.67225 -0.255111,-1.34052 -0.288275,-2.68814 -0.0018,-0.20275 -0.01441,-0.42414 -0.0099,-0.63564 -5.07e-4,-0.10751 -0.0093,-0.20514 -0.0133,-0.29379 -0.0044,-0.0981 -0.003,-0.17834 0.01022,-0.25418 4.77e-4,-0.004 -7.8e-5,0.001 -0.0058,0.0105 -0.0065,0.0106 -0.01789,0.0232 -0.03513,0.0321 -0.01791,0.009 -0.03459,0.0107 -0.04541,0.01 -0.01133,-7.7e-4 -0.01737,-0.004 -0.01887,-0.005 -0.0042,-0.003 0.0043,-2.3e-4 0.01058,0.003 0.0037,0.002 0.0072,0.005 0.0099,0.006 0.0029,0.002 0.0048,0.003 0.0057,0.002 9.84e-4,-0.002 0.002,-0.003 0.0026,-0.005 6.47e-4,-0.002 9.65e-4,-0.004 8.53e-4,-0.005 -1.12e-4,-0.002 -6.45e-4,-0.004 -0.0015,-0.005 -8.24e-4,-0.002 -0.0019,-0.003 -0.0031,-0.004 -0.0024,-0.003 -0.0051,-0.005 -0.0071,-0.008 -0.0019,-0.003 -0.0029,-0.007 -0.0034,-0.0103 0.03183,0.1993 0.06731,0.47317 0.04478,0.77551 -0.0042,0.056 -0.01047,0.11554 -0.01965,0.17754 -0.02167,0.15202 -0.06367,0.31988 -0.137324,0.48592 -0.06461,0.14563 -0.153339,0.28914 -0.272213,0.41543 -0.06841,0.0809 -0.149997,0.14859 -0.24295,0.19777 -0.08999,0.0476 -0.188015,0.0764 -0.287558,0.0803 -0.06137,0.003 -0.121467,-0.0128 -0.17344,-0.0422 -0.05036,-0.0284 -0.0906,-0.0684 -0.117186,-0.11433 -0.133663,-0.39147 -0.115611,-0.7889 -0.04738,-1.10338 5.28e-4,-0.002 0.0011,-0.005 0.0016,-0.007 0.02988,-0.12648 0.06555,-0.25312 0.113299,-0.37281 0.04902,-0.12288 0.108243,-0.232 0.181982,-0.32703 0.116313,-0.15621 0.258594,-0.2714 0.399765,-0.34784 0.201481,-0.10909 0.381482,-0.13086 0.500781,-0.12974 a 0.11879286,0.11879286 90 0 0 0.0022,-0.23758 z"
       id="path-1"
       inkscape:path-effect="#path-effect713;#path-effect715"
       inkscape:original-d="m -13.703978,149.74242 c -0.581884,-8.4e-4 -1.063653,0.44011 -1.229607,0.97786 -0.165839,0.46935 -0.19283,1.00398 -0.02557,1.47538 0.238259,0.39487 0.782561,0.18356 1.008911,-0.11379 0.472229,-0.51362 0.503366,-1.26928 0.42012,-1.9236 -0.275185,-0.35929 -0.140446,0.45135 -0.164506,0.61419 0.03333,1.09683 0.02215,2.21917 0.310186,3.28635"
       style="fill:#000000;fill-rule:nonzero;stroke:none;stroke-width:1.07455" />
  </g>
</svg>
