<?xml version="1.0" encoding="UTF-8" standalone="no"?>
<!-- Created with Inkscape (http://www.inkscape.org/) -->

<svg
   width="6mm"
   height="10mm"
   viewBox="0 0 6.0000001 9.9999994"
   version="1.1"
   id="svg1681"
   inkscape:version="1.2.1 (9c6d41e410, 2022-07-14)"
   sodipodi:docname="@ symbol 1.4.svg"
   inkscape:export-filename="..\..\..\..\Downloads\lower a diff canvas resize 3.0.png"
   inkscape:export-xdpi="96"
   inkscape:export-ydpi="96"
   xmlns:inkscape="http://www.inkscape.org/namespaces/inkscape"
   xmlns:sodipodi="http://sodipodi.sourceforge.net/DTD/sodipodi-0.dtd"
   xmlns="http://www.w3.org/2000/svg"
   xmlns:svg="http://www.w3.org/2000/svg"
   xmlns:rdf="http://www.w3.org/1999/02/22-rdf-syntax-ns#"
   xmlns:cc="http://creativecommons.org/ns#"
   xmlns:dc="http://purl.org/dc/elements/1.1/">
  <defs
     id="defs1675">
    <inkscape:path-effect
       effect="powerstroke"
       id="path-effect472"
       is_visible="true"
       lpeversion="1"
       offset_points="4.0521283,0.11060454 | 12.810949,0.13272545 | 15.888046,0.10712254 | 21.515736,0.1253518"
       not_jump="true"
       sort_points="true"
       interpolator_type="CentripetalCatmullRom"
       interpolator_beta="0.75"
       start_linecap_type="round"
       linejoin_type="spiro"
       miter_limit="4"
       scale_width="1"
       end_linecap_type="round" />
    <inkscape:path-effect
       effect="simplify"
       id="path-effect470"
       is_visible="true"
       lpeversion="1"
       steps="1"
       threshold="0.0035951417"
       smooth_angles="0"
       helper_size="0"
       simplify_individual_paths="false"
       simplify_just_coalesce="false"
       step="1" />
    <inkscape:path-effect
       effect="powerstroke"
       id="path-effect502"
       is_visible="true"
       lpeversion="1"
       offset_points="3.0091841,0.21607495 | 7.3602657,0.17554228 | 9.4159651,0.20236537"
       not_jump="true"
       sort_points="true"
       interpolator_type="CentripetalCatmullRom"
       interpolator_beta="0.75"
       start_linecap_type="round"
       linejoin_type="spiro"
       miter_limit="4"
       scale_width="1"
       end_linecap_type="round" />
    <inkscape:path-effect
       effect="simplify"
       id="path-effect500"
       is_visible="true"
       lpeversion="1"
       steps="1"
       threshold="0.0035951417"
       smooth_angles="0"
       helper_size="0"
       simplify_individual_paths="false"
       simplify_just_coalesce="false"
       step="1" />
    <inkscape:path-effect
       effect="powerstroke"
       id="path-effect241"
       is_visible="true"
       lpeversion="1"
       offset_points="2.6879454,0.34086734"
       not_jump="true"
       sort_points="true"
       interpolator_type="CentripetalCatmullRom"
       interpolator_beta="0.75"
       start_linecap_type="round"
       linejoin_type="spiro"
       miter_limit="4"
       scale_width="1"
       end_linecap_type="round" />
    <inkscape:path-effect
       effect="simplify"
       id="path-effect239"
       is_visible="true"
       lpeversion="1"
       steps="1"
       threshold="0.0028332064"
       smooth_angles="0"
       helper_size="0"
       simplify_individual_paths="false"
       simplify_just_coalesce="false"
       step="1" />
    <inkscape:path-effect
       effect="powerstroke"
       id="path-effect234"
       is_visible="true"
       lpeversion="1"
       offset_points="2.13563,0.075169555"
       not_jump="true"
       sort_points="true"
       interpolator_type="CentripetalCatmullRom"
       interpolator_beta="0.75"
       start_linecap_type="round"
       linejoin_type="spiro"
       miter_limit="4"
       scale_width="1"
       end_linecap_type="round" />
    <inkscape:path-effect
       effect="simplify"
       id="path-effect232"
       is_visible="true"
       lpeversion="1"
       steps="1"
       threshold="0.0028332064"
       smooth_angles="0"
       helper_size="0"
       simplify_individual_paths="false"
       simplify_just_coalesce="false"
       step="1" />
    <inkscape:path-effect
       effect="powerstroke"
       id="path-effect227"
       is_visible="true"
       lpeversion="1"
       offset_points="2.1868266,0.075169555"
       not_jump="true"
       sort_points="true"
       interpolator_type="CentripetalCatmullRom"
       interpolator_beta="0.75"
       start_linecap_type="round"
       linejoin_type="spiro"
       miter_limit="4"
       scale_width="1"
       end_linecap_type="round" />
    <inkscape:path-effect
       effect="simplify"
       id="path-effect225"
       is_visible="true"
       lpeversion="1"
       steps="1"
       threshold="0.0028332064"
       smooth_angles="0"
       helper_size="0"
       simplify_individual_paths="false"
       simplify_just_coalesce="false"
       step="1" />
    <inkscape:path-effect
       effect="powerstroke"
       id="path-effect166"
       is_visible="true"
       lpeversion="1"
       offset_points="1.9637935,0.075169555"
       not_jump="true"
       sort_points="true"
       interpolator_type="CentripetalCatmullRom"
       interpolator_beta="0.75"
       start_linecap_type="round"
       linejoin_type="spiro"
       miter_limit="4"
       scale_width="1"
       end_linecap_type="round" />
    <inkscape:path-effect
       effect="simplify"
       id="path-effect164"
       is_visible="true"
       lpeversion="1"
       steps="1"
       threshold="0.0028332064"
       smooth_angles="0"
       helper_size="0"
       simplify_individual_paths="false"
       simplify_just_coalesce="false"
       step="1" />
    <inkscape:path-effect
       effect="powerstroke"
       id="path-effect159"
       is_visible="true"
       lpeversion="1"
       offset_points="2.2611036,0.075169555"
       not_jump="true"
       sort_points="true"
       interpolator_type="CentripetalCatmullRom"
       interpolator_beta="0.75"
       start_linecap_type="round"
       linejoin_type="spiro"
       miter_limit="4"
       scale_width="1"
       end_linecap_type="round" />
    <inkscape:path-effect
       effect="simplify"
       id="path-effect157"
       is_visible="true"
       lpeversion="1"
       steps="1"
       threshold="0.0028332064"
       smooth_angles="0"
       helper_size="0"
       simplify_individual_paths="false"
       simplify_just_coalesce="false"
       step="1" />
    <inkscape:path-effect
       effect="powerstroke"
       id="path-effect152"
       is_visible="true"
       lpeversion="1"
       offset_points="2.826981,0.075169555"
       not_jump="true"
       sort_points="true"
       interpolator_type="CentripetalCatmullRom"
       interpolator_beta="0.75"
       start_linecap_type="round"
       linejoin_type="spiro"
       miter_limit="4"
       scale_width="1"
       end_linecap_type="round" />
    <inkscape:path-effect
       effect="simplify"
       id="path-effect150"
       is_visible="true"
       lpeversion="1"
       steps="1"
       threshold="0.0028332064"
       smooth_angles="0"
       helper_size="0"
       simplify_individual_paths="false"
       simplify_just_coalesce="false"
       step="1" />
    <inkscape:path-effect
       effect="powerstroke"
       id="path-effect145"
       is_visible="true"
       lpeversion="1"
       offset_points="3.8374447,0.075169555"
       not_jump="true"
       sort_points="true"
       interpolator_type="CentripetalCatmullRom"
       interpolator_beta="0.75"
       start_linecap_type="round"
       linejoin_type="spiro"
       miter_limit="4"
       scale_width="1"
       end_linecap_type="round" />
    <inkscape:path-effect
       effect="simplify"
       id="path-effect143"
       is_visible="true"
       lpeversion="1"
       steps="1"
       threshold="0.0028332064"
       smooth_angles="0"
       helper_size="0"
       simplify_individual_paths="false"
       simplify_just_coalesce="false"
       step="1" />
    <inkscape:path-effect
       effect="powerstroke"
       id="path-effect138"
       is_visible="true"
       lpeversion="1"
       offset_points="2.6880907,0.075169555"
       not_jump="true"
       sort_points="true"
       interpolator_type="CentripetalCatmullRom"
       interpolator_beta="0.75"
       start_linecap_type="round"
       linejoin_type="spiro"
       miter_limit="4"
       scale_width="1"
       end_linecap_type="round" />
    <inkscape:path-effect
       effect="simplify"
       id="path-effect136"
       is_visible="true"
       lpeversion="1"
       steps="1"
       threshold="0.0028332064"
       smooth_angles="0"
       helper_size="0"
       simplify_individual_paths="false"
       simplify_just_coalesce="false"
       step="1" />
    <inkscape:path-effect
       effect="powerstroke"
       id="path-effect131"
       is_visible="true"
       lpeversion="1"
       offset_points="1.9940581,0.075169555"
       not_jump="true"
       sort_points="true"
       interpolator_type="CentripetalCatmullRom"
       interpolator_beta="0.75"
       start_linecap_type="round"
       linejoin_type="spiro"
       miter_limit="4"
       scale_width="1"
       end_linecap_type="round" />
    <inkscape:path-effect
       effect="simplify"
       id="path-effect129"
       is_visible="true"
       lpeversion="1"
       steps="1"
       threshold="0.0028332064"
       smooth_angles="0"
       helper_size="0"
       simplify_individual_paths="false"
       simplify_just_coalesce="false"
       step="1" />
  </defs>
  <sodipodi:namedview
     id="base"
     pagecolor="#ffffff"
     bordercolor="#666666"
     borderopacity="1.0"
     inkscape:pageopacity="0.0"
     inkscape:pageshadow="2"
     inkscape:zoom="7.919596"
     inkscape:cx="-5.1770318"
     inkscape:cy="20.960665"
     inkscape:document-units="mm"
     inkscape:current-layer="layer1"
     showgrid="false"
     fit-margin-top="0"
     fit-margin-left="0"
     fit-margin-right="0"
     fit-margin-bottom="0"
     inkscape:window-width="1920"
     inkscape:window-height="974"
     inkscape:window-x="-11"
     inkscape:window-y="2869"
     inkscape:window-maximized="1"
     showguides="true"
     inkscape:guide-bbox="true"
     inkscape:snap-bbox="true"
     inkscape:bbox-nodes="true"
     inkscape:snap-nodes="false"
     inkscape:snap-others="false"
     inkscape:snap-page="true"
     inkscape:snap-grids="false"
     inkscape:snap-to-guides="false"
     inkscape:snap-global="false"
     inkscape:pagecheckerboard="0"
     inkscape:showpageshadow="2"
     inkscape:deskcolor="#d1d1d1">
    <sodipodi:guide
       position="-6.1806075,9.4988692"
       orientation="0,1"
       id="guide816"
       inkscape:locked="false" />
    <sodipodi:guide
       position="-4.4101636,10.646923"
       orientation="0,1"
       id="guide818"
       inkscape:locked="false" />
    <sodipodi:guide
       position="2.7595724,11.09577"
       orientation="1,0"
       id="guide820"
       inkscape:locked="false" />
    <sodipodi:guide
       position="3.6572659,10.942217"
       orientation="1,0"
       id="guide822"
       inkscape:locked="false" />
    <sodipodi:guide
       position="-0.051625511,9.7492299"
       orientation="1,0"
       id="guide1853"
       inkscape:locked="false" />
    <sodipodi:guide
       position="-2.3720169,3.0175835"
       orientation="0,1"
       id="guide1855"
       inkscape:locked="false" />
  </sodipodi:namedview>
  <metadata
     id="metadata1678">
    <rdf:RDF>
      <cc:Work
         rdf:about="">
        <dc:format>image/svg+xml</dc:format>
        <dc:type
           rdf:resource="http://purl.org/dc/dcmitype/StillImage" />
      </cc:Work>
    </rdf:RDF>
  </metadata>
  <g
     inkscape:label="Layer 1"
     inkscape:groupmode="layer"
     id="layer1"
     transform="translate(17.028496,-147.22856)">
    <path
       d="m -14.029869,149.81452 c -0.167366,-0.0361 -0.408309,-0.043 -0.659838,0.0601 -0.09765,0.04 -0.19671,0.0971 -0.286446,0.17502 -0.08182,0.0711 -0.156359,0.15996 -0.212763,0.26855 -0.04158,0.0722 -0.06773,0.15402 -0.08439,0.24018 -0.01518,0.0785 -0.0218,0.15666 -0.02878,0.23304 -0.02529,0.21372 -0.03356,0.44546 -0.0084,0.67749 0.02435,0.22494 0.08024,0.45166 0.183326,0.6655 0.0613,0.12653 0.146478,0.24446 0.251932,0.34151 0.105854,0.0974 0.231987,0.17364 0.373722,0.21559 0.0094,0.003 0.01908,0.004 0.02885,0.004 0.01436,3.3e-4 0.02866,2.5e-4 0.0429,-2.4e-4 0.117228,-0.004 0.23648,-0.0357 0.346711,-0.0953 0.113333,-0.0614 0.217815,-0.15302 0.293807,-0.27231 0.109541,-0.16841 0.177702,-0.35533 0.22496,-0.55116 0.04521,-0.18733 0.07017,-0.37742 0.09695,-0.56455 0.01163,-0.0769 0.02539,-0.16401 0.03219,-0.25096 0.0067,-0.0861 0.0073,-0.17807 -0.0082,-0.27277 -0.01514,-0.10568 -0.03385,-0.22738 -0.06832,-0.34501 -0.01727,-0.0589 -0.03884,-0.11817 -0.06672,-0.17574 -0.02783,-0.0575 -0.06202,-0.11344 -0.104596,-0.16584 -0.02616,-0.0353 -0.06337,-0.0645 -0.104606,-0.0835 -0.04091,-0.0188 -0.0845,-0.0271 -0.126886,-0.0266 -0.08402,0.001 -0.16879,0.0367 -0.228808,0.10303 -0.0074,0.008 -0.01469,0.0164 -0.02063,0.0256 -0.0059,0.009 -0.01044,0.0194 -0.01281,0.0302 -0.0024,0.0107 -0.0026,0.0219 -0.0011,0.0327 0.0014,0.0109 0.0045,0.0215 0.0076,0.032 0.08606,0.29283 0.117772,0.59875 0.153167,0.91371 0.03581,0.31861 0.07514,0.64297 0.18036,0.95831 0.06305,0.19731 0.145777,0.39774 0.258566,0.57868 0.116885,0.18752 0.265213,0.35265 0.455212,0.47305 0.0682,0.04 0.137562,0.077 0.211715,0.10518 0.07897,0.03 0.162913,0.0497 0.250812,0.0496 0.08478,-0.002 0.160214,-0.0197 0.227904,-0.0477 0.07074,-0.0292 0.133064,-0.0694 0.186778,-0.11408 0.07115,-0.0592 0.129388,-0.12816 0.17542,-0.19663 0.03008,-0.0447 0.05568,-0.0904 0.07704,-0.1351 0.12767,-0.26057 0.201132,-0.54509 0.251189,-0.75114 0.07668,-0.39391 0.0844,-0.78747 0.02895,-1.16185 -0.05549,-0.37459 -0.177081,-0.74938 -0.378006,-1.09274 -0.104959,-0.17544 -0.238436,-0.35202 -0.403193,-0.51106 -0.115077,-0.11108 -0.249596,-0.21759 -0.403979,-0.3074 -0.04178,-0.0243 -0.08526,-0.0475 -0.130451,-0.0693 -0.193584,-0.0882 -0.409234,-0.12231 -0.633968,-0.10224 -0.204937,0.0183 -0.413428,0.0816 -0.604503,0.18441 -0.224396,0.11744 -0.429197,0.27723 -0.607078,0.46992 -0.172049,0.18637 -0.317056,0.40156 -0.429373,0.63398 -0.229938,0.45942 -0.368695,0.97116 -0.401613,1.49048 -0.03299,0.52048 0.04056,1.04497 0.230865,1.53002 0.121557,0.30406 0.278048,0.584 0.482448,0.81902 0.165623,0.17248 0.363554,0.2811 0.562795,0.34341 0.220065,0.0688 0.443201,0.0825 0.644311,0.0602 0.296937,-0.0294 0.560298,-0.11851 0.774827,-0.21867 0.0077,-0.004 0.01533,-0.007 0.02291,-0.0108 0.243398,-0.11639 0.461803,-0.26448 0.649738,-0.42037 0.540723,-0.43437 0.81406,-0.92041 0.937883,-1.18024 a 0.1253518,0.1253518 90 0 0 -0.22632,-0.10786 c -0.114024,0.23928 -0.367892,0.68895 -0.870707,1.09323 -0.176358,0.14639 -0.377153,0.28253 -0.598972,0.38917 -0.0069,0.003 -0.01383,0.007 -0.02082,0.01 -0.195279,0.0917 -0.430913,0.17186 -0.695031,0.1993 -0.171624,0.0201 -0.361127,0.01 -0.545864,-0.0467 -0.167014,-0.0509 -0.328536,-0.13896 -0.45904,-0.2726 -0.180937,-0.20386 -0.327869,-0.45761 -0.445035,-0.74217 -0.178092,-0.44986 -0.249081,-0.9406 -0.219424,-1.4309 0.0296,-0.48928 0.159097,-0.97227 0.375418,-1.4073 0.10284,-0.21566 0.234855,-0.41338 0.390998,-0.58398 0.161357,-0.1763 0.346106,-0.32113 0.548021,-0.42756 0.167363,-0.0908 0.347788,-0.14566 0.522634,-0.16145 0.191139,-0.0173 0.369297,0.0122 0.523856,0.0832 0.0378,0.0184 0.07632,0.0392 0.113401,0.0609 0.137112,0.0805 0.257149,0.17674 0.36031,0.27823 0.147777,0.14537 0.267165,0.30756 0.360237,0.46891 0.181631,0.31679 0.290658,0.66413 0.338448,1.01255 0.04777,0.34827 0.03659,0.71412 -0.03678,1.07308 -0.05425,0.19706 -0.12942,0.45831 -0.246231,0.69019 -0.01721,0.035 -0.0369,0.0692 -0.05968,0.10249 -0.03511,0.0513 -0.07738,0.10005 -0.125948,0.14013 -0.03648,0.0301 -0.07614,0.055 -0.118322,0.0723 -0.03999,0.0164 -0.083,0.0264 -0.129178,0.0274 -0.04488,4e-5 -0.09629,-0.0105 -0.153582,-0.0318 -0.05446,-0.0203 -0.109552,-0.0486 -0.168498,-0.0824 -0.145314,-0.0916 -0.268419,-0.22494 -0.369572,-0.38573 -0.09841,-0.15642 -0.173927,-0.33492 -0.234223,-0.52041 -0.09677,-0.28712 -0.134949,-0.58559 -0.172088,-0.90617 -0.03576,-0.30871 -0.07057,-0.6385 -0.165328,-0.95659 l -0.02702,0.12054 c 0.01036,-0.0125 0.02718,-0.0209 0.04434,-0.0219 0.008,-4.7e-4 0.0146,7.6e-4 0.0196,0.003 0.0047,0.002 0.0092,0.005 0.01334,0.01 0.03251,0.0393 0.05735,0.0785 0.07857,0.12102 0.02133,0.0428 0.03891,0.0888 0.05379,0.1375 0.03023,0.099 0.04817,0.20504 0.06497,0.31324 0.01288,0.072 0.01421,0.14369 0.0095,0.21837 -0.0048,0.0768 -0.0159,0.15471 -0.02689,0.23512 -0.02625,0.19207 -0.0486,0.36967 -0.08965,0.54416 -0.04235,0.17999 -0.1015,0.34101 -0.192668,0.48271 -0.05383,0.086 -0.12838,0.15287 -0.210642,0.19808 -0.07982,0.0439 -0.16537,0.0667 -0.248085,0.0699 -0.0052,2e-4 -0.0105,3.2e-4 -0.01577,3.7e-4 -0.100314,-0.0319 -0.192562,-0.0876 -0.272834,-0.16121 -0.08396,-0.077 -0.153141,-0.17199 -0.203181,-0.27503 -0.09017,-0.18679 -0.140657,-0.38834 -0.162876,-0.5935 -0.02293,-0.21174 -0.01563,-0.42651 0.0086,-0.63095 0.0076,-0.0822 0.01349,-0.14855 0.02628,-0.21407 0.01357,-0.0695 0.03313,-0.12671 0.06178,-0.17629 0.04467,-0.0856 0.101132,-0.1531 0.164173,-0.20776 0.06943,-0.0602 0.147233,-0.10522 0.22552,-0.13722 0.202772,-0.0829 0.397061,-0.0768 0.529503,-0.0483 a 0.11060454,0.11060454 90 0 0 0.04667,-0.21622 z"
       id="path-1"
       inkscape:path-effect="#path-effect470;#path-effect472"
       inkscape:original-d="m -14.053206,149.92263 c -0.54634,-0.11152 -1.119634,0.22609 -1.130983,0.81831 -0.09806,0.6347 1.6e-4,1.62287 0.71386,1.84452 0.780115,-0.009 0.832351,-1.01657 0.915393,-1.59139 0.04172,-0.28654 -0.135175,-1.23242 -0.493678,-0.91451 0.145135,0.48059 0.140471,1.00477 0.240994,1.50458 0.124365,0.59878 0.422261,1.3454 1.096209,1.47686 0.55387,0.0146 0.705609,-0.65877 0.83505,-1.07783 0.249193,-1.10051 -0.08671,-2.45862 -1.126489,-3.04501 -0.771223,-0.40295 -1.644718,0.17808 -2.050793,0.83285 -0.727631,1.17797 -0.768308,2.84323 0.120659,3.95096 0.649041,0.69339 1.740192,0.37772 2.394681,-0.14 0.435857,-0.31872 0.793837,-0.74354 1.025552,-1.22976"
       style="fill:#000000;fill-rule:nonzero;stroke:none;stroke-width:1.3951" />
  </g>
</svg>
