<?xml version="1.0" encoding="UTF-8" standalone="no"?>
<!-- Created with Inkscape (http://www.inkscape.org/) -->

<svg
   width="6mm"
   height="10mm"
   viewBox="0 0 6.0000001 9.9999994"
   version="1.1"
   id="svg1681"
   inkscape:version="1.2.1 (9c6d41e410, 2022-07-14)"
   sodipodi:docname="@ symbol 1.5.svg"
   inkscape:export-filename="..\..\..\..\Downloads\lower a diff canvas resize 3.0.png"
   inkscape:export-xdpi="96"
   inkscape:export-ydpi="96"
   xmlns:inkscape="http://www.inkscape.org/namespaces/inkscape"
   xmlns:sodipodi="http://sodipodi.sourceforge.net/DTD/sodipodi-0.dtd"
   xmlns="http://www.w3.org/2000/svg"
   xmlns:svg="http://www.w3.org/2000/svg"
   xmlns:rdf="http://www.w3.org/1999/02/22-rdf-syntax-ns#"
   xmlns:cc="http://creativecommons.org/ns#"
   xmlns:dc="http://purl.org/dc/elements/1.1/">
  <defs
     id="defs1675">
    <inkscape:path-effect
       effect="powerstroke"
       id="path-effect520"
       is_visible="true"
       lpeversion="1"
       offset_points="2.7104209,0.11623444 | 6.1891906,0.08691592 | 6.7050343,0.10687747 | 13.23432,0.12850248 | 19.757333,0.14742436"
       not_jump="true"
       sort_points="true"
       interpolator_type="CentripetalCatmullRom"
       interpolator_beta="0.75"
       start_linecap_type="round"
       linejoin_type="spiro"
       miter_limit="4"
       scale_width="1"
       end_linecap_type="round" />
    <inkscape:path-effect
       effect="simplify"
       id="path-effect518"
       is_visible="true"
       lpeversion="1"
       steps="1"
       threshold="0.0035951417"
       smooth_angles="0"
       helper_size="0"
       simplify_individual_paths="false"
       simplify_just_coalesce="false"
       step="1" />
    <inkscape:path-effect
       effect="powerstroke"
       id="path-effect513"
       is_visible="true"
       lpeversion="1"
       offset_points="3.4665905,0.085593456 | 5.097968,0.077665417 | 18.223138,0.10717534"
       not_jump="true"
       sort_points="true"
       interpolator_type="CentripetalCatmullRom"
       interpolator_beta="0.75"
       start_linecap_type="round"
       linejoin_type="spiro"
       miter_limit="4"
       scale_width="1"
       end_linecap_type="round" />
    <inkscape:path-effect
       effect="simplify"
       id="path-effect511"
       is_visible="true"
       lpeversion="1"
       steps="1"
       threshold="0.0035951417"
       smooth_angles="0"
       helper_size="0"
       simplify_individual_paths="false"
       simplify_just_coalesce="false"
       step="1" />
    <inkscape:path-effect
       effect="powerstroke"
       id="path-effect502"
       is_visible="true"
       lpeversion="1"
       offset_points="3.0091841,0.21607495 | 7.3602657,0.17554228 | 9.4159651,0.20236537"
       not_jump="true"
       sort_points="true"
       interpolator_type="CentripetalCatmullRom"
       interpolator_beta="0.75"
       start_linecap_type="round"
       linejoin_type="spiro"
       miter_limit="4"
       scale_width="1"
       end_linecap_type="round" />
    <inkscape:path-effect
       effect="simplify"
       id="path-effect500"
       is_visible="true"
       lpeversion="1"
       steps="1"
       threshold="0.0035951417"
       smooth_angles="0"
       helper_size="0"
       simplify_individual_paths="false"
       simplify_just_coalesce="false"
       step="1" />
    <inkscape:path-effect
       effect="powerstroke"
       id="path-effect241"
       is_visible="true"
       lpeversion="1"
       offset_points="2.6879454,0.34086734"
       not_jump="true"
       sort_points="true"
       interpolator_type="CentripetalCatmullRom"
       interpolator_beta="0.75"
       start_linecap_type="round"
       linejoin_type="spiro"
       miter_limit="4"
       scale_width="1"
       end_linecap_type="round" />
    <inkscape:path-effect
       effect="simplify"
       id="path-effect239"
       is_visible="true"
       lpeversion="1"
       steps="1"
       threshold="0.0028332064"
       smooth_angles="0"
       helper_size="0"
       simplify_individual_paths="false"
       simplify_just_coalesce="false"
       step="1" />
    <inkscape:path-effect
       effect="powerstroke"
       id="path-effect234"
       is_visible="true"
       lpeversion="1"
       offset_points="2.13563,0.075169555"
       not_jump="true"
       sort_points="true"
       interpolator_type="CentripetalCatmullRom"
       interpolator_beta="0.75"
       start_linecap_type="round"
       linejoin_type="spiro"
       miter_limit="4"
       scale_width="1"
       end_linecap_type="round" />
    <inkscape:path-effect
       effect="simplify"
       id="path-effect232"
       is_visible="true"
       lpeversion="1"
       steps="1"
       threshold="0.0028332064"
       smooth_angles="0"
       helper_size="0"
       simplify_individual_paths="false"
       simplify_just_coalesce="false"
       step="1" />
    <inkscape:path-effect
       effect="powerstroke"
       id="path-effect227"
       is_visible="true"
       lpeversion="1"
       offset_points="2.1868266,0.075169555"
       not_jump="true"
       sort_points="true"
       interpolator_type="CentripetalCatmullRom"
       interpolator_beta="0.75"
       start_linecap_type="round"
       linejoin_type="spiro"
       miter_limit="4"
       scale_width="1"
       end_linecap_type="round" />
    <inkscape:path-effect
       effect="simplify"
       id="path-effect225"
       is_visible="true"
       lpeversion="1"
       steps="1"
       threshold="0.0028332064"
       smooth_angles="0"
       helper_size="0"
       simplify_individual_paths="false"
       simplify_just_coalesce="false"
       step="1" />
    <inkscape:path-effect
       effect="powerstroke"
       id="path-effect166"
       is_visible="true"
       lpeversion="1"
       offset_points="1.9637935,0.075169555"
       not_jump="true"
       sort_points="true"
       interpolator_type="CentripetalCatmullRom"
       interpolator_beta="0.75"
       start_linecap_type="round"
       linejoin_type="spiro"
       miter_limit="4"
       scale_width="1"
       end_linecap_type="round" />
    <inkscape:path-effect
       effect="simplify"
       id="path-effect164"
       is_visible="true"
       lpeversion="1"
       steps="1"
       threshold="0.0028332064"
       smooth_angles="0"
       helper_size="0"
       simplify_individual_paths="false"
       simplify_just_coalesce="false"
       step="1" />
    <inkscape:path-effect
       effect="powerstroke"
       id="path-effect159"
       is_visible="true"
       lpeversion="1"
       offset_points="2.2611036,0.075169555"
       not_jump="true"
       sort_points="true"
       interpolator_type="CentripetalCatmullRom"
       interpolator_beta="0.75"
       start_linecap_type="round"
       linejoin_type="spiro"
       miter_limit="4"
       scale_width="1"
       end_linecap_type="round" />
    <inkscape:path-effect
       effect="simplify"
       id="path-effect157"
       is_visible="true"
       lpeversion="1"
       steps="1"
       threshold="0.0028332064"
       smooth_angles="0"
       helper_size="0"
       simplify_individual_paths="false"
       simplify_just_coalesce="false"
       step="1" />
    <inkscape:path-effect
       effect="powerstroke"
       id="path-effect152"
       is_visible="true"
       lpeversion="1"
       offset_points="2.826981,0.075169555"
       not_jump="true"
       sort_points="true"
       interpolator_type="CentripetalCatmullRom"
       interpolator_beta="0.75"
       start_linecap_type="round"
       linejoin_type="spiro"
       miter_limit="4"
       scale_width="1"
       end_linecap_type="round" />
    <inkscape:path-effect
       effect="simplify"
       id="path-effect150"
       is_visible="true"
       lpeversion="1"
       steps="1"
       threshold="0.0028332064"
       smooth_angles="0"
       helper_size="0"
       simplify_individual_paths="false"
       simplify_just_coalesce="false"
       step="1" />
    <inkscape:path-effect
       effect="powerstroke"
       id="path-effect145"
       is_visible="true"
       lpeversion="1"
       offset_points="3.8374447,0.075169555"
       not_jump="true"
       sort_points="true"
       interpolator_type="CentripetalCatmullRom"
       interpolator_beta="0.75"
       start_linecap_type="round"
       linejoin_type="spiro"
       miter_limit="4"
       scale_width="1"
       end_linecap_type="round" />
    <inkscape:path-effect
       effect="simplify"
       id="path-effect143"
       is_visible="true"
       lpeversion="1"
       steps="1"
       threshold="0.0028332064"
       smooth_angles="0"
       helper_size="0"
       simplify_individual_paths="false"
       simplify_just_coalesce="false"
       step="1" />
    <inkscape:path-effect
       effect="powerstroke"
       id="path-effect138"
       is_visible="true"
       lpeversion="1"
       offset_points="2.6880907,0.075169555"
       not_jump="true"
       sort_points="true"
       interpolator_type="CentripetalCatmullRom"
       interpolator_beta="0.75"
       start_linecap_type="round"
       linejoin_type="spiro"
       miter_limit="4"
       scale_width="1"
       end_linecap_type="round" />
    <inkscape:path-effect
       effect="simplify"
       id="path-effect136"
       is_visible="true"
       lpeversion="1"
       steps="1"
       threshold="0.0028332064"
       smooth_angles="0"
       helper_size="0"
       simplify_individual_paths="false"
       simplify_just_coalesce="false"
       step="1" />
    <inkscape:path-effect
       effect="powerstroke"
       id="path-effect131"
       is_visible="true"
       lpeversion="1"
       offset_points="1.9940581,0.075169555"
       not_jump="true"
       sort_points="true"
       interpolator_type="CentripetalCatmullRom"
       interpolator_beta="0.75"
       start_linecap_type="round"
       linejoin_type="spiro"
       miter_limit="4"
       scale_width="1"
       end_linecap_type="round" />
    <inkscape:path-effect
       effect="simplify"
       id="path-effect129"
       is_visible="true"
       lpeversion="1"
       steps="1"
       threshold="0.0028332064"
       smooth_angles="0"
       helper_size="0"
       simplify_individual_paths="false"
       simplify_just_coalesce="false"
       step="1" />
  </defs>
  <sodipodi:namedview
     id="base"
     pagecolor="#ffffff"
     bordercolor="#666666"
     borderopacity="1.0"
     inkscape:pageopacity="0.0"
     inkscape:pageshadow="2"
     inkscape:zoom="7.919596"
     inkscape:cx="-5.1770318"
     inkscape:cy="20.960665"
     inkscape:document-units="mm"
     inkscape:current-layer="layer1"
     showgrid="false"
     fit-margin-top="0"
     fit-margin-left="0"
     fit-margin-right="0"
     fit-margin-bottom="0"
     inkscape:window-width="1920"
     inkscape:window-height="974"
     inkscape:window-x="-11"
     inkscape:window-y="2869"
     inkscape:window-maximized="1"
     showguides="true"
     inkscape:guide-bbox="true"
     inkscape:snap-bbox="true"
     inkscape:bbox-nodes="true"
     inkscape:snap-nodes="false"
     inkscape:snap-others="false"
     inkscape:snap-page="true"
     inkscape:snap-grids="false"
     inkscape:snap-to-guides="false"
     inkscape:snap-global="false"
     inkscape:pagecheckerboard="0"
     inkscape:showpageshadow="2"
     inkscape:deskcolor="#d1d1d1">
    <sodipodi:guide
       position="-6.1806075,9.4988692"
       orientation="0,1"
       id="guide816"
       inkscape:locked="false" />
    <sodipodi:guide
       position="-4.4101636,10.646923"
       orientation="0,1"
       id="guide818"
       inkscape:locked="false" />
    <sodipodi:guide
       position="2.7595724,11.09577"
       orientation="1,0"
       id="guide820"
       inkscape:locked="false" />
    <sodipodi:guide
       position="3.6572659,10.942217"
       orientation="1,0"
       id="guide822"
       inkscape:locked="false" />
    <sodipodi:guide
       position="-0.051625511,9.7492299"
       orientation="1,0"
       id="guide1853"
       inkscape:locked="false" />
    <sodipodi:guide
       position="-2.3720169,3.0175835"
       orientation="0,1"
       id="guide1855"
       inkscape:locked="false" />
  </sodipodi:namedview>
  <metadata
     id="metadata1678">
    <rdf:RDF>
      <cc:Work
         rdf:about="">
        <dc:format>image/svg+xml</dc:format>
        <dc:type
           rdf:resource="http://purl.org/dc/dcmitype/StillImage" />
      </cc:Work>
    </rdf:RDF>
  </metadata>
  <g
     inkscape:label="Layer 1"
     inkscape:groupmode="layer"
     id="layer1"
     transform="translate(17.028496,-147.22856)">
    <path
       d="m -13.631213,149.49966 c -0.129913,-0.0335 -0.319204,-0.0545 -0.545236,0.004 -0.159541,0.041 -0.328703,0.12005 -0.48074,0.24533 -0.179707,0.1457 -0.333843,0.32946 -0.456683,0.54225 -0.117705,0.20389 -0.202675,0.4276 -0.25465,0.65637 -0.05227,0.16325 -0.06732,0.34372 -0.04876,0.51476 0.0082,0.0756 0.0229,0.14885 0.04328,0.21882 0.02737,0.0939 0.06741,0.18972 0.122948,0.28186 0.05946,0.0998 0.148456,0.19138 0.259682,0.25434 0.0529,0.03 0.110761,0.0533 0.172148,0.0675 0.0605,0.0139 0.124067,0.0188 0.188868,0.0124 0.158871,-0.0132 0.31129,-0.0688 0.44128,-0.15411 0.134769,-0.0885 0.243302,-0.20734 0.315629,-0.34288 0.105194,-0.1913 0.157335,-0.39294 0.185471,-0.57559 0.03315,-0.21521 0.03664,-0.43617 0.03771,-0.58997 -1.49e-4,-0.0404 8.6e-5,-0.0802 4.4e-4,-0.1114 0.0011,-0.095 0.0049,-0.12916 0.0063,-0.18585 6.78e-4,-0.028 6.6e-4,-0.0702 -0.0044,-0.12554 -0.0044,-0.0489 -0.01283,-0.11272 -0.0295,-0.18278 -0.0011,-0.004 -0.0023,-0.009 -0.004,-0.013 -0.0017,-0.004 -0.0039,-0.008 -0.0059,-0.0123 -0.0053,-0.0103 -0.01202,-0.0217 -0.02051,-0.0326 -0.0079,-0.0102 -0.0196,-0.023 -0.03602,-0.0338 -0.0082,-0.005 -0.01803,-0.0106 -0.02949,-0.0145 -0.01136,-0.004 -0.02391,-0.006 -0.03734,-0.007 -0.02716,-9.1e-4 -0.05097,0.007 -0.06964,0.0179 -0.01713,0.0101 -0.02945,0.0224 -0.0378,0.0324 -0.0083,0.01 -0.0146,0.0199 -0.01943,0.0285 -0.0092,0.0164 -0.01599,0.0337 -0.0212,0.049 -0.0051,0.0151 -0.0095,0.0307 -0.01329,0.0457 -0.0037,0.0146 -0.0068,0.029 -0.0097,0.0423 -0.0027,0.013 -0.005,0.0247 -0.007,0.0345 -9.49e-4,0.005 -0.0018,0.009 -0.0025,0.012 -6.76e-4,0.003 -0.0013,0.005 -0.0014,0.006 -0.01323,0.0837 -0.01414,0.15813 -0.01111,0.23337 0.0028,0.0691 0.0088,0.13724 0.01157,0.20242 0.03932,0.48369 0.15804,0.99101 0.40793,1.45333 0.0032,0.006 0.0069,0.0116 0.01108,0.017 0.02666,0.0345 0.05791,0.0688 0.0932,0.10014 0.035,0.0311 0.0749,0.0601 0.119116,0.0833 0.04425,0.0232 0.09359,0.0409 0.14718,0.0482 0.05405,0.007 0.110766,0.004 0.167889,-0.0139 0.06614,-0.0227 0.121471,-0.0539 0.170248,-0.0911 0.04886,-0.0372 0.09096,-0.0802 0.12753,-0.12501 0.07336,-0.0899 0.128546,-0.19261 0.172034,-0.28116 0.100307,-0.215 0.156153,-0.4373 0.162382,-0.65565 0.01321,-0.10921 0.02238,-0.21821 0.02638,-0.32652 0.0046,-0.12578 0.0025,-0.25462 -0.0097,-0.38387 -0.02236,-0.23709 -0.07866,-0.47864 -0.190757,-0.70675 -0.05186,-0.10213 -0.115602,-0.20153 -0.19331,-0.29146 -0.07666,-0.0887 -0.167426,-0.16885 -0.273558,-0.23097 -0.0048,-0.003 -0.0097,-0.005 -0.01483,-0.007 -0.200344,-0.0856 -0.416608,-0.11152 -0.626585,-0.0907 -0.209635,0.0208 -0.414302,0.0881 -0.595239,0.18936 -0.237613,0.13019 -0.445045,0.30504 -0.618175,0.50599 -0.175626,0.20385 -0.316092,0.43465 -0.419521,0.6754 -0.227211,0.50954 -0.329679,1.06578 -0.315336,1.60905 0.01484,0.56219 0.154356,1.10939 0.407887,1.59147 0.101039,0.1655 0.237355,0.2838 0.385566,0.36348 0.157875,0.0849 0.331245,0.12743 0.498388,0.13063 0.173593,0.007 0.340215,-0.0227 0.488485,-0.0713 0.08327,-0.0273 0.161461,-0.0609 0.233805,-0.0984 0.07094,-0.0368 0.13879,-0.0785 0.202873,-0.12448 0.381662,-0.24346 0.706357,-0.56123 0.96694,-0.91083 0.279301,-0.3747 0.481856,-0.78133 0.617731,-1.1797 0.09603,-0.35677 0.100678,-0.67836 0.09945,-0.83302 a 0.14742436,0.14742436 90 0 0 -0.29484,0.002 c 0.0012,0.1458 -0.0045,0.43581 -0.08756,0.7445 -0.124137,0.36262 -0.313028,0.74124 -0.572141,1.08899 -0.241684,0.32436 -0.540695,0.61644 -0.895328,0.84329 -0.05938,0.0425 -0.115091,0.077 -0.173129,0.1073 -0.05921,0.0309 -0.12276,0.0585 -0.189947,0.0808 -0.119805,0.0398 -0.251555,0.0632 -0.388613,0.0587 -0.125121,-0.002 -0.253188,-0.0324 -0.369618,-0.0941 -0.109125,-0.0579 -0.205808,-0.14203 -0.273035,-0.25023 -0.228199,-0.43276 -0.358282,-0.93657 -0.372986,-1.4571 -0.01421,-0.50308 0.07984,-1.01741 0.289017,-1.48897 0.09281,-0.21843 0.217665,-0.42509 0.372837,-0.60673 0.152888,-0.17895 0.33435,-0.33259 0.540925,-0.44692 0.150517,-0.0854 0.318835,-0.14138 0.489089,-0.15927 0.167479,-0.0176 0.334435,0.002 0.48698,0.0645 0.07428,0.0437 0.141286,0.10129 0.200694,0.16862 0.0624,0.0707 0.115543,0.15115 0.159253,0.23506 0.09516,0.19141 0.146005,0.40038 0.167118,0.61377 0.0115,0.11621 0.01414,0.2336 0.01036,0.35009 -0.0033,0.10203 -0.01164,0.20571 -0.02407,0.31073 -5.01e-4,0.004 -8.26e-4,0.008 -8.92e-4,0.0127 -0.0028,0.18149 -0.04791,0.37214 -0.134223,0.55949 -0.03972,0.0819 -0.08448,0.16394 -0.139035,0.2314 -0.02661,0.0329 -0.05476,0.0613 -0.08489,0.0845 -0.02979,0.0229 -0.06169,0.0408 -0.09653,0.0529 -0.01688,0.005 -0.03665,0.007 -0.05666,0.004 -0.02047,-0.003 -0.04269,-0.01 -0.06586,-0.0218 -0.02345,-0.0121 -0.04702,-0.0286 -0.06978,-0.0486 -0.02043,-0.018 -0.03944,-0.038 -0.05639,-0.0589 -0.227125,-0.42228 -0.338814,-0.89073 -0.37694,-1.34215 -0.0032,-0.0608 -0.0104,-0.13295 -0.01387,-0.19789 -0.0037,-0.0676 -0.0035,-0.12504 0.0036,-0.17894 -6.87e-4,0.004 1.73e-4,-7e-4 8.77e-4,-0.005 7.37e-4,-0.004 0.0015,-0.009 0.0023,-0.0141 0.0016,-0.0103 0.0033,-0.0206 0.0052,-0.0319 0.002,-0.0116 0.0041,-0.0228 0.0063,-0.0334 0.0024,-0.0112 0.0046,-0.0204 0.0067,-0.0279 0.0021,-0.008 0.0041,-0.0122 0.0031,-0.0111 -4.97e-4,5.9e-4 -0.0018,0.003 -0.0055,0.007 -0.0034,0.004 -0.01076,0.0117 -0.02273,0.0187 -0.01334,0.008 -0.03172,0.0141 -0.05334,0.0133 -0.01058,-3.7e-4 -0.02026,-0.002 -0.02872,-0.005 -0.0085,-0.003 -0.01536,-0.007 -0.02055,-0.0101 -0.0103,-0.007 -0.01555,-0.0136 -0.01717,-0.0159 -0.0021,-0.003 -0.0016,-0.003 -3.34e-4,-0.001 l -0.0099,-0.0253 c 0.01609,0.0571 0.02627,0.11101 0.0333,0.15371 0.0083,0.0503 0.01311,0.0839 0.01755,0.11165 0.0076,0.0474 0.01523,0.0874 0.01882,0.17568 0.0013,0.0326 0.0021,0.0676 0.0027,0.10936 -1.88e-4,0.15256 -0.005,0.36038 -0.03871,0.56199 -0.02844,0.17006 -0.07898,0.34861 -0.174145,0.51412 -0.0607,0.10689 -0.150136,0.19954 -0.260283,0.26727 -0.106379,0.0654 -0.228091,0.10502 -0.352182,0.11165 -0.04248,0.003 -0.08286,-0.002 -0.121669,-0.0128 -0.03949,-0.0108 -0.07735,-0.0277 -0.112539,-0.0493 -0.07459,-0.0459 -0.133992,-0.11114 -0.173185,-0.18095 -0.04383,-0.0755 -0.07526,-0.15326 -0.09691,-0.23007 -0.01612,-0.0572 -0.02771,-0.11722 -0.03406,-0.17927 -0.0144,-0.14078 -0.0013,-0.2883 0.04338,-0.42819 0.05002,-0.21696 0.126791,-0.41831 0.231771,-0.60042 0.109445,-0.18985 0.245048,-0.35114 0.401258,-0.47826 0.124225,-0.10289 0.261696,-0.16752 0.390259,-0.20101 0.18091,-0.0471 0.329641,-0.0303 0.428712,-0.005 a 0.11623444,0.11623444 90 0 0 0.05802,-0.22512 z"
       id="path-1"
       inkscape:path-effect="#path-effect518;#path-effect520"
       inkscape:original-d="m -13.660223,149.61222 c -0.81628,-0.19338 -1.436543,0.6367 -1.588968,1.34869 -0.190567,0.5312 0.09258,1.42731 0.797225,1.19593 0.660558,-0.19993 0.724109,-1.01156 0.715749,-1.59185 0.0032,-0.27162 -0.05685,-0.88242 -0.149264,-0.30461 0.0016,0.59968 0.121793,1.22303 0.409752,1.75364 0.486359,0.59674 0.938079,-0.39167 0.930603,-0.83884 0.08606,-0.63684 0.02441,-1.44637 -0.557459,-1.83601 -0.81995,-0.34967 -1.677181,0.33545 -2.023877,1.05058 -0.506533,0.99291 -0.504202,2.24733 0.01701,3.23165 0.3477,0.54019 1.085232,0.50698 1.5615,0.16843 0.739411,-0.45655 1.280789,-1.21387 1.562043,-2.02784 0.07102,-0.25885 0.0975,-0.52832 0.09537,-0.7962"
       style="fill:#000000;fill-rule:nonzero;stroke:none;stroke-width:1.41629" />
  </g>
</svg>
