<?xml version="1.0" encoding="UTF-8" standalone="no"?>
<!-- Created with Inkscape (http://www.inkscape.org/) -->

<svg
   width="6mm"
   height="10mm"
   viewBox="0 0 6.0000001 9.9999994"
   version="1.1"
   id="svg1681"
   inkscape:version="1.2.1 (9c6d41e410, 2022-07-14)"
   sodipodi:docname="@ symbol 1.2.svg"
   inkscape:export-filename="..\..\..\..\Downloads\lower a diff canvas resize 3.0.png"
   inkscape:export-xdpi="96"
   inkscape:export-ydpi="96"
   xmlns:inkscape="http://www.inkscape.org/namespaces/inkscape"
   xmlns:sodipodi="http://sodipodi.sourceforge.net/DTD/sodipodi-0.dtd"
   xmlns="http://www.w3.org/2000/svg"
   xmlns:svg="http://www.w3.org/2000/svg"
   xmlns:rdf="http://www.w3.org/1999/02/22-rdf-syntax-ns#"
   xmlns:cc="http://creativecommons.org/ns#"
   xmlns:dc="http://purl.org/dc/elements/1.1/">
  <defs
     id="defs1675">
    <inkscape:path-effect
       effect="powerstroke"
       id="path-effect280"
       is_visible="true"
       lpeversion="1"
       offset_points="3.3579045,0.12939314 | 18.822375,0.16597873"
       not_jump="true"
       sort_points="true"
       interpolator_type="CentripetalCatmullRom"
       interpolator_beta="0.75"
       start_linecap_type="round"
       linejoin_type="spiro"
       miter_limit="4"
       scale_width="1"
       end_linecap_type="round" />
    <inkscape:path-effect
       effect="simplify"
       id="path-effect278"
       is_visible="true"
       lpeversion="1"
       steps="1"
       threshold="0.0035951417"
       smooth_angles="0"
       helper_size="0"
       simplify_individual_paths="false"
       simplify_just_coalesce="false"
       step="1" />
    <inkscape:path-effect
       effect="powerstroke"
       id="path-effect273"
       is_visible="true"
       lpeversion="1"
       offset_points="2.7597594,0.083244408 | 16.82786,0.10893713 | 21.189661,0.094255573"
       not_jump="true"
       sort_points="true"
       interpolator_type="CentripetalCatmullRom"
       interpolator_beta="0.75"
       start_linecap_type="round"
       linejoin_type="spiro"
       miter_limit="4"
       scale_width="1"
       end_linecap_type="round" />
    <inkscape:path-effect
       effect="simplify"
       id="path-effect271"
       is_visible="true"
       lpeversion="1"
       steps="1"
       threshold="0.0035951417"
       smooth_angles="0"
       helper_size="0"
       simplify_individual_paths="false"
       simplify_just_coalesce="false"
       step="1" />
    <inkscape:path-effect
       effect="powerstroke"
       id="path-effect502"
       is_visible="true"
       lpeversion="1"
       offset_points="3.0091841,0.21607495 | 7.3602657,0.17554228 | 9.4159651,0.20236537"
       not_jump="true"
       sort_points="true"
       interpolator_type="CentripetalCatmullRom"
       interpolator_beta="0.75"
       start_linecap_type="round"
       linejoin_type="spiro"
       miter_limit="4"
       scale_width="1"
       end_linecap_type="round" />
    <inkscape:path-effect
       effect="simplify"
       id="path-effect500"
       is_visible="true"
       lpeversion="1"
       steps="1"
       threshold="0.0035951417"
       smooth_angles="0"
       helper_size="0"
       simplify_individual_paths="false"
       simplify_just_coalesce="false"
       step="1" />
    <inkscape:path-effect
       effect="powerstroke"
       id="path-effect241"
       is_visible="true"
       lpeversion="1"
       offset_points="2.6879454,0.34086734"
       not_jump="true"
       sort_points="true"
       interpolator_type="CentripetalCatmullRom"
       interpolator_beta="0.75"
       start_linecap_type="round"
       linejoin_type="spiro"
       miter_limit="4"
       scale_width="1"
       end_linecap_type="round" />
    <inkscape:path-effect
       effect="simplify"
       id="path-effect239"
       is_visible="true"
       lpeversion="1"
       steps="1"
       threshold="0.0028332064"
       smooth_angles="0"
       helper_size="0"
       simplify_individual_paths="false"
       simplify_just_coalesce="false"
       step="1" />
    <inkscape:path-effect
       effect="powerstroke"
       id="path-effect234"
       is_visible="true"
       lpeversion="1"
       offset_points="2.13563,0.075169555"
       not_jump="true"
       sort_points="true"
       interpolator_type="CentripetalCatmullRom"
       interpolator_beta="0.75"
       start_linecap_type="round"
       linejoin_type="spiro"
       miter_limit="4"
       scale_width="1"
       end_linecap_type="round" />
    <inkscape:path-effect
       effect="simplify"
       id="path-effect232"
       is_visible="true"
       lpeversion="1"
       steps="1"
       threshold="0.0028332064"
       smooth_angles="0"
       helper_size="0"
       simplify_individual_paths="false"
       simplify_just_coalesce="false"
       step="1" />
    <inkscape:path-effect
       effect="powerstroke"
       id="path-effect227"
       is_visible="true"
       lpeversion="1"
       offset_points="2.1868266,0.075169555"
       not_jump="true"
       sort_points="true"
       interpolator_type="CentripetalCatmullRom"
       interpolator_beta="0.75"
       start_linecap_type="round"
       linejoin_type="spiro"
       miter_limit="4"
       scale_width="1"
       end_linecap_type="round" />
    <inkscape:path-effect
       effect="simplify"
       id="path-effect225"
       is_visible="true"
       lpeversion="1"
       steps="1"
       threshold="0.0028332064"
       smooth_angles="0"
       helper_size="0"
       simplify_individual_paths="false"
       simplify_just_coalesce="false"
       step="1" />
    <inkscape:path-effect
       effect="powerstroke"
       id="path-effect166"
       is_visible="true"
       lpeversion="1"
       offset_points="1.9637935,0.075169555"
       not_jump="true"
       sort_points="true"
       interpolator_type="CentripetalCatmullRom"
       interpolator_beta="0.75"
       start_linecap_type="round"
       linejoin_type="spiro"
       miter_limit="4"
       scale_width="1"
       end_linecap_type="round" />
    <inkscape:path-effect
       effect="simplify"
       id="path-effect164"
       is_visible="true"
       lpeversion="1"
       steps="1"
       threshold="0.0028332064"
       smooth_angles="0"
       helper_size="0"
       simplify_individual_paths="false"
       simplify_just_coalesce="false"
       step="1" />
    <inkscape:path-effect
       effect="powerstroke"
       id="path-effect159"
       is_visible="true"
       lpeversion="1"
       offset_points="2.2611036,0.075169555"
       not_jump="true"
       sort_points="true"
       interpolator_type="CentripetalCatmullRom"
       interpolator_beta="0.75"
       start_linecap_type="round"
       linejoin_type="spiro"
       miter_limit="4"
       scale_width="1"
       end_linecap_type="round" />
    <inkscape:path-effect
       effect="simplify"
       id="path-effect157"
       is_visible="true"
       lpeversion="1"
       steps="1"
       threshold="0.0028332064"
       smooth_angles="0"
       helper_size="0"
       simplify_individual_paths="false"
       simplify_just_coalesce="false"
       step="1" />
    <inkscape:path-effect
       effect="powerstroke"
       id="path-effect152"
       is_visible="true"
       lpeversion="1"
       offset_points="2.826981,0.075169555"
       not_jump="true"
       sort_points="true"
       interpolator_type="CentripetalCatmullRom"
       interpolator_beta="0.75"
       start_linecap_type="round"
       linejoin_type="spiro"
       miter_limit="4"
       scale_width="1"
       end_linecap_type="round" />
    <inkscape:path-effect
       effect="simplify"
       id="path-effect150"
       is_visible="true"
       lpeversion="1"
       steps="1"
       threshold="0.0028332064"
       smooth_angles="0"
       helper_size="0"
       simplify_individual_paths="false"
       simplify_just_coalesce="false"
       step="1" />
    <inkscape:path-effect
       effect="powerstroke"
       id="path-effect145"
       is_visible="true"
       lpeversion="1"
       offset_points="3.8374447,0.075169555"
       not_jump="true"
       sort_points="true"
       interpolator_type="CentripetalCatmullRom"
       interpolator_beta="0.75"
       start_linecap_type="round"
       linejoin_type="spiro"
       miter_limit="4"
       scale_width="1"
       end_linecap_type="round" />
    <inkscape:path-effect
       effect="simplify"
       id="path-effect143"
       is_visible="true"
       lpeversion="1"
       steps="1"
       threshold="0.0028332064"
       smooth_angles="0"
       helper_size="0"
       simplify_individual_paths="false"
       simplify_just_coalesce="false"
       step="1" />
    <inkscape:path-effect
       effect="powerstroke"
       id="path-effect138"
       is_visible="true"
       lpeversion="1"
       offset_points="2.6880907,0.075169555"
       not_jump="true"
       sort_points="true"
       interpolator_type="CentripetalCatmullRom"
       interpolator_beta="0.75"
       start_linecap_type="round"
       linejoin_type="spiro"
       miter_limit="4"
       scale_width="1"
       end_linecap_type="round" />
    <inkscape:path-effect
       effect="simplify"
       id="path-effect136"
       is_visible="true"
       lpeversion="1"
       steps="1"
       threshold="0.0028332064"
       smooth_angles="0"
       helper_size="0"
       simplify_individual_paths="false"
       simplify_just_coalesce="false"
       step="1" />
    <inkscape:path-effect
       effect="powerstroke"
       id="path-effect131"
       is_visible="true"
       lpeversion="1"
       offset_points="1.9940581,0.075169555"
       not_jump="true"
       sort_points="true"
       interpolator_type="CentripetalCatmullRom"
       interpolator_beta="0.75"
       start_linecap_type="round"
       linejoin_type="spiro"
       miter_limit="4"
       scale_width="1"
       end_linecap_type="round" />
    <inkscape:path-effect
       effect="simplify"
       id="path-effect129"
       is_visible="true"
       lpeversion="1"
       steps="1"
       threshold="0.0028332064"
       smooth_angles="0"
       helper_size="0"
       simplify_individual_paths="false"
       simplify_just_coalesce="false"
       step="1" />
  </defs>
  <sodipodi:namedview
     id="base"
     pagecolor="#ffffff"
     bordercolor="#666666"
     borderopacity="1.0"
     inkscape:pageopacity="0.0"
     inkscape:pageshadow="2"
     inkscape:zoom="7.919596"
     inkscape:cx="-5.3033008"
     inkscape:cy="20.834396"
     inkscape:document-units="mm"
     inkscape:current-layer="layer1"
     showgrid="false"
     fit-margin-top="0"
     fit-margin-left="0"
     fit-margin-right="0"
     fit-margin-bottom="0"
     inkscape:window-width="1920"
     inkscape:window-height="974"
     inkscape:window-x="-11"
     inkscape:window-y="2869"
     inkscape:window-maximized="1"
     showguides="true"
     inkscape:guide-bbox="true"
     inkscape:snap-bbox="true"
     inkscape:bbox-nodes="true"
     inkscape:snap-nodes="false"
     inkscape:snap-others="false"
     inkscape:snap-page="true"
     inkscape:snap-grids="false"
     inkscape:snap-to-guides="false"
     inkscape:snap-global="false"
     inkscape:pagecheckerboard="0"
     inkscape:showpageshadow="2"
     inkscape:deskcolor="#d1d1d1">
    <sodipodi:guide
       position="-6.1806075,9.4988692"
       orientation="0,1"
       id="guide816"
       inkscape:locked="false" />
    <sodipodi:guide
       position="-4.4101636,10.646923"
       orientation="0,1"
       id="guide818"
       inkscape:locked="false" />
    <sodipodi:guide
       position="2.7595724,11.09577"
       orientation="1,0"
       id="guide820"
       inkscape:locked="false" />
    <sodipodi:guide
       position="3.6572659,10.942217"
       orientation="1,0"
       id="guide822"
       inkscape:locked="false" />
    <sodipodi:guide
       position="-0.051625511,9.7492299"
       orientation="1,0"
       id="guide1853"
       inkscape:locked="false" />
    <sodipodi:guide
       position="-2.3720169,3.0175835"
       orientation="0,1"
       id="guide1855"
       inkscape:locked="false" />
  </sodipodi:namedview>
  <metadata
     id="metadata1678">
    <rdf:RDF>
      <cc:Work
         rdf:about="">
        <dc:format>image/svg+xml</dc:format>
        <dc:type
           rdf:resource="http://purl.org/dc/dcmitype/StillImage" />
      </cc:Work>
    </rdf:RDF>
  </metadata>
  <g
     inkscape:label="Layer 1"
     inkscape:groupmode="layer"
     id="layer1"
     transform="translate(17.028496,-147.22856)">
    <path
       d="m -12.688118,150.10952 c -0.214805,0.006 -0.481513,0.0599 -0.763831,0.2196 -0.206873,0.11702 -0.416674,0.28874 -0.593217,0.51716 -0.119352,0.15653 -0.254781,0.36693 -0.32924,0.6152 -0.02277,0.0973 -0.02867,0.19135 -0.01981,0.28545 0.0086,0.0909 0.03101,0.18255 0.06779,0.26955 0.03571,0.0845 0.08533,0.16541 0.149451,0.23631 0.06259,0.0692 0.13939,0.12913 0.229752,0.1721 0.06038,0.0284 0.122847,0.0454 0.186055,0.0532 0.02683,0.003 0.0537,0.005 0.08047,0.005 0.03438,1.2e-4 0.06911,-0.002 0.104005,-0.007 0.113008,-0.0152 0.226873,-0.0547 0.332284,-0.11063 0.122351,-0.0649 0.230121,-0.15587 0.322011,-0.26744 0.08468,-0.10283 0.154462,-0.22142 0.20896,-0.34856 0.09686,-0.22181 0.152695,-0.4571 0.200446,-0.70621 0.0018,-0.01 0.0025,-0.0192 0.0023,-0.0289 -0.0015,-0.0631 -0.0088,-0.13362 -0.02789,-0.2039 -0.01848,-0.068 -0.04898,-0.13932 -0.09917,-0.20329 -0.02393,-0.0271 -0.04643,-0.0455 -0.07307,-0.0587 -0.02698,-0.0134 -0.05626,-0.0205 -0.08621,-0.0209 -0.02944,-3.3e-4 -0.05659,0.006 -0.08026,0.0158 -0.02332,0.01 -0.04341,0.0229 -0.0602,0.0372 -0.03273,0.028 -0.05728,0.0639 -0.07268,0.10152 -0.01239,0.0303 -0.02076,0.0664 -0.01958,0.10512 -0.03766,0.24956 -0.02638,0.49982 -0.0093,0.74257 2.83e-4,0.004 7.88e-4,0.008 0.0014,0.012 0.01287,0.0831 0.02925,0.18072 0.06004,0.27515 0.0155,0.0475 0.03513,0.0959 0.06081,0.14279 0.02464,0.045 0.05491,0.0889 0.09248,0.12946 0.0257,0.0313 0.05695,0.0576 0.09298,0.0765 0.03771,0.0198 0.07952,0.0308 0.122776,0.0314 0.04319,5.6e-4 0.08559,-0.009 0.12432,-0.0287 0.03398,-0.0169 0.06396,-0.0405 0.08924,-0.0688 0.05237,-0.0468 0.09431,-0.0998 0.127779,-0.15614 0.0351,-0.0591 0.06067,-0.12135 0.07953,-0.18353 0.03741,-0.12335 0.05001,-0.25192 0.05542,-0.36395 0.0015,-0.13349 0.0078,-0.28067 -4.56e-4,-0.4231 -0.0085,-0.14597 -0.03235,-0.29859 -0.09598,-0.44675 -0.03639,-0.0752 -0.07768,-0.14734 -0.130462,-0.21334 -0.05359,-0.067 -0.120543,-0.12957 -0.204706,-0.17474 -0.09566,-0.0508 -0.198995,-0.075 -0.299817,-0.0785 -0.0967,-0.003 -0.192811,0.0124 -0.28142,0.0437 -0.301253,0.0516 -0.576029,0.17748 -0.812446,0.3462 -0.246826,0.17614 -0.454142,0.40039 -0.612598,0.6438 -0.198322,0.30138 -0.319516,0.63697 -0.405776,0.94367 -0.06814,0.25474 -0.104506,0.51595 -0.09836,0.77192 0.0065,0.2714 0.0607,0.53357 0.172207,0.77392 0.05983,0.14735 0.162845,0.2691 0.278767,0.35909 0.08019,0.0623 0.167448,0.10991 0.255622,0.1439 0.05033,0.0194 0.102177,0.0348 0.154832,0.046 0.269499,0.0624 0.551449,0.0245 0.793546,-0.0805 0.465135,-0.17374 0.872338,-0.4772 1.186897,-0.84735 0.324344,-0.38166 0.551513,-0.8351 0.660088,-1.30731 0.06298,-0.28407 0.0898,-0.56313 0.06155,-0.83404 -0.04364,-0.30309 -0.189941,-0.56568 -0.379349,-0.75858 -0.102219,-0.10411 -0.218234,-0.18954 -0.342131,-0.25331 -0.131579,-0.0677 -0.27127,-0.11066 -0.41364,-0.12711 -0.110367,-0.0147 -0.166526,-0.0242 -0.251989,-0.0286 a 0.16597873,0.16597873 90 0 0 -0.01678,0.33154 c 0.06681,0.003 0.106811,0.0107 0.227282,0.0272 0.104387,0.0122 0.2055,0.043 0.302585,0.093 0.09158,0.0472 0.178902,0.11131 0.256723,0.19067 0.145402,0.14829 0.254627,0.34764 0.286069,0.56614 0.02253,0.2195 8.5e-4,0.46132 -0.05637,0.71936 -0.09613,0.41801 -0.298587,0.82307 -0.588699,1.16455 -0.281299,0.33111 -0.642505,0.59901 -1.057253,0.7543 -0.192338,0.0835 -0.401518,0.11006 -0.596921,0.0655 -0.03828,-0.008 -0.07331,-0.0183 -0.107446,-0.0314 -0.05997,-0.0229 -0.118712,-0.0548 -0.17199,-0.0959 -0.07674,-0.0591 -0.141091,-0.13608 -0.179525,-0.22916 -0.09345,-0.20066 -0.140261,-0.41732 -0.146469,-0.65024 -0.0059,-0.2202 0.02477,-0.45023 0.08499,-0.67802 0.08039,-0.29053 0.189286,-0.59067 0.360671,-0.85382 0.138019,-0.21332 0.317596,-0.40808 0.529071,-0.55993 0.205635,-0.14765 0.440086,-0.25382 0.692928,-0.29571 0.01061,-0.002 0.02105,-0.004 0.03107,-0.008 0.05485,-0.0215 0.115125,-0.0326 0.174833,-0.0312 0.05848,0.001 0.114592,0.0146 0.163702,0.0399 0.03869,0.0201 0.0753,0.0513 0.110028,0.0935 0.03452,0.042 0.06502,0.0923 0.09283,0.14772 0.04203,0.0965 0.06267,0.21045 0.07082,0.33671 0.0083,0.12859 0.0033,0.25523 0.0027,0.39687 -0.004,0.0974 -0.01423,0.1974 -0.04033,0.28615 -0.01288,0.0438 -0.0292,0.0833 -0.04955,0.11828 -0.02022,0.0347 -0.04459,0.0652 -0.0742,0.0912 -0.0033,0.003 -0.0067,0.006 -0.0099,0.009 -0.0032,0.003 -0.0059,0.007 -0.0085,0.0102 -0.0027,0.004 -0.0034,0.004 -0.0013,0.003 0.0023,-8.6e-4 0.0059,-0.002 0.01053,-0.002 0.0045,2.8e-4 0.0077,0.002 0.0089,0.003 0.001,7.8e-4 -6.24e-4,5.8e-4 -0.0042,-0.004 -0.0027,-0.003 -0.0053,-0.006 -0.0082,-0.009 -0.02083,-0.0215 -0.03873,-0.0461 -0.05435,-0.0739 -0.01575,-0.028 -0.02913,-0.0592 -0.0407,-0.0934 -0.02317,-0.0686 -0.03744,-0.14391 -0.05087,-0.22453 -0.01874,-0.24309 -0.0288,-0.46881 0.0044,-0.68762 0.0011,-0.007 0.0019,-0.014 0.0019,-0.021 -2.9e-5,-0.007 -8.71e-4,-0.0141 -0.0018,-0.0211 0.0014,0.0106 -6.82e-4,0.0131 -0.0011,0.0136 -4.58e-4,5.5e-4 3.37e-4,2.3e-4 -0.0045,0.004 -0.0022,0.002 -0.0066,0.005 -0.01348,0.008 -0.0071,0.003 -0.01697,0.005 -0.02884,0.005 -0.01227,-2.1e-4 -0.02361,-0.003 -0.03285,-0.008 -0.009,-0.005 -0.01363,-0.009 -0.01488,-0.0109 0.01722,0.0215 0.03451,0.0571 0.04659,0.099 0.01135,0.0394 0.0175,0.0824 0.01991,0.12585 -0.04427,0.23723 -0.094,0.44469 -0.17617,0.63605 -0.04561,0.10815 -0.102442,0.20498 -0.168874,0.28654 -0.07181,0.0882 -0.152995,0.15633 -0.241656,0.20386 -0.08242,0.0444 -0.166726,0.073 -0.244536,0.0839 -0.02379,0.003 -0.04667,0.005 -0.06857,0.005 -0.01705,1e-5 -0.03369,-9.4e-4 -0.04989,-0.003 -0.03797,-0.004 -0.07367,-0.0143 -0.106973,-0.0299 -0.05696,-0.0269 -0.106902,-0.0654 -0.148877,-0.11167 -0.04316,-0.0476 -0.07787,-0.10346 -0.103409,-0.1637 -0.0263,-0.062 -0.04254,-0.12792 -0.04874,-0.19339 -0.0064,-0.0677 -0.002,-0.13404 0.01215,-0.19537 0.05974,-0.19838 0.175106,-0.38025 0.285125,-0.52404 0.154269,-0.19929 0.337548,-0.34859 0.515973,-0.44931 0.242402,-0.13684 0.467175,-0.18107 0.643678,-0.18581 a 0.12939314,0.12939314 90 0 0 -0.0069,-0.2587 z"
       id="path-1"
       inkscape:path-effect="#path-effect278;#path-effect280"
       inkscape:original-d="m -12.684644,150.23887 c -0.706367,0.0212 -1.311789,0.56656 -1.552172,1.20822 -0.117542,0.35971 0.08751,0.83965 0.484563,0.90369 0.346832,0.0295 0.675554,-0.1965 0.836736,-0.49484 0.147829,-0.2525 0.211629,-0.54356 0.269435,-0.82551 0.01218,-0.12072 -0.08498,-0.49376 -0.227141,-0.32095 -0.05685,0.25317 -0.0414,0.522 -0.02788,0.78073 0.02544,0.20201 0.09612,0.52462 0.303926,0.56867 0.289926,-0.14256 0.316409,-0.50908 0.316971,-0.79347 9.64e-4,-0.28958 0.0063,-0.60851 -0.192374,-0.84343 -0.140693,-0.20526 -0.410879,-0.24974 -0.632125,-0.16493 -0.73515,0.12256 -1.315714,0.71751 -1.571168,1.39723 -0.246482,0.60456 -0.3574,1.32889 -0.04185,1.9301 0.226507,0.41089 0.786241,0.49978 1.192443,0.32818 1.12407,-0.39843 1.912665,-1.58118 1.855636,-2.77099 -0.04663,-0.52866 -0.484308,-1.00648 -1.020554,-1.05523 -0.07149,-0.0126 -0.14373,-0.0208 -0.216159,-0.0255"
       style="fill:#000000;fill-rule:nonzero;stroke:none;stroke-width:1.40788" />
  </g>
</svg>
