<?xml version="1.0" encoding="UTF-8" standalone="no"?>
<!-- Created with Inkscape (http://www.inkscape.org/) -->

<svg
   width="6mm"
   height="10mm"
   viewBox="0 0 6.0000001 9.9999994"
   version="1.1"
   id="svg1681"
   inkscape:version="1.2.1 (9c6d41e410, 2022-07-14)"
   sodipodi:docname="@ symbol 1.3.svg"
   inkscape:export-filename="..\..\..\..\Downloads\lower a diff canvas resize 3.0.png"
   inkscape:export-xdpi="96"
   inkscape:export-ydpi="96"
   xmlns:inkscape="http://www.inkscape.org/namespaces/inkscape"
   xmlns:sodipodi="http://sodipodi.sourceforge.net/DTD/sodipodi-0.dtd"
   xmlns="http://www.w3.org/2000/svg"
   xmlns:svg="http://www.w3.org/2000/svg"
   xmlns:rdf="http://www.w3.org/1999/02/22-rdf-syntax-ns#"
   xmlns:cc="http://creativecommons.org/ns#"
   xmlns:dc="http://purl.org/dc/elements/1.1/">
  <defs
     id="defs1675">
    <inkscape:path-effect
       effect="powerstroke"
       id="path-effect431"
       is_visible="true"
       lpeversion="1"
       offset_points="3.6217867,0.11096282 | 5.1318942,0.12945662"
       not_jump="true"
       sort_points="true"
       interpolator_type="CentripetalCatmullRom"
       interpolator_beta="0.75"
       start_linecap_type="round"
       linejoin_type="spiro"
       miter_limit="4"
       scale_width="1"
       end_linecap_type="round" />
    <inkscape:path-effect
       effect="simplify"
       id="path-effect429"
       is_visible="true"
       lpeversion="1"
       steps="1"
       threshold="0.0035951417"
       smooth_angles="0"
       helper_size="0"
       simplify_individual_paths="false"
       simplify_just_coalesce="false"
       step="1" />
    <inkscape:path-effect
       effect="powerstroke"
       id="path-effect502"
       is_visible="true"
       lpeversion="1"
       offset_points="3.0091841,0.21607495 | 7.3602657,0.17554228 | 9.4159651,0.20236537"
       not_jump="true"
       sort_points="true"
       interpolator_type="CentripetalCatmullRom"
       interpolator_beta="0.75"
       start_linecap_type="round"
       linejoin_type="spiro"
       miter_limit="4"
       scale_width="1"
       end_linecap_type="round" />
    <inkscape:path-effect
       effect="simplify"
       id="path-effect500"
       is_visible="true"
       lpeversion="1"
       steps="1"
       threshold="0.0035951417"
       smooth_angles="0"
       helper_size="0"
       simplify_individual_paths="false"
       simplify_just_coalesce="false"
       step="1" />
    <inkscape:path-effect
       effect="powerstroke"
       id="path-effect241"
       is_visible="true"
       lpeversion="1"
       offset_points="2.6879454,0.34086734"
       not_jump="true"
       sort_points="true"
       interpolator_type="CentripetalCatmullRom"
       interpolator_beta="0.75"
       start_linecap_type="round"
       linejoin_type="spiro"
       miter_limit="4"
       scale_width="1"
       end_linecap_type="round" />
    <inkscape:path-effect
       effect="simplify"
       id="path-effect239"
       is_visible="true"
       lpeversion="1"
       steps="1"
       threshold="0.0028332064"
       smooth_angles="0"
       helper_size="0"
       simplify_individual_paths="false"
       simplify_just_coalesce="false"
       step="1" />
    <inkscape:path-effect
       effect="powerstroke"
       id="path-effect234"
       is_visible="true"
       lpeversion="1"
       offset_points="2.13563,0.075169555"
       not_jump="true"
       sort_points="true"
       interpolator_type="CentripetalCatmullRom"
       interpolator_beta="0.75"
       start_linecap_type="round"
       linejoin_type="spiro"
       miter_limit="4"
       scale_width="1"
       end_linecap_type="round" />
    <inkscape:path-effect
       effect="simplify"
       id="path-effect232"
       is_visible="true"
       lpeversion="1"
       steps="1"
       threshold="0.0028332064"
       smooth_angles="0"
       helper_size="0"
       simplify_individual_paths="false"
       simplify_just_coalesce="false"
       step="1" />
    <inkscape:path-effect
       effect="powerstroke"
       id="path-effect227"
       is_visible="true"
       lpeversion="1"
       offset_points="2.1868266,0.075169555"
       not_jump="true"
       sort_points="true"
       interpolator_type="CentripetalCatmullRom"
       interpolator_beta="0.75"
       start_linecap_type="round"
       linejoin_type="spiro"
       miter_limit="4"
       scale_width="1"
       end_linecap_type="round" />
    <inkscape:path-effect
       effect="simplify"
       id="path-effect225"
       is_visible="true"
       lpeversion="1"
       steps="1"
       threshold="0.0028332064"
       smooth_angles="0"
       helper_size="0"
       simplify_individual_paths="false"
       simplify_just_coalesce="false"
       step="1" />
    <inkscape:path-effect
       effect="powerstroke"
       id="path-effect166"
       is_visible="true"
       lpeversion="1"
       offset_points="1.9637935,0.075169555"
       not_jump="true"
       sort_points="true"
       interpolator_type="CentripetalCatmullRom"
       interpolator_beta="0.75"
       start_linecap_type="round"
       linejoin_type="spiro"
       miter_limit="4"
       scale_width="1"
       end_linecap_type="round" />
    <inkscape:path-effect
       effect="simplify"
       id="path-effect164"
       is_visible="true"
       lpeversion="1"
       steps="1"
       threshold="0.0028332064"
       smooth_angles="0"
       helper_size="0"
       simplify_individual_paths="false"
       simplify_just_coalesce="false"
       step="1" />
    <inkscape:path-effect
       effect="powerstroke"
       id="path-effect159"
       is_visible="true"
       lpeversion="1"
       offset_points="2.2611036,0.075169555"
       not_jump="true"
       sort_points="true"
       interpolator_type="CentripetalCatmullRom"
       interpolator_beta="0.75"
       start_linecap_type="round"
       linejoin_type="spiro"
       miter_limit="4"
       scale_width="1"
       end_linecap_type="round" />
    <inkscape:path-effect
       effect="simplify"
       id="path-effect157"
       is_visible="true"
       lpeversion="1"
       steps="1"
       threshold="0.0028332064"
       smooth_angles="0"
       helper_size="0"
       simplify_individual_paths="false"
       simplify_just_coalesce="false"
       step="1" />
    <inkscape:path-effect
       effect="powerstroke"
       id="path-effect152"
       is_visible="true"
       lpeversion="1"
       offset_points="2.826981,0.075169555"
       not_jump="true"
       sort_points="true"
       interpolator_type="CentripetalCatmullRom"
       interpolator_beta="0.75"
       start_linecap_type="round"
       linejoin_type="spiro"
       miter_limit="4"
       scale_width="1"
       end_linecap_type="round" />
    <inkscape:path-effect
       effect="simplify"
       id="path-effect150"
       is_visible="true"
       lpeversion="1"
       steps="1"
       threshold="0.0028332064"
       smooth_angles="0"
       helper_size="0"
       simplify_individual_paths="false"
       simplify_just_coalesce="false"
       step="1" />
    <inkscape:path-effect
       effect="powerstroke"
       id="path-effect145"
       is_visible="true"
       lpeversion="1"
       offset_points="3.8374447,0.075169555"
       not_jump="true"
       sort_points="true"
       interpolator_type="CentripetalCatmullRom"
       interpolator_beta="0.75"
       start_linecap_type="round"
       linejoin_type="spiro"
       miter_limit="4"
       scale_width="1"
       end_linecap_type="round" />
    <inkscape:path-effect
       effect="simplify"
       id="path-effect143"
       is_visible="true"
       lpeversion="1"
       steps="1"
       threshold="0.0028332064"
       smooth_angles="0"
       helper_size="0"
       simplify_individual_paths="false"
       simplify_just_coalesce="false"
       step="1" />
    <inkscape:path-effect
       effect="powerstroke"
       id="path-effect138"
       is_visible="true"
       lpeversion="1"
       offset_points="2.6880907,0.075169555"
       not_jump="true"
       sort_points="true"
       interpolator_type="CentripetalCatmullRom"
       interpolator_beta="0.75"
       start_linecap_type="round"
       linejoin_type="spiro"
       miter_limit="4"
       scale_width="1"
       end_linecap_type="round" />
    <inkscape:path-effect
       effect="simplify"
       id="path-effect136"
       is_visible="true"
       lpeversion="1"
       steps="1"
       threshold="0.0028332064"
       smooth_angles="0"
       helper_size="0"
       simplify_individual_paths="false"
       simplify_just_coalesce="false"
       step="1" />
    <inkscape:path-effect
       effect="powerstroke"
       id="path-effect131"
       is_visible="true"
       lpeversion="1"
       offset_points="1.9940581,0.075169555"
       not_jump="true"
       sort_points="true"
       interpolator_type="CentripetalCatmullRom"
       interpolator_beta="0.75"
       start_linecap_type="round"
       linejoin_type="spiro"
       miter_limit="4"
       scale_width="1"
       end_linecap_type="round" />
    <inkscape:path-effect
       effect="simplify"
       id="path-effect129"
       is_visible="true"
       lpeversion="1"
       steps="1"
       threshold="0.0028332064"
       smooth_angles="0"
       helper_size="0"
       simplify_individual_paths="false"
       simplify_just_coalesce="false"
       step="1" />
  </defs>
  <sodipodi:namedview
     id="base"
     pagecolor="#ffffff"
     bordercolor="#666666"
     borderopacity="1.0"
     inkscape:pageopacity="0.0"
     inkscape:pageshadow="2"
     inkscape:zoom="7.919596"
     inkscape:cx="-5.1770318"
     inkscape:cy="20.834396"
     inkscape:document-units="mm"
     inkscape:current-layer="layer1"
     showgrid="false"
     fit-margin-top="0"
     fit-margin-left="0"
     fit-margin-right="0"
     fit-margin-bottom="0"
     inkscape:window-width="1920"
     inkscape:window-height="974"
     inkscape:window-x="-11"
     inkscape:window-y="2869"
     inkscape:window-maximized="1"
     showguides="true"
     inkscape:guide-bbox="true"
     inkscape:snap-bbox="true"
     inkscape:bbox-nodes="true"
     inkscape:snap-nodes="false"
     inkscape:snap-others="false"
     inkscape:snap-page="true"
     inkscape:snap-grids="false"
     inkscape:snap-to-guides="false"
     inkscape:snap-global="false"
     inkscape:pagecheckerboard="0"
     inkscape:showpageshadow="2"
     inkscape:deskcolor="#d1d1d1">
    <sodipodi:guide
       position="-6.1806075,9.4988692"
       orientation="0,1"
       id="guide816"
       inkscape:locked="false" />
    <sodipodi:guide
       position="-4.4101636,10.646923"
       orientation="0,1"
       id="guide818"
       inkscape:locked="false" />
    <sodipodi:guide
       position="2.7595724,11.09577"
       orientation="1,0"
       id="guide820"
       inkscape:locked="false" />
    <sodipodi:guide
       position="3.6572659,10.942217"
       orientation="1,0"
       id="guide822"
       inkscape:locked="false" />
    <sodipodi:guide
       position="-0.051625511,9.7492299"
       orientation="1,0"
       id="guide1853"
       inkscape:locked="false" />
    <sodipodi:guide
       position="-2.3720169,3.0175835"
       orientation="0,1"
       id="guide1855"
       inkscape:locked="false" />
  </sodipodi:namedview>
  <metadata
     id="metadata1678">
    <rdf:RDF>
      <cc:Work
         rdf:about="">
        <dc:format>image/svg+xml</dc:format>
        <dc:type
           rdf:resource="http://purl.org/dc/dcmitype/StillImage" />
      </cc:Work>
    </rdf:RDF>
  </metadata>
  <g
     inkscape:label="Layer 1"
     inkscape:groupmode="layer"
     id="layer1"
     transform="translate(17.028496,-147.22856)">
    <path
       d="m -13.59542,150.19483 c -0.06772,-0.026 -0.153958,-0.0484 -0.257336,-0.0529 -0.07861,-0.003 -0.164533,0.004 -0.255257,0.0255 -0.149927,0.036 -0.308771,0.11169 -0.447227,0.23141 -0.139174,0.11675 -0.265111,0.27643 -0.34412,0.46391 -0.03774,0.0896 -0.0646,0.18524 -0.07646,0.28435 -0.01175,0.0982 -0.0087,0.19927 0.01263,0.30019 0.01222,0.0615 0.03271,0.12387 0.06297,0.1817 0.03227,0.0617 0.0744,0.11583 0.126457,0.15998 0.05178,0.0514 0.116089,0.094 0.180993,0.12497 0.07185,0.0343 0.144776,0.0546 0.213178,0.0652 0.03726,0.006 0.07341,0.009 0.107861,0.01 0.130283,0.003 0.243411,-0.024 0.329559,-0.0574 0.153206,-0.0552 0.298999,-0.15531 0.409916,-0.28963 0.07675,-0.0929 0.171165,-0.24509 0.194513,-0.44595 0.0078,-0.0154 0.01494,-0.0315 0.02134,-0.0484 0.008,-0.0211 0.01491,-0.0433 0.02051,-0.0667 0.01053,-0.0439 0.01619,-0.0901 0.01751,-0.139 0.0023,-0.0838 -0.0082,-0.16606 -0.02177,-0.25115 -0.01152,-0.0526 -0.02637,-0.12507 -0.0499,-0.1902 -0.01151,-0.0319 -0.02646,-0.0663 -0.04668,-0.10021 -0.01941,-0.0326 -0.04412,-0.0655 -0.07613,-0.0956 -0.0064,-0.006 -0.0131,-0.012 -0.02064,-0.0167 -0.0075,-0.005 -0.01579,-0.008 -0.02408,-0.0111 -0.02692,-0.0102 -0.05802,-0.0165 -0.09067,-0.0144 -0.03311,0.002 -0.06353,0.0125 -0.08982,0.0288 -0.02505,0.0155 -0.04377,0.0346 -0.05798,0.0532 -0.01375,0.018 -0.02409,0.0366 -0.03199,0.0536 -0.01515,0.0325 -0.0249,0.0665 -0.03168,0.093 -0.0034,0.0133 -0.0064,0.0262 -0.0089,0.0367 -0.0026,0.011 -0.0045,0.0188 -0.0062,0.0248 -0.0019,0.007 -0.0031,0.0138 -0.0039,0.0208 -0.0068,0.0613 -0.0033,0.12024 0.0019,0.17323 0.0052,0.0539 0.01113,0.0952 0.01343,0.13933 0.02692,0.26943 0.06881,0.54798 0.145873,0.81934 0.07494,0.26388 0.184663,0.5266 0.350975,0.76633 0.03837,0.052 0.09059,0.13022 0.144238,0.1918 0.02852,0.0327 0.06133,0.0658 0.09965,0.0955 0.0382,0.0296 0.08196,0.0558 0.13249,0.0752 0.06389,0.0267 0.133681,0.0394 0.202575,0.0397 0.06812,2.8e-4 0.134582,-0.0116 0.197271,-0.0323 0.123108,-0.0406 0.235012,-0.11619 0.320002,-0.20812 0.08408,-0.0877 0.152008,-0.19812 0.191895,-0.31872 0.03791,-0.11463 0.05108,-0.24056 0.02749,-0.36635 0.0071,-0.25149 0.0011,-0.51236 -0.03563,-0.77 -0.03737,-0.26248 -0.106831,-0.5235 -0.228073,-0.76951 -0.05956,-0.11767 -0.131333,-0.2307 -0.216672,-0.33352 -0.08553,-0.10305 -0.184989,-0.19621 -0.29904,-0.27196 -0.0045,-0.003 -0.0091,-0.006 -0.01391,-0.008 -0.172849,-0.0872 -0.361229,-0.12235 -0.545778,-0.11748 -0.185668,0.005 -0.369168,0.0503 -0.534063,0.12574 -0.219797,0.0978 -0.41521,0.23704 -0.583162,0.4003 -0.170023,0.16527 -0.312643,0.35586 -0.426703,0.55636 -0.200205,0.34365 -0.338504,0.72393 -0.404612,1.11235 -0.06743,0.39621 -0.0598,0.80071 0.03223,1.18772 0.02794,0.10623 0.05776,0.21248 0.09708,0.3164 0.04046,0.10695 0.09094,0.21134 0.158845,0.30766 0.135887,0.19053 0.332544,0.32651 0.54266,0.39635 0.108639,0.0361 0.222056,0.055 0.33512,0.0548 0.115663,-2.3e-4 0.230768,-0.0205 0.340083,-0.0626 0.09925,-0.0395 0.185801,-0.0923 0.261549,-0.14554 0.07852,-0.0552 0.155021,-0.11796 0.218997,-0.16955 0.26983,-0.23129 0.48073,-0.49694 0.65466,-0.75884 0.188718,-0.28417 0.349268,-0.58841 0.484557,-0.85271 0.170886,-0.33482 0.268641,-0.65062 0.326076,-0.89113 a 0.12945662,0.12945662 90 0 0 -0.251832,-0.0601 c -0.05398,0.22606 -0.14579,0.52129 -0.305368,0.83301 -0.134912,0.26318 -0.290011,0.55604 -0.470177,0.82693 -0.165722,0.24917 -0.361613,0.49412 -0.604564,0.70212 -0.06405,0.0513 -0.132671,0.10721 -0.202534,0.15601 -0.06634,0.0463 -0.134514,0.0868 -0.206892,0.11538 -0.07654,0.0294 -0.159669,0.0442 -0.24493,0.0442 -0.0835,5e-5 -0.16874,-0.014 -0.251566,-0.0417 -0.161446,-0.0539 -0.310114,-0.15824 -0.410306,-0.29912 -0.05104,-0.0728 -0.09182,-0.15603 -0.126545,-0.24854 -0.034,-0.0905 -0.06075,-0.18591 -0.08719,-0.28732 -0.08217,-0.34677 -0.08943,-0.71503 -0.02731,-1.07858 0.06093,-0.35653 0.188347,-0.70644 0.373473,-1.02373 0.103786,-0.18194 0.231583,-0.35179 0.381861,-0.49755 0.148349,-0.14389 0.318097,-0.2638 0.506906,-0.34761 0.135425,-0.0618 0.283441,-0.0977 0.430598,-0.10139 0.143178,-0.004 0.283748,0.0234 0.409843,0.0856 0.08658,0.0588 0.164514,0.13187 0.233584,0.21537 0.07073,0.0855 0.131588,0.18121 0.182371,0.28191 0.104951,0.21335 0.16754,0.44546 0.201725,0.68666 0.03431,0.24211 0.03977,0.49163 0.03212,0.73914 -3.38e-4,0.0109 6.6e-4,0.0219 0.0029,0.0326 0.0166,0.0781 0.0098,0.16084 -0.01668,0.24071 -0.02682,0.0808 -0.07312,0.15618 -0.131799,0.2173 -0.05782,0.0624 -0.131064,0.11086 -0.206802,0.13576 -0.03784,0.0124 -0.07512,0.0186 -0.110607,0.0185 -0.03554,-1.7e-4 -0.06979,-0.007 -0.102357,-0.0203 -0.02582,-0.01 -0.04639,-0.022 -0.06646,-0.0375 -0.02049,-0.0159 -0.04046,-0.0355 -0.06086,-0.0589 -0.04446,-0.0511 -0.0789,-0.10487 -0.128213,-0.17146 -0.142621,-0.20566 -0.241288,-0.43902 -0.310285,-0.68174 -0.07107,-0.25001 -0.110936,-0.5111 -0.136626,-0.7656 -0.0023,-0.0454 -0.01043,-0.10644 -0.01432,-0.14511 -0.0043,-0.0431 -0.006,-0.0775 -0.0036,-0.10837 0.0019,-0.008 0.0037,-0.0154 0.0052,-0.0221 0.0026,-0.0114 0.0049,-0.0214 0.0075,-0.0317 0.0054,-0.0217 0.01008,-0.0361 0.01431,-0.0455 0.002,-0.004 0.0028,-0.005 0.0016,-0.004 -0.0014,0.002 -0.0058,0.007 -0.01475,0.0125 -0.0099,0.006 -0.02213,0.0103 -0.03499,0.0111 -0.01242,7.7e-4 -0.0204,-0.002 -0.02226,-0.003 -0.0082,-0.003 -0.01637,-0.007 -0.02392,-0.0114 -0.0076,-0.005 -0.01429,-0.0104 -0.0208,-0.0164 0.01108,0.0102 0.0209,0.0225 0.02988,0.0372 0.0095,0.0155 0.0179,0.0336 0.02557,0.054 0.01689,0.0451 0.02842,0.097 0.04102,0.14957 0.01234,0.073 0.02043,0.13548 0.01992,0.19434 -2.86e-4,0.0333 -0.0034,0.0614 -0.0086,0.0857 -0.0028,0.0129 -0.0061,0.0247 -0.0098,0.0355 -0.0046,0.0132 -0.0099,0.0253 -0.01579,0.0364 -0.0044,0.008 -0.0089,0.0168 -0.01173,0.0258 -0.0029,0.009 -0.0039,0.0185 -0.0045,0.028 -0.0091,0.14684 -0.0747,0.26437 -0.13282,0.34003 -0.07917,0.10307 -0.185488,0.1836 -0.301577,0.22973 -0.0638,0.0274 -0.14599,0.0498 -0.242307,0.0491 -0.02531,-1.8e-4 -0.05175,-0.002 -0.07887,-0.006 -0.0499,-0.007 -0.101921,-0.0212 -0.152241,-0.0448 -0.04534,-0.0212 -0.08926,-0.0501 -0.12838,-0.0882 -0.03512,-0.0296 -0.06029,-0.0608 -0.08067,-0.0996 -0.01929,-0.0367 -0.03347,-0.0788 -0.04235,-0.12447 -0.0163,-0.0775 -0.01867,-0.15458 -0.0094,-0.23079 0.0094,-0.0771 0.03062,-0.15302 0.06136,-0.22552 0.06473,-0.15262 0.168879,-0.28447 0.285322,-0.38159 0.11235,-0.0965 0.239316,-0.156 0.356522,-0.18375 0.07052,-0.0167 0.135847,-0.0217 0.194128,-0.019 0.07641,0.004 0.139057,0.0201 0.187551,0.0387 a 0.11096282,0.11096282 90 0 0 0.07963,-0.20714 z"
       id="path-1"
       inkscape:path-effect="#path-effect429;#path-effect431"
       inkscape:original-d="m -13.635237,150.2984 c -0.709608,-0.26216 -1.493962,0.63687 -1.159593,1.30231 0.400563,0.5617 1.279753,0.19724 1.331727,-0.44348 0.174604,-0.25845 -0.129055,-1.18865 -0.246022,-0.54003 0.04607,0.65004 0.151532,1.35146 0.569764,1.8767 0.368018,0.57761 1.107092,0.0145 0.991956,-0.53435 0.02494,-0.72064 -0.07596,-1.57907 -0.701764,-2.03619 -0.679508,-0.34461 -1.44644,0.16222 -1.820563,0.7313 -0.537926,0.79221 -0.720579,1.88037 -0.335233,2.77205 0.220396,0.52024 0.892904,0.7596 1.361122,0.41687 0.661875,-0.43377 1.056521,-1.16624 1.404839,-1.85383 0.112004,-0.24608 0.205099,-0.50148 0.266386,-0.76507"
       style="fill:#000000;fill-rule:nonzero;stroke:none;stroke-width:1.34007" />
  </g>
</svg>
