<?xml version="1.0" encoding="UTF-8" standalone="no"?>
<!-- Created with Inkscape (http://www.inkscape.org/) -->

<svg
   width="6mm"
   height="10mm"
   viewBox="0 0 6.0000001 9.9999994"
   version="1.1"
   id="svg1681"
   inkscape:version="1.2.1 (9c6d41e410, 2022-07-14)"
   sodipodi:docname="lower g 1.4.svg"
   inkscape:export-filename="..\..\..\..\Downloads\lower a diff canvas resize 3.0.png"
   inkscape:export-xdpi="96"
   inkscape:export-ydpi="96"
   xmlns:inkscape="http://www.inkscape.org/namespaces/inkscape"
   xmlns:sodipodi="http://sodipodi.sourceforge.net/DTD/sodipodi-0.dtd"
   xmlns="http://www.w3.org/2000/svg"
   xmlns:svg="http://www.w3.org/2000/svg"
   xmlns:rdf="http://www.w3.org/1999/02/22-rdf-syntax-ns#"
   xmlns:cc="http://creativecommons.org/ns#"
   xmlns:dc="http://purl.org/dc/elements/1.1/">
  <defs
     id="defs1675">
    <inkscape:path-effect
       effect="powerstroke"
       id="path-effect3043"
       is_visible="true"
       lpeversion="1"
       offset_points="1.279388,0.10951017 | 4.8748043,0.099345483 | 5.6886926,0.11526377"
       not_jump="true"
       sort_points="true"
       interpolator_type="CentripetalCatmullRom"
       interpolator_beta="0.75"
       start_linecap_type="round"
       linejoin_type="spiro"
       miter_limit="4"
       scale_width="1"
       end_linecap_type="round" />
    <inkscape:path-effect
       effect="simplify"
       id="path-effect3041"
       is_visible="true"
       lpeversion="1"
       steps="1"
       threshold="0.0035951417"
       smooth_angles="0"
       helper_size="0"
       simplify_individual_paths="false"
       simplify_just_coalesce="false"
       step="1" />
    <inkscape:path-effect
       effect="powerstroke"
       id="path-effect502"
       is_visible="true"
       lpeversion="1"
       offset_points="3.0091841,0.21607495 | 7.3602657,0.17554228 | 9.4159651,0.20236537"
       not_jump="true"
       sort_points="true"
       interpolator_type="CentripetalCatmullRom"
       interpolator_beta="0.75"
       start_linecap_type="round"
       linejoin_type="spiro"
       miter_limit="4"
       scale_width="1"
       end_linecap_type="round" />
    <inkscape:path-effect
       effect="simplify"
       id="path-effect500"
       is_visible="true"
       lpeversion="1"
       steps="1"
       threshold="0.0035951417"
       smooth_angles="0"
       helper_size="0"
       simplify_individual_paths="false"
       simplify_just_coalesce="false"
       step="1" />
    <inkscape:path-effect
       effect="powerstroke"
       id="path-effect241"
       is_visible="true"
       lpeversion="1"
       offset_points="2.6879454,0.34086734"
       not_jump="true"
       sort_points="true"
       interpolator_type="CentripetalCatmullRom"
       interpolator_beta="0.75"
       start_linecap_type="round"
       linejoin_type="spiro"
       miter_limit="4"
       scale_width="1"
       end_linecap_type="round" />
    <inkscape:path-effect
       effect="simplify"
       id="path-effect239"
       is_visible="true"
       lpeversion="1"
       steps="1"
       threshold="0.0028332064"
       smooth_angles="0"
       helper_size="0"
       simplify_individual_paths="false"
       simplify_just_coalesce="false"
       step="1" />
    <inkscape:path-effect
       effect="powerstroke"
       id="path-effect234"
       is_visible="true"
       lpeversion="1"
       offset_points="2.13563,0.075169555"
       not_jump="true"
       sort_points="true"
       interpolator_type="CentripetalCatmullRom"
       interpolator_beta="0.75"
       start_linecap_type="round"
       linejoin_type="spiro"
       miter_limit="4"
       scale_width="1"
       end_linecap_type="round" />
    <inkscape:path-effect
       effect="simplify"
       id="path-effect232"
       is_visible="true"
       lpeversion="1"
       steps="1"
       threshold="0.0028332064"
       smooth_angles="0"
       helper_size="0"
       simplify_individual_paths="false"
       simplify_just_coalesce="false"
       step="1" />
    <inkscape:path-effect
       effect="powerstroke"
       id="path-effect227"
       is_visible="true"
       lpeversion="1"
       offset_points="2.1868266,0.075169555"
       not_jump="true"
       sort_points="true"
       interpolator_type="CentripetalCatmullRom"
       interpolator_beta="0.75"
       start_linecap_type="round"
       linejoin_type="spiro"
       miter_limit="4"
       scale_width="1"
       end_linecap_type="round" />
    <inkscape:path-effect
       effect="simplify"
       id="path-effect225"
       is_visible="true"
       lpeversion="1"
       steps="1"
       threshold="0.0028332064"
       smooth_angles="0"
       helper_size="0"
       simplify_individual_paths="false"
       simplify_just_coalesce="false"
       step="1" />
    <inkscape:path-effect
       effect="powerstroke"
       id="path-effect166"
       is_visible="true"
       lpeversion="1"
       offset_points="1.9637935,0.075169555"
       not_jump="true"
       sort_points="true"
       interpolator_type="CentripetalCatmullRom"
       interpolator_beta="0.75"
       start_linecap_type="round"
       linejoin_type="spiro"
       miter_limit="4"
       scale_width="1"
       end_linecap_type="round" />
    <inkscape:path-effect
       effect="simplify"
       id="path-effect164"
       is_visible="true"
       lpeversion="1"
       steps="1"
       threshold="0.0028332064"
       smooth_angles="0"
       helper_size="0"
       simplify_individual_paths="false"
       simplify_just_coalesce="false"
       step="1" />
    <inkscape:path-effect
       effect="powerstroke"
       id="path-effect159"
       is_visible="true"
       lpeversion="1"
       offset_points="2.2611036,0.075169555"
       not_jump="true"
       sort_points="true"
       interpolator_type="CentripetalCatmullRom"
       interpolator_beta="0.75"
       start_linecap_type="round"
       linejoin_type="spiro"
       miter_limit="4"
       scale_width="1"
       end_linecap_type="round" />
    <inkscape:path-effect
       effect="simplify"
       id="path-effect157"
       is_visible="true"
       lpeversion="1"
       steps="1"
       threshold="0.0028332064"
       smooth_angles="0"
       helper_size="0"
       simplify_individual_paths="false"
       simplify_just_coalesce="false"
       step="1" />
    <inkscape:path-effect
       effect="powerstroke"
       id="path-effect152"
       is_visible="true"
       lpeversion="1"
       offset_points="2.826981,0.075169555"
       not_jump="true"
       sort_points="true"
       interpolator_type="CentripetalCatmullRom"
       interpolator_beta="0.75"
       start_linecap_type="round"
       linejoin_type="spiro"
       miter_limit="4"
       scale_width="1"
       end_linecap_type="round" />
    <inkscape:path-effect
       effect="simplify"
       id="path-effect150"
       is_visible="true"
       lpeversion="1"
       steps="1"
       threshold="0.0028332064"
       smooth_angles="0"
       helper_size="0"
       simplify_individual_paths="false"
       simplify_just_coalesce="false"
       step="1" />
    <inkscape:path-effect
       effect="powerstroke"
       id="path-effect145"
       is_visible="true"
       lpeversion="1"
       offset_points="3.8374447,0.075169555"
       not_jump="true"
       sort_points="true"
       interpolator_type="CentripetalCatmullRom"
       interpolator_beta="0.75"
       start_linecap_type="round"
       linejoin_type="spiro"
       miter_limit="4"
       scale_width="1"
       end_linecap_type="round" />
    <inkscape:path-effect
       effect="simplify"
       id="path-effect143"
       is_visible="true"
       lpeversion="1"
       steps="1"
       threshold="0.0028332064"
       smooth_angles="0"
       helper_size="0"
       simplify_individual_paths="false"
       simplify_just_coalesce="false"
       step="1" />
    <inkscape:path-effect
       effect="powerstroke"
       id="path-effect138"
       is_visible="true"
       lpeversion="1"
       offset_points="2.6880907,0.075169555"
       not_jump="true"
       sort_points="true"
       interpolator_type="CentripetalCatmullRom"
       interpolator_beta="0.75"
       start_linecap_type="round"
       linejoin_type="spiro"
       miter_limit="4"
       scale_width="1"
       end_linecap_type="round" />
    <inkscape:path-effect
       effect="simplify"
       id="path-effect136"
       is_visible="true"
       lpeversion="1"
       steps="1"
       threshold="0.0028332064"
       smooth_angles="0"
       helper_size="0"
       simplify_individual_paths="false"
       simplify_just_coalesce="false"
       step="1" />
    <inkscape:path-effect
       effect="powerstroke"
       id="path-effect131"
       is_visible="true"
       lpeversion="1"
       offset_points="1.9940581,0.075169555"
       not_jump="true"
       sort_points="true"
       interpolator_type="CentripetalCatmullRom"
       interpolator_beta="0.75"
       start_linecap_type="round"
       linejoin_type="spiro"
       miter_limit="4"
       scale_width="1"
       end_linecap_type="round" />
    <inkscape:path-effect
       effect="simplify"
       id="path-effect129"
       is_visible="true"
       lpeversion="1"
       steps="1"
       threshold="0.0028332064"
       smooth_angles="0"
       helper_size="0"
       simplify_individual_paths="false"
       simplify_just_coalesce="false"
       step="1" />
  </defs>
  <sodipodi:namedview
     id="base"
     pagecolor="#ffffff"
     bordercolor="#666666"
     borderopacity="1.0"
     inkscape:pageopacity="0.0"
     inkscape:pageshadow="2"
     inkscape:zoom="7.919596"
     inkscape:cx="-5.3033008"
     inkscape:cy="20.834396"
     inkscape:document-units="mm"
     inkscape:current-layer="layer1"
     showgrid="false"
     fit-margin-top="0"
     fit-margin-left="0"
     fit-margin-right="0"
     fit-margin-bottom="0"
     inkscape:window-width="1920"
     inkscape:window-height="974"
     inkscape:window-x="-11"
     inkscape:window-y="2869"
     inkscape:window-maximized="1"
     showguides="true"
     inkscape:guide-bbox="true"
     inkscape:snap-bbox="true"
     inkscape:bbox-nodes="true"
     inkscape:snap-nodes="false"
     inkscape:snap-others="false"
     inkscape:snap-page="true"
     inkscape:snap-grids="false"
     inkscape:snap-to-guides="false"
     inkscape:snap-global="false"
     inkscape:pagecheckerboard="0"
     inkscape:showpageshadow="2"
     inkscape:deskcolor="#d1d1d1">
    <sodipodi:guide
       position="-6.1806075,9.4988692"
       orientation="0,1"
       id="guide816"
       inkscape:locked="false" />
    <sodipodi:guide
       position="-4.4101636,10.646923"
       orientation="0,1"
       id="guide818"
       inkscape:locked="false" />
    <sodipodi:guide
       position="2.7595724,11.09577"
       orientation="1,0"
       id="guide820"
       inkscape:locked="false" />
    <sodipodi:guide
       position="3.6572659,10.942217"
       orientation="1,0"
       id="guide822"
       inkscape:locked="false" />
    <sodipodi:guide
       position="-0.051625511,9.7492299"
       orientation="1,0"
       id="guide1853"
       inkscape:locked="false" />
    <sodipodi:guide
       position="-2.3720169,3.0175835"
       orientation="0,1"
       id="guide1855"
       inkscape:locked="false" />
  </sodipodi:namedview>
  <metadata
     id="metadata1678">
    <rdf:RDF>
      <cc:Work
         rdf:about="">
        <dc:format>image/svg+xml</dc:format>
        <dc:type
           rdf:resource="http://purl.org/dc/dcmitype/StillImage" />
      </cc:Work>
    </rdf:RDF>
  </metadata>
  <g
     inkscape:label="Layer 1"
     inkscape:groupmode="layer"
     id="layer1"
     transform="translate(17.028496,-147.22856)">
    <path
       d="m -12.988492,151.16638 c -0.09288,-0.0401 -0.245267,-0.0846 -0.445415,-0.0604 -0.136349,0.0165 -0.281594,0.064 -0.416302,0.1477 -0.08007,0.0481 -0.155981,0.1065 -0.225058,0.17305 -0.04994,0.0481 -0.100076,0.10417 -0.147638,0.16883 -0.09099,0.12371 -0.171092,0.27722 -0.21849,0.45539 -0.04036,0.14747 -0.06036,0.31577 -0.04264,0.48626 0.01686,0.16221 0.06795,0.32542 0.166738,0.46907 0.02315,0.0312 0.05139,0.0698 0.08621,0.10286 0.01839,0.0175 0.03927,0.0341 0.06322,0.0481 0.0251,0.0147 0.05256,0.0258 0.08257,0.0323 0.04732,0.0158 0.102398,0.0208 0.153472,0.0177 0.05537,-0.003 0.10646,-0.0164 0.151046,-0.0326 0.07945,-0.029 0.146771,-0.0718 0.193507,-0.10525 0.02111,-0.0151 0.03994,-0.0297 0.05563,-0.0423 0.122411,-0.10145 0.277682,-0.2496 0.396298,-0.46279 0.03737,-0.0672 0.07868,-0.1539 0.111928,-0.25752 0.0686,-0.20132 0.104646,-0.44318 0.09359,-0.73911 0.0017,-0.0255 0.0043,-0.0652 0.0064,-0.0998 0.0011,-0.0182 0.0022,-0.0359 0.003,-0.0506 3.85e-4,-0.007 7.16e-4,-0.0139 9.62e-4,-0.0196 2.32e-4,-0.005 4.3e-4,-0.0109 4.86e-4,-0.0157 2.34e-4,-0.0198 4.06e-4,-0.0398 -0.002,-0.0595 -0.0024,-0.0197 -0.0074,-0.0393 -0.01631,-0.057 -0.009,-0.0177 -0.02194,-0.0335 -0.0382,-0.0449 -0.01627,-0.0114 -0.03574,-0.0182 -0.05557,-0.0191 -0.01983,-9.1e-4 -0.03985,0.004 -0.05708,0.014 -0.01723,0.01 -0.03159,0.0244 -0.04209,0.0413 -0.0105,0.0169 -0.01719,0.0359 -0.02129,0.0553 -0.0041,0.0194 -0.0057,0.0393 -0.0071,0.0591 -0.02611,0.34744 -0.02628,0.691 -0.03502,1.0397 -0.0086,0.34278 -0.02544,0.67999 -0.08326,1.0121 -0.03296,0.17244 -0.06109,0.32248 -0.119013,0.46339 -0.07182,0.16602 -0.189207,0.30595 -0.326366,0.4114 -0.15027,0.11554 -0.320662,0.18744 -0.486189,0.21868 -0.217209,0.056 -0.424972,0.0776 -0.606224,0.0869 -0.22967,0.0119 -0.484147,0.006 -0.620891,0.003 a 0.11526377,0.11526377 90 0 0 -0.0051,0.23048 c 0.133891,0.003 0.398536,0.01 0.637659,-0.002 0.189604,-0.009 0.414456,-0.0318 0.645003,-0.0909 0.192591,-0.0356 0.397413,-0.12154 0.578248,-0.25982 0.165065,-0.12623 0.309974,-0.2965 0.400865,-0.50522 0.07044,-0.16851 0.103343,-0.34322 0.136431,-0.51238 0.06173,-0.35216 0.07917,-0.70378 0.0881,-1.04913 0.0092,-0.35647 0.0094,-0.68824 0.03506,-1.02776 l -0.239648,-0.0109 c -2.3e-5,3.1e-4 -1.43e-4,0.004 -3.63e-4,0.008 -2.26e-4,0.005 -5.33e-4,0.0105 -9.14e-4,0.0174 -7.71e-4,0.0139 -0.0018,0.031 -0.0029,0.049 -0.0024,0.0391 -0.0048,0.0776 -0.0063,0.1056 -2.22e-4,0.004 -2.89e-4,0.008 -1.18e-4,0.0121 0.01156,0.27439 -0.02039,0.48862 -0.07722,0.66345 -0.02728,0.0886 -0.06074,0.16213 -0.09119,0.22004 -0.09573,0.18209 -0.219505,0.32589 -0.324464,0.41937 -0.01187,0.0108 -0.02634,0.0231 -0.04285,0.0358 -0.03749,0.0288 -0.0873,0.0608 -0.142939,0.0814 -0.03077,0.0114 -0.06288,0.0191 -0.09522,0.021 -0.02942,0.002 -0.05949,-0.001 -0.08984,-0.0117 -0.01736,-0.005 -0.02509,-0.008 -0.03301,-0.0129 -0.0078,-0.005 -0.01612,-0.0118 -0.02524,-0.0212 -0.01895,-0.0195 -0.03587,-0.0438 -0.05813,-0.0765 -0.07377,-0.1098 -0.113802,-0.23916 -0.126211,-0.37298 -0.01308,-0.14109 0.0049,-0.28271 0.04086,-0.40896 0.04158,-0.1503 0.110213,-0.27897 0.187364,-0.38242 0.04028,-0.054 0.08246,-0.10064 0.124164,-0.14058 0.0577,-0.0553 0.120636,-0.10343 0.187663,-0.14356 0.108253,-0.067 0.222797,-0.10426 0.328446,-0.11716 0.153165,-0.0187 0.266272,0.0151 0.3321,0.0435 a 0.10951017,0.10951017 90 0 0 0.08683,-0.20108 z"
       id="path-1"
       inkscape:path-effect="#path-effect3041;#path-effect3043"
       inkscape:original-d="m -13.031906,151.26692 c -0.511546,-0.21248 -1.06993,0.18819 -1.254208,0.66271 -0.15209,0.36092 -0.147616,0.8389 0.144176,1.12812 0.276503,0.1664 0.565323,-0.0979 0.735056,-0.30066 0.280218,-0.32166 0.378322,-0.75688 0.35597,-1.17433 0.01146,-0.17962 0.02129,-0.35946 0.0044,-0.0808 -0.04837,0.78192 0.01968,1.58644 -0.207837,2.34562 -0.139442,0.40565 -0.506042,0.69936 -0.923117,0.78067 -0.410724,0.10772 -0.839543,0.10218 -1.260703,0.0929"
       style="fill:#000000;fill-rule:nonzero;stroke:none;stroke-width:1.30631" />
  </g>
</svg>
