<?xml version="1.0" encoding="UTF-8" standalone="no"?>
<!-- Created with Inkscape (http://www.inkscape.org/) -->

<svg
   width="6mm"
   height="10mm"
   viewBox="0 0 6.0000001 9.9999994"
   version="1.1"
   id="svg1681"
   inkscape:version="1.2.1 (9c6d41e410, 2022-07-14)"
   sodipodi:docname="lower g 1.5.svg"
   inkscape:export-filename="..\..\..\..\Downloads\lower a diff canvas resize 3.0.png"
   inkscape:export-xdpi="96"
   inkscape:export-ydpi="96"
   xmlns:inkscape="http://www.inkscape.org/namespaces/inkscape"
   xmlns:sodipodi="http://sodipodi.sourceforge.net/DTD/sodipodi-0.dtd"
   xmlns="http://www.w3.org/2000/svg"
   xmlns:svg="http://www.w3.org/2000/svg"
   xmlns:rdf="http://www.w3.org/1999/02/22-rdf-syntax-ns#"
   xmlns:cc="http://creativecommons.org/ns#"
   xmlns:dc="http://purl.org/dc/elements/1.1/">
  <defs
     id="defs1675">
    <inkscape:path-effect
       effect="powerstroke"
       id="path-effect3084"
       is_visible="true"
       lpeversion="1"
       offset_points="1.7210101,0.10420239 | 5.558262,0.083888566 | 6.8815982,0.10777611 | 8.5620285,0.095550206 | 12.785062,0.11003321"
       not_jump="true"
       sort_points="true"
       interpolator_type="CentripetalCatmullRom"
       interpolator_beta="0.75"
       start_linecap_type="round"
       linejoin_type="spiro"
       miter_limit="4"
       scale_width="1"
       end_linecap_type="round" />
    <inkscape:path-effect
       effect="simplify"
       id="path-effect3082"
       is_visible="true"
       lpeversion="1"
       steps="1"
       threshold="0.0035951417"
       smooth_angles="0"
       helper_size="0"
       simplify_individual_paths="false"
       simplify_just_coalesce="false"
       step="1" />
    <inkscape:path-effect
       effect="powerstroke"
       id="path-effect502"
       is_visible="true"
       lpeversion="1"
       offset_points="3.0091841,0.21607495 | 7.3602657,0.17554228 | 9.4159651,0.20236537"
       not_jump="true"
       sort_points="true"
       interpolator_type="CentripetalCatmullRom"
       interpolator_beta="0.75"
       start_linecap_type="round"
       linejoin_type="spiro"
       miter_limit="4"
       scale_width="1"
       end_linecap_type="round" />
    <inkscape:path-effect
       effect="simplify"
       id="path-effect500"
       is_visible="true"
       lpeversion="1"
       steps="1"
       threshold="0.0035951417"
       smooth_angles="0"
       helper_size="0"
       simplify_individual_paths="false"
       simplify_just_coalesce="false"
       step="1" />
    <inkscape:path-effect
       effect="powerstroke"
       id="path-effect241"
       is_visible="true"
       lpeversion="1"
       offset_points="2.6879454,0.34086734"
       not_jump="true"
       sort_points="true"
       interpolator_type="CentripetalCatmullRom"
       interpolator_beta="0.75"
       start_linecap_type="round"
       linejoin_type="spiro"
       miter_limit="4"
       scale_width="1"
       end_linecap_type="round" />
    <inkscape:path-effect
       effect="simplify"
       id="path-effect239"
       is_visible="true"
       lpeversion="1"
       steps="1"
       threshold="0.0028332064"
       smooth_angles="0"
       helper_size="0"
       simplify_individual_paths="false"
       simplify_just_coalesce="false"
       step="1" />
    <inkscape:path-effect
       effect="powerstroke"
       id="path-effect234"
       is_visible="true"
       lpeversion="1"
       offset_points="2.13563,0.075169555"
       not_jump="true"
       sort_points="true"
       interpolator_type="CentripetalCatmullRom"
       interpolator_beta="0.75"
       start_linecap_type="round"
       linejoin_type="spiro"
       miter_limit="4"
       scale_width="1"
       end_linecap_type="round" />
    <inkscape:path-effect
       effect="simplify"
       id="path-effect232"
       is_visible="true"
       lpeversion="1"
       steps="1"
       threshold="0.0028332064"
       smooth_angles="0"
       helper_size="0"
       simplify_individual_paths="false"
       simplify_just_coalesce="false"
       step="1" />
    <inkscape:path-effect
       effect="powerstroke"
       id="path-effect227"
       is_visible="true"
       lpeversion="1"
       offset_points="2.1868266,0.075169555"
       not_jump="true"
       sort_points="true"
       interpolator_type="CentripetalCatmullRom"
       interpolator_beta="0.75"
       start_linecap_type="round"
       linejoin_type="spiro"
       miter_limit="4"
       scale_width="1"
       end_linecap_type="round" />
    <inkscape:path-effect
       effect="simplify"
       id="path-effect225"
       is_visible="true"
       lpeversion="1"
       steps="1"
       threshold="0.0028332064"
       smooth_angles="0"
       helper_size="0"
       simplify_individual_paths="false"
       simplify_just_coalesce="false"
       step="1" />
    <inkscape:path-effect
       effect="powerstroke"
       id="path-effect166"
       is_visible="true"
       lpeversion="1"
       offset_points="1.9637935,0.075169555"
       not_jump="true"
       sort_points="true"
       interpolator_type="CentripetalCatmullRom"
       interpolator_beta="0.75"
       start_linecap_type="round"
       linejoin_type="spiro"
       miter_limit="4"
       scale_width="1"
       end_linecap_type="round" />
    <inkscape:path-effect
       effect="simplify"
       id="path-effect164"
       is_visible="true"
       lpeversion="1"
       steps="1"
       threshold="0.0028332064"
       smooth_angles="0"
       helper_size="0"
       simplify_individual_paths="false"
       simplify_just_coalesce="false"
       step="1" />
    <inkscape:path-effect
       effect="powerstroke"
       id="path-effect159"
       is_visible="true"
       lpeversion="1"
       offset_points="2.2611036,0.075169555"
       not_jump="true"
       sort_points="true"
       interpolator_type="CentripetalCatmullRom"
       interpolator_beta="0.75"
       start_linecap_type="round"
       linejoin_type="spiro"
       miter_limit="4"
       scale_width="1"
       end_linecap_type="round" />
    <inkscape:path-effect
       effect="simplify"
       id="path-effect157"
       is_visible="true"
       lpeversion="1"
       steps="1"
       threshold="0.0028332064"
       smooth_angles="0"
       helper_size="0"
       simplify_individual_paths="false"
       simplify_just_coalesce="false"
       step="1" />
    <inkscape:path-effect
       effect="powerstroke"
       id="path-effect152"
       is_visible="true"
       lpeversion="1"
       offset_points="2.826981,0.075169555"
       not_jump="true"
       sort_points="true"
       interpolator_type="CentripetalCatmullRom"
       interpolator_beta="0.75"
       start_linecap_type="round"
       linejoin_type="spiro"
       miter_limit="4"
       scale_width="1"
       end_linecap_type="round" />
    <inkscape:path-effect
       effect="simplify"
       id="path-effect150"
       is_visible="true"
       lpeversion="1"
       steps="1"
       threshold="0.0028332064"
       smooth_angles="0"
       helper_size="0"
       simplify_individual_paths="false"
       simplify_just_coalesce="false"
       step="1" />
    <inkscape:path-effect
       effect="powerstroke"
       id="path-effect145"
       is_visible="true"
       lpeversion="1"
       offset_points="3.8374447,0.075169555"
       not_jump="true"
       sort_points="true"
       interpolator_type="CentripetalCatmullRom"
       interpolator_beta="0.75"
       start_linecap_type="round"
       linejoin_type="spiro"
       miter_limit="4"
       scale_width="1"
       end_linecap_type="round" />
    <inkscape:path-effect
       effect="simplify"
       id="path-effect143"
       is_visible="true"
       lpeversion="1"
       steps="1"
       threshold="0.0028332064"
       smooth_angles="0"
       helper_size="0"
       simplify_individual_paths="false"
       simplify_just_coalesce="false"
       step="1" />
    <inkscape:path-effect
       effect="powerstroke"
       id="path-effect138"
       is_visible="true"
       lpeversion="1"
       offset_points="2.6880907,0.075169555"
       not_jump="true"
       sort_points="true"
       interpolator_type="CentripetalCatmullRom"
       interpolator_beta="0.75"
       start_linecap_type="round"
       linejoin_type="spiro"
       miter_limit="4"
       scale_width="1"
       end_linecap_type="round" />
    <inkscape:path-effect
       effect="simplify"
       id="path-effect136"
       is_visible="true"
       lpeversion="1"
       steps="1"
       threshold="0.0028332064"
       smooth_angles="0"
       helper_size="0"
       simplify_individual_paths="false"
       simplify_just_coalesce="false"
       step="1" />
    <inkscape:path-effect
       effect="powerstroke"
       id="path-effect131"
       is_visible="true"
       lpeversion="1"
       offset_points="1.9940581,0.075169555"
       not_jump="true"
       sort_points="true"
       interpolator_type="CentripetalCatmullRom"
       interpolator_beta="0.75"
       start_linecap_type="round"
       linejoin_type="spiro"
       miter_limit="4"
       scale_width="1"
       end_linecap_type="round" />
    <inkscape:path-effect
       effect="simplify"
       id="path-effect129"
       is_visible="true"
       lpeversion="1"
       steps="1"
       threshold="0.0028332064"
       smooth_angles="0"
       helper_size="0"
       simplify_individual_paths="false"
       simplify_just_coalesce="false"
       step="1" />
  </defs>
  <sodipodi:namedview
     id="base"
     pagecolor="#ffffff"
     bordercolor="#666666"
     borderopacity="1.0"
     inkscape:pageopacity="0.0"
     inkscape:pageshadow="2"
     inkscape:zoom="7.919596"
     inkscape:cx="-5.3033008"
     inkscape:cy="20.834396"
     inkscape:document-units="mm"
     inkscape:current-layer="layer1"
     showgrid="false"
     fit-margin-top="0"
     fit-margin-left="0"
     fit-margin-right="0"
     fit-margin-bottom="0"
     inkscape:window-width="1920"
     inkscape:window-height="974"
     inkscape:window-x="-11"
     inkscape:window-y="2869"
     inkscape:window-maximized="1"
     showguides="true"
     inkscape:guide-bbox="true"
     inkscape:snap-bbox="true"
     inkscape:bbox-nodes="true"
     inkscape:snap-nodes="false"
     inkscape:snap-others="false"
     inkscape:snap-page="true"
     inkscape:snap-grids="false"
     inkscape:snap-to-guides="false"
     inkscape:snap-global="false"
     inkscape:pagecheckerboard="0"
     inkscape:showpageshadow="2"
     inkscape:deskcolor="#d1d1d1">
    <sodipodi:guide
       position="-6.1806075,9.4988692"
       orientation="0,1"
       id="guide816"
       inkscape:locked="false" />
    <sodipodi:guide
       position="-4.4101636,10.646923"
       orientation="0,1"
       id="guide818"
       inkscape:locked="false" />
    <sodipodi:guide
       position="2.7595724,11.09577"
       orientation="1,0"
       id="guide820"
       inkscape:locked="false" />
    <sodipodi:guide
       position="3.6572659,10.942217"
       orientation="1,0"
       id="guide822"
       inkscape:locked="false" />
    <sodipodi:guide
       position="-0.051625511,9.7492299"
       orientation="1,0"
       id="guide1853"
       inkscape:locked="false" />
    <sodipodi:guide
       position="-2.3720169,3.0175835"
       orientation="0,1"
       id="guide1855"
       inkscape:locked="false" />
  </sodipodi:namedview>
  <metadata
     id="metadata1678">
    <rdf:RDF>
      <cc:Work
         rdf:about="">
        <dc:format>image/svg+xml</dc:format>
        <dc:type
           rdf:resource="http://purl.org/dc/dcmitype/StillImage" />
      </cc:Work>
    </rdf:RDF>
  </metadata>
  <g
     inkscape:label="Layer 1"
     inkscape:groupmode="layer"
     id="layer1"
     transform="translate(17.028496,-147.22856)">
    <path
       d="m -13.122315,150.6651 c -0.04058,-0.0417 -0.09916,-0.091 -0.180151,-0.13241 -0.0594,-0.0304 -0.128973,-0.0554 -0.207707,-0.0698 -0.130356,-0.0237 -0.283035,-0.0169 -0.430758,0.0411 -0.131743,0.0475 -0.256099,0.13342 -0.351531,0.24731 -0.04159,0.0496 -0.07723,0.10408 -0.105505,0.16215 -0.03256,0.0669 -0.05786,0.14373 -0.06829,0.22895 -0.04582,0.15858 -0.05728,0.33619 -0.02535,0.51783 0.02956,0.16819 0.09614,0.33694 0.202111,0.48487 0.07262,0.10257 0.172472,0.18919 0.287957,0.24656 0.115135,0.0572 0.244874,0.0848 0.376229,0.0708 0.07139,-0.004 0.151647,-0.015 0.227044,-0.0411 0.03957,-0.0137 0.07745,-0.0313 0.112624,-0.0537 0.03711,-0.0236 0.07036,-0.0519 0.09906,-0.0853 0.04141,-0.0477 0.07174,-0.0987 0.09427,-0.14885 0.02485,-0.0553 0.0408,-0.11076 0.05158,-0.16155 0.0028,-0.013 0.0052,-0.0258 0.0074,-0.0383 0.01786,-0.10291 0.02122,-0.20984 0.02268,-0.28401 0.0012,-0.10081 -0.0036,-0.20027 -0.0097,-0.2884 -0.0051,-0.0733 -0.01037,-0.1304 -0.01727,-0.21126 -0.0018,-0.0216 -0.0036,-0.0429 -0.0052,-0.064 -3.03e-4,-0.004 -8.65e-4,-0.008 -0.0016,-0.012 -0.0062,-0.0331 -0.01157,-0.0747 -0.02267,-0.12224 -0.0053,-0.0227 -0.0123,-0.0479 -0.02226,-0.0733 -0.0095,-0.0242 -0.02223,-0.0503 -0.04005,-0.0756 -0.01156,-0.0164 -0.02357,-0.033 -0.03965,-0.045 -0.01608,-0.0121 -0.0363,-0.0191 -0.05631,-0.0173 -0.02001,0.002 -0.03879,0.0123 -0.05192,0.0275 -0.01313,0.0152 -0.02056,0.0344 -0.02735,0.0533 -0.0098,0.0274 -0.01487,0.0549 -0.01708,0.0818 -0.002,0.0249 -0.0017,0.0493 -4.3e-4,0.0727 2.9e-4,0.006 6.26e-4,0.0111 9.9e-4,0.0165 0.0023,0.0345 0.0061,0.069 0.0059,0.0977 0.03949,0.39596 0.128662,0.75339 0.223225,1.1647 0.08354,0.36336 0.164241,0.7433 0.172832,1.12961 0.0059,0.0847 2.87e-4,0.16553 -0.01831,0.24267 -0.01848,0.0766 -0.04935,0.14776 -0.09304,0.20984 -0.07763,0.1129 -0.181987,0.19968 -0.298624,0.26844 -0.124102,0.0731 -0.261522,0.12548 -0.391018,0.16494 -0.192754,0.0616 -0.359363,0.11844 -0.491897,0.15794 -0.04513,0.0135 -0.08935,0.026 -0.133131,0.0377 -0.388607,0.10891 -1.103149,0.2702 -1.184483,0.28933 a 0.11003321,0.11003321 90 0 0 0.05037,0.21422 c 0.07853,-0.0185 0.794978,-0.17875 1.192476,-0.29079 0.04492,-0.0121 0.09132,-0.0255 0.138187,-0.0397 0.172629,-0.0524 0.27233,-0.0901 0.493655,-0.16408 0.13654,-0.0431 0.290708,-0.10282 0.433597,-0.18909 0.134869,-0.0814 0.263461,-0.18867 0.360449,-0.33294 0.05814,-0.0858 0.09703,-0.18171 0.119112,-0.28057 0.02218,-0.0993 0.0272,-0.20071 0.01892,-0.29792 -0.01017,-0.40303 -0.09656,-0.80026 -0.180936,-1.16308 -0.09673,-0.41592 -0.183048,-0.75962 -0.22091,-1.13078 3.22e-4,-0.0349 -0.0042,-0.071 -0.0056,-0.0994 -2.27e-4,-0.005 -3.98e-4,-0.009 -5.07e-4,-0.013 -4.67e-4,-0.0179 2.39e-4,-0.0324 0.0021,-0.0446 0.002,-0.013 0.0052,-0.0224 0.0089,-0.0297 l -0.17523,0.0185 c 0.0052,0.01 0.0094,0.0206 0.01279,0.0334 0.0037,0.0136 0.0064,0.0289 0.0088,0.046 0.0047,0.0337 0.0073,0.0729 0.0155,0.11706 0.0017,0.0205 0.0036,0.0411 0.0058,0.0617 0.008,0.0761 0.01901,0.14986 0.02847,0.21302 0.01293,0.0864 0.02694,0.17811 0.03287,0.26979 0.0038,0.0723 0.0055,0.16405 -0.0081,0.25334 -0.0016,0.0105 -0.0034,0.0212 -0.0055,0.0319 -0.0082,0.0422 -0.02056,0.0856 -0.03916,0.12717 -0.01678,0.0375 -0.03886,0.074 -0.06839,0.10754 -0.01777,0.0202 -0.0385,0.0375 -0.06257,0.0521 -0.02294,0.0139 -0.04885,0.0255 -0.07767,0.0346 -0.05551,0.0176 -0.118533,0.0254 -0.184678,0.0265 -0.100023,0.008 -0.195,-0.0134 -0.280984,-0.0587 -0.08661,-0.0456 -0.160906,-0.11345 -0.214073,-0.19254 -0.08645,-0.12499 -0.139928,-0.26688 -0.162572,-0.40805 -0.02492,-0.15537 -0.01197,-0.30432 0.02831,-0.43398 0.0018,-0.006 0.003,-0.012 0.0038,-0.0182 0.0077,-0.0624 0.02674,-0.11944 0.05159,-0.16955 0.02091,-0.0422 0.04738,-0.0823 0.07862,-0.11922 0.07209,-0.0853 0.16569,-0.14951 0.265334,-0.18553 0.110341,-0.0432 0.223114,-0.0488 0.319515,-0.0315 0.05777,0.0103 0.108024,0.0284 0.150138,0.0498 0.05723,0.029 0.09795,0.0633 0.125623,0.0917 a 0.10420239,0.10420239 90 0 0 0.149328,-0.14538 z"
       id="path-1"
       inkscape:path-effect="#path-effect3082;#path-effect3084"
       inkscape:original-d="m -13.196979,150.73779 c -0.393341,-0.3889 -1.099017,-0.11561 -1.167892,0.42521 -0.165027,0.51109 0.148751,1.29125 0.774475,1.20705 0.59097,-0.0247 0.50517,-0.71116 0.453252,-1.12129 -0.01234,-0.30222 -0.118915,-0.64016 -0.08016,-0.12379 0.09217,0.80885 0.417888,1.59135 0.396222,2.41011 -0.04228,0.49398 -0.50319,0.73667 -0.927129,0.85516 -0.570143,0.2096 -1.166357,0.33332 -1.756325,0.47203"
       style="fill:#000000;fill-rule:nonzero;stroke:none;stroke-width:1.28114" />
  </g>
</svg>
