<?xml version="1.0" encoding="UTF-8" standalone="no"?>
<!-- Created with Inkscape (http://www.inkscape.org/) -->

<svg
   width="6mm"
   height="10mm"
   viewBox="0 0 6.0000001 9.9999994"
   version="1.1"
   id="svg1681"
   inkscape:version="1.2.1 (9c6d41e410, 2022-07-14)"
   sodipodi:docname="lower g 1.1.svg"
   inkscape:export-filename="..\..\..\..\Downloads\lower a diff canvas resize 3.0.png"
   inkscape:export-xdpi="96"
   inkscape:export-ydpi="96"
   xmlns:inkscape="http://www.inkscape.org/namespaces/inkscape"
   xmlns:sodipodi="http://sodipodi.sourceforge.net/DTD/sodipodi-0.dtd"
   xmlns="http://www.w3.org/2000/svg"
   xmlns:svg="http://www.w3.org/2000/svg"
   xmlns:rdf="http://www.w3.org/1999/02/22-rdf-syntax-ns#"
   xmlns:cc="http://creativecommons.org/ns#"
   xmlns:dc="http://purl.org/dc/elements/1.1/">
  <defs
     id="defs1675">
    <inkscape:path-effect
       effect="powerstroke"
       id="path-effect1588"
       is_visible="true"
       lpeversion="1"
       offset_points="1.4884926,0.11086064 | 2.9293853,0.090111322 | 4.5609178,0.11125586"
       not_jump="true"
       sort_points="true"
       interpolator_type="CentripetalCatmullRom"
       interpolator_beta="0.75"
       start_linecap_type="round"
       linejoin_type="spiro"
       miter_limit="4"
       scale_width="1"
       end_linecap_type="round" />
    <inkscape:path-effect
       effect="simplify"
       id="path-effect1586"
       is_visible="true"
       lpeversion="1"
       steps="1"
       threshold="0.0035951417"
       smooth_angles="0"
       helper_size="0"
       simplify_individual_paths="false"
       simplify_just_coalesce="false"
       step="1" />
    <inkscape:path-effect
       effect="powerstroke"
       id="path-effect502"
       is_visible="true"
       lpeversion="1"
       offset_points="3.0091841,0.21607495 | 7.3602657,0.17554228 | 9.4159651,0.20236537"
       not_jump="true"
       sort_points="true"
       interpolator_type="CentripetalCatmullRom"
       interpolator_beta="0.75"
       start_linecap_type="round"
       linejoin_type="spiro"
       miter_limit="4"
       scale_width="1"
       end_linecap_type="round" />
    <inkscape:path-effect
       effect="simplify"
       id="path-effect500"
       is_visible="true"
       lpeversion="1"
       steps="1"
       threshold="0.0035951417"
       smooth_angles="0"
       helper_size="0"
       simplify_individual_paths="false"
       simplify_just_coalesce="false"
       step="1" />
    <inkscape:path-effect
       effect="powerstroke"
       id="path-effect241"
       is_visible="true"
       lpeversion="1"
       offset_points="2.6879454,0.34086734"
       not_jump="true"
       sort_points="true"
       interpolator_type="CentripetalCatmullRom"
       interpolator_beta="0.75"
       start_linecap_type="round"
       linejoin_type="spiro"
       miter_limit="4"
       scale_width="1"
       end_linecap_type="round" />
    <inkscape:path-effect
       effect="simplify"
       id="path-effect239"
       is_visible="true"
       lpeversion="1"
       steps="1"
       threshold="0.0028332064"
       smooth_angles="0"
       helper_size="0"
       simplify_individual_paths="false"
       simplify_just_coalesce="false"
       step="1" />
    <inkscape:path-effect
       effect="powerstroke"
       id="path-effect234"
       is_visible="true"
       lpeversion="1"
       offset_points="2.13563,0.075169555"
       not_jump="true"
       sort_points="true"
       interpolator_type="CentripetalCatmullRom"
       interpolator_beta="0.75"
       start_linecap_type="round"
       linejoin_type="spiro"
       miter_limit="4"
       scale_width="1"
       end_linecap_type="round" />
    <inkscape:path-effect
       effect="simplify"
       id="path-effect232"
       is_visible="true"
       lpeversion="1"
       steps="1"
       threshold="0.0028332064"
       smooth_angles="0"
       helper_size="0"
       simplify_individual_paths="false"
       simplify_just_coalesce="false"
       step="1" />
    <inkscape:path-effect
       effect="powerstroke"
       id="path-effect227"
       is_visible="true"
       lpeversion="1"
       offset_points="2.1868266,0.075169555"
       not_jump="true"
       sort_points="true"
       interpolator_type="CentripetalCatmullRom"
       interpolator_beta="0.75"
       start_linecap_type="round"
       linejoin_type="spiro"
       miter_limit="4"
       scale_width="1"
       end_linecap_type="round" />
    <inkscape:path-effect
       effect="simplify"
       id="path-effect225"
       is_visible="true"
       lpeversion="1"
       steps="1"
       threshold="0.0028332064"
       smooth_angles="0"
       helper_size="0"
       simplify_individual_paths="false"
       simplify_just_coalesce="false"
       step="1" />
    <inkscape:path-effect
       effect="powerstroke"
       id="path-effect166"
       is_visible="true"
       lpeversion="1"
       offset_points="1.9637935,0.075169555"
       not_jump="true"
       sort_points="true"
       interpolator_type="CentripetalCatmullRom"
       interpolator_beta="0.75"
       start_linecap_type="round"
       linejoin_type="spiro"
       miter_limit="4"
       scale_width="1"
       end_linecap_type="round" />
    <inkscape:path-effect
       effect="simplify"
       id="path-effect164"
       is_visible="true"
       lpeversion="1"
       steps="1"
       threshold="0.0028332064"
       smooth_angles="0"
       helper_size="0"
       simplify_individual_paths="false"
       simplify_just_coalesce="false"
       step="1" />
    <inkscape:path-effect
       effect="powerstroke"
       id="path-effect159"
       is_visible="true"
       lpeversion="1"
       offset_points="2.2611036,0.075169555"
       not_jump="true"
       sort_points="true"
       interpolator_type="CentripetalCatmullRom"
       interpolator_beta="0.75"
       start_linecap_type="round"
       linejoin_type="spiro"
       miter_limit="4"
       scale_width="1"
       end_linecap_type="round" />
    <inkscape:path-effect
       effect="simplify"
       id="path-effect157"
       is_visible="true"
       lpeversion="1"
       steps="1"
       threshold="0.0028332064"
       smooth_angles="0"
       helper_size="0"
       simplify_individual_paths="false"
       simplify_just_coalesce="false"
       step="1" />
    <inkscape:path-effect
       effect="powerstroke"
       id="path-effect152"
       is_visible="true"
       lpeversion="1"
       offset_points="2.826981,0.075169555"
       not_jump="true"
       sort_points="true"
       interpolator_type="CentripetalCatmullRom"
       interpolator_beta="0.75"
       start_linecap_type="round"
       linejoin_type="spiro"
       miter_limit="4"
       scale_width="1"
       end_linecap_type="round" />
    <inkscape:path-effect
       effect="simplify"
       id="path-effect150"
       is_visible="true"
       lpeversion="1"
       steps="1"
       threshold="0.0028332064"
       smooth_angles="0"
       helper_size="0"
       simplify_individual_paths="false"
       simplify_just_coalesce="false"
       step="1" />
    <inkscape:path-effect
       effect="powerstroke"
       id="path-effect145"
       is_visible="true"
       lpeversion="1"
       offset_points="3.8374447,0.075169555"
       not_jump="true"
       sort_points="true"
       interpolator_type="CentripetalCatmullRom"
       interpolator_beta="0.75"
       start_linecap_type="round"
       linejoin_type="spiro"
       miter_limit="4"
       scale_width="1"
       end_linecap_type="round" />
    <inkscape:path-effect
       effect="simplify"
       id="path-effect143"
       is_visible="true"
       lpeversion="1"
       steps="1"
       threshold="0.0028332064"
       smooth_angles="0"
       helper_size="0"
       simplify_individual_paths="false"
       simplify_just_coalesce="false"
       step="1" />
    <inkscape:path-effect
       effect="powerstroke"
       id="path-effect138"
       is_visible="true"
       lpeversion="1"
       offset_points="2.6880907,0.075169555"
       not_jump="true"
       sort_points="true"
       interpolator_type="CentripetalCatmullRom"
       interpolator_beta="0.75"
       start_linecap_type="round"
       linejoin_type="spiro"
       miter_limit="4"
       scale_width="1"
       end_linecap_type="round" />
    <inkscape:path-effect
       effect="simplify"
       id="path-effect136"
       is_visible="true"
       lpeversion="1"
       steps="1"
       threshold="0.0028332064"
       smooth_angles="0"
       helper_size="0"
       simplify_individual_paths="false"
       simplify_just_coalesce="false"
       step="1" />
    <inkscape:path-effect
       effect="powerstroke"
       id="path-effect131"
       is_visible="true"
       lpeversion="1"
       offset_points="1.9940581,0.075169555"
       not_jump="true"
       sort_points="true"
       interpolator_type="CentripetalCatmullRom"
       interpolator_beta="0.75"
       start_linecap_type="round"
       linejoin_type="spiro"
       miter_limit="4"
       scale_width="1"
       end_linecap_type="round" />
    <inkscape:path-effect
       effect="simplify"
       id="path-effect129"
       is_visible="true"
       lpeversion="1"
       steps="1"
       threshold="0.0028332064"
       smooth_angles="0"
       helper_size="0"
       simplify_individual_paths="false"
       simplify_just_coalesce="false"
       step="1" />
  </defs>
  <sodipodi:namedview
     id="base"
     pagecolor="#ffffff"
     bordercolor="#666666"
     borderopacity="1.0"
     inkscape:pageopacity="0.0"
     inkscape:pageshadow="2"
     inkscape:zoom="7.919596"
     inkscape:cx="-5.3033008"
     inkscape:cy="20.834396"
     inkscape:document-units="mm"
     inkscape:current-layer="layer1"
     showgrid="false"
     fit-margin-top="0"
     fit-margin-left="0"
     fit-margin-right="0"
     fit-margin-bottom="0"
     inkscape:window-width="1920"
     inkscape:window-height="974"
     inkscape:window-x="-11"
     inkscape:window-y="2869"
     inkscape:window-maximized="1"
     showguides="true"
     inkscape:guide-bbox="true"
     inkscape:snap-bbox="true"
     inkscape:bbox-nodes="true"
     inkscape:snap-nodes="false"
     inkscape:snap-others="false"
     inkscape:snap-page="true"
     inkscape:snap-grids="false"
     inkscape:snap-to-guides="false"
     inkscape:snap-global="false"
     inkscape:pagecheckerboard="0"
     inkscape:showpageshadow="2"
     inkscape:deskcolor="#d1d1d1">
    <sodipodi:guide
       position="-6.1806075,9.4988692"
       orientation="0,1"
       id="guide816"
       inkscape:locked="false" />
    <sodipodi:guide
       position="-4.4101636,10.646923"
       orientation="0,1"
       id="guide818"
       inkscape:locked="false" />
    <sodipodi:guide
       position="2.7595724,11.09577"
       orientation="1,0"
       id="guide820"
       inkscape:locked="false" />
    <sodipodi:guide
       position="3.6572659,10.942217"
       orientation="1,0"
       id="guide822"
       inkscape:locked="false" />
    <sodipodi:guide
       position="-0.051625511,9.7492299"
       orientation="1,0"
       id="guide1853"
       inkscape:locked="false" />
    <sodipodi:guide
       position="-2.3720169,3.0175835"
       orientation="0,1"
       id="guide1855"
       inkscape:locked="false" />
  </sodipodi:namedview>
  <metadata
     id="metadata1678">
    <rdf:RDF>
      <cc:Work
         rdf:about="">
        <dc:format>image/svg+xml</dc:format>
        <dc:type
           rdf:resource="http://purl.org/dc/dcmitype/StillImage" />
      </cc:Work>
    </rdf:RDF>
  </metadata>
  <g
     inkscape:label="Layer 1"
     inkscape:groupmode="layer"
     id="layer1"
     transform="translate(17.028496,-147.22856)">
    <path
       d="m -13.249472,151.12229 c -0.156822,-0.0263 -0.429967,-0.0456 -0.749672,0.0617 -0.228652,0.0767 -0.454079,0.21062 -0.634019,0.40687 -0.09596,0.10446 -0.164342,0.21955 -0.209758,0.33069 -0.052,0.12727 -0.07885,0.26277 -0.07993,0.398 -0.0073,0.0697 -4.27e-4,0.13882 0.01741,0.20378 0.01847,0.0673 0.04894,0.13094 0.08891,0.18757 0.03947,0.0559 0.08881,0.10586 0.146237,0.14575 0.04062,0.0282 0.08559,0.0516 0.134233,0.0683 0.01924,0.007 0.03876,0.0121 0.05849,0.0164 0.062,0.0167 0.126942,0.0198 0.186246,0.0156 0.05407,-0.004 0.108842,-0.0143 0.164788,-0.0303 0.218033,-0.0481 0.46855,-0.13401 0.713025,-0.28008 0.0266,-0.0159 0.05325,-0.0326 0.07986,-0.0501 0.163867,-0.10777 0.344169,-0.25827 0.497994,-0.46354 0.02381,-0.0316 0.04089,-0.0687 0.05063,-0.10808 0.009,-0.0363 0.01225,-0.0769 0.0066,-0.11802 -0.0053,-0.0386 -0.01891,-0.0808 -0.0463,-0.11881 -0.01332,-0.0185 -0.02978,-0.0357 -0.04967,-0.0505 -0.01954,-0.0145 -0.04165,-0.0262 -0.06601,-0.0344 -0.0078,-0.003 -0.01585,-0.004 -0.02402,-0.005 -0.02494,-0.003 -0.05039,-0.001 -0.07544,0.005 -0.02472,0.006 -0.04685,0.0174 -0.06606,0.0315 -0.01874,0.0137 -0.03383,0.0297 -0.0459,0.046 -0.01189,0.0161 -0.02118,0.0328 -0.02851,0.0491 -0.01426,0.0316 -0.0226,0.0646 -0.0275,0.0939 -0.0049,0.0292 -0.0068,0.0575 -0.0069,0.0818 -0.01317,0.33743 0.0087,0.67991 0.01494,1.01604 0.0063,0.336 -0.0032,0.66155 -0.07464,0.97994 -0.02665,0.10821 -0.05264,0.21199 -0.08718,0.31172 -0.03534,0.10207 -0.07756,0.19344 -0.133178,0.2744 -0.123034,0.18523 -0.284117,0.33079 -0.459184,0.44478 -0.191144,0.12446 -0.399517,0.21173 -0.596242,0.27112 -0.280784,0.0828 -0.528306,0.13814 -0.678503,0.16944 a 0.11125586,0.11125586 90 0 0 0.0454,0.21784 c 0.152949,-0.0319 0.4074,-0.0879 0.696983,-0.17211 0.213046,-0.0639 0.442145,-0.15871 0.655365,-0.29695 0.195492,-0.12675 0.381331,-0.2925 0.524158,-0.50671 0.06976,-0.10069 0.12057,-0.21179 0.160802,-0.32673 0.03885,-0.11099 0.06748,-0.22453 0.09476,-0.33408 0.07848,-0.34797 0.0877,-0.69552 0.08157,-1.03687 -0.0063,-0.35051 -0.02753,-0.67381 -0.01448,-1.00682 1.75e-4,-0.0173 0.0013,-0.0332 0.0039,-0.0487 0.0027,-0.0162 0.0065,-0.0287 0.01027,-0.0372 0.0018,-0.004 0.0032,-0.006 0.0036,-0.007 3.62e-4,-5.1e-4 -5.73e-4,8.6e-4 -0.0033,0.003 -0.003,0.002 -0.0071,0.004 -0.01172,0.005 -0.0044,0.001 -0.0079,9.2e-4 -0.0081,8.7e-4 -0.0018,-5e-4 -0.0038,-8.6e-4 -0.0057,-7.6e-4 -0.0019,1e-4 -0.0038,6e-4 -0.0057,9e-4 -0.0019,3e-4 -0.0039,3.2e-4 -0.0057,-3.9e-4 -8.89e-4,-3.5e-4 -0.0017,-8.7e-4 -0.0024,-0.002 -7.18e-4,-6.3e-4 -0.0013,-0.001 -0.0019,-0.002 0.0013,0.002 0.004,0.006 0.0055,0.0157 0.0015,0.01 0.0011,0.0213 -0.0014,0.0325 -0.0027,0.0121 -0.0071,0.021 -0.01079,0.0265 -0.133865,0.18036 -0.292474,0.31505 -0.439196,0.41342 -0.02377,0.0159 -0.04761,0.0312 -0.07144,0.0458 -0.219388,0.13419 -0.446406,0.21707 -0.645938,0.26579 -0.0019,4.6e-4 -0.0037,8.6e-4 -0.0056,0.001 -0.0019,4.7e-4 -0.0037,0.001 -0.0054,0.002 -0.04697,0.0196 -0.08933,0.0337 -0.128883,0.0411 -0.0411,0.008 -0.08203,0.009 -0.121704,-0.001 -0.01649,-0.004 -0.02911,-0.007 -0.04158,-0.0114 -0.03156,-0.0109 -0.06103,-0.0267 -0.08785,-0.0463 -0.03801,-0.0278 -0.07049,-0.0631 -0.09587,-0.10285 -0.02571,-0.0403 -0.04384,-0.0846 -0.05346,-0.12983 -0.0097,-0.0455 -0.0107,-0.0914 -0.0027,-0.13548 3.46e-4,-0.002 6.06e-4,-0.004 7.17e-4,-0.006 1.11e-4,-0.002 1.69e-4,-0.004 2.84e-4,-0.006 0.0065,-0.10987 0.03352,-0.21888 0.07777,-0.32126 0.0385,-0.0891 0.094,-0.18084 0.170861,-0.2643 0.151581,-0.16511 0.342963,-0.28013 0.539933,-0.3469 0.274823,-0.0932 0.50906,-0.0773 0.641456,-0.0551 a 0.11086064,0.11086064 90 0 0 0.03671,-0.21866 z"
       id="path-1"
       inkscape:path-effect="#path-effect1586;#path-effect1588"
       inkscape:original-d="m -13.267828,151.23162 c -0.679763,-0.12104 -1.520901,0.33124 -1.549461,1.07655 -0.05428,0.37075 0.295126,0.66124 0.644693,0.52157 0.472937,-0.10352 0.934569,-0.35839 1.231879,-0.74443 0.165645,-0.21352 -0.121043,-0.43315 -0.157145,-0.1147 -0.03504,0.75182 0.113725,1.52886 -0.121044,2.26359 -0.15866,0.65553 -0.784469,1.04662 -1.399932,1.20464 -0.193426,0.0565 -0.390156,0.10077 -0.587142,0.14287"
       style="fill:#000000;fill-rule:nonzero;stroke:none;stroke-width:1.34599" />
  </g>
</svg>
