<?xml version="1.0" encoding="UTF-8" standalone="no"?>
<!-- Created with Inkscape (http://www.inkscape.org/) -->

<svg
   width="6mm"
   height="10mm"
   viewBox="0 0 6.0000001 9.9999994"
   version="1.1"
   id="svg1681"
   inkscape:version="1.2.1 (9c6d41e410, 2022-07-14)"
   sodipodi:docname="lower a 1.3.svg"
   inkscape:export-filename="..\..\..\..\Downloads\lower a diff canvas resize 3.0.png"
   inkscape:export-xdpi="96"
   inkscape:export-ydpi="96"
   xmlns:inkscape="http://www.inkscape.org/namespaces/inkscape"
   xmlns:sodipodi="http://sodipodi.sourceforge.net/DTD/sodipodi-0.dtd"
   xmlns="http://www.w3.org/2000/svg"
   xmlns:svg="http://www.w3.org/2000/svg"
   xmlns:rdf="http://www.w3.org/1999/02/22-rdf-syntax-ns#"
   xmlns:cc="http://creativecommons.org/ns#"
   xmlns:dc="http://purl.org/dc/elements/1.1/">
  <defs
     id="defs1675">
    <inkscape:path-effect
       effect="powerstroke"
       id="path-effect1161"
       is_visible="true"
       lpeversion="1"
       offset_points="3.4606236,0.11049299 | 4.4464449,0.096208727 | 11.790078,0.13570051"
       not_jump="true"
       sort_points="true"
       interpolator_type="CentripetalCatmullRom"
       interpolator_beta="0.75"
       start_linecap_type="round"
       linejoin_type="spiro"
       miter_limit="4"
       scale_width="1"
       end_linecap_type="round" />
    <inkscape:path-effect
       effect="simplify"
       id="path-effect1159"
       is_visible="true"
       lpeversion="1"
       steps="1"
       threshold="0.0035951417"
       smooth_angles="0"
       helper_size="0"
       simplify_individual_paths="false"
       simplify_just_coalesce="false"
       step="1" />
    <inkscape:path-effect
       effect="powerstroke"
       id="path-effect502"
       is_visible="true"
       lpeversion="1"
       offset_points="3.0091841,0.21607495 | 7.3602657,0.17554228 | 9.4159651,0.20236537"
       not_jump="true"
       sort_points="true"
       interpolator_type="CentripetalCatmullRom"
       interpolator_beta="0.75"
       start_linecap_type="round"
       linejoin_type="spiro"
       miter_limit="4"
       scale_width="1"
       end_linecap_type="round" />
    <inkscape:path-effect
       effect="simplify"
       id="path-effect500"
       is_visible="true"
       lpeversion="1"
       steps="1"
       threshold="0.0035951417"
       smooth_angles="0"
       helper_size="0"
       simplify_individual_paths="false"
       simplify_just_coalesce="false"
       step="1" />
    <inkscape:path-effect
       effect="powerstroke"
       id="path-effect241"
       is_visible="true"
       lpeversion="1"
       offset_points="2.6879454,0.34086734"
       not_jump="true"
       sort_points="true"
       interpolator_type="CentripetalCatmullRom"
       interpolator_beta="0.75"
       start_linecap_type="round"
       linejoin_type="spiro"
       miter_limit="4"
       scale_width="1"
       end_linecap_type="round" />
    <inkscape:path-effect
       effect="simplify"
       id="path-effect239"
       is_visible="true"
       lpeversion="1"
       steps="1"
       threshold="0.0028332064"
       smooth_angles="0"
       helper_size="0"
       simplify_individual_paths="false"
       simplify_just_coalesce="false"
       step="1" />
    <inkscape:path-effect
       effect="powerstroke"
       id="path-effect234"
       is_visible="true"
       lpeversion="1"
       offset_points="2.13563,0.075169555"
       not_jump="true"
       sort_points="true"
       interpolator_type="CentripetalCatmullRom"
       interpolator_beta="0.75"
       start_linecap_type="round"
       linejoin_type="spiro"
       miter_limit="4"
       scale_width="1"
       end_linecap_type="round" />
    <inkscape:path-effect
       effect="simplify"
       id="path-effect232"
       is_visible="true"
       lpeversion="1"
       steps="1"
       threshold="0.0028332064"
       smooth_angles="0"
       helper_size="0"
       simplify_individual_paths="false"
       simplify_just_coalesce="false"
       step="1" />
    <inkscape:path-effect
       effect="powerstroke"
       id="path-effect227"
       is_visible="true"
       lpeversion="1"
       offset_points="2.1868266,0.075169555"
       not_jump="true"
       sort_points="true"
       interpolator_type="CentripetalCatmullRom"
       interpolator_beta="0.75"
       start_linecap_type="round"
       linejoin_type="spiro"
       miter_limit="4"
       scale_width="1"
       end_linecap_type="round" />
    <inkscape:path-effect
       effect="simplify"
       id="path-effect225"
       is_visible="true"
       lpeversion="1"
       steps="1"
       threshold="0.0028332064"
       smooth_angles="0"
       helper_size="0"
       simplify_individual_paths="false"
       simplify_just_coalesce="false"
       step="1" />
    <inkscape:path-effect
       effect="powerstroke"
       id="path-effect166"
       is_visible="true"
       lpeversion="1"
       offset_points="1.9637935,0.075169555"
       not_jump="true"
       sort_points="true"
       interpolator_type="CentripetalCatmullRom"
       interpolator_beta="0.75"
       start_linecap_type="round"
       linejoin_type="spiro"
       miter_limit="4"
       scale_width="1"
       end_linecap_type="round" />
    <inkscape:path-effect
       effect="simplify"
       id="path-effect164"
       is_visible="true"
       lpeversion="1"
       steps="1"
       threshold="0.0028332064"
       smooth_angles="0"
       helper_size="0"
       simplify_individual_paths="false"
       simplify_just_coalesce="false"
       step="1" />
    <inkscape:path-effect
       effect="powerstroke"
       id="path-effect159"
       is_visible="true"
       lpeversion="1"
       offset_points="2.2611036,0.075169555"
       not_jump="true"
       sort_points="true"
       interpolator_type="CentripetalCatmullRom"
       interpolator_beta="0.75"
       start_linecap_type="round"
       linejoin_type="spiro"
       miter_limit="4"
       scale_width="1"
       end_linecap_type="round" />
    <inkscape:path-effect
       effect="simplify"
       id="path-effect157"
       is_visible="true"
       lpeversion="1"
       steps="1"
       threshold="0.0028332064"
       smooth_angles="0"
       helper_size="0"
       simplify_individual_paths="false"
       simplify_just_coalesce="false"
       step="1" />
    <inkscape:path-effect
       effect="powerstroke"
       id="path-effect152"
       is_visible="true"
       lpeversion="1"
       offset_points="2.826981,0.075169555"
       not_jump="true"
       sort_points="true"
       interpolator_type="CentripetalCatmullRom"
       interpolator_beta="0.75"
       start_linecap_type="round"
       linejoin_type="spiro"
       miter_limit="4"
       scale_width="1"
       end_linecap_type="round" />
    <inkscape:path-effect
       effect="simplify"
       id="path-effect150"
       is_visible="true"
       lpeversion="1"
       steps="1"
       threshold="0.0028332064"
       smooth_angles="0"
       helper_size="0"
       simplify_individual_paths="false"
       simplify_just_coalesce="false"
       step="1" />
    <inkscape:path-effect
       effect="powerstroke"
       id="path-effect145"
       is_visible="true"
       lpeversion="1"
       offset_points="3.8374447,0.075169555"
       not_jump="true"
       sort_points="true"
       interpolator_type="CentripetalCatmullRom"
       interpolator_beta="0.75"
       start_linecap_type="round"
       linejoin_type="spiro"
       miter_limit="4"
       scale_width="1"
       end_linecap_type="round" />
    <inkscape:path-effect
       effect="simplify"
       id="path-effect143"
       is_visible="true"
       lpeversion="1"
       steps="1"
       threshold="0.0028332064"
       smooth_angles="0"
       helper_size="0"
       simplify_individual_paths="false"
       simplify_just_coalesce="false"
       step="1" />
    <inkscape:path-effect
       effect="powerstroke"
       id="path-effect138"
       is_visible="true"
       lpeversion="1"
       offset_points="2.6880907,0.075169555"
       not_jump="true"
       sort_points="true"
       interpolator_type="CentripetalCatmullRom"
       interpolator_beta="0.75"
       start_linecap_type="round"
       linejoin_type="spiro"
       miter_limit="4"
       scale_width="1"
       end_linecap_type="round" />
    <inkscape:path-effect
       effect="simplify"
       id="path-effect136"
       is_visible="true"
       lpeversion="1"
       steps="1"
       threshold="0.0028332064"
       smooth_angles="0"
       helper_size="0"
       simplify_individual_paths="false"
       simplify_just_coalesce="false"
       step="1" />
    <inkscape:path-effect
       effect="powerstroke"
       id="path-effect131"
       is_visible="true"
       lpeversion="1"
       offset_points="1.9940581,0.075169555"
       not_jump="true"
       sort_points="true"
       interpolator_type="CentripetalCatmullRom"
       interpolator_beta="0.75"
       start_linecap_type="round"
       linejoin_type="spiro"
       miter_limit="4"
       scale_width="1"
       end_linecap_type="round" />
    <inkscape:path-effect
       effect="simplify"
       id="path-effect129"
       is_visible="true"
       lpeversion="1"
       steps="1"
       threshold="0.0028332064"
       smooth_angles="0"
       helper_size="0"
       simplify_individual_paths="false"
       simplify_just_coalesce="false"
       step="1" />
  </defs>
  <sodipodi:namedview
     id="base"
     pagecolor="#ffffff"
     bordercolor="#666666"
     borderopacity="1.0"
     inkscape:pageopacity="0.0"
     inkscape:pageshadow="2"
     inkscape:zoom="7.919596"
     inkscape:cx="-5.3033008"
     inkscape:cy="20.834396"
     inkscape:document-units="mm"
     inkscape:current-layer="layer1"
     showgrid="false"
     fit-margin-top="0"
     fit-margin-left="0"
     fit-margin-right="0"
     fit-margin-bottom="0"
     inkscape:window-width="1280"
     inkscape:window-height="649"
     inkscape:window-x="-8"
     inkscape:window-y="1912"
     inkscape:window-maximized="1"
     showguides="true"
     inkscape:guide-bbox="true"
     inkscape:snap-bbox="true"
     inkscape:bbox-nodes="true"
     inkscape:snap-nodes="false"
     inkscape:snap-others="false"
     inkscape:snap-page="true"
     inkscape:snap-grids="false"
     inkscape:snap-to-guides="false"
     inkscape:snap-global="false"
     inkscape:pagecheckerboard="0"
     inkscape:showpageshadow="2"
     inkscape:deskcolor="#d1d1d1">
    <sodipodi:guide
       position="-6.1806075,9.4988692"
       orientation="0,1"
       id="guide816"
       inkscape:locked="false" />
    <sodipodi:guide
       position="-4.4101636,10.646923"
       orientation="0,1"
       id="guide818"
       inkscape:locked="false" />
    <sodipodi:guide
       position="2.7595724,11.09577"
       orientation="1,0"
       id="guide820"
       inkscape:locked="false" />
    <sodipodi:guide
       position="3.6572659,10.942217"
       orientation="1,0"
       id="guide822"
       inkscape:locked="false" />
    <sodipodi:guide
       position="-0.051625511,9.7492299"
       orientation="1,0"
       id="guide1853"
       inkscape:locked="false" />
    <sodipodi:guide
       position="-2.3720169,3.0175835"
       orientation="0,1"
       id="guide1855"
       inkscape:locked="false" />
  </sodipodi:namedview>
  <metadata
     id="metadata1678">
    <rdf:RDF>
      <cc:Work
         rdf:about="">
        <dc:format>image/svg+xml</dc:format>
        <dc:type
           rdf:resource="http://purl.org/dc/dcmitype/StillImage" />
      </cc:Work>
    </rdf:RDF>
  </metadata>
  <g
     inkscape:label="Layer 1"
     inkscape:groupmode="layer"
     id="layer1"
     transform="translate(17.028496,-147.22856)">
    <path
       d="m -13.614779,151.9709 c -0.05603,0.0451 -0.148504,0.11086 -0.259154,0.20713 -0.07659,0.0666 -0.167382,0.15541 -0.237042,0.27094 -0.04927,0.08 -0.0805,0.17087 -0.09675,0.26526 -0.03985,0.1404 -0.07834,0.28035 -0.103465,0.42419 -0.02816,0.16122 -0.03682,0.31304 -0.01887,0.46152 0.01051,0.0848 0.03049,0.15696 0.05107,0.2136 0.03681,0.10131 0.08385,0.17368 0.122153,0.22548 0.02982,0.0379 0.06649,0.0726 0.114738,0.1017 0.0285,0.0172 0.06277,0.0335 0.10287,0.0457 0.0094,0.003 0.01923,0.006 0.02934,0.008 0.07591,0.018 0.176555,0.0215 0.27832,-0.0169 0.08823,-0.0306 0.182368,-0.0972 0.245215,-0.20256 0.08483,-0.10724 0.148719,-0.23125 0.192216,-0.36671 0.0417,-0.12986 0.06401,-0.26829 0.06868,-0.40825 0.0096,-0.25402 -0.03022,-0.50747 -0.0925,-0.75762 -0.0014,-0.006 -0.0034,-0.0109 -0.0055,-0.0162 -0.0194,-0.0481 -0.03481,-0.1069 -0.05586,-0.17132 -0.01045,-0.032 -0.02269,-0.066 -0.03826,-0.0999 -0.01571,-0.0342 -0.0351,-0.069 -0.06016,-0.10246 -0.01202,-0.018 -0.03054,-0.0359 -0.05102,-0.0496 -0.02066,-0.0138 -0.04411,-0.024 -0.06911,-0.0293 -0.02541,-0.005 -0.05314,-0.006 -0.08118,2.5e-4 -0.02885,0.006 -0.05644,0.0198 -0.08029,0.0401 -0.01021,0.009 -0.02005,0.0181 -0.02671,0.0298 -0.0067,0.0116 -0.01008,0.0248 -0.01315,0.0378 -0.0046,0.0194 -0.0048,0.0372 -0.0034,0.052 0.0014,0.0147 0.0046,0.0275 0.0076,0.0374 0.0059,0.0189 0.01414,0.0359 0.01852,0.0448 0.0056,0.0115 0.0088,0.0176 0.01047,0.0221 0.0029,0.008 -0.0012,-3e-4 -0.0026,-0.005 l 0.0068,0.0209 c 0.03483,0.0859 0.0537,0.1753 0.06386,0.26209 0.0065,0.0559 0.0095,0.11142 0.01056,0.16447 7.78e-4,0.0403 4.32e-4,0.0811 -6.75e-4,0.12233 0.006,0.18519 0.01972,0.36714 0.05132,0.54712 0.03216,0.18321 0.08251,0.36231 0.160587,0.53237 0.08821,0.19347 0.210381,0.35305 0.343022,0.47639 0.09182,0.0902 0.180258,0.15725 0.233025,0.19561 a 0.13570051,0.13570051 90 0 0 0.159606,-0.2195 c -0.04654,-0.0338 -0.122443,-0.0928 -0.203259,-0.17329 -0.110597,-0.10371 -0.210307,-0.23457 -0.282823,-0.39344 -0.06645,-0.14465 -0.111022,-0.30032 -0.14039,-0.46575 -0.02892,-0.16291 -0.04238,-0.33109 -0.0488,-0.50119 9.37e-4,-0.0365 9.9e-4,-0.0817 -2.85e-4,-0.12714 -0.0017,-0.0596 -0.0058,-0.12437 -0.01447,-0.19117 -0.01331,-0.10234 -0.03802,-0.215 -0.08531,-0.32724 -0.0053,-0.0151 -0.01168,-0.0276 -0.01647,-0.0363 -0.0062,-0.0113 -0.01338,-0.0225 -0.01645,-0.0272 -0.004,-0.006 -0.0045,-0.007 -0.0035,-0.003 5.29e-4,0.002 0.0019,0.008 0.0025,0.0153 6.12e-4,0.008 5.56e-4,0.0186 -0.0025,0.0314 -0.0032,0.0131 -0.0064,0.0263 -0.01285,0.0381 -0.0065,0.0118 -0.01645,0.0212 -0.02701,0.0295 -0.0082,0.006 -0.01784,0.0108 -0.02782,0.0127 -0.0095,0.002 -0.01771,9.2e-4 -0.02404,-8.7e-4 -0.0062,-0.002 -0.01116,-0.005 -0.01516,-0.008 -0.004,-0.003 -0.0077,-0.007 -0.0108,-0.0127 0.01632,0.0204 0.02838,0.0395 0.03963,0.0617 0.0113,0.0223 0.02137,0.0467 0.03151,0.0742 0.01767,0.0479 0.03925,0.11753 0.06535,0.17732 0.06231,0.23348 0.100963,0.4616 0.09652,0.68607 -0.002,0.12284 -0.01953,0.24229 -0.05307,0.3527 -0.0355,0.11684 -0.08812,0.22104 -0.157007,0.30946 -0.0017,0.002 -0.0035,0.004 -0.005,0.007 -0.0016,0.002 -0.0029,0.005 -0.0042,0.007 -0.03399,0.0662 -0.08959,0.10832 -0.141432,0.12725 -0.05996,0.0232 -0.121508,0.0218 -0.166879,0.0103 -0.0059,-0.001 -0.0116,-0.003 -0.01703,-0.005 -0.02307,-0.008 -0.04179,-0.0175 -0.05653,-0.0275 -0.02491,-0.0169 -0.04159,-0.0361 -0.05294,-0.0538 -0.02206,-0.0376 -0.0539,-0.10275 -0.07909,-0.18036 -0.01459,-0.0449 -0.02912,-0.10162 -0.03659,-0.16782 -0.01404,-0.12161 -0.0073,-0.25063 0.01827,-0.39599 0.02337,-0.13308 0.05944,-0.26462 0.09982,-0.4075 0.0012,-0.004 0.0021,-0.008 0.0028,-0.0127 0.0117,-0.0735 0.03387,-0.13837 0.06627,-0.19256 0.05207,-0.0873 0.122516,-0.15857 0.191774,-0.21939 0.09783,-0.0859 0.19184,-0.15411 0.25161,-0.20224 a 0.11049299,0.11049299 90 0 0 -0.13859,-0.17212 z"
       id="path-1"
       inkscape:path-effect="#path-effect1159;#path-effect1161"
       inkscape:original-d="m -13.545484,152.05696 c -0.226608,0.18175 -0.504542,0.35992 -0.549314,0.67322 -0.109231,0.3815 -0.225567,0.82283 -0.01467,1.19083 0.121799,0.26087 0.50444,0.24671 0.636923,0.002 0.32381,-0.40921 0.268859,-0.97882 0.145592,-1.4525 -0.05026,-0.1089 -0.118534,-0.46746 -0.25514,-0.35697 0.113131,0.20775 0.136308,0.44311 0.12985,0.68021 0.01633,0.51234 0.102894,1.07239 0.491419,1.44367 0.07404,0.0757 0.154928,0.14465 0.240563,0.20692"
       style="fill:#000000;fill-rule:nonzero;stroke:none;stroke-width:1.4308" />
  </g>
</svg>
