<?xml version="1.0" encoding="UTF-8" standalone="no"?>
<!-- Created with Inkscape (http://www.inkscape.org/) -->

<svg
   width="6mm"
   height="10mm"
   viewBox="0 0 6.0000001 9.9999994"
   version="1.1"
   id="svg1681"
   inkscape:version="1.2.1 (9c6d41e410, 2022-07-14)"
   sodipodi:docname="lower a 1.4.svg"
   inkscape:export-filename="..\..\..\..\Downloads\lower a diff canvas resize 3.0.png"
   inkscape:export-xdpi="96"
   inkscape:export-ydpi="96"
   xmlns:inkscape="http://www.inkscape.org/namespaces/inkscape"
   xmlns:sodipodi="http://sodipodi.sourceforge.net/DTD/sodipodi-0.dtd"
   xmlns="http://www.w3.org/2000/svg"
   xmlns:svg="http://www.w3.org/2000/svg"
   xmlns:rdf="http://www.w3.org/1999/02/22-rdf-syntax-ns#"
   xmlns:cc="http://creativecommons.org/ns#"
   xmlns:dc="http://purl.org/dc/elements/1.1/">
  <defs
     id="defs1675">
    <inkscape:path-effect
       effect="powerstroke"
       id="path-effect1566"
       is_visible="true"
       lpeversion="1"
       offset_points="2.235537,0.11814002 | 8.2457956,0.14591254"
       not_jump="true"
       sort_points="true"
       interpolator_type="CentripetalCatmullRom"
       interpolator_beta="0.75"
       start_linecap_type="round"
       linejoin_type="spiro"
       miter_limit="4"
       scale_width="1"
       end_linecap_type="round" />
    <inkscape:path-effect
       effect="simplify"
       id="path-effect1564"
       is_visible="true"
       lpeversion="1"
       steps="1"
       threshold="0.0035951417"
       smooth_angles="0"
       helper_size="0"
       simplify_individual_paths="false"
       simplify_just_coalesce="false"
       step="1" />
    <inkscape:path-effect
       effect="powerstroke"
       id="path-effect502"
       is_visible="true"
       lpeversion="1"
       offset_points="3.0091841,0.21607495 | 7.3602657,0.17554228 | 9.4159651,0.20236537"
       not_jump="true"
       sort_points="true"
       interpolator_type="CentripetalCatmullRom"
       interpolator_beta="0.75"
       start_linecap_type="round"
       linejoin_type="spiro"
       miter_limit="4"
       scale_width="1"
       end_linecap_type="round" />
    <inkscape:path-effect
       effect="simplify"
       id="path-effect500"
       is_visible="true"
       lpeversion="1"
       steps="1"
       threshold="0.0035951417"
       smooth_angles="0"
       helper_size="0"
       simplify_individual_paths="false"
       simplify_just_coalesce="false"
       step="1" />
    <inkscape:path-effect
       effect="powerstroke"
       id="path-effect241"
       is_visible="true"
       lpeversion="1"
       offset_points="2.6879454,0.34086734"
       not_jump="true"
       sort_points="true"
       interpolator_type="CentripetalCatmullRom"
       interpolator_beta="0.75"
       start_linecap_type="round"
       linejoin_type="spiro"
       miter_limit="4"
       scale_width="1"
       end_linecap_type="round" />
    <inkscape:path-effect
       effect="simplify"
       id="path-effect239"
       is_visible="true"
       lpeversion="1"
       steps="1"
       threshold="0.0028332064"
       smooth_angles="0"
       helper_size="0"
       simplify_individual_paths="false"
       simplify_just_coalesce="false"
       step="1" />
    <inkscape:path-effect
       effect="powerstroke"
       id="path-effect234"
       is_visible="true"
       lpeversion="1"
       offset_points="2.13563,0.075169555"
       not_jump="true"
       sort_points="true"
       interpolator_type="CentripetalCatmullRom"
       interpolator_beta="0.75"
       start_linecap_type="round"
       linejoin_type="spiro"
       miter_limit="4"
       scale_width="1"
       end_linecap_type="round" />
    <inkscape:path-effect
       effect="simplify"
       id="path-effect232"
       is_visible="true"
       lpeversion="1"
       steps="1"
       threshold="0.0028332064"
       smooth_angles="0"
       helper_size="0"
       simplify_individual_paths="false"
       simplify_just_coalesce="false"
       step="1" />
    <inkscape:path-effect
       effect="powerstroke"
       id="path-effect227"
       is_visible="true"
       lpeversion="1"
       offset_points="2.1868266,0.075169555"
       not_jump="true"
       sort_points="true"
       interpolator_type="CentripetalCatmullRom"
       interpolator_beta="0.75"
       start_linecap_type="round"
       linejoin_type="spiro"
       miter_limit="4"
       scale_width="1"
       end_linecap_type="round" />
    <inkscape:path-effect
       effect="simplify"
       id="path-effect225"
       is_visible="true"
       lpeversion="1"
       steps="1"
       threshold="0.0028332064"
       smooth_angles="0"
       helper_size="0"
       simplify_individual_paths="false"
       simplify_just_coalesce="false"
       step="1" />
    <inkscape:path-effect
       effect="powerstroke"
       id="path-effect166"
       is_visible="true"
       lpeversion="1"
       offset_points="1.9637935,0.075169555"
       not_jump="true"
       sort_points="true"
       interpolator_type="CentripetalCatmullRom"
       interpolator_beta="0.75"
       start_linecap_type="round"
       linejoin_type="spiro"
       miter_limit="4"
       scale_width="1"
       end_linecap_type="round" />
    <inkscape:path-effect
       effect="simplify"
       id="path-effect164"
       is_visible="true"
       lpeversion="1"
       steps="1"
       threshold="0.0028332064"
       smooth_angles="0"
       helper_size="0"
       simplify_individual_paths="false"
       simplify_just_coalesce="false"
       step="1" />
    <inkscape:path-effect
       effect="powerstroke"
       id="path-effect159"
       is_visible="true"
       lpeversion="1"
       offset_points="2.2611036,0.075169555"
       not_jump="true"
       sort_points="true"
       interpolator_type="CentripetalCatmullRom"
       interpolator_beta="0.75"
       start_linecap_type="round"
       linejoin_type="spiro"
       miter_limit="4"
       scale_width="1"
       end_linecap_type="round" />
    <inkscape:path-effect
       effect="simplify"
       id="path-effect157"
       is_visible="true"
       lpeversion="1"
       steps="1"
       threshold="0.0028332064"
       smooth_angles="0"
       helper_size="0"
       simplify_individual_paths="false"
       simplify_just_coalesce="false"
       step="1" />
    <inkscape:path-effect
       effect="powerstroke"
       id="path-effect152"
       is_visible="true"
       lpeversion="1"
       offset_points="2.826981,0.075169555"
       not_jump="true"
       sort_points="true"
       interpolator_type="CentripetalCatmullRom"
       interpolator_beta="0.75"
       start_linecap_type="round"
       linejoin_type="spiro"
       miter_limit="4"
       scale_width="1"
       end_linecap_type="round" />
    <inkscape:path-effect
       effect="simplify"
       id="path-effect150"
       is_visible="true"
       lpeversion="1"
       steps="1"
       threshold="0.0028332064"
       smooth_angles="0"
       helper_size="0"
       simplify_individual_paths="false"
       simplify_just_coalesce="false"
       step="1" />
    <inkscape:path-effect
       effect="powerstroke"
       id="path-effect145"
       is_visible="true"
       lpeversion="1"
       offset_points="3.8374447,0.075169555"
       not_jump="true"
       sort_points="true"
       interpolator_type="CentripetalCatmullRom"
       interpolator_beta="0.75"
       start_linecap_type="round"
       linejoin_type="spiro"
       miter_limit="4"
       scale_width="1"
       end_linecap_type="round" />
    <inkscape:path-effect
       effect="simplify"
       id="path-effect143"
       is_visible="true"
       lpeversion="1"
       steps="1"
       threshold="0.0028332064"
       smooth_angles="0"
       helper_size="0"
       simplify_individual_paths="false"
       simplify_just_coalesce="false"
       step="1" />
    <inkscape:path-effect
       effect="powerstroke"
       id="path-effect138"
       is_visible="true"
       lpeversion="1"
       offset_points="2.6880907,0.075169555"
       not_jump="true"
       sort_points="true"
       interpolator_type="CentripetalCatmullRom"
       interpolator_beta="0.75"
       start_linecap_type="round"
       linejoin_type="spiro"
       miter_limit="4"
       scale_width="1"
       end_linecap_type="round" />
    <inkscape:path-effect
       effect="simplify"
       id="path-effect136"
       is_visible="true"
       lpeversion="1"
       steps="1"
       threshold="0.0028332064"
       smooth_angles="0"
       helper_size="0"
       simplify_individual_paths="false"
       simplify_just_coalesce="false"
       step="1" />
    <inkscape:path-effect
       effect="powerstroke"
       id="path-effect131"
       is_visible="true"
       lpeversion="1"
       offset_points="1.9940581,0.075169555"
       not_jump="true"
       sort_points="true"
       interpolator_type="CentripetalCatmullRom"
       interpolator_beta="0.75"
       start_linecap_type="round"
       linejoin_type="spiro"
       miter_limit="4"
       scale_width="1"
       end_linecap_type="round" />
    <inkscape:path-effect
       effect="simplify"
       id="path-effect129"
       is_visible="true"
       lpeversion="1"
       steps="1"
       threshold="0.0028332064"
       smooth_angles="0"
       helper_size="0"
       simplify_individual_paths="false"
       simplify_just_coalesce="false"
       step="1" />
  </defs>
  <sodipodi:namedview
     id="base"
     pagecolor="#ffffff"
     bordercolor="#666666"
     borderopacity="1.0"
     inkscape:pageopacity="0.0"
     inkscape:pageshadow="2"
     inkscape:zoom="7.919596"
     inkscape:cx="-5.3033008"
     inkscape:cy="20.834396"
     inkscape:document-units="mm"
     inkscape:current-layer="layer1"
     showgrid="false"
     fit-margin-top="0"
     fit-margin-left="0"
     fit-margin-right="0"
     fit-margin-bottom="0"
     inkscape:window-width="1920"
     inkscape:window-height="974"
     inkscape:window-x="-11"
     inkscape:window-y="2869"
     inkscape:window-maximized="1"
     showguides="true"
     inkscape:guide-bbox="true"
     inkscape:snap-bbox="true"
     inkscape:bbox-nodes="true"
     inkscape:snap-nodes="false"
     inkscape:snap-others="false"
     inkscape:snap-page="true"
     inkscape:snap-grids="false"
     inkscape:snap-to-guides="false"
     inkscape:snap-global="false"
     inkscape:pagecheckerboard="0"
     inkscape:showpageshadow="2"
     inkscape:deskcolor="#d1d1d1">
    <sodipodi:guide
       position="-6.1806075,9.4988692"
       orientation="0,1"
       id="guide816"
       inkscape:locked="false" />
    <sodipodi:guide
       position="-4.4101636,10.646923"
       orientation="0,1"
       id="guide818"
       inkscape:locked="false" />
    <sodipodi:guide
       position="2.7595724,11.09577"
       orientation="1,0"
       id="guide820"
       inkscape:locked="false" />
    <sodipodi:guide
       position="3.6572659,10.942217"
       orientation="1,0"
       id="guide822"
       inkscape:locked="false" />
    <sodipodi:guide
       position="-0.051625511,9.7492299"
       orientation="1,0"
       id="guide1853"
       inkscape:locked="false" />
    <sodipodi:guide
       position="-2.3720169,3.0175835"
       orientation="0,1"
       id="guide1855"
       inkscape:locked="false" />
  </sodipodi:namedview>
  <metadata
     id="metadata1678">
    <rdf:RDF>
      <cc:Work
         rdf:about="">
        <dc:format>image/svg+xml</dc:format>
        <dc:type
           rdf:resource="http://purl.org/dc/dcmitype/StillImage" />
      </cc:Work>
    </rdf:RDF>
  </metadata>
  <g
     inkscape:label="Layer 1"
     inkscape:groupmode="layer"
     id="layer1"
     transform="translate(17.028496,-147.22856)">
    <path
       d="m -13.033649,152.01324 c -0.07773,-0.0264 -0.191063,-0.0477 -0.329975,-0.0244 -0.09706,0.0162 -0.201955,0.0538 -0.300654,0.11894 -0.121329,0.0786 -0.227865,0.1784 -0.326286,0.29328 -0.09211,0.10751 -0.173022,0.22337 -0.250687,0.33895 -0.0413,0.066 -0.08029,0.13093 -0.117261,0.19774 -0.03987,0.0721 -0.07959,0.15028 -0.114838,0.23301 -0.06106,0.14331 -0.112086,0.30777 -0.125312,0.48805 -0.0019,0.0309 -0.0045,0.0675 -0.0047,0.10307 -2.1e-4,0.0346 0.0016,0.0749 0.01003,0.1168 0.0011,0.006 0.0029,0.011 0.0048,0.0164 0.03011,0.0839 0.08348,0.15909 0.15329,0.21652 0.06772,0.0557 0.152546,0.0959 0.246914,0.10779 0.126373,0.0167 0.253973,-0.004 0.369232,-0.0522 0.113942,-0.0474 0.217541,-0.12171 0.298774,-0.2147 0.03218,-0.0396 0.06371,-0.072 0.100516,-0.10994 0.03569,-0.0368 0.07612,-0.0786 0.11313,-0.12529 0.301698,-0.3624 0.509061,-0.78686 0.659206,-1.19954 0.01508,-0.031 0.0269,-0.0642 0.03487,-0.0981 0.009,-0.039 0.01355,-0.0798 0.01127,-0.12213 -0.0022,-0.0409 -0.01096,-0.0848 -0.03015,-0.12781 -0.01889,-0.0423 -0.04741,-0.0824 -0.08719,-0.11594 -0.04674,-0.0406 -0.103203,-0.0674 -0.161656,-0.0804 -0.0571,-0.0127 -0.115664,-0.0122 -0.171137,-9e-4 -0.05475,0.0112 -0.1081,0.0332 -0.155536,0.0654 -0.04711,0.032 -0.08945,0.0749 -0.120465,0.12822 -0.02406,0.0392 -0.04003,0.0819 -0.05151,0.11443 -0.01303,0.0369 -0.01953,0.0578 -0.02951,0.0797 -0.0014,0.003 -0.0028,0.006 -0.004,0.01 -0.09144,0.24406 -0.138977,0.50351 -0.138776,0.75933 2.1e-4,0.26574 0.05184,0.52544 0.156784,0.76217 0.102567,0.22953 0.248852,0.41706 0.393638,0.56089 0.347317,0.3364 0.744962,0.45519 1.006732,0.49802 a 0.14591254,0.14591254 90 0 0 0.04712,-0.288 c -0.216336,-0.0354 -0.559979,-0.13876 -0.848458,-0.41902 -0.123588,-0.12342 -0.24575,-0.28223 -0.32983,-0.47148 -0.08673,-0.19613 -0.130795,-0.41488 -0.130809,-0.64272 -1.3e-5,-0.21799 0.04043,-0.44065 0.118694,-0.65089 0.0162,-0.0362 0.02869,-0.0747 0.03734,-0.0991 0.01039,-0.0294 0.01799,-0.0474 0.02659,-0.0616 0.0084,-0.0145 0.01875,-0.0257 0.03275,-0.0353 0.0142,-0.01 0.03099,-0.0168 0.0485,-0.0205 0.01771,-0.004 0.03431,-0.003 0.04828,-4.3e-4 0.01383,0.003 0.02513,0.009 0.03426,0.0164 0.0055,0.005 0.0082,0.008 0.01037,0.0125 0.0025,0.005 0.0048,0.013 0.0056,0.0242 8.27e-4,0.0115 -1.34e-4,0.0249 -0.0032,0.0393 -0.0032,0.0149 -0.0081,0.0289 -0.01414,0.0416 -0.0025,0.005 -0.0049,0.0105 -0.0069,0.016 -0.141766,0.39674 -0.333528,0.79268 -0.609915,1.12929 -0.02909,0.0387 -0.05909,0.072 -0.0949,0.11132 -0.03394,0.0373 -0.07336,0.0803 -0.109045,0.12748 -0.04815,0.057 -0.116561,0.10815 -0.192027,0.14116 -0.07605,0.0333 -0.15639,0.047 -0.233076,0.0383 -0.04226,-0.004 -0.0826,-0.0206 -0.117207,-0.0473 -0.03412,-0.0263 -0.06058,-0.0608 -0.07652,-0.0985 -0.0035,-0.0163 -0.0055,-0.0346 -0.0066,-0.0552 -0.0013,-0.0269 -7.99e-4,-0.0554 -3.3e-4,-0.0859 0.0092,-0.14239 0.0497,-0.28068 0.103138,-0.40854 0.03074,-0.0735 0.06612,-0.14447 0.102828,-0.2116 0.034,-0.0622 0.07043,-0.12345 0.107969,-0.18401 0.07399,-0.11095 0.148441,-0.21753 0.231055,-0.31412 0.0876,-0.10243 0.177698,-0.18552 0.276442,-0.24934 0.07058,-0.0464 0.144312,-0.0722 0.210862,-0.0831 0.09298,-0.0152 0.167634,-3.9e-4 0.215418,0.0159 a 0.11814002,0.11814002 90 0 0 0.0761,-0.22368 z"
       id="path-1"
       inkscape:path-effect="#path-effect1564;#path-effect1566"
       inkscape:original-d="m -13.071699,152.12508 c -0.473668,-0.14936 -0.831629,0.32207 -1.062553,0.66571 -0.196271,0.31153 -0.382225,0.67593 -0.339995,1.05134 0.152925,0.39886 0.681197,0.27046 0.880487,-0.0184 0.374607,-0.37537 0.632144,-0.85876 0.80832,-1.35432 0.18771,-0.38871 -0.361684,-0.50354 -0.455623,-0.13029 -0.247422,0.58106 -0.228535,1.29385 0.168435,1.80665 0.258275,0.35892 0.669079,0.5897 1.10208,0.66043"
       style="fill:#000000;fill-rule:nonzero;stroke:none;stroke-width:1.45512" />
  </g>
</svg>
