<?xml version="1.0" encoding="UTF-8" standalone="no"?>
<!-- Created with Inkscape (http://www.inkscape.org/) -->

<svg
   width="6mm"
   height="10mm"
   viewBox="0 0 6.0000001 9.9999994"
   version="1.1"
   id="svg1681"
   inkscape:version="1.2.1 (9c6d41e410, 2022-07-14)"
   sodipodi:docname="lower i 1.5.svg"
   inkscape:export-filename="..\..\..\..\Downloads\lower a diff canvas resize 3.0.png"
   inkscape:export-xdpi="96"
   inkscape:export-ydpi="96"
   xmlns:inkscape="http://www.inkscape.org/namespaces/inkscape"
   xmlns:sodipodi="http://sodipodi.sourceforge.net/DTD/sodipodi-0.dtd"
   xmlns="http://www.w3.org/2000/svg"
   xmlns:svg="http://www.w3.org/2000/svg"
   xmlns:rdf="http://www.w3.org/1999/02/22-rdf-syntax-ns#"
   xmlns:cc="http://creativecommons.org/ns#"
   xmlns:dc="http://purl.org/dc/elements/1.1/">
  <defs
     id="defs1675">
    <inkscape:path-effect
       effect="powerstroke"
       id="path-effect2060"
       is_visible="true"
       lpeversion="1"
       offset_points="2.8228129,0.059163514 | 11.493616,0.070968441"
       not_jump="true"
       sort_points="true"
       interpolator_type="CentripetalCatmullRom"
       interpolator_beta="0.75"
       start_linecap_type="round"
       linejoin_type="spiro"
       miter_limit="4"
       scale_width="1"
       end_linecap_type="round" />
    <inkscape:path-effect
       effect="simplify"
       id="path-effect2058"
       is_visible="true"
       lpeversion="1"
       steps="1"
       threshold="0.0035951417"
       smooth_angles="0"
       helper_size="0"
       simplify_individual_paths="false"
       simplify_just_coalesce="false"
       step="1" />
    <inkscape:path-effect
       effect="powerstroke"
       id="path-effect2053"
       is_visible="true"
       lpeversion="1"
       offset_points="1.2247567,0.10057922"
       not_jump="true"
       sort_points="true"
       interpolator_type="CentripetalCatmullRom"
       interpolator_beta="0.75"
       start_linecap_type="round"
       linejoin_type="spiro"
       miter_limit="4"
       scale_width="1"
       end_linecap_type="round" />
    <inkscape:path-effect
       effect="simplify"
       id="path-effect2051"
       is_visible="true"
       lpeversion="1"
       steps="1"
       threshold="0.0035951417"
       smooth_angles="0"
       helper_size="0"
       simplify_individual_paths="false"
       simplify_just_coalesce="false"
       step="1" />
    <inkscape:path-effect
       effect="powerstroke"
       id="path-effect2046"
       is_visible="true"
       lpeversion="1"
       offset_points="1.0242089,0.097485514"
       not_jump="true"
       sort_points="true"
       interpolator_type="CentripetalCatmullRom"
       interpolator_beta="0.75"
       start_linecap_type="round"
       linejoin_type="spiro"
       miter_limit="4"
       scale_width="1"
       end_linecap_type="round" />
    <inkscape:path-effect
       effect="simplify"
       id="path-effect2044"
       is_visible="true"
       lpeversion="1"
       steps="1"
       threshold="0.0035951417"
       smooth_angles="0"
       helper_size="0"
       simplify_individual_paths="false"
       simplify_just_coalesce="false"
       step="1" />
    <inkscape:path-effect
       effect="powerstroke"
       id="path-effect2039"
       is_visible="true"
       lpeversion="1"
       offset_points="0.5,0.040521087"
       not_jump="true"
       sort_points="true"
       interpolator_type="CentripetalCatmullRom"
       interpolator_beta="0.75"
       start_linecap_type="round"
       linejoin_type="spiro"
       miter_limit="4"
       scale_width="1"
       end_linecap_type="round" />
    <inkscape:path-effect
       effect="simplify"
       id="path-effect2037"
       is_visible="true"
       lpeversion="1"
       steps="1"
       threshold="0.0035951417"
       smooth_angles="0"
       helper_size="0"
       simplify_individual_paths="false"
       simplify_just_coalesce="false"
       step="1" />
    <inkscape:path-effect
       effect="powerstroke"
       id="path-effect502"
       is_visible="true"
       lpeversion="1"
       offset_points="3.0091841,0.21607495 | 7.3602657,0.17554228 | 9.4159651,0.20236537"
       not_jump="true"
       sort_points="true"
       interpolator_type="CentripetalCatmullRom"
       interpolator_beta="0.75"
       start_linecap_type="round"
       linejoin_type="spiro"
       miter_limit="4"
       scale_width="1"
       end_linecap_type="round" />
    <inkscape:path-effect
       effect="simplify"
       id="path-effect500"
       is_visible="true"
       lpeversion="1"
       steps="1"
       threshold="0.0035951417"
       smooth_angles="0"
       helper_size="0"
       simplify_individual_paths="false"
       simplify_just_coalesce="false"
       step="1" />
    <inkscape:path-effect
       effect="powerstroke"
       id="path-effect241"
       is_visible="true"
       lpeversion="1"
       offset_points="2.6879454,0.34086734"
       not_jump="true"
       sort_points="true"
       interpolator_type="CentripetalCatmullRom"
       interpolator_beta="0.75"
       start_linecap_type="round"
       linejoin_type="spiro"
       miter_limit="4"
       scale_width="1"
       end_linecap_type="round" />
    <inkscape:path-effect
       effect="simplify"
       id="path-effect239"
       is_visible="true"
       lpeversion="1"
       steps="1"
       threshold="0.0028332064"
       smooth_angles="0"
       helper_size="0"
       simplify_individual_paths="false"
       simplify_just_coalesce="false"
       step="1" />
    <inkscape:path-effect
       effect="powerstroke"
       id="path-effect234"
       is_visible="true"
       lpeversion="1"
       offset_points="2.13563,0.075169555"
       not_jump="true"
       sort_points="true"
       interpolator_type="CentripetalCatmullRom"
       interpolator_beta="0.75"
       start_linecap_type="round"
       linejoin_type="spiro"
       miter_limit="4"
       scale_width="1"
       end_linecap_type="round" />
    <inkscape:path-effect
       effect="simplify"
       id="path-effect232"
       is_visible="true"
       lpeversion="1"
       steps="1"
       threshold="0.0028332064"
       smooth_angles="0"
       helper_size="0"
       simplify_individual_paths="false"
       simplify_just_coalesce="false"
       step="1" />
    <inkscape:path-effect
       effect="powerstroke"
       id="path-effect227"
       is_visible="true"
       lpeversion="1"
       offset_points="2.1868266,0.075169555"
       not_jump="true"
       sort_points="true"
       interpolator_type="CentripetalCatmullRom"
       interpolator_beta="0.75"
       start_linecap_type="round"
       linejoin_type="spiro"
       miter_limit="4"
       scale_width="1"
       end_linecap_type="round" />
    <inkscape:path-effect
       effect="simplify"
       id="path-effect225"
       is_visible="true"
       lpeversion="1"
       steps="1"
       threshold="0.0028332064"
       smooth_angles="0"
       helper_size="0"
       simplify_individual_paths="false"
       simplify_just_coalesce="false"
       step="1" />
    <inkscape:path-effect
       effect="powerstroke"
       id="path-effect166"
       is_visible="true"
       lpeversion="1"
       offset_points="1.9637935,0.075169555"
       not_jump="true"
       sort_points="true"
       interpolator_type="CentripetalCatmullRom"
       interpolator_beta="0.75"
       start_linecap_type="round"
       linejoin_type="spiro"
       miter_limit="4"
       scale_width="1"
       end_linecap_type="round" />
    <inkscape:path-effect
       effect="simplify"
       id="path-effect164"
       is_visible="true"
       lpeversion="1"
       steps="1"
       threshold="0.0028332064"
       smooth_angles="0"
       helper_size="0"
       simplify_individual_paths="false"
       simplify_just_coalesce="false"
       step="1" />
    <inkscape:path-effect
       effect="powerstroke"
       id="path-effect159"
       is_visible="true"
       lpeversion="1"
       offset_points="2.2611036,0.075169555"
       not_jump="true"
       sort_points="true"
       interpolator_type="CentripetalCatmullRom"
       interpolator_beta="0.75"
       start_linecap_type="round"
       linejoin_type="spiro"
       miter_limit="4"
       scale_width="1"
       end_linecap_type="round" />
    <inkscape:path-effect
       effect="simplify"
       id="path-effect157"
       is_visible="true"
       lpeversion="1"
       steps="1"
       threshold="0.0028332064"
       smooth_angles="0"
       helper_size="0"
       simplify_individual_paths="false"
       simplify_just_coalesce="false"
       step="1" />
    <inkscape:path-effect
       effect="powerstroke"
       id="path-effect152"
       is_visible="true"
       lpeversion="1"
       offset_points="2.826981,0.075169555"
       not_jump="true"
       sort_points="true"
       interpolator_type="CentripetalCatmullRom"
       interpolator_beta="0.75"
       start_linecap_type="round"
       linejoin_type="spiro"
       miter_limit="4"
       scale_width="1"
       end_linecap_type="round" />
    <inkscape:path-effect
       effect="simplify"
       id="path-effect150"
       is_visible="true"
       lpeversion="1"
       steps="1"
       threshold="0.0028332064"
       smooth_angles="0"
       helper_size="0"
       simplify_individual_paths="false"
       simplify_just_coalesce="false"
       step="1" />
    <inkscape:path-effect
       effect="powerstroke"
       id="path-effect145"
       is_visible="true"
       lpeversion="1"
       offset_points="3.8374447,0.075169555"
       not_jump="true"
       sort_points="true"
       interpolator_type="CentripetalCatmullRom"
       interpolator_beta="0.75"
       start_linecap_type="round"
       linejoin_type="spiro"
       miter_limit="4"
       scale_width="1"
       end_linecap_type="round" />
    <inkscape:path-effect
       effect="simplify"
       id="path-effect143"
       is_visible="true"
       lpeversion="1"
       steps="1"
       threshold="0.0028332064"
       smooth_angles="0"
       helper_size="0"
       simplify_individual_paths="false"
       simplify_just_coalesce="false"
       step="1" />
    <inkscape:path-effect
       effect="powerstroke"
       id="path-effect138"
       is_visible="true"
       lpeversion="1"
       offset_points="2.6880907,0.075169555"
       not_jump="true"
       sort_points="true"
       interpolator_type="CentripetalCatmullRom"
       interpolator_beta="0.75"
       start_linecap_type="round"
       linejoin_type="spiro"
       miter_limit="4"
       scale_width="1"
       end_linecap_type="round" />
    <inkscape:path-effect
       effect="simplify"
       id="path-effect136"
       is_visible="true"
       lpeversion="1"
       steps="1"
       threshold="0.0028332064"
       smooth_angles="0"
       helper_size="0"
       simplify_individual_paths="false"
       simplify_just_coalesce="false"
       step="1" />
    <inkscape:path-effect
       effect="powerstroke"
       id="path-effect131"
       is_visible="true"
       lpeversion="1"
       offset_points="1.9940581,0.075169555"
       not_jump="true"
       sort_points="true"
       interpolator_type="CentripetalCatmullRom"
       interpolator_beta="0.75"
       start_linecap_type="round"
       linejoin_type="spiro"
       miter_limit="4"
       scale_width="1"
       end_linecap_type="round" />
    <inkscape:path-effect
       effect="simplify"
       id="path-effect129"
       is_visible="true"
       lpeversion="1"
       steps="1"
       threshold="0.0028332064"
       smooth_angles="0"
       helper_size="0"
       simplify_individual_paths="false"
       simplify_just_coalesce="false"
       step="1" />
  </defs>
  <sodipodi:namedview
     id="base"
     pagecolor="#ffffff"
     bordercolor="#666666"
     borderopacity="1.0"
     inkscape:pageopacity="0.0"
     inkscape:pageshadow="2"
     inkscape:zoom="7.919596"
     inkscape:cx="-5.3033008"
     inkscape:cy="20.834396"
     inkscape:document-units="mm"
     inkscape:current-layer="layer1"
     showgrid="false"
     fit-margin-top="0"
     fit-margin-left="0"
     fit-margin-right="0"
     fit-margin-bottom="0"
     inkscape:window-width="1920"
     inkscape:window-height="974"
     inkscape:window-x="-11"
     inkscape:window-y="2869"
     inkscape:window-maximized="1"
     showguides="true"
     inkscape:guide-bbox="true"
     inkscape:snap-bbox="true"
     inkscape:bbox-nodes="true"
     inkscape:snap-nodes="false"
     inkscape:snap-others="false"
     inkscape:snap-page="true"
     inkscape:snap-grids="false"
     inkscape:snap-to-guides="false"
     inkscape:snap-global="false"
     inkscape:pagecheckerboard="0"
     inkscape:showpageshadow="2"
     inkscape:deskcolor="#d1d1d1">
    <sodipodi:guide
       position="-6.1806075,9.4988692"
       orientation="0,1"
       id="guide816"
       inkscape:locked="false" />
    <sodipodi:guide
       position="-4.4101636,10.646923"
       orientation="0,1"
       id="guide818"
       inkscape:locked="false" />
    <sodipodi:guide
       position="2.7595724,11.09577"
       orientation="1,0"
       id="guide820"
       inkscape:locked="false" />
    <sodipodi:guide
       position="3.6572659,10.942217"
       orientation="1,0"
       id="guide822"
       inkscape:locked="false" />
    <sodipodi:guide
       position="-0.051625511,9.7492299"
       orientation="1,0"
       id="guide1853"
       inkscape:locked="false" />
    <sodipodi:guide
       position="-2.3720169,3.0175835"
       orientation="0,1"
       id="guide1855"
       inkscape:locked="false" />
  </sodipodi:namedview>
  <metadata
     id="metadata1678">
    <rdf:RDF>
      <cc:Work
         rdf:about="">
        <dc:format>image/svg+xml</dc:format>
        <dc:type
           rdf:resource="http://purl.org/dc/dcmitype/StillImage" />
      </cc:Work>
    </rdf:RDF>
  </metadata>
  <g
     inkscape:label="Layer 1"
     inkscape:groupmode="layer"
     id="layer1"
     transform="translate(17.028496,-147.22856)">
    <path
       d="m -13.816082,151.9893 c -0.06857,0.25972 -0.183727,0.76579 -0.113196,1.30619 0.0089,0.0678 0.02,0.12922 0.03179,0.18375 0.05925,0.27406 0.156888,0.47314 0.233411,0.60088 a 0.10057922,0.10057922 90 0 0 0.172564,-0.10338 c -0.06758,-0.11282 -0.155626,-0.29147 -0.209359,-0.54001 -0.01071,-0.0495 -0.02083,-0.10547 -0.02894,-0.16733 -0.06529,-0.50029 0.0413,-0.97523 0.108231,-1.22874 a 0.10057922,0.10057922 90 0 0 -0.194494,-0.0514 z"
       id="path-1"
       inkscape:path-effect="#path-effect2051;#path-effect2053"
       inkscape:original-d="m -13.718835,152.01498 c -0.174643,0.65762 -0.220545,1.40741 0.141037,2.01345"
       style="fill:#000000;fill-rule:nonzero;stroke:none;stroke-width:1.15332" />
    <path
       d="m -13.533911,150.7269 c -0.02497,0.006 -0.05275,0.0164 -0.08552,0.0346 -0.02375,0.0132 -0.04538,0.0278 -0.06933,0.0442 -0.06292,0.0453 -0.130103,0.10073 -0.192862,0.16845 -0.0051,0.006 -0.01104,0.012 -0.0188,0.0216 -0.0037,0.005 -0.0081,0.0105 -0.01207,0.0175 -0.0012,0.002 -0.0023,0.004 -0.0034,0.006 -0.0027,0.005 -0.0051,0.0116 -0.007,0.0186 -0.0014,0.005 -0.0028,0.0105 -0.0033,0.0158 -4.97e-4,0.005 -1.05e-4,0.0109 0.0014,0.016 0.0015,0.005 0.0041,0.01 0.0073,0.0143 0.0032,0.004 0.0071,0.008 0.011,0.0119 0.0028,0.003 0.0064,0.006 0.01088,0.008 0.0045,0.003 0.01013,0.006 0.01688,0.007 0.0068,0.002 0.01416,0.003 0.02179,0.002 0.0075,-6.3e-4 0.01425,-0.003 0.02005,-0.005 0.01093,-0.005 0.01808,-0.0117 0.02186,-0.0158 0.0038,-0.004 0.0065,-0.008 0.0079,-0.0103 0.0016,-0.002 0.0025,-0.004 0.0031,-0.005 -2.37e-4,6.7e-4 -0.0018,0.003 -0.0047,0.006 -0.0027,0.003 -0.0088,0.009 -0.01883,0.0132 l 0.02271,-0.0166 c 0.05067,-0.0591 0.107864,-0.11853 0.172065,-0.17293 0.01783,-0.0135 0.03134,-0.0251 0.04755,-0.0358 0.0072,-0.005 0.0137,-0.008 0.01972,-0.0109 0.0059,-0.003 0.01107,-0.004 0.01594,-0.005 -0.0072,9.4e-4 -0.01152,9.7e-4 -0.01664,-2.2e-4 -0.0052,-0.001 -0.0101,-0.003 -0.01445,-0.006 -0.0042,-0.003 -0.0072,-0.006 -0.0093,-0.009 -0.002,-0.003 -0.0032,-0.005 -0.0038,-0.006 -0.0012,-0.003 -0.0011,-0.003 -0.0012,-0.002 -0.0028,0.0187 -0.0038,0.0268 -0.006,0.0335 -8.72e-4,0.003 -0.0016,0.004 -0.0019,0.004 -0.0018,0.002 -0.0036,0.003 -0.0052,0.005 -0.0016,0.002 -0.0029,0.004 -0.0043,0.006 -0.0027,0.004 -0.01868,0.0258 -0.02738,0.0421 -0.0054,0.0101 -0.01098,0.0229 -0.01419,0.0379 -0.0033,0.0154 -0.004,0.0328 2.85e-4,0.0512 0.0014,0.006 0.003,0.012 0.006,0.0173 0.003,0.005 0.0072,0.01 0.01141,0.0144 0.0071,0.007 0.0155,0.0137 0.02497,0.0185 0.0095,0.005 0.01908,0.008 0.02833,0.009 0.01801,0.003 0.03376,-4.5e-4 0.04471,-0.004 0.01112,-0.003 0.02074,-0.008 0.02756,-0.0112 0.0072,-0.004 0.01283,-0.007 0.01614,-0.009 0.0276,-0.0178 0.05067,-0.0382 0.06901,-0.0633 0.0093,-0.0127 0.01754,-0.0269 0.02394,-0.0424 0.0065,-0.0157 0.011,-0.0327 0.01283,-0.0507 0.0029,-0.0289 -0.0028,-0.0558 -0.01259,-0.0785 -0.01019,-0.0233 -0.02465,-0.0435 -0.04184,-0.0601 -0.0072,-0.007 -0.0151,-0.0138 -0.02459,-0.0172 -0.0095,-0.003 -0.01984,-0.003 -0.0299,-0.003 -0.02331,0.002 -0.04401,0.009 -0.06177,0.0197 -0.01694,0.0103 -0.03032,0.023 -0.04083,0.0353 -0.0103,0.012 -0.0187,0.0245 -0.02549,0.0355 -0.0065,0.0105 -0.01266,0.0216 -0.01698,0.0291 -0.03131,0.0616 -0.05342,0.12468 -0.06774,0.19059 -9.37e-4,0.005 -0.002,0.009 -0.0032,0.0176 -0.0011,0.008 -0.0024,0.0204 2.02e-4,0.0353 0.0026,0.0152 0.0057,0.0306 0.01342,0.0438 0.0078,0.0133 0.0204,0.0239 0.03526,0.0278 0.01486,0.004 0.03111,9.3e-4 0.04441,-0.007 0.0133,-0.008 0.02356,-0.0196 0.03334,-0.0315 0.0085,-0.0103 0.01477,-0.0209 0.01955,-0.0307 0.0047,-0.01 0.0082,-0.019 0.01087,-0.0269 0.0055,-0.0161 0.0088,-0.0285 0.01133,-0.0352 0.0036,-0.0108 0.0056,-0.0174 0.0075,-0.0239 0.0024,-0.008 0.0046,-0.0157 0.0054,-0.0238 7.45e-4,-0.008 -9.8e-5,-0.0164 -0.0029,-0.024 -0.0028,-0.008 -0.0076,-0.0145 -0.01351,-0.0201 -0.0059,-0.006 -0.01281,-0.01 -0.01973,-0.0143 -0.02029,-0.0126 -0.04268,-0.0192 -0.06433,-0.0208 -0.02173,-0.002 -0.04319,0.002 -0.06276,0.009 -0.01977,0.007 -0.03839,0.019 -0.05384,0.0348 -0.01446,0.0148 -0.02601,0.0331 -0.03279,0.0543 -0.0053,0.0134 -0.0067,0.027 -0.0057,0.0389 5.95e-4,0.008 0.0022,0.0151 0.0047,0.0224 0.0026,0.007 0.0063,0.0147 0.01138,0.0219 0.0052,0.007 0.01205,0.0143 0.02096,0.0203 0.0091,0.006 0.02001,0.0107 0.03223,0.0127 0.01238,0.002 0.0244,9.1e-4 0.03529,-0.002 0.0108,-0.003 0.01979,-0.008 0.02696,-0.0133 0.0065,-0.004 0.01827,-0.0122 0.02926,-0.0221 0.01121,-0.0102 0.02224,-0.0224 0.03146,-0.0366 0.0095,-0.0146 0.01756,-0.0322 0.02127,-0.0523 0.0039,-0.0212 0.0026,-0.0434 -0.0049,-0.0652 -0.002,-0.006 -0.0046,-0.0111 -0.0079,-0.0161 -0.0057,-0.009 -0.01354,-0.0174 -0.02379,-0.0244 -0.01077,-0.007 -0.02289,-0.012 -0.03543,-0.0138 -0.01251,-0.002 -0.02383,-4.7e-4 -0.03308,0.002 -0.0093,0.002 -0.01717,0.006 -0.0233,0.01 -0.01236,0.007 -0.02167,0.0162 -0.02811,0.0239 -0.0035,0.004 -0.0068,0.009 -0.0096,0.0133 -0.0029,0.005 -0.0057,0.01 -0.0081,0.0159 -0.0043,0.007 -0.0084,0.0206 -0.01061,0.0283 a 0.07096844,0.07096844 90 0 0 0.136536,0.0388 c 8.84e-4,-0.003 0.0019,-0.006 0.0027,-0.007 0.0021,-0.004 0.001,-0.002 2.26e-4,-8.7e-4 -0.0035,0.005 -0.0063,0.008 -0.01154,0.0108 -0.0027,0.002 -0.007,0.004 -0.01268,0.005 -0.0057,0.001 -0.01343,0.002 -0.0224,0.001 -0.0091,-0.001 -0.01774,-0.005 -0.02522,-0.01 -0.007,-0.005 -0.01178,-0.0104 -0.01458,-0.0146 -0.0033,-0.005 -0.0059,-0.0105 -0.0079,-0.0161 -7.48e-4,-0.002 -9.4e-4,-0.005 -5.5e-4,-0.007 3.02e-4,-0.002 6.52e-4,-0.002 -7.05e-4,5e-4 -0.0013,0.002 -0.0038,0.005 -0.0076,0.008 -0.0037,0.003 -0.008,0.006 -0.01235,0.009 -0.0013,5.7e-4 0.0045,-0.003 0.01232,-0.005 0.0079,-0.002 0.01715,-0.003 0.02693,-0.002 0.0096,0.002 0.01816,0.005 0.02515,0.01 0.0068,0.005 0.01182,0.01 0.0154,0.0148 0.0035,0.005 0.006,0.01 0.0076,0.0145 0.0016,0.005 0.0026,0.009 0.0029,0.0139 7.04e-4,0.009 -6.76e-4,0.02 -0.0067,0.0312 l -0.02327,-0.0965 c -0.0019,0.006 -0.0039,0.0122 -0.0058,0.0183 -0.0054,0.0135 -0.0089,0.0276 -0.01203,0.0369 -0.0016,0.005 -0.0029,0.008 -0.0039,0.01 l 0.125224,0.0356 c 0.0011,0.006 3.95e-4,0.0102 4.33e-4,0.01 3.8e-5,-3.6e-4 9e-4,-0.004 0.002,-0.0119 0.01098,-0.0503 0.02902,-0.10189 0.05261,-0.14882 0.0039,-0.007 0.0079,-0.014 0.01281,-0.0221 0.0047,-0.008 0.0086,-0.0134 0.0122,-0.0176 0.0036,-0.004 0.0057,-0.006 0.0062,-0.006 l -0.05662,-0.0193 c 0.0049,0.005 0.0084,0.01 0.01041,0.0139 0.002,0.004 0.0023,0.007 0.0023,0.008 -2.63e-4,0.003 -0.0011,0.007 -0.0027,0.0113 -0.0016,0.004 -0.004,0.009 -0.0073,0.0133 -0.0067,0.01 -0.01641,0.0189 -0.02805,0.0269 -0.001,5.4e-4 -0.0048,0.003 -0.0075,0.004 -0.0029,0.002 -0.0042,0.002 -0.0034,0.002 0.0011,-2e-4 0.0055,-0.002 0.01385,-3e-4 0.0043,6.5e-4 0.0091,0.002 0.01399,0.005 0.0049,0.002 0.0089,0.006 0.01194,0.009 0.0042,0.004 0.0085,0.009 0.01154,0.0143 0.0031,0.005 0.0047,0.0113 0.0059,0.0174 6.97e-4,0.004 3.47e-4,0.006 -7.8e-5,0.008 -3.48e-4,0.001 -2.99e-4,-1.6e-4 0.0011,-0.003 0.0025,-0.005 0.0093,-0.015 0.01767,-0.0286 0.007,-0.008 0.01252,-0.0168 0.01691,-0.0254 0.0057,-0.0112 0.0094,-0.0222 0.01183,-0.0321 0.0046,-0.0184 0.0061,-0.0379 0.0071,-0.0479 0.0011,-0.008 0.0014,-0.0192 3.6e-4,-0.03 -0.001,-0.0107 -0.0035,-0.0234 -0.0089,-0.0362 -0.0028,-0.007 -0.0065,-0.0136 -0.01166,-0.0205 -0.0052,-0.007 -0.01187,-0.0139 -0.02032,-0.0198 -0.0086,-0.006 -0.01835,-0.0105 -0.02896,-0.013 -0.0106,-0.003 -0.02104,-0.003 -0.03086,-0.002 -0.02151,0.004 -0.0372,0.009 -0.05118,0.0156 -0.01409,0.007 -0.02668,0.0143 -0.03773,0.022 -0.02046,0.0142 -0.04283,0.0336 -0.05556,0.0437 -0.07058,0.0612 -0.130601,0.12496 -0.182966,0.18708 -0.0011,0.001 -0.002,0.002 -0.0028,0.003 -0.0041,0.004 -0.0068,0.009 -0.0082,0.0108 -0.0015,0.002 -0.0026,0.005 -0.003,0.005 1.78e-4,1e-4 0.0019,-0.002 0.0045,-0.005 0.0026,-0.003 0.0086,-0.009 0.01822,-0.013 0.0052,-0.002 0.01123,-0.004 0.01805,-0.005 0.0069,-5.8e-4 0.01359,1.5e-4 0.01964,0.002 0.006,0.002 0.01087,0.004 0.01457,0.006 0.0037,0.002 0.0065,0.005 0.0084,0.007 0.0042,0.004 0.0085,0.008 0.01259,0.0122 0.0041,0.004 0.0079,0.009 0.01037,0.014 0.0024,0.005 0.0033,0.0114 0.002,0.0171 -0.0013,0.006 -0.0047,0.0106 -0.0082,0.0153 0.0025,-0.003 0.0081,-0.009 0.01521,-0.0179 0.0536,-0.0578 0.114478,-0.10813 0.171638,-0.14909 0.02278,-0.0155 0.04047,-0.0272 0.05893,-0.0374 0.02426,-0.0133 0.04214,-0.0195 0.056,-0.0228 a 0.05916351,0.05916351 90 0 0 -0.02767,-0.11504 z"
       id="path-1-9"
       inkscape:path-effect="#path-effect2058;#path-effect2060"
       inkscape:original-d="m -13.520075,150.78442 c -0.126853,0.0265 -0.38006,0.27493 -0.341668,0.27116 0.06473,-0.0835 0.393184,-0.43217 0.320803,-0.15779 -0.175409,0.22327 0.191287,0.0495 0.04839,-0.0925 -0.116646,-0.003 -0.202773,0.47626 -0.113818,0.18758 -0.114466,-0.0576 -0.154473,0.14766 -0.04659,0.017 0.03026,-0.0682 -0.01928,-0.0848 -0.03806,-0.0185"
       style="fill:#000000;fill-rule:nonzero;stroke:none;stroke-width:0.945959" />
  </g>
</svg>
