<?xml version="1.0" encoding="UTF-8" standalone="no"?>
<!-- Created with Inkscape (http://www.inkscape.org/) -->

<svg
   width="6mm"
   height="10mm"
   viewBox="0 0 6.0000001 9.9999994"
   version="1.1"
   id="svg1681"
   inkscape:version="1.2.1 (9c6d41e410, 2022-07-14)"
   sodipodi:docname="lower i 1.3.svg"
   inkscape:export-filename="..\..\..\..\Downloads\lower a diff canvas resize 3.0.png"
   inkscape:export-xdpi="96"
   inkscape:export-ydpi="96"
   xmlns:inkscape="http://www.inkscape.org/namespaces/inkscape"
   xmlns:sodipodi="http://sodipodi.sourceforge.net/DTD/sodipodi-0.dtd"
   xmlns="http://www.w3.org/2000/svg"
   xmlns:svg="http://www.w3.org/2000/svg"
   xmlns:rdf="http://www.w3.org/1999/02/22-rdf-syntax-ns#"
   xmlns:cc="http://creativecommons.org/ns#"
   xmlns:dc="http://purl.org/dc/elements/1.1/">
  <defs
     id="defs1675">
    <inkscape:path-effect
       effect="powerstroke"
       id="path-effect1811"
       is_visible="true"
       lpeversion="1"
       offset_points="2.2109952,0.091381857 | 9.3141353,0.10575149"
       not_jump="true"
       sort_points="true"
       interpolator_type="CentripetalCatmullRom"
       interpolator_beta="0.75"
       start_linecap_type="round"
       linejoin_type="spiro"
       miter_limit="4"
       scale_width="1"
       end_linecap_type="round" />
    <inkscape:path-effect
       effect="simplify"
       id="path-effect1809"
       is_visible="true"
       lpeversion="1"
       steps="1"
       threshold="0.0035951417"
       smooth_angles="0"
       helper_size="0"
       simplify_individual_paths="false"
       simplify_just_coalesce="false"
       step="1" />
    <inkscape:path-effect
       effect="powerstroke"
       id="path-effect1804"
       is_visible="true"
       lpeversion="1"
       offset_points="0.5,0.09564784"
       not_jump="true"
       sort_points="true"
       interpolator_type="CentripetalCatmullRom"
       interpolator_beta="0.75"
       start_linecap_type="round"
       linejoin_type="spiro"
       miter_limit="4"
       scale_width="1"
       end_linecap_type="round" />
    <inkscape:path-effect
       effect="simplify"
       id="path-effect1802"
       is_visible="true"
       lpeversion="1"
       steps="1"
       threshold="0.0035951417"
       smooth_angles="0"
       helper_size="0"
       simplify_individual_paths="false"
       simplify_just_coalesce="false"
       step="1" />
    <inkscape:path-effect
       effect="powerstroke"
       id="path-effect1757"
       is_visible="true"
       lpeversion="1"
       offset_points="4.8150845,0.065332913 | 8.6385975,0.076490893"
       not_jump="true"
       sort_points="true"
       interpolator_type="CentripetalCatmullRom"
       interpolator_beta="0.75"
       start_linecap_type="round"
       linejoin_type="spiro"
       miter_limit="4"
       scale_width="1"
       end_linecap_type="round" />
    <inkscape:path-effect
       effect="simplify"
       id="path-effect1755"
       is_visible="true"
       lpeversion="1"
       steps="1"
       threshold="0.0035951417"
       smooth_angles="0"
       helper_size="0"
       simplify_individual_paths="false"
       simplify_just_coalesce="false"
       step="1" />
    <inkscape:path-effect
       effect="powerstroke"
       id="path-effect1748"
       is_visible="true"
       lpeversion="1"
       offset_points="1.3959782,0.081335806"
       not_jump="true"
       sort_points="true"
       interpolator_type="CentripetalCatmullRom"
       interpolator_beta="0.75"
       start_linecap_type="round"
       linejoin_type="spiro"
       miter_limit="4"
       scale_width="1"
       end_linecap_type="round" />
    <inkscape:path-effect
       effect="simplify"
       id="path-effect1746"
       is_visible="true"
       lpeversion="1"
       steps="1"
       threshold="0.0035951417"
       smooth_angles="0"
       helper_size="0"
       simplify_individual_paths="false"
       simplify_just_coalesce="false"
       step="1" />
    <inkscape:path-effect
       effect="powerstroke"
       id="path-effect1741"
       is_visible="true"
       lpeversion="1"
       offset_points="0.7205918,0.076637709"
       not_jump="true"
       sort_points="true"
       interpolator_type="CentripetalCatmullRom"
       interpolator_beta="0.75"
       start_linecap_type="round"
       linejoin_type="spiro"
       miter_limit="4"
       scale_width="1"
       end_linecap_type="round" />
    <inkscape:path-effect
       effect="simplify"
       id="path-effect1739"
       is_visible="true"
       lpeversion="1"
       steps="1"
       threshold="0.0035951417"
       smooth_angles="0"
       helper_size="0"
       simplify_individual_paths="false"
       simplify_just_coalesce="false"
       step="1" />
    <inkscape:path-effect
       effect="powerstroke"
       id="path-effect502"
       is_visible="true"
       lpeversion="1"
       offset_points="3.0091841,0.21607495 | 7.3602657,0.17554228 | 9.4159651,0.20236537"
       not_jump="true"
       sort_points="true"
       interpolator_type="CentripetalCatmullRom"
       interpolator_beta="0.75"
       start_linecap_type="round"
       linejoin_type="spiro"
       miter_limit="4"
       scale_width="1"
       end_linecap_type="round" />
    <inkscape:path-effect
       effect="simplify"
       id="path-effect500"
       is_visible="true"
       lpeversion="1"
       steps="1"
       threshold="0.0035951417"
       smooth_angles="0"
       helper_size="0"
       simplify_individual_paths="false"
       simplify_just_coalesce="false"
       step="1" />
    <inkscape:path-effect
       effect="powerstroke"
       id="path-effect241"
       is_visible="true"
       lpeversion="1"
       offset_points="2.6879454,0.34086734"
       not_jump="true"
       sort_points="true"
       interpolator_type="CentripetalCatmullRom"
       interpolator_beta="0.75"
       start_linecap_type="round"
       linejoin_type="spiro"
       miter_limit="4"
       scale_width="1"
       end_linecap_type="round" />
    <inkscape:path-effect
       effect="simplify"
       id="path-effect239"
       is_visible="true"
       lpeversion="1"
       steps="1"
       threshold="0.0028332064"
       smooth_angles="0"
       helper_size="0"
       simplify_individual_paths="false"
       simplify_just_coalesce="false"
       step="1" />
    <inkscape:path-effect
       effect="powerstroke"
       id="path-effect234"
       is_visible="true"
       lpeversion="1"
       offset_points="2.13563,0.075169555"
       not_jump="true"
       sort_points="true"
       interpolator_type="CentripetalCatmullRom"
       interpolator_beta="0.75"
       start_linecap_type="round"
       linejoin_type="spiro"
       miter_limit="4"
       scale_width="1"
       end_linecap_type="round" />
    <inkscape:path-effect
       effect="simplify"
       id="path-effect232"
       is_visible="true"
       lpeversion="1"
       steps="1"
       threshold="0.0028332064"
       smooth_angles="0"
       helper_size="0"
       simplify_individual_paths="false"
       simplify_just_coalesce="false"
       step="1" />
    <inkscape:path-effect
       effect="powerstroke"
       id="path-effect227"
       is_visible="true"
       lpeversion="1"
       offset_points="2.1868266,0.075169555"
       not_jump="true"
       sort_points="true"
       interpolator_type="CentripetalCatmullRom"
       interpolator_beta="0.75"
       start_linecap_type="round"
       linejoin_type="spiro"
       miter_limit="4"
       scale_width="1"
       end_linecap_type="round" />
    <inkscape:path-effect
       effect="simplify"
       id="path-effect225"
       is_visible="true"
       lpeversion="1"
       steps="1"
       threshold="0.0028332064"
       smooth_angles="0"
       helper_size="0"
       simplify_individual_paths="false"
       simplify_just_coalesce="false"
       step="1" />
    <inkscape:path-effect
       effect="powerstroke"
       id="path-effect166"
       is_visible="true"
       lpeversion="1"
       offset_points="1.9637935,0.075169555"
       not_jump="true"
       sort_points="true"
       interpolator_type="CentripetalCatmullRom"
       interpolator_beta="0.75"
       start_linecap_type="round"
       linejoin_type="spiro"
       miter_limit="4"
       scale_width="1"
       end_linecap_type="round" />
    <inkscape:path-effect
       effect="simplify"
       id="path-effect164"
       is_visible="true"
       lpeversion="1"
       steps="1"
       threshold="0.0028332064"
       smooth_angles="0"
       helper_size="0"
       simplify_individual_paths="false"
       simplify_just_coalesce="false"
       step="1" />
    <inkscape:path-effect
       effect="powerstroke"
       id="path-effect159"
       is_visible="true"
       lpeversion="1"
       offset_points="2.2611036,0.075169555"
       not_jump="true"
       sort_points="true"
       interpolator_type="CentripetalCatmullRom"
       interpolator_beta="0.75"
       start_linecap_type="round"
       linejoin_type="spiro"
       miter_limit="4"
       scale_width="1"
       end_linecap_type="round" />
    <inkscape:path-effect
       effect="simplify"
       id="path-effect157"
       is_visible="true"
       lpeversion="1"
       steps="1"
       threshold="0.0028332064"
       smooth_angles="0"
       helper_size="0"
       simplify_individual_paths="false"
       simplify_just_coalesce="false"
       step="1" />
    <inkscape:path-effect
       effect="powerstroke"
       id="path-effect152"
       is_visible="true"
       lpeversion="1"
       offset_points="2.826981,0.075169555"
       not_jump="true"
       sort_points="true"
       interpolator_type="CentripetalCatmullRom"
       interpolator_beta="0.75"
       start_linecap_type="round"
       linejoin_type="spiro"
       miter_limit="4"
       scale_width="1"
       end_linecap_type="round" />
    <inkscape:path-effect
       effect="simplify"
       id="path-effect150"
       is_visible="true"
       lpeversion="1"
       steps="1"
       threshold="0.0028332064"
       smooth_angles="0"
       helper_size="0"
       simplify_individual_paths="false"
       simplify_just_coalesce="false"
       step="1" />
    <inkscape:path-effect
       effect="powerstroke"
       id="path-effect145"
       is_visible="true"
       lpeversion="1"
       offset_points="3.8374447,0.075169555"
       not_jump="true"
       sort_points="true"
       interpolator_type="CentripetalCatmullRom"
       interpolator_beta="0.75"
       start_linecap_type="round"
       linejoin_type="spiro"
       miter_limit="4"
       scale_width="1"
       end_linecap_type="round" />
    <inkscape:path-effect
       effect="simplify"
       id="path-effect143"
       is_visible="true"
       lpeversion="1"
       steps="1"
       threshold="0.0028332064"
       smooth_angles="0"
       helper_size="0"
       simplify_individual_paths="false"
       simplify_just_coalesce="false"
       step="1" />
    <inkscape:path-effect
       effect="powerstroke"
       id="path-effect138"
       is_visible="true"
       lpeversion="1"
       offset_points="2.6880907,0.075169555"
       not_jump="true"
       sort_points="true"
       interpolator_type="CentripetalCatmullRom"
       interpolator_beta="0.75"
       start_linecap_type="round"
       linejoin_type="spiro"
       miter_limit="4"
       scale_width="1"
       end_linecap_type="round" />
    <inkscape:path-effect
       effect="simplify"
       id="path-effect136"
       is_visible="true"
       lpeversion="1"
       steps="1"
       threshold="0.0028332064"
       smooth_angles="0"
       helper_size="0"
       simplify_individual_paths="false"
       simplify_just_coalesce="false"
       step="1" />
    <inkscape:path-effect
       effect="powerstroke"
       id="path-effect131"
       is_visible="true"
       lpeversion="1"
       offset_points="1.9940581,0.075169555"
       not_jump="true"
       sort_points="true"
       interpolator_type="CentripetalCatmullRom"
       interpolator_beta="0.75"
       start_linecap_type="round"
       linejoin_type="spiro"
       miter_limit="4"
       scale_width="1"
       end_linecap_type="round" />
    <inkscape:path-effect
       effect="simplify"
       id="path-effect129"
       is_visible="true"
       lpeversion="1"
       steps="1"
       threshold="0.0028332064"
       smooth_angles="0"
       helper_size="0"
       simplify_individual_paths="false"
       simplify_just_coalesce="false"
       step="1" />
  </defs>
  <sodipodi:namedview
     id="base"
     pagecolor="#ffffff"
     bordercolor="#666666"
     borderopacity="1.0"
     inkscape:pageopacity="0.0"
     inkscape:pageshadow="2"
     inkscape:zoom="7.919596"
     inkscape:cx="-5.3033008"
     inkscape:cy="20.834396"
     inkscape:document-units="mm"
     inkscape:current-layer="layer1"
     showgrid="false"
     fit-margin-top="0"
     fit-margin-left="0"
     fit-margin-right="0"
     fit-margin-bottom="0"
     inkscape:window-width="1920"
     inkscape:window-height="974"
     inkscape:window-x="-11"
     inkscape:window-y="2869"
     inkscape:window-maximized="1"
     showguides="true"
     inkscape:guide-bbox="true"
     inkscape:snap-bbox="true"
     inkscape:bbox-nodes="true"
     inkscape:snap-nodes="false"
     inkscape:snap-others="false"
     inkscape:snap-page="true"
     inkscape:snap-grids="false"
     inkscape:snap-to-guides="false"
     inkscape:snap-global="false"
     inkscape:pagecheckerboard="0"
     inkscape:showpageshadow="2"
     inkscape:deskcolor="#d1d1d1">
    <sodipodi:guide
       position="-6.1806075,9.4988692"
       orientation="0,1"
       id="guide816"
       inkscape:locked="false" />
    <sodipodi:guide
       position="-4.4101636,10.646923"
       orientation="0,1"
       id="guide818"
       inkscape:locked="false" />
    <sodipodi:guide
       position="2.7595724,11.09577"
       orientation="1,0"
       id="guide820"
       inkscape:locked="false" />
    <sodipodi:guide
       position="3.6572659,10.942217"
       orientation="1,0"
       id="guide822"
       inkscape:locked="false" />
    <sodipodi:guide
       position="-0.051625511,9.7492299"
       orientation="1,0"
       id="guide1853"
       inkscape:locked="false" />
    <sodipodi:guide
       position="-2.3720169,3.0175835"
       orientation="0,1"
       id="guide1855"
       inkscape:locked="false" />
  </sodipodi:namedview>
  <metadata
     id="metadata1678">
    <rdf:RDF>
      <cc:Work
         rdf:about="">
        <dc:format>image/svg+xml</dc:format>
        <dc:type
           rdf:resource="http://purl.org/dc/dcmitype/StillImage" />
      </cc:Work>
    </rdf:RDF>
  </metadata>
  <g
     inkscape:label="Layer 1"
     inkscape:groupmode="layer"
     id="layer1"
     transform="translate(17.028496,-147.22856)">
    <path
       d="m -13.929111,152.67281 c 0.01327,0.16428 0.03831,0.42468 0.09047,0.70556 0.0547,0.29455 0.122091,0.52089 0.183467,0.69229 a 0.09564784,0.09564784 90 0 0 0.180096,-0.0645 c -0.05818,-0.16248 -0.12278,-0.37894 -0.175483,-0.66272 -0.05043,-0.27151 -0.07483,-0.52447 -0.08788,-0.68603 a 0.09564784,0.09564784 90 0 0 -0.190674,0.0154 z"
       id="path-1"
       inkscape:path-effect="#path-effect1802;#path-effect1804"
       inkscape:original-d="m -13.833774,152.66511 c 0.03762,0.46565 0.110633,0.93203 0.268651,1.3733"
       style="fill:#000000;fill-rule:nonzero;stroke:none;stroke-width:1.52931" />
    <path
       d="m -13.904977,150.5048 c -0.02043,0.0204 -0.05349,0.0498 -0.09619,0.0931 -0.02899,0.0294 -0.06647,0.0702 -0.09662,0.12103 -0.02596,0.0439 -0.04802,0.10063 -0.04988,0.16589 0.0013,0.0257 0.0058,0.0418 0.01272,0.0564 0.0013,0.003 0.0026,0.005 0.0041,0.008 0.0088,0.0156 0.02099,0.0301 0.03653,0.0417 0.01429,0.0107 0.03193,0.0194 0.05226,0.0236 0.01927,0.004 0.04057,0.004 0.0621,-0.002 0.02564,-0.005 0.05398,-0.0185 0.07872,-0.0346 0.02284,-0.0149 0.04259,-0.0321 0.05947,-0.0485 0.0078,-0.008 0.01519,-0.0163 0.0214,-0.0236 0.0066,-0.008 0.01508,-0.0182 0.02287,-0.0308 0.0077,-0.0124 0.01612,-0.0293 0.02076,-0.0499 0.0048,-0.0212 0.0052,-0.0453 -0.002,-0.0703 -0.0012,-0.004 -0.0024,-0.008 -0.0042,-0.0119 -0.0017,-0.004 -0.0039,-0.007 -0.006,-0.0111 -0.0097,-0.0163 -0.02255,-0.0293 -0.03662,-0.0389 -0.01393,-0.01 -0.02998,-0.0164 -0.0472,-0.0197 -0.0172,-0.003 -0.03671,-0.003 -0.05662,0.002 -0.01441,0.004 -0.02823,0.011 -0.04058,0.0206 -0.05618,0.0366 -0.105108,0.0801 -0.147597,0.1245 -0.0055,0.006 -0.02439,0.0263 -0.0348,0.0398 -0.0071,0.009 -0.01515,0.0211 -0.022,0.0355 -0.0072,0.0151 -0.01293,0.0328 -0.01504,0.053 -5e-4,0.005 -8.53e-4,0.01 -3.79e-4,0.0144 4.74e-4,0.005 0.0017,0.009 0.0032,0.014 0.0015,0.005 0.0032,0.009 0.0045,0.0137 0.0013,0.005 0.0023,0.009 0.003,0.0141 4.02e-4,0.002 8.43e-4,0.005 0.0013,0.007 0.0043,0.0168 0.0095,0.034 0.02013,0.0477 0.01068,0.0137 0.02659,0.0233 0.04377,0.026 0.01718,0.003 0.03492,-0.001 0.05067,-0.009 0.01575,-0.007 0.02977,-0.0179 0.04369,-0.0283 0.0123,-0.009 0.02115,-0.0164 0.02779,-0.0213 0.0042,-0.003 0.0074,-0.005 0.0098,-0.007 0.0031,-0.002 0.004,-0.002 0.0023,-0.001 -0.002,7.1e-4 -0.0063,0.002 -0.0118,0.001 -0.0072,-4.2e-4 -0.0144,-0.001 -0.02134,-0.003 -0.0069,-0.002 -0.01348,-0.005 -0.0199,-0.008 -0.008,-0.004 -0.01656,-0.0101 -0.02429,-0.0185 -0.0078,-0.009 -0.01334,-0.0179 -0.01694,-0.0271 -0.0069,-0.0176 -0.0059,-0.0317 -0.0054,-0.036 6.22e-4,-0.006 0.0012,-0.007 8.27e-4,-0.005 -4.19e-4,0.001 -0.0017,0.005 -0.0037,0.0112 -0.0035,0.009 -0.01201,0.0245 -0.01769,0.0343 a 0.10575149,0.10575149 90 0 0 0.18288,0.10624 c 0.0051,-0.009 0.02209,-0.0372 0.03443,-0.0685 0.0023,-0.007 0.0045,-0.0122 0.0072,-0.0208 0.0023,-0.007 0.0059,-0.0201 0.0075,-0.0352 0.0015,-0.0141 0.002,-0.0378 -0.0082,-0.0638 -0.0052,-0.0133 -0.01307,-0.0266 -0.02408,-0.0386 -0.01088,-0.0119 -0.0234,-0.0209 -0.03644,-0.0275 -0.0064,-0.003 -0.01297,-0.006 -0.01991,-0.008 -0.0069,-0.002 -0.01416,-0.003 -0.02134,-0.003 -0.02476,-0.002 -0.0474,0.002 -0.06721,0.009 -0.01921,0.006 -0.03548,0.0149 -0.04848,0.0231 -0.0097,0.006 -0.01829,0.0123 -0.02549,0.0178 -0.01173,0.009 -0.02154,0.0173 -0.02819,0.0226 l 0.158259,0.0368 c -0.0012,-0.002 -0.0028,-0.003 -0.0045,-0.005 l 0.0104,0.0562 c -7.87e-4,0.006 -0.0027,0.0111 -0.0041,0.0137 -9.68e-4,0.002 -0.0022,0.003 -6.03e-4,4.7e-4 0.0023,-0.004 0.01079,-0.013 0.02354,-0.0296 0.02954,-0.0322 0.06692,-0.0666 0.107651,-0.0944 0.0069,-0.005 0.01318,-0.0101 0.01885,-0.0161 -0.0099,0.0105 -0.0223,0.0178 -0.03544,0.0215 -0.01273,0.004 -0.02459,0.003 -0.03436,0.001 -0.0098,-0.002 -0.01857,-0.006 -0.02613,-0.0111 -0.0076,-0.005 -0.01497,-0.0127 -0.02063,-0.0224 -0.0021,-0.004 -0.0043,-0.007 -0.0061,-0.0111 -0.0018,-0.004 -0.003,-0.008 -0.0041,-0.0119 -0.0025,-0.009 -0.0021,-0.0183 -4.81e-4,-0.025 0.0015,-0.006 0.0034,-0.008 0.0033,-0.008 -9.3e-5,5.3e-4 -0.0019,0.004 -0.0051,0.008 -0.0038,0.005 -0.0073,0.009 -0.01343,0.0163 -0.0065,0.007 -0.01622,0.0154 -0.02508,0.0217 -0.0092,0.007 -0.01609,0.01 -0.02094,0.0109 0.0026,-8.6e-4 0.0118,-8.9e-4 0.02001,8.7e-4 0.0085,0.002 0.01552,0.005 0.02086,0.01 0.0058,0.004 0.01033,0.01 0.01357,0.0158 0.0041,0.009 0.0059,0.0149 0.0063,0.0217 5.83e-4,-0.0179 0.01002,-0.045 0.02424,-0.0688 0.01892,-0.0317 0.04411,-0.0598 0.06973,-0.0856 0.03609,-0.0363 0.07172,-0.0681 0.09556,-0.0918 a 0.09138186,0.09138186 90 0 0 -0.12897,-0.1295 z"
       id="path-1-9"
       inkscape:path-effect="#path-effect1809;#path-effect1811"
       inkscape:original-d="m -13.840492,150.56955 c -0.08929,0.0889 -0.211969,0.18063 -0.21601,0.31747 0.02288,0.12586 0.27036,-0.10753 0.158733,-0.11904 -0.06605,0.0353 -0.211406,0.17201 -0.185564,0.19628 0.08306,-0.0716 0.155131,-0.0808 0.07492,0.0565"
       style="fill:#000000;fill-rule:nonzero;stroke:none;stroke-width:1.52931" />
  </g>
</svg>
