<?xml version="1.0" encoding="UTF-8" standalone="no"?>
<!-- Created with Inkscape (http://www.inkscape.org/) -->

<svg
   width="6mm"
   height="10mm"
   viewBox="0 0 6.0000001 9.9999994"
   version="1.1"
   id="svg1681"
   inkscape:version="1.2.1 (9c6d41e410, 2022-07-14)"
   sodipodi:docname="lower i 1.3.svg"
   inkscape:export-filename="..\..\..\..\Downloads\lower a diff canvas resize 3.0.png"
   inkscape:export-xdpi="96"
   inkscape:export-ydpi="96"
   xmlns:inkscape="http://www.inkscape.org/namespaces/inkscape"
   xmlns:sodipodi="http://sodipodi.sourceforge.net/DTD/sodipodi-0.dtd"
   xmlns="http://www.w3.org/2000/svg"
   xmlns:svg="http://www.w3.org/2000/svg"
   xmlns:rdf="http://www.w3.org/1999/02/22-rdf-syntax-ns#"
   xmlns:cc="http://creativecommons.org/ns#"
   xmlns:dc="http://purl.org/dc/elements/1.1/">
  <defs
     id="defs1675">
    <inkscape:path-effect
       effect="powerstroke"
       id="path-effect170"
       is_visible="true"
       lpeversion="1"
       offset_points="0.23422508,0.085250254"
       not_jump="true"
       sort_points="true"
       interpolator_type="CentripetalCatmullRom"
       interpolator_beta="0.75"
       start_linecap_type="round"
       linejoin_type="spiro"
       miter_limit="4"
       scale_width="1"
       end_linecap_type="round" />
    <inkscape:path-effect
       effect="simplify"
       id="path-effect168"
       is_visible="true"
       lpeversion="1"
       steps="1"
       threshold="0.0035951417"
       smooth_angles="0"
       helper_size="0"
       simplify_individual_paths="false"
       simplify_just_coalesce="false"
       step="1" />
    <inkscape:path-effect
       effect="powerstroke"
       id="path-effect163"
       is_visible="true"
       lpeversion="1"
       offset_points="1.0780936,0.098450291 | 1.7692944,0.088825265 | 4.4173767,0.10202531"
       not_jump="true"
       sort_points="true"
       interpolator_type="CentripetalCatmullRom"
       interpolator_beta="0.75"
       start_linecap_type="round"
       linejoin_type="spiro"
       miter_limit="4"
       scale_width="1"
       end_linecap_type="round" />
    <inkscape:path-effect
       effect="simplify"
       id="path-effect161"
       is_visible="true"
       lpeversion="1"
       steps="1"
       threshold="0.0035951417"
       smooth_angles="0"
       helper_size="0"
       simplify_individual_paths="false"
       simplify_just_coalesce="false"
       step="1" />
    <inkscape:path-effect
       effect="powerstroke"
       id="path-effect156"
       is_visible="true"
       lpeversion="1"
       offset_points="1.497066,0.1336504"
       not_jump="true"
       sort_points="true"
       interpolator_type="CentripetalCatmullRom"
       interpolator_beta="0.75"
       start_linecap_type="round"
       linejoin_type="spiro"
       miter_limit="4"
       scale_width="1"
       end_linecap_type="round" />
    <inkscape:path-effect
       effect="simplify"
       id="path-effect154"
       is_visible="true"
       lpeversion="1"
       steps="1"
       threshold="0.0035951417"
       smooth_angles="0"
       helper_size="0"
       simplify_individual_paths="false"
       simplify_just_coalesce="false"
       step="1" />
    <inkscape:path-effect
       effect="powerstroke"
       id="path-effect149"
       is_visible="true"
       lpeversion="1"
       offset_points="1.851606,0.1020368"
       not_jump="true"
       sort_points="true"
       interpolator_type="CentripetalCatmullRom"
       interpolator_beta="0.75"
       start_linecap_type="round"
       linejoin_type="spiro"
       miter_limit="4"
       scale_width="1"
       end_linecap_type="round" />
    <inkscape:path-effect
       effect="simplify"
       id="path-effect147"
       is_visible="true"
       lpeversion="1"
       steps="1"
       threshold="0.0035951417"
       smooth_angles="0"
       helper_size="0"
       simplify_individual_paths="false"
       simplify_just_coalesce="false"
       step="1" />
    <inkscape:path-effect
       effect="powerstroke"
       id="path-effect502"
       is_visible="true"
       lpeversion="1"
       offset_points="3.0091841,0.21607495 | 7.3602657,0.17554228 | 9.4159651,0.20236537"
       not_jump="true"
       sort_points="true"
       interpolator_type="CentripetalCatmullRom"
       interpolator_beta="0.75"
       start_linecap_type="round"
       linejoin_type="spiro"
       miter_limit="4"
       scale_width="1"
       end_linecap_type="round" />
    <inkscape:path-effect
       effect="simplify"
       id="path-effect500"
       is_visible="true"
       lpeversion="1"
       steps="1"
       threshold="0.0035951417"
       smooth_angles="0"
       helper_size="0"
       simplify_individual_paths="false"
       simplify_just_coalesce="false"
       step="1" />
    <inkscape:path-effect
       effect="powerstroke"
       id="path-effect241"
       is_visible="true"
       lpeversion="1"
       offset_points="2.6879454,0.34086734"
       not_jump="true"
       sort_points="true"
       interpolator_type="CentripetalCatmullRom"
       interpolator_beta="0.75"
       start_linecap_type="round"
       linejoin_type="spiro"
       miter_limit="4"
       scale_width="1"
       end_linecap_type="round" />
    <inkscape:path-effect
       effect="simplify"
       id="path-effect239"
       is_visible="true"
       lpeversion="1"
       steps="1"
       threshold="0.0028332064"
       smooth_angles="0"
       helper_size="0"
       simplify_individual_paths="false"
       simplify_just_coalesce="false"
       step="1" />
    <inkscape:path-effect
       effect="powerstroke"
       id="path-effect234"
       is_visible="true"
       lpeversion="1"
       offset_points="2.13563,0.075169555"
       not_jump="true"
       sort_points="true"
       interpolator_type="CentripetalCatmullRom"
       interpolator_beta="0.75"
       start_linecap_type="round"
       linejoin_type="spiro"
       miter_limit="4"
       scale_width="1"
       end_linecap_type="round" />
    <inkscape:path-effect
       effect="simplify"
       id="path-effect232"
       is_visible="true"
       lpeversion="1"
       steps="1"
       threshold="0.0028332064"
       smooth_angles="0"
       helper_size="0"
       simplify_individual_paths="false"
       simplify_just_coalesce="false"
       step="1" />
    <inkscape:path-effect
       effect="powerstroke"
       id="path-effect227"
       is_visible="true"
       lpeversion="1"
       offset_points="2.1868266,0.075169555"
       not_jump="true"
       sort_points="true"
       interpolator_type="CentripetalCatmullRom"
       interpolator_beta="0.75"
       start_linecap_type="round"
       linejoin_type="spiro"
       miter_limit="4"
       scale_width="1"
       end_linecap_type="round" />
    <inkscape:path-effect
       effect="simplify"
       id="path-effect225"
       is_visible="true"
       lpeversion="1"
       steps="1"
       threshold="0.0028332064"
       smooth_angles="0"
       helper_size="0"
       simplify_individual_paths="false"
       simplify_just_coalesce="false"
       step="1" />
    <inkscape:path-effect
       effect="powerstroke"
       id="path-effect166"
       is_visible="true"
       lpeversion="1"
       offset_points="1.9637935,0.075169555"
       not_jump="true"
       sort_points="true"
       interpolator_type="CentripetalCatmullRom"
       interpolator_beta="0.75"
       start_linecap_type="round"
       linejoin_type="spiro"
       miter_limit="4"
       scale_width="1"
       end_linecap_type="round" />
    <inkscape:path-effect
       effect="simplify"
       id="path-effect164"
       is_visible="true"
       lpeversion="1"
       steps="1"
       threshold="0.0028332064"
       smooth_angles="0"
       helper_size="0"
       simplify_individual_paths="false"
       simplify_just_coalesce="false"
       step="1" />
    <inkscape:path-effect
       effect="powerstroke"
       id="path-effect159"
       is_visible="true"
       lpeversion="1"
       offset_points="2.2611036,0.075169555"
       not_jump="true"
       sort_points="true"
       interpolator_type="CentripetalCatmullRom"
       interpolator_beta="0.75"
       start_linecap_type="round"
       linejoin_type="spiro"
       miter_limit="4"
       scale_width="1"
       end_linecap_type="round" />
    <inkscape:path-effect
       effect="simplify"
       id="path-effect157"
       is_visible="true"
       lpeversion="1"
       steps="1"
       threshold="0.0028332064"
       smooth_angles="0"
       helper_size="0"
       simplify_individual_paths="false"
       simplify_just_coalesce="false"
       step="1" />
    <inkscape:path-effect
       effect="powerstroke"
       id="path-effect152"
       is_visible="true"
       lpeversion="1"
       offset_points="2.826981,0.075169555"
       not_jump="true"
       sort_points="true"
       interpolator_type="CentripetalCatmullRom"
       interpolator_beta="0.75"
       start_linecap_type="round"
       linejoin_type="spiro"
       miter_limit="4"
       scale_width="1"
       end_linecap_type="round" />
    <inkscape:path-effect
       effect="simplify"
       id="path-effect150"
       is_visible="true"
       lpeversion="1"
       steps="1"
       threshold="0.0028332064"
       smooth_angles="0"
       helper_size="0"
       simplify_individual_paths="false"
       simplify_just_coalesce="false"
       step="1" />
    <inkscape:path-effect
       effect="powerstroke"
       id="path-effect145"
       is_visible="true"
       lpeversion="1"
       offset_points="3.8374447,0.075169555"
       not_jump="true"
       sort_points="true"
       interpolator_type="CentripetalCatmullRom"
       interpolator_beta="0.75"
       start_linecap_type="round"
       linejoin_type="spiro"
       miter_limit="4"
       scale_width="1"
       end_linecap_type="round" />
    <inkscape:path-effect
       effect="simplify"
       id="path-effect143"
       is_visible="true"
       lpeversion="1"
       steps="1"
       threshold="0.0028332064"
       smooth_angles="0"
       helper_size="0"
       simplify_individual_paths="false"
       simplify_just_coalesce="false"
       step="1" />
    <inkscape:path-effect
       effect="powerstroke"
       id="path-effect138"
       is_visible="true"
       lpeversion="1"
       offset_points="2.6880907,0.075169555"
       not_jump="true"
       sort_points="true"
       interpolator_type="CentripetalCatmullRom"
       interpolator_beta="0.75"
       start_linecap_type="round"
       linejoin_type="spiro"
       miter_limit="4"
       scale_width="1"
       end_linecap_type="round" />
    <inkscape:path-effect
       effect="simplify"
       id="path-effect136"
       is_visible="true"
       lpeversion="1"
       steps="1"
       threshold="0.0028332064"
       smooth_angles="0"
       helper_size="0"
       simplify_individual_paths="false"
       simplify_just_coalesce="false"
       step="1" />
    <inkscape:path-effect
       effect="powerstroke"
       id="path-effect131"
       is_visible="true"
       lpeversion="1"
       offset_points="1.9940581,0.075169555"
       not_jump="true"
       sort_points="true"
       interpolator_type="CentripetalCatmullRom"
       interpolator_beta="0.75"
       start_linecap_type="round"
       linejoin_type="spiro"
       miter_limit="4"
       scale_width="1"
       end_linecap_type="round" />
    <inkscape:path-effect
       effect="simplify"
       id="path-effect129"
       is_visible="true"
       lpeversion="1"
       steps="1"
       threshold="0.0028332064"
       smooth_angles="0"
       helper_size="0"
       simplify_individual_paths="false"
       simplify_just_coalesce="false"
       step="1" />
  </defs>
  <sodipodi:namedview
     id="base"
     pagecolor="#ffffff"
     bordercolor="#666666"
     borderopacity="1.0"
     inkscape:pageopacity="0.0"
     inkscape:pageshadow="2"
     inkscape:zoom="7.919596"
     inkscape:cx="-5.1770318"
     inkscape:cy="20.834396"
     inkscape:document-units="mm"
     inkscape:current-layer="layer1"
     showgrid="false"
     fit-margin-top="0"
     fit-margin-left="0"
     fit-margin-right="0"
     fit-margin-bottom="0"
     inkscape:window-width="1920"
     inkscape:window-height="974"
     inkscape:window-x="1108"
     inkscape:window-y="2149"
     inkscape:window-maximized="1"
     showguides="true"
     inkscape:guide-bbox="true"
     inkscape:snap-bbox="true"
     inkscape:bbox-nodes="true"
     inkscape:snap-nodes="false"
     inkscape:snap-others="false"
     inkscape:snap-page="true"
     inkscape:snap-grids="false"
     inkscape:snap-to-guides="false"
     inkscape:snap-global="false"
     inkscape:pagecheckerboard="0"
     inkscape:showpageshadow="2"
     inkscape:deskcolor="#d1d1d1">
    <sodipodi:guide
       position="-6.1806075,9.4988692"
       orientation="0,1"
       id="guide816"
       inkscape:locked="false" />
    <sodipodi:guide
       position="-4.4101636,10.646923"
       orientation="0,1"
       id="guide818"
       inkscape:locked="false" />
    <sodipodi:guide
       position="2.7595724,11.09577"
       orientation="1,0"
       id="guide820"
       inkscape:locked="false" />
    <sodipodi:guide
       position="3.6572659,10.942217"
       orientation="1,0"
       id="guide822"
       inkscape:locked="false" />
    <sodipodi:guide
       position="-0.051625511,9.7492299"
       orientation="1,0"
       id="guide1853"
       inkscape:locked="false" />
    <sodipodi:guide
       position="-2.3720169,3.0175835"
       orientation="0,1"
       id="guide1855"
       inkscape:locked="false" />
  </sodipodi:namedview>
  <metadata
     id="metadata1678">
    <rdf:RDF>
      <cc:Work
         rdf:about="">
        <dc:format>image/svg+xml</dc:format>
        <dc:type
           rdf:resource="http://purl.org/dc/dcmitype/StillImage" />
      </cc:Work>
    </rdf:RDF>
  </metadata>
  <g
     inkscape:label="Layer 1"
     inkscape:groupmode="layer"
     id="layer1"
     transform="translate(17.028496,-147.22856)">
    <path
       d="m -14.045243,151.62773 c 0.11112,0.29576 0.21312,0.73801 0.171231,1.37899 -0.0108,0.16808 -0.02886,0.31621 -0.04365,0.42254 -0.02599,0.18675 -0.05686,0.34904 -0.07196,0.42645 a 0.1336504,0.1336504 90 0 0 0.26236,0.0512 c 0.01542,-0.0791 0.04737,-0.2469 0.07435,-0.44077 0.01535,-0.11034 0.03429,-0.26544 0.04564,-0.44209 0.04441,-0.67946 -0.06353,-1.15967 -0.18775,-1.4903 a 0.1336504,0.1336504 90 0 0 -0.250222,0.094 z"
       id="path-1"
       inkscape:path-effect="#path-effect154;#path-effect156"
       inkscape:original-d="m -13.920132,151.58072 c 0.275244,0.73537 0.209011,1.54546 0.06169,2.30057"
       style="fill:#000000;fill-rule:nonzero;stroke:none;stroke-width:1.12386" />
    <path
       d="m -13.732634,150.07367 c -0.02457,-0.006 -0.07618,-0.0149 -0.136343,0 -0.0231,0.006 -0.04622,0.0147 -0.06802,0.0277 -0.02366,0.0141 -0.0436,0.0316 -0.0596,0.0513 -0.0058,0.007 -0.01118,0.0144 -0.01587,0.0214 -0.02914,0.0436 -0.04078,0.0894 -0.04592,0.129 -0.003,0.023 -0.0046,0.0513 -0.0028,0.0828 0.0011,0.0197 0.0037,0.0408 0.0084,0.0628 0.0028,0.0229 0.01064,0.0452 0.02217,0.065 0.01137,0.0195 0.0281,0.0396 0.05074,0.055 0.01091,0.007 0.02388,0.0141 0.03879,0.0187 0.01459,0.004 0.03115,0.007 0.04896,0.006 0.01751,-0.001 0.0349,-0.006 0.05129,-0.0143 0.01593,-0.008 0.02972,-0.019 0.04141,-0.0314 0.01875,-0.0148 0.03843,-0.0393 0.05446,-0.0636 0.01519,-0.023 0.02755,-0.0465 0.03769,-0.0663 -0.0012,0.004 -0.0052,0.01 -0.0086,0.0134 -0.0025,0.003 -0.0059,0.006 -0.01071,0.008 -0.0024,0.001 -0.0055,0.003 -0.0092,0.004 -0.0053,0.002 -0.01304,0.004 -0.02269,0.004 -0.0095,1.5e-4 -0.02079,-0.001 -0.03248,-0.006 -0.01144,-0.005 -0.02097,-0.012 -0.02822,-0.02 -0.0068,-0.008 -0.01062,-0.0148 -0.01263,-0.0197 0.01073,0.0234 0.01696,0.044 0.02278,0.0719 0.0054,0.0258 0.0099,0.0563 0.01663,0.0906 0.01006,0.0552 0.01932,0.11635 0.03266,0.17939 0.01313,0.062 0.03038,0.12599 0.05728,0.18848 0.0069,0.0196 0.01622,0.0362 0.02531,0.0496 0.01,0.0148 0.02071,0.0271 0.02843,0.0357 0.0098,0.011 0.01342,0.0146 0.01888,0.0211 0.0045,0.005 0.0057,0.008 0.0062,0.008 0.106076,0.20877 0.227895,0.37188 0.299504,0.4625 a 0.10202531,0.10202531 90 0 0 0.160098,-0.12652 c -0.06753,-0.0855 -0.179693,-0.23677 -0.277156,-0.42986 -0.0098,-0.0188 -0.02044,-0.0333 -0.03002,-0.045 -0.0082,-0.01 -0.01824,-0.0211 -0.02341,-0.0269 -0.0062,-0.007 -0.0095,-0.0113 -0.01158,-0.0145 -0.0018,-0.003 -0.0016,-0.003 -0.0013,-0.002 l -0.0039,-0.0104 c -0.02009,-0.0462 -0.03412,-0.0966 -0.0459,-0.15273 -0.01161,-0.0553 -0.02062,-0.11455 -0.0317,-0.17526 -0.0057,-0.029 -0.01044,-0.0609 -0.01769,-0.0948 -0.0077,-0.0361 -0.01836,-0.0743 -0.03648,-0.11178 -0.0029,-0.008 -0.0109,-0.0217 -0.02243,-0.0345 -0.0121,-0.0135 -0.02697,-0.0243 -0.04399,-0.0316 -0.01747,-0.007 -0.03482,-0.0101 -0.05034,-0.01 -0.01594,2e-4 -0.02999,0.003 -0.04142,0.007 -0.008,0.003 -0.01514,0.006 -0.02149,0.01 -0.01297,0.007 -0.02423,0.0159 -0.03367,0.0252 -0.01376,0.0136 -0.02642,0.0313 -0.03463,0.0523 -0.0067,0.0162 -0.01316,0.0316 -0.02058,0.0461 -0.0073,0.0143 -0.01399,0.0245 -0.02053,0.032 -0.0047,0.005 -0.0012,0.002 0.0045,-5.6e-4 0.0059,-0.003 0.01261,-0.005 0.0197,-0.005 0.0071,-3.2e-4 0.01316,8.7e-4 0.0177,0.002 0.0046,0.002 0.0076,0.004 0.0094,0.005 0.0038,0.003 0.0033,0.004 0.0033,0.005 -2.6e-5,6.8e-4 4.29e-4,0.002 6.87e-4,0.006 l -0.002,-0.0129 c -0.003,-0.0127 -0.0045,-0.025 -0.0047,-0.0364 -2.66e-4,-0.0169 0.0024,-0.0308 0.0057,-0.0416 0.0057,-0.0186 0.01598,-0.0358 0.02705,-0.0498 0.0018,-0.002 0.0038,-0.005 0.0059,-0.007 0.0026,-0.003 0.0056,-0.005 0.0096,-0.007 0.0039,-0.002 0.0088,-0.004 0.015,-0.006 0.0174,-0.005 0.03451,-0.003 0.04342,-7.4e-4 a 0.09845029,0.09845029 90 0 0 0.04437,-0.19184 z"
       id="path-1-7"
       inkscape:path-effect="#path-effect161;#path-effect163"
       inkscape:original-d="m -13.754818,150.16959 c -0.341603,-0.0682 -0.22242,0.6034 -0.04345,0.20546 0.123735,-0.18384 0.08831,0.49268 0.25386,0.60018 0.08233,0.16723 0.184857,0.32407 0.300338,0.47021"
       style="fill:#000000;fill-rule:nonzero;stroke:none;stroke-width:1.12386" />
    <path
       d="m -13.765789,150.26912 c 0.02775,0.10713 0.07955,0.29262 0.169841,0.53224 0.05749,0.15256 0.136857,0.34419 0.250571,0.57884 0.205994,0.42509 0.46503,0.86024 0.568326,1.03458 a 0.08525025,0.08525025 90 0 0 0.146688,-0.0869 c -0.103856,-0.1753 -0.359201,-0.60441 -0.56158,-1.02203 -0.111338,-0.22975 -0.188683,-0.41661 -0.244457,-0.56462 -0.08758,-0.23242 -0.137644,-0.41183 -0.164337,-0.51487 a 0.08525025,0.08525025 90 0 0 -0.165052,0.0428 z"
       id="path-1-4"
       inkscape:path-effect="#path-effect168;#path-effect170"
       inkscape:original-d="m -13.683263,150.24774 c 0.196887,0.75999 0.582196,1.4529 0.979556,2.12359"
       style="fill:#000000;fill-rule:nonzero;stroke:none;stroke-width:1.12386" />
  </g>
</svg>
