<?xml version="1.0" encoding="UTF-8" standalone="no"?>
<!-- Created with Inkscape (http://www.inkscape.org/) -->

<svg
   width="6mm"
   height="10mm"
   viewBox="0 0 6.0000001 9.9999994"
   version="1.1"
   id="svg1681"
   inkscape:version="1.2.1 (9c6d41e410, 2022-07-14)"
   sodipodi:docname="lower m 1.4.svg"
   inkscape:export-filename="..\..\..\..\Downloads\lower a diff canvas resize 3.0.png"
   inkscape:export-xdpi="96"
   inkscape:export-ydpi="96"
   xmlns:inkscape="http://www.inkscape.org/namespaces/inkscape"
   xmlns:sodipodi="http://sodipodi.sourceforge.net/DTD/sodipodi-0.dtd"
   xmlns="http://www.w3.org/2000/svg"
   xmlns:svg="http://www.w3.org/2000/svg"
   xmlns:rdf="http://www.w3.org/1999/02/22-rdf-syntax-ns#"
   xmlns:cc="http://creativecommons.org/ns#"
   xmlns:dc="http://purl.org/dc/elements/1.1/">
  <defs
     id="defs1675">
    <inkscape:path-effect
       effect="powerstroke"
       id="path-effect2077"
       is_visible="true"
       lpeversion="1"
       offset_points="2.9844413,0.11732331 | 7.7655843,0.149158 | 10.624791,0.11553485 | 14.350041,0.13520795"
       not_jump="true"
       sort_points="true"
       interpolator_type="CentripetalCatmullRom"
       interpolator_beta="0.75"
       start_linecap_type="round"
       linejoin_type="spiro"
       miter_limit="4"
       scale_width="1"
       end_linecap_type="round" />
    <inkscape:path-effect
       effect="simplify"
       id="path-effect2075"
       is_visible="true"
       lpeversion="1"
       steps="1"
       threshold="0.0035951417"
       smooth_angles="0"
       helper_size="0"
       simplify_individual_paths="false"
       simplify_just_coalesce="false"
       step="1" />
    <inkscape:path-effect
       effect="powerstroke"
       id="path-effect2070"
       is_visible="true"
       lpeversion="1"
       offset_points="2.7347189,0.086180718"
       not_jump="true"
       sort_points="true"
       interpolator_type="CentripetalCatmullRom"
       interpolator_beta="0.75"
       start_linecap_type="round"
       linejoin_type="spiro"
       miter_limit="4"
       scale_width="1"
       end_linecap_type="round" />
    <inkscape:path-effect
       effect="simplify"
       id="path-effect2068"
       is_visible="true"
       lpeversion="1"
       steps="1"
       threshold="0.0035951417"
       smooth_angles="0"
       helper_size="0"
       simplify_individual_paths="false"
       simplify_just_coalesce="false"
       step="1" />
    <inkscape:path-effect
       effect="powerstroke"
       id="path-effect502"
       is_visible="true"
       lpeversion="1"
       offset_points="3.0091841,0.21607495 | 7.3602657,0.17554228 | 9.4159651,0.20236537"
       not_jump="true"
       sort_points="true"
       interpolator_type="CentripetalCatmullRom"
       interpolator_beta="0.75"
       start_linecap_type="round"
       linejoin_type="spiro"
       miter_limit="4"
       scale_width="1"
       end_linecap_type="round" />
    <inkscape:path-effect
       effect="simplify"
       id="path-effect500"
       is_visible="true"
       lpeversion="1"
       steps="1"
       threshold="0.0035951417"
       smooth_angles="0"
       helper_size="0"
       simplify_individual_paths="false"
       simplify_just_coalesce="false"
       step="1" />
    <inkscape:path-effect
       effect="powerstroke"
       id="path-effect241"
       is_visible="true"
       lpeversion="1"
       offset_points="2.6879454,0.34086734"
       not_jump="true"
       sort_points="true"
       interpolator_type="CentripetalCatmullRom"
       interpolator_beta="0.75"
       start_linecap_type="round"
       linejoin_type="spiro"
       miter_limit="4"
       scale_width="1"
       end_linecap_type="round" />
    <inkscape:path-effect
       effect="simplify"
       id="path-effect239"
       is_visible="true"
       lpeversion="1"
       steps="1"
       threshold="0.0028332064"
       smooth_angles="0"
       helper_size="0"
       simplify_individual_paths="false"
       simplify_just_coalesce="false"
       step="1" />
    <inkscape:path-effect
       effect="powerstroke"
       id="path-effect234"
       is_visible="true"
       lpeversion="1"
       offset_points="2.13563,0.075169555"
       not_jump="true"
       sort_points="true"
       interpolator_type="CentripetalCatmullRom"
       interpolator_beta="0.75"
       start_linecap_type="round"
       linejoin_type="spiro"
       miter_limit="4"
       scale_width="1"
       end_linecap_type="round" />
    <inkscape:path-effect
       effect="simplify"
       id="path-effect232"
       is_visible="true"
       lpeversion="1"
       steps="1"
       threshold="0.0028332064"
       smooth_angles="0"
       helper_size="0"
       simplify_individual_paths="false"
       simplify_just_coalesce="false"
       step="1" />
    <inkscape:path-effect
       effect="powerstroke"
       id="path-effect227"
       is_visible="true"
       lpeversion="1"
       offset_points="2.1868266,0.075169555"
       not_jump="true"
       sort_points="true"
       interpolator_type="CentripetalCatmullRom"
       interpolator_beta="0.75"
       start_linecap_type="round"
       linejoin_type="spiro"
       miter_limit="4"
       scale_width="1"
       end_linecap_type="round" />
    <inkscape:path-effect
       effect="simplify"
       id="path-effect225"
       is_visible="true"
       lpeversion="1"
       steps="1"
       threshold="0.0028332064"
       smooth_angles="0"
       helper_size="0"
       simplify_individual_paths="false"
       simplify_just_coalesce="false"
       step="1" />
    <inkscape:path-effect
       effect="powerstroke"
       id="path-effect166"
       is_visible="true"
       lpeversion="1"
       offset_points="1.9637935,0.075169555"
       not_jump="true"
       sort_points="true"
       interpolator_type="CentripetalCatmullRom"
       interpolator_beta="0.75"
       start_linecap_type="round"
       linejoin_type="spiro"
       miter_limit="4"
       scale_width="1"
       end_linecap_type="round" />
    <inkscape:path-effect
       effect="simplify"
       id="path-effect164"
       is_visible="true"
       lpeversion="1"
       steps="1"
       threshold="0.0028332064"
       smooth_angles="0"
       helper_size="0"
       simplify_individual_paths="false"
       simplify_just_coalesce="false"
       step="1" />
    <inkscape:path-effect
       effect="powerstroke"
       id="path-effect159"
       is_visible="true"
       lpeversion="1"
       offset_points="2.2611036,0.075169555"
       not_jump="true"
       sort_points="true"
       interpolator_type="CentripetalCatmullRom"
       interpolator_beta="0.75"
       start_linecap_type="round"
       linejoin_type="spiro"
       miter_limit="4"
       scale_width="1"
       end_linecap_type="round" />
    <inkscape:path-effect
       effect="simplify"
       id="path-effect157"
       is_visible="true"
       lpeversion="1"
       steps="1"
       threshold="0.0028332064"
       smooth_angles="0"
       helper_size="0"
       simplify_individual_paths="false"
       simplify_just_coalesce="false"
       step="1" />
    <inkscape:path-effect
       effect="powerstroke"
       id="path-effect152"
       is_visible="true"
       lpeversion="1"
       offset_points="2.826981,0.075169555"
       not_jump="true"
       sort_points="true"
       interpolator_type="CentripetalCatmullRom"
       interpolator_beta="0.75"
       start_linecap_type="round"
       linejoin_type="spiro"
       miter_limit="4"
       scale_width="1"
       end_linecap_type="round" />
    <inkscape:path-effect
       effect="simplify"
       id="path-effect150"
       is_visible="true"
       lpeversion="1"
       steps="1"
       threshold="0.0028332064"
       smooth_angles="0"
       helper_size="0"
       simplify_individual_paths="false"
       simplify_just_coalesce="false"
       step="1" />
    <inkscape:path-effect
       effect="powerstroke"
       id="path-effect145"
       is_visible="true"
       lpeversion="1"
       offset_points="3.8374447,0.075169555"
       not_jump="true"
       sort_points="true"
       interpolator_type="CentripetalCatmullRom"
       interpolator_beta="0.75"
       start_linecap_type="round"
       linejoin_type="spiro"
       miter_limit="4"
       scale_width="1"
       end_linecap_type="round" />
    <inkscape:path-effect
       effect="simplify"
       id="path-effect143"
       is_visible="true"
       lpeversion="1"
       steps="1"
       threshold="0.0028332064"
       smooth_angles="0"
       helper_size="0"
       simplify_individual_paths="false"
       simplify_just_coalesce="false"
       step="1" />
    <inkscape:path-effect
       effect="powerstroke"
       id="path-effect138"
       is_visible="true"
       lpeversion="1"
       offset_points="2.6880907,0.075169555"
       not_jump="true"
       sort_points="true"
       interpolator_type="CentripetalCatmullRom"
       interpolator_beta="0.75"
       start_linecap_type="round"
       linejoin_type="spiro"
       miter_limit="4"
       scale_width="1"
       end_linecap_type="round" />
    <inkscape:path-effect
       effect="simplify"
       id="path-effect136"
       is_visible="true"
       lpeversion="1"
       steps="1"
       threshold="0.0028332064"
       smooth_angles="0"
       helper_size="0"
       simplify_individual_paths="false"
       simplify_just_coalesce="false"
       step="1" />
    <inkscape:path-effect
       effect="powerstroke"
       id="path-effect131"
       is_visible="true"
       lpeversion="1"
       offset_points="1.9940581,0.075169555"
       not_jump="true"
       sort_points="true"
       interpolator_type="CentripetalCatmullRom"
       interpolator_beta="0.75"
       start_linecap_type="round"
       linejoin_type="spiro"
       miter_limit="4"
       scale_width="1"
       end_linecap_type="round" />
    <inkscape:path-effect
       effect="simplify"
       id="path-effect129"
       is_visible="true"
       lpeversion="1"
       steps="1"
       threshold="0.0028332064"
       smooth_angles="0"
       helper_size="0"
       simplify_individual_paths="false"
       simplify_just_coalesce="false"
       step="1" />
  </defs>
  <sodipodi:namedview
     id="base"
     pagecolor="#ffffff"
     bordercolor="#666666"
     borderopacity="1.0"
     inkscape:pageopacity="0.0"
     inkscape:pageshadow="2"
     inkscape:zoom="7.919596"
     inkscape:cx="-5.3033008"
     inkscape:cy="20.834396"
     inkscape:document-units="mm"
     inkscape:current-layer="layer1"
     showgrid="false"
     fit-margin-top="0"
     fit-margin-left="0"
     fit-margin-right="0"
     fit-margin-bottom="0"
     inkscape:window-width="1920"
     inkscape:window-height="974"
     inkscape:window-x="-11"
     inkscape:window-y="2869"
     inkscape:window-maximized="1"
     showguides="true"
     inkscape:guide-bbox="true"
     inkscape:snap-bbox="true"
     inkscape:bbox-nodes="true"
     inkscape:snap-nodes="false"
     inkscape:snap-others="false"
     inkscape:snap-page="true"
     inkscape:snap-grids="false"
     inkscape:snap-to-guides="false"
     inkscape:snap-global="false"
     inkscape:pagecheckerboard="0"
     inkscape:showpageshadow="2"
     inkscape:deskcolor="#d1d1d1">
    <sodipodi:guide
       position="-6.1806075,9.4988692"
       orientation="0,1"
       id="guide816"
       inkscape:locked="false" />
    <sodipodi:guide
       position="-4.4101636,10.646923"
       orientation="0,1"
       id="guide818"
       inkscape:locked="false" />
    <sodipodi:guide
       position="2.7595724,11.09577"
       orientation="1,0"
       id="guide820"
       inkscape:locked="false" />
    <sodipodi:guide
       position="3.6572659,10.942217"
       orientation="1,0"
       id="guide822"
       inkscape:locked="false" />
    <sodipodi:guide
       position="-0.051625511,9.7492299"
       orientation="1,0"
       id="guide1853"
       inkscape:locked="false" />
    <sodipodi:guide
       position="-2.3720169,3.0175835"
       orientation="0,1"
       id="guide1855"
       inkscape:locked="false" />
  </sodipodi:namedview>
  <metadata
     id="metadata1678">
    <rdf:RDF>
      <cc:Work
         rdf:about="">
        <dc:format>image/svg+xml</dc:format>
        <dc:type
           rdf:resource="http://purl.org/dc/dcmitype/StillImage" />
      </cc:Work>
    </rdf:RDF>
  </metadata>
  <g
     inkscape:label="Layer 1"
     inkscape:groupmode="layer"
     id="layer1"
     transform="translate(17.028496,-147.22856)">
    <path
       d="m -15.446071,153.82115 c -0.0073,-0.0237 -0.01264,-0.0528 -0.01201,-0.0904 5e-4,-0.0296 0.0046,-0.0631 0.01349,-0.10408 0.0079,-0.0366 0.01811,-0.0731 0.03107,-0.11833 0.01096,-0.0383 0.02452,-0.085 0.03477,-0.13079 0.175518,-0.55316 0.424947,-1.15798 0.798773,-1.70638 0.05767,-0.0755 0.110149,-0.14893 0.171861,-0.21295 0.0303,-0.0314 0.06071,-0.0582 0.09229,-0.08 0.03015,-0.0208 0.06106,-0.0369 0.09361,-0.0481 0.0022,-7.6e-4 0.0044,-0.001 0.0066,-0.002 0.0029,-9.2e-4 0.0056,-0.002 0.0083,-0.003 0.0027,-0.001 0.0055,-0.003 0.0083,-0.004 0.0019,-6.6e-4 2.2e-5,4e-4 -8.1e-5,8.4e-4 -9.9e-5,4.2e-4 0.0019,0.001 0.0055,0.004 0.0037,0.003 0.0081,0.007 0.01181,0.0134 0.0036,0.006 0.0055,0.0116 0.0059,0.016 0.01462,0.0487 0.02125,0.0925 0.02854,0.14745 0.0062,0.047 0.01328,0.10551 0.02712,0.16353 0.08008,0.56915 0.131841,1.13254 0.08821,1.69025 -0.01347,0.19941 -0.02522,0.38948 -0.01697,0.58301 5.56e-4,0.013 0.0017,0.0262 0.0057,0.0385 0.0041,0.0124 0.01086,0.0237 0.01787,0.0347 0.0065,0.0102 0.01479,0.0216 0.02542,0.0327 0.01061,0.0111 0.02544,0.024 0.04515,0.0345 0.02059,0.0109 0.04603,0.0189 0.07494,0.0193 0.02919,3.6e-4 0.05496,-0.007 0.07577,-0.0177 0.02018,-0.0102 0.03509,-0.023 0.04535,-0.0334 0.01044,-0.0107 0.01827,-0.0213 0.02394,-0.03 0.01119,-0.0171 0.0188,-0.0341 0.02377,-0.0465 0.0054,-0.0134 0.0096,-0.0265 0.01294,-0.0377 0.0034,-0.0116 0.0063,-0.0227 0.0086,-0.0319 0.0028,-0.0112 0.0045,-0.0189 0.0056,-0.0237 6.46e-4,-0.003 0.0012,-0.005 0.0014,-0.006 2.61e-4,-0.001 2.07e-4,-0.001 -5.6e-4,4.7e-4 0.05871,-0.2123 0.100237,-0.42206 0.137146,-0.6075 0.04078,-0.20487 0.07835,-0.39309 0.129304,-0.57956 0.07308,-0.28629 0.185362,-0.56501 0.342699,-0.82107 0.0265,-0.0424 0.05964,-0.0866 0.09748,-0.12128 0.009,-0.008 0.01817,-0.0159 0.02755,-0.0228 0.0091,-0.007 0.01851,-0.0129 0.02812,-0.0184 0.01574,-0.009 0.0321,-0.016 0.0492,-0.0207 0.01397,-4.1e-4 0.02712,0.002 0.04027,0.007 0.01527,0.006 0.03187,0.0161 0.04956,0.0315 0.01733,0.0151 0.0345,0.0343 0.0512,0.0568 0.0164,0.0222 0.03144,0.0464 0.04498,0.0711 0.128283,0.23153 0.205332,0.49345 0.276231,0.74957 0.05856,0.21431 0.109955,0.44893 0.156863,0.6504 0.05793,0.24882 0.111138,0.45749 0.179729,0.66266 0.0044,0.0137 0.0058,0.0183 0.007,0.0217 0.0039,0.0108 0.0071,0.0161 0.0082,0.0185 a 0.13520795,0.13520795 90 0 0 0.24826,-0.1072 c -0.0019,-0.004 -0.0045,-0.0122 -0.0087,-0.0198 -0.0013,-0.002 -0.003,-0.005 -0.0049,-0.007 -0.06356,-0.18499 -0.116687,-0.38325 -0.176959,-0.62927 -0.04804,-0.19611 -0.104106,-0.4381 -0.167148,-0.65872 -0.07567,-0.25462 -0.164124,-0.54054 -0.311809,-0.7983 -0.01867,-0.0317 -0.04014,-0.0645 -0.06493,-0.0963 -0.02509,-0.0322 -0.05415,-0.064 -0.08754,-0.0918 -0.03427,-0.0286 -0.07378,-0.0536 -0.118738,-0.0703 -0.04717,-0.0175 -0.09792,-0.0249 -0.151042,-0.0196 -0.0051,5e-4 -0.01009,0.001 -0.01504,0.002 -0.04368,0.0103 -0.08275,0.0267 -0.117228,0.0459 -0.01815,0.0101 -0.03512,0.021 -0.05092,0.0322 -0.01622,0.0116 -0.03152,0.0237 -0.04591,0.0362 -0.05912,0.0511 -0.107492,0.11083 -0.145247,0.16298 -0.18001,0.27631 -0.313753,0.57366 -0.40335,0.87947 -0.05884,0.19437 -0.103262,0.39137 -0.148034,0.59446 -0.04112,0.18654 -0.08429,0.38671 -0.138843,0.57772 5.84e-4,-0.003 -0.0012,0.003 -0.0025,0.007 -0.0014,0.004 -0.0026,0.009 -0.0038,0.0129 -0.0019,0.007 -0.0039,0.0143 -0.0057,0.0208 -0.0029,0.0105 -0.0048,0.0174 -0.0067,0.0237 -0.0019,0.006 -0.0034,0.0104 -0.0044,0.0129 -7.93e-4,0.002 -0.0011,0.001 0.0034,-0.006 0.002,-0.003 0.0061,-0.009 0.01256,-0.0154 0.0063,-0.006 0.01718,-0.016 0.03311,-0.0241 0.01659,-0.008 0.038,-0.0148 0.06263,-0.0145 0.0244,3.1e-4 0.04516,0.007 0.06089,0.0155 0.0149,0.008 0.02471,0.017 0.03013,0.0227 0.0055,0.006 0.0084,0.0103 0.0094,0.012 0.0066,0.0112 0.01317,0.0225 0.01733,0.0348 0.0042,0.0123 0.0055,0.0254 0.0063,0.0384 -0.01014,-0.17668 -0.0039,-0.3513 0.0038,-0.55043 0.04038,-0.58756 -0.02158,-1.17589 -0.109227,-1.75195 -4.25e-4,-0.003 -8.12e-4,-0.006 -0.0014,-0.008 -5.37e-4,-0.003 -0.0013,-0.006 -0.0022,-0.008 -0.01374,-0.0429 -0.02211,-0.0885 -0.0327,-0.14411 -0.01041,-0.0546 -0.02254,-0.1162 -0.04458,-0.17748 -0.0082,-0.0294 -0.02613,-0.0629 -0.04808,-0.0912 -0.02256,-0.029 -0.05052,-0.0539 -0.08221,-0.0725 -0.03286,-0.0193 -0.07073,-0.0323 -0.111453,-0.035 -0.04009,-0.003 -0.0801,0.005 -0.117321,0.0225 -8.13e-4,2.9e-4 -0.0016,5.8e-4 -0.0024,8.7e-4 -0.05445,0.0195 -0.103773,0.0463 -0.1489,0.078 -0.04688,0.0329 -0.08862,0.0708 -0.126549,0.1106 -0.07324,0.0768 -0.136886,0.16616 -0.191826,0.23849 -0.394137,0.57835 -0.652378,1.20571 -0.835151,1.78084 -0.01119,0.0472 -0.0228,0.0867 -0.03452,0.12685 -0.01305,0.0448 -0.02551,0.088 -0.03548,0.13301 -0.01146,0.0517 -0.01843,0.1008 -0.01948,0.14945 -0.0014,0.0632 0.0076,0.11736 0.02204,0.16427 a 0.11732331,0.11732331 90 0 0 0.224208,-0.0692 z"
       id="path-1"
       inkscape:path-effect="#path-effect2075;#path-effect2077"
       inkscape:original-d="m -15.558175,153.85575 c -0.05237,-0.16023 0.02622,-0.33137 0.06157,-0.4895 0.192283,-0.6123 0.450769,-1.20977 0.80878,-1.74417 0.130147,-0.17055 0.269206,-0.38387 0.497172,-0.42036 0.178749,0.0244 0.151171,0.28356 0.197975,0.41801 0.06876,0.46567 0.120761,0.93664 0.116542,1.40786 -0.0059,0.30146 -0.03958,0.60295 -0.02462,0.90444 0.04073,0.10598 0.08247,-0.15178 0.102516,-0.19272 0.139711,-0.56355 0.206807,-1.15453 0.474991,-1.67796 0.101192,-0.18731 0.201831,-0.41499 0.415758,-0.49231 0.194436,-0.032 0.304974,0.17529 0.380549,0.32062 0.286617,0.61832 0.362169,1.30513 0.569798,1.94928 l 0.01207,0.0308 0.01192,0.0271"
       style="fill:#000000;fill-rule:nonzero;stroke:none;stroke-width:1.21817" />
  </g>
</svg>
