<?xml version="1.0" encoding="UTF-8" standalone="no"?>
<!-- Created with Inkscape (http://www.inkscape.org/) -->

<svg
   width="6mm"
   height="10mm"
   viewBox="0 0 6.0000001 9.9999994"
   version="1.1"
   id="svg1681"
   inkscape:version="1.2.1 (9c6d41e410, 2022-07-14)"
   sodipodi:docname="lower m 1.2.svg"
   inkscape:export-filename="..\..\..\..\Downloads\lower a diff canvas resize 3.0.png"
   inkscape:export-xdpi="96"
   inkscape:export-ydpi="96"
   xmlns:inkscape="http://www.inkscape.org/namespaces/inkscape"
   xmlns:sodipodi="http://sodipodi.sourceforge.net/DTD/sodipodi-0.dtd"
   xmlns="http://www.w3.org/2000/svg"
   xmlns:svg="http://www.w3.org/2000/svg"
   xmlns:rdf="http://www.w3.org/1999/02/22-rdf-syntax-ns#"
   xmlns:cc="http://creativecommons.org/ns#"
   xmlns:dc="http://purl.org/dc/elements/1.1/">
  <defs
     id="defs1675">
    <inkscape:path-effect
       effect="powerstroke"
       id="path-effect1667"
       is_visible="true"
       lpeversion="1"
       offset_points="2.1639641,0.081879623 | 9.1274982,0.1035381 | 11.015723,0.087338265"
       not_jump="true"
       sort_points="true"
       interpolator_type="CentripetalCatmullRom"
       interpolator_beta="0.75"
       start_linecap_type="round"
       linejoin_type="spiro"
       miter_limit="4"
       scale_width="1"
       end_linecap_type="round" />
    <inkscape:path-effect
       effect="simplify"
       id="path-effect1665"
       is_visible="true"
       lpeversion="1"
       steps="1"
       threshold="0.0035951417"
       smooth_angles="0"
       helper_size="0"
       simplify_individual_paths="false"
       simplify_just_coalesce="false"
       step="1" />
    <inkscape:path-effect
       effect="powerstroke"
       id="path-effect1660"
       is_visible="true"
       lpeversion="1"
       offset_points="3.132814,0.075022738 | 7.3019813,0.086180718 | 11.237873,0.06870967 | 12.378552,0.078399495"
       not_jump="true"
       sort_points="true"
       interpolator_type="CentripetalCatmullRom"
       interpolator_beta="0.75"
       start_linecap_type="round"
       linejoin_type="spiro"
       miter_limit="4"
       scale_width="1"
       end_linecap_type="round" />
    <inkscape:path-effect
       effect="simplify"
       id="path-effect1658"
       is_visible="true"
       lpeversion="1"
       steps="1"
       threshold="0.0035951417"
       smooth_angles="0"
       helper_size="0"
       simplify_individual_paths="false"
       simplify_just_coalesce="false"
       step="1" />
    <inkscape:path-effect
       effect="powerstroke"
       id="path-effect502"
       is_visible="true"
       lpeversion="1"
       offset_points="3.0091841,0.21607495 | 7.3602657,0.17554228 | 9.4159651,0.20236537"
       not_jump="true"
       sort_points="true"
       interpolator_type="CentripetalCatmullRom"
       interpolator_beta="0.75"
       start_linecap_type="round"
       linejoin_type="spiro"
       miter_limit="4"
       scale_width="1"
       end_linecap_type="round" />
    <inkscape:path-effect
       effect="simplify"
       id="path-effect500"
       is_visible="true"
       lpeversion="1"
       steps="1"
       threshold="0.0035951417"
       smooth_angles="0"
       helper_size="0"
       simplify_individual_paths="false"
       simplify_just_coalesce="false"
       step="1" />
    <inkscape:path-effect
       effect="powerstroke"
       id="path-effect241"
       is_visible="true"
       lpeversion="1"
       offset_points="2.6879454,0.34086734"
       not_jump="true"
       sort_points="true"
       interpolator_type="CentripetalCatmullRom"
       interpolator_beta="0.75"
       start_linecap_type="round"
       linejoin_type="spiro"
       miter_limit="4"
       scale_width="1"
       end_linecap_type="round" />
    <inkscape:path-effect
       effect="simplify"
       id="path-effect239"
       is_visible="true"
       lpeversion="1"
       steps="1"
       threshold="0.0028332064"
       smooth_angles="0"
       helper_size="0"
       simplify_individual_paths="false"
       simplify_just_coalesce="false"
       step="1" />
    <inkscape:path-effect
       effect="powerstroke"
       id="path-effect234"
       is_visible="true"
       lpeversion="1"
       offset_points="2.13563,0.075169555"
       not_jump="true"
       sort_points="true"
       interpolator_type="CentripetalCatmullRom"
       interpolator_beta="0.75"
       start_linecap_type="round"
       linejoin_type="spiro"
       miter_limit="4"
       scale_width="1"
       end_linecap_type="round" />
    <inkscape:path-effect
       effect="simplify"
       id="path-effect232"
       is_visible="true"
       lpeversion="1"
       steps="1"
       threshold="0.0028332064"
       smooth_angles="0"
       helper_size="0"
       simplify_individual_paths="false"
       simplify_just_coalesce="false"
       step="1" />
    <inkscape:path-effect
       effect="powerstroke"
       id="path-effect227"
       is_visible="true"
       lpeversion="1"
       offset_points="2.1868266,0.075169555"
       not_jump="true"
       sort_points="true"
       interpolator_type="CentripetalCatmullRom"
       interpolator_beta="0.75"
       start_linecap_type="round"
       linejoin_type="spiro"
       miter_limit="4"
       scale_width="1"
       end_linecap_type="round" />
    <inkscape:path-effect
       effect="simplify"
       id="path-effect225"
       is_visible="true"
       lpeversion="1"
       steps="1"
       threshold="0.0028332064"
       smooth_angles="0"
       helper_size="0"
       simplify_individual_paths="false"
       simplify_just_coalesce="false"
       step="1" />
    <inkscape:path-effect
       effect="powerstroke"
       id="path-effect166"
       is_visible="true"
       lpeversion="1"
       offset_points="1.9637935,0.075169555"
       not_jump="true"
       sort_points="true"
       interpolator_type="CentripetalCatmullRom"
       interpolator_beta="0.75"
       start_linecap_type="round"
       linejoin_type="spiro"
       miter_limit="4"
       scale_width="1"
       end_linecap_type="round" />
    <inkscape:path-effect
       effect="simplify"
       id="path-effect164"
       is_visible="true"
       lpeversion="1"
       steps="1"
       threshold="0.0028332064"
       smooth_angles="0"
       helper_size="0"
       simplify_individual_paths="false"
       simplify_just_coalesce="false"
       step="1" />
    <inkscape:path-effect
       effect="powerstroke"
       id="path-effect159"
       is_visible="true"
       lpeversion="1"
       offset_points="2.2611036,0.075169555"
       not_jump="true"
       sort_points="true"
       interpolator_type="CentripetalCatmullRom"
       interpolator_beta="0.75"
       start_linecap_type="round"
       linejoin_type="spiro"
       miter_limit="4"
       scale_width="1"
       end_linecap_type="round" />
    <inkscape:path-effect
       effect="simplify"
       id="path-effect157"
       is_visible="true"
       lpeversion="1"
       steps="1"
       threshold="0.0028332064"
       smooth_angles="0"
       helper_size="0"
       simplify_individual_paths="false"
       simplify_just_coalesce="false"
       step="1" />
    <inkscape:path-effect
       effect="powerstroke"
       id="path-effect152"
       is_visible="true"
       lpeversion="1"
       offset_points="2.826981,0.075169555"
       not_jump="true"
       sort_points="true"
       interpolator_type="CentripetalCatmullRom"
       interpolator_beta="0.75"
       start_linecap_type="round"
       linejoin_type="spiro"
       miter_limit="4"
       scale_width="1"
       end_linecap_type="round" />
    <inkscape:path-effect
       effect="simplify"
       id="path-effect150"
       is_visible="true"
       lpeversion="1"
       steps="1"
       threshold="0.0028332064"
       smooth_angles="0"
       helper_size="0"
       simplify_individual_paths="false"
       simplify_just_coalesce="false"
       step="1" />
    <inkscape:path-effect
       effect="powerstroke"
       id="path-effect145"
       is_visible="true"
       lpeversion="1"
       offset_points="3.8374447,0.075169555"
       not_jump="true"
       sort_points="true"
       interpolator_type="CentripetalCatmullRom"
       interpolator_beta="0.75"
       start_linecap_type="round"
       linejoin_type="spiro"
       miter_limit="4"
       scale_width="1"
       end_linecap_type="round" />
    <inkscape:path-effect
       effect="simplify"
       id="path-effect143"
       is_visible="true"
       lpeversion="1"
       steps="1"
       threshold="0.0028332064"
       smooth_angles="0"
       helper_size="0"
       simplify_individual_paths="false"
       simplify_just_coalesce="false"
       step="1" />
    <inkscape:path-effect
       effect="powerstroke"
       id="path-effect138"
       is_visible="true"
       lpeversion="1"
       offset_points="2.6880907,0.075169555"
       not_jump="true"
       sort_points="true"
       interpolator_type="CentripetalCatmullRom"
       interpolator_beta="0.75"
       start_linecap_type="round"
       linejoin_type="spiro"
       miter_limit="4"
       scale_width="1"
       end_linecap_type="round" />
    <inkscape:path-effect
       effect="simplify"
       id="path-effect136"
       is_visible="true"
       lpeversion="1"
       steps="1"
       threshold="0.0028332064"
       smooth_angles="0"
       helper_size="0"
       simplify_individual_paths="false"
       simplify_just_coalesce="false"
       step="1" />
    <inkscape:path-effect
       effect="powerstroke"
       id="path-effect131"
       is_visible="true"
       lpeversion="1"
       offset_points="1.9940581,0.075169555"
       not_jump="true"
       sort_points="true"
       interpolator_type="CentripetalCatmullRom"
       interpolator_beta="0.75"
       start_linecap_type="round"
       linejoin_type="spiro"
       miter_limit="4"
       scale_width="1"
       end_linecap_type="round" />
    <inkscape:path-effect
       effect="simplify"
       id="path-effect129"
       is_visible="true"
       lpeversion="1"
       steps="1"
       threshold="0.0028332064"
       smooth_angles="0"
       helper_size="0"
       simplify_individual_paths="false"
       simplify_just_coalesce="false"
       step="1" />
  </defs>
  <sodipodi:namedview
     id="base"
     pagecolor="#ffffff"
     bordercolor="#666666"
     borderopacity="1.0"
     inkscape:pageopacity="0.0"
     inkscape:pageshadow="2"
     inkscape:zoom="7.919596"
     inkscape:cx="-5.3033008"
     inkscape:cy="20.834396"
     inkscape:document-units="mm"
     inkscape:current-layer="layer1"
     showgrid="false"
     fit-margin-top="0"
     fit-margin-left="0"
     fit-margin-right="0"
     fit-margin-bottom="0"
     inkscape:window-width="1920"
     inkscape:window-height="974"
     inkscape:window-x="-11"
     inkscape:window-y="2869"
     inkscape:window-maximized="1"
     showguides="true"
     inkscape:guide-bbox="true"
     inkscape:snap-bbox="true"
     inkscape:bbox-nodes="true"
     inkscape:snap-nodes="false"
     inkscape:snap-others="false"
     inkscape:snap-page="true"
     inkscape:snap-grids="false"
     inkscape:snap-to-guides="false"
     inkscape:snap-global="false"
     inkscape:pagecheckerboard="0"
     inkscape:showpageshadow="2"
     inkscape:deskcolor="#d1d1d1">
    <sodipodi:guide
       position="-6.1806075,9.4988692"
       orientation="0,1"
       id="guide816"
       inkscape:locked="false" />
    <sodipodi:guide
       position="-4.4101636,10.646923"
       orientation="0,1"
       id="guide818"
       inkscape:locked="false" />
    <sodipodi:guide
       position="2.7595724,11.09577"
       orientation="1,0"
       id="guide820"
       inkscape:locked="false" />
    <sodipodi:guide
       position="3.6572659,10.942217"
       orientation="1,0"
       id="guide822"
       inkscape:locked="false" />
    <sodipodi:guide
       position="-0.051625511,9.7492299"
       orientation="1,0"
       id="guide1853"
       inkscape:locked="false" />
    <sodipodi:guide
       position="-2.3720169,3.0175835"
       orientation="0,1"
       id="guide1855"
       inkscape:locked="false" />
  </sodipodi:namedview>
  <metadata
     id="metadata1678">
    <rdf:RDF>
      <cc:Work
         rdf:about="">
        <dc:format>image/svg+xml</dc:format>
        <dc:type
           rdf:resource="http://purl.org/dc/dcmitype/StillImage" />
      </cc:Work>
    </rdf:RDF>
  </metadata>
  <g
     inkscape:label="Layer 1"
     inkscape:groupmode="layer"
     id="layer1"
     transform="translate(17.028496,-147.22856)">
    <path
       d="m -15.069178,154.13802 c -0.01363,-0.23696 -0.0062,-0.53746 0.06052,-0.95058 0.04852,-0.30029 0.114608,-0.58526 0.199814,-0.94606 0.04151,-0.14228 0.08943,-0.30685 0.152523,-0.45886 0.05954,-0.14346 0.134669,-0.28164 0.239778,-0.40086 0.0078,-0.01 0.01303,-0.0157 0.01825,-0.0213 0.01001,-0.0108 0.02038,-0.0201 0.03101,-0.0272 0.01352,-0.009 0.02668,-0.0139 0.04137,-0.0145 0.0023,-1e-4 0.0046,-2.9e-4 0.0069,-7.2e-4 0.0023,-4.3e-4 0.0045,-9.9e-4 0.0067,-0.002 0.01573,-0.004 0.03151,-0.004 0.04736,-8.2e-4 0.01534,0.003 0.03128,0.009 0.04715,0.0184 0.01536,0.009 0.03029,0.0213 0.04379,0.036 0.01311,0.0143 0.02441,0.0305 0.03308,0.0476 0.04598,0.083 0.07495,0.17277 0.09941,0.27328 0.02354,0.0967 0.04193,0.20084 0.06886,0.30703 0.111269,0.50803 0.156843,1.04501 0.248287,1.57652 0.0018,0.0105 0.0038,0.0211 0.0077,0.031 0.0039,0.01 0.0098,0.0191 0.01764,0.0264 0.0078,0.007 0.01739,0.0126 0.02754,0.0159 0.01015,0.003 0.02081,0.005 0.03142,0.006 0.03707,0.005 0.07237,-7.3e-4 0.104102,-0.0136 0.03152,-0.0128 0.05759,-0.0323 0.07831,-0.0538 0.02092,-0.0218 0.03723,-0.0465 0.04937,-0.0715 0.01235,-0.0254 0.02103,-0.0523 0.02581,-0.0791 0.01133,-0.0465 0.01759,-0.0986 0.02146,-0.14724 0.0038,-0.0479 0.0057,-0.10011 0.0081,-0.1426 0.0025,-0.0466 0.0058,-0.0884 0.01223,-0.12821 0.0062,-0.0384 0.015,-0.0731 0.02769,-0.1052 0.0367,-0.065 0.06133,-0.13268 0.08014,-0.18887 0.0265,-0.0791 0.03688,-0.11833 0.05957,-0.17785 0.01,-0.0288 0.01878,-0.0531 0.02779,-0.0767 0.02954,-0.0774 0.06035,-0.14325 0.09516,-0.20033 0.02615,-0.0429 0.0538,-0.0794 0.08321,-0.11047 0.03049,-0.0322 0.06317,-0.0587 0.09839,-0.08 0.01482,-0.005 0.02997,-0.008 0.04523,-0.008 0.01921,-6e-4 0.03918,0.002 0.05916,0.008 0.03794,0.0115 0.07707,0.0357 0.106813,0.0719 0.0036,0.004 0.0053,0.006 0.0071,0.008 0.05055,0.06 0.09154,0.13005 0.135543,0.21853 0.03909,0.0786 0.08046,0.17203 0.127321,0.25612 0.195087,0.48644 0.368944,1.23776 0.413522,1.41053 a 0.08733827,0.08733827 90 0 0 0.169138,-0.0436 c -0.04204,-0.16292 -0.222618,-0.93578 -0.424833,-1.4364 -0.0014,-0.003 -0.003,-0.007 -0.0049,-0.0101 -0.0454,-0.0803 -0.08117,-0.16256 -0.125798,-0.25302 -0.04613,-0.0935 -0.09333,-0.1773 -0.15548,-0.2534 -0.0021,-0.003 -0.0043,-0.005 -0.0065,-0.008 -0.04772,-0.0615 -0.113214,-0.10782 -0.181219,-0.13357 -0.03628,-0.0137 -0.07537,-0.0225 -0.115965,-0.0243 -0.03948,-0.002 -0.08138,0.003 -0.123568,0.0168 -0.0026,8.6e-4 -0.0052,0.002 -0.0077,0.003 -0.0025,0.001 -0.0049,0.002 -0.0073,0.004 -0.05538,0.0299 -0.10582,0.0678 -0.151573,0.11331 -0.04183,0.0416 -0.07935,0.0892 -0.113236,0.14223 -0.0449,0.0703 -0.08225,0.14829 -0.115674,0.2336 -0.01021,0.0261 -0.01999,0.0526 -0.02955,0.0798 -0.02359,0.06 -0.03965,0.11598 -0.06207,0.18376 -0.01829,0.0553 -0.03822,0.10954 -0.06558,0.15807 -0.0022,0.004 -0.0043,0.008 -0.006,0.0122 -0.02118,0.0522 -0.03396,0.10517 -0.04195,0.1579 -0.0077,0.0507 -0.01092,0.10101 -0.01308,0.14974 -0.0021,0.0481 -0.0032,0.0928 -0.0062,0.13769 -0.0029,0.0433 -0.0076,0.084 -0.01636,0.12282 -0.0024,0.0149 -0.005,0.0244 -0.0089,0.0334 -0.0039,0.009 -0.0085,0.0162 -0.01302,0.0214 -0.0044,0.005 -0.008,0.008 -0.0099,0.009 -0.0016,9.3e-4 -0.0033,0.002 -0.0069,0.002 l 0.08428,0.0794 c -0.09221,-0.52002 -0.140719,-1.06011 -0.259104,-1.58661 -0.02682,-0.10019 -0.04668,-0.20383 -0.07346,-0.30761 -0.02764,-0.10712 -0.06264,-0.21377 -0.119881,-0.31387 -0.01588,-0.0293 -0.0372,-0.058 -0.06149,-0.0831 -0.02502,-0.0258 -0.05356,-0.0481 -0.08462,-0.0654 -0.03221,-0.018 -0.06725,-0.0308 -0.104002,-0.0367 -0.03674,-0.006 -0.07424,-0.005 -0.111213,0.004 -0.0476,0.006 -0.08563,0.0253 -0.114635,0.0462 -0.02327,0.0167 -0.0423,0.0356 -0.05716,0.0522 -0.008,0.009 -0.01543,0.0179 -0.02236,0.0267 -0.117861,0.1342 -0.201081,0.28981 -0.264663,0.44328 -0.06697,0.16166 -0.117306,0.335 -0.159516,0.47969 -0.08631,0.36447 -0.153879,0.65453 -0.203707,0.96142 -0.06887,0.42416 -0.07731,0.73668 -0.06296,0.98606 a 0.08187962,0.08187962 90 0 0 0.163488,-0.009 z"
       id="path-1"
       inkscape:path-effect="#path-effect1665;#path-effect1667"
       inkscape:original-d="m -15.150922,154.14272 c -0.03779,-0.64656 0.113868,-1.28675 0.260627,-1.91196 0.09974,-0.34436 0.211124,-0.71866 0.477841,-0.97059 0.362064,-0.15759 0.440832,0.33938 0.498186,0.58204 0.139495,0.56384 0.185403,1.14459 0.285144,1.71566 0.262438,0.01 0.102369,-0.54062 0.246574,-0.73003 0.11735,-0.29143 0.176663,-0.6706 0.471749,-0.83765 0.339258,-0.0997 0.462416,0.3704 0.596638,0.59513 0.188244,0.46309 0.300005,0.95392 0.424587,1.43684"
       style="fill:#000000;fill-rule:nonzero;stroke:none;stroke-width:1.19936" />
  </g>
</svg>
