<?xml version="1.0" encoding="UTF-8" standalone="no"?>
<!-- Created with Inkscape (http://www.inkscape.org/) -->

<svg
   width="6mm"
   height="10mm"
   viewBox="0 0 6.0000001 9.9999994"
   version="1.1"
   id="svg1681"
   inkscape:version="1.2.1 (9c6d41e410, 2022-07-14)"
   sodipodi:docname="lower m 1.1.svg"
   inkscape:export-filename="..\..\..\..\Downloads\lower a diff canvas resize 3.0.png"
   inkscape:export-xdpi="96"
   inkscape:export-ydpi="96"
   xmlns:inkscape="http://www.inkscape.org/namespaces/inkscape"
   xmlns:sodipodi="http://sodipodi.sourceforge.net/DTD/sodipodi-0.dtd"
   xmlns="http://www.w3.org/2000/svg"
   xmlns:svg="http://www.w3.org/2000/svg"
   xmlns:rdf="http://www.w3.org/1999/02/22-rdf-syntax-ns#"
   xmlns:cc="http://creativecommons.org/ns#"
   xmlns:dc="http://purl.org/dc/elements/1.1/">
  <defs
     id="defs1675">
    <inkscape:path-effect
       effect="powerstroke"
       id="path-effect329"
       is_visible="true"
       lpeversion="1"
       offset_points="2.036852,0.098305736 | 9.038239,0.12982769 | 11.263778,0.10560744"
       not_jump="true"
       sort_points="true"
       interpolator_type="CentripetalCatmullRom"
       interpolator_beta="0.75"
       start_linecap_type="round"
       linejoin_type="spiro"
       miter_limit="4"
       scale_width="1"
       end_linecap_type="round" />
    <inkscape:path-effect
       effect="simplify"
       id="path-effect327"
       is_visible="true"
       lpeversion="1"
       steps="1"
       threshold="0.0035951417"
       smooth_angles="0"
       helper_size="0"
       simplify_individual_paths="false"
       simplify_just_coalesce="false"
       step="1" />
    <inkscape:path-effect
       effect="powerstroke"
       id="path-effect502"
       is_visible="true"
       lpeversion="1"
       offset_points="3.0091841,0.21607495 | 7.3602657,0.17554228 | 9.4159651,0.20236537"
       not_jump="true"
       sort_points="true"
       interpolator_type="CentripetalCatmullRom"
       interpolator_beta="0.75"
       start_linecap_type="round"
       linejoin_type="spiro"
       miter_limit="4"
       scale_width="1"
       end_linecap_type="round" />
    <inkscape:path-effect
       effect="simplify"
       id="path-effect500"
       is_visible="true"
       lpeversion="1"
       steps="1"
       threshold="0.0035951417"
       smooth_angles="0"
       helper_size="0"
       simplify_individual_paths="false"
       simplify_just_coalesce="false"
       step="1" />
    <inkscape:path-effect
       effect="powerstroke"
       id="path-effect241"
       is_visible="true"
       lpeversion="1"
       offset_points="2.6879454,0.34086734"
       not_jump="true"
       sort_points="true"
       interpolator_type="CentripetalCatmullRom"
       interpolator_beta="0.75"
       start_linecap_type="round"
       linejoin_type="spiro"
       miter_limit="4"
       scale_width="1"
       end_linecap_type="round" />
    <inkscape:path-effect
       effect="simplify"
       id="path-effect239"
       is_visible="true"
       lpeversion="1"
       steps="1"
       threshold="0.0028332064"
       smooth_angles="0"
       helper_size="0"
       simplify_individual_paths="false"
       simplify_just_coalesce="false"
       step="1" />
    <inkscape:path-effect
       effect="powerstroke"
       id="path-effect234"
       is_visible="true"
       lpeversion="1"
       offset_points="2.13563,0.075169555"
       not_jump="true"
       sort_points="true"
       interpolator_type="CentripetalCatmullRom"
       interpolator_beta="0.75"
       start_linecap_type="round"
       linejoin_type="spiro"
       miter_limit="4"
       scale_width="1"
       end_linecap_type="round" />
    <inkscape:path-effect
       effect="simplify"
       id="path-effect232"
       is_visible="true"
       lpeversion="1"
       steps="1"
       threshold="0.0028332064"
       smooth_angles="0"
       helper_size="0"
       simplify_individual_paths="false"
       simplify_just_coalesce="false"
       step="1" />
    <inkscape:path-effect
       effect="powerstroke"
       id="path-effect227"
       is_visible="true"
       lpeversion="1"
       offset_points="2.1868266,0.075169555"
       not_jump="true"
       sort_points="true"
       interpolator_type="CentripetalCatmullRom"
       interpolator_beta="0.75"
       start_linecap_type="round"
       linejoin_type="spiro"
       miter_limit="4"
       scale_width="1"
       end_linecap_type="round" />
    <inkscape:path-effect
       effect="simplify"
       id="path-effect225"
       is_visible="true"
       lpeversion="1"
       steps="1"
       threshold="0.0028332064"
       smooth_angles="0"
       helper_size="0"
       simplify_individual_paths="false"
       simplify_just_coalesce="false"
       step="1" />
    <inkscape:path-effect
       effect="powerstroke"
       id="path-effect166"
       is_visible="true"
       lpeversion="1"
       offset_points="1.9637935,0.075169555"
       not_jump="true"
       sort_points="true"
       interpolator_type="CentripetalCatmullRom"
       interpolator_beta="0.75"
       start_linecap_type="round"
       linejoin_type="spiro"
       miter_limit="4"
       scale_width="1"
       end_linecap_type="round" />
    <inkscape:path-effect
       effect="simplify"
       id="path-effect164"
       is_visible="true"
       lpeversion="1"
       steps="1"
       threshold="0.0028332064"
       smooth_angles="0"
       helper_size="0"
       simplify_individual_paths="false"
       simplify_just_coalesce="false"
       step="1" />
    <inkscape:path-effect
       effect="powerstroke"
       id="path-effect159"
       is_visible="true"
       lpeversion="1"
       offset_points="2.2611036,0.075169555"
       not_jump="true"
       sort_points="true"
       interpolator_type="CentripetalCatmullRom"
       interpolator_beta="0.75"
       start_linecap_type="round"
       linejoin_type="spiro"
       miter_limit="4"
       scale_width="1"
       end_linecap_type="round" />
    <inkscape:path-effect
       effect="simplify"
       id="path-effect157"
       is_visible="true"
       lpeversion="1"
       steps="1"
       threshold="0.0028332064"
       smooth_angles="0"
       helper_size="0"
       simplify_individual_paths="false"
       simplify_just_coalesce="false"
       step="1" />
    <inkscape:path-effect
       effect="powerstroke"
       id="path-effect152"
       is_visible="true"
       lpeversion="1"
       offset_points="2.826981,0.075169555"
       not_jump="true"
       sort_points="true"
       interpolator_type="CentripetalCatmullRom"
       interpolator_beta="0.75"
       start_linecap_type="round"
       linejoin_type="spiro"
       miter_limit="4"
       scale_width="1"
       end_linecap_type="round" />
    <inkscape:path-effect
       effect="simplify"
       id="path-effect150"
       is_visible="true"
       lpeversion="1"
       steps="1"
       threshold="0.0028332064"
       smooth_angles="0"
       helper_size="0"
       simplify_individual_paths="false"
       simplify_just_coalesce="false"
       step="1" />
    <inkscape:path-effect
       effect="powerstroke"
       id="path-effect145"
       is_visible="true"
       lpeversion="1"
       offset_points="3.8374447,0.075169555"
       not_jump="true"
       sort_points="true"
       interpolator_type="CentripetalCatmullRom"
       interpolator_beta="0.75"
       start_linecap_type="round"
       linejoin_type="spiro"
       miter_limit="4"
       scale_width="1"
       end_linecap_type="round" />
    <inkscape:path-effect
       effect="simplify"
       id="path-effect143"
       is_visible="true"
       lpeversion="1"
       steps="1"
       threshold="0.0028332064"
       smooth_angles="0"
       helper_size="0"
       simplify_individual_paths="false"
       simplify_just_coalesce="false"
       step="1" />
    <inkscape:path-effect
       effect="powerstroke"
       id="path-effect138"
       is_visible="true"
       lpeversion="1"
       offset_points="2.6880907,0.075169555"
       not_jump="true"
       sort_points="true"
       interpolator_type="CentripetalCatmullRom"
       interpolator_beta="0.75"
       start_linecap_type="round"
       linejoin_type="spiro"
       miter_limit="4"
       scale_width="1"
       end_linecap_type="round" />
    <inkscape:path-effect
       effect="simplify"
       id="path-effect136"
       is_visible="true"
       lpeversion="1"
       steps="1"
       threshold="0.0028332064"
       smooth_angles="0"
       helper_size="0"
       simplify_individual_paths="false"
       simplify_just_coalesce="false"
       step="1" />
    <inkscape:path-effect
       effect="powerstroke"
       id="path-effect131"
       is_visible="true"
       lpeversion="1"
       offset_points="1.9940581,0.075169555"
       not_jump="true"
       sort_points="true"
       interpolator_type="CentripetalCatmullRom"
       interpolator_beta="0.75"
       start_linecap_type="round"
       linejoin_type="spiro"
       miter_limit="4"
       scale_width="1"
       end_linecap_type="round" />
    <inkscape:path-effect
       effect="simplify"
       id="path-effect129"
       is_visible="true"
       lpeversion="1"
       steps="1"
       threshold="0.0028332064"
       smooth_angles="0"
       helper_size="0"
       simplify_individual_paths="false"
       simplify_just_coalesce="false"
       step="1" />
  </defs>
  <sodipodi:namedview
     id="base"
     pagecolor="#ffffff"
     bordercolor="#666666"
     borderopacity="1.0"
     inkscape:pageopacity="0.0"
     inkscape:pageshadow="2"
     inkscape:zoom="7.919596"
     inkscape:cx="-5.3033008"
     inkscape:cy="20.834396"
     inkscape:document-units="mm"
     inkscape:current-layer="layer1"
     showgrid="false"
     fit-margin-top="0"
     fit-margin-left="0"
     fit-margin-right="0"
     fit-margin-bottom="0"
     inkscape:window-width="1920"
     inkscape:window-height="974"
     inkscape:window-x="1108"
     inkscape:window-y="2149"
     inkscape:window-maximized="1"
     showguides="true"
     inkscape:guide-bbox="true"
     inkscape:snap-bbox="true"
     inkscape:bbox-nodes="true"
     inkscape:snap-nodes="false"
     inkscape:snap-others="false"
     inkscape:snap-page="true"
     inkscape:snap-grids="false"
     inkscape:snap-to-guides="false"
     inkscape:snap-global="false"
     inkscape:pagecheckerboard="0"
     inkscape:showpageshadow="2"
     inkscape:deskcolor="#d1d1d1">
    <sodipodi:guide
       position="-6.1806075,9.4988692"
       orientation="0,1"
       id="guide816"
       inkscape:locked="false" />
    <sodipodi:guide
       position="-4.4101636,10.646923"
       orientation="0,1"
       id="guide818"
       inkscape:locked="false" />
    <sodipodi:guide
       position="2.7595724,11.09577"
       orientation="1,0"
       id="guide820"
       inkscape:locked="false" />
    <sodipodi:guide
       position="3.6572659,10.942217"
       orientation="1,0"
       id="guide822"
       inkscape:locked="false" />
    <sodipodi:guide
       position="-0.051625511,9.7492299"
       orientation="1,0"
       id="guide1853"
       inkscape:locked="false" />
    <sodipodi:guide
       position="-2.3720169,3.0175835"
       orientation="0,1"
       id="guide1855"
       inkscape:locked="false" />
  </sodipodi:namedview>
  <metadata
     id="metadata1678">
    <rdf:RDF>
      <cc:Work
         rdf:about="">
        <dc:format>image/svg+xml</dc:format>
        <dc:type
           rdf:resource="http://purl.org/dc/dcmitype/StillImage" />
      </cc:Work>
    </rdf:RDF>
  </metadata>
  <g
     inkscape:label="Layer 1"
     inkscape:groupmode="layer"
     id="layer1"
     transform="translate(17.028496,-147.22856)">
    <path
       d="m -15.476987,154.12037 c 0.06822,-0.43807 0.241288,-1.4422 0.748687,-2.36661 0.0038,-0.007 0.0068,-0.0144 0.0088,-0.0221 0.006,-0.023 0.01632,-0.0469 0.03104,-0.0697 0.01398,-0.0217 0.03136,-0.0414 0.05115,-0.0574 0.01906,-0.0154 0.03958,-0.0266 0.06048,-0.033 0.02011,-0.006 0.041,-0.008 0.06256,-0.005 0.0058,7.7e-4 0.0085,0.001 0.01111,0.002 0.01433,0.003 0.02825,0.009 0.04159,0.0176 0.0144,0.01 0.02856,0.0236 0.04097,0.042 0.01152,0.0171 0.02113,0.0375 0.02738,0.0601 0.0059,0.0213 0.0085,0.0436 0.0074,0.065 1.94e-4,0.0615 0.009,0.11473 0.01863,0.16518 0.0092,0.0483 0.01831,0.0903 0.02263,0.1318 0.106362,0.60272 0.16454,1.21216 0.208459,1.85484 6.97e-4,0.0102 0.0019,0.0205 0.0054,0.0301 0.0035,0.01 0.009,0.0183 0.01464,0.0268 0.01248,0.0189 0.02816,0.0387 0.04658,0.0572 0.01816,0.0182 0.04092,0.0371 0.06793,0.052 0.01366,0.008 0.02903,0.0144 0.04596,0.0195 0.01699,0.005 0.03581,0.009 0.05601,0.009 0.02036,3.9e-4 0.04136,-0.002 0.0623,-0.009 0.02097,-0.007 0.04048,-0.0165 0.05826,-0.0293 0.04026,-0.0334 0.06664,-0.0648 0.08802,-0.097 0.02141,-0.0323 0.03794,-0.0658 0.05133,-0.0976 0.02491,-0.0592 0.0459,-0.13263 0.06026,-0.17505 0.03859,-0.13601 0.06608,-0.26282 0.0969,-0.38051 0.03312,-0.12645 0.06834,-0.23748 0.117304,-0.34039 0.05206,-0.11416 0.112521,-0.21407 0.179445,-0.30005 0.07667,-0.0985 0.159205,-0.17549 0.243404,-0.23443 l -0.02187,0.0122 c 0.0029,-0.001 0.0058,-0.003 0.0087,-0.004 0.03709,-0.0148 0.07747,-0.0189 0.115698,-0.0138 0.0453,0.006 0.08551,0.0243 0.116346,0.0503 0.07556,0.0648 0.131716,0.1439 0.178775,0.22666 0.05246,0.0923 0.09851,0.19885 0.138197,0.2879 0.04192,0.0922 0.07935,0.18501 0.112882,0.2707 0.0328,0.0838 0.06487,0.16822 0.097,0.24901 0.103373,0.25994 0.179422,0.40591 0.253371,0.52321 a 0.10560744,0.10560744 90 0 0 0.178672,-0.11264 c -0.06555,-0.10398 -0.137977,-0.23754 -0.237055,-0.48792 -0.03221,-0.0814 -0.0615,-0.15976 -0.09492,-0.24767 -0.03277,-0.0862 -0.07046,-0.18435 -0.111882,-0.28057 -0.03322,-0.0823 -0.0799,-0.20482 -0.133944,-0.31067 -0.04941,-0.0968 -0.116823,-0.2053 -0.216635,-0.29776 -0.06205,-0.0607 -0.145763,-0.10459 -0.239494,-0.1215 -0.07863,-0.0142 -0.165973,-0.009 -0.250131,0.0223 -0.0067,0.003 -0.01334,0.005 -0.02002,0.008 -0.0077,0.003 -0.01497,0.007 -0.02187,0.0122 -0.10721,0.0739 -0.209107,0.16926 -0.301178,0.28802 -0.0802,0.10344 -0.150531,0.22155 -0.208682,0.35152 -0.05737,0.12274 -0.09632,0.25207 -0.129791,0.38537 -0.03135,0.12485 -0.05724,0.25073 -0.08997,0.37203 -0.01776,0.0576 -0.02866,0.10488 -0.04771,0.15449 -0.0086,0.0224 -0.01765,0.0416 -0.02774,0.0581 -0.0099,0.0162 -0.02064,0.0296 -0.03283,0.0406 0.009,-0.007 0.01232,-0.008 0.01706,-0.01 0.0047,-0.001 0.0093,-0.002 0.01341,-0.001 0.0039,2.8e-4 0.0065,0.001 0.0075,0.002 0.0011,6.1e-4 4.44e-4,7.4e-4 -0.001,2.4e-4 -0.0035,-0.001 -0.0098,-0.005 -0.01718,-0.0114 -8.26e-4,-7.2e-4 -0.0016,-0.001 -0.0025,-0.002 -0.04807,-0.63201 -0.110752,-1.23741 -0.220031,-1.83324 -0.007,-0.0473 -0.02119,-0.10207 -0.03055,-0.14212 -0.01103,-0.0472 -0.01819,-0.0845 -0.01975,-0.12034 0.001,-0.0395 -0.0058,-0.0834 -0.01811,-0.12369 -0.0131,-0.0428 -0.03273,-0.0826 -0.05739,-0.11729 -0.02667,-0.0375 -0.0593,-0.0692 -0.09658,-0.0932 -0.03492,-0.0225 -0.07287,-0.0375 -0.112455,-0.045 -0.0071,-0.001 -0.01436,-0.002 -0.02166,-0.003 -0.0502,-0.008 -0.101177,-0.002 -0.147564,0.0125 -0.04731,0.0149 -0.08931,0.0392 -0.124928,0.0681 -0.03697,0.03 -0.06785,0.0657 -0.09214,0.10336 -0.02317,0.036 -0.04075,0.0744 -0.05232,0.11338 -0.520965,0.95326 -0.698207,1.98037 -0.766724,2.42036 a 0.09830574,0.09830574 90 0 0 0.19427,0.0303 z"
       id="path-1"
       inkscape:path-effect="#path-effect327;#path-effect329"
       inkscape:original-d="m -15.574122,154.10524 c 0.12903,-0.82967 0.354358,-1.65975 0.760393,-2.39839 0.110853,-0.35703 0.550888,-0.30327 0.529415,0.0855 0.141444,0.69255 0.211965,1.40362 0.262176,2.1048 0.241812,0.3144 0.338256,-0.33732 0.39661,-0.53354 0.08104,-0.39532 0.270991,-0.79846 0.609063,-1.03363 0.424187,-0.16612 0.619482,0.41528 0.747123,0.71503 0.133754,0.31447 0.230897,0.64745 0.415424,0.93793"
       style="fill:#000000;fill-rule:nonzero;stroke:none;stroke-width:1.09172" />
  </g>
</svg>
