<?xml version="1.0" encoding="UTF-8" standalone="no"?>
<!-- Created with Inkscape (http://www.inkscape.org/) -->

<svg
   width="6mm"
   height="10mm"
   viewBox="0 0 6.0000001 9.9999994"
   version="1.1"
   id="svg1681"
   inkscape:version="1.2.1 (9c6d41e410, 2022-07-14)"
   sodipodi:docname="lower m 1.3.svg"
   inkscape:export-filename="..\..\..\..\Downloads\lower a diff canvas resize 3.0.png"
   inkscape:export-xdpi="96"
   inkscape:export-ydpi="96"
   xmlns:inkscape="http://www.inkscape.org/namespaces/inkscape"
   xmlns:sodipodi="http://sodipodi.sourceforge.net/DTD/sodipodi-0.dtd"
   xmlns="http://www.w3.org/2000/svg"
   xmlns:svg="http://www.w3.org/2000/svg"
   xmlns:rdf="http://www.w3.org/1999/02/22-rdf-syntax-ns#"
   xmlns:cc="http://creativecommons.org/ns#"
   xmlns:dc="http://purl.org/dc/elements/1.1/">
  <defs
     id="defs1675">
    <inkscape:path-effect
       effect="powerstroke"
       id="path-effect1998"
       is_visible="true"
       lpeversion="1"
       offset_points="1.9729756,0.12754682 | 6.0715085,0.16107599"
       not_jump="true"
       sort_points="true"
       interpolator_type="CentripetalCatmullRom"
       interpolator_beta="0.75"
       start_linecap_type="round"
       linejoin_type="spiro"
       miter_limit="4"
       scale_width="1"
       end_linecap_type="round" />
    <inkscape:path-effect
       effect="simplify"
       id="path-effect1996"
       is_visible="true"
       lpeversion="1"
       steps="1"
       threshold="0.0035951417"
       smooth_angles="0"
       helper_size="0"
       simplify_individual_paths="false"
       simplify_just_coalesce="false"
       step="1" />
    <inkscape:path-effect
       effect="powerstroke"
       id="path-effect502"
       is_visible="true"
       lpeversion="1"
       offset_points="3.0091841,0.21607495 | 7.3602657,0.17554228 | 9.4159651,0.20236537"
       not_jump="true"
       sort_points="true"
       interpolator_type="CentripetalCatmullRom"
       interpolator_beta="0.75"
       start_linecap_type="round"
       linejoin_type="spiro"
       miter_limit="4"
       scale_width="1"
       end_linecap_type="round" />
    <inkscape:path-effect
       effect="simplify"
       id="path-effect500"
       is_visible="true"
       lpeversion="1"
       steps="1"
       threshold="0.0035951417"
       smooth_angles="0"
       helper_size="0"
       simplify_individual_paths="false"
       simplify_just_coalesce="false"
       step="1" />
    <inkscape:path-effect
       effect="powerstroke"
       id="path-effect241"
       is_visible="true"
       lpeversion="1"
       offset_points="2.6879454,0.34086734"
       not_jump="true"
       sort_points="true"
       interpolator_type="CentripetalCatmullRom"
       interpolator_beta="0.75"
       start_linecap_type="round"
       linejoin_type="spiro"
       miter_limit="4"
       scale_width="1"
       end_linecap_type="round" />
    <inkscape:path-effect
       effect="simplify"
       id="path-effect239"
       is_visible="true"
       lpeversion="1"
       steps="1"
       threshold="0.0028332064"
       smooth_angles="0"
       helper_size="0"
       simplify_individual_paths="false"
       simplify_just_coalesce="false"
       step="1" />
    <inkscape:path-effect
       effect="powerstroke"
       id="path-effect234"
       is_visible="true"
       lpeversion="1"
       offset_points="2.13563,0.075169555"
       not_jump="true"
       sort_points="true"
       interpolator_type="CentripetalCatmullRom"
       interpolator_beta="0.75"
       start_linecap_type="round"
       linejoin_type="spiro"
       miter_limit="4"
       scale_width="1"
       end_linecap_type="round" />
    <inkscape:path-effect
       effect="simplify"
       id="path-effect232"
       is_visible="true"
       lpeversion="1"
       steps="1"
       threshold="0.0028332064"
       smooth_angles="0"
       helper_size="0"
       simplify_individual_paths="false"
       simplify_just_coalesce="false"
       step="1" />
    <inkscape:path-effect
       effect="powerstroke"
       id="path-effect227"
       is_visible="true"
       lpeversion="1"
       offset_points="2.1868266,0.075169555"
       not_jump="true"
       sort_points="true"
       interpolator_type="CentripetalCatmullRom"
       interpolator_beta="0.75"
       start_linecap_type="round"
       linejoin_type="spiro"
       miter_limit="4"
       scale_width="1"
       end_linecap_type="round" />
    <inkscape:path-effect
       effect="simplify"
       id="path-effect225"
       is_visible="true"
       lpeversion="1"
       steps="1"
       threshold="0.0028332064"
       smooth_angles="0"
       helper_size="0"
       simplify_individual_paths="false"
       simplify_just_coalesce="false"
       step="1" />
    <inkscape:path-effect
       effect="powerstroke"
       id="path-effect166"
       is_visible="true"
       lpeversion="1"
       offset_points="1.9637935,0.075169555"
       not_jump="true"
       sort_points="true"
       interpolator_type="CentripetalCatmullRom"
       interpolator_beta="0.75"
       start_linecap_type="round"
       linejoin_type="spiro"
       miter_limit="4"
       scale_width="1"
       end_linecap_type="round" />
    <inkscape:path-effect
       effect="simplify"
       id="path-effect164"
       is_visible="true"
       lpeversion="1"
       steps="1"
       threshold="0.0028332064"
       smooth_angles="0"
       helper_size="0"
       simplify_individual_paths="false"
       simplify_just_coalesce="false"
       step="1" />
    <inkscape:path-effect
       effect="powerstroke"
       id="path-effect159"
       is_visible="true"
       lpeversion="1"
       offset_points="2.2611036,0.075169555"
       not_jump="true"
       sort_points="true"
       interpolator_type="CentripetalCatmullRom"
       interpolator_beta="0.75"
       start_linecap_type="round"
       linejoin_type="spiro"
       miter_limit="4"
       scale_width="1"
       end_linecap_type="round" />
    <inkscape:path-effect
       effect="simplify"
       id="path-effect157"
       is_visible="true"
       lpeversion="1"
       steps="1"
       threshold="0.0028332064"
       smooth_angles="0"
       helper_size="0"
       simplify_individual_paths="false"
       simplify_just_coalesce="false"
       step="1" />
    <inkscape:path-effect
       effect="powerstroke"
       id="path-effect152"
       is_visible="true"
       lpeversion="1"
       offset_points="2.826981,0.075169555"
       not_jump="true"
       sort_points="true"
       interpolator_type="CentripetalCatmullRom"
       interpolator_beta="0.75"
       start_linecap_type="round"
       linejoin_type="spiro"
       miter_limit="4"
       scale_width="1"
       end_linecap_type="round" />
    <inkscape:path-effect
       effect="simplify"
       id="path-effect150"
       is_visible="true"
       lpeversion="1"
       steps="1"
       threshold="0.0028332064"
       smooth_angles="0"
       helper_size="0"
       simplify_individual_paths="false"
       simplify_just_coalesce="false"
       step="1" />
    <inkscape:path-effect
       effect="powerstroke"
       id="path-effect145"
       is_visible="true"
       lpeversion="1"
       offset_points="3.8374447,0.075169555"
       not_jump="true"
       sort_points="true"
       interpolator_type="CentripetalCatmullRom"
       interpolator_beta="0.75"
       start_linecap_type="round"
       linejoin_type="spiro"
       miter_limit="4"
       scale_width="1"
       end_linecap_type="round" />
    <inkscape:path-effect
       effect="simplify"
       id="path-effect143"
       is_visible="true"
       lpeversion="1"
       steps="1"
       threshold="0.0028332064"
       smooth_angles="0"
       helper_size="0"
       simplify_individual_paths="false"
       simplify_just_coalesce="false"
       step="1" />
    <inkscape:path-effect
       effect="powerstroke"
       id="path-effect138"
       is_visible="true"
       lpeversion="1"
       offset_points="2.6880907,0.075169555"
       not_jump="true"
       sort_points="true"
       interpolator_type="CentripetalCatmullRom"
       interpolator_beta="0.75"
       start_linecap_type="round"
       linejoin_type="spiro"
       miter_limit="4"
       scale_width="1"
       end_linecap_type="round" />
    <inkscape:path-effect
       effect="simplify"
       id="path-effect136"
       is_visible="true"
       lpeversion="1"
       steps="1"
       threshold="0.0028332064"
       smooth_angles="0"
       helper_size="0"
       simplify_individual_paths="false"
       simplify_just_coalesce="false"
       step="1" />
    <inkscape:path-effect
       effect="powerstroke"
       id="path-effect131"
       is_visible="true"
       lpeversion="1"
       offset_points="1.9940581,0.075169555"
       not_jump="true"
       sort_points="true"
       interpolator_type="CentripetalCatmullRom"
       interpolator_beta="0.75"
       start_linecap_type="round"
       linejoin_type="spiro"
       miter_limit="4"
       scale_width="1"
       end_linecap_type="round" />
    <inkscape:path-effect
       effect="simplify"
       id="path-effect129"
       is_visible="true"
       lpeversion="1"
       steps="1"
       threshold="0.0028332064"
       smooth_angles="0"
       helper_size="0"
       simplify_individual_paths="false"
       simplify_just_coalesce="false"
       step="1" />
  </defs>
  <sodipodi:namedview
     id="base"
     pagecolor="#ffffff"
     bordercolor="#666666"
     borderopacity="1.0"
     inkscape:pageopacity="0.0"
     inkscape:pageshadow="2"
     inkscape:zoom="7.919596"
     inkscape:cx="-5.3033008"
     inkscape:cy="20.834396"
     inkscape:document-units="mm"
     inkscape:current-layer="layer1"
     showgrid="false"
     fit-margin-top="0"
     fit-margin-left="0"
     fit-margin-right="0"
     fit-margin-bottom="0"
     inkscape:window-width="1920"
     inkscape:window-height="974"
     inkscape:window-x="-11"
     inkscape:window-y="2869"
     inkscape:window-maximized="1"
     showguides="true"
     inkscape:guide-bbox="true"
     inkscape:snap-bbox="true"
     inkscape:bbox-nodes="true"
     inkscape:snap-nodes="false"
     inkscape:snap-others="false"
     inkscape:snap-page="true"
     inkscape:snap-grids="false"
     inkscape:snap-to-guides="false"
     inkscape:snap-global="false"
     inkscape:pagecheckerboard="0"
     inkscape:showpageshadow="2"
     inkscape:deskcolor="#d1d1d1">
    <sodipodi:guide
       position="-6.1806075,9.4988692"
       orientation="0,1"
       id="guide816"
       inkscape:locked="false" />
    <sodipodi:guide
       position="-4.4101636,10.646923"
       orientation="0,1"
       id="guide818"
       inkscape:locked="false" />
    <sodipodi:guide
       position="2.7595724,11.09577"
       orientation="1,0"
       id="guide820"
       inkscape:locked="false" />
    <sodipodi:guide
       position="3.6572659,10.942217"
       orientation="1,0"
       id="guide822"
       inkscape:locked="false" />
    <sodipodi:guide
       position="-0.051625511,9.7492299"
       orientation="1,0"
       id="guide1853"
       inkscape:locked="false" />
    <sodipodi:guide
       position="-2.3720169,3.0175835"
       orientation="0,1"
       id="guide1855"
       inkscape:locked="false" />
  </sodipodi:namedview>
  <metadata
     id="metadata1678">
    <rdf:RDF>
      <cc:Work
         rdf:about="">
        <dc:format>image/svg+xml</dc:format>
        <dc:type
           rdf:resource="http://purl.org/dc/dcmitype/StillImage" />
      </cc:Work>
    </rdf:RDF>
  </metadata>
  <g
     inkscape:label="Layer 1"
     inkscape:groupmode="layer"
     id="layer1"
     transform="translate(17.028496,-147.22856)">
    <path
       d="m -15.316104,153.38179 c 0.08214,-0.26837 0.187118,-0.51519 0.406638,-0.96756 0.133112,-0.27431 0.313115,-0.6347 0.435294,-0.9946 0.002,-0.004 0.0099,-0.0175 0.02059,-0.0302 0.01037,-0.0123 0.0221,-0.0225 0.03386,-0.0298 0.01164,-0.007 0.02176,-0.0105 0.02958,-0.0116 0.0067,-9e-4 0.0122,-2.4e-4 0.01757,0.002 -0.0093,-0.003 -0.0077,9.4e-4 -0.0066,0.01 0.0011,0.009 0.0014,0.0203 -1.71e-4,0.0347 -0.0015,0.0138 -0.0045,0.0283 -0.0086,0.0418 -0.0022,0.007 -0.004,0.0149 -0.0044,0.0226 -3.21e-4,0.008 5.04e-4,0.0154 0.0013,0.023 0.03543,0.36098 0.04599,0.7112 0.06428,1.09755 0.01712,0.36161 0.04073,0.74058 0.103252,1.11747 0.0014,0.009 0.0031,0.0172 0.0062,0.0253 0.003,0.008 0.0072,0.0158 0.0115,0.0234 0.01227,0.0218 0.02864,0.0442 0.05072,0.0635 0.0225,0.0196 0.05059,0.0356 0.08373,0.0435 0.03306,0.008 0.06517,0.006 0.09366,-0.002 0.02768,-0.007 0.05084,-0.0199 0.06918,-0.0331 0.01834,-0.0131 0.03364,-0.0281 0.04615,-0.043 0.01256,-0.0149 0.02328,-0.031 0.03219,-0.0472 0.01396,-0.0256 0.02547,-0.0555 0.03123,-0.0879 0.02308,-0.0791 0.03652,-0.16123 0.04883,-0.2265 0.01376,-0.0729 0.027,-0.13089 0.04873,-0.18288 0.0028,-0.007 0.005,-0.0138 0.0068,-0.0209 0.0072,-0.0283 0.01425,-0.0566 0.0212,-0.0847 0.03893,-0.15765 0.07962,-0.33229 0.129778,-0.49377 0.05445,-0.17531 0.123078,-0.34647 0.224944,-0.50038 0.01447,-0.018 0.02645,-0.036 0.03474,-0.0484 0.01088,-0.0163 0.0166,-0.0249 0.02231,-0.0322 0.0052,-0.007 0.0056,-0.006 0.0016,-0.003 -0.0054,0.004 -0.01425,0.008 -0.02471,0.01 l 0.02639,-0.006 c 0.0071,-0.002 0.01432,-0.003 0.02232,-0.003 0.0083,6.2e-4 0.0183,0.003 0.02931,0.008 0.02364,0.0103 0.04698,0.0295 0.06363,0.053 0.05446,0.0739 0.09348,0.15576 0.129095,0.24485 0.0384,0.0961 0.07216,0.19822 0.111944,0.29633 0.102808,0.30239 0.176608,0.60969 0.257608,0.88488 0.114548,0.38917 0.22356,0.66031 0.362637,0.90227 a 0.16107599,0.16107599 90 0 0 0.2793,-0.16054 c -0.122268,-0.21271 -0.222429,-0.45845 -0.332079,-0.83273 -0.078,-0.26624 -0.15125,-0.57544 -0.263625,-0.90669 -0.03735,-0.0939 -0.07003,-0.19432 -0.113282,-0.30374 -0.0392,-0.0992 -0.09,-0.21101 -0.166215,-0.31499 -0.04552,-0.0654 -0.114286,-0.12584 -0.197293,-0.16242 -0.04115,-0.0181 -0.08676,-0.0308 -0.13535,-0.0346 -0.04479,-0.004 -0.09128,4.7e-4 -0.137558,0.0139 -0.04025,0.008 -0.07467,0.0249 -0.103268,0.0455 -0.03077,0.0221 -0.0532,0.0475 -0.06894,0.0678 -0.01537,0.0198 -0.02888,0.0408 -0.03693,0.0531 -0.01015,0.0155 -0.0145,0.0217 -0.01832,0.0265 -0.0037,0.005 -0.0073,0.009 -0.01058,0.0141 -0.128436,0.19252 -0.208965,0.39946 -0.268159,0.59289 -0.05323,0.17393 -0.09588,0.36153 -0.132268,0.51328 -0.0059,0.0248 -0.01189,0.0494 -0.0179,0.0739 -0.0308,0.0824 -0.04571,0.16502 -0.05709,0.23715 -0.01255,0.0796 -0.02039,0.14201 -0.03651,0.20412 -0.0013,0.005 -0.0025,0.0103 -0.0032,0.0155 -7.82e-4,0.005 -0.0014,0.0105 -0.0022,0.0157 0.0013,-0.009 0.0027,-0.007 0.0037,-0.008 0.0038,-0.003 0.0075,-0.006 0.01267,-0.01 0.0054,-0.004 0.01501,-0.009 0.02871,-0.0124 0.01449,-0.004 0.03228,-0.005 0.05104,-9e-5 0.01877,0.005 0.03257,0.0135 0.04115,0.0213 0.0083,0.008 0.01069,0.0129 0.0104,0.0132 -0.0016,0.002 -0.0033,0.004 -0.0044,0.006 -0.0011,0.002 -0.0017,0.005 -0.0016,0.007 1.31e-4,0.002 9.76e-4,0.005 0.0023,0.007 0.0013,0.002 0.0031,0.004 0.0049,0.005 0.0038,0.003 0.008,0.006 0.0111,0.01 0.0015,0.002 0.0028,0.004 0.0036,0.006 8.53e-4,0.002 0.0013,0.005 0.0017,0.007 -0.06282,-0.35866 -0.08923,-0.72319 -0.109532,-1.0833 -0.02107,-0.37392 -0.03509,-0.72879 -0.073,-1.09198 0.0033,-0.0204 0.0055,-0.0417 0.0063,-0.0634 0.0011,-0.0324 -9.91e-4,-0.0673 -0.0087,-0.10213 -0.0081,-0.0363 -0.02265,-0.0741 -0.04749,-0.10854 -0.01287,-0.0178 -0.02814,-0.0343 -0.04593,-0.0487 -0.01826,-0.0148 -0.03837,-0.0269 -0.05995,-0.0362 -0.01453,-0.005 -0.0198,-0.007 -0.02509,-0.009 -0.0439,-0.0124 -0.08782,-0.0139 -0.129493,-0.007 -0.04592,0.008 -0.08731,0.0253 -0.123141,0.048 -0.03599,0.0227 -0.06717,0.0511 -0.09278,0.0816 -0.02639,0.0315 -0.04786,0.0665 -0.06315,0.10288 -0.11928,0.34976 -0.291285,0.69347 -0.427522,0.97309 -0.221948,0.45554 -0.334678,0.71698 -0.422466,1.00381 a 0.12754682,0.12754682 90 0 0 0.243924,0.0747 z"
       id="path-1"
       inkscape:path-effect="#path-effect1996;#path-effect1998"
       inkscape:original-d="m -15.438066,153.34446 c 0.205286,-0.67329 0.602228,-1.26801 0.831571,-1.93116 0.07937,-0.25462 0.423469,-0.27864 0.349753,0.0542 0.07513,0.73349 0.05185,1.47586 0.176013,2.20445 0.155153,0.19413 0.157498,-0.36567 0.225048,-0.48163 0.111073,-0.44092 0.19589,-0.92355 0.496949,-1.27887 0.364393,-0.15592 0.488627,0.39289 0.592428,0.63479 0.210802,0.60209 0.302542,1.25036 0.62417,1.80991"
       style="fill:#000000;fill-rule:nonzero;stroke:none;stroke-width:1.54309" />
  </g>
</svg>
