<?xml version="1.0" encoding="UTF-8" standalone="no"?>
<!-- Created with Inkscape (http://www.inkscape.org/) -->

<svg
   width="6mm"
   height="10mm"
   viewBox="0 0 6.0000001 9.9999994"
   version="1.1"
   id="svg1681"
   inkscape:version="1.2.1 (9c6d41e410, 2022-07-14)"
   sodipodi:docname="lower d 1.2.svg"
   inkscape:export-filename="..\..\..\..\Downloads\lower a diff canvas resize 3.0.png"
   inkscape:export-xdpi="96"
   inkscape:export-ydpi="96"
   xmlns:inkscape="http://www.inkscape.org/namespaces/inkscape"
   xmlns:sodipodi="http://sodipodi.sourceforge.net/DTD/sodipodi-0.dtd"
   xmlns="http://www.w3.org/2000/svg"
   xmlns:svg="http://www.w3.org/2000/svg"
   xmlns:rdf="http://www.w3.org/1999/02/22-rdf-syntax-ns#"
   xmlns:cc="http://creativecommons.org/ns#"
   xmlns:dc="http://purl.org/dc/elements/1.1/">
  <defs
     id="defs1675">
    <inkscape:path-effect
       effect="powerstroke"
       id="path-effect2978"
       is_visible="true"
       lpeversion="1"
       offset_points="1.1557936,0.094944056 | 4.2637601,0.14665826 | 6.8353709,0.10443847 | 9.5338971,0.13756788"
       not_jump="true"
       sort_points="true"
       interpolator_type="CentripetalCatmullRom"
       interpolator_beta="0.75"
       start_linecap_type="round"
       linejoin_type="spiro"
       miter_limit="4"
       scale_width="1"
       end_linecap_type="round" />
    <inkscape:path-effect
       effect="simplify"
       id="path-effect2976"
       is_visible="true"
       lpeversion="1"
       steps="1"
       threshold="0.0035951417"
       smooth_angles="0"
       helper_size="0"
       simplify_individual_paths="false"
       simplify_just_coalesce="false"
       step="1" />
    <inkscape:path-effect
       effect="powerstroke"
       id="path-effect2971"
       is_visible="true"
       lpeversion="1"
       offset_points="3.4722083,0.10732216 | 4.8138493,0.12024192 | 9.0414046,0.10247724"
       not_jump="true"
       sort_points="true"
       interpolator_type="CentripetalCatmullRom"
       interpolator_beta="0.75"
       start_linecap_type="round"
       linejoin_type="spiro"
       miter_limit="4"
       scale_width="1"
       end_linecap_type="round" />
    <inkscape:path-effect
       effect="simplify"
       id="path-effect2969"
       is_visible="true"
       lpeversion="1"
       steps="1"
       threshold="0.0035951417"
       smooth_angles="0"
       helper_size="0"
       simplify_individual_paths="false"
       simplify_just_coalesce="false"
       step="1" />
    <inkscape:path-effect
       effect="powerstroke"
       id="path-effect502"
       is_visible="true"
       lpeversion="1"
       offset_points="3.0091841,0.21607495 | 7.3602657,0.17554228 | 9.4159651,0.20236537"
       not_jump="true"
       sort_points="true"
       interpolator_type="CentripetalCatmullRom"
       interpolator_beta="0.75"
       start_linecap_type="round"
       linejoin_type="spiro"
       miter_limit="4"
       scale_width="1"
       end_linecap_type="round" />
    <inkscape:path-effect
       effect="simplify"
       id="path-effect500"
       is_visible="true"
       lpeversion="1"
       steps="1"
       threshold="0.0035951417"
       smooth_angles="0"
       helper_size="0"
       simplify_individual_paths="false"
       simplify_just_coalesce="false"
       step="1" />
    <inkscape:path-effect
       effect="powerstroke"
       id="path-effect241"
       is_visible="true"
       lpeversion="1"
       offset_points="2.6879454,0.34086734"
       not_jump="true"
       sort_points="true"
       interpolator_type="CentripetalCatmullRom"
       interpolator_beta="0.75"
       start_linecap_type="round"
       linejoin_type="spiro"
       miter_limit="4"
       scale_width="1"
       end_linecap_type="round" />
    <inkscape:path-effect
       effect="simplify"
       id="path-effect239"
       is_visible="true"
       lpeversion="1"
       steps="1"
       threshold="0.0028332064"
       smooth_angles="0"
       helper_size="0"
       simplify_individual_paths="false"
       simplify_just_coalesce="false"
       step="1" />
    <inkscape:path-effect
       effect="powerstroke"
       id="path-effect234"
       is_visible="true"
       lpeversion="1"
       offset_points="2.13563,0.075169555"
       not_jump="true"
       sort_points="true"
       interpolator_type="CentripetalCatmullRom"
       interpolator_beta="0.75"
       start_linecap_type="round"
       linejoin_type="spiro"
       miter_limit="4"
       scale_width="1"
       end_linecap_type="round" />
    <inkscape:path-effect
       effect="simplify"
       id="path-effect232"
       is_visible="true"
       lpeversion="1"
       steps="1"
       threshold="0.0028332064"
       smooth_angles="0"
       helper_size="0"
       simplify_individual_paths="false"
       simplify_just_coalesce="false"
       step="1" />
    <inkscape:path-effect
       effect="powerstroke"
       id="path-effect227"
       is_visible="true"
       lpeversion="1"
       offset_points="2.1868266,0.075169555"
       not_jump="true"
       sort_points="true"
       interpolator_type="CentripetalCatmullRom"
       interpolator_beta="0.75"
       start_linecap_type="round"
       linejoin_type="spiro"
       miter_limit="4"
       scale_width="1"
       end_linecap_type="round" />
    <inkscape:path-effect
       effect="simplify"
       id="path-effect225"
       is_visible="true"
       lpeversion="1"
       steps="1"
       threshold="0.0028332064"
       smooth_angles="0"
       helper_size="0"
       simplify_individual_paths="false"
       simplify_just_coalesce="false"
       step="1" />
    <inkscape:path-effect
       effect="powerstroke"
       id="path-effect166"
       is_visible="true"
       lpeversion="1"
       offset_points="1.9637935,0.075169555"
       not_jump="true"
       sort_points="true"
       interpolator_type="CentripetalCatmullRom"
       interpolator_beta="0.75"
       start_linecap_type="round"
       linejoin_type="spiro"
       miter_limit="4"
       scale_width="1"
       end_linecap_type="round" />
    <inkscape:path-effect
       effect="simplify"
       id="path-effect164"
       is_visible="true"
       lpeversion="1"
       steps="1"
       threshold="0.0028332064"
       smooth_angles="0"
       helper_size="0"
       simplify_individual_paths="false"
       simplify_just_coalesce="false"
       step="1" />
    <inkscape:path-effect
       effect="powerstroke"
       id="path-effect159"
       is_visible="true"
       lpeversion="1"
       offset_points="2.2611036,0.075169555"
       not_jump="true"
       sort_points="true"
       interpolator_type="CentripetalCatmullRom"
       interpolator_beta="0.75"
       start_linecap_type="round"
       linejoin_type="spiro"
       miter_limit="4"
       scale_width="1"
       end_linecap_type="round" />
    <inkscape:path-effect
       effect="simplify"
       id="path-effect157"
       is_visible="true"
       lpeversion="1"
       steps="1"
       threshold="0.0028332064"
       smooth_angles="0"
       helper_size="0"
       simplify_individual_paths="false"
       simplify_just_coalesce="false"
       step="1" />
    <inkscape:path-effect
       effect="powerstroke"
       id="path-effect152"
       is_visible="true"
       lpeversion="1"
       offset_points="2.826981,0.075169555"
       not_jump="true"
       sort_points="true"
       interpolator_type="CentripetalCatmullRom"
       interpolator_beta="0.75"
       start_linecap_type="round"
       linejoin_type="spiro"
       miter_limit="4"
       scale_width="1"
       end_linecap_type="round" />
    <inkscape:path-effect
       effect="simplify"
       id="path-effect150"
       is_visible="true"
       lpeversion="1"
       steps="1"
       threshold="0.0028332064"
       smooth_angles="0"
       helper_size="0"
       simplify_individual_paths="false"
       simplify_just_coalesce="false"
       step="1" />
    <inkscape:path-effect
       effect="powerstroke"
       id="path-effect145"
       is_visible="true"
       lpeversion="1"
       offset_points="3.8374447,0.075169555"
       not_jump="true"
       sort_points="true"
       interpolator_type="CentripetalCatmullRom"
       interpolator_beta="0.75"
       start_linecap_type="round"
       linejoin_type="spiro"
       miter_limit="4"
       scale_width="1"
       end_linecap_type="round" />
    <inkscape:path-effect
       effect="simplify"
       id="path-effect143"
       is_visible="true"
       lpeversion="1"
       steps="1"
       threshold="0.0028332064"
       smooth_angles="0"
       helper_size="0"
       simplify_individual_paths="false"
       simplify_just_coalesce="false"
       step="1" />
    <inkscape:path-effect
       effect="powerstroke"
       id="path-effect138"
       is_visible="true"
       lpeversion="1"
       offset_points="2.6880907,0.075169555"
       not_jump="true"
       sort_points="true"
       interpolator_type="CentripetalCatmullRom"
       interpolator_beta="0.75"
       start_linecap_type="round"
       linejoin_type="spiro"
       miter_limit="4"
       scale_width="1"
       end_linecap_type="round" />
    <inkscape:path-effect
       effect="simplify"
       id="path-effect136"
       is_visible="true"
       lpeversion="1"
       steps="1"
       threshold="0.0028332064"
       smooth_angles="0"
       helper_size="0"
       simplify_individual_paths="false"
       simplify_just_coalesce="false"
       step="1" />
    <inkscape:path-effect
       effect="powerstroke"
       id="path-effect131"
       is_visible="true"
       lpeversion="1"
       offset_points="1.9940581,0.075169555"
       not_jump="true"
       sort_points="true"
       interpolator_type="CentripetalCatmullRom"
       interpolator_beta="0.75"
       start_linecap_type="round"
       linejoin_type="spiro"
       miter_limit="4"
       scale_width="1"
       end_linecap_type="round" />
    <inkscape:path-effect
       effect="simplify"
       id="path-effect129"
       is_visible="true"
       lpeversion="1"
       steps="1"
       threshold="0.0028332064"
       smooth_angles="0"
       helper_size="0"
       simplify_individual_paths="false"
       simplify_just_coalesce="false"
       step="1" />
  </defs>
  <sodipodi:namedview
     id="base"
     pagecolor="#ffffff"
     bordercolor="#666666"
     borderopacity="1.0"
     inkscape:pageopacity="0.0"
     inkscape:pageshadow="2"
     inkscape:zoom="7.919596"
     inkscape:cx="-5.3033008"
     inkscape:cy="20.834396"
     inkscape:document-units="mm"
     inkscape:current-layer="layer1"
     showgrid="false"
     fit-margin-top="0"
     fit-margin-left="0"
     fit-margin-right="0"
     fit-margin-bottom="0"
     inkscape:window-width="1920"
     inkscape:window-height="974"
     inkscape:window-x="-11"
     inkscape:window-y="2869"
     inkscape:window-maximized="1"
     showguides="true"
     inkscape:guide-bbox="true"
     inkscape:snap-bbox="true"
     inkscape:bbox-nodes="true"
     inkscape:snap-nodes="false"
     inkscape:snap-others="false"
     inkscape:snap-page="true"
     inkscape:snap-grids="false"
     inkscape:snap-to-guides="false"
     inkscape:snap-global="false"
     inkscape:pagecheckerboard="0"
     inkscape:showpageshadow="2"
     inkscape:deskcolor="#d1d1d1">
    <sodipodi:guide
       position="-6.1806075,9.4988692"
       orientation="0,1"
       id="guide816"
       inkscape:locked="false" />
    <sodipodi:guide
       position="-4.4101636,10.646923"
       orientation="0,1"
       id="guide818"
       inkscape:locked="false" />
    <sodipodi:guide
       position="2.7595724,11.09577"
       orientation="1,0"
       id="guide820"
       inkscape:locked="false" />
    <sodipodi:guide
       position="3.6572659,10.942217"
       orientation="1,0"
       id="guide822"
       inkscape:locked="false" />
    <sodipodi:guide
       position="-0.051625511,9.7492299"
       orientation="1,0"
       id="guide1853"
       inkscape:locked="false" />
    <sodipodi:guide
       position="-2.3720169,3.0175835"
       orientation="0,1"
       id="guide1855"
       inkscape:locked="false" />
  </sodipodi:namedview>
  <metadata
     id="metadata1678">
    <rdf:RDF>
      <cc:Work
         rdf:about="">
        <dc:format>image/svg+xml</dc:format>
        <dc:type
           rdf:resource="http://purl.org/dc/dcmitype/StillImage" />
      </cc:Work>
    </rdf:RDF>
  </metadata>
  <g
     inkscape:label="Layer 1"
     inkscape:groupmode="layer"
     id="layer1"
     transform="translate(17.028496,-147.22856)">
    <path
       d="m -12.711987,148.87355 c -0.07541,0.17063 -0.158734,0.41716 -0.206059,0.78547 -0.03287,0.25584 -0.0421,0.5111 -0.04892,0.79705 -0.0016,0.0688 -0.0033,0.13788 -0.0054,0.20678 -0.0093,0.30407 -0.02897,0.71056 -0.129757,1.09131 -0.08092,0.42196 -0.121967,0.84263 -0.153979,1.29162 -0.0024,0.0123 -0.0047,0.0288 -0.0068,0.0479 -0.0022,0.0189 -0.0041,0.0401 -0.0056,0.0598 -7.51e-4,0.01 -0.0014,0.0198 -0.0019,0.029 -4.61e-4,0.009 -8.09e-4,0.0186 -7.84e-4,0.0273 1.3e-5,0.004 1.23e-4,0.01 4.83e-4,0.0149 3.22e-4,0.005 0.001,0.0129 0.0031,0.0225 0.001,0.005 0.0029,0.0128 0.0066,0.0224 0.0019,0.005 0.0048,0.0117 0.0091,0.0193 0.0041,0.007 0.01106,0.0181 0.02178,0.0293 0.01118,0.0117 0.02824,0.0257 0.05328,0.0353 0.01272,0.005 0.02668,0.008 0.04153,0.009 0.01487,0.001 0.0292,-2.1e-4 0.04253,-0.003 0.02635,-0.006 0.04541,-0.0176 0.05822,-0.0277 0.01234,-0.01 0.02081,-0.0195 0.026,-0.0263 0.0098,-0.0127 0.01913,-0.0261 0.02419,-0.0414 0.0051,-0.0153 0.0057,-0.0316 0.0057,-0.0476 1.3e-4,-0.12281 -5.74e-4,-0.24223 -0.0049,-0.36198 -0.004,-0.11039 -0.01099,-0.2206 -0.02309,-0.3302 -0.02623,-0.23749 -0.07618,-0.47112 -0.169017,-0.69414 -0.05763,-0.13685 -0.143225,-0.26682 -0.25234,-0.37088 -0.05518,-0.0526 -0.11675,-0.099 -0.184268,-0.13629 -0.06764,-0.0374 -0.14111,-0.0656 -0.219724,-0.082 -0.05775,-0.0106 -0.127072,-0.0211 -0.197516,-0.0194 -0.03529,8.6e-4 -0.07205,0.005 -0.10917,0.0137 -0.01259,0.003 -0.02524,0.007 -0.03789,0.0109 -0.0218,0.007 -0.04361,0.0167 -0.06517,0.0285 -0.138341,0.0571 -0.256502,0.15033 -0.349899,0.26634 -0.09257,0.11497 -0.159867,0.25115 -0.197972,0.39318 -0.05803,0.2129 -0.0719,0.429 -0.06253,0.63777 0.0097,0.21626 0.04472,0.42907 0.08293,0.62129 0.03136,0.20088 0.115904,0.38522 0.2258,0.53345 0.008,0.0108 0.0161,0.0213 0.02434,0.0317 0.112287,0.14156 0.258309,0.26171 0.43087,0.34104 0.27794,0.13287 0.545693,0.13295 0.675018,0.12595 a 0.13756788,0.13756788 90 0 0 -0.01489,-0.27474 c -0.108322,0.006 -0.322153,0.001 -0.542314,-0.10313 -0.132022,-0.0605 -0.244887,-0.15154 -0.334025,-0.26122 -0.0065,-0.008 -0.01297,-0.0162 -0.01932,-0.0245 -0.08764,-0.11492 -0.157322,-0.25774 -0.187256,-0.41782 -0.04284,-0.1912 -0.0807,-0.38881 -0.09523,-0.58641 -0.01398,-0.19014 -0.0065,-0.38086 0.03902,-0.56681 0.02588,-0.1148 0.07543,-0.2245 0.145317,-0.31649 0.07125,-0.0938 0.161223,-0.16613 0.264684,-0.20848 0.0044,-0.002 0.0088,-0.004 0.01289,-0.006 0.01096,-0.006 0.02223,-0.0114 0.03381,-0.0152 0.0061,-0.002 0.01235,-0.004 0.01877,-0.005 0.01893,-0.004 0.03936,-0.005 0.06125,-0.004 0.04495,0.002 0.09328,0.0143 0.144587,0.0308 0.05499,0.0147 0.104652,0.0373 0.15041,0.0665 0.04581,0.0292 0.08803,0.0653 0.12629,0.10665 0.07609,0.0823 0.135904,0.18501 0.175418,0.29359 0.07483,0.19507 0.115315,0.40227 0.137154,0.62179 0.01008,0.10136 0.01613,0.20459 0.01994,0.31023 0.0041,0.11525 0.0055,0.2299 0.0067,0.35265 l 0.02989,-0.089 c 0.0049,-0.006 0.01318,-0.016 0.02529,-0.0255 0.01259,-0.01 0.03141,-0.0214 0.05755,-0.0273 0.01323,-0.003 0.02745,-0.004 0.04221,-0.003 0.01474,0.001 0.0286,0.004 0.04121,0.009 0.02483,0.009 0.04169,0.0234 0.05267,0.0348 0.01053,0.011 0.01724,0.0215 0.02121,0.0285 0.0041,0.007 0.0068,0.0136 0.0086,0.0181 0.0033,0.009 0.0049,0.0156 0.0056,0.019 0.0015,0.007 0.0015,0.0111 0.0014,0.0119 -8.9e-5,0.001 -3.99e-4,8.2e-4 -6.96e-4,-2.7e-4 -6.3e-4,-0.002 -0.0013,-0.008 -0.002,-0.0142 -6.37e-4,-0.007 -0.0012,-0.0144 -0.0018,-0.0229 -0.0011,-0.017 -0.002,-0.036 -0.0029,-0.0537 -8.92e-4,-0.0171 -0.0018,-0.0335 -0.003,-0.0428 0.01778,-0.44627 0.04291,-0.85715 0.106272,-1.26106 0.09242,-0.40023 0.100413,-0.83125 0.105883,-1.13163 0.0013,-0.0694 0.0023,-0.13907 0.0034,-0.20761 0.005,-0.28414 0.01429,-0.53264 0.04634,-0.77681 0.0459,-0.3497 0.126057,-0.57783 0.194528,-0.73276 a 0.09494406,0.09494406 90 0 0 -0.173682,-0.0768 z"
       id="path-1"
       inkscape:path-effect="#path-effect2976;#path-effect2978"
       inkscape:original-d="m -12.625146,148.91193 c -0.392183,0.89378 -0.138385,1.89723 -0.36256,2.82742 -0.08992,0.4177 -0.15976,1.48091 -0.136709,1.49382 0.0017,-0.68694 -0.0267,-1.90305 -0.953325,-1.90598 -0.768276,0.21563 -0.710332,1.17463 -0.570215,1.79536 0.09448,0.62503 0.613845,0.99803 1.227307,0.96556"
       style="fill:#000000;fill-rule:nonzero;stroke:none;stroke-width:1.37593" />
  </g>
</svg>
