<?xml version="1.0" encoding="UTF-8" standalone="no"?>
<!-- Created with Inkscape (http://www.inkscape.org/) -->

<svg
   width="6mm"
   height="10mm"
   viewBox="0 0 6.0000001 9.9999994"
   version="1.1"
   id="svg1681"
   inkscape:version="1.2.1 (9c6d41e410, 2022-07-14)"
   sodipodi:docname="number two 1.2.svg"
   inkscape:export-filename="..\..\..\..\Downloads\lower a diff canvas resize 3.0.png"
   inkscape:export-xdpi="96"
   inkscape:export-ydpi="96"
   xmlns:inkscape="http://www.inkscape.org/namespaces/inkscape"
   xmlns:sodipodi="http://sodipodi.sourceforge.net/DTD/sodipodi-0.dtd"
   xmlns="http://www.w3.org/2000/svg"
   xmlns:svg="http://www.w3.org/2000/svg"
   xmlns:rdf="http://www.w3.org/1999/02/22-rdf-syntax-ns#"
   xmlns:cc="http://creativecommons.org/ns#"
   xmlns:dc="http://purl.org/dc/elements/1.1/">
  <defs
     id="defs1675">
    <inkscape:path-effect
       effect="powerstroke"
       id="path-effect1384"
       is_visible="true"
       lpeversion="1"
       offset_points="1.992769,0.083635913 | 6.3226466,0.098422372 | 7.2925502,0.074702427"
       not_jump="true"
       sort_points="true"
       interpolator_type="CentripetalCatmullRom"
       interpolator_beta="0.75"
       start_linecap_type="round"
       linejoin_type="spiro"
       miter_limit="4"
       scale_width="1"
       end_linecap_type="round" />
    <inkscape:path-effect
       effect="simplify"
       id="path-effect1382"
       is_visible="true"
       lpeversion="1"
       steps="1"
       threshold="0.0035951417"
       smooth_angles="0"
       helper_size="0"
       simplify_individual_paths="false"
       simplify_just_coalesce="false"
       step="1" />
    <inkscape:path-effect
       effect="powerstroke"
       id="path-effect1377"
       is_visible="true"
       lpeversion="1"
       offset_points="1.2286678,0.077812233"
       not_jump="true"
       sort_points="true"
       interpolator_type="CentripetalCatmullRom"
       interpolator_beta="0.75"
       start_linecap_type="round"
       linejoin_type="spiro"
       miter_limit="4"
       scale_width="1"
       end_linecap_type="round" />
    <inkscape:path-effect
       effect="simplify"
       id="path-effect1375"
       is_visible="true"
       lpeversion="1"
       steps="1"
       threshold="0.0035951417"
       smooth_angles="0"
       helper_size="0"
       simplify_individual_paths="false"
       simplify_just_coalesce="false"
       step="1" />
    <inkscape:path-effect
       effect="powerstroke"
       id="path-effect502"
       is_visible="true"
       lpeversion="1"
       offset_points="3.0091841,0.21607495 | 7.3602657,0.17554228 | 9.4159651,0.20236537"
       not_jump="true"
       sort_points="true"
       interpolator_type="CentripetalCatmullRom"
       interpolator_beta="0.75"
       start_linecap_type="round"
       linejoin_type="spiro"
       miter_limit="4"
       scale_width="1"
       end_linecap_type="round" />
    <inkscape:path-effect
       effect="simplify"
       id="path-effect500"
       is_visible="true"
       lpeversion="1"
       steps="1"
       threshold="0.0035951417"
       smooth_angles="0"
       helper_size="0"
       simplify_individual_paths="false"
       simplify_just_coalesce="false"
       step="1" />
    <inkscape:path-effect
       effect="powerstroke"
       id="path-effect241"
       is_visible="true"
       lpeversion="1"
       offset_points="2.6879454,0.34086734"
       not_jump="true"
       sort_points="true"
       interpolator_type="CentripetalCatmullRom"
       interpolator_beta="0.75"
       start_linecap_type="round"
       linejoin_type="spiro"
       miter_limit="4"
       scale_width="1"
       end_linecap_type="round" />
    <inkscape:path-effect
       effect="simplify"
       id="path-effect239"
       is_visible="true"
       lpeversion="1"
       steps="1"
       threshold="0.0028332064"
       smooth_angles="0"
       helper_size="0"
       simplify_individual_paths="false"
       simplify_just_coalesce="false"
       step="1" />
    <inkscape:path-effect
       effect="powerstroke"
       id="path-effect234"
       is_visible="true"
       lpeversion="1"
       offset_points="2.13563,0.075169555"
       not_jump="true"
       sort_points="true"
       interpolator_type="CentripetalCatmullRom"
       interpolator_beta="0.75"
       start_linecap_type="round"
       linejoin_type="spiro"
       miter_limit="4"
       scale_width="1"
       end_linecap_type="round" />
    <inkscape:path-effect
       effect="simplify"
       id="path-effect232"
       is_visible="true"
       lpeversion="1"
       steps="1"
       threshold="0.0028332064"
       smooth_angles="0"
       helper_size="0"
       simplify_individual_paths="false"
       simplify_just_coalesce="false"
       step="1" />
    <inkscape:path-effect
       effect="powerstroke"
       id="path-effect227"
       is_visible="true"
       lpeversion="1"
       offset_points="2.1868266,0.075169555"
       not_jump="true"
       sort_points="true"
       interpolator_type="CentripetalCatmullRom"
       interpolator_beta="0.75"
       start_linecap_type="round"
       linejoin_type="spiro"
       miter_limit="4"
       scale_width="1"
       end_linecap_type="round" />
    <inkscape:path-effect
       effect="simplify"
       id="path-effect225"
       is_visible="true"
       lpeversion="1"
       steps="1"
       threshold="0.0028332064"
       smooth_angles="0"
       helper_size="0"
       simplify_individual_paths="false"
       simplify_just_coalesce="false"
       step="1" />
    <inkscape:path-effect
       effect="powerstroke"
       id="path-effect166"
       is_visible="true"
       lpeversion="1"
       offset_points="1.9637935,0.075169555"
       not_jump="true"
       sort_points="true"
       interpolator_type="CentripetalCatmullRom"
       interpolator_beta="0.75"
       start_linecap_type="round"
       linejoin_type="spiro"
       miter_limit="4"
       scale_width="1"
       end_linecap_type="round" />
    <inkscape:path-effect
       effect="simplify"
       id="path-effect164"
       is_visible="true"
       lpeversion="1"
       steps="1"
       threshold="0.0028332064"
       smooth_angles="0"
       helper_size="0"
       simplify_individual_paths="false"
       simplify_just_coalesce="false"
       step="1" />
    <inkscape:path-effect
       effect="powerstroke"
       id="path-effect159"
       is_visible="true"
       lpeversion="1"
       offset_points="2.2611036,0.075169555"
       not_jump="true"
       sort_points="true"
       interpolator_type="CentripetalCatmullRom"
       interpolator_beta="0.75"
       start_linecap_type="round"
       linejoin_type="spiro"
       miter_limit="4"
       scale_width="1"
       end_linecap_type="round" />
    <inkscape:path-effect
       effect="simplify"
       id="path-effect157"
       is_visible="true"
       lpeversion="1"
       steps="1"
       threshold="0.0028332064"
       smooth_angles="0"
       helper_size="0"
       simplify_individual_paths="false"
       simplify_just_coalesce="false"
       step="1" />
    <inkscape:path-effect
       effect="powerstroke"
       id="path-effect152"
       is_visible="true"
       lpeversion="1"
       offset_points="2.826981,0.075169555"
       not_jump="true"
       sort_points="true"
       interpolator_type="CentripetalCatmullRom"
       interpolator_beta="0.75"
       start_linecap_type="round"
       linejoin_type="spiro"
       miter_limit="4"
       scale_width="1"
       end_linecap_type="round" />
    <inkscape:path-effect
       effect="simplify"
       id="path-effect150"
       is_visible="true"
       lpeversion="1"
       steps="1"
       threshold="0.0028332064"
       smooth_angles="0"
       helper_size="0"
       simplify_individual_paths="false"
       simplify_just_coalesce="false"
       step="1" />
    <inkscape:path-effect
       effect="powerstroke"
       id="path-effect145"
       is_visible="true"
       lpeversion="1"
       offset_points="3.8374447,0.075169555"
       not_jump="true"
       sort_points="true"
       interpolator_type="CentripetalCatmullRom"
       interpolator_beta="0.75"
       start_linecap_type="round"
       linejoin_type="spiro"
       miter_limit="4"
       scale_width="1"
       end_linecap_type="round" />
    <inkscape:path-effect
       effect="simplify"
       id="path-effect143"
       is_visible="true"
       lpeversion="1"
       steps="1"
       threshold="0.0028332064"
       smooth_angles="0"
       helper_size="0"
       simplify_individual_paths="false"
       simplify_just_coalesce="false"
       step="1" />
    <inkscape:path-effect
       effect="powerstroke"
       id="path-effect138"
       is_visible="true"
       lpeversion="1"
       offset_points="2.6880907,0.075169555"
       not_jump="true"
       sort_points="true"
       interpolator_type="CentripetalCatmullRom"
       interpolator_beta="0.75"
       start_linecap_type="round"
       linejoin_type="spiro"
       miter_limit="4"
       scale_width="1"
       end_linecap_type="round" />
    <inkscape:path-effect
       effect="simplify"
       id="path-effect136"
       is_visible="true"
       lpeversion="1"
       steps="1"
       threshold="0.0028332064"
       smooth_angles="0"
       helper_size="0"
       simplify_individual_paths="false"
       simplify_just_coalesce="false"
       step="1" />
    <inkscape:path-effect
       effect="powerstroke"
       id="path-effect131"
       is_visible="true"
       lpeversion="1"
       offset_points="1.9940581,0.075169555"
       not_jump="true"
       sort_points="true"
       interpolator_type="CentripetalCatmullRom"
       interpolator_beta="0.75"
       start_linecap_type="round"
       linejoin_type="spiro"
       miter_limit="4"
       scale_width="1"
       end_linecap_type="round" />
    <inkscape:path-effect
       effect="simplify"
       id="path-effect129"
       is_visible="true"
       lpeversion="1"
       steps="1"
       threshold="0.0028332064"
       smooth_angles="0"
       helper_size="0"
       simplify_individual_paths="false"
       simplify_just_coalesce="false"
       step="1" />
  </defs>
  <sodipodi:namedview
     id="base"
     pagecolor="#ffffff"
     bordercolor="#666666"
     borderopacity="1.0"
     inkscape:pageopacity="0.0"
     inkscape:pageshadow="2"
     inkscape:zoom="7.919596"
     inkscape:cx="-5.3033008"
     inkscape:cy="20.834396"
     inkscape:document-units="mm"
     inkscape:current-layer="layer1"
     showgrid="false"
     fit-margin-top="0"
     fit-margin-left="0"
     fit-margin-right="0"
     fit-margin-bottom="0"
     inkscape:window-width="1920"
     inkscape:window-height="974"
     inkscape:window-x="-11"
     inkscape:window-y="2869"
     inkscape:window-maximized="1"
     showguides="true"
     inkscape:guide-bbox="true"
     inkscape:snap-bbox="true"
     inkscape:bbox-nodes="true"
     inkscape:snap-nodes="false"
     inkscape:snap-others="false"
     inkscape:snap-page="true"
     inkscape:snap-grids="false"
     inkscape:snap-to-guides="false"
     inkscape:snap-global="false"
     inkscape:pagecheckerboard="0"
     inkscape:showpageshadow="2"
     inkscape:deskcolor="#d1d1d1">
    <sodipodi:guide
       position="-6.1806075,9.4988692"
       orientation="0,1"
       id="guide816"
       inkscape:locked="false" />
    <sodipodi:guide
       position="-4.4101636,10.646923"
       orientation="0,1"
       id="guide818"
       inkscape:locked="false" />
    <sodipodi:guide
       position="2.7595724,11.09577"
       orientation="1,0"
       id="guide820"
       inkscape:locked="false" />
    <sodipodi:guide
       position="3.6572659,10.942217"
       orientation="1,0"
       id="guide822"
       inkscape:locked="false" />
    <sodipodi:guide
       position="-0.051625511,9.7492299"
       orientation="1,0"
       id="guide1853"
       inkscape:locked="false" />
    <sodipodi:guide
       position="-2.3720169,3.0175835"
       orientation="0,1"
       id="guide1855"
       inkscape:locked="false" />
  </sodipodi:namedview>
  <metadata
     id="metadata1678">
    <rdf:RDF>
      <cc:Work
         rdf:about="">
        <dc:format>image/svg+xml</dc:format>
        <dc:type
           rdf:resource="http://purl.org/dc/dcmitype/StillImage" />
      </cc:Work>
    </rdf:RDF>
  </metadata>
  <g
     inkscape:label="Layer 1"
     inkscape:groupmode="layer"
     id="layer1"
     transform="translate(17.028496,-147.22856)">
    <path
       d="m -14.709347,150.87648 c -0.01815,-0.0547 -0.0358,-0.13799 -0.02509,-0.25016 0.0075,-0.079 0.02862,-0.16561 0.06568,-0.25443 0.01006,-0.0229 0.02306,-0.0481 0.03835,-0.0719 0.01487,-0.0231 0.03135,-0.044 0.04915,-0.0612 0.01755,-0.0169 0.03545,-0.0293 0.05343,-0.0371 0.01717,-0.007 0.03515,-0.0112 0.05476,-0.0104 0.01797,0.002 0.03956,0.008 0.06133,0.0191 0.01996,0.01 0.04003,0.0233 0.05982,0.0409 0.03665,0.0325 0.06993,0.0768 0.0963,0.12754 0.105684,0.17965 0.176171,0.37364 0.235252,0.58581 0.05675,0.2038 0.101181,0.41914 0.156835,0.63296 0.06574,0.34047 0.113689,0.68886 0.124778,1.03445 0.01145,0.35698 -0.01682,0.70038 -0.09715,1.0289 -0.01682,0.0797 -0.03994,0.14857 -0.0716,0.20546 -0.01702,0.0306 -0.03572,0.0563 -0.05585,0.0777 -0.02193,0.0232 -0.04547,0.0411 -0.07049,0.0547 -0.02841,0.0153 -0.05714,0.0225 -0.08407,0.0252 -0.0089,8.7e-4 -0.01773,0.001 -0.02637,0.001 -0.02428,-8e-5 -0.04735,-0.003 -0.06778,-0.008 -0.07095,-0.0154 -0.139547,-0.0509 -0.189097,-0.0939 -0.02657,-0.0224 -0.05666,-0.0523 -0.08545,-0.0934 -0.01529,-0.0218 -0.0309,-0.0477 -0.04508,-0.0775 -0.02688,-0.0565 -0.04865,-0.12762 -0.05165,-0.20793 -1.94e-4,-0.005 -5.08e-4,-0.0104 -0.0018,-0.0155 -0.0013,-0.005 -0.0035,-0.01 -0.0059,-0.0144 -0.03358,-0.0651 -0.05426,-0.1395 -0.05963,-0.21927 -0.0051,-0.075 0.0036,-0.15366 0.02689,-0.23007 0.0223,-0.0731 0.05779,-0.14312 0.106051,-0.20376 0.04672,-0.0587 0.105156,-0.10826 0.17444,-0.14278 0.06715,-0.0341 0.143802,-0.0461 0.221189,-0.0379 0.07745,0.008 0.153468,0.0363 0.217961,0.0789 0.173584,0.092 0.311317,0.21824 0.424726,0.36055 0.121549,0.15253 0.215362,0.32372 0.287793,0.48623 0.129093,0.28555 0.285,0.77601 0.320477,0.87896 a 0.07470243,0.07470243 90 0 0 0.141254,-0.0487 c -0.03383,-0.0982 -0.192798,-0.59303 -0.328944,-0.89026 -0.07624,-0.16922 -0.176624,-0.35151 -0.308594,-0.51585 -0.123415,-0.15368 -0.276048,-0.29366 -0.465094,-0.39267 -0.07722,-0.0506 -0.174703,-0.0861 -0.275196,-0.0963 -0.101352,-0.0103 -0.204921,0.005 -0.298082,0.0529 -0.08839,0.0441 -0.162369,0.10734 -0.220498,0.18037 -0.05992,0.0753 -0.103232,0.1611 -0.130352,0.2495 -0.02837,0.0925 -0.03916,0.18797 -0.03326,0.27987 0.0059,0.0922 0.02855,0.18031 0.06655,0.25978 0.0047,0.0957 0.02933,0.18 0.05925,0.24833 0.01661,0.0379 0.03491,0.0711 0.05277,0.0996 0.03335,0.0531 0.06853,0.0953 0.0979,0.12645 0.05863,0.0641 0.143846,0.13078 0.251553,0.16347 0.03116,0.009 0.06889,0.0175 0.111284,0.0195 0.01514,7.3e-4 0.031,7.1e-4 0.04744,-3.1e-4 0.05001,-0.003 0.106374,-0.0156 0.163139,-0.0452 0.04549,-0.0238 0.08668,-0.0551 0.123241,-0.0938 0.03328,-0.0352 0.06164,-0.0753 0.08559,-0.11906 0.04394,-0.0803 0.07169,-0.1705 0.08889,-0.25972 0.08322,-0.34565 0.110807,-0.70749 0.09705,-1.07849 -0.0133,-0.35888 -0.06492,-0.71765 -0.135227,-1.06997 -0.05727,-0.21291 -0.103941,-0.42914 -0.164892,-0.64037 -0.06333,-0.21949 -0.140811,-0.42905 -0.257314,-0.62309 -0.03469,-0.062 -0.08182,-0.12274 -0.137941,-0.17005 -0.03066,-0.0259 -0.06365,-0.0474 -0.09872,-0.0638 -0.03852,-0.018 -0.07829,-0.0291 -0.118697,-0.0334 -0.0066,-4.7e-4 -0.0079,-5.3e-4 -0.0093,-5.7e-4 -0.04617,-0.001 -0.08902,0.008 -0.127791,0.0251 -0.03938,0.0175 -0.07316,0.0424 -0.10173,0.0701 -0.02889,0.028 -0.05315,0.0595 -0.07327,0.0908 -0.02079,0.0324 -0.03778,0.0655 -0.05132,0.0962 -0.0438,0.10466 -0.06943,0.20738 -0.07888,0.30383 -0.01356,0.13837 0.0078,0.24523 0.03221,0.31891 a 0.08363591,0.08363591 90 0 0 0.158762,-0.0527 z"
       id="path-1"
       inkscape:path-effect="#path-effect1382;#path-effect1384"
       inkscape:original-d="m -14.788728,150.90282 c -0.128209,-0.34001 0.143674,-1.10611 0.550447,-0.65889 0.270745,0.38918 0.34629,0.87874 0.465591,1.32961 0.145198,0.73609 0.209533,1.52005 -0.0036,2.2479 -0.219834,0.58465 -0.861063,0.22712 -0.877347,-0.27452 -0.252278,-0.50847 0.236824,-1.18802 0.788236,-0.84598 0.639037,0.34119 0.845791,1.12659 1.064892,1.76054"
       style="fill:#000000;fill-rule:nonzero;stroke:none;stroke-width:1.04911" />
  </g>
</svg>
