<?xml version="1.0" encoding="UTF-8" standalone="no"?>
<!-- Created with Inkscape (http://www.inkscape.org/) -->

<svg
   width="6mm"
   height="10mm"
   viewBox="0 0 6.0000001 9.9999994"
   version="1.1"
   id="svg1681"
   inkscape:version="1.2.1 (9c6d41e410, 2022-07-14)"
   sodipodi:docname="number two 1.5.svg"
   inkscape:export-filename="..\..\..\..\Downloads\lower a diff canvas resize 3.0.png"
   inkscape:export-xdpi="96"
   inkscape:export-ydpi="96"
   xmlns:inkscape="http://www.inkscape.org/namespaces/inkscape"
   xmlns:sodipodi="http://sodipodi.sourceforge.net/DTD/sodipodi-0.dtd"
   xmlns="http://www.w3.org/2000/svg"
   xmlns:svg="http://www.w3.org/2000/svg"
   xmlns:rdf="http://www.w3.org/1999/02/22-rdf-syntax-ns#"
   xmlns:cc="http://creativecommons.org/ns#"
   xmlns:dc="http://purl.org/dc/elements/1.1/">
  <defs
     id="defs1675">
    <inkscape:path-effect
       effect="powerstroke"
       id="path-effect1509"
       is_visible="true"
       lpeversion="1"
       offset_points="2.2636666,0.075316369 | 6.19716,0.097925961 | 9.1141358,0.077371786 | 10.583159,0.094402388"
       not_jump="true"
       sort_points="true"
       interpolator_type="CentripetalCatmullRom"
       interpolator_beta="0.75"
       start_linecap_type="round"
       linejoin_type="spiro"
       miter_limit="4"
       scale_width="1"
       end_linecap_type="round" />
    <inkscape:path-effect
       effect="simplify"
       id="path-effect1507"
       is_visible="true"
       lpeversion="1"
       steps="1"
       threshold="0.0035951417"
       smooth_angles="0"
       helper_size="0"
       simplify_individual_paths="false"
       simplify_just_coalesce="false"
       step="1" />
    <inkscape:path-effect
       effect="powerstroke"
       id="path-effect502"
       is_visible="true"
       lpeversion="1"
       offset_points="3.0091841,0.21607495 | 7.3602657,0.17554228 | 9.4159651,0.20236537"
       not_jump="true"
       sort_points="true"
       interpolator_type="CentripetalCatmullRom"
       interpolator_beta="0.75"
       start_linecap_type="round"
       linejoin_type="spiro"
       miter_limit="4"
       scale_width="1"
       end_linecap_type="round" />
    <inkscape:path-effect
       effect="simplify"
       id="path-effect500"
       is_visible="true"
       lpeversion="1"
       steps="1"
       threshold="0.0035951417"
       smooth_angles="0"
       helper_size="0"
       simplify_individual_paths="false"
       simplify_just_coalesce="false"
       step="1" />
    <inkscape:path-effect
       effect="powerstroke"
       id="path-effect241"
       is_visible="true"
       lpeversion="1"
       offset_points="2.6879454,0.34086734"
       not_jump="true"
       sort_points="true"
       interpolator_type="CentripetalCatmullRom"
       interpolator_beta="0.75"
       start_linecap_type="round"
       linejoin_type="spiro"
       miter_limit="4"
       scale_width="1"
       end_linecap_type="round" />
    <inkscape:path-effect
       effect="simplify"
       id="path-effect239"
       is_visible="true"
       lpeversion="1"
       steps="1"
       threshold="0.0028332064"
       smooth_angles="0"
       helper_size="0"
       simplify_individual_paths="false"
       simplify_just_coalesce="false"
       step="1" />
    <inkscape:path-effect
       effect="powerstroke"
       id="path-effect234"
       is_visible="true"
       lpeversion="1"
       offset_points="2.13563,0.075169555"
       not_jump="true"
       sort_points="true"
       interpolator_type="CentripetalCatmullRom"
       interpolator_beta="0.75"
       start_linecap_type="round"
       linejoin_type="spiro"
       miter_limit="4"
       scale_width="1"
       end_linecap_type="round" />
    <inkscape:path-effect
       effect="simplify"
       id="path-effect232"
       is_visible="true"
       lpeversion="1"
       steps="1"
       threshold="0.0028332064"
       smooth_angles="0"
       helper_size="0"
       simplify_individual_paths="false"
       simplify_just_coalesce="false"
       step="1" />
    <inkscape:path-effect
       effect="powerstroke"
       id="path-effect227"
       is_visible="true"
       lpeversion="1"
       offset_points="2.1868266,0.075169555"
       not_jump="true"
       sort_points="true"
       interpolator_type="CentripetalCatmullRom"
       interpolator_beta="0.75"
       start_linecap_type="round"
       linejoin_type="spiro"
       miter_limit="4"
       scale_width="1"
       end_linecap_type="round" />
    <inkscape:path-effect
       effect="simplify"
       id="path-effect225"
       is_visible="true"
       lpeversion="1"
       steps="1"
       threshold="0.0028332064"
       smooth_angles="0"
       helper_size="0"
       simplify_individual_paths="false"
       simplify_just_coalesce="false"
       step="1" />
    <inkscape:path-effect
       effect="powerstroke"
       id="path-effect166"
       is_visible="true"
       lpeversion="1"
       offset_points="1.9637935,0.075169555"
       not_jump="true"
       sort_points="true"
       interpolator_type="CentripetalCatmullRom"
       interpolator_beta="0.75"
       start_linecap_type="round"
       linejoin_type="spiro"
       miter_limit="4"
       scale_width="1"
       end_linecap_type="round" />
    <inkscape:path-effect
       effect="simplify"
       id="path-effect164"
       is_visible="true"
       lpeversion="1"
       steps="1"
       threshold="0.0028332064"
       smooth_angles="0"
       helper_size="0"
       simplify_individual_paths="false"
       simplify_just_coalesce="false"
       step="1" />
    <inkscape:path-effect
       effect="powerstroke"
       id="path-effect159"
       is_visible="true"
       lpeversion="1"
       offset_points="2.2611036,0.075169555"
       not_jump="true"
       sort_points="true"
       interpolator_type="CentripetalCatmullRom"
       interpolator_beta="0.75"
       start_linecap_type="round"
       linejoin_type="spiro"
       miter_limit="4"
       scale_width="1"
       end_linecap_type="round" />
    <inkscape:path-effect
       effect="simplify"
       id="path-effect157"
       is_visible="true"
       lpeversion="1"
       steps="1"
       threshold="0.0028332064"
       smooth_angles="0"
       helper_size="0"
       simplify_individual_paths="false"
       simplify_just_coalesce="false"
       step="1" />
    <inkscape:path-effect
       effect="powerstroke"
       id="path-effect152"
       is_visible="true"
       lpeversion="1"
       offset_points="2.826981,0.075169555"
       not_jump="true"
       sort_points="true"
       interpolator_type="CentripetalCatmullRom"
       interpolator_beta="0.75"
       start_linecap_type="round"
       linejoin_type="spiro"
       miter_limit="4"
       scale_width="1"
       end_linecap_type="round" />
    <inkscape:path-effect
       effect="simplify"
       id="path-effect150"
       is_visible="true"
       lpeversion="1"
       steps="1"
       threshold="0.0028332064"
       smooth_angles="0"
       helper_size="0"
       simplify_individual_paths="false"
       simplify_just_coalesce="false"
       step="1" />
    <inkscape:path-effect
       effect="powerstroke"
       id="path-effect145"
       is_visible="true"
       lpeversion="1"
       offset_points="3.8374447,0.075169555"
       not_jump="true"
       sort_points="true"
       interpolator_type="CentripetalCatmullRom"
       interpolator_beta="0.75"
       start_linecap_type="round"
       linejoin_type="spiro"
       miter_limit="4"
       scale_width="1"
       end_linecap_type="round" />
    <inkscape:path-effect
       effect="simplify"
       id="path-effect143"
       is_visible="true"
       lpeversion="1"
       steps="1"
       threshold="0.0028332064"
       smooth_angles="0"
       helper_size="0"
       simplify_individual_paths="false"
       simplify_just_coalesce="false"
       step="1" />
    <inkscape:path-effect
       effect="powerstroke"
       id="path-effect138"
       is_visible="true"
       lpeversion="1"
       offset_points="2.6880907,0.075169555"
       not_jump="true"
       sort_points="true"
       interpolator_type="CentripetalCatmullRom"
       interpolator_beta="0.75"
       start_linecap_type="round"
       linejoin_type="spiro"
       miter_limit="4"
       scale_width="1"
       end_linecap_type="round" />
    <inkscape:path-effect
       effect="simplify"
       id="path-effect136"
       is_visible="true"
       lpeversion="1"
       steps="1"
       threshold="0.0028332064"
       smooth_angles="0"
       helper_size="0"
       simplify_individual_paths="false"
       simplify_just_coalesce="false"
       step="1" />
    <inkscape:path-effect
       effect="powerstroke"
       id="path-effect131"
       is_visible="true"
       lpeversion="1"
       offset_points="1.9940581,0.075169555"
       not_jump="true"
       sort_points="true"
       interpolator_type="CentripetalCatmullRom"
       interpolator_beta="0.75"
       start_linecap_type="round"
       linejoin_type="spiro"
       miter_limit="4"
       scale_width="1"
       end_linecap_type="round" />
    <inkscape:path-effect
       effect="simplify"
       id="path-effect129"
       is_visible="true"
       lpeversion="1"
       steps="1"
       threshold="0.0028332064"
       smooth_angles="0"
       helper_size="0"
       simplify_individual_paths="false"
       simplify_just_coalesce="false"
       step="1" />
  </defs>
  <sodipodi:namedview
     id="base"
     pagecolor="#ffffff"
     bordercolor="#666666"
     borderopacity="1.0"
     inkscape:pageopacity="0.0"
     inkscape:pageshadow="2"
     inkscape:zoom="7.919596"
     inkscape:cx="-5.3033008"
     inkscape:cy="20.834396"
     inkscape:document-units="mm"
     inkscape:current-layer="layer1"
     showgrid="false"
     fit-margin-top="0"
     fit-margin-left="0"
     fit-margin-right="0"
     fit-margin-bottom="0"
     inkscape:window-width="1920"
     inkscape:window-height="974"
     inkscape:window-x="-11"
     inkscape:window-y="2869"
     inkscape:window-maximized="1"
     showguides="true"
     inkscape:guide-bbox="true"
     inkscape:snap-bbox="true"
     inkscape:bbox-nodes="true"
     inkscape:snap-nodes="false"
     inkscape:snap-others="false"
     inkscape:snap-page="true"
     inkscape:snap-grids="false"
     inkscape:snap-to-guides="false"
     inkscape:snap-global="false"
     inkscape:pagecheckerboard="0"
     inkscape:showpageshadow="2"
     inkscape:deskcolor="#d1d1d1">
    <sodipodi:guide
       position="-6.1806075,9.4988692"
       orientation="0,1"
       id="guide816"
       inkscape:locked="false" />
    <sodipodi:guide
       position="-4.4101636,10.646923"
       orientation="0,1"
       id="guide818"
       inkscape:locked="false" />
    <sodipodi:guide
       position="2.7595724,11.09577"
       orientation="1,0"
       id="guide820"
       inkscape:locked="false" />
    <sodipodi:guide
       position="3.6572659,10.942217"
       orientation="1,0"
       id="guide822"
       inkscape:locked="false" />
    <sodipodi:guide
       position="-0.051625511,9.7492299"
       orientation="1,0"
       id="guide1853"
       inkscape:locked="false" />
    <sodipodi:guide
       position="-2.3720169,3.0175835"
       orientation="0,1"
       id="guide1855"
       inkscape:locked="false" />
  </sodipodi:namedview>
  <metadata
     id="metadata1678">
    <rdf:RDF>
      <cc:Work
         rdf:about="">
        <dc:format>image/svg+xml</dc:format>
        <dc:type
           rdf:resource="http://purl.org/dc/dcmitype/StillImage" />
      </cc:Work>
    </rdf:RDF>
  </metadata>
  <g
     inkscape:label="Layer 1"
     inkscape:groupmode="layer"
     id="layer1"
     transform="translate(17.028496,-147.22856)">
    <path
       d="m -14.677964,150.16508 c 0.01432,-0.0211 0.03564,-0.0453 0.06753,-0.0665 0.024,-0.016 0.05371,-0.03 0.08912,-0.0389 0.059,-0.015 0.131255,-0.0149 0.199969,0.0108 0.05607,0.0179 0.106148,0.0463 0.152195,0.0854 0.04469,0.038 0.08353,0.0845 0.115274,0.13548 0.09472,0.12361 0.170467,0.24844 0.233994,0.37695 0.05646,0.11422 0.105395,0.23571 0.147225,0.36429 0.08343,0.25643 0.135955,0.53276 0.166339,0.82288 0.02359,0.22978 0.03504,0.47064 0.02273,0.71534 -0.0056,0.207 -0.01604,0.41384 -0.04995,0.61373 -0.03402,0.20058 -0.09095,0.38968 -0.186765,0.56138 -0.01798,0.0306 -0.03631,0.061 -0.05592,0.09 -0.01987,0.0294 -0.04002,0.0557 -0.06122,0.0783 -0.02159,0.023 -0.04335,0.0413 -0.06572,0.0549 -0.02272,0.0138 -0.04649,0.0232 -0.07231,0.0278 -0.03071,0.005 -0.0615,0.005 -0.09138,8e-4 -0.0082,-0.001 -0.01632,-0.003 -0.02447,-0.005 -0.03855,-0.009 -0.07681,-0.0252 -0.113438,-0.0478 -0.07414,-0.0458 -0.137552,-0.11523 -0.178434,-0.1908 -0.02149,-0.0361 -0.0348,-0.0751 -0.04561,-0.12083 -0.01102,-0.0466 -0.01884,-0.0984 -0.03,-0.15127 -0.0061,-0.0518 -0.0022,-0.10897 0.01027,-0.1639 0.01289,-0.0568 0.03497,-0.11114 0.06387,-0.16152 0.06191,-0.10794 0.152996,-0.19434 0.250216,-0.25073 0.01715,-0.0102 0.03362,-0.0191 0.05019,-0.0272 0.146844,-0.0715 0.302158,-0.0809 0.427856,-0.0651 0.05211,0.008 0.106028,0.0244 0.159527,0.0481 0.04977,0.022 0.09991,0.0507 0.151678,0.0864 0.01608,0.0111 0.0323,0.0229 0.04872,0.0353 0.07575,0.0575 0.14714,0.12307 0.233477,0.20658 0.113335,0.11396 0.236602,0.22991 0.366059,0.34253 0.112829,0.10672 0.217637,0.20214 0.332282,0.28732 0.162618,0.12082 0.29595,0.18284 0.40328,0.21955 a 0.09440239,0.09440239 90 0 0 0.06111,-0.17864 c -0.08892,-0.0304 -0.204644,-0.0839 -0.350716,-0.19332 -0.10484,-0.0785 -0.202435,-0.16775 -0.316968,-0.2766 -0.129,-0.11346 -0.247324,-0.22533 -0.360853,-0.33776 -0.08925,-0.0855 -0.168642,-0.1576 -0.254698,-0.22093 -0.01887,-0.0139 -0.03776,-0.0271 -0.05674,-0.0397 -0.06112,-0.0404 -0.122808,-0.0736 -0.186039,-0.099 -0.06819,-0.0274 -0.138347,-0.0458 -0.210862,-0.0538 -0.154048,-0.0102 -0.340104,0.013 -0.515517,0.10024 -0.02012,0.01 -0.04021,0.0209 -0.06016,0.0328 -0.117548,0.068 -0.229878,0.17162 -0.308829,0.3034 -0.03708,0.0619 -0.06692,0.13034 -0.08545,0.20373 -0.01797,0.0712 -0.02533,0.14717 -0.01798,0.22572 0.0075,0.0526 0.0116,0.10531 0.02111,0.16241 0.0091,0.0547 0.02389,0.11568 0.05511,0.17502 0.05181,0.10257 0.136196,0.19997 0.24063,0.26647 0.05235,0.0333 0.110262,0.0592 0.17228,0.0739 0.01312,0.003 0.02642,0.006 0.03987,0.008 0.04948,0.008 0.101731,0.008 0.155356,-0.002 0.05224,-0.01 0.09872,-0.0289 0.140375,-0.055 0.04025,-0.0253 0.07496,-0.0564 0.105253,-0.09 0.0296,-0.0328 0.0553,-0.0684 0.07808,-0.10384 0.02241,-0.0348 0.0424,-0.0702 0.06051,-0.10316 0.107704,-0.19753 0.167595,-0.409 0.201439,-0.62386 0.0336,-0.21336 0.04158,-0.43074 0.04456,-0.63771 0.0073,-0.25412 -0.01023,-0.50333 -0.03865,-0.73787 -0.03355,-0.29778 -0.08979,-0.58462 -0.178698,-0.85307 -0.04461,-0.13469 -0.09677,-0.26272 -0.157101,-0.38374 -0.06788,-0.13615 -0.149037,-0.26926 -0.246515,-0.39538 -0.03528,-0.0562 -0.08397,-0.1144 -0.14159,-0.16325 -0.05959,-0.0505 -0.126569,-0.0892 -0.199398,-0.11263 -0.09605,-0.0364 -0.199483,-0.037 -0.28525,-0.0156 -0.05215,0.013 -0.09753,0.0337 -0.135537,0.0588 -0.0508,0.0334 -0.08566,0.0724 -0.109248,0.1071 a 0.07531637,0.07531637 90 0 0 0.12454,0.0847 z"
       id="path-1"
       inkscape:path-effect="#path-effect1507;#path-effect1509"
       inkscape:original-d="m -14.740234,150.12271 c 0.191151,-0.26062 0.580107,-0.14407 0.728058,0.10143 0.464737,0.5833 0.587718,1.36134 0.618652,2.08642 -0.007,0.55394 0.0017,1.17475 -0.346529,1.63812 -0.270193,0.35613 -0.763088,0.0188 -0.783047,-0.35089 -0.116624,-0.43214 0.266353,-0.83194 0.68331,-0.86713 0.504381,-0.0811 0.819889,0.412 1.164435,0.69074 0.220661,0.20973 0.450551,0.42841 0.744539,0.52909"
       style="fill:#000000;fill-rule:nonzero;stroke:none" />
  </g>
</svg>
