<?xml version="1.0" encoding="UTF-8" standalone="no"?>
<!-- Created with Inkscape (http://www.inkscape.org/) -->

<svg
   width="6mm"
   height="10mm"
   viewBox="0 0 6.0000001 9.9999994"
   version="1.1"
   id="svg1681"
   inkscape:version="1.2.1 (9c6d41e410, 2022-07-14)"
   sodipodi:docname="number two 1.3.svg"
   inkscape:export-filename="..\..\..\..\Downloads\lower a diff canvas resize 3.0.png"
   inkscape:export-xdpi="96"
   inkscape:export-ydpi="96"
   xmlns:inkscape="http://www.inkscape.org/namespaces/inkscape"
   xmlns:sodipodi="http://sodipodi.sourceforge.net/DTD/sodipodi-0.dtd"
   xmlns="http://www.w3.org/2000/svg"
   xmlns:svg="http://www.w3.org/2000/svg"
   xmlns:rdf="http://www.w3.org/1999/02/22-rdf-syntax-ns#"
   xmlns:cc="http://creativecommons.org/ns#"
   xmlns:dc="http://purl.org/dc/elements/1.1/">
  <defs
     id="defs1675">
    <inkscape:path-effect
       effect="powerstroke"
       id="path-effect1427"
       is_visible="true"
       lpeversion="1"
       offset_points="7.4098347,0.13185179 | 11.240213,0.092520992 | 12.474386,0.13278822"
       not_jump="true"
       sort_points="true"
       interpolator_type="CentripetalCatmullRom"
       interpolator_beta="0.75"
       start_linecap_type="round"
       linejoin_type="spiro"
       miter_limit="4"
       scale_width="1"
       end_linecap_type="round" />
    <inkscape:path-effect
       effect="simplify"
       id="path-effect1425"
       is_visible="true"
       lpeversion="1"
       steps="1"
       threshold="0.0035951417"
       smooth_angles="0"
       helper_size="0"
       simplify_individual_paths="false"
       simplify_just_coalesce="false"
       step="1" />
    <inkscape:path-effect
       effect="powerstroke"
       id="path-effect502"
       is_visible="true"
       lpeversion="1"
       offset_points="3.0091841,0.21607495 | 7.3602657,0.17554228 | 9.4159651,0.20236537"
       not_jump="true"
       sort_points="true"
       interpolator_type="CentripetalCatmullRom"
       interpolator_beta="0.75"
       start_linecap_type="round"
       linejoin_type="spiro"
       miter_limit="4"
       scale_width="1"
       end_linecap_type="round" />
    <inkscape:path-effect
       effect="simplify"
       id="path-effect500"
       is_visible="true"
       lpeversion="1"
       steps="1"
       threshold="0.0035951417"
       smooth_angles="0"
       helper_size="0"
       simplify_individual_paths="false"
       simplify_just_coalesce="false"
       step="1" />
    <inkscape:path-effect
       effect="powerstroke"
       id="path-effect241"
       is_visible="true"
       lpeversion="1"
       offset_points="2.6879454,0.34086734"
       not_jump="true"
       sort_points="true"
       interpolator_type="CentripetalCatmullRom"
       interpolator_beta="0.75"
       start_linecap_type="round"
       linejoin_type="spiro"
       miter_limit="4"
       scale_width="1"
       end_linecap_type="round" />
    <inkscape:path-effect
       effect="simplify"
       id="path-effect239"
       is_visible="true"
       lpeversion="1"
       steps="1"
       threshold="0.0028332064"
       smooth_angles="0"
       helper_size="0"
       simplify_individual_paths="false"
       simplify_just_coalesce="false"
       step="1" />
    <inkscape:path-effect
       effect="powerstroke"
       id="path-effect234"
       is_visible="true"
       lpeversion="1"
       offset_points="2.13563,0.075169555"
       not_jump="true"
       sort_points="true"
       interpolator_type="CentripetalCatmullRom"
       interpolator_beta="0.75"
       start_linecap_type="round"
       linejoin_type="spiro"
       miter_limit="4"
       scale_width="1"
       end_linecap_type="round" />
    <inkscape:path-effect
       effect="simplify"
       id="path-effect232"
       is_visible="true"
       lpeversion="1"
       steps="1"
       threshold="0.0028332064"
       smooth_angles="0"
       helper_size="0"
       simplify_individual_paths="false"
       simplify_just_coalesce="false"
       step="1" />
    <inkscape:path-effect
       effect="powerstroke"
       id="path-effect227"
       is_visible="true"
       lpeversion="1"
       offset_points="2.1868266,0.075169555"
       not_jump="true"
       sort_points="true"
       interpolator_type="CentripetalCatmullRom"
       interpolator_beta="0.75"
       start_linecap_type="round"
       linejoin_type="spiro"
       miter_limit="4"
       scale_width="1"
       end_linecap_type="round" />
    <inkscape:path-effect
       effect="simplify"
       id="path-effect225"
       is_visible="true"
       lpeversion="1"
       steps="1"
       threshold="0.0028332064"
       smooth_angles="0"
       helper_size="0"
       simplify_individual_paths="false"
       simplify_just_coalesce="false"
       step="1" />
    <inkscape:path-effect
       effect="powerstroke"
       id="path-effect166"
       is_visible="true"
       lpeversion="1"
       offset_points="1.9637935,0.075169555"
       not_jump="true"
       sort_points="true"
       interpolator_type="CentripetalCatmullRom"
       interpolator_beta="0.75"
       start_linecap_type="round"
       linejoin_type="spiro"
       miter_limit="4"
       scale_width="1"
       end_linecap_type="round" />
    <inkscape:path-effect
       effect="simplify"
       id="path-effect164"
       is_visible="true"
       lpeversion="1"
       steps="1"
       threshold="0.0028332064"
       smooth_angles="0"
       helper_size="0"
       simplify_individual_paths="false"
       simplify_just_coalesce="false"
       step="1" />
    <inkscape:path-effect
       effect="powerstroke"
       id="path-effect159"
       is_visible="true"
       lpeversion="1"
       offset_points="2.2611036,0.075169555"
       not_jump="true"
       sort_points="true"
       interpolator_type="CentripetalCatmullRom"
       interpolator_beta="0.75"
       start_linecap_type="round"
       linejoin_type="spiro"
       miter_limit="4"
       scale_width="1"
       end_linecap_type="round" />
    <inkscape:path-effect
       effect="simplify"
       id="path-effect157"
       is_visible="true"
       lpeversion="1"
       steps="1"
       threshold="0.0028332064"
       smooth_angles="0"
       helper_size="0"
       simplify_individual_paths="false"
       simplify_just_coalesce="false"
       step="1" />
    <inkscape:path-effect
       effect="powerstroke"
       id="path-effect152"
       is_visible="true"
       lpeversion="1"
       offset_points="2.826981,0.075169555"
       not_jump="true"
       sort_points="true"
       interpolator_type="CentripetalCatmullRom"
       interpolator_beta="0.75"
       start_linecap_type="round"
       linejoin_type="spiro"
       miter_limit="4"
       scale_width="1"
       end_linecap_type="round" />
    <inkscape:path-effect
       effect="simplify"
       id="path-effect150"
       is_visible="true"
       lpeversion="1"
       steps="1"
       threshold="0.0028332064"
       smooth_angles="0"
       helper_size="0"
       simplify_individual_paths="false"
       simplify_just_coalesce="false"
       step="1" />
    <inkscape:path-effect
       effect="powerstroke"
       id="path-effect145"
       is_visible="true"
       lpeversion="1"
       offset_points="3.8374447,0.075169555"
       not_jump="true"
       sort_points="true"
       interpolator_type="CentripetalCatmullRom"
       interpolator_beta="0.75"
       start_linecap_type="round"
       linejoin_type="spiro"
       miter_limit="4"
       scale_width="1"
       end_linecap_type="round" />
    <inkscape:path-effect
       effect="simplify"
       id="path-effect143"
       is_visible="true"
       lpeversion="1"
       steps="1"
       threshold="0.0028332064"
       smooth_angles="0"
       helper_size="0"
       simplify_individual_paths="false"
       simplify_just_coalesce="false"
       step="1" />
    <inkscape:path-effect
       effect="powerstroke"
       id="path-effect138"
       is_visible="true"
       lpeversion="1"
       offset_points="2.6880907,0.075169555"
       not_jump="true"
       sort_points="true"
       interpolator_type="CentripetalCatmullRom"
       interpolator_beta="0.75"
       start_linecap_type="round"
       linejoin_type="spiro"
       miter_limit="4"
       scale_width="1"
       end_linecap_type="round" />
    <inkscape:path-effect
       effect="simplify"
       id="path-effect136"
       is_visible="true"
       lpeversion="1"
       steps="1"
       threshold="0.0028332064"
       smooth_angles="0"
       helper_size="0"
       simplify_individual_paths="false"
       simplify_just_coalesce="false"
       step="1" />
    <inkscape:path-effect
       effect="powerstroke"
       id="path-effect131"
       is_visible="true"
       lpeversion="1"
       offset_points="1.9940581,0.075169555"
       not_jump="true"
       sort_points="true"
       interpolator_type="CentripetalCatmullRom"
       interpolator_beta="0.75"
       start_linecap_type="round"
       linejoin_type="spiro"
       miter_limit="4"
       scale_width="1"
       end_linecap_type="round" />
    <inkscape:path-effect
       effect="simplify"
       id="path-effect129"
       is_visible="true"
       lpeversion="1"
       steps="1"
       threshold="0.0028332064"
       smooth_angles="0"
       helper_size="0"
       simplify_individual_paths="false"
       simplify_just_coalesce="false"
       step="1" />
  </defs>
  <sodipodi:namedview
     id="base"
     pagecolor="#ffffff"
     bordercolor="#666666"
     borderopacity="1.0"
     inkscape:pageopacity="0.0"
     inkscape:pageshadow="2"
     inkscape:zoom="7.919596"
     inkscape:cx="-5.3033008"
     inkscape:cy="20.834396"
     inkscape:document-units="mm"
     inkscape:current-layer="layer1"
     showgrid="false"
     fit-margin-top="0"
     fit-margin-left="0"
     fit-margin-right="0"
     fit-margin-bottom="0"
     inkscape:window-width="1920"
     inkscape:window-height="974"
     inkscape:window-x="-11"
     inkscape:window-y="2869"
     inkscape:window-maximized="1"
     showguides="true"
     inkscape:guide-bbox="true"
     inkscape:snap-bbox="true"
     inkscape:bbox-nodes="true"
     inkscape:snap-nodes="false"
     inkscape:snap-others="false"
     inkscape:snap-page="true"
     inkscape:snap-grids="false"
     inkscape:snap-to-guides="false"
     inkscape:snap-global="false"
     inkscape:pagecheckerboard="0"
     inkscape:showpageshadow="2"
     inkscape:deskcolor="#d1d1d1">
    <sodipodi:guide
       position="-6.1806075,9.4988692"
       orientation="0,1"
       id="guide816"
       inkscape:locked="false" />
    <sodipodi:guide
       position="-4.4101636,10.646923"
       orientation="0,1"
       id="guide818"
       inkscape:locked="false" />
    <sodipodi:guide
       position="2.7595724,11.09577"
       orientation="1,0"
       id="guide820"
       inkscape:locked="false" />
    <sodipodi:guide
       position="3.6572659,10.942217"
       orientation="1,0"
       id="guide822"
       inkscape:locked="false" />
    <sodipodi:guide
       position="-0.051625511,9.7492299"
       orientation="1,0"
       id="guide1853"
       inkscape:locked="false" />
    <sodipodi:guide
       position="-2.3720169,3.0175835"
       orientation="0,1"
       id="guide1855"
       inkscape:locked="false" />
  </sodipodi:namedview>
  <metadata
     id="metadata1678">
    <rdf:RDF>
      <cc:Work
         rdf:about="">
        <dc:format>image/svg+xml</dc:format>
        <dc:type
           rdf:resource="http://purl.org/dc/dcmitype/StillImage" />
      </cc:Work>
    </rdf:RDF>
  </metadata>
  <g
     inkscape:label="Layer 1"
     inkscape:groupmode="layer"
     id="layer1"
     transform="translate(17.028496,-147.22856)">
    <path
       d="m -14.823844,150.90912 c -0.01632,-0.0186 -0.03105,-0.0417 -0.04194,-0.0708 -0.0091,-0.0244 -0.01565,-0.0534 -0.01781,-0.0876 -0.0037,-0.0587 0.006,-0.12906 0.03227,-0.20195 0.0383,-0.10782 0.09017,-0.22436 0.159061,-0.34189 0.01067,-0.0145 0.02286,-0.0287 0.03601,-0.0414 0.01408,-0.0136 0.02804,-0.0242 0.04102,-0.0316 0.01268,-0.007 0.02268,-0.0103 0.02996,-0.0112 0.0064,-8.6e-4 0.01231,-3.7e-4 0.01929,0.002 0.01713,0.007 0.03792,0.0195 0.05817,0.0358 0.02024,0.0164 0.03995,0.0366 0.05967,0.0609 0.04046,0.0498 0.07459,0.10816 0.114128,0.1753 0.07312,0.13435 0.139673,0.28846 0.226766,0.43885 0.151353,0.28564 0.2842,0.58153 0.380793,0.88306 0.09989,0.31182 0.158843,0.62306 0.165144,0.934 0.0101,0.21354 0.01832,0.40582 0.01305,0.59833 -0.0056,0.20523 -0.02646,0.39284 -0.07031,0.57032 -0.0062,0.0214 -0.01929,0.0459 -0.03607,0.0675 -0.01136,0.0146 -0.02439,0.0278 -0.03857,0.0394 -0.0082,0.007 -0.01685,0.013 -0.02591,0.0188 -0.05129,0.0328 -0.112261,0.0479 -0.169765,0.0418 -0.06636,-0.004 -0.126015,-0.0272 -0.175723,-0.0651 -0.05104,-0.0388 -0.08878,-0.091 -0.107144,-0.14865 -6.69e-4,-0.002 -0.0013,-0.004 -0.0019,-0.006 -6.49e-4,-0.002 -0.0014,-0.004 -0.0023,-0.006 -0.05532,-0.13024 -0.08746,-0.26901 -0.09363,-0.40446 -0.0065,-0.14305 0.01592,-0.27971 0.06725,-0.40181 0.02671,-0.0645 0.06454,-0.12317 0.10864,-0.17097 0.04739,-0.0513 0.100474,-0.0886 0.155166,-0.11191 0.05339,-0.0136 0.105974,-0.019 0.156409,-0.0186 0.06341,5.8e-4 0.123212,0.0106 0.176945,0.025 0.123235,0.033 0.231741,0.0934 0.318428,0.15363 0.107639,0.0718 0.211648,0.15528 0.331243,0.25383 1.52e-4,1.2e-4 0.01757,0.0145 0.01773,0.0146 0.09141,0.0755 0.23497,0.19712 0.356928,0.29001 0.09748,0.0791 0.160922,0.13148 0.206487,0.17517 a 0.13278822,0.13278822 90 0 0 0.183796,-0.1917 c -0.05092,-0.0488 -0.116139,-0.11246 -0.222078,-0.19787 -0.128307,-0.0976 -0.250261,-0.19976 -0.358856,-0.28372 -0.0063,-0.005 -0.01263,-0.01 -0.01887,-0.0145 -0.128509,-0.0984 -0.248638,-0.17862 -0.375929,-0.24663 -0.107393,-0.0572 -0.245172,-0.11387 -0.395814,-0.14297 -0.06626,-0.0128 -0.14132,-0.0215 -0.221346,-0.0199 -0.06608,0.001 -0.136072,0.01 -0.207831,0.0293 -0.0038,0.001 -0.0075,0.002 -0.01113,0.004 -0.08081,0.0338 -0.157291,0.0853 -0.225133,0.15359 -0.06086,0.0613 -0.114171,0.13564 -0.154789,0.21926 -0.06874,0.1507 -0.101086,0.3166 -0.09917,0.48802 0.0018,0.15914 0.03317,0.32183 0.09134,0.47571 0.02741,0.10596 0.08881,0.20041 0.172047,0.27157 0.08166,0.0698 0.186311,0.11868 0.301075,0.13044 0.113045,0.0173 0.234726,-0.01 0.335664,-0.0708 0.01815,-0.011 0.0357,-0.0231 0.0525,-0.0362 0.02901,-0.0228 0.05662,-0.0494 0.08141,-0.08 0.0367,-0.0453 0.06752,-0.0997 0.08655,-0.16246 0.05242,-0.20655 0.07579,-0.41422 0.08259,-0.63306 0.0063,-0.20394 -0.0019,-0.40584 -0.01136,-0.61519 -0.0064,-0.33817 -0.07076,-0.67582 -0.176975,-1.00815 -0.10261,-0.32104 -0.242635,-0.63221 -0.401711,-0.93231 -0.07897,-0.13673 -0.144849,-0.28829 -0.228653,-0.44117 -0.03923,-0.0664 -0.08424,-0.14384 -0.14047,-0.21251 -0.02894,-0.0353 -0.06201,-0.0699 -0.100408,-0.10062 -0.03898,-0.0312 -0.08316,-0.0582 -0.133464,-0.0779 -0.05567,-0.0195 -0.106094,-0.0229 -0.15341,-0.0158 -0.04736,0.007 -0.08939,0.0243 -0.124974,0.0449 -0.0363,0.021 -0.06783,0.0467 -0.09433,0.0727 -0.02729,0.0268 -0.05074,0.0554 -0.0701,0.0829 -0.0022,0.003 -0.0043,0.006 -0.0062,0.01 -0.07923,0.13621 -0.13822,0.27096 -0.181228,0.3946 -0.03635,0.10252 -0.05239,0.20916 -0.0457,0.30803 0.004,0.0585 0.01573,0.1131 0.03457,0.16308 0.02277,0.0604 0.05456,0.11064 0.09077,0.15191 a 0.13185179,0.13185179 90 0 0 0.198214,-0.17392 z"
       id="path-1"
       inkscape:path-effect="#path-effect1425;#path-effect1427"
       inkscape:original-d="m -14.922951,150.99608 c -0.210226,-0.2533 -0.02012,-0.59375 0.103276,-0.84197 0.320413,-0.46134 0.59996,0.14991 0.73377,0.43482 0.350585,0.62894 0.640977,1.31166 0.659548,2.04204 0.01912,0.40643 0.0371,0.82636 -0.06262,1.22281 -0.131226,0.38222 -0.676477,0.33052 -0.788556,-0.0392 -0.172381,-0.40258 -0.143258,-1.01005 0.29827,-1.22455 0.4952,-0.13377 0.925881,0.24722 1.282949,0.53672 0.140915,0.11146 0.283878,0.21991 0.413824,0.34449"
       style="fill:#000000;fill-rule:nonzero;stroke:none;stroke-width:1.27568" />
  </g>
</svg>
