<?xml version="1.0" encoding="UTF-8" standalone="no"?>
<!-- Created with Inkscape (http://www.inkscape.org/) -->

<svg
   width="2mm"
   height="10mm"
   viewBox="0 0 2.0000001 9.9999994"
   version="1.1"
   id="svg1681"
   inkscape:version="1.2.1 (9c6d41e410, 2022-07-14)"
   sodipodi:docname="hyphen_5.svg"
   inkscape:export-filename="..\..\..\..\Downloads\lower a diff canvas resize 3.0.png"
   inkscape:export-xdpi="96"
   inkscape:export-ydpi="96"
   xmlns:inkscape="http://www.inkscape.org/namespaces/inkscape"
   xmlns:sodipodi="http://sodipodi.sourceforge.net/DTD/sodipodi-0.dtd"
   xmlns="http://www.w3.org/2000/svg"
   xmlns:svg="http://www.w3.org/2000/svg"
   xmlns:rdf="http://www.w3.org/1999/02/22-rdf-syntax-ns#"
   xmlns:cc="http://creativecommons.org/ns#"
   xmlns:dc="http://purl.org/dc/elements/1.1/">
  <defs
     id="defs1675">
    <inkscape:path-effect
       effect="powerstroke"
       id="path-effect223"
       is_visible="true"
       lpeversion="1"
       offset_points="2.2877883,0.11947899 | 15.930387,0.15607155"
       not_jump="true"
       sort_points="true"
       interpolator_type="CentripetalCatmullRom"
       interpolator_beta="0.75"
       start_linecap_type="round"
       linejoin_type="spiro"
       miter_limit="4"
       scale_width="1"
       end_linecap_type="round" />
    <inkscape:path-effect
       effect="simplify"
       id="path-effect221"
       is_visible="true"
       lpeversion="1"
       steps="1"
       threshold="0.0035951417"
       smooth_angles="0"
       helper_size="0"
       simplify_individual_paths="false"
       simplify_just_coalesce="false"
       step="1" />
    <inkscape:path-effect
       effect="powerstroke"
       id="path-effect162"
       is_visible="true"
       lpeversion="1"
       offset_points="3.284651,0.12596773"
       not_jump="true"
       sort_points="true"
       interpolator_type="CentripetalCatmullRom"
       interpolator_beta="0.75"
       start_linecap_type="round"
       linejoin_type="spiro"
       miter_limit="4"
       scale_width="1"
       end_linecap_type="round" />
    <inkscape:path-effect
       effect="simplify"
       id="path-effect160"
       is_visible="true"
       lpeversion="1"
       steps="1"
       threshold="0.0035951417"
       smooth_angles="0"
       helper_size="0"
       simplify_individual_paths="false"
       simplify_just_coalesce="false"
       step="1" />
    <inkscape:path-effect
       effect="powerstroke"
       id="path-effect163"
       is_visible="true"
       lpeversion="1"
       offset_points="2.3868036,0.21301815"
       not_jump="true"
       sort_points="true"
       interpolator_type="CentripetalCatmullRom"
       interpolator_beta="0.75"
       start_linecap_type="round"
       linejoin_type="spiro"
       miter_limit="4"
       scale_width="1"
       end_linecap_type="round" />
    <inkscape:path-effect
       effect="simplify"
       id="path-effect161"
       is_visible="true"
       lpeversion="1"
       steps="1"
       threshold="0.0035951417"
       smooth_angles="0"
       helper_size="0"
       simplify_individual_paths="false"
       simplify_just_coalesce="false"
       step="1" />
    <inkscape:path-effect
       effect="powerstroke"
       id="path-effect228"
       is_visible="true"
       lpeversion="1"
       offset_points="0.31995504,0.11823712"
       not_jump="true"
       sort_points="true"
       interpolator_type="CentripetalCatmullRom"
       interpolator_beta="0.75"
       start_linecap_type="round"
       linejoin_type="spiro"
       miter_limit="4"
       scale_width="1"
       end_linecap_type="round" />
    <inkscape:path-effect
       effect="simplify"
       id="path-effect226"
       is_visible="true"
       lpeversion="1"
       steps="1"
       threshold="0.0035951417"
       smooth_angles="0"
       helper_size="0"
       simplify_individual_paths="false"
       simplify_just_coalesce="false"
       step="1" />
    <inkscape:path-effect
       effect="powerstroke"
       id="path-effect220"
       is_visible="true"
       lpeversion="1"
       offset_points="1,0.12338681"
       not_jump="true"
       sort_points="true"
       interpolator_type="CentripetalCatmullRom"
       interpolator_beta="0.75"
       start_linecap_type="round"
       linejoin_type="spiro"
       miter_limit="4"
       scale_width="1"
       end_linecap_type="round" />
    <inkscape:path-effect
       effect="simplify"
       id="path-effect218"
       is_visible="true"
       lpeversion="1"
       steps="1"
       threshold="0.0035951417"
       smooth_angles="0"
       helper_size="0"
       simplify_individual_paths="false"
       simplify_just_coalesce="false"
       step="1" />
    <inkscape:path-effect
       effect="powerstroke"
       id="path-effect213"
       is_visible="true"
       lpeversion="1"
       offset_points="0.66831593,0.092694602"
       not_jump="true"
       sort_points="true"
       interpolator_type="CentripetalCatmullRom"
       interpolator_beta="0.75"
       start_linecap_type="round"
       linejoin_type="spiro"
       miter_limit="4"
       scale_width="1"
       end_linecap_type="round" />
    <inkscape:path-effect
       effect="simplify"
       id="path-effect211"
       is_visible="true"
       lpeversion="1"
       steps="1"
       threshold="0.0035951417"
       smooth_angles="0"
       helper_size="0"
       simplify_individual_paths="false"
       simplify_just_coalesce="false"
       step="1" />
    <inkscape:path-effect
       effect="powerstroke"
       id="path-effect206"
       is_visible="true"
       lpeversion="1"
       offset_points="0.49761397,0.091664664"
       not_jump="true"
       sort_points="true"
       interpolator_type="CentripetalCatmullRom"
       interpolator_beta="0.75"
       start_linecap_type="round"
       linejoin_type="spiro"
       miter_limit="4"
       scale_width="1"
       end_linecap_type="round" />
    <inkscape:path-effect
       effect="simplify"
       id="path-effect204"
       is_visible="true"
       lpeversion="1"
       steps="1"
       threshold="0.0035951417"
       smooth_angles="0"
       helper_size="0"
       simplify_individual_paths="false"
       simplify_just_coalesce="false"
       step="1" />
    <inkscape:path-effect
       effect="powerstroke"
       id="path-effect1482"
       is_visible="true"
       lpeversion="1"
       offset_points="3.7088798,0.16303938 | 6.5700881,0.14748794 | 7.7997513,0.166551 | 18.340411,0.14548129 | 22.036374,0.17909248"
       not_jump="true"
       sort_points="true"
       interpolator_type="CentripetalCatmullRom"
       interpolator_beta="0.75"
       start_linecap_type="round"
       linejoin_type="spiro"
       miter_limit="4"
       scale_width="1"
       end_linecap_type="round" />
    <inkscape:path-effect
       effect="simplify"
       id="path-effect1480"
       is_visible="true"
       lpeversion="1"
       steps="1"
       threshold="0.0035951417"
       smooth_angles="0"
       helper_size="0"
       simplify_individual_paths="false"
       simplify_just_coalesce="false"
       step="1" />
    <inkscape:path-effect
       effect="powerstroke"
       id="path-effect502"
       is_visible="true"
       lpeversion="1"
       offset_points="3.0091841,0.21607495 | 7.3602657,0.17554228 | 9.4159651,0.20236537"
       not_jump="true"
       sort_points="true"
       interpolator_type="CentripetalCatmullRom"
       interpolator_beta="0.75"
       start_linecap_type="round"
       linejoin_type="spiro"
       miter_limit="4"
       scale_width="1"
       end_linecap_type="round" />
    <inkscape:path-effect
       effect="simplify"
       id="path-effect500"
       is_visible="true"
       lpeversion="1"
       steps="1"
       threshold="0.0035951417"
       smooth_angles="0"
       helper_size="0"
       simplify_individual_paths="false"
       simplify_just_coalesce="false"
       step="1" />
    <inkscape:path-effect
       effect="powerstroke"
       id="path-effect241"
       is_visible="true"
       lpeversion="1"
       offset_points="2.6879454,0.34086734"
       not_jump="true"
       sort_points="true"
       interpolator_type="CentripetalCatmullRom"
       interpolator_beta="0.75"
       start_linecap_type="round"
       linejoin_type="spiro"
       miter_limit="4"
       scale_width="1"
       end_linecap_type="round" />
    <inkscape:path-effect
       effect="simplify"
       id="path-effect239"
       is_visible="true"
       lpeversion="1"
       steps="1"
       threshold="0.0028332064"
       smooth_angles="0"
       helper_size="0"
       simplify_individual_paths="false"
       simplify_just_coalesce="false"
       step="1" />
    <inkscape:path-effect
       effect="powerstroke"
       id="path-effect234"
       is_visible="true"
       lpeversion="1"
       offset_points="2.13563,0.075169555"
       not_jump="true"
       sort_points="true"
       interpolator_type="CentripetalCatmullRom"
       interpolator_beta="0.75"
       start_linecap_type="round"
       linejoin_type="spiro"
       miter_limit="4"
       scale_width="1"
       end_linecap_type="round" />
    <inkscape:path-effect
       effect="simplify"
       id="path-effect232"
       is_visible="true"
       lpeversion="1"
       steps="1"
       threshold="0.0028332064"
       smooth_angles="0"
       helper_size="0"
       simplify_individual_paths="false"
       simplify_just_coalesce="false"
       step="1" />
    <inkscape:path-effect
       effect="powerstroke"
       id="path-effect227"
       is_visible="true"
       lpeversion="1"
       offset_points="2.1868266,0.075169555"
       not_jump="true"
       sort_points="true"
       interpolator_type="CentripetalCatmullRom"
       interpolator_beta="0.75"
       start_linecap_type="round"
       linejoin_type="spiro"
       miter_limit="4"
       scale_width="1"
       end_linecap_type="round" />
    <inkscape:path-effect
       effect="simplify"
       id="path-effect225"
       is_visible="true"
       lpeversion="1"
       steps="1"
       threshold="0.0028332064"
       smooth_angles="0"
       helper_size="0"
       simplify_individual_paths="false"
       simplify_just_coalesce="false"
       step="1" />
    <inkscape:path-effect
       effect="powerstroke"
       id="path-effect166"
       is_visible="true"
       lpeversion="1"
       offset_points="1.9637935,0.075169555"
       not_jump="true"
       sort_points="true"
       interpolator_type="CentripetalCatmullRom"
       interpolator_beta="0.75"
       start_linecap_type="round"
       linejoin_type="spiro"
       miter_limit="4"
       scale_width="1"
       end_linecap_type="round" />
    <inkscape:path-effect
       effect="simplify"
       id="path-effect164"
       is_visible="true"
       lpeversion="1"
       steps="1"
       threshold="0.0028332064"
       smooth_angles="0"
       helper_size="0"
       simplify_individual_paths="false"
       simplify_just_coalesce="false"
       step="1" />
    <inkscape:path-effect
       effect="powerstroke"
       id="path-effect159"
       is_visible="true"
       lpeversion="1"
       offset_points="2.2611036,0.075169555"
       not_jump="true"
       sort_points="true"
       interpolator_type="CentripetalCatmullRom"
       interpolator_beta="0.75"
       start_linecap_type="round"
       linejoin_type="spiro"
       miter_limit="4"
       scale_width="1"
       end_linecap_type="round" />
    <inkscape:path-effect
       effect="simplify"
       id="path-effect157"
       is_visible="true"
       lpeversion="1"
       steps="1"
       threshold="0.0028332064"
       smooth_angles="0"
       helper_size="0"
       simplify_individual_paths="false"
       simplify_just_coalesce="false"
       step="1" />
    <inkscape:path-effect
       effect="powerstroke"
       id="path-effect152"
       is_visible="true"
       lpeversion="1"
       offset_points="2.826981,0.075169555"
       not_jump="true"
       sort_points="true"
       interpolator_type="CentripetalCatmullRom"
       interpolator_beta="0.75"
       start_linecap_type="round"
       linejoin_type="spiro"
       miter_limit="4"
       scale_width="1"
       end_linecap_type="round" />
    <inkscape:path-effect
       effect="simplify"
       id="path-effect150"
       is_visible="true"
       lpeversion="1"
       steps="1"
       threshold="0.0028332064"
       smooth_angles="0"
       helper_size="0"
       simplify_individual_paths="false"
       simplify_just_coalesce="false"
       step="1" />
    <inkscape:path-effect
       effect="powerstroke"
       id="path-effect145"
       is_visible="true"
       lpeversion="1"
       offset_points="3.8374447,0.075169555"
       not_jump="true"
       sort_points="true"
       interpolator_type="CentripetalCatmullRom"
       interpolator_beta="0.75"
       start_linecap_type="round"
       linejoin_type="spiro"
       miter_limit="4"
       scale_width="1"
       end_linecap_type="round" />
    <inkscape:path-effect
       effect="simplify"
       id="path-effect143"
       is_visible="true"
       lpeversion="1"
       steps="1"
       threshold="0.0028332064"
       smooth_angles="0"
       helper_size="0"
       simplify_individual_paths="false"
       simplify_just_coalesce="false"
       step="1" />
    <inkscape:path-effect
       effect="powerstroke"
       id="path-effect138"
       is_visible="true"
       lpeversion="1"
       offset_points="2.6880907,0.075169555"
       not_jump="true"
       sort_points="true"
       interpolator_type="CentripetalCatmullRom"
       interpolator_beta="0.75"
       start_linecap_type="round"
       linejoin_type="spiro"
       miter_limit="4"
       scale_width="1"
       end_linecap_type="round" />
    <inkscape:path-effect
       effect="simplify"
       id="path-effect136"
       is_visible="true"
       lpeversion="1"
       steps="1"
       threshold="0.0028332064"
       smooth_angles="0"
       helper_size="0"
       simplify_individual_paths="false"
       simplify_just_coalesce="false"
       step="1" />
    <inkscape:path-effect
       effect="powerstroke"
       id="path-effect131"
       is_visible="true"
       lpeversion="1"
       offset_points="1.9940581,0.075169555"
       not_jump="true"
       sort_points="true"
       interpolator_type="CentripetalCatmullRom"
       interpolator_beta="0.75"
       start_linecap_type="round"
       linejoin_type="spiro"
       miter_limit="4"
       scale_width="1"
       end_linecap_type="round" />
    <inkscape:path-effect
       effect="simplify"
       id="path-effect129"
       is_visible="true"
       lpeversion="1"
       steps="1"
       threshold="0.0028332064"
       smooth_angles="0"
       helper_size="0"
       simplify_individual_paths="false"
       simplify_just_coalesce="false"
       step="1" />
  </defs>
  <sodipodi:namedview
     id="base"
     pagecolor="#ffffff"
     bordercolor="#666666"
     borderopacity="1.0"
     inkscape:pageopacity="0.0"
     inkscape:pageshadow="2"
     inkscape:zoom="7.919596"
     inkscape:cx="-5.3033008"
     inkscape:cy="20.834396"
     inkscape:document-units="mm"
     inkscape:current-layer="layer1"
     showgrid="false"
     fit-margin-top="0"
     fit-margin-left="0"
     fit-margin-right="0"
     fit-margin-bottom="0"
     inkscape:window-width="1920"
     inkscape:window-height="974"
     inkscape:window-x="-11"
     inkscape:window-y="2869"
     inkscape:window-maximized="1"
     showguides="true"
     inkscape:guide-bbox="true"
     inkscape:snap-bbox="true"
     inkscape:bbox-nodes="true"
     inkscape:snap-nodes="false"
     inkscape:snap-others="false"
     inkscape:snap-page="true"
     inkscape:snap-grids="false"
     inkscape:snap-to-guides="false"
     inkscape:snap-global="false"
     inkscape:pagecheckerboard="0"
     inkscape:showpageshadow="2"
     inkscape:deskcolor="#d1d1d1">
    <sodipodi:guide
       position="-6.1806076,9.4988693"
       orientation="0,1"
       id="guide816"
       inkscape:locked="false" />
    <sodipodi:guide
       position="-4.4101637,10.646923"
       orientation="0,1"
       id="guide818"
       inkscape:locked="false" />
    <sodipodi:guide
       position="2.7595724,11.09577"
       orientation="1,0"
       id="guide820"
       inkscape:locked="false" />
    <sodipodi:guide
       position="3.6572659,10.942217"
       orientation="1,0"
       id="guide822"
       inkscape:locked="false" />
    <sodipodi:guide
       position="-0.051625512,9.74923"
       orientation="1,0"
       id="guide1853"
       inkscape:locked="false" />
    <sodipodi:guide
       position="-2.3720169,3.0175835"
       orientation="0,1"
       id="guide1855"
       inkscape:locked="false" />
  </sodipodi:namedview>
  <metadata
     id="metadata1678">
    <rdf:RDF>
      <cc:Work
         rdf:about="">
        <dc:format>image/svg+xml</dc:format>
        <dc:type
           rdf:resource="http://purl.org/dc/dcmitype/StillImage" />
      </cc:Work>
    </rdf:RDF>
  </metadata>
  <g
     inkscape:label="Layer 1"
     inkscape:groupmode="layer"
     id="layer1"
     transform="translate(17.028496,-147.22856)">
    <path
       d="m -16.525202,150.70315 c 0.119156,-0.0283 0.280671,-0.0734 0.475806,-0.11531 0.134823,-0.029 0.29616,-0.0571 0.462948,-0.058 0.0548,1.8e-4 0.114864,0.002 0.171207,0.01 0.05041,0.008 0.09807,0.0207 0.140467,0.0439 0.0093,0.005 0.01787,0.0104 0.02612,0.0164 0.01751,0.0126 0.03476,0.0286 0.04807,0.0482 l 0.09145,-0.19085 c -0.241738,0.013 -0.631347,0.0246 -0.939333,0.0549 -0.07412,0.004 -0.153953,0.01 -0.230821,0.009 -0.07306,-6.7e-4 -0.143424,-0.007 -0.210381,-0.0247 l 0.05162,0.0273 c 0.009,0.008 0.01461,0.0159 0.01805,0.0234 0.0033,0.007 0.0067,0.0183 0.0059,0.0333 -4.21e-4,0.008 -0.002,0.0173 -0.0062,0.0279 -0.0042,0.0107 -0.01092,0.0218 -0.02066,0.0319 -0.0097,0.0101 -0.02089,0.0173 -0.03203,0.022 -0.01081,0.005 -0.02026,0.006 -0.02685,0.007 l 0.01414,-0.002 c 0.01958,-0.003 0.04241,-0.002 0.07611,8.7e-4 0.02782,0.003 0.07476,0.008 0.117245,0.009 0.05458,0.004 0.129808,0.009 0.204499,0.005 0.03785,-0.002 0.07746,-0.007 0.117655,-0.0154 0.04008,-0.009 0.08094,-0.0218 0.121387,-0.041 -9.98e-4,7.8e-4 0.0082,-0.003 0.01797,-0.009 0.0095,-0.006 0.02296,-0.0157 0.03554,-0.0311 0.0065,-0.008 0.01303,-0.0177 0.01852,-0.0294 0.0055,-0.0119 0.0097,-0.0252 0.01175,-0.0397 0.0042,-0.0301 -0.002,-0.0568 -0.01132,-0.0773 -0.0088,-0.0193 -0.02025,-0.0329 -0.02848,-0.0412 -0.0085,-0.009 -0.01664,-0.0148 -0.02271,-0.019 -0.0118,-0.008 -0.02298,-0.0135 -0.03014,-0.0167 -0.0078,-0.003 -0.01523,-0.006 -0.02141,-0.008 -0.0063,-0.002 -0.0124,-0.004 -0.01791,-0.006 -0.0055,-0.002 -0.01095,-0.003 -0.01606,-0.004 -0.0026,-5.9e-4 -0.0053,-0.001 -0.008,-0.002 -0.0027,-5.1e-4 -0.0059,-0.001 -0.0096,-0.002 -0.05129,-0.007 -0.100104,-0.004 -0.137384,-8.9e-4 -0.04135,0.003 -0.06733,0.006 -0.09362,0.005 -0.0053,-2.1e-4 -0.01058,1.3e-4 -0.01586,6.1e-4 -0.137618,0.0126 -0.268022,0.0459 -0.390752,0.0874 -0.122991,0.0416 -0.242167,0.0928 -0.353107,0.14085 -0.03443,0.0149 -0.06948,0.0313 -0.09491,0.0589 -0.01271,0.0138 -0.0228,0.0301 -0.02868,0.0479 -0.0059,0.0178 -0.0075,0.0371 -0.0043,0.0556 0.0031,0.0185 0.01096,0.0361 0.02235,0.0511 0.01138,0.0149 0.02623,0.0271 0.04271,0.036 0.03297,0.0179 0.07135,0.0223 0.108728,0.0257 0.03892,0.003 0.07457,-0.001 0.10615,-0.0105 0.03111,-0.009 0.05787,-0.0218 0.07945,-0.0338 0.02128,-0.0118 0.04113,-0.025 0.0556,-0.0345 0.01623,-0.0106 0.02704,-0.0176 0.03693,-0.0231 0.01191,-0.007 0.01873,-0.009 0.02423,-0.01 0.0056,-9.1e-4 0.0091,-3.6e-4 0.01122,3.4e-4 0.0021,7.1e-4 0.0043,0.001 0.0066,0.001 0.0022,0 0.0045,-1.1e-4 0.0067,0 0.05556,0.003 0.0987,0.005 0.13835,0.0131 0.01939,0.004 0.03569,0.009 0.04958,0.0142 0.0074,0.003 0.0141,0.006 0.02022,0.01 0.0018,0.002 0.0039,0.005 0.0061,0.008 0.0081,0.0106 0.02108,0.0271 0.0379,0.0432 0.01782,0.017 0.04311,0.0367 0.077,0.05 0.01747,0.007 0.03627,0.0117 0.05615,0.0138 0.01707,0.002 0.03392,0.002 0.05034,-2.7e-4 0.05661,-0.005 0.105009,-0.0213 0.139757,-0.0353 0.02883,-0.0116 0.06891,-0.0306 0.08398,-0.0373 0.0037,-0.002 0.0072,-0.003 0.0106,-0.005 0.02939,-0.0138 0.0632,-0.0265 0.102738,-0.0449 0.039,-0.0181 0.08445,-0.0425 0.126925,-0.0812 0.01641,-0.0138 0.03019,-0.0296 0.04128,-0.0466 0.01272,-0.0195 0.02156,-0.0401 0.02713,-0.0606 0.01116,-0.041 0.0097,-0.0832 -0.0018,-0.12114 -0.006,-0.0196 -0.01488,-0.039 -0.0271,-0.0572 -0.01242,-0.0185 -0.02845,-0.0359 -0.04804,-0.0505 -0.02009,-0.0149 -0.04316,-0.0263 -0.06837,-0.0331 -0.01618,-0.004 -0.03243,-0.007 -0.04845,-0.007 -0.08474,-0.0129 -0.164931,-0.008 -0.234862,0.004 -0.08133,0.0134 -0.157389,0.0368 -0.218272,0.0578 -0.02962,0.0117 -0.0508,0.0221 -0.06056,0.0267 a 0.15607155,0.15607155 90 0 0 0.134692,0.28158 c 0.0085,-0.004 0.02107,-0.01 0.03383,-0.0143 0.04794,-0.0162 0.104926,-0.033 0.160847,-0.042 0.05076,-0.008 0.09938,-0.01 0.145323,-0.002 0.01461,0.003 0.02953,0.003 0.04429,0.002 -0.01106,0.001 -0.02418,6.3e-4 -0.03822,-0.003 -0.01383,-0.004 -0.02664,-0.01 -0.03772,-0.0182 -0.01072,-0.008 -0.0191,-0.0172 -0.02526,-0.0264 -0.006,-0.009 -0.01013,-0.0181 -0.01276,-0.0267 -0.005,-0.0164 -0.0057,-0.0344 -7.12e-4,-0.0526 0.0025,-0.009 0.0066,-0.0189 0.01275,-0.0283 0.0061,-0.009 0.01398,-0.018 0.02331,-0.0252 l -0.012,0.0102 c -0.0086,0.008 -0.02231,0.0175 -0.04897,0.0301 -0.02512,0.0119 -0.05957,0.025 -0.100342,0.0449 2.94e-4,-2.2e-4 -0.0046,0.002 -0.0093,0.004 -0.02769,0.0128 -0.05247,0.0253 -0.07314,0.0341 -0.02264,0.01 -0.03754,0.0138 -0.04882,0.015 -0.0043,4.7e-4 -0.0086,9e-4 -0.01289,0.002 0.006,-8.8e-4 0.01344,-0.001 0.02183,-2.5e-4 0.0083,9.5e-4 0.01611,0.003 0.02318,0.006 0.01364,0.005 0.02073,0.0123 0.02184,0.0136 0.0013,0.001 -0.0019,-0.001 -0.0078,-0.009 -0.0032,-0.004 -0.01647,-0.0208 -0.02662,-0.0321 -0.0074,-0.008 -0.01549,-0.016 -0.02447,-0.0225 -0.03382,-0.0246 -0.06946,-0.043 -0.105517,-0.0568 -0.0351,-0.0134 -0.07025,-0.0224 -0.104131,-0.0285 -0.06326,-0.0114 -0.126434,-0.0136 -0.178295,-0.0152 -0.03893,-0.003 -0.07691,5.2e-4 -0.112464,0.01 -0.0374,0.01 -0.07225,0.0259 -0.103393,0.0461 -0.01571,0.009 -0.0347,0.0225 -0.04867,0.0322 -0.01544,0.0107 -0.02588,0.0179 -0.03594,0.0239 -0.0096,0.006 -0.0148,0.008 -0.01761,0.009 -0.0024,9.8e-4 -0.001,8.1e-4 -5.23e-4,0.001 0.02819,0.0158 0.0568,0.0312 0.08219,0.0511 0.02539,0.02 0.04746,0.0457 0.05672,0.0767 0.0046,0.0155 0.006,0.032 0.0034,0.0479 -0.0025,0.016 -0.0089,0.0313 -0.01824,0.0444 -0.0094,0.0132 -0.02161,0.0241 -0.03515,0.0329 -0.01354,0.009 -0.02832,0.0155 -0.04309,0.022 0.11127,-0.0493 0.219883,-0.0968 0.329827,-0.13498 0.106799,-0.0371 0.212526,-0.0645 0.319423,-0.0757 0.04268,-4.7e-4 0.08463,-0.006 0.113445,-0.009 0.03511,-0.004 0.05859,-0.005 0.07926,-0.003 0.0014,-5.3e-4 9.93e-4,-7.4e-4 -0.0011,-0.002 -0.001,-5.1e-4 -0.0073,-0.003 -0.01483,-0.009 -0.004,-0.003 -0.01042,-0.008 -0.01744,-0.0147 -0.0068,-0.007 -0.01716,-0.0191 -0.02529,-0.0369 -0.0087,-0.019 -0.01458,-0.0443 -0.01058,-0.0729 0.0019,-0.0137 0.0059,-0.0263 0.01109,-0.0374 0.0051,-0.011 0.01123,-0.02 0.0171,-0.0272 0.01138,-0.0139 0.02311,-0.0223 0.03028,-0.0267 0.0075,-0.005 0.01371,-0.007 0.01722,-0.009 -0.02755,0.0132 -0.04862,0.0206 -0.07161,0.026 -0.02323,0.005 -0.04825,0.009 -0.07532,0.0109 -0.05606,0.004 -0.114625,0.001 -0.180497,-0.002 -0.03567,2.9e-4 -0.06232,-0.003 -0.104687,-0.005 -0.03842,-0.002 -0.08545,-0.004 -0.135357,0.004 -0.01483,0.002 -0.03027,0.006 -0.04565,0.012 -0.01949,0.008 -0.03749,0.0201 -0.05272,0.0357 -0.01528,0.0157 -0.02612,0.0334 -0.03327,0.0512 -0.0071,0.0178 -0.01044,0.0352 -0.01142,0.051 -0.002,0.0314 0.0049,0.0601 0.01507,0.0834 0.01049,0.0241 0.02668,0.0476 0.04879,0.0667 0.0075,0.006 0.01512,0.0128 0.02382,0.0174 0.0087,0.005 0.01824,0.007 0.02781,0.01 0.09471,0.024 0.187808,0.0301 0.272523,0.0299 0.08714,-1.9e-4 0.177788,-0.007 0.251534,-0.0124 0.30626,-0.0318 0.679776,-0.0445 0.932872,-0.0592 0.02378,-0.001 0.048,-0.003 0.07005,-0.0123 0.02206,-0.009 0.04138,-0.0255 0.05175,-0.0469 0.01037,-0.0215 0.01127,-0.0469 0.0044,-0.0697 -0.0068,-0.0228 -0.02075,-0.0428 -0.03481,-0.062 -0.03399,-0.0465 -0.07368,-0.0802 -0.107784,-0.1036 -0.01646,-0.0113 -0.03311,-0.0213 -0.04958,-0.03 -0.07438,-0.0402 -0.151278,-0.0593 -0.218721,-0.0693 -0.07447,-0.011 -0.14924,-0.0123 -0.206363,-0.0126 -0.19203,10e-4 -0.371968,0.0327 -0.512648,0.0627 -0.20622,0.044 -0.365868,0.0885 -0.481049,0.11585 a 0.11947899,0.11947899 90 0 0 0.05513,0.23252 z"
       id="path-1"
       inkscape:path-effect="#path-effect221;#path-effect223"
       inkscape:original-d="m -16.552766,150.58689 c 0.378704,-0.0899 0.765122,-0.21455 1.158856,-0.16453 0.110135,0.0176 0.224305,0.062 0.291528,0.15553 -0.308765,0.0175 -0.618183,0.0249 -0.926009,0.0564 -0.163477,0.01 -0.333465,0.0254 -0.492723,-0.016 -0.09228,-0.11929 0.136385,-0.0734 0.202568,-0.074 0.141122,0.007 0.294328,0.022 0.423527,-0.0463 -0.05312,-0.0451 -0.181682,-0.0104 -0.263402,-0.0134 -0.247772,0.0222 -0.479877,0.12154 -0.705235,0.22029 0.109199,0.01 0.180337,-0.11698 0.292976,-0.1175 0.118448,0.005 0.25367,0.005 0.349026,0.0858 0.04968,0.12026 0.183371,0.0375 0.265568,0.004 0.07072,-0.0396 0.289672,-0.0979 0.208951,-0.20017 -0.135763,-0.039 -0.283448,-0.005 -0.41473,0.0377 -0.01997,0.007 -0.03964,0.0157 -0.05888,0.0249"
       style="fill:#000000;fill-rule:nonzero;stroke:none;stroke-width:1.15926" />
  </g>
</svg>
