<?xml version="1.0" encoding="UTF-8" standalone="no"?>
<!-- Created with Inkscape (http://www.inkscape.org/) -->

<svg
   width="2mm"
   height="10mm"
   viewBox="0 0 2.0000001 9.9999994"
   version="1.1"
   id="svg1681"
   inkscape:version="1.2.1 (9c6d41e410, 2022-07-14)"
   sodipodi:docname="hyphen_2.svg"
   inkscape:export-filename="..\..\..\..\Downloads\lower a diff canvas resize 3.0.png"
   inkscape:export-xdpi="96"
   inkscape:export-ydpi="96"
   xmlns:inkscape="http://www.inkscape.org/namespaces/inkscape"
   xmlns:sodipodi="http://sodipodi.sourceforge.net/DTD/sodipodi-0.dtd"
   xmlns="http://www.w3.org/2000/svg"
   xmlns:svg="http://www.w3.org/2000/svg"
   xmlns:rdf="http://www.w3.org/1999/02/22-rdf-syntax-ns#"
   xmlns:cc="http://creativecommons.org/ns#"
   xmlns:dc="http://purl.org/dc/elements/1.1/">
  <defs
     id="defs1675">
    <inkscape:path-effect
       effect="powerstroke"
       id="path-effect162"
       is_visible="true"
       lpeversion="1"
       offset_points="2.6299767,0.1105956 | 8.4635473,0.15150081"
       not_jump="true"
       sort_points="true"
       interpolator_type="CentripetalCatmullRom"
       interpolator_beta="0.75"
       start_linecap_type="round"
       linejoin_type="spiro"
       miter_limit="4"
       scale_width="1"
       end_linecap_type="round" />
    <inkscape:path-effect
       effect="simplify"
       id="path-effect160"
       is_visible="true"
       lpeversion="1"
       steps="1"
       threshold="0.0035951417"
       smooth_angles="0"
       helper_size="0"
       simplify_individual_paths="false"
       simplify_just_coalesce="false"
       step="1" />
    <inkscape:path-effect
       effect="powerstroke"
       id="path-effect163"
       is_visible="true"
       lpeversion="1"
       offset_points="2.3868036,0.21301815"
       not_jump="true"
       sort_points="true"
       interpolator_type="CentripetalCatmullRom"
       interpolator_beta="0.75"
       start_linecap_type="round"
       linejoin_type="spiro"
       miter_limit="4"
       scale_width="1"
       end_linecap_type="round" />
    <inkscape:path-effect
       effect="simplify"
       id="path-effect161"
       is_visible="true"
       lpeversion="1"
       steps="1"
       threshold="0.0035951417"
       smooth_angles="0"
       helper_size="0"
       simplify_individual_paths="false"
       simplify_just_coalesce="false"
       step="1" />
    <inkscape:path-effect
       effect="powerstroke"
       id="path-effect228"
       is_visible="true"
       lpeversion="1"
       offset_points="0.31995504,0.11823712"
       not_jump="true"
       sort_points="true"
       interpolator_type="CentripetalCatmullRom"
       interpolator_beta="0.75"
       start_linecap_type="round"
       linejoin_type="spiro"
       miter_limit="4"
       scale_width="1"
       end_linecap_type="round" />
    <inkscape:path-effect
       effect="simplify"
       id="path-effect226"
       is_visible="true"
       lpeversion="1"
       steps="1"
       threshold="0.0035951417"
       smooth_angles="0"
       helper_size="0"
       simplify_individual_paths="false"
       simplify_just_coalesce="false"
       step="1" />
    <inkscape:path-effect
       effect="powerstroke"
       id="path-effect220"
       is_visible="true"
       lpeversion="1"
       offset_points="1,0.12338681"
       not_jump="true"
       sort_points="true"
       interpolator_type="CentripetalCatmullRom"
       interpolator_beta="0.75"
       start_linecap_type="round"
       linejoin_type="spiro"
       miter_limit="4"
       scale_width="1"
       end_linecap_type="round" />
    <inkscape:path-effect
       effect="simplify"
       id="path-effect218"
       is_visible="true"
       lpeversion="1"
       steps="1"
       threshold="0.0035951417"
       smooth_angles="0"
       helper_size="0"
       simplify_individual_paths="false"
       simplify_just_coalesce="false"
       step="1" />
    <inkscape:path-effect
       effect="powerstroke"
       id="path-effect213"
       is_visible="true"
       lpeversion="1"
       offset_points="0.66831593,0.092694602"
       not_jump="true"
       sort_points="true"
       interpolator_type="CentripetalCatmullRom"
       interpolator_beta="0.75"
       start_linecap_type="round"
       linejoin_type="spiro"
       miter_limit="4"
       scale_width="1"
       end_linecap_type="round" />
    <inkscape:path-effect
       effect="simplify"
       id="path-effect211"
       is_visible="true"
       lpeversion="1"
       steps="1"
       threshold="0.0035951417"
       smooth_angles="0"
       helper_size="0"
       simplify_individual_paths="false"
       simplify_just_coalesce="false"
       step="1" />
    <inkscape:path-effect
       effect="powerstroke"
       id="path-effect206"
       is_visible="true"
       lpeversion="1"
       offset_points="0.49761397,0.091664664"
       not_jump="true"
       sort_points="true"
       interpolator_type="CentripetalCatmullRom"
       interpolator_beta="0.75"
       start_linecap_type="round"
       linejoin_type="spiro"
       miter_limit="4"
       scale_width="1"
       end_linecap_type="round" />
    <inkscape:path-effect
       effect="simplify"
       id="path-effect204"
       is_visible="true"
       lpeversion="1"
       steps="1"
       threshold="0.0035951417"
       smooth_angles="0"
       helper_size="0"
       simplify_individual_paths="false"
       simplify_just_coalesce="false"
       step="1" />
    <inkscape:path-effect
       effect="powerstroke"
       id="path-effect1482"
       is_visible="true"
       lpeversion="1"
       offset_points="3.7088798,0.16303938 | 6.5700881,0.14748794 | 7.7997513,0.166551 | 18.340411,0.14548129 | 22.036374,0.17909248"
       not_jump="true"
       sort_points="true"
       interpolator_type="CentripetalCatmullRom"
       interpolator_beta="0.75"
       start_linecap_type="round"
       linejoin_type="spiro"
       miter_limit="4"
       scale_width="1"
       end_linecap_type="round" />
    <inkscape:path-effect
       effect="simplify"
       id="path-effect1480"
       is_visible="true"
       lpeversion="1"
       steps="1"
       threshold="0.0035951417"
       smooth_angles="0"
       helper_size="0"
       simplify_individual_paths="false"
       simplify_just_coalesce="false"
       step="1" />
    <inkscape:path-effect
       effect="powerstroke"
       id="path-effect502"
       is_visible="true"
       lpeversion="1"
       offset_points="3.0091841,0.21607495 | 7.3602657,0.17554228 | 9.4159651,0.20236537"
       not_jump="true"
       sort_points="true"
       interpolator_type="CentripetalCatmullRom"
       interpolator_beta="0.75"
       start_linecap_type="round"
       linejoin_type="spiro"
       miter_limit="4"
       scale_width="1"
       end_linecap_type="round" />
    <inkscape:path-effect
       effect="simplify"
       id="path-effect500"
       is_visible="true"
       lpeversion="1"
       steps="1"
       threshold="0.0035951417"
       smooth_angles="0"
       helper_size="0"
       simplify_individual_paths="false"
       simplify_just_coalesce="false"
       step="1" />
    <inkscape:path-effect
       effect="powerstroke"
       id="path-effect241"
       is_visible="true"
       lpeversion="1"
       offset_points="2.6879454,0.34086734"
       not_jump="true"
       sort_points="true"
       interpolator_type="CentripetalCatmullRom"
       interpolator_beta="0.75"
       start_linecap_type="round"
       linejoin_type="spiro"
       miter_limit="4"
       scale_width="1"
       end_linecap_type="round" />
    <inkscape:path-effect
       effect="simplify"
       id="path-effect239"
       is_visible="true"
       lpeversion="1"
       steps="1"
       threshold="0.0028332064"
       smooth_angles="0"
       helper_size="0"
       simplify_individual_paths="false"
       simplify_just_coalesce="false"
       step="1" />
    <inkscape:path-effect
       effect="powerstroke"
       id="path-effect234"
       is_visible="true"
       lpeversion="1"
       offset_points="2.13563,0.075169555"
       not_jump="true"
       sort_points="true"
       interpolator_type="CentripetalCatmullRom"
       interpolator_beta="0.75"
       start_linecap_type="round"
       linejoin_type="spiro"
       miter_limit="4"
       scale_width="1"
       end_linecap_type="round" />
    <inkscape:path-effect
       effect="simplify"
       id="path-effect232"
       is_visible="true"
       lpeversion="1"
       steps="1"
       threshold="0.0028332064"
       smooth_angles="0"
       helper_size="0"
       simplify_individual_paths="false"
       simplify_just_coalesce="false"
       step="1" />
    <inkscape:path-effect
       effect="powerstroke"
       id="path-effect227"
       is_visible="true"
       lpeversion="1"
       offset_points="2.1868266,0.075169555"
       not_jump="true"
       sort_points="true"
       interpolator_type="CentripetalCatmullRom"
       interpolator_beta="0.75"
       start_linecap_type="round"
       linejoin_type="spiro"
       miter_limit="4"
       scale_width="1"
       end_linecap_type="round" />
    <inkscape:path-effect
       effect="simplify"
       id="path-effect225"
       is_visible="true"
       lpeversion="1"
       steps="1"
       threshold="0.0028332064"
       smooth_angles="0"
       helper_size="0"
       simplify_individual_paths="false"
       simplify_just_coalesce="false"
       step="1" />
    <inkscape:path-effect
       effect="powerstroke"
       id="path-effect166"
       is_visible="true"
       lpeversion="1"
       offset_points="1.9637935,0.075169555"
       not_jump="true"
       sort_points="true"
       interpolator_type="CentripetalCatmullRom"
       interpolator_beta="0.75"
       start_linecap_type="round"
       linejoin_type="spiro"
       miter_limit="4"
       scale_width="1"
       end_linecap_type="round" />
    <inkscape:path-effect
       effect="simplify"
       id="path-effect164"
       is_visible="true"
       lpeversion="1"
       steps="1"
       threshold="0.0028332064"
       smooth_angles="0"
       helper_size="0"
       simplify_individual_paths="false"
       simplify_just_coalesce="false"
       step="1" />
    <inkscape:path-effect
       effect="powerstroke"
       id="path-effect159"
       is_visible="true"
       lpeversion="1"
       offset_points="2.2611036,0.075169555"
       not_jump="true"
       sort_points="true"
       interpolator_type="CentripetalCatmullRom"
       interpolator_beta="0.75"
       start_linecap_type="round"
       linejoin_type="spiro"
       miter_limit="4"
       scale_width="1"
       end_linecap_type="round" />
    <inkscape:path-effect
       effect="simplify"
       id="path-effect157"
       is_visible="true"
       lpeversion="1"
       steps="1"
       threshold="0.0028332064"
       smooth_angles="0"
       helper_size="0"
       simplify_individual_paths="false"
       simplify_just_coalesce="false"
       step="1" />
    <inkscape:path-effect
       effect="powerstroke"
       id="path-effect152"
       is_visible="true"
       lpeversion="1"
       offset_points="2.826981,0.075169555"
       not_jump="true"
       sort_points="true"
       interpolator_type="CentripetalCatmullRom"
       interpolator_beta="0.75"
       start_linecap_type="round"
       linejoin_type="spiro"
       miter_limit="4"
       scale_width="1"
       end_linecap_type="round" />
    <inkscape:path-effect
       effect="simplify"
       id="path-effect150"
       is_visible="true"
       lpeversion="1"
       steps="1"
       threshold="0.0028332064"
       smooth_angles="0"
       helper_size="0"
       simplify_individual_paths="false"
       simplify_just_coalesce="false"
       step="1" />
    <inkscape:path-effect
       effect="powerstroke"
       id="path-effect145"
       is_visible="true"
       lpeversion="1"
       offset_points="3.8374447,0.075169555"
       not_jump="true"
       sort_points="true"
       interpolator_type="CentripetalCatmullRom"
       interpolator_beta="0.75"
       start_linecap_type="round"
       linejoin_type="spiro"
       miter_limit="4"
       scale_width="1"
       end_linecap_type="round" />
    <inkscape:path-effect
       effect="simplify"
       id="path-effect143"
       is_visible="true"
       lpeversion="1"
       steps="1"
       threshold="0.0028332064"
       smooth_angles="0"
       helper_size="0"
       simplify_individual_paths="false"
       simplify_just_coalesce="false"
       step="1" />
    <inkscape:path-effect
       effect="powerstroke"
       id="path-effect138"
       is_visible="true"
       lpeversion="1"
       offset_points="2.6880907,0.075169555"
       not_jump="true"
       sort_points="true"
       interpolator_type="CentripetalCatmullRom"
       interpolator_beta="0.75"
       start_linecap_type="round"
       linejoin_type="spiro"
       miter_limit="4"
       scale_width="1"
       end_linecap_type="round" />
    <inkscape:path-effect
       effect="simplify"
       id="path-effect136"
       is_visible="true"
       lpeversion="1"
       steps="1"
       threshold="0.0028332064"
       smooth_angles="0"
       helper_size="0"
       simplify_individual_paths="false"
       simplify_just_coalesce="false"
       step="1" />
    <inkscape:path-effect
       effect="powerstroke"
       id="path-effect131"
       is_visible="true"
       lpeversion="1"
       offset_points="1.9940581,0.075169555"
       not_jump="true"
       sort_points="true"
       interpolator_type="CentripetalCatmullRom"
       interpolator_beta="0.75"
       start_linecap_type="round"
       linejoin_type="spiro"
       miter_limit="4"
       scale_width="1"
       end_linecap_type="round" />
    <inkscape:path-effect
       effect="simplify"
       id="path-effect129"
       is_visible="true"
       lpeversion="1"
       steps="1"
       threshold="0.0028332064"
       smooth_angles="0"
       helper_size="0"
       simplify_individual_paths="false"
       simplify_just_coalesce="false"
       step="1" />
  </defs>
  <sodipodi:namedview
     id="base"
     pagecolor="#ffffff"
     bordercolor="#666666"
     borderopacity="1.0"
     inkscape:pageopacity="0.0"
     inkscape:pageshadow="2"
     inkscape:zoom="7.919596"
     inkscape:cx="-5.3033008"
     inkscape:cy="20.834396"
     inkscape:document-units="mm"
     inkscape:current-layer="layer1"
     showgrid="false"
     fit-margin-top="0"
     fit-margin-left="0"
     fit-margin-right="0"
     fit-margin-bottom="0"
     inkscape:window-width="1920"
     inkscape:window-height="974"
     inkscape:window-x="-11"
     inkscape:window-y="2869"
     inkscape:window-maximized="1"
     showguides="true"
     inkscape:guide-bbox="true"
     inkscape:snap-bbox="true"
     inkscape:bbox-nodes="true"
     inkscape:snap-nodes="false"
     inkscape:snap-others="false"
     inkscape:snap-page="true"
     inkscape:snap-grids="false"
     inkscape:snap-to-guides="false"
     inkscape:snap-global="false"
     inkscape:pagecheckerboard="0"
     inkscape:showpageshadow="2"
     inkscape:deskcolor="#d1d1d1">
    <sodipodi:guide
       position="-6.1806076,9.4988693"
       orientation="0,1"
       id="guide816"
       inkscape:locked="false" />
    <sodipodi:guide
       position="-4.4101637,10.646923"
       orientation="0,1"
       id="guide818"
       inkscape:locked="false" />
    <sodipodi:guide
       position="2.7595724,11.09577"
       orientation="1,0"
       id="guide820"
       inkscape:locked="false" />
    <sodipodi:guide
       position="3.6572659,10.942217"
       orientation="1,0"
       id="guide822"
       inkscape:locked="false" />
    <sodipodi:guide
       position="-0.051625512,9.74923"
       orientation="1,0"
       id="guide1853"
       inkscape:locked="false" />
    <sodipodi:guide
       position="-2.3720169,3.0175835"
       orientation="0,1"
       id="guide1855"
       inkscape:locked="false" />
  </sodipodi:namedview>
  <metadata
     id="metadata1678">
    <rdf:RDF>
      <cc:Work
         rdf:about="">
        <dc:format>image/svg+xml</dc:format>
        <dc:type
           rdf:resource="http://purl.org/dc/dcmitype/StillImage" />
      </cc:Work>
    </rdf:RDF>
  </metadata>
  <g
     inkscape:label="Layer 1"
     inkscape:groupmode="layer"
     id="layer1"
     transform="translate(17.028496,-147.22856)">
    <path
       d="m -16.451768,150.55227 c 0.0042,-0.006 0.01042,-0.0141 0.02013,-0.0222 0.0076,-0.006 0.01774,-0.0132 0.03146,-0.0201 0.02369,-0.0119 0.05394,-0.0217 0.09411,-0.0303 0.07838,-0.0171 0.163755,-0.034 0.249721,-0.0428 0.16459,-0.0195 0.329006,-0.026 0.4926,-0.0202 0.09355,0.003 0.189803,0.0108 0.288283,0.0229 0.0087,0.001 0.01749,0.002 0.02621,0.001 0.0087,-9e-4 0.01709,-0.004 0.02519,-0.007 -0.005,0.002 -0.01016,0.003 -0.01507,0.004 -0.0047,3.3e-4 -0.0089,-10e-5 -0.0121,-7.6e-4 -0.0059,-0.001 -0.01016,-0.003 -0.01284,-0.005 -0.0027,-0.002 -0.0069,-0.006 -0.0098,-0.014 -0.0031,-0.009 -0.0042,-0.0211 1.71e-4,-0.0341 6.53e-4,-0.002 0.0015,-0.004 0.0024,-0.006 9.68e-4,-0.002 0.0019,-0.004 0.0027,-0.005 0.003,-0.007 0.0074,-0.0123 0.01027,-0.0156 0.0023,-0.003 0.0019,-0.003 -0.0033,-0.001 -0.0049,0.001 -0.01357,0.004 -0.02556,0.007 -0.01087,0.003 -0.02779,0.008 -0.04524,0.015 l 0.01143,-0.005 c -0.113596,0.0381 -0.233844,0.0588 -0.362017,0.0708 -0.127203,0.0119 -0.254558,0.0146 -0.391106,0.019 -0.01642,-0.001 -0.04156,-0.006 -0.07077,-0.0147 -0.03005,-0.009 -0.06013,-0.0208 -0.09746,-0.0354 -0.03506,-0.0137 -0.07698,-0.0299 -0.121105,-0.0424 -0.04484,-0.0127 -0.0956,-0.0226 -0.15129,-0.0228 -0.02345,-0.001 -0.05003,0.001 -0.07447,0.005 -0.02427,0.004 -0.04657,0.0108 -0.06637,0.0176 -0.03583,0.0123 -0.07557,0.0304 -0.09638,0.0391 -0.0017,7.2e-4 -0.0034,0.002 -0.0051,0.002 -0.0017,8.9e-4 -0.0033,0.002 -0.005,0.003 -0.0174,0.009 -0.04567,0.0204 -0.07992,0.0397 -0.0027,0.002 -0.0054,0.003 -0.0082,0.005 -0.01829,0.0108 -0.03975,0.025 -0.06083,0.0439 -0.02059,0.0185 -0.04131,0.0418 -0.05863,0.0712 -0.0035,0.006 -0.0065,0.0121 -0.0091,0.0184 -0.0072,0.0171 -0.01526,0.0424 -0.01536,0.0731 -4.9e-5,0.0157 0.002,0.0331 0.0076,0.0512 0.0056,0.0182 0.0143,0.0353 0.02574,0.0506 0.01126,0.0151 0.02406,0.027 0.03674,0.0361 0.01245,0.009 0.0247,0.0153 0.03543,0.0198 0.02056,0.009 0.03936,0.012 0.05211,0.0136 0.01313,0.002 0.02493,0.002 0.03378,0.002 0.0089,-5e-5 0.01705,-4.8e-4 0.02302,-8.4e-4 0.0061,-3.7e-4 0.01092,-7.2e-4 0.01351,-8.5e-4 0.0026,-1.3e-4 0.0033,7e-5 -0.0017,4e-5 0.130386,-0.002 0.248287,-0.0177 0.355876,-0.022 0.317733,-0.0256 0.63104,-0.0549 0.943681,-0.0967 0.03957,-0.005 0.08016,-0.0118 0.11436,-0.0324 0.0171,-0.0103 0.03232,-0.0239 0.04374,-0.0403 0.01143,-0.0164 0.01898,-0.0355 0.02154,-0.0553 0.0026,-0.0198 1.11e-4,-0.0402 -0.0068,-0.0589 -0.0069,-0.0187 -0.01817,-0.0357 -0.0321,-0.05 -0.02787,-0.0286 -0.06552,-0.0451 -0.102473,-0.0602 -0.03225,-0.0132 -0.06379,-0.0208 -0.09264,-0.0252 -0.02872,-0.004 -0.05586,-0.006 -0.07908,-0.006 -0.04792,-0.001 -0.08445,1.3e-4 -0.108492,-0.002 -0.157044,-0.007 -0.298178,-0.004 -0.430771,-0.008 -0.140247,-0.004 -0.266389,-0.0149 -0.386857,-0.0425 l -0.04745,0.30221 c 0.186544,0.0154 0.349341,0.0359 0.50011,0.0631 l -7.83e-4,-0.29939 c -0.03442,0.007 -0.07129,0.01 -0.107816,0.0118 -0.04687,0.003 -0.09289,0.004 -0.132217,0.007 a 0.15150081,0.15150081 90 0 0 0.0237,0.30208 c 0.03078,-0.002 0.07156,-0.004 0.124793,-0.006 0.03926,-0.002 0.09271,-0.005 0.147843,-0.0156 0.04195,-0.008 0.08506,-0.017 0.119818,-0.0417 0.01738,-0.0124 0.03232,-0.0283 0.04267,-0.047 0.01035,-0.0187 0.01598,-0.0399 0.01591,-0.0613 -7.9e-5,-0.0213 -0.0059,-0.0426 -0.01634,-0.0612 -0.01047,-0.0186 -0.0255,-0.0344 -0.04293,-0.0467 -0.03486,-0.0246 -0.07795,-0.0338 -0.119905,-0.0415 -0.162181,-0.03 -0.334833,-0.0523 -0.528956,-0.0691 -0.04838,-0.004 -0.09876,-0.007 -0.143795,0.0112 -0.02252,0.009 -0.04316,0.0232 -0.05892,0.0416 -0.01576,0.0185 -0.02647,0.0413 -0.03022,0.0653 -0.0038,0.024 -5.24e-4,0.049 0.0088,0.0714 0.0094,0.0224 0.02468,0.0421 0.04332,0.0577 0.03728,0.0311 0.08603,0.044 0.133334,0.055 0.148442,0.0345 0.297182,0.0464 0.446299,0.0512 0.141917,0.005 0.282483,0.003 0.418551,0.008 0.0371,0.004 0.09651,0.003 0.121993,0.004 0.01655,5e-4 0.02923,0.002 0.0398,0.003 0.01019,0.002 0.01724,0.004 0.02271,0.006 l 0.03828,-0.29701 c -0.305022,0.0405 -0.612254,0.0692 -0.921458,0.0943 -0.121907,0.005 -0.236152,0.0206 -0.337132,0.0224 -0.0056,-1.1e-4 -0.01478,5.4e-4 -0.0196,9.2e-4 -0.0043,3.3e-4 -0.01173,9.9e-4 -0.0135,0.001 -0.0033,2.8e-4 -0.0053,4e-4 -0.0056,4.6e-4 -2.45e-4,6e-5 0.0014,-2e-5 0.0065,6.5e-4 0.0041,5.4e-4 0.01511,0.002 0.029,0.008 0.0074,0.003 0.01659,0.008 0.02636,0.0148 0.01,0.007 0.02046,0.0169 0.02982,0.0294 0.0095,0.0128 0.01671,0.027 0.02132,0.0419 0.0046,0.0148 0.0061,0.0286 0.0061,0.0403 -9.3e-5,0.0225 -0.006,0.0381 -0.0084,0.0437 -0.0014,0.003 -0.0025,0.006 -0.0039,0.01 -0.0014,0.003 -0.0032,0.006 -0.0052,0.009 -0.0016,0.002 -0.0016,0.001 -7.22e-4,3.5e-4 0.0016,-0.002 0.0054,-0.005 0.01265,-0.01 0.0179,-0.0112 0.04217,-0.0229 0.07288,-0.0405 0.0273,-0.0133 0.04931,-0.0248 0.06616,-0.032 0.0094,-0.004 0.01672,-0.007 0.02273,-0.008 0.0057,-0.002 0.01023,-0.003 0.01348,-0.003 0.02742,-6.7e-4 0.05191,0.002 0.08083,0.01 0.02979,0.007 0.06036,0.0178 0.09747,0.0309 0.03532,0.0124 0.07732,0.0274 0.120933,0.0388 0.04475,0.0117 0.0947,0.0207 0.148918,0.0205 0.139222,-0.007 0.276893,-0.0129 0.414068,-0.0287 0.140368,-0.0162 0.281049,-0.0429 0.418313,-0.0922 9.83e-4,-3.6e-4 0.002,-6.8e-4 0.003,-9.2e-4 0.001,-2.4e-4 0.0021,-4e-4 0.0031,-6.5e-4 0.001,-2.4e-4 0.002,-5.8e-4 0.0029,-0.001 9.06e-4,-5.2e-4 0.0017,-0.001 0.0024,-0.002 0.0018,-0.002 0.008,-0.005 0.01824,-0.009 0.0087,-0.004 0.02537,-0.01 0.04004,-0.0167 0.01603,-0.007 0.03613,-0.0179 0.0557,-0.0336 0.02071,-0.0166 0.04005,-0.0384 0.05408,-0.0667 0.0018,-0.004 0.0036,-0.007 0.0051,-0.0111 0.01585,-0.0416 0.01471,-0.0831 0.004,-0.11842 -0.01073,-0.0353 -0.03085,-0.0645 -0.05384,-0.0863 -0.02373,-0.0225 -0.05337,-0.0399 -0.08639,-0.0488 -0.01707,-0.005 -0.03533,-0.007 -0.05422,-0.006 -0.0093,2.8e-4 -0.01865,0.001 -0.02795,0.003 -0.09753,-0.0102 -0.192904,-0.0162 -0.285773,-0.0187 -0.174405,-0.005 -0.349707,0.003 -0.524092,0.0243 -0.09597,0.0107 -0.19039,0.0291 -0.270248,0.0459 -0.04968,0.0101 -0.09936,0.0242 -0.145633,0.0466 -0.02773,0.0134 -0.05249,0.029 -0.07439,0.0467 -0.02861,0.0232 -0.04951,0.0478 -0.06487,0.071 a 0.1105956,0.1105956 90 0 0 0.184382,0.12218 z"
       id="path-1"
       inkscape:path-effect="#path-effect160;#path-effect162"
       inkscape:original-d="m -16.543959,150.49118 c 0.07257,-0.10701 0.213106,-0.11496 0.327952,-0.14173 0.31469,-0.0525 0.63676,-0.0583 0.953524,-0.0214 0.0825,-0.0257 0.151566,0.0945 0.06144,0.13414 -0.27521,0.11799 -0.579883,0.12331 -0.874271,0.13589 -0.170739,-0.006 -0.320438,-0.13619 -0.495053,-0.10206 -0.06896,0.022 -0.135289,0.0552 -0.198538,0.0908 -0.05085,0.0256 -0.125378,0.11226 -0.0189,0.0952 0.118606,0.001 0.236406,-0.017 0.354834,-0.0212 0.315368,-0.0254 0.630528,-0.0547 0.944195,-0.0965 -0.0698,-0.0295 -0.149404,-0.0164 -0.223643,-0.0231 -0.283385,-0.0127 -0.571183,0.009 -0.849958,-0.0554 0.172346,0.0146 0.344336,0.035 0.514533,0.0661 -0.08451,0.0159 -0.170919,0.0138 -0.256335,0.0205"
       style="fill:#000000;fill-rule:nonzero;stroke:none;stroke-width:1.14657" />
  </g>
</svg>
