<?xml version="1.0" encoding="UTF-8" standalone="no"?>
<!-- Created with Inkscape (http://www.inkscape.org/) -->

<svg
   width="2mm"
   height="10mm"
   viewBox="0 0 2.0000001 9.9999994"
   version="1.1"
   id="svg1681"
   inkscape:version="1.2.1 (9c6d41e410, 2022-07-14)"
   sodipodi:docname="hyphen_3.svg"
   inkscape:export-filename="..\..\..\..\Downloads\lower a diff canvas resize 3.0.png"
   inkscape:export-xdpi="96"
   inkscape:export-ydpi="96"
   xmlns:inkscape="http://www.inkscape.org/namespaces/inkscape"
   xmlns:sodipodi="http://sodipodi.sourceforge.net/DTD/sodipodi-0.dtd"
   xmlns="http://www.w3.org/2000/svg"
   xmlns:svg="http://www.w3.org/2000/svg"
   xmlns:rdf="http://www.w3.org/1999/02/22-rdf-syntax-ns#"
   xmlns:cc="http://creativecommons.org/ns#"
   xmlns:dc="http://purl.org/dc/elements/1.1/">
  <defs
     id="defs1675">
    <inkscape:path-effect
       effect="powerstroke"
       id="path-effect414"
       is_visible="true"
       lpeversion="1"
       offset_points="2.8340298,0.14185332 | 8.9034148,0.17269101 | 15.328538,0.12204245 | 16.622934,0.13774163"
       not_jump="true"
       sort_points="true"
       interpolator_type="CentripetalCatmullRom"
       interpolator_beta="0.75"
       start_linecap_type="round"
       linejoin_type="spiro"
       miter_limit="4"
       scale_width="1"
       end_linecap_type="round" />
    <inkscape:path-effect
       effect="simplify"
       id="path-effect412"
       is_visible="true"
       lpeversion="1"
       steps="1"
       threshold="0.0035951417"
       smooth_angles="0"
       helper_size="0"
       simplify_individual_paths="false"
       simplify_just_coalesce="false"
       step="1" />
    <inkscape:path-effect
       effect="powerstroke"
       id="path-effect163"
       is_visible="true"
       lpeversion="1"
       offset_points="2.3868036,0.21301815"
       not_jump="true"
       sort_points="true"
       interpolator_type="CentripetalCatmullRom"
       interpolator_beta="0.75"
       start_linecap_type="round"
       linejoin_type="spiro"
       miter_limit="4"
       scale_width="1"
       end_linecap_type="round" />
    <inkscape:path-effect
       effect="simplify"
       id="path-effect161"
       is_visible="true"
       lpeversion="1"
       steps="1"
       threshold="0.0035951417"
       smooth_angles="0"
       helper_size="0"
       simplify_individual_paths="false"
       simplify_just_coalesce="false"
       step="1" />
    <inkscape:path-effect
       effect="powerstroke"
       id="path-effect228"
       is_visible="true"
       lpeversion="1"
       offset_points="0.31995504,0.11823712"
       not_jump="true"
       sort_points="true"
       interpolator_type="CentripetalCatmullRom"
       interpolator_beta="0.75"
       start_linecap_type="round"
       linejoin_type="spiro"
       miter_limit="4"
       scale_width="1"
       end_linecap_type="round" />
    <inkscape:path-effect
       effect="simplify"
       id="path-effect226"
       is_visible="true"
       lpeversion="1"
       steps="1"
       threshold="0.0035951417"
       smooth_angles="0"
       helper_size="0"
       simplify_individual_paths="false"
       simplify_just_coalesce="false"
       step="1" />
    <inkscape:path-effect
       effect="powerstroke"
       id="path-effect220"
       is_visible="true"
       lpeversion="1"
       offset_points="1,0.12338681"
       not_jump="true"
       sort_points="true"
       interpolator_type="CentripetalCatmullRom"
       interpolator_beta="0.75"
       start_linecap_type="round"
       linejoin_type="spiro"
       miter_limit="4"
       scale_width="1"
       end_linecap_type="round" />
    <inkscape:path-effect
       effect="simplify"
       id="path-effect218"
       is_visible="true"
       lpeversion="1"
       steps="1"
       threshold="0.0035951417"
       smooth_angles="0"
       helper_size="0"
       simplify_individual_paths="false"
       simplify_just_coalesce="false"
       step="1" />
    <inkscape:path-effect
       effect="powerstroke"
       id="path-effect213"
       is_visible="true"
       lpeversion="1"
       offset_points="0.66831593,0.092694602"
       not_jump="true"
       sort_points="true"
       interpolator_type="CentripetalCatmullRom"
       interpolator_beta="0.75"
       start_linecap_type="round"
       linejoin_type="spiro"
       miter_limit="4"
       scale_width="1"
       end_linecap_type="round" />
    <inkscape:path-effect
       effect="simplify"
       id="path-effect211"
       is_visible="true"
       lpeversion="1"
       steps="1"
       threshold="0.0035951417"
       smooth_angles="0"
       helper_size="0"
       simplify_individual_paths="false"
       simplify_just_coalesce="false"
       step="1" />
    <inkscape:path-effect
       effect="powerstroke"
       id="path-effect206"
       is_visible="true"
       lpeversion="1"
       offset_points="0.49761397,0.091664664"
       not_jump="true"
       sort_points="true"
       interpolator_type="CentripetalCatmullRom"
       interpolator_beta="0.75"
       start_linecap_type="round"
       linejoin_type="spiro"
       miter_limit="4"
       scale_width="1"
       end_linecap_type="round" />
    <inkscape:path-effect
       effect="simplify"
       id="path-effect204"
       is_visible="true"
       lpeversion="1"
       steps="1"
       threshold="0.0035951417"
       smooth_angles="0"
       helper_size="0"
       simplify_individual_paths="false"
       simplify_just_coalesce="false"
       step="1" />
    <inkscape:path-effect
       effect="powerstroke"
       id="path-effect1482"
       is_visible="true"
       lpeversion="1"
       offset_points="3.7088798,0.16303938 | 6.5700881,0.14748794 | 7.7997513,0.166551 | 18.340411,0.14548129 | 22.036374,0.17909248"
       not_jump="true"
       sort_points="true"
       interpolator_type="CentripetalCatmullRom"
       interpolator_beta="0.75"
       start_linecap_type="round"
       linejoin_type="spiro"
       miter_limit="4"
       scale_width="1"
       end_linecap_type="round" />
    <inkscape:path-effect
       effect="simplify"
       id="path-effect1480"
       is_visible="true"
       lpeversion="1"
       steps="1"
       threshold="0.0035951417"
       smooth_angles="0"
       helper_size="0"
       simplify_individual_paths="false"
       simplify_just_coalesce="false"
       step="1" />
    <inkscape:path-effect
       effect="powerstroke"
       id="path-effect502"
       is_visible="true"
       lpeversion="1"
       offset_points="3.0091841,0.21607495 | 7.3602657,0.17554228 | 9.4159651,0.20236537"
       not_jump="true"
       sort_points="true"
       interpolator_type="CentripetalCatmullRom"
       interpolator_beta="0.75"
       start_linecap_type="round"
       linejoin_type="spiro"
       miter_limit="4"
       scale_width="1"
       end_linecap_type="round" />
    <inkscape:path-effect
       effect="simplify"
       id="path-effect500"
       is_visible="true"
       lpeversion="1"
       steps="1"
       threshold="0.0035951417"
       smooth_angles="0"
       helper_size="0"
       simplify_individual_paths="false"
       simplify_just_coalesce="false"
       step="1" />
    <inkscape:path-effect
       effect="powerstroke"
       id="path-effect241"
       is_visible="true"
       lpeversion="1"
       offset_points="2.6879454,0.34086734"
       not_jump="true"
       sort_points="true"
       interpolator_type="CentripetalCatmullRom"
       interpolator_beta="0.75"
       start_linecap_type="round"
       linejoin_type="spiro"
       miter_limit="4"
       scale_width="1"
       end_linecap_type="round" />
    <inkscape:path-effect
       effect="simplify"
       id="path-effect239"
       is_visible="true"
       lpeversion="1"
       steps="1"
       threshold="0.0028332064"
       smooth_angles="0"
       helper_size="0"
       simplify_individual_paths="false"
       simplify_just_coalesce="false"
       step="1" />
    <inkscape:path-effect
       effect="powerstroke"
       id="path-effect234"
       is_visible="true"
       lpeversion="1"
       offset_points="2.13563,0.075169555"
       not_jump="true"
       sort_points="true"
       interpolator_type="CentripetalCatmullRom"
       interpolator_beta="0.75"
       start_linecap_type="round"
       linejoin_type="spiro"
       miter_limit="4"
       scale_width="1"
       end_linecap_type="round" />
    <inkscape:path-effect
       effect="simplify"
       id="path-effect232"
       is_visible="true"
       lpeversion="1"
       steps="1"
       threshold="0.0028332064"
       smooth_angles="0"
       helper_size="0"
       simplify_individual_paths="false"
       simplify_just_coalesce="false"
       step="1" />
    <inkscape:path-effect
       effect="powerstroke"
       id="path-effect227"
       is_visible="true"
       lpeversion="1"
       offset_points="2.1868266,0.075169555"
       not_jump="true"
       sort_points="true"
       interpolator_type="CentripetalCatmullRom"
       interpolator_beta="0.75"
       start_linecap_type="round"
       linejoin_type="spiro"
       miter_limit="4"
       scale_width="1"
       end_linecap_type="round" />
    <inkscape:path-effect
       effect="simplify"
       id="path-effect225"
       is_visible="true"
       lpeversion="1"
       steps="1"
       threshold="0.0028332064"
       smooth_angles="0"
       helper_size="0"
       simplify_individual_paths="false"
       simplify_just_coalesce="false"
       step="1" />
    <inkscape:path-effect
       effect="powerstroke"
       id="path-effect166"
       is_visible="true"
       lpeversion="1"
       offset_points="1.9637935,0.075169555"
       not_jump="true"
       sort_points="true"
       interpolator_type="CentripetalCatmullRom"
       interpolator_beta="0.75"
       start_linecap_type="round"
       linejoin_type="spiro"
       miter_limit="4"
       scale_width="1"
       end_linecap_type="round" />
    <inkscape:path-effect
       effect="simplify"
       id="path-effect164"
       is_visible="true"
       lpeversion="1"
       steps="1"
       threshold="0.0028332064"
       smooth_angles="0"
       helper_size="0"
       simplify_individual_paths="false"
       simplify_just_coalesce="false"
       step="1" />
    <inkscape:path-effect
       effect="powerstroke"
       id="path-effect159"
       is_visible="true"
       lpeversion="1"
       offset_points="2.2611036,0.075169555"
       not_jump="true"
       sort_points="true"
       interpolator_type="CentripetalCatmullRom"
       interpolator_beta="0.75"
       start_linecap_type="round"
       linejoin_type="spiro"
       miter_limit="4"
       scale_width="1"
       end_linecap_type="round" />
    <inkscape:path-effect
       effect="simplify"
       id="path-effect157"
       is_visible="true"
       lpeversion="1"
       steps="1"
       threshold="0.0028332064"
       smooth_angles="0"
       helper_size="0"
       simplify_individual_paths="false"
       simplify_just_coalesce="false"
       step="1" />
    <inkscape:path-effect
       effect="powerstroke"
       id="path-effect152"
       is_visible="true"
       lpeversion="1"
       offset_points="2.826981,0.075169555"
       not_jump="true"
       sort_points="true"
       interpolator_type="CentripetalCatmullRom"
       interpolator_beta="0.75"
       start_linecap_type="round"
       linejoin_type="spiro"
       miter_limit="4"
       scale_width="1"
       end_linecap_type="round" />
    <inkscape:path-effect
       effect="simplify"
       id="path-effect150"
       is_visible="true"
       lpeversion="1"
       steps="1"
       threshold="0.0028332064"
       smooth_angles="0"
       helper_size="0"
       simplify_individual_paths="false"
       simplify_just_coalesce="false"
       step="1" />
    <inkscape:path-effect
       effect="powerstroke"
       id="path-effect145"
       is_visible="true"
       lpeversion="1"
       offset_points="3.8374447,0.075169555"
       not_jump="true"
       sort_points="true"
       interpolator_type="CentripetalCatmullRom"
       interpolator_beta="0.75"
       start_linecap_type="round"
       linejoin_type="spiro"
       miter_limit="4"
       scale_width="1"
       end_linecap_type="round" />
    <inkscape:path-effect
       effect="simplify"
       id="path-effect143"
       is_visible="true"
       lpeversion="1"
       steps="1"
       threshold="0.0028332064"
       smooth_angles="0"
       helper_size="0"
       simplify_individual_paths="false"
       simplify_just_coalesce="false"
       step="1" />
    <inkscape:path-effect
       effect="powerstroke"
       id="path-effect138"
       is_visible="true"
       lpeversion="1"
       offset_points="2.6880907,0.075169555"
       not_jump="true"
       sort_points="true"
       interpolator_type="CentripetalCatmullRom"
       interpolator_beta="0.75"
       start_linecap_type="round"
       linejoin_type="spiro"
       miter_limit="4"
       scale_width="1"
       end_linecap_type="round" />
    <inkscape:path-effect
       effect="simplify"
       id="path-effect136"
       is_visible="true"
       lpeversion="1"
       steps="1"
       threshold="0.0028332064"
       smooth_angles="0"
       helper_size="0"
       simplify_individual_paths="false"
       simplify_just_coalesce="false"
       step="1" />
    <inkscape:path-effect
       effect="powerstroke"
       id="path-effect131"
       is_visible="true"
       lpeversion="1"
       offset_points="1.9940581,0.075169555"
       not_jump="true"
       sort_points="true"
       interpolator_type="CentripetalCatmullRom"
       interpolator_beta="0.75"
       start_linecap_type="round"
       linejoin_type="spiro"
       miter_limit="4"
       scale_width="1"
       end_linecap_type="round" />
    <inkscape:path-effect
       effect="simplify"
       id="path-effect129"
       is_visible="true"
       lpeversion="1"
       steps="1"
       threshold="0.0028332064"
       smooth_angles="0"
       helper_size="0"
       simplify_individual_paths="false"
       simplify_just_coalesce="false"
       step="1" />
  </defs>
  <sodipodi:namedview
     id="base"
     pagecolor="#ffffff"
     bordercolor="#666666"
     borderopacity="1.0"
     inkscape:pageopacity="0.0"
     inkscape:pageshadow="2"
     inkscape:zoom="7.919596"
     inkscape:cx="-5.3033008"
     inkscape:cy="20.834396"
     inkscape:document-units="mm"
     inkscape:current-layer="layer1"
     showgrid="false"
     fit-margin-top="0"
     fit-margin-left="0"
     fit-margin-right="0"
     fit-margin-bottom="0"
     inkscape:window-width="1920"
     inkscape:window-height="974"
     inkscape:window-x="-11"
     inkscape:window-y="2869"
     inkscape:window-maximized="1"
     showguides="true"
     inkscape:guide-bbox="true"
     inkscape:snap-bbox="true"
     inkscape:bbox-nodes="true"
     inkscape:snap-nodes="false"
     inkscape:snap-others="false"
     inkscape:snap-page="true"
     inkscape:snap-grids="false"
     inkscape:snap-to-guides="false"
     inkscape:snap-global="false"
     inkscape:pagecheckerboard="0"
     inkscape:showpageshadow="2"
     inkscape:deskcolor="#d1d1d1">
    <sodipodi:guide
       position="-6.1806076,9.4988693"
       orientation="0,1"
       id="guide816"
       inkscape:locked="false" />
    <sodipodi:guide
       position="-4.4101637,10.646923"
       orientation="0,1"
       id="guide818"
       inkscape:locked="false" />
    <sodipodi:guide
       position="2.7595724,11.09577"
       orientation="1,0"
       id="guide820"
       inkscape:locked="false" />
    <sodipodi:guide
       position="3.6572659,10.942217"
       orientation="1,0"
       id="guide822"
       inkscape:locked="false" />
    <sodipodi:guide
       position="-0.051625512,9.74923"
       orientation="1,0"
       id="guide1853"
       inkscape:locked="false" />
    <sodipodi:guide
       position="-2.3720169,3.0175835"
       orientation="0,1"
       id="guide1855"
       inkscape:locked="false" />
  </sodipodi:namedview>
  <metadata
     id="metadata1678">
    <rdf:RDF>
      <cc:Work
         rdf:about="">
        <dc:format>image/svg+xml</dc:format>
        <dc:type
           rdf:resource="http://purl.org/dc/dcmitype/StillImage" />
      </cc:Work>
    </rdf:RDF>
  </metadata>
  <g
     inkscape:label="Layer 1"
     inkscape:groupmode="layer"
     id="layer1"
     transform="translate(17.028496,-147.22856)">
    <path
       d="m -16.543094,151.08852 c 0.176255,0.0245 0.356926,0.0328 0.633978,0.0311 0.174228,-0.001 0.403464,-0.006 0.605594,0.006 l -0.0047,-0.28093 c -0.0292,0.003 -0.06082,0.003 -0.09975,0.002 -0.03557,-0.001 -0.07539,-0.004 -0.119077,-0.005 -0.274543,-0.007 -0.550672,-0.0186 -0.826368,-0.0295 0.02333,9.3e-4 -0.18853,-0.007 -0.165204,-0.006 -0.0355,-0.001 -0.07205,-0.002 -0.105211,0.011 -0.01658,0.006 -0.03203,0.0159 -0.04466,0.0284 -0.01263,0.0125 -0.02236,0.0279 -0.02794,0.0448 -0.0056,0.0169 -0.007,0.0351 -0.0044,0.0526 0.0026,0.0176 0.0093,0.0344 0.01868,0.0495 0.01878,0.0302 0.04801,0.052 0.07695,0.0726 0.02912,0.0207 0.05984,0.0345 0.09032,0.0433 0.02897,0.008 0.05684,0.0121 0.08159,0.0138 0.04773,0.003 0.08701,4.3e-4 0.111503,0.002 0.08203,0.006 0.166741,0.001 0.241353,0.002 0.04814,7.1e-4 0.09391,0.002 0.138828,0.005 l -0.07367,-0.30445 c -0.0061,0.003 -0.01386,0.005 -0.02414,0.007 -0.01067,0.002 -0.0239,0.003 -0.04123,0.003 -0.034,-7e-5 -0.08036,-0.005 -0.137303,-0.006 -0.108071,-0.005 -0.221024,-0.0208 -0.336562,-0.0414 -0.03206,-0.006 -0.06459,-0.013 -0.09651,-0.0193 -0.0035,-6.8e-4 -0.0069,-0.001 -0.01044,-0.002 l -0.01006,0.33926 c 0.01146,-0.002 0.02803,-0.003 0.05837,9e-4 0.02797,0.003 0.06489,0.0104 0.111325,0.0154 0.05146,0.005 0.105461,0.0114 0.165297,0.0157 0.05652,0.004 0.120165,0.006 0.186807,-0.002 0.01434,-5.6e-4 0.02894,-0.003 0.04358,-0.006 0.0244,-0.006 0.04569,-0.0164 0.06374,-0.0286 0.03431,-0.0232 0.05435,-0.052 0.06411,-0.0674 0.0099,-0.0156 0.01693,-0.0299 0.01758,-0.0316 0.0013,-0.003 -0.0021,0.002 -0.0153,0.0102 l 0.02232,-0.0194 c -0.0038,0.003 -0.0076,0.004 -0.0108,0.005 -0.0032,7.3e-4 -0.0054,4.4e-4 -0.0064,-2.3e-4 -0.0024,-0.002 0.0011,-0.004 0.0041,-0.005 0.0028,-9.4e-4 0.0057,-0.002 0.0086,-0.002 0.0029,4e-5 0.0058,8.5e-4 0.0086,0.002 0.0028,9.8e-4 0.0055,0.002 0.0084,0.003 0.0029,5.6e-4 0.0059,5e-4 0.0088,2.8e-4 0.05205,-0.004 0.105353,-0.003 0.164484,-0.004 0.06179,-4.6e-4 0.125762,-0.002 0.191409,-0.0121 0.01976,-0.003 0.03994,-0.007 0.05677,-0.0177 0.0084,-0.005 0.01583,-0.0123 0.02205,-0.0201 0.0062,-0.008 0.01122,-0.0165 0.01609,-0.0252 0.01059,-0.019 0.01924,-0.0423 0.02159,-0.0682 0.0012,-0.0133 7.32e-4,-0.0267 -0.0015,-0.04 -0.0022,-0.0134 -0.0061,-0.0258 -0.0111,-0.0371 -0.01009,-0.0228 -0.02384,-0.0395 -0.03662,-0.0517 -0.01282,-0.0122 -0.02598,-0.021 -0.03686,-0.0273 -0.02211,-0.0127 -0.04448,-0.0202 -0.05931,-0.0246 -0.01678,-0.005 -0.03236,-0.008 -0.04055,-0.01 -0.055,-0.0131 -0.107659,-0.0171 -0.152394,-0.0176 -0.02763,-3.2e-4 -0.05352,7e-4 -0.07603,0.002 -0.0682,0.004 -0.170326,0.0182 -0.203343,0.0223 -0.02775,0.002 -0.04972,0.003 -0.09025,0.008 -0.01415,0.002 -0.03325,0.004 -0.05113,0.006 -0.0084,9.8e-4 -0.01686,0.002 -0.02487,0.005 -0.008,0.003 -0.01554,0.007 -0.02301,0.0108 -0.02846,0.0154 -0.05329,0.0385 -0.07058,0.0683 -0.01559,0.0268 -0.02491,0.0589 -0.02422,0.0933 6.52e-4,0.0323 0.01036,0.0675 0.03308,0.0988 0.01088,0.015 0.02423,0.0283 0.03974,0.0394 0.01107,0.008 0.02284,0.0144 0.03504,0.0195 0.03653,0.018 0.07251,0.0283 0.09893,0.0357 0.03079,0.009 0.04656,0.0128 0.06094,0.0191 0.0056,0.002 0.01128,0.005 0.01713,0.006 0.129156,0.0382 0.264479,0.067 0.404015,0.0726 0.04045,-4.2e-4 0.06997,-0.01 0.09426,-0.0232 0.02489,-0.0138 0.04796,-0.0342 0.06494,-0.0608 0.0089,-0.0139 0.01635,-0.0299 0.02116,-0.0479 0.005,-0.0185 0.0069,-0.0386 0.0049,-0.0592 -0.0021,-0.0213 -0.0083,-0.0414 -0.01754,-0.0595 -0.0077,-0.015 -0.01713,-0.0279 -0.02723,-0.0388 -0.03387,-0.0405 -0.07329,-0.0636 -0.08809,-0.0721 a 0.13774163,0.13774163 90 0 0 -0.137772,0.23856 c 0.0059,0.003 0.01284,0.0103 0.01142,0.009 l 0.01389,0.0157 c -0.0064,-0.006 -0.01367,-0.015 -0.0197,-0.0267 -0.006,-0.0116 -0.01022,-0.0251 -0.01169,-0.0398 -0.0014,-0.0142 -6.7e-5,-0.0278 0.0032,-0.04 0.0031,-0.0118 0.0079,-0.0219 0.01314,-0.0301 0.0099,-0.0156 0.02242,-0.0262 0.03456,-0.033 0.01193,-0.007 0.02705,-0.0117 0.0447,-0.012 -0.09855,-0.005 -0.207186,-0.0272 -0.320027,-0.0605 -0.03458,-0.0144 -0.06953,-0.0236 -0.09033,-0.0294 -0.02819,-0.008 -0.04162,-0.0125 -0.05204,-0.0179 -0.0069,-0.004 -0.01401,-0.007 -0.02136,-0.009 0.0087,0.003 0.01801,0.007 0.02705,0.0138 0.0092,0.007 0.01745,0.0148 0.02424,0.0242 0.01391,0.0192 0.01993,0.0412 0.02027,0.0603 3.57e-4,0.0201 -0.0051,0.0382 -0.01375,0.0528 -0.0096,0.0164 -0.02325,0.0288 -0.03801,0.0366 -0.0075,0.004 -0.01508,0.008 -0.02311,0.0104 -0.008,0.003 -0.0164,0.004 -0.02476,0.005 0.02201,-0.003 0.0419,-0.007 0.05807,-0.0106 0.04069,-0.008 0.06759,-0.0173 0.09015,-0.0245 0.04735,-0.0107 0.113185,-0.0263 0.176881,-0.0324 0.01743,-0.002 0.03616,-0.003 0.05551,-0.003 0.03146,1e-5 0.06431,0.003 0.097,0.0114 0.008,0.002 0.01549,0.004 0.0217,0.007 0.0056,0.002 0.0097,0.005 0.0063,0.004 -0.0014,-5.5e-4 -0.0054,-0.003 -0.01096,-0.008 -0.0056,-0.005 -0.0135,-0.0139 -0.01986,-0.028 -0.0032,-0.007 -0.0057,-0.0149 -0.0072,-0.0235 -0.0015,-0.009 -0.0018,-0.0171 -0.0012,-0.0252 0.0013,-0.0162 0.0063,-0.0281 0.0098,-0.035 0.0046,-0.009 0.0094,-0.0179 0.01545,-0.026 0.006,-0.008 0.01338,-0.0152 0.02182,-0.0208 0.0084,-0.006 0.01793,-0.009 0.02772,-0.0118 0.0098,-0.002 0.01987,-0.003 0.02992,-0.004 -0.04619,0.004 -0.09443,0.003 -0.1529,4.9e-4 -0.04495,-0.002 -0.102403,-0.006 -0.158829,-0.007 -0.03604,-0.008 -0.07618,-0.009 -0.117018,-0.001 -0.02267,0.005 -0.04594,0.0121 -0.06877,0.0238 -0.01558,0.008 -0.0308,0.0177 -0.04522,0.0294 -0.02912,0.0204 -0.04838,0.0446 -0.05914,0.0589 -0.01214,0.0161 -0.01908,0.0263 -0.02122,0.0279 -0.0021,0.002 0.0013,-0.007 0.01892,-0.0199 0.0092,-0.006 0.02072,-0.0123 0.03419,-0.0159 0.01341,-0.004 0.02551,-0.004 0.03504,-0.004 l -0.03422,8e-5 c -0.03826,0.003 -0.07934,-1e-4 -0.126691,-0.006 -0.04761,-0.006 -0.09993,-0.0151 -0.15666,-0.0224 -0.02305,-0.004 -0.05855,-0.0129 -0.101751,-0.02 -0.0446,-0.007 -0.09968,-0.0129 -0.159903,-0.004 -0.04767,0.007 -0.09674,0.0157 -0.136848,0.0424 -0.02005,0.0134 -0.03746,0.0309 -0.04975,0.0516 -0.01229,0.0207 -0.01932,0.0446 -0.01992,0.0687 -6.01e-4,0.0241 0.0052,0.0483 0.01639,0.0696 0.01115,0.0214 0.02751,0.0398 0.04667,0.0544 0.03833,0.0292 0.08646,0.0417 0.133404,0.0525 0.0039,8.9e-4 0.0077,0.002 0.01151,0.003 0.03529,0.008 0.07163,0.0147 0.108715,0.0204 0.12444,0.0205 0.255677,0.0367 0.390106,0.0384 0.04,-6.1e-4 0.09086,0.003 0.151984,5.6e-4 0.03041,-0.001 0.06434,-0.005 0.09965,-0.0128 0.03583,-0.008 0.07312,-0.0211 0.109924,-0.0416 0.03706,-0.0206 0.07468,-0.0426 0.10105,-0.0758 0.01319,-0.0166 0.02336,-0.0357 0.02878,-0.0562 0.0054,-0.0205 0.006,-0.0423 0.0013,-0.063 -0.0047,-0.0207 -0.01472,-0.0401 -0.02866,-0.0561 -0.01394,-0.016 -0.0317,-0.0285 -0.0511,-0.037 -0.03881,-0.0171 -0.08264,-0.0174 -0.125032,-0.0164 -0.05368,0.001 -0.105972,0.005 -0.154445,0.009 -0.08726,0.005 -0.161819,0.0136 -0.224539,0.0125 -0.05231,9.7e-4 -0.0845,0.005 -0.104103,0.005 -0.01054,-7e-5 -0.01649,-8.3e-4 -0.01991,-0.001 -0.0037,-5.9e-4 -0.003,-5.2e-4 -0.0036,-2.5e-4 -0.01341,0.006 -0.02692,0.0126 -0.03742,0.0229 -0.0105,0.0103 -0.01759,0.0241 -0.01943,0.0387 -0.0018,0.0146 0.0014,0.0295 0.0074,0.0429 0.006,0.0134 0.01443,0.0256 0.02236,0.038 0.0079,0.0124 0.01538,0.0253 0.01903,0.0396 0.0037,0.0143 0.0031,0.0298 -0.0031,0.0431 -0.0062,0.0133 -0.01807,0.0237 -0.03183,0.0289 -0.01376,0.005 -0.02885,0.005 -0.04356,0.005 0.05549,0.002 0.110527,0.004 0.164524,0.005 0.274678,0.009 0.55258,0.0206 0.830352,0.0272 0.03655,7.2e-4 0.07576,0.003 0.11668,0.004 0.04429,0.001 0.08924,0.002 0.13549,-0.003 0.04411,-0.004 0.08977,-0.01 0.1273,-0.0333 0.01876,-0.0118 0.03505,-0.0277 0.04627,-0.0468 0.01122,-0.0191 0.01724,-0.0413 0.01686,-0.0634 -3.86e-4,-0.0222 -0.0072,-0.0441 -0.01904,-0.0628 -0.01187,-0.0187 -0.02868,-0.0341 -0.04781,-0.0452 -0.03828,-0.0223 -0.08407,-0.0266 -0.128288,-0.0294 -0.214391,-0.0134 -0.458816,-0.008 -0.624422,-0.007 -0.270741,0.001 -0.435877,-0.007 -0.593446,-0.0292 a 0.14185332,0.14185332 90 0 0 -0.03909,0.281 z"
       id="path-1"
       inkscape:path-effect="#path-effect412;#path-effect414"
       inkscape:original-d="m -16.523549,150.94802 c 0.407528,0.0567 0.81971,0.0115 1.22872,0.0368 -0.0545,0.009 -0.221729,-0.004 -0.31794,-0.004 -0.303644,-0.009 -0.607184,-0.0217 -0.91078,-0.0324 0.06971,0.0489 0.160275,0.0209 0.239516,0.0295 0.115222,-0.002 0.230278,-0.0112 0.345558,-0.009 -0.08957,0.0491 -0.200375,0.0265 -0.299063,0.0284 -0.154703,-0.008 -0.308538,-0.0298 -0.459972,-0.0622 0.06774,-0.014 0.182567,0.0198 0.26831,0.0265 0.100903,0.0118 0.205689,0.0287 0.305969,0.008 0.04297,-0.0666 0.08615,-0.13345 0.180275,-0.11306 0.116638,-0.005 0.233796,0.01 0.350079,-0.005 0.04508,-0.0634 -0.129616,-0.0876 -0.184129,-0.0894 -0.142752,-0.004 -0.282747,0.0345 -0.422737,0.054 -0.08898,0.0761 0.106141,0.0936 0.157292,0.12155 0.121998,0.0366 0.248627,0.0641 0.375679,0.0695 0.08604,-0.0176 0.01659,-0.0809 -0.02252,-0.10253"
       style="fill:#000000;fill-rule:nonzero;stroke:none;stroke-width:1.27299" />
  </g>
</svg>
