<?xml version="1.0" encoding="UTF-8" standalone="no"?>
<!-- Created with Inkscape (http://www.inkscape.org/) -->

<svg
   width="6mm"
   height="10mm"
   viewBox="0 0 6.0000001 9.9999994"
   version="1.1"
   id="svg1681"
   inkscape:version="1.2.1 (9c6d41e410, 2022-07-14)"
   sodipodi:docname="lower u 1.5.svg"
   inkscape:export-filename="..\..\..\..\Downloads\lower a diff canvas resize 3.0.png"
   inkscape:export-xdpi="96"
   inkscape:export-ydpi="96"
   xmlns:inkscape="http://www.inkscape.org/namespaces/inkscape"
   xmlns:sodipodi="http://sodipodi.sourceforge.net/DTD/sodipodi-0.dtd"
   xmlns="http://www.w3.org/2000/svg"
   xmlns:svg="http://www.w3.org/2000/svg"
   xmlns:rdf="http://www.w3.org/1999/02/22-rdf-syntax-ns#"
   xmlns:cc="http://creativecommons.org/ns#"
   xmlns:dc="http://purl.org/dc/elements/1.1/">
  <defs
     id="defs1675">
    <inkscape:path-effect
       effect="powerstroke"
       id="path-effect789"
       is_visible="true"
       lpeversion="1"
       offset_points="2.5056095,0.11399361"
       not_jump="true"
       sort_points="true"
       interpolator_type="CentripetalCatmullRom"
       interpolator_beta="0.75"
       start_linecap_type="round"
       linejoin_type="spiro"
       miter_limit="4"
       scale_width="1"
       end_linecap_type="round" />
    <inkscape:path-effect
       effect="simplify"
       id="path-effect787"
       is_visible="true"
       lpeversion="1"
       steps="1"
       threshold="0.0035951417"
       smooth_angles="0"
       helper_size="0"
       simplify_individual_paths="false"
       simplify_just_coalesce="false"
       step="1" />
    <inkscape:path-effect
       effect="powerstroke"
       id="path-effect782"
       is_visible="true"
       lpeversion="1"
       offset_points="4.0068635,0.078839942 | 8.5318756,0.10467948"
       not_jump="true"
       sort_points="true"
       interpolator_type="CentripetalCatmullRom"
       interpolator_beta="0.75"
       start_linecap_type="round"
       linejoin_type="spiro"
       miter_limit="4"
       scale_width="1"
       end_linecap_type="round" />
    <inkscape:path-effect
       effect="simplify"
       id="path-effect780"
       is_visible="true"
       lpeversion="1"
       steps="1"
       threshold="0.0035951417"
       smooth_angles="0"
       helper_size="0"
       simplify_individual_paths="false"
       simplify_just_coalesce="false"
       step="1" />
    <inkscape:path-effect
       effect="powerstroke"
       id="path-effect502"
       is_visible="true"
       lpeversion="1"
       offset_points="3.0091841,0.21607495 | 7.3602657,0.17554228 | 9.4159651,0.20236537"
       not_jump="true"
       sort_points="true"
       interpolator_type="CentripetalCatmullRom"
       interpolator_beta="0.75"
       start_linecap_type="round"
       linejoin_type="spiro"
       miter_limit="4"
       scale_width="1"
       end_linecap_type="round" />
    <inkscape:path-effect
       effect="simplify"
       id="path-effect500"
       is_visible="true"
       lpeversion="1"
       steps="1"
       threshold="0.0035951417"
       smooth_angles="0"
       helper_size="0"
       simplify_individual_paths="false"
       simplify_just_coalesce="false"
       step="1" />
    <inkscape:path-effect
       effect="powerstroke"
       id="path-effect241"
       is_visible="true"
       lpeversion="1"
       offset_points="2.6879454,0.34086734"
       not_jump="true"
       sort_points="true"
       interpolator_type="CentripetalCatmullRom"
       interpolator_beta="0.75"
       start_linecap_type="round"
       linejoin_type="spiro"
       miter_limit="4"
       scale_width="1"
       end_linecap_type="round" />
    <inkscape:path-effect
       effect="simplify"
       id="path-effect239"
       is_visible="true"
       lpeversion="1"
       steps="1"
       threshold="0.0028332064"
       smooth_angles="0"
       helper_size="0"
       simplify_individual_paths="false"
       simplify_just_coalesce="false"
       step="1" />
    <inkscape:path-effect
       effect="powerstroke"
       id="path-effect234"
       is_visible="true"
       lpeversion="1"
       offset_points="2.13563,0.075169555"
       not_jump="true"
       sort_points="true"
       interpolator_type="CentripetalCatmullRom"
       interpolator_beta="0.75"
       start_linecap_type="round"
       linejoin_type="spiro"
       miter_limit="4"
       scale_width="1"
       end_linecap_type="round" />
    <inkscape:path-effect
       effect="simplify"
       id="path-effect232"
       is_visible="true"
       lpeversion="1"
       steps="1"
       threshold="0.0028332064"
       smooth_angles="0"
       helper_size="0"
       simplify_individual_paths="false"
       simplify_just_coalesce="false"
       step="1" />
    <inkscape:path-effect
       effect="powerstroke"
       id="path-effect227"
       is_visible="true"
       lpeversion="1"
       offset_points="2.1868266,0.075169555"
       not_jump="true"
       sort_points="true"
       interpolator_type="CentripetalCatmullRom"
       interpolator_beta="0.75"
       start_linecap_type="round"
       linejoin_type="spiro"
       miter_limit="4"
       scale_width="1"
       end_linecap_type="round" />
    <inkscape:path-effect
       effect="simplify"
       id="path-effect225"
       is_visible="true"
       lpeversion="1"
       steps="1"
       threshold="0.0028332064"
       smooth_angles="0"
       helper_size="0"
       simplify_individual_paths="false"
       simplify_just_coalesce="false"
       step="1" />
    <inkscape:path-effect
       effect="powerstroke"
       id="path-effect166"
       is_visible="true"
       lpeversion="1"
       offset_points="1.9637935,0.075169555"
       not_jump="true"
       sort_points="true"
       interpolator_type="CentripetalCatmullRom"
       interpolator_beta="0.75"
       start_linecap_type="round"
       linejoin_type="spiro"
       miter_limit="4"
       scale_width="1"
       end_linecap_type="round" />
    <inkscape:path-effect
       effect="simplify"
       id="path-effect164"
       is_visible="true"
       lpeversion="1"
       steps="1"
       threshold="0.0028332064"
       smooth_angles="0"
       helper_size="0"
       simplify_individual_paths="false"
       simplify_just_coalesce="false"
       step="1" />
    <inkscape:path-effect
       effect="powerstroke"
       id="path-effect159"
       is_visible="true"
       lpeversion="1"
       offset_points="2.2611036,0.075169555"
       not_jump="true"
       sort_points="true"
       interpolator_type="CentripetalCatmullRom"
       interpolator_beta="0.75"
       start_linecap_type="round"
       linejoin_type="spiro"
       miter_limit="4"
       scale_width="1"
       end_linecap_type="round" />
    <inkscape:path-effect
       effect="simplify"
       id="path-effect157"
       is_visible="true"
       lpeversion="1"
       steps="1"
       threshold="0.0028332064"
       smooth_angles="0"
       helper_size="0"
       simplify_individual_paths="false"
       simplify_just_coalesce="false"
       step="1" />
    <inkscape:path-effect
       effect="powerstroke"
       id="path-effect152"
       is_visible="true"
       lpeversion="1"
       offset_points="2.826981,0.075169555"
       not_jump="true"
       sort_points="true"
       interpolator_type="CentripetalCatmullRom"
       interpolator_beta="0.75"
       start_linecap_type="round"
       linejoin_type="spiro"
       miter_limit="4"
       scale_width="1"
       end_linecap_type="round" />
    <inkscape:path-effect
       effect="simplify"
       id="path-effect150"
       is_visible="true"
       lpeversion="1"
       steps="1"
       threshold="0.0028332064"
       smooth_angles="0"
       helper_size="0"
       simplify_individual_paths="false"
       simplify_just_coalesce="false"
       step="1" />
    <inkscape:path-effect
       effect="powerstroke"
       id="path-effect145"
       is_visible="true"
       lpeversion="1"
       offset_points="3.8374447,0.075169555"
       not_jump="true"
       sort_points="true"
       interpolator_type="CentripetalCatmullRom"
       interpolator_beta="0.75"
       start_linecap_type="round"
       linejoin_type="spiro"
       miter_limit="4"
       scale_width="1"
       end_linecap_type="round" />
    <inkscape:path-effect
       effect="simplify"
       id="path-effect143"
       is_visible="true"
       lpeversion="1"
       steps="1"
       threshold="0.0028332064"
       smooth_angles="0"
       helper_size="0"
       simplify_individual_paths="false"
       simplify_just_coalesce="false"
       step="1" />
    <inkscape:path-effect
       effect="powerstroke"
       id="path-effect138"
       is_visible="true"
       lpeversion="1"
       offset_points="2.6880907,0.075169555"
       not_jump="true"
       sort_points="true"
       interpolator_type="CentripetalCatmullRom"
       interpolator_beta="0.75"
       start_linecap_type="round"
       linejoin_type="spiro"
       miter_limit="4"
       scale_width="1"
       end_linecap_type="round" />
    <inkscape:path-effect
       effect="simplify"
       id="path-effect136"
       is_visible="true"
       lpeversion="1"
       steps="1"
       threshold="0.0028332064"
       smooth_angles="0"
       helper_size="0"
       simplify_individual_paths="false"
       simplify_just_coalesce="false"
       step="1" />
    <inkscape:path-effect
       effect="powerstroke"
       id="path-effect131"
       is_visible="true"
       lpeversion="1"
       offset_points="1.9940581,0.075169555"
       not_jump="true"
       sort_points="true"
       interpolator_type="CentripetalCatmullRom"
       interpolator_beta="0.75"
       start_linecap_type="round"
       linejoin_type="spiro"
       miter_limit="4"
       scale_width="1"
       end_linecap_type="round" />
    <inkscape:path-effect
       effect="simplify"
       id="path-effect129"
       is_visible="true"
       lpeversion="1"
       steps="1"
       threshold="0.0028332064"
       smooth_angles="0"
       helper_size="0"
       simplify_individual_paths="false"
       simplify_just_coalesce="false"
       step="1" />
  </defs>
  <sodipodi:namedview
     id="base"
     pagecolor="#ffffff"
     bordercolor="#666666"
     borderopacity="1.0"
     inkscape:pageopacity="0.0"
     inkscape:pageshadow="2"
     inkscape:zoom="7.919596"
     inkscape:cx="-5.3033008"
     inkscape:cy="20.834396"
     inkscape:document-units="mm"
     inkscape:current-layer="layer1"
     showgrid="false"
     fit-margin-top="0"
     fit-margin-left="0"
     fit-margin-right="0"
     fit-margin-bottom="0"
     inkscape:window-width="1920"
     inkscape:window-height="974"
     inkscape:window-x="-11"
     inkscape:window-y="2869"
     inkscape:window-maximized="1"
     showguides="true"
     inkscape:guide-bbox="true"
     inkscape:snap-bbox="true"
     inkscape:bbox-nodes="true"
     inkscape:snap-nodes="false"
     inkscape:snap-others="false"
     inkscape:snap-page="true"
     inkscape:snap-grids="false"
     inkscape:snap-to-guides="false"
     inkscape:snap-global="false"
     inkscape:pagecheckerboard="0"
     inkscape:showpageshadow="2"
     inkscape:deskcolor="#d1d1d1">
    <sodipodi:guide
       position="-6.1806075,9.4988692"
       orientation="0,1"
       id="guide816"
       inkscape:locked="false" />
    <sodipodi:guide
       position="-4.4101636,10.646923"
       orientation="0,1"
       id="guide818"
       inkscape:locked="false" />
    <sodipodi:guide
       position="2.7595724,11.09577"
       orientation="1,0"
       id="guide820"
       inkscape:locked="false" />
    <sodipodi:guide
       position="3.6572659,10.942217"
       orientation="1,0"
       id="guide822"
       inkscape:locked="false" />
    <sodipodi:guide
       position="-0.051625511,9.7492299"
       orientation="1,0"
       id="guide1853"
       inkscape:locked="false" />
    <sodipodi:guide
       position="-2.3720169,3.0175835"
       orientation="0,1"
       id="guide1855"
       inkscape:locked="false" />
  </sodipodi:namedview>
  <metadata
     id="metadata1678">
    <rdf:RDF>
      <cc:Work
         rdf:about="">
        <dc:format>image/svg+xml</dc:format>
        <dc:type
           rdf:resource="http://purl.org/dc/dcmitype/StillImage" />
      </cc:Work>
    </rdf:RDF>
  </metadata>
  <g
     inkscape:label="Layer 1"
     inkscape:groupmode="layer"
     id="layer1"
     transform="translate(17.028496,-147.22856)">
    <path
       d="m -14.362912,151.00821 c -0.07031,0.14454 -0.134538,0.33412 -0.164456,0.59036 -0.02146,0.18377 -0.02291,0.37793 -0.01073,0.59702 0.01363,0.20804 0.03113,0.47671 0.05625,0.73376 0.01782,0.15914 0.04318,0.32595 0.08398,0.4921 0.0347,0.14132 0.08575,0.30369 0.165469,0.46709 0.02601,0.0545 0.06739,0.11409 0.12603,0.16107 0.02723,0.0218 0.05892,0.0414 0.09497,0.0559 0.03465,0.0139 0.07319,0.0229 0.114867,0.0243 0.04879,0.004 0.10206,-0.001 0.152874,-0.0156 0.04902,-0.0137 0.09484,-0.0348 0.137089,-0.0609 0.08087,-0.0498 0.149885,-0.11817 0.20499,-0.18854 0.05553,-0.0726 0.101038,-0.14884 0.142503,-0.22643 0.04006,-0.075 0.07638,-0.1513 0.113,-0.2244 0.21442,-0.44595 0.353339,-0.91803 0.478246,-1.39751 0.03719,-0.14105 0.0709,-0.27248 0.107739,-0.41262 0.0081,-0.01 0.01527,-0.0204 0.02154,-0.0312 0.01264,-0.0217 0.0215,-0.0446 0.02717,-0.0674 0.01129,-0.0455 0.01031,-0.0926 -1.6e-5,-0.13566 -0.01038,-0.0434 -0.03105,-0.0861 -0.06279,-0.12156 -0.01608,-0.0179 -0.03516,-0.0342 -0.05724,-0.0473 -0.02225,-0.0133 -0.04702,-0.0231 -0.07379,-0.0286 -0.0061,-0.001 -0.01232,-0.002 -0.01855,-0.002 -0.01966,-7.2e-4 -0.03893,0.001 -0.05752,0.006 -0.01868,0.005 -0.03586,0.0115 -0.05145,0.0202 -0.03129,0.0173 -0.05463,0.0405 -0.07229,0.0636 -0.01766,0.0232 -0.03058,0.0479 -0.04003,0.0706 -0.0097,0.0233 -0.01653,0.0465 -0.02121,0.0676 -0.02117,0.0795 -0.03138,0.16314 -0.03836,0.2385 -0.0074,0.0805 -0.01183,0.15534 -0.01997,0.22373 -0.0511,0.71574 -0.0025,1.38686 0.0785,1.96397 0.04819,0.29891 0.107476,0.53527 0.158719,0.71065 a 0.11399361,0.11399361 90 0 0 0.218838,-0.0639 c -0.04898,-0.16763 -0.105995,-0.39471 -0.152132,-0.68071 -0.07911,-0.56357 -0.126193,-1.21807 -0.07703,-1.9084 0.0087,-0.072 0.01315,-0.14931 0.02008,-0.2243 0.0066,-0.0714 0.01545,-0.14014 0.03281,-0.20559 0.0033,-0.0145 0.0064,-0.0247 0.01027,-0.034 0.0039,-0.009 0.0077,-0.0159 0.01088,-0.02 0.0029,-0.004 0.0039,-0.004 0.0015,-0.002 -0.0013,7.1e-4 -0.0031,0.001 -0.0052,0.002 -0.0022,5.2e-4 -0.0039,6e-4 -0.0047,5.7e-4 -0.0014,-5e-5 -0.0028,-6e-5 -0.0041,9e-5 -0.0014,1.4e-4 -0.0027,4e-4 -0.0041,5.5e-4 -0.0014,1.4e-4 -0.0028,1.3e-4 -0.0041,-2e-4 -0.0013,-3.2e-4 -0.0026,-9.8e-4 -0.0037,-0.002 9.41e-4,5.7e-4 0.0024,0.002 0.0042,0.004 0.0039,0.004 0.0084,0.012 0.01089,0.0225 0.0025,0.0105 0.0023,0.0204 4.4e-4,0.0277 -8.62e-4,0.003 -0.002,0.006 -0.0029,0.008 -0.003,0.005 -0.0061,0.0102 -0.0098,0.0149 -0.0037,0.005 -0.0077,0.009 -0.01161,0.0136 -0.0039,0.005 -0.0075,0.009 -0.01022,0.0146 -0.0027,0.005 -0.0045,0.011 -0.006,0.0168 -0.03778,0.14318 -0.07737,0.29761 -0.115157,0.4408 -0.124232,0.47688 -0.258731,0.93131 -0.462365,1.35486 -0.03864,0.0771 -0.07118,0.14583 -0.109421,0.21739 -0.03823,0.0716 -0.0772,0.13613 -0.121734,0.19438 -0.0425,0.0543 -0.09223,0.10189 -0.144272,0.13395 -0.02671,0.0164 -0.05302,0.0282 -0.07867,0.0353 -0.02628,0.007 -0.05224,0.01 -0.07822,0.008 -0.01911,-7.8e-4 -0.03155,-0.004 -0.04353,-0.008 -0.01266,-0.005 -0.02517,-0.0125 -0.03725,-0.0222 -0.02678,-0.0215 -0.04853,-0.0514 -0.06324,-0.0822 -0.07104,-0.14562 -0.117285,-0.29165 -0.149383,-0.42237 -0.03769,-0.15348 -0.06166,-0.30991 -0.07865,-0.46151 -0.02453,-0.25119 -0.04181,-0.51617 -0.05542,-0.72377 -0.01166,-0.20981 -0.0099,-0.39009 0.0096,-0.55679 0.02691,-0.23049 0.0838,-0.39532 0.143025,-0.51708 a 0.11399361,0.11399361 90 0 0 -0.205018,-0.0997 z"
       id="path-1"
       inkscape:path-effect="#path-effect787;#path-effect789"
       inkscape:original-d="m -14.260403,151.05807 c -0.243488,0.50426 -0.167419,1.07918 -0.129144,1.61751 0.02421,0.35646 0.07458,0.71801 0.208879,1.05144 0.04894,0.11734 0.106843,0.25283 0.246191,0.28251 0.224735,0.0486 0.411906,-0.14659 0.516962,-0.32229 0.235816,-0.411 0.404872,-0.85652 0.533053,-1.31188 0.07935,-0.27464 0.148545,-0.55205 0.221474,-0.82843 0.133654,-0.12509 -0.05606,-0.39358 -0.170534,-0.18916 -0.05927,0.1508 -0.05458,0.31837 -0.07505,0.4777 -0.04978,0.6458 -0.01641,1.29672 0.06989,1.93791 0.03832,0.24606 0.09088,0.49004 0.160735,0.72912"
       style="fill:#000000;fill-rule:nonzero;stroke:none;stroke-width:1.22855" />
  </g>
</svg>
