<?xml version="1.0" encoding="UTF-8" standalone="no"?>
<!-- Created with Inkscape (http://www.inkscape.org/) -->

<svg
   width="6mm"
   height="10mm"
   viewBox="0 0 6.0000001 9.9999994"
   version="1.1"
   id="svg1681"
   inkscape:version="1.2.1 (9c6d41e410, 2022-07-14)"
   sodipodi:docname="lower u 1.3.svg"
   inkscape:export-filename="..\..\..\..\Downloads\lower a diff canvas resize 3.0.png"
   inkscape:export-xdpi="96"
   inkscape:export-ydpi="96"
   xmlns:inkscape="http://www.inkscape.org/namespaces/inkscape"
   xmlns:sodipodi="http://sodipodi.sourceforge.net/DTD/sodipodi-0.dtd"
   xmlns="http://www.w3.org/2000/svg"
   xmlns:svg="http://www.w3.org/2000/svg"
   xmlns:rdf="http://www.w3.org/1999/02/22-rdf-syntax-ns#"
   xmlns:cc="http://creativecommons.org/ns#"
   xmlns:dc="http://purl.org/dc/elements/1.1/">
  <defs
     id="defs1675">
    <inkscape:path-effect
       effect="powerstroke"
       id="path-effect634"
       is_visible="true"
       lpeversion="1"
       offset_points="1.9805624,0.067342995 | 10.96106,0.10563607"
       not_jump="true"
       sort_points="true"
       interpolator_type="CentripetalCatmullRom"
       interpolator_beta="0.75"
       start_linecap_type="round"
       linejoin_type="spiro"
       miter_limit="4"
       scale_width="1"
       end_linecap_type="round" />
    <inkscape:path-effect
       effect="simplify"
       id="path-effect632"
       is_visible="true"
       lpeversion="1"
       steps="1"
       threshold="0.0035951417"
       smooth_angles="0"
       helper_size="0"
       simplify_individual_paths="false"
       simplify_just_coalesce="false"
       step="1" />
    <inkscape:path-effect
       effect="powerstroke"
       id="path-effect627"
       is_visible="true"
       lpeversion="1"
       offset_points="0.91810096,0.035235728"
       not_jump="true"
       sort_points="true"
       interpolator_type="CentripetalCatmullRom"
       interpolator_beta="0.75"
       start_linecap_type="round"
       linejoin_type="spiro"
       miter_limit="4"
       scale_width="1"
       end_linecap_type="round" />
    <inkscape:path-effect
       effect="simplify"
       id="path-effect625"
       is_visible="true"
       lpeversion="1"
       steps="1"
       threshold="0.0035951417"
       smooth_angles="0"
       helper_size="0"
       simplify_individual_paths="false"
       simplify_just_coalesce="false"
       step="1" />
    <inkscape:path-effect
       effect="powerstroke"
       id="path-effect620"
       is_visible="true"
       lpeversion="1"
       offset_points="1.9790031,0.082657145 | 7.4917504,0.10321132"
       not_jump="true"
       sort_points="true"
       interpolator_type="CentripetalCatmullRom"
       interpolator_beta="0.75"
       start_linecap_type="round"
       linejoin_type="spiro"
       miter_limit="4"
       scale_width="1"
       end_linecap_type="round" />
    <inkscape:path-effect
       effect="simplify"
       id="path-effect618"
       is_visible="true"
       lpeversion="1"
       steps="1"
       threshold="0.0035951417"
       smooth_angles="0"
       helper_size="0"
       simplify_individual_paths="false"
       simplify_just_coalesce="false"
       step="1" />
    <inkscape:path-effect
       effect="powerstroke"
       id="path-effect502"
       is_visible="true"
       lpeversion="1"
       offset_points="3.0091841,0.21607495 | 7.3602657,0.17554228 | 9.4159651,0.20236537"
       not_jump="true"
       sort_points="true"
       interpolator_type="CentripetalCatmullRom"
       interpolator_beta="0.75"
       start_linecap_type="round"
       linejoin_type="spiro"
       miter_limit="4"
       scale_width="1"
       end_linecap_type="round" />
    <inkscape:path-effect
       effect="simplify"
       id="path-effect500"
       is_visible="true"
       lpeversion="1"
       steps="1"
       threshold="0.0035951417"
       smooth_angles="0"
       helper_size="0"
       simplify_individual_paths="false"
       simplify_just_coalesce="false"
       step="1" />
    <inkscape:path-effect
       effect="powerstroke"
       id="path-effect241"
       is_visible="true"
       lpeversion="1"
       offset_points="2.6879454,0.34086734"
       not_jump="true"
       sort_points="true"
       interpolator_type="CentripetalCatmullRom"
       interpolator_beta="0.75"
       start_linecap_type="round"
       linejoin_type="spiro"
       miter_limit="4"
       scale_width="1"
       end_linecap_type="round" />
    <inkscape:path-effect
       effect="simplify"
       id="path-effect239"
       is_visible="true"
       lpeversion="1"
       steps="1"
       threshold="0.0028332064"
       smooth_angles="0"
       helper_size="0"
       simplify_individual_paths="false"
       simplify_just_coalesce="false"
       step="1" />
    <inkscape:path-effect
       effect="powerstroke"
       id="path-effect234"
       is_visible="true"
       lpeversion="1"
       offset_points="2.13563,0.075169555"
       not_jump="true"
       sort_points="true"
       interpolator_type="CentripetalCatmullRom"
       interpolator_beta="0.75"
       start_linecap_type="round"
       linejoin_type="spiro"
       miter_limit="4"
       scale_width="1"
       end_linecap_type="round" />
    <inkscape:path-effect
       effect="simplify"
       id="path-effect232"
       is_visible="true"
       lpeversion="1"
       steps="1"
       threshold="0.0028332064"
       smooth_angles="0"
       helper_size="0"
       simplify_individual_paths="false"
       simplify_just_coalesce="false"
       step="1" />
    <inkscape:path-effect
       effect="powerstroke"
       id="path-effect227"
       is_visible="true"
       lpeversion="1"
       offset_points="2.1868266,0.075169555"
       not_jump="true"
       sort_points="true"
       interpolator_type="CentripetalCatmullRom"
       interpolator_beta="0.75"
       start_linecap_type="round"
       linejoin_type="spiro"
       miter_limit="4"
       scale_width="1"
       end_linecap_type="round" />
    <inkscape:path-effect
       effect="simplify"
       id="path-effect225"
       is_visible="true"
       lpeversion="1"
       steps="1"
       threshold="0.0028332064"
       smooth_angles="0"
       helper_size="0"
       simplify_individual_paths="false"
       simplify_just_coalesce="false"
       step="1" />
    <inkscape:path-effect
       effect="powerstroke"
       id="path-effect166"
       is_visible="true"
       lpeversion="1"
       offset_points="1.9637935,0.075169555"
       not_jump="true"
       sort_points="true"
       interpolator_type="CentripetalCatmullRom"
       interpolator_beta="0.75"
       start_linecap_type="round"
       linejoin_type="spiro"
       miter_limit="4"
       scale_width="1"
       end_linecap_type="round" />
    <inkscape:path-effect
       effect="simplify"
       id="path-effect164"
       is_visible="true"
       lpeversion="1"
       steps="1"
       threshold="0.0028332064"
       smooth_angles="0"
       helper_size="0"
       simplify_individual_paths="false"
       simplify_just_coalesce="false"
       step="1" />
    <inkscape:path-effect
       effect="powerstroke"
       id="path-effect159"
       is_visible="true"
       lpeversion="1"
       offset_points="2.2611036,0.075169555"
       not_jump="true"
       sort_points="true"
       interpolator_type="CentripetalCatmullRom"
       interpolator_beta="0.75"
       start_linecap_type="round"
       linejoin_type="spiro"
       miter_limit="4"
       scale_width="1"
       end_linecap_type="round" />
    <inkscape:path-effect
       effect="simplify"
       id="path-effect157"
       is_visible="true"
       lpeversion="1"
       steps="1"
       threshold="0.0028332064"
       smooth_angles="0"
       helper_size="0"
       simplify_individual_paths="false"
       simplify_just_coalesce="false"
       step="1" />
    <inkscape:path-effect
       effect="powerstroke"
       id="path-effect152"
       is_visible="true"
       lpeversion="1"
       offset_points="2.826981,0.075169555"
       not_jump="true"
       sort_points="true"
       interpolator_type="CentripetalCatmullRom"
       interpolator_beta="0.75"
       start_linecap_type="round"
       linejoin_type="spiro"
       miter_limit="4"
       scale_width="1"
       end_linecap_type="round" />
    <inkscape:path-effect
       effect="simplify"
       id="path-effect150"
       is_visible="true"
       lpeversion="1"
       steps="1"
       threshold="0.0028332064"
       smooth_angles="0"
       helper_size="0"
       simplify_individual_paths="false"
       simplify_just_coalesce="false"
       step="1" />
    <inkscape:path-effect
       effect="powerstroke"
       id="path-effect145"
       is_visible="true"
       lpeversion="1"
       offset_points="3.8374447,0.075169555"
       not_jump="true"
       sort_points="true"
       interpolator_type="CentripetalCatmullRom"
       interpolator_beta="0.75"
       start_linecap_type="round"
       linejoin_type="spiro"
       miter_limit="4"
       scale_width="1"
       end_linecap_type="round" />
    <inkscape:path-effect
       effect="simplify"
       id="path-effect143"
       is_visible="true"
       lpeversion="1"
       steps="1"
       threshold="0.0028332064"
       smooth_angles="0"
       helper_size="0"
       simplify_individual_paths="false"
       simplify_just_coalesce="false"
       step="1" />
    <inkscape:path-effect
       effect="powerstroke"
       id="path-effect138"
       is_visible="true"
       lpeversion="1"
       offset_points="2.6880907,0.075169555"
       not_jump="true"
       sort_points="true"
       interpolator_type="CentripetalCatmullRom"
       interpolator_beta="0.75"
       start_linecap_type="round"
       linejoin_type="spiro"
       miter_limit="4"
       scale_width="1"
       end_linecap_type="round" />
    <inkscape:path-effect
       effect="simplify"
       id="path-effect136"
       is_visible="true"
       lpeversion="1"
       steps="1"
       threshold="0.0028332064"
       smooth_angles="0"
       helper_size="0"
       simplify_individual_paths="false"
       simplify_just_coalesce="false"
       step="1" />
    <inkscape:path-effect
       effect="powerstroke"
       id="path-effect131"
       is_visible="true"
       lpeversion="1"
       offset_points="1.9940581,0.075169555"
       not_jump="true"
       sort_points="true"
       interpolator_type="CentripetalCatmullRom"
       interpolator_beta="0.75"
       start_linecap_type="round"
       linejoin_type="spiro"
       miter_limit="4"
       scale_width="1"
       end_linecap_type="round" />
    <inkscape:path-effect
       effect="simplify"
       id="path-effect129"
       is_visible="true"
       lpeversion="1"
       steps="1"
       threshold="0.0028332064"
       smooth_angles="0"
       helper_size="0"
       simplify_individual_paths="false"
       simplify_just_coalesce="false"
       step="1" />
  </defs>
  <sodipodi:namedview
     id="base"
     pagecolor="#ffffff"
     bordercolor="#666666"
     borderopacity="1.0"
     inkscape:pageopacity="0.0"
     inkscape:pageshadow="2"
     inkscape:zoom="7.919596"
     inkscape:cx="-5.3033008"
     inkscape:cy="20.834396"
     inkscape:document-units="mm"
     inkscape:current-layer="layer1"
     showgrid="false"
     fit-margin-top="0"
     fit-margin-left="0"
     fit-margin-right="0"
     fit-margin-bottom="0"
     inkscape:window-width="1920"
     inkscape:window-height="974"
     inkscape:window-x="-11"
     inkscape:window-y="2869"
     inkscape:window-maximized="1"
     showguides="true"
     inkscape:guide-bbox="true"
     inkscape:snap-bbox="true"
     inkscape:bbox-nodes="true"
     inkscape:snap-nodes="false"
     inkscape:snap-others="false"
     inkscape:snap-page="true"
     inkscape:snap-grids="false"
     inkscape:snap-to-guides="false"
     inkscape:snap-global="false"
     inkscape:pagecheckerboard="0"
     inkscape:showpageshadow="2"
     inkscape:deskcolor="#d1d1d1">
    <sodipodi:guide
       position="-6.1806075,9.4988692"
       orientation="0,1"
       id="guide816"
       inkscape:locked="false" />
    <sodipodi:guide
       position="-4.4101636,10.646923"
       orientation="0,1"
       id="guide818"
       inkscape:locked="false" />
    <sodipodi:guide
       position="2.7595724,11.09577"
       orientation="1,0"
       id="guide820"
       inkscape:locked="false" />
    <sodipodi:guide
       position="3.6572659,10.942217"
       orientation="1,0"
       id="guide822"
       inkscape:locked="false" />
    <sodipodi:guide
       position="-0.051625511,9.7492299"
       orientation="1,0"
       id="guide1853"
       inkscape:locked="false" />
    <sodipodi:guide
       position="-2.3720169,3.0175835"
       orientation="0,1"
       id="guide1855"
       inkscape:locked="false" />
  </sodipodi:namedview>
  <metadata
     id="metadata1678">
    <rdf:RDF>
      <cc:Work
         rdf:about="">
        <dc:format>image/svg+xml</dc:format>
        <dc:type
           rdf:resource="http://purl.org/dc/dcmitype/StillImage" />
      </cc:Work>
    </rdf:RDF>
  </metadata>
  <g
     inkscape:label="Layer 1"
     inkscape:groupmode="layer"
     id="layer1"
     transform="translate(17.028496,-147.22856)">
    <path
       d="m -14.66841,150.03008 c -0.0049,0.0329 -0.0051,0.0722 0.0059,0.116 0.0083,0.033 0.02246,0.0663 0.04289,0.0997 0.01739,0.0284 0.03866,0.0557 0.0632,0.0822 0.02203,0.0238 0.04604,0.0461 0.07107,0.0672 0.03752,0.0357 0.08365,0.0717 0.119127,0.11015 0.01651,0.0179 0.03026,0.0358 0.04038,0.0543 0.0089,0.0163 0.01506,0.0332 0.01785,0.0515 2.34e-4,0.002 4.46e-4,0.003 6.35e-4,0.005 0.0031,0.0309 -2.74e-4,0.0643 -0.01027,0.10192 -0.0093,0.035 -0.02305,0.0697 -0.04076,0.11183 -0.01515,0.0361 -0.03481,0.0811 -0.04928,0.12591 -0.01327,0.0411 -0.02429,0.0878 -0.02554,0.13892 -0.07415,0.3298 -0.144529,0.6942 -0.178561,1.06619 -0.03202,0.34998 -0.03333,0.71974 0.02858,1.09417 0.03061,0.16504 0.08436,0.33632 0.170121,0.49374 0.0826,0.15163 0.196154,0.29257 0.348677,0.39837 0.02894,0.0166 0.05806,0.0388 0.09541,0.0605 0.01809,0.0105 0.03954,0.0214 0.0636,0.029 0.02431,0.008 0.05212,0.0123 0.08255,0.01 0.06571,-0.0124 0.118078,-0.0337 0.165323,-0.0618 0.047,-0.028 0.0885,-0.0626 0.125291,-0.10025 0.07316,-0.075 0.129988,-0.16489 0.175443,-0.24665 0.133452,-0.24265 0.268009,-0.48486 0.389334,-0.73464 0.123401,-0.25406 0.231367,-0.51249 0.309531,-0.78244 0.0768,-0.26019 0.121993,-0.52015 0.123223,-0.7764 -0.0013,-0.0274 -0.0016,-0.0511 -0.0026,-0.0767 -9.58e-4,-0.0261 -0.0027,-0.0549 -0.0072,-0.0841 -0.0048,-0.0305 -0.01281,-0.0626 -0.02713,-0.0942 -0.01359,-0.0299 -0.03225,-0.0579 -0.05712,-0.0827 -0.02454,-0.0319 -0.05624,-0.0532 -0.08854,-0.0652 -0.03738,-0.0139 -0.07715,-0.016 -0.113518,-0.008 -0.01952,0.005 -0.03851,0.0122 -0.05597,0.0232 -0.0184,0.0116 -0.03468,0.0266 -0.04778,0.0447 -0.01387,0.0192 -0.02328,0.0405 -0.02851,0.0627 -0.0038,0.016 -0.0053,0.0319 -0.005,0.0475 1.15e-4,0.007 6.05e-4,0.0144 0.0014,0.0215 0.01909,0.6606 0.124365,1.2507 0.354589,1.76913 0.120609,0.26405 0.252104,0.44269 0.335908,0.54579 a 0.10563607,0.10563607 90 0 0 0.163946,-0.13326 c -0.07564,-0.0931 -0.195127,-0.25721 -0.305657,-0.49992 -0.215018,-0.48471 -0.317393,-1.04515 -0.338161,-1.69763 -8.84e-4,-0.009 -9.61e-4,-0.008 -0.0016,-0.006 -9.05e-4,0.003 -0.0027,0.008 -0.0061,0.0123 -0.0031,0.004 -0.0067,0.007 -0.0103,0.009 -0.0033,0.002 -0.0062,0.003 -0.0082,0.003 -0.0036,6.1e-4 -0.0051,-2.8e-4 -0.0058,-7.8e-4 l 0.01307,0.0146 c 0.0077,0.007 0.01384,0.0142 0.01898,0.0245 0.0052,0.0103 0.0096,0.0237 0.01295,0.0417 0.0033,0.0176 0.0053,0.0372 0.0068,0.0608 0.0015,0.0224 0.0025,0.0471 0.0048,0.0737 0.0014,0.22705 -0.03703,0.46913 -0.106989,0.71743 -0.07288,0.25715 -0.174814,0.50594 -0.293935,0.75485 -0.117459,0.24543 -0.248096,0.48389 -0.380926,0.72879 -0.04114,0.0772 -0.08782,0.15222 -0.144019,0.21188 -0.02782,0.0295 -0.05733,0.0546 -0.08887,0.0742 -0.03145,0.0195 -0.06524,0.0338 -0.102124,0.0416 0.0036,-3.4e-4 -0.0015,-2.6e-4 -0.0097,-0.002 -0.0085,-0.002 -0.01877,-0.006 -0.03158,-0.0129 -0.02535,-0.0132 -0.05587,-0.0349 -0.09334,-0.0535 -0.120996,-0.0829 -0.220401,-0.20242 -0.295217,-0.33677 -0.07779,-0.13969 -0.128452,-0.29464 -0.157896,-0.44571 -0.06049,-0.35677 -0.06107,-0.71337 -0.03118,-1.05488 0.03201,-0.36574 0.100291,-0.72601 0.173253,-1.05538 0.0011,-0.005 0.0018,-0.0104 0.0017,-0.0156 -4.55e-4,-0.035 0.0064,-0.0696 0.0173,-0.10507 0.01162,-0.0378 0.02772,-0.0762 0.0436,-0.11538 0.01734,-0.0428 0.0339,-0.0853 0.04529,-0.13029 0.0127,-0.0502 0.01804,-0.10013 0.01239,-0.1517 -5.79e-4,-0.005 -0.001,-0.007 -0.0015,-0.0104 -0.0059,-0.0357 -0.01825,-0.0672 -0.03372,-0.0949 -0.01723,-0.0309 -0.0386,-0.0574 -0.05982,-0.0801 -0.04634,-0.0497 -0.09413,-0.0863 -0.128115,-0.11854 -0.02454,-0.0209 -0.04434,-0.0395 -0.06183,-0.0585 -0.01946,-0.0212 -0.03496,-0.0416 -0.04687,-0.0613 -0.01389,-0.023 -0.02222,-0.0439 -0.02682,-0.0626 -0.006,-0.0246 -0.0057,-0.0458 -0.0031,-0.0635 a 0.06734299,0.06734299 90 0 0 -0.133192,-0.02 z"
       id="path-1"
       inkscape:path-effect="#path-effect632;#path-effect634"
       inkscape:original-d="m -14.601814,150.04008 c -0.02687,0.23421 0.240859,0.32201 0.340584,0.49545 0.08755,0.19272 -0.102402,0.36962 -0.101446,0.56717 -0.157205,0.70377 -0.268065,1.43858 -0.143804,2.15646 0.07435,0.37256 0.277905,0.76106 0.648917,0.90759 0.282918,-0.0419 0.399428,-0.33739 0.522596,-0.55731 0.277184,-0.5015 0.540094,-1.02446 0.654644,-1.59041 0.03372,-0.20365 0.06538,-0.41523 0.03573,-0.62046 -0.005,-0.13357 -0.217656,-0.27138 -0.217661,-0.0595 0.02225,0.58502 0.10723,1.18088 0.347563,1.71973 0.08498,0.18631 0.191298,0.36333 0.32056,0.52236"
       style="fill:#000000;fill-rule:nonzero;stroke:none;stroke-width:1.28485" />
  </g>
</svg>
