<?xml version="1.0" encoding="UTF-8" standalone="no"?>
<!-- Created with Inkscape (http://www.inkscape.org/) -->

<svg
   width="6mm"
   height="10mm"
   viewBox="0 0 6.0000001 9.9999994"
   version="1.1"
   id="svg1681"
   inkscape:version="1.2.1 (9c6d41e410, 2022-07-14)"
   sodipodi:docname="lower q 1.1.svg"
   inkscape:export-filename="..\..\..\..\Downloads\lower a diff canvas resize 3.0.png"
   inkscape:export-xdpi="96"
   inkscape:export-ydpi="96"
   xmlns:inkscape="http://www.inkscape.org/namespaces/inkscape"
   xmlns:sodipodi="http://sodipodi.sourceforge.net/DTD/sodipodi-0.dtd"
   xmlns="http://www.w3.org/2000/svg"
   xmlns:svg="http://www.w3.org/2000/svg"
   xmlns:rdf="http://www.w3.org/1999/02/22-rdf-syntax-ns#"
   xmlns:cc="http://creativecommons.org/ns#"
   xmlns:dc="http://purl.org/dc/elements/1.1/">
  <defs
     id="defs1675">
    <inkscape:path-effect
       effect="powerstroke"
       id="path-effect2676"
       is_visible="true"
       lpeversion="1"
       offset_points="2.9741161,0.12110922 | 5.0809583,0.097365664 | 8.2746354,0.12537964"
       not_jump="true"
       sort_points="true"
       interpolator_type="CentripetalCatmullRom"
       interpolator_beta="0.75"
       start_linecap_type="round"
       linejoin_type="spiro"
       miter_limit="4"
       scale_width="1"
       end_linecap_type="round" />
    <inkscape:path-effect
       effect="simplify"
       id="path-effect2674"
       is_visible="true"
       lpeversion="1"
       steps="1"
       threshold="0.0035951417"
       smooth_angles="0"
       helper_size="0"
       simplify_individual_paths="false"
       simplify_just_coalesce="false"
       step="1" />
    <inkscape:path-effect
       effect="powerstroke"
       id="path-effect2669"
       is_visible="true"
       lpeversion="1"
       offset_points="1.9997838,0.086474349 | 3.6799468,0.071939612 | 9.7724461,0.098219592"
       not_jump="true"
       sort_points="true"
       interpolator_type="CentripetalCatmullRom"
       interpolator_beta="0.75"
       start_linecap_type="round"
       linejoin_type="spiro"
       miter_limit="4"
       scale_width="1"
       end_linecap_type="round" />
    <inkscape:path-effect
       effect="simplify"
       id="path-effect2667"
       is_visible="true"
       lpeversion="1"
       steps="1"
       threshold="0.0035951417"
       smooth_angles="0"
       helper_size="0"
       simplify_individual_paths="false"
       simplify_just_coalesce="false"
       step="1" />
    <inkscape:path-effect
       effect="powerstroke"
       id="path-effect502"
       is_visible="true"
       lpeversion="1"
       offset_points="3.0091841,0.21607495 | 7.3602657,0.17554228 | 9.4159651,0.20236537"
       not_jump="true"
       sort_points="true"
       interpolator_type="CentripetalCatmullRom"
       interpolator_beta="0.75"
       start_linecap_type="round"
       linejoin_type="spiro"
       miter_limit="4"
       scale_width="1"
       end_linecap_type="round" />
    <inkscape:path-effect
       effect="simplify"
       id="path-effect500"
       is_visible="true"
       lpeversion="1"
       steps="1"
       threshold="0.0035951417"
       smooth_angles="0"
       helper_size="0"
       simplify_individual_paths="false"
       simplify_just_coalesce="false"
       step="1" />
    <inkscape:path-effect
       effect="powerstroke"
       id="path-effect241"
       is_visible="true"
       lpeversion="1"
       offset_points="2.6879454,0.34086734"
       not_jump="true"
       sort_points="true"
       interpolator_type="CentripetalCatmullRom"
       interpolator_beta="0.75"
       start_linecap_type="round"
       linejoin_type="spiro"
       miter_limit="4"
       scale_width="1"
       end_linecap_type="round" />
    <inkscape:path-effect
       effect="simplify"
       id="path-effect239"
       is_visible="true"
       lpeversion="1"
       steps="1"
       threshold="0.0028332064"
       smooth_angles="0"
       helper_size="0"
       simplify_individual_paths="false"
       simplify_just_coalesce="false"
       step="1" />
    <inkscape:path-effect
       effect="powerstroke"
       id="path-effect234"
       is_visible="true"
       lpeversion="1"
       offset_points="2.13563,0.075169555"
       not_jump="true"
       sort_points="true"
       interpolator_type="CentripetalCatmullRom"
       interpolator_beta="0.75"
       start_linecap_type="round"
       linejoin_type="spiro"
       miter_limit="4"
       scale_width="1"
       end_linecap_type="round" />
    <inkscape:path-effect
       effect="simplify"
       id="path-effect232"
       is_visible="true"
       lpeversion="1"
       steps="1"
       threshold="0.0028332064"
       smooth_angles="0"
       helper_size="0"
       simplify_individual_paths="false"
       simplify_just_coalesce="false"
       step="1" />
    <inkscape:path-effect
       effect="powerstroke"
       id="path-effect227"
       is_visible="true"
       lpeversion="1"
       offset_points="2.1868266,0.075169555"
       not_jump="true"
       sort_points="true"
       interpolator_type="CentripetalCatmullRom"
       interpolator_beta="0.75"
       start_linecap_type="round"
       linejoin_type="spiro"
       miter_limit="4"
       scale_width="1"
       end_linecap_type="round" />
    <inkscape:path-effect
       effect="simplify"
       id="path-effect225"
       is_visible="true"
       lpeversion="1"
       steps="1"
       threshold="0.0028332064"
       smooth_angles="0"
       helper_size="0"
       simplify_individual_paths="false"
       simplify_just_coalesce="false"
       step="1" />
    <inkscape:path-effect
       effect="powerstroke"
       id="path-effect166"
       is_visible="true"
       lpeversion="1"
       offset_points="1.9637935,0.075169555"
       not_jump="true"
       sort_points="true"
       interpolator_type="CentripetalCatmullRom"
       interpolator_beta="0.75"
       start_linecap_type="round"
       linejoin_type="spiro"
       miter_limit="4"
       scale_width="1"
       end_linecap_type="round" />
    <inkscape:path-effect
       effect="simplify"
       id="path-effect164"
       is_visible="true"
       lpeversion="1"
       steps="1"
       threshold="0.0028332064"
       smooth_angles="0"
       helper_size="0"
       simplify_individual_paths="false"
       simplify_just_coalesce="false"
       step="1" />
    <inkscape:path-effect
       effect="powerstroke"
       id="path-effect159"
       is_visible="true"
       lpeversion="1"
       offset_points="2.2611036,0.075169555"
       not_jump="true"
       sort_points="true"
       interpolator_type="CentripetalCatmullRom"
       interpolator_beta="0.75"
       start_linecap_type="round"
       linejoin_type="spiro"
       miter_limit="4"
       scale_width="1"
       end_linecap_type="round" />
    <inkscape:path-effect
       effect="simplify"
       id="path-effect157"
       is_visible="true"
       lpeversion="1"
       steps="1"
       threshold="0.0028332064"
       smooth_angles="0"
       helper_size="0"
       simplify_individual_paths="false"
       simplify_just_coalesce="false"
       step="1" />
    <inkscape:path-effect
       effect="powerstroke"
       id="path-effect152"
       is_visible="true"
       lpeversion="1"
       offset_points="2.826981,0.075169555"
       not_jump="true"
       sort_points="true"
       interpolator_type="CentripetalCatmullRom"
       interpolator_beta="0.75"
       start_linecap_type="round"
       linejoin_type="spiro"
       miter_limit="4"
       scale_width="1"
       end_linecap_type="round" />
    <inkscape:path-effect
       effect="simplify"
       id="path-effect150"
       is_visible="true"
       lpeversion="1"
       steps="1"
       threshold="0.0028332064"
       smooth_angles="0"
       helper_size="0"
       simplify_individual_paths="false"
       simplify_just_coalesce="false"
       step="1" />
    <inkscape:path-effect
       effect="powerstroke"
       id="path-effect145"
       is_visible="true"
       lpeversion="1"
       offset_points="3.8374447,0.075169555"
       not_jump="true"
       sort_points="true"
       interpolator_type="CentripetalCatmullRom"
       interpolator_beta="0.75"
       start_linecap_type="round"
       linejoin_type="spiro"
       miter_limit="4"
       scale_width="1"
       end_linecap_type="round" />
    <inkscape:path-effect
       effect="simplify"
       id="path-effect143"
       is_visible="true"
       lpeversion="1"
       steps="1"
       threshold="0.0028332064"
       smooth_angles="0"
       helper_size="0"
       simplify_individual_paths="false"
       simplify_just_coalesce="false"
       step="1" />
    <inkscape:path-effect
       effect="powerstroke"
       id="path-effect138"
       is_visible="true"
       lpeversion="1"
       offset_points="2.6880907,0.075169555"
       not_jump="true"
       sort_points="true"
       interpolator_type="CentripetalCatmullRom"
       interpolator_beta="0.75"
       start_linecap_type="round"
       linejoin_type="spiro"
       miter_limit="4"
       scale_width="1"
       end_linecap_type="round" />
    <inkscape:path-effect
       effect="simplify"
       id="path-effect136"
       is_visible="true"
       lpeversion="1"
       steps="1"
       threshold="0.0028332064"
       smooth_angles="0"
       helper_size="0"
       simplify_individual_paths="false"
       simplify_just_coalesce="false"
       step="1" />
    <inkscape:path-effect
       effect="powerstroke"
       id="path-effect131"
       is_visible="true"
       lpeversion="1"
       offset_points="1.9940581,0.075169555"
       not_jump="true"
       sort_points="true"
       interpolator_type="CentripetalCatmullRom"
       interpolator_beta="0.75"
       start_linecap_type="round"
       linejoin_type="spiro"
       miter_limit="4"
       scale_width="1"
       end_linecap_type="round" />
    <inkscape:path-effect
       effect="simplify"
       id="path-effect129"
       is_visible="true"
       lpeversion="1"
       steps="1"
       threshold="0.0028332064"
       smooth_angles="0"
       helper_size="0"
       simplify_individual_paths="false"
       simplify_just_coalesce="false"
       step="1" />
  </defs>
  <sodipodi:namedview
     id="base"
     pagecolor="#ffffff"
     bordercolor="#666666"
     borderopacity="1.0"
     inkscape:pageopacity="0.0"
     inkscape:pageshadow="2"
     inkscape:zoom="7.919596"
     inkscape:cx="-5.3033008"
     inkscape:cy="20.834396"
     inkscape:document-units="mm"
     inkscape:current-layer="layer1"
     showgrid="false"
     fit-margin-top="0"
     fit-margin-left="0"
     fit-margin-right="0"
     fit-margin-bottom="0"
     inkscape:window-width="1920"
     inkscape:window-height="974"
     inkscape:window-x="-11"
     inkscape:window-y="2869"
     inkscape:window-maximized="1"
     showguides="true"
     inkscape:guide-bbox="true"
     inkscape:snap-bbox="true"
     inkscape:bbox-nodes="true"
     inkscape:snap-nodes="false"
     inkscape:snap-others="false"
     inkscape:snap-page="true"
     inkscape:snap-grids="false"
     inkscape:snap-to-guides="false"
     inkscape:snap-global="false"
     inkscape:pagecheckerboard="0"
     inkscape:showpageshadow="2"
     inkscape:deskcolor="#d1d1d1">
    <sodipodi:guide
       position="-6.1806075,9.4988692"
       orientation="0,1"
       id="guide816"
       inkscape:locked="false" />
    <sodipodi:guide
       position="-4.4101636,10.646923"
       orientation="0,1"
       id="guide818"
       inkscape:locked="false" />
    <sodipodi:guide
       position="2.7595724,11.09577"
       orientation="1,0"
       id="guide820"
       inkscape:locked="false" />
    <sodipodi:guide
       position="3.6572659,10.942217"
       orientation="1,0"
       id="guide822"
       inkscape:locked="false" />
    <sodipodi:guide
       position="-0.051625511,9.7492299"
       orientation="1,0"
       id="guide1853"
       inkscape:locked="false" />
    <sodipodi:guide
       position="-2.3720169,3.0175835"
       orientation="0,1"
       id="guide1855"
       inkscape:locked="false" />
  </sodipodi:namedview>
  <metadata
     id="metadata1678">
    <rdf:RDF>
      <cc:Work
         rdf:about="">
        <dc:format>image/svg+xml</dc:format>
        <dc:type
           rdf:resource="http://purl.org/dc/dcmitype/StillImage" />
      </cc:Work>
    </rdf:RDF>
  </metadata>
  <g
     inkscape:label="Layer 1"
     inkscape:groupmode="layer"
     id="layer1"
     transform="translate(17.028496,-147.22856)">
    <path
       d="m -13.062122,151.40125 c -0.03679,-0.0214 -0.08458,-0.0413 -0.14377,-0.0497 -0.04448,-0.006 -0.09234,-0.006 -0.142536,0.003 -0.08297,0.0149 -0.168328,0.0523 -0.243111,0.10887 -0.07656,0.0562 -0.141423,0.1249 -0.200295,0.19802 -0.05518,0.0685 -0.107408,0.14418 -0.153772,0.20756 -0.133414,0.19373 -0.241204,0.39412 -0.319427,0.59935 -0.08354,0.21917 -0.128529,0.43106 -0.140965,0.63236 -5.56e-4,0.009 -0.001,0.018 -0.0015,0.027 -0.01053,0.0564 -0.0085,0.11232 0.0019,0.16359 0.0117,0.0577 0.03441,0.11172 0.06509,0.15862 0.03178,0.0486 0.073,0.0909 0.121962,0.12259 0.05009,0.0324 0.108096,0.0536 0.171366,0.0587 0.07357,0.008 0.147441,0.003 0.218647,-0.0108 0.06984,-0.0136 0.137418,-0.0364 0.202195,-0.0658 0.122132,-0.0555 0.236671,-0.1357 0.340356,-0.22745 0.02923,-0.0245 0.05955,-0.052 0.08902,-0.0808 0.149268,-0.14615 0.272116,-0.32332 0.357644,-0.51925 0.09906,-0.22693 0.149344,-0.48241 0.127342,-0.7424 -0.0041,-0.0978 -0.02961,-0.20555 -0.08081,-0.30307 -0.02498,-0.0476 -0.05651,-0.0935 -0.09536,-0.13464 -0.03812,-0.0404 -0.08354,-0.0765 -0.136433,-0.10465 -0.0042,-0.002 -0.0084,-0.004 -0.01289,-0.006 -0.0045,-0.002 -0.0091,-0.003 -0.01363,-0.004 -0.02173,-0.005 -0.04388,-0.008 -0.06607,-0.007 -0.02196,6.8e-4 -0.04323,0.004 -0.06346,0.0109 -0.03983,0.0127 -0.07355,0.035 -0.100551,0.0614 -0.02631,0.0257 -0.04713,0.0561 -0.06235,0.088 -0.01487,0.0312 -0.02524,0.0656 -0.02947,0.10106 -0.0061,0.0322 -0.01045,0.0713 -0.01338,0.10941 -0.0023,0.03 -0.0038,0.0596 -0.0053,0.0899 -0.0029,0.0606 -0.0054,0.12103 -0.01428,0.17784 -0.02109,0.18141 -0.05225,0.35558 -0.08785,0.54807 -0.0326,0.17629 -0.06886,0.36759 -0.09404,0.55807 -0.09431,0.61288 -0.168228,1.25685 -0.134088,1.9042 0.0095,0.0759 0.03429,0.13497 0.06925,0.18492 0.03506,0.0501 0.07994,0.0905 0.128809,0.12113 0.04956,0.031 0.104349,0.0527 0.160244,0.0645 0.05703,0.012 0.116465,0.014 0.174356,0.004 0.06919,-0.008 0.139295,-0.0272 0.203867,-0.0525 0.06653,-0.0261 0.127852,-0.0589 0.183877,-0.0938 0.116103,-0.0724 0.22424,-0.1643 0.307588,-0.23452 0.117831,-0.10635 0.342263,-0.33921 0.371492,-0.36836 a 0.12537964,0.12537964 90 0 0 -0.177074,-0.17756 c -0.04488,0.0448 -0.246567,0.25369 -0.360091,0.35528 -0.08336,0.0696 -0.177765,0.14879 -0.275966,0.20962 -0.04624,0.0286 -0.0936,0.0534 -0.14244,0.0724 -0.04716,0.0183 -0.09584,0.0313 -0.146709,0.0371 -0.0307,0.005 -0.05793,0.004 -0.08583,-0.002 -0.02737,-0.006 -0.05391,-0.0166 -0.07719,-0.0313 -0.02295,-0.0145 -0.0415,-0.0321 -0.05477,-0.0512 -0.01294,-0.0186 -0.02114,-0.0391 -0.02398,-0.0614 -0.03146,-0.61087 0.03935,-1.23398 0.133106,-1.84466 0.02442,-0.18522 0.05908,-0.36933 0.0918,-0.54798 0.03525,-0.19242 0.06748,-0.37456 0.08846,-0.56111 0.01015,-0.0693 0.01205,-0.14474 0.01376,-0.20137 9.23e-4,-0.0306 0.0017,-0.0568 0.0032,-0.0832 0.0018,-0.0331 0.0044,-0.0637 0.0086,-0.0931 0.0012,-0.0152 0.003,-0.0243 0.0063,-0.0333 0.0034,-0.009 0.0075,-0.0163 0.01115,-0.0212 0.0038,-0.005 0.0054,-0.006 0.0055,-0.007 3.5e-5,-0.001 5e-5,-0.003 -2.17e-4,-0.004 -2.68e-4,-0.001 -8.19e-4,-0.002 -0.0016,-0.003 -8.32e-4,-9.8e-4 -0.0019,-0.002 -0.0031,-0.002 -0.0012,-4.6e-4 -0.0025,-6.6e-4 -0.0038,-7e-4 -0.0026,-9e-5 -0.0051,3.3e-4 -0.0077,1.5e-4 -0.0026,-1.8e-4 -0.005,-0.001 -0.0073,-0.002 0.03017,0.0143 0.05736,0.0335 0.08158,0.0568 0.02478,0.0238 0.04649,0.052 0.06482,0.0832 0.03796,0.0648 0.06006,0.1407 0.06613,0.2145 0.02226,0.22564 -0.018,0.44829 -0.103847,0.64901 -0.07406,0.17315 -0.181851,0.32974 -0.313327,0.45802 -0.02591,0.0253 -0.05255,0.0493 -0.07981,0.072 -0.09519,0.0829 -0.194362,0.14822 -0.294617,0.19006 -0.05285,0.0221 -0.105527,0.0374 -0.157626,0.0455 -0.05295,0.008 -0.105687,0.009 -0.158078,0.001 -0.02701,-0.004 -0.04945,-0.0142 -0.06922,-0.0292 -0.0197,-0.0149 -0.03754,-0.0353 -0.05158,-0.0599 -0.01366,-0.0239 -0.02342,-0.0511 -0.02783,-0.0794 -0.0042,-0.027 -0.0034,-0.0538 0.0027,-0.0783 0.0017,-0.007 0.0025,-0.014 0.0029,-0.0212 5.45e-4,-0.0104 0.0012,-0.0209 0.0019,-0.0314 0.0124,-0.17578 0.05283,-0.36334 0.128684,-0.56044 0.07114,-0.18485 0.169565,-0.36783 0.291154,-0.54433 0.05045,-0.0687 0.09425,-0.133 0.144783,-0.19621 0.05091,-0.0637 0.100425,-0.11535 0.155199,-0.15608 0.04695,-0.0361 0.09676,-0.0573 0.139859,-0.0655 0.02544,-0.005 0.04721,-0.005 0.06524,-0.003 0.02361,0.003 0.04169,0.0107 0.05535,0.0186 a 0.12110922,0.12110922 90 0 0 0.121912,-0.2093 z"
       id="path-1"
       inkscape:path-effect="#path-effect2674;#path-effect2676"
       inkscape:original-d="m -13.123078,151.5059 c -0.195934,-0.10778 -0.40922,0.037 -0.533622,0.18678 -0.339992,0.40826 -0.604638,0.91058 -0.630351,1.44996 -0.03441,0.17058 0.06879,0.359 0.25083,0.38106 0.325057,0.038 0.611302,-0.18057 0.824583,-0.40189 0.278863,-0.30082 0.435037,-0.71687 0.397814,-1.1275 -0.0095,-0.17575 -0.09997,-0.36905 -0.262687,-0.45006 -0.195292,-0.0263 -0.184583,0.23702 -0.188606,0.36883 -0.02441,0.40471 -0.129054,0.79822 -0.183537,1.19908 -0.101292,0.64025 -0.176628,1.28874 -0.146942,1.93797 0.01388,0.19208 0.2165,0.30366 0.393811,0.27224 0.244965,-0.0299 0.443916,-0.19752 0.626657,-0.35048 0.12707,-0.11428 0.243251,-0.23982 0.364169,-0.36041"
       style="fill:#000000;fill-rule:nonzero;stroke:none;stroke-width:1.16348" />
  </g>
</svg>
