<?xml version="1.0" encoding="UTF-8" standalone="no"?>
<!-- Created with Inkscape (http://www.inkscape.org/) -->

<svg
   width="6mm"
   height="10mm"
   viewBox="0 0 6.0000001 9.9999994"
   version="1.1"
   id="svg1681"
   inkscape:version="1.2.1 (9c6d41e410, 2022-07-14)"
   sodipodi:docname="lower q 1.3.svg"
   inkscape:export-filename="..\..\..\..\Downloads\lower a diff canvas resize 3.0.png"
   inkscape:export-xdpi="96"
   inkscape:export-ydpi="96"
   xmlns:inkscape="http://www.inkscape.org/namespaces/inkscape"
   xmlns:sodipodi="http://sodipodi.sourceforge.net/DTD/sodipodi-0.dtd"
   xmlns="http://www.w3.org/2000/svg"
   xmlns:svg="http://www.w3.org/2000/svg"
   xmlns:rdf="http://www.w3.org/1999/02/22-rdf-syntax-ns#"
   xmlns:cc="http://creativecommons.org/ns#"
   xmlns:dc="http://purl.org/dc/elements/1.1/">
  <defs
     id="defs1675">
    <inkscape:path-effect
       effect="powerstroke"
       id="path-effect3682"
       is_visible="true"
       lpeversion="1"
       offset_points="3.8904756,0.13377089 | 6.8703686,0.088801104 | 8.1973727,0.13301191 | 15.11224,0.11422706"
       not_jump="true"
       sort_points="true"
       interpolator_type="CentripetalCatmullRom"
       interpolator_beta="0.75"
       start_linecap_type="round"
       linejoin_type="spiro"
       miter_limit="4"
       scale_width="1"
       end_linecap_type="round" />
    <inkscape:path-effect
       effect="simplify"
       id="path-effect3680"
       is_visible="true"
       lpeversion="1"
       steps="1"
       threshold="0.0035951417"
       smooth_angles="0"
       helper_size="0"
       simplify_individual_paths="false"
       simplify_just_coalesce="false"
       step="1" />
    <inkscape:path-effect
       effect="powerstroke"
       id="path-effect502"
       is_visible="true"
       lpeversion="1"
       offset_points="3.0091841,0.21607495 | 7.3602657,0.17554228 | 9.4159651,0.20236537"
       not_jump="true"
       sort_points="true"
       interpolator_type="CentripetalCatmullRom"
       interpolator_beta="0.75"
       start_linecap_type="round"
       linejoin_type="spiro"
       miter_limit="4"
       scale_width="1"
       end_linecap_type="round" />
    <inkscape:path-effect
       effect="simplify"
       id="path-effect500"
       is_visible="true"
       lpeversion="1"
       steps="1"
       threshold="0.0035951417"
       smooth_angles="0"
       helper_size="0"
       simplify_individual_paths="false"
       simplify_just_coalesce="false"
       step="1" />
    <inkscape:path-effect
       effect="powerstroke"
       id="path-effect241"
       is_visible="true"
       lpeversion="1"
       offset_points="2.6879454,0.34086734"
       not_jump="true"
       sort_points="true"
       interpolator_type="CentripetalCatmullRom"
       interpolator_beta="0.75"
       start_linecap_type="round"
       linejoin_type="spiro"
       miter_limit="4"
       scale_width="1"
       end_linecap_type="round" />
    <inkscape:path-effect
       effect="simplify"
       id="path-effect239"
       is_visible="true"
       lpeversion="1"
       steps="1"
       threshold="0.0028332064"
       smooth_angles="0"
       helper_size="0"
       simplify_individual_paths="false"
       simplify_just_coalesce="false"
       step="1" />
    <inkscape:path-effect
       effect="powerstroke"
       id="path-effect234"
       is_visible="true"
       lpeversion="1"
       offset_points="2.13563,0.075169555"
       not_jump="true"
       sort_points="true"
       interpolator_type="CentripetalCatmullRom"
       interpolator_beta="0.75"
       start_linecap_type="round"
       linejoin_type="spiro"
       miter_limit="4"
       scale_width="1"
       end_linecap_type="round" />
    <inkscape:path-effect
       effect="simplify"
       id="path-effect232"
       is_visible="true"
       lpeversion="1"
       steps="1"
       threshold="0.0028332064"
       smooth_angles="0"
       helper_size="0"
       simplify_individual_paths="false"
       simplify_just_coalesce="false"
       step="1" />
    <inkscape:path-effect
       effect="powerstroke"
       id="path-effect227"
       is_visible="true"
       lpeversion="1"
       offset_points="2.1868266,0.075169555"
       not_jump="true"
       sort_points="true"
       interpolator_type="CentripetalCatmullRom"
       interpolator_beta="0.75"
       start_linecap_type="round"
       linejoin_type="spiro"
       miter_limit="4"
       scale_width="1"
       end_linecap_type="round" />
    <inkscape:path-effect
       effect="simplify"
       id="path-effect225"
       is_visible="true"
       lpeversion="1"
       steps="1"
       threshold="0.0028332064"
       smooth_angles="0"
       helper_size="0"
       simplify_individual_paths="false"
       simplify_just_coalesce="false"
       step="1" />
    <inkscape:path-effect
       effect="powerstroke"
       id="path-effect166"
       is_visible="true"
       lpeversion="1"
       offset_points="1.9637935,0.075169555"
       not_jump="true"
       sort_points="true"
       interpolator_type="CentripetalCatmullRom"
       interpolator_beta="0.75"
       start_linecap_type="round"
       linejoin_type="spiro"
       miter_limit="4"
       scale_width="1"
       end_linecap_type="round" />
    <inkscape:path-effect
       effect="simplify"
       id="path-effect164"
       is_visible="true"
       lpeversion="1"
       steps="1"
       threshold="0.0028332064"
       smooth_angles="0"
       helper_size="0"
       simplify_individual_paths="false"
       simplify_just_coalesce="false"
       step="1" />
    <inkscape:path-effect
       effect="powerstroke"
       id="path-effect159"
       is_visible="true"
       lpeversion="1"
       offset_points="2.2611036,0.075169555"
       not_jump="true"
       sort_points="true"
       interpolator_type="CentripetalCatmullRom"
       interpolator_beta="0.75"
       start_linecap_type="round"
       linejoin_type="spiro"
       miter_limit="4"
       scale_width="1"
       end_linecap_type="round" />
    <inkscape:path-effect
       effect="simplify"
       id="path-effect157"
       is_visible="true"
       lpeversion="1"
       steps="1"
       threshold="0.0028332064"
       smooth_angles="0"
       helper_size="0"
       simplify_individual_paths="false"
       simplify_just_coalesce="false"
       step="1" />
    <inkscape:path-effect
       effect="powerstroke"
       id="path-effect152"
       is_visible="true"
       lpeversion="1"
       offset_points="2.826981,0.075169555"
       not_jump="true"
       sort_points="true"
       interpolator_type="CentripetalCatmullRom"
       interpolator_beta="0.75"
       start_linecap_type="round"
       linejoin_type="spiro"
       miter_limit="4"
       scale_width="1"
       end_linecap_type="round" />
    <inkscape:path-effect
       effect="simplify"
       id="path-effect150"
       is_visible="true"
       lpeversion="1"
       steps="1"
       threshold="0.0028332064"
       smooth_angles="0"
       helper_size="0"
       simplify_individual_paths="false"
       simplify_just_coalesce="false"
       step="1" />
    <inkscape:path-effect
       effect="powerstroke"
       id="path-effect145"
       is_visible="true"
       lpeversion="1"
       offset_points="3.8374447,0.075169555"
       not_jump="true"
       sort_points="true"
       interpolator_type="CentripetalCatmullRom"
       interpolator_beta="0.75"
       start_linecap_type="round"
       linejoin_type="spiro"
       miter_limit="4"
       scale_width="1"
       end_linecap_type="round" />
    <inkscape:path-effect
       effect="simplify"
       id="path-effect143"
       is_visible="true"
       lpeversion="1"
       steps="1"
       threshold="0.0028332064"
       smooth_angles="0"
       helper_size="0"
       simplify_individual_paths="false"
       simplify_just_coalesce="false"
       step="1" />
    <inkscape:path-effect
       effect="powerstroke"
       id="path-effect138"
       is_visible="true"
       lpeversion="1"
       offset_points="2.6880907,0.075169555"
       not_jump="true"
       sort_points="true"
       interpolator_type="CentripetalCatmullRom"
       interpolator_beta="0.75"
       start_linecap_type="round"
       linejoin_type="spiro"
       miter_limit="4"
       scale_width="1"
       end_linecap_type="round" />
    <inkscape:path-effect
       effect="simplify"
       id="path-effect136"
       is_visible="true"
       lpeversion="1"
       steps="1"
       threshold="0.0028332064"
       smooth_angles="0"
       helper_size="0"
       simplify_individual_paths="false"
       simplify_just_coalesce="false"
       step="1" />
    <inkscape:path-effect
       effect="powerstroke"
       id="path-effect131"
       is_visible="true"
       lpeversion="1"
       offset_points="1.9940581,0.075169555"
       not_jump="true"
       sort_points="true"
       interpolator_type="CentripetalCatmullRom"
       interpolator_beta="0.75"
       start_linecap_type="round"
       linejoin_type="spiro"
       miter_limit="4"
       scale_width="1"
       end_linecap_type="round" />
    <inkscape:path-effect
       effect="simplify"
       id="path-effect129"
       is_visible="true"
       lpeversion="1"
       steps="1"
       threshold="0.0028332064"
       smooth_angles="0"
       helper_size="0"
       simplify_individual_paths="false"
       simplify_just_coalesce="false"
       step="1" />
  </defs>
  <sodipodi:namedview
     id="base"
     pagecolor="#ffffff"
     bordercolor="#666666"
     borderopacity="1.0"
     inkscape:pageopacity="0.0"
     inkscape:pageshadow="2"
     inkscape:zoom="7.919596"
     inkscape:cx="-5.3033008"
     inkscape:cy="20.834396"
     inkscape:document-units="mm"
     inkscape:current-layer="layer1"
     showgrid="false"
     fit-margin-top="0"
     fit-margin-left="0"
     fit-margin-right="0"
     fit-margin-bottom="0"
     inkscape:window-width="1920"
     inkscape:window-height="974"
     inkscape:window-x="-11"
     inkscape:window-y="2869"
     inkscape:window-maximized="1"
     showguides="true"
     inkscape:guide-bbox="true"
     inkscape:snap-bbox="true"
     inkscape:bbox-nodes="true"
     inkscape:snap-nodes="false"
     inkscape:snap-others="false"
     inkscape:snap-page="true"
     inkscape:snap-grids="false"
     inkscape:snap-to-guides="false"
     inkscape:snap-global="false"
     inkscape:pagecheckerboard="0"
     inkscape:showpageshadow="2"
     inkscape:deskcolor="#d1d1d1">
    <sodipodi:guide
       position="-6.1806075,9.4988692"
       orientation="0,1"
       id="guide816"
       inkscape:locked="false" />
    <sodipodi:guide
       position="-4.4101636,10.646923"
       orientation="0,1"
       id="guide818"
       inkscape:locked="false" />
    <sodipodi:guide
       position="2.7595724,11.09577"
       orientation="1,0"
       id="guide820"
       inkscape:locked="false" />
    <sodipodi:guide
       position="3.6572659,10.942217"
       orientation="1,0"
       id="guide822"
       inkscape:locked="false" />
    <sodipodi:guide
       position="-0.051625511,9.7492299"
       orientation="1,0"
       id="guide1853"
       inkscape:locked="false" />
    <sodipodi:guide
       position="-2.3720169,3.0175835"
       orientation="0,1"
       id="guide1855"
       inkscape:locked="false" />
  </sodipodi:namedview>
  <metadata
     id="metadata1678">
    <rdf:RDF>
      <cc:Work
         rdf:about="">
        <dc:format>image/svg+xml</dc:format>
        <dc:type
           rdf:resource="http://purl.org/dc/dcmitype/StillImage" />
      </cc:Work>
    </rdf:RDF>
  </metadata>
  <g
     inkscape:label="Layer 1"
     inkscape:groupmode="layer"
     id="layer1"
     transform="translate(17.028496,-147.22856)">
    <path
       d="m -13.368405,152.01892 c 0.01699,-0.0304 0.03197,-0.0693 0.03879,-0.11575 0.0052,-0.0357 0.0058,-0.0776 -0.0031,-0.12137 -0.0077,-0.0378 -0.02325,-0.0803 -0.05196,-0.1195 -0.02663,-0.0364 -0.06447,-0.0695 -0.114858,-0.0903 -0.03963,-0.0138 -0.0707,-0.0175 -0.10025,-0.0165 -0.02764,8.9e-4 -0.05267,0.006 -0.0739,0.0114 -0.0202,0.005 -0.03898,0.0119 -0.05339,0.017 -0.0156,0.006 -0.0255,0.009 -0.03486,0.0118 -0.0045,0.001 -0.0088,0.003 -0.01315,0.005 -0.04817,0.0201 -0.09162,0.0459 -0.130883,0.0754 -0.03908,0.0293 -0.07379,0.062 -0.104822,0.096 -0.0596,0.0652 -0.108046,0.13762 -0.147759,0.202 -0.297772,0.35344 -0.514999,0.71784 -0.658229,1.07795 -0.01945,0.0489 -0.03779,0.0984 -0.05495,0.14852 -0.003,0.009 -0.0053,0.0178 -0.0064,0.027 -0.0058,0.0521 2.63e-4,0.10223 0.01516,0.14827 0.01478,0.0457 0.03789,0.0865 0.06598,0.12185 0.02805,0.0353 0.0614,0.0654 0.09753,0.0896 0.03636,0.0244 0.07623,0.0433 0.117647,0.0556 0.07437,0.0209 0.147421,0.0249 0.21516,0.0201 0.07065,-0.005 0.137854,-0.0198 0.197584,-0.0377 0.128206,-0.0391 0.238249,-0.0996 0.33263,-0.16461 0.07719,-0.0532 0.146895,-0.11137 0.20797,-0.16656 0.02388,-0.0216 0.04649,-0.0427 0.06713,-0.0623 0.215919,-0.21731 0.393606,-0.48222 0.528943,-0.7896 0.0017,-0.004 0.0032,-0.008 0.0043,-0.0118 0.0011,-0.004 0.0019,-0.008 0.0029,-0.0123 0.0081,-0.0335 0.01453,-0.0715 0.01737,-0.11316 0.0036,-0.0527 0.0019,-0.1154 -0.01192,-0.18161 -0.0098,-0.0473 -0.02623,-0.0981 -0.05252,-0.14819 -0.02291,-0.0436 -0.05365,-0.0872 -0.09439,-0.12659 -0.0257,-0.0286 -0.05736,-0.05 -0.09258,-0.0633 -0.03519,-0.0134 -0.07183,-0.0179 -0.106978,-0.0157 -0.03348,0.002 -0.06655,0.0105 -0.09721,0.0244 -0.02951,0.0133 -0.05827,0.0324 -0.08313,0.0577 -0.02121,0.0191 -0.04314,0.0462 -0.06099,0.075 -0.01737,0.028 -0.0306,0.057 -0.04077,0.0858 -0.01965,0.0556 -0.02841,0.11214 -0.03297,0.1617 -0.02816,0.16512 -0.0456,0.33858 -0.07395,0.50348 -0.0283,0.16464 -0.06679,0.31812 -0.135195,0.45928 -0.07686,0.16872 -0.14934,0.3261 -0.226314,0.4813 -0.08223,0.16712 -0.160807,0.33483 -0.220795,0.50987 -0.06373,0.18597 -0.103739,0.37274 -0.106075,0.56432 -4.2e-5,0.003 6e-6,0.007 2.72e-4,0.0103 0.0044,0.0559 0.02228,0.10562 0.04742,0.14752 0.02646,0.0441 0.0609,0.0797 0.09727,0.10711 0.0392,0.0296 0.08199,0.0508 0.124255,0.0646 0.04671,0.0153 0.09387,0.0218 0.138641,0.0207 0.03683,-0.003 0.06565,-0.007 0.09305,-0.0113 0.09965,-0.0169 0.192969,-0.0472 0.278712,-0.0825 0.116638,-0.048 0.227127,-0.10893 0.319539,-0.16169 0.168185,-0.0993 0.308707,-0.17668 0.384053,-0.22 a 0.11422706,0.11422706 90 0 0 -0.113866,-0.19806 c -0.07431,0.0427 -0.213387,0.1202 -0.384471,0.22139 -0.08964,0.0512 -0.18945,0.10581 -0.291803,0.14775 -0.07464,0.0306 -0.151285,0.0548 -0.229902,0.0678 -0.02157,0.004 -0.04398,0.006 -0.06714,0.008 -0.01144,-1.2e-4 -0.03229,-0.003 -0.05397,-0.0107 -0.01969,-0.007 -0.03898,-0.0171 -0.05574,-0.0305 -0.01558,-0.0124 -0.02799,-0.0267 -0.0364,-0.0418 -0.0069,-0.0124 -0.0112,-0.0255 -0.01257,-0.0395 0.0041,-0.1584 0.03917,-0.31756 0.09809,-0.48362 0.05641,-0.15898 0.130897,-0.31433 0.213556,-0.47775 0.08196,-0.15636 0.159564,-0.31546 0.239003,-0.48065 0.08453,-0.16967 0.130188,-0.35005 0.162163,-0.52558 0.03226,-0.1771 0.05135,-0.35075 0.08011,-0.51234 0.0061,-0.0472 0.01304,-0.0791 0.02319,-0.10522 0.0051,-0.013 0.01055,-0.0236 0.0163,-0.0322 0.0058,-0.009 0.01197,-0.0156 0.01856,-0.0213 0.0058,-0.005 0.0026,-0.005 -0.0024,-0.007 -0.0058,-0.002 -0.0115,-0.006 -0.0155,-0.0115 l 0.01148,0.012 c 0.01886,0.0172 0.03392,0.037 0.04595,0.0587 0.01329,0.0239 0.02294,0.0501 0.02962,0.0772 0.0094,0.038 0.01262,0.0764 0.01254,0.11113 -5.6e-5,0.0242 -0.0016,0.0471 -0.004,0.0679 -0.108721,0.28809 -0.229546,0.54308 -0.413353,0.74367 -0.01692,0.018 -0.0368,0.0382 -0.05827,0.0587 -0.05497,0.0524 -0.117485,0.10435 -0.186413,0.1498 -0.08444,0.0557 -0.178919,0.10194 -0.282331,0.12779 -0.04825,0.009 -0.101136,0.0141 -0.152641,0.0113 -0.04941,-0.003 -0.0956,-0.0122 -0.137093,-0.0298 -0.01654,-0.008 -0.0337,-0.0184 -0.04918,-0.0318 -0.0154,-0.0132 -0.02835,-0.0283 -0.03817,-0.0439 -0.0098,-0.0156 -0.01597,-0.031 -0.01901,-0.0454 -0.0019,-0.009 -0.0026,-0.0181 -0.0022,-0.0268 0.01504,-0.0414 0.03091,-0.0824 0.04757,-0.12299 0.136629,-0.3329 0.34199,-0.6738 0.626626,-1.00845 0.0045,-0.005 0.0085,-0.0109 0.01218,-0.0168 0.03851,-0.0619 0.078,-0.12019 0.122526,-0.16887 0.02169,-0.0237 0.04389,-0.0444 0.06694,-0.0618 0.02154,-0.0163 0.04376,-0.0296 0.06703,-0.0399 0.01528,-0.005 0.02983,-0.0106 0.0401,-0.0144 0.01426,-0.005 0.02333,-0.009 0.03156,-0.011 0.0043,-0.001 0.0082,-0.002 0.01242,-0.003 7.1e-4,-2.1e-4 -0.0023,-5.3e-4 -0.0046,-0.001 -0.0067,-0.002 -0.0041,0.003 -0.0022,0.0104 0.0021,0.009 0.0024,0.0191 0.0012,0.0284 -0.0015,0.0117 -0.0049,0.0195 -0.007,0.0232 a 0.13377089,0.13377089 90 0 0 0.233544,0.13052 z"
       id="path-1"
       inkscape:path-effect="#path-effect3680;#path-effect3682"
       inkscape:original-d="m -13.485177,151.95366 c 0.06801,-0.12345 -0.0074,-0.31804 -0.170963,-0.24759 -0.183641,0.0433 -0.298679,0.19933 -0.390749,0.34859 -0.298861,0.35229 -0.546499,0.75235 -0.699496,1.18959 -0.01907,0.17834 0.151481,0.30781 0.316689,0.3105 0.290626,0.0259 0.55084,-0.15022 0.755294,-0.33803 0.237109,-0.22794 0.399578,-0.52177 0.522572,-0.82341 0.03401,-0.16631 -0.0026,-0.38237 -0.155336,-0.47893 -0.136232,-0.0405 -0.227392,0.12363 -0.233474,0.2398 -0.06656,0.36281 -0.07455,0.74695 -0.253097,1.07905 -0.205503,0.4737 -0.520977,0.92694 -0.531269,1.46083 0.01198,0.15906 0.186922,0.25706 0.336427,0.22898 0.327862,-0.0488 0.601869,-0.25368 0.887467,-0.40655 0.02801,-0.0161 0.05595,-0.0324 0.08377,-0.0488"
       style="fill:#000000;fill-rule:nonzero;stroke:none;stroke-width:1.29241" />
  </g>
</svg>
