<?xml version="1.0" encoding="UTF-8" standalone="no"?>
<!-- Created with Inkscape (http://www.inkscape.org/) -->

<svg
   width="6mm"
   height="10mm"
   viewBox="0 0 6.0000001 9.9999994"
   version="1.1"
   id="svg1681"
   inkscape:version="1.2.1 (9c6d41e410, 2022-07-14)"
   sodipodi:docname="lower q 1.2.svg"
   inkscape:export-filename="..\..\..\..\Downloads\lower a diff canvas resize 3.0.png"
   inkscape:export-xdpi="96"
   inkscape:export-ydpi="96"
   xmlns:inkscape="http://www.inkscape.org/namespaces/inkscape"
   xmlns:sodipodi="http://sodipodi.sourceforge.net/DTD/sodipodi-0.dtd"
   xmlns="http://www.w3.org/2000/svg"
   xmlns:svg="http://www.w3.org/2000/svg"
   xmlns:rdf="http://www.w3.org/1999/02/22-rdf-syntax-ns#"
   xmlns:cc="http://creativecommons.org/ns#"
   xmlns:dc="http://purl.org/dc/elements/1.1/">
  <defs
     id="defs1675">
    <inkscape:path-effect
       effect="powerstroke"
       id="path-effect3641"
       is_visible="true"
       lpeversion="1"
       offset_points="2.5462388,0.10318895 | 6.5101393,0.088846083 | 10.547927,0.123508"
       not_jump="true"
       sort_points="true"
       interpolator_type="CentripetalCatmullRom"
       interpolator_beta="0.75"
       start_linecap_type="round"
       linejoin_type="spiro"
       miter_limit="4"
       scale_width="1"
       end_linecap_type="round" />
    <inkscape:path-effect
       effect="simplify"
       id="path-effect3639"
       is_visible="true"
       lpeversion="1"
       steps="1"
       threshold="0.0035951417"
       smooth_angles="0"
       helper_size="0"
       simplify_individual_paths="false"
       simplify_just_coalesce="false"
       step="1" />
    <inkscape:path-effect
       effect="powerstroke"
       id="path-effect502"
       is_visible="true"
       lpeversion="1"
       offset_points="3.0091841,0.21607495 | 7.3602657,0.17554228 | 9.4159651,0.20236537"
       not_jump="true"
       sort_points="true"
       interpolator_type="CentripetalCatmullRom"
       interpolator_beta="0.75"
       start_linecap_type="round"
       linejoin_type="spiro"
       miter_limit="4"
       scale_width="1"
       end_linecap_type="round" />
    <inkscape:path-effect
       effect="simplify"
       id="path-effect500"
       is_visible="true"
       lpeversion="1"
       steps="1"
       threshold="0.0035951417"
       smooth_angles="0"
       helper_size="0"
       simplify_individual_paths="false"
       simplify_just_coalesce="false"
       step="1" />
    <inkscape:path-effect
       effect="powerstroke"
       id="path-effect241"
       is_visible="true"
       lpeversion="1"
       offset_points="2.6879454,0.34086734"
       not_jump="true"
       sort_points="true"
       interpolator_type="CentripetalCatmullRom"
       interpolator_beta="0.75"
       start_linecap_type="round"
       linejoin_type="spiro"
       miter_limit="4"
       scale_width="1"
       end_linecap_type="round" />
    <inkscape:path-effect
       effect="simplify"
       id="path-effect239"
       is_visible="true"
       lpeversion="1"
       steps="1"
       threshold="0.0028332064"
       smooth_angles="0"
       helper_size="0"
       simplify_individual_paths="false"
       simplify_just_coalesce="false"
       step="1" />
    <inkscape:path-effect
       effect="powerstroke"
       id="path-effect234"
       is_visible="true"
       lpeversion="1"
       offset_points="2.13563,0.075169555"
       not_jump="true"
       sort_points="true"
       interpolator_type="CentripetalCatmullRom"
       interpolator_beta="0.75"
       start_linecap_type="round"
       linejoin_type="spiro"
       miter_limit="4"
       scale_width="1"
       end_linecap_type="round" />
    <inkscape:path-effect
       effect="simplify"
       id="path-effect232"
       is_visible="true"
       lpeversion="1"
       steps="1"
       threshold="0.0028332064"
       smooth_angles="0"
       helper_size="0"
       simplify_individual_paths="false"
       simplify_just_coalesce="false"
       step="1" />
    <inkscape:path-effect
       effect="powerstroke"
       id="path-effect227"
       is_visible="true"
       lpeversion="1"
       offset_points="2.1868266,0.075169555"
       not_jump="true"
       sort_points="true"
       interpolator_type="CentripetalCatmullRom"
       interpolator_beta="0.75"
       start_linecap_type="round"
       linejoin_type="spiro"
       miter_limit="4"
       scale_width="1"
       end_linecap_type="round" />
    <inkscape:path-effect
       effect="simplify"
       id="path-effect225"
       is_visible="true"
       lpeversion="1"
       steps="1"
       threshold="0.0028332064"
       smooth_angles="0"
       helper_size="0"
       simplify_individual_paths="false"
       simplify_just_coalesce="false"
       step="1" />
    <inkscape:path-effect
       effect="powerstroke"
       id="path-effect166"
       is_visible="true"
       lpeversion="1"
       offset_points="1.9637935,0.075169555"
       not_jump="true"
       sort_points="true"
       interpolator_type="CentripetalCatmullRom"
       interpolator_beta="0.75"
       start_linecap_type="round"
       linejoin_type="spiro"
       miter_limit="4"
       scale_width="1"
       end_linecap_type="round" />
    <inkscape:path-effect
       effect="simplify"
       id="path-effect164"
       is_visible="true"
       lpeversion="1"
       steps="1"
       threshold="0.0028332064"
       smooth_angles="0"
       helper_size="0"
       simplify_individual_paths="false"
       simplify_just_coalesce="false"
       step="1" />
    <inkscape:path-effect
       effect="powerstroke"
       id="path-effect159"
       is_visible="true"
       lpeversion="1"
       offset_points="2.2611036,0.075169555"
       not_jump="true"
       sort_points="true"
       interpolator_type="CentripetalCatmullRom"
       interpolator_beta="0.75"
       start_linecap_type="round"
       linejoin_type="spiro"
       miter_limit="4"
       scale_width="1"
       end_linecap_type="round" />
    <inkscape:path-effect
       effect="simplify"
       id="path-effect157"
       is_visible="true"
       lpeversion="1"
       steps="1"
       threshold="0.0028332064"
       smooth_angles="0"
       helper_size="0"
       simplify_individual_paths="false"
       simplify_just_coalesce="false"
       step="1" />
    <inkscape:path-effect
       effect="powerstroke"
       id="path-effect152"
       is_visible="true"
       lpeversion="1"
       offset_points="2.826981,0.075169555"
       not_jump="true"
       sort_points="true"
       interpolator_type="CentripetalCatmullRom"
       interpolator_beta="0.75"
       start_linecap_type="round"
       linejoin_type="spiro"
       miter_limit="4"
       scale_width="1"
       end_linecap_type="round" />
    <inkscape:path-effect
       effect="simplify"
       id="path-effect150"
       is_visible="true"
       lpeversion="1"
       steps="1"
       threshold="0.0028332064"
       smooth_angles="0"
       helper_size="0"
       simplify_individual_paths="false"
       simplify_just_coalesce="false"
       step="1" />
    <inkscape:path-effect
       effect="powerstroke"
       id="path-effect145"
       is_visible="true"
       lpeversion="1"
       offset_points="3.8374447,0.075169555"
       not_jump="true"
       sort_points="true"
       interpolator_type="CentripetalCatmullRom"
       interpolator_beta="0.75"
       start_linecap_type="round"
       linejoin_type="spiro"
       miter_limit="4"
       scale_width="1"
       end_linecap_type="round" />
    <inkscape:path-effect
       effect="simplify"
       id="path-effect143"
       is_visible="true"
       lpeversion="1"
       steps="1"
       threshold="0.0028332064"
       smooth_angles="0"
       helper_size="0"
       simplify_individual_paths="false"
       simplify_just_coalesce="false"
       step="1" />
    <inkscape:path-effect
       effect="powerstroke"
       id="path-effect138"
       is_visible="true"
       lpeversion="1"
       offset_points="2.6880907,0.075169555"
       not_jump="true"
       sort_points="true"
       interpolator_type="CentripetalCatmullRom"
       interpolator_beta="0.75"
       start_linecap_type="round"
       linejoin_type="spiro"
       miter_limit="4"
       scale_width="1"
       end_linecap_type="round" />
    <inkscape:path-effect
       effect="simplify"
       id="path-effect136"
       is_visible="true"
       lpeversion="1"
       steps="1"
       threshold="0.0028332064"
       smooth_angles="0"
       helper_size="0"
       simplify_individual_paths="false"
       simplify_just_coalesce="false"
       step="1" />
    <inkscape:path-effect
       effect="powerstroke"
       id="path-effect131"
       is_visible="true"
       lpeversion="1"
       offset_points="1.9940581,0.075169555"
       not_jump="true"
       sort_points="true"
       interpolator_type="CentripetalCatmullRom"
       interpolator_beta="0.75"
       start_linecap_type="round"
       linejoin_type="spiro"
       miter_limit="4"
       scale_width="1"
       end_linecap_type="round" />
    <inkscape:path-effect
       effect="simplify"
       id="path-effect129"
       is_visible="true"
       lpeversion="1"
       steps="1"
       threshold="0.0028332064"
       smooth_angles="0"
       helper_size="0"
       simplify_individual_paths="false"
       simplify_just_coalesce="false"
       step="1" />
  </defs>
  <sodipodi:namedview
     id="base"
     pagecolor="#ffffff"
     bordercolor="#666666"
     borderopacity="1.0"
     inkscape:pageopacity="0.0"
     inkscape:pageshadow="2"
     inkscape:zoom="7.919596"
     inkscape:cx="-5.3033008"
     inkscape:cy="20.834396"
     inkscape:document-units="mm"
     inkscape:current-layer="layer1"
     showgrid="false"
     fit-margin-top="0"
     fit-margin-left="0"
     fit-margin-right="0"
     fit-margin-bottom="0"
     inkscape:window-width="1920"
     inkscape:window-height="974"
     inkscape:window-x="-11"
     inkscape:window-y="2869"
     inkscape:window-maximized="1"
     showguides="true"
     inkscape:guide-bbox="true"
     inkscape:snap-bbox="true"
     inkscape:bbox-nodes="true"
     inkscape:snap-nodes="false"
     inkscape:snap-others="false"
     inkscape:snap-page="true"
     inkscape:snap-grids="false"
     inkscape:snap-to-guides="false"
     inkscape:snap-global="false"
     inkscape:pagecheckerboard="0"
     inkscape:showpageshadow="2"
     inkscape:deskcolor="#d1d1d1">
    <sodipodi:guide
       position="-6.1806075,9.4988692"
       orientation="0,1"
       id="guide816"
       inkscape:locked="false" />
    <sodipodi:guide
       position="-4.4101636,10.646923"
       orientation="0,1"
       id="guide818"
       inkscape:locked="false" />
    <sodipodi:guide
       position="2.7595724,11.09577"
       orientation="1,0"
       id="guide820"
       inkscape:locked="false" />
    <sodipodi:guide
       position="3.6572659,10.942217"
       orientation="1,0"
       id="guide822"
       inkscape:locked="false" />
    <sodipodi:guide
       position="-0.051625511,9.7492299"
       orientation="1,0"
       id="guide1853"
       inkscape:locked="false" />
    <sodipodi:guide
       position="-2.3720169,3.0175835"
       orientation="0,1"
       id="guide1855"
       inkscape:locked="false" />
  </sodipodi:namedview>
  <metadata
     id="metadata1678">
    <rdf:RDF>
      <cc:Work
         rdf:about="">
        <dc:format>image/svg+xml</dc:format>
        <dc:type
           rdf:resource="http://purl.org/dc/dcmitype/StillImage" />
      </cc:Work>
    </rdf:RDF>
  </metadata>
  <g
     inkscape:label="Layer 1"
     inkscape:groupmode="layer"
     id="layer1"
     transform="translate(17.028496,-147.22856)">
    <path
       d="m -13.191788,151.58163 c -0.164259,-0.006 -0.39372,0.0164 -0.655935,0.13448 -0.185252,0.0835 -0.37421,0.2097 -0.543153,0.38082 -0.113676,0.11615 -0.225678,0.25442 -0.31097,0.41477 -0.04458,0.10238 -0.06013,0.21035 -0.0471,0.31146 0.0013,0.01 0.0028,0.0194 0.0045,0.029 0.0078,0.0418 0.02093,0.0839 0.04081,0.12415 0.0238,0.0482 0.0572,0.0938 0.101888,0.13233 0.03156,0.0272 0.06644,0.0465 0.102776,0.0594 0.03529,0.0126 0.07103,0.0188 0.105484,0.0213 0.03378,0.002 0.06698,0.001 0.09823,-0.002 0.03077,-0.003 0.06056,-0.007 0.08767,-0.0116 0.266172,-0.0361 0.527763,-0.12757 0.763688,-0.26678 0.232712,-0.13731 0.44002,-0.32085 0.601199,-0.54192 0.025,-0.0367 0.04114,-0.0755 0.05022,-0.1151 0.0091,-0.0396 0.01133,-0.081 0.0062,-0.12147 -0.0052,-0.0406 -0.01786,-0.0811 -0.03943,-0.11789 -0.02182,-0.0373 -0.0524,-0.0702 -0.09193,-0.0948 -0.02761,-0.019 -0.0614,-0.0312 -0.09527,-0.036 -0.03398,-0.005 -0.06749,-0.002 -0.09843,0.006 -0.03327,0.009 -0.06148,0.0224 -0.0869,0.0397 -0.02613,0.0178 -0.05002,0.0405 -0.06929,0.0677 -0.04348,0.0641 -0.07976,0.11844 -0.12384,0.16681 -0.161084,0.22298 -0.275363,0.46056 -0.369734,0.70131 -0.09442,0.24088 -0.172204,0.4943 -0.248954,0.72801 -0.07295,0.21587 -0.125871,0.43043 -0.159743,0.64001 -0.01855,0.1224 -0.0272,0.24315 -0.02266,0.36166 4.51e-4,0.0118 0.001,0.0235 0.0017,0.0352 0.0066,0.10791 0.02474,0.21982 0.06055,0.33105 0.0014,0.004 0.0031,0.009 0.0051,0.013 0.022,0.0489 0.05133,0.0915 0.08548,0.12837 0.03416,0.0368 0.07263,0.0673 0.112595,0.0923 0.08237,0.0516 0.173036,0.0814 0.253443,0.0977 0.05844,0.0134 0.122937,0.0234 0.169471,0.0309 0.07605,0.0121 0.115789,0.0191 0.156399,0.0287 a 0.123508,0.123508 90 0 0 0.05658,-0.24044 c -0.05022,-0.0118 -0.09426,-0.02 -0.172545,-0.0333 -0.04858,-0.008 -0.104657,-0.0177 -0.156543,-0.0299 -0.06303,-0.0132 -0.123489,-0.0344 -0.173896,-0.066 -0.02399,-0.015 -0.04485,-0.0318 -0.06219,-0.0504 -0.01578,-0.0169 -0.02878,-0.0353 -0.03881,-0.0556 -0.02739,-0.0859 -0.04259,-0.17433 -0.04911,-0.26283 -7.26e-4,-0.01 -0.0014,-0.0198 -0.0019,-0.0297 -0.0053,-0.10077 -1.31e-4,-0.20636 0.01382,-0.31636 0.02661,-0.19649 0.06975,-0.40036 0.131869,-0.60722 0.07508,-0.24024 0.146339,-0.48531 0.23454,-0.72013 0.08733,-0.23249 0.191133,-0.45471 0.332209,-0.65579 0.04401,-0.0585 0.08305,-0.12902 0.117685,-0.18664 0.0037,-0.006 0.01125,-0.0144 0.02053,-0.0213 0.009,-0.007 0.01898,-0.0117 0.0289,-0.0148 0.01158,-0.003 0.02125,-0.004 0.02962,-0.003 0.0081,0.001 0.01544,0.004 0.02223,0.009 0.01694,0.0108 0.02757,0.0223 0.03548,0.0362 0.008,0.0141 0.01343,0.0311 0.01547,0.0502 0.002,0.019 5.98e-4,0.039 -0.0043,0.0583 -0.0049,0.0192 -0.01301,0.0367 -0.02333,0.0509 -0.145371,0.19688 -0.33454,0.36237 -0.54731,0.48591 -0.215741,0.12525 -0.453808,0.2063 -0.69528,0.23721 -0.02711,0.003 -0.05181,0.006 -0.07592,0.007 -0.02439,0.001 -0.04662,0.001 -0.06685,-9.8e-4 -0.02052,-0.002 -0.03785,-0.006 -0.05256,-0.0121 -0.01474,-0.006 -0.02733,-0.0136 -0.03846,-0.0238 -0.02202,-0.0196 -0.03883,-0.043 -0.05125,-0.069 -0.01046,-0.0219 -0.0179,-0.0459 -0.02241,-0.0712 -0.001,-0.006 -0.0019,-0.0117 -0.0026,-0.0177 -0.0078,-0.0637 0.0024,-0.13427 0.02907,-0.19551 0.07019,-0.1304 0.168482,-0.253 0.272227,-0.35946 0.150183,-0.15237 0.317775,-0.26425 0.480109,-0.3376 0.228637,-0.10331 0.425656,-0.12188 0.563337,-0.11687 a 0.10318895,0.10318895 90 0 0 0.0075,-0.20624 z"
       id="path-1"
       inkscape:path-effect="#path-effect3639;#path-effect3641"
       inkscape:original-d="m -13.19554,151.68475 c -0.55706,-0.0199 -1.081616,0.33737 -1.369179,0.79723 -0.164638,0.2204 -0.09351,0.63872 0.241675,0.60876 0.543886,-0.0392 1.071299,-0.32871 1.39863,-0.76464 0.181894,-0.26966 -0.162616,-0.53801 -0.315656,-0.19879 -0.368055,0.45696 -0.515184,1.04088 -0.694283,1.58834 -0.103836,0.38773 -0.203788,0.81256 -0.07703,1.20566 0.128632,0.26416 0.44814,0.25115 0.691988,0.30928"
       style="fill:#000000;fill-rule:nonzero;stroke:none;stroke-width:1.35685" />
  </g>
</svg>
