<?xml version="1.0" encoding="UTF-8" standalone="no"?>
<!-- Created with Inkscape (http://www.inkscape.org/) -->

<svg
   width="6mm"
   height="10mm"
   viewBox="0 0 6.0000001 9.9999994"
   version="1.1"
   id="svg1681"
   inkscape:version="1.2.1 (9c6d41e410, 2022-07-14)"
   sodipodi:docname="lower L 1.2.svg"
   inkscape:export-filename="..\..\..\..\Downloads\lower a diff canvas resize 3.0.png"
   inkscape:export-xdpi="96"
   inkscape:export-ydpi="96"
   xmlns:inkscape="http://www.inkscape.org/namespaces/inkscape"
   xmlns:sodipodi="http://sodipodi.sourceforge.net/DTD/sodipodi-0.dtd"
   xmlns="http://www.w3.org/2000/svg"
   xmlns:svg="http://www.w3.org/2000/svg"
   xmlns:rdf="http://www.w3.org/1999/02/22-rdf-syntax-ns#"
   xmlns:cc="http://creativecommons.org/ns#"
   xmlns:dc="http://purl.org/dc/elements/1.1/">
  <defs
     id="defs1675">
    <inkscape:path-effect
       effect="powerstroke"
       id="path-effect1899"
       is_visible="true"
       lpeversion="1"
       offset_points="1.5879433,0.069140717 | 4.9964895,0.078030237"
       not_jump="true"
       sort_points="true"
       interpolator_type="CentripetalCatmullRom"
       interpolator_beta="0.75"
       start_linecap_type="round"
       linejoin_type="spiro"
       miter_limit="4"
       scale_width="1"
       end_linecap_type="round" />
    <inkscape:path-effect
       effect="simplify"
       id="path-effect1897"
       is_visible="true"
       lpeversion="1"
       steps="1"
       threshold="0.0035951417"
       smooth_angles="0"
       helper_size="0"
       simplify_individual_paths="false"
       simplify_just_coalesce="false"
       step="1" />
    <inkscape:path-effect
       effect="powerstroke"
       id="path-effect1892"
       is_visible="true"
       lpeversion="1"
       offset_points="1.2852105,0.090673111 | 5.9659544,0.10548898"
       not_jump="true"
       sort_points="true"
       interpolator_type="CentripetalCatmullRom"
       interpolator_beta="0.75"
       start_linecap_type="round"
       linejoin_type="spiro"
       miter_limit="4"
       scale_width="1"
       end_linecap_type="round" />
    <inkscape:path-effect
       effect="simplify"
       id="path-effect1890"
       is_visible="true"
       lpeversion="1"
       steps="1"
       threshold="0.0035951417"
       smooth_angles="0"
       helper_size="0"
       simplify_individual_paths="false"
       simplify_just_coalesce="false"
       step="1" />
    <inkscape:path-effect
       effect="powerstroke"
       id="path-effect502"
       is_visible="true"
       lpeversion="1"
       offset_points="3.0091841,0.21607495 | 7.3602657,0.17554228 | 9.4159651,0.20236537"
       not_jump="true"
       sort_points="true"
       interpolator_type="CentripetalCatmullRom"
       interpolator_beta="0.75"
       start_linecap_type="round"
       linejoin_type="spiro"
       miter_limit="4"
       scale_width="1"
       end_linecap_type="round" />
    <inkscape:path-effect
       effect="simplify"
       id="path-effect500"
       is_visible="true"
       lpeversion="1"
       steps="1"
       threshold="0.0035951417"
       smooth_angles="0"
       helper_size="0"
       simplify_individual_paths="false"
       simplify_just_coalesce="false"
       step="1" />
    <inkscape:path-effect
       effect="powerstroke"
       id="path-effect241"
       is_visible="true"
       lpeversion="1"
       offset_points="2.6879454,0.34086734"
       not_jump="true"
       sort_points="true"
       interpolator_type="CentripetalCatmullRom"
       interpolator_beta="0.75"
       start_linecap_type="round"
       linejoin_type="spiro"
       miter_limit="4"
       scale_width="1"
       end_linecap_type="round" />
    <inkscape:path-effect
       effect="simplify"
       id="path-effect239"
       is_visible="true"
       lpeversion="1"
       steps="1"
       threshold="0.0028332064"
       smooth_angles="0"
       helper_size="0"
       simplify_individual_paths="false"
       simplify_just_coalesce="false"
       step="1" />
    <inkscape:path-effect
       effect="powerstroke"
       id="path-effect234"
       is_visible="true"
       lpeversion="1"
       offset_points="2.13563,0.075169555"
       not_jump="true"
       sort_points="true"
       interpolator_type="CentripetalCatmullRom"
       interpolator_beta="0.75"
       start_linecap_type="round"
       linejoin_type="spiro"
       miter_limit="4"
       scale_width="1"
       end_linecap_type="round" />
    <inkscape:path-effect
       effect="simplify"
       id="path-effect232"
       is_visible="true"
       lpeversion="1"
       steps="1"
       threshold="0.0028332064"
       smooth_angles="0"
       helper_size="0"
       simplify_individual_paths="false"
       simplify_just_coalesce="false"
       step="1" />
    <inkscape:path-effect
       effect="powerstroke"
       id="path-effect227"
       is_visible="true"
       lpeversion="1"
       offset_points="2.1868266,0.075169555"
       not_jump="true"
       sort_points="true"
       interpolator_type="CentripetalCatmullRom"
       interpolator_beta="0.75"
       start_linecap_type="round"
       linejoin_type="spiro"
       miter_limit="4"
       scale_width="1"
       end_linecap_type="round" />
    <inkscape:path-effect
       effect="simplify"
       id="path-effect225"
       is_visible="true"
       lpeversion="1"
       steps="1"
       threshold="0.0028332064"
       smooth_angles="0"
       helper_size="0"
       simplify_individual_paths="false"
       simplify_just_coalesce="false"
       step="1" />
    <inkscape:path-effect
       effect="powerstroke"
       id="path-effect166"
       is_visible="true"
       lpeversion="1"
       offset_points="1.9637935,0.075169555"
       not_jump="true"
       sort_points="true"
       interpolator_type="CentripetalCatmullRom"
       interpolator_beta="0.75"
       start_linecap_type="round"
       linejoin_type="spiro"
       miter_limit="4"
       scale_width="1"
       end_linecap_type="round" />
    <inkscape:path-effect
       effect="simplify"
       id="path-effect164"
       is_visible="true"
       lpeversion="1"
       steps="1"
       threshold="0.0028332064"
       smooth_angles="0"
       helper_size="0"
       simplify_individual_paths="false"
       simplify_just_coalesce="false"
       step="1" />
    <inkscape:path-effect
       effect="powerstroke"
       id="path-effect159"
       is_visible="true"
       lpeversion="1"
       offset_points="2.2611036,0.075169555"
       not_jump="true"
       sort_points="true"
       interpolator_type="CentripetalCatmullRom"
       interpolator_beta="0.75"
       start_linecap_type="round"
       linejoin_type="spiro"
       miter_limit="4"
       scale_width="1"
       end_linecap_type="round" />
    <inkscape:path-effect
       effect="simplify"
       id="path-effect157"
       is_visible="true"
       lpeversion="1"
       steps="1"
       threshold="0.0028332064"
       smooth_angles="0"
       helper_size="0"
       simplify_individual_paths="false"
       simplify_just_coalesce="false"
       step="1" />
    <inkscape:path-effect
       effect="powerstroke"
       id="path-effect152"
       is_visible="true"
       lpeversion="1"
       offset_points="2.826981,0.075169555"
       not_jump="true"
       sort_points="true"
       interpolator_type="CentripetalCatmullRom"
       interpolator_beta="0.75"
       start_linecap_type="round"
       linejoin_type="spiro"
       miter_limit="4"
       scale_width="1"
       end_linecap_type="round" />
    <inkscape:path-effect
       effect="simplify"
       id="path-effect150"
       is_visible="true"
       lpeversion="1"
       steps="1"
       threshold="0.0028332064"
       smooth_angles="0"
       helper_size="0"
       simplify_individual_paths="false"
       simplify_just_coalesce="false"
       step="1" />
    <inkscape:path-effect
       effect="powerstroke"
       id="path-effect145"
       is_visible="true"
       lpeversion="1"
       offset_points="3.8374447,0.075169555"
       not_jump="true"
       sort_points="true"
       interpolator_type="CentripetalCatmullRom"
       interpolator_beta="0.75"
       start_linecap_type="round"
       linejoin_type="spiro"
       miter_limit="4"
       scale_width="1"
       end_linecap_type="round" />
    <inkscape:path-effect
       effect="simplify"
       id="path-effect143"
       is_visible="true"
       lpeversion="1"
       steps="1"
       threshold="0.0028332064"
       smooth_angles="0"
       helper_size="0"
       simplify_individual_paths="false"
       simplify_just_coalesce="false"
       step="1" />
    <inkscape:path-effect
       effect="powerstroke"
       id="path-effect138"
       is_visible="true"
       lpeversion="1"
       offset_points="2.6880907,0.075169555"
       not_jump="true"
       sort_points="true"
       interpolator_type="CentripetalCatmullRom"
       interpolator_beta="0.75"
       start_linecap_type="round"
       linejoin_type="spiro"
       miter_limit="4"
       scale_width="1"
       end_linecap_type="round" />
    <inkscape:path-effect
       effect="simplify"
       id="path-effect136"
       is_visible="true"
       lpeversion="1"
       steps="1"
       threshold="0.0028332064"
       smooth_angles="0"
       helper_size="0"
       simplify_individual_paths="false"
       simplify_just_coalesce="false"
       step="1" />
    <inkscape:path-effect
       effect="powerstroke"
       id="path-effect131"
       is_visible="true"
       lpeversion="1"
       offset_points="1.9940581,0.075169555"
       not_jump="true"
       sort_points="true"
       interpolator_type="CentripetalCatmullRom"
       interpolator_beta="0.75"
       start_linecap_type="round"
       linejoin_type="spiro"
       miter_limit="4"
       scale_width="1"
       end_linecap_type="round" />
    <inkscape:path-effect
       effect="simplify"
       id="path-effect129"
       is_visible="true"
       lpeversion="1"
       steps="1"
       threshold="0.0028332064"
       smooth_angles="0"
       helper_size="0"
       simplify_individual_paths="false"
       simplify_just_coalesce="false"
       step="1" />
  </defs>
  <sodipodi:namedview
     id="base"
     pagecolor="#ffffff"
     bordercolor="#666666"
     borderopacity="1.0"
     inkscape:pageopacity="0.0"
     inkscape:pageshadow="2"
     inkscape:zoom="7.919596"
     inkscape:cx="-5.3033008"
     inkscape:cy="20.834396"
     inkscape:document-units="mm"
     inkscape:current-layer="layer1"
     showgrid="false"
     fit-margin-top="0"
     fit-margin-left="0"
     fit-margin-right="0"
     fit-margin-bottom="0"
     inkscape:window-width="1920"
     inkscape:window-height="974"
     inkscape:window-x="-11"
     inkscape:window-y="2869"
     inkscape:window-maximized="1"
     showguides="true"
     inkscape:guide-bbox="true"
     inkscape:snap-bbox="true"
     inkscape:bbox-nodes="true"
     inkscape:snap-nodes="false"
     inkscape:snap-others="false"
     inkscape:snap-page="true"
     inkscape:snap-grids="false"
     inkscape:snap-to-guides="false"
     inkscape:snap-global="false"
     inkscape:pagecheckerboard="0"
     inkscape:showpageshadow="2"
     inkscape:deskcolor="#d1d1d1">
    <sodipodi:guide
       position="-6.1806075,9.4988692"
       orientation="0,1"
       id="guide816"
       inkscape:locked="false" />
    <sodipodi:guide
       position="-4.4101636,10.646923"
       orientation="0,1"
       id="guide818"
       inkscape:locked="false" />
    <sodipodi:guide
       position="2.7595724,11.09577"
       orientation="1,0"
       id="guide820"
       inkscape:locked="false" />
    <sodipodi:guide
       position="3.6572659,10.942217"
       orientation="1,0"
       id="guide822"
       inkscape:locked="false" />
    <sodipodi:guide
       position="-0.051625511,9.7492299"
       orientation="1,0"
       id="guide1853"
       inkscape:locked="false" />
    <sodipodi:guide
       position="-2.3720169,3.0175835"
       orientation="0,1"
       id="guide1855"
       inkscape:locked="false" />
  </sodipodi:namedview>
  <metadata
     id="metadata1678">
    <rdf:RDF>
      <cc:Work
         rdf:about="">
        <dc:format>image/svg+xml</dc:format>
        <dc:type
           rdf:resource="http://purl.org/dc/dcmitype/StillImage" />
      </cc:Work>
    </rdf:RDF>
  </metadata>
  <g
     inkscape:label="Layer 1"
     inkscape:groupmode="layer"
     id="layer1"
     transform="translate(17.028496,-147.22856)">
    <path
       d="m -13.621112,149.81097 c -0.0075,0.003 -0.02749,0.0107 -0.04874,0.0206 -0.0157,0.007 -0.03762,0.0183 -0.05886,0.0324 -0.0096,0.006 -0.02003,0.014 -0.03017,0.023 -0.0095,0.008 -0.01981,0.0189 -0.02903,0.0317 -0.0088,0.0122 -0.01755,0.0277 -0.02291,0.0465 -0.0053,0.0186 -0.007,0.0391 -0.0031,0.0606 0.0019,0.0106 0.0039,0.0213 0.0081,0.0313 0.0041,0.01 0.01043,0.0191 0.01868,0.0261 0.0083,0.007 0.01833,0.0116 0.02886,0.0141 0.01053,0.002 0.02141,0.003 0.03222,0.003 0.0172,2.3e-4 0.03212,-0.003 0.04314,-0.007 0.01105,-0.004 0.02096,-0.008 0.02917,-0.0125 0.0024,-0.001 0.0046,-0.002 0.0069,-0.004 0.01215,-0.007 0.02357,-0.0146 0.0342,-0.0221 0.0053,-0.004 0.01022,-0.007 0.01429,-0.0102 0.0038,-0.003 0.007,-0.005 0.0079,-0.005 -0.0018,0.001 -0.0057,0.004 -0.0121,0.006 -0.0032,0.001 -0.0089,0.003 -0.01643,0.004 -0.007,0.001 -0.01995,0.002 -0.03559,-0.001 -0.0081,-0.002 -0.01711,-0.005 -0.02612,-0.0109 -0.0091,-0.006 -0.01713,-0.0127 -0.02378,-0.0211 -0.0065,-0.008 -0.01098,-0.0168 -0.01393,-0.0246 -0.0029,-0.008 -0.0043,-0.0148 -0.0051,-0.0205 -0.0014,-0.011 -0.0023,-0.0222 2.93e-4,-0.033 0.0025,-0.0108 0.0084,-0.0204 0.01455,-0.0296 -0.06996,0.10407 -0.112124,0.22265 -0.133794,0.35227 -0.01982,0.11852 -0.02158,0.24025 -0.01634,0.35963 0.0036,0.0962 0.0089,0.19069 0.0095,0.28477 6.4e-4,0.0943 -0.0035,0.1839 -0.0176,0.27099 -0.02054,0.36707 -0.0509,0.7216 -0.0628,1.06398 -0.01325,0.38126 -0.0038,0.72964 0.04845,1.06953 0.06984,0.4584 0.206879,0.7558 0.237424,0.82294 0.0067,0.0148 0.01173,0.0253 0.01283,0.0277 a 0.10548898,0.10548898 90 0 0 0.190878,-0.0899 c -6.39e-4,-0.001 -0.006,-0.0127 -0.01183,-0.0255 -0.0276,-0.0601 -0.158028,-0.33616 -0.227218,-0.76673 -0.05066,-0.32265 -0.06137,-0.65731 -0.04961,-1.03138 0.01056,-0.33574 0.03958,-0.68875 0.05814,-1.05025 0.01423,-0.0921 0.01735,-0.19359 0.0155,-0.29387 -0.0018,-0.0979 -0.0086,-0.19928 -0.01304,-0.291 -0.006,-0.11304 -0.0049,-0.22021 0.01093,-0.32073 0.01718,-0.10889 0.05046,-0.20155 0.102215,-0.27993 0.0061,-0.009 0.01188,-0.0189 0.01446,-0.0296 0.0026,-0.0107 0.0018,-0.022 3.78e-4,-0.0329 -7.64e-4,-0.006 -0.0023,-0.0134 -0.0053,-0.0214 -0.003,-0.008 -0.0076,-0.0169 -0.0143,-0.0253 -0.0068,-0.009 -0.01503,-0.0159 -0.0243,-0.0215 -0.0092,-0.006 -0.01844,-0.009 -0.0268,-0.0112 -0.01615,-0.004 -0.02969,-0.003 -0.03741,-0.001 -0.0082,0.001 -0.01475,0.004 -0.01883,0.005 -0.0081,0.003 -0.01432,0.007 -0.01744,0.009 -0.0037,0.002 -0.007,0.004 -0.0094,0.006 -0.0049,0.003 -0.01007,0.007 -0.01371,0.0103 -0.0047,0.004 -0.0082,0.006 -0.01227,0.009 -0.0079,0.006 -0.01336,0.01 -0.01745,0.0122 -0.0038,0.002 -0.0041,0.002 -0.0025,0.002 0.0012,-3.8e-4 0.0071,-0.002 0.01596,-0.002 0.01081,1.6e-4 0.0217,4.4e-4 0.03222,0.003 0.01053,0.002 0.02062,0.007 0.02888,0.014 0.0083,0.007 0.01456,0.0161 0.01871,0.0261 0.0041,0.01 0.0062,0.0207 0.008,0.0313 0.0013,0.008 6.73e-4,0.015 -0.0011,0.021 -0.0017,0.006 -0.0038,0.009 -0.0044,0.01 -6.58e-4,9.2e-4 1.54e-4,-2.5e-4 0.0023,-0.002 0.0024,-0.002 0.0058,-0.005 0.01031,-0.008 0.01038,-0.007 0.02304,-0.0133 0.03501,-0.0187 0.01538,-0.007 0.03098,-0.013 0.03808,-0.0157 a 0.09067311,0.09067311 90 0 0 -0.06526,-0.1692 z"
       id="path-1"
       inkscape:path-effect="#path-effect1890;#path-effect1892"
       inkscape:original-d="m -13.588483,149.89557 c -0.159881,0.0523 -0.207882,0.19304 -0.03761,0.0556 -0.249324,0.37375 -0.07496,0.80702 -0.142573,1.22891 -0.05124,0.97456 -0.196576,2.02054 0.233118,2.93544"
       style="fill:#000000;fill-rule:nonzero;stroke:none;stroke-width:1.34553" />
    <path
       d="m -13.541135,150.07062 c 0.0018,0.0401 2.9e-4,0.088 -0.01341,0.17703 -0.0047,0.02 -0.0077,0.0423 -0.01181,0.0589 -7.27e-4,0.003 -0.0015,0.006 -0.0022,0.008 -0.0014,0.005 -0.0029,0.009 -0.0044,0.0122 -0.0023,0.005 -0.0047,0.009 -0.0071,0.0116 l 0.04115,-0.0254 c 0.0056,-0.001 0.01332,-0.002 0.02224,-1.4e-4 0.0089,0.002 0.01679,0.005 0.02326,0.0101 0.0061,0.004 0.01,0.009 0.01246,0.0123 0.0023,0.003 0.0037,0.006 0.0043,0.007 0.0011,0.002 0.0011,0.002 3.04e-4,-0.002 -3.06e-4,-0.002 -8.46e-4,-0.004 -0.0016,-0.007 -6.83e-4,-0.003 -0.0018,-0.007 -0.0037,-0.0119 l 0.0032,0.01 c -0.0038,-0.0187 -0.0059,-0.0381 -0.0079,-0.0604 0.0052,-0.0141 0.01127,-0.0297 0.01709,-0.0469 0.0076,-0.0226 0.01508,-0.0487 0.01813,-0.0775 7.12e-4,-0.007 0.0012,-0.0135 1.26e-4,-0.0201 -0.0011,-0.007 -0.0035,-0.013 -0.0062,-0.0192 -0.0015,-0.004 -0.0037,-0.008 -0.0067,-0.0128 -0.0029,-0.005 -0.0071,-0.0102 -0.013,-0.0159 -0.0059,-0.006 -0.0139,-0.0115 -0.02395,-0.0158 -0.01022,-0.004 -0.02128,-0.007 -0.03253,-0.007 -0.01086,8e-5 -0.02032,0.002 -0.02792,0.005 -0.0074,0.003 -0.01326,0.006 -0.01759,0.009 -0.0081,0.006 -0.01371,0.0114 -0.01658,0.0146 -0.0031,0.003 -0.0054,0.007 -0.0066,0.008 -0.0022,0.003 -0.0018,0.002 0.0012,-0.001 0.0013,-0.001 0.0038,-0.004 0.0075,-0.007 0.0033,-0.003 0.0103,-0.008 0.02067,-0.0124 l -0.0358,0.0289 c -0.0333,0.049 -0.05702,0.1023 -0.07765,0.1483 -0.03144,0.0737 -0.05826,0.14333 -0.0727,0.21826 -0.0014,0.01 -0.0024,0.017 -0.0034,0.0252 -0.0011,0.009 -0.0022,0.0197 -0.0021,0.0313 7.6e-5,0.0135 0.0017,0.0284 0.0065,0.0435 0.0063,0.0199 0.01682,0.0361 0.02933,0.0488 a 0.07803024,0.07803024 90 0 0 0.110998,-0.1097 c 0.004,0.004 0.007,0.009 0.0086,0.0139 0.0011,0.003 8.94e-4,0.005 9.25e-4,0.003 3.4e-5,-0.002 2.32e-4,-0.005 0.0011,-0.0109 7.06e-4,-0.005 0.0019,-0.012 0.0029,-0.0211 0.01048,-0.052 0.03201,-0.109 0.06205,-0.17901 0.02119,-0.0468 0.03962,-0.0873 0.06387,-0.1233 l -0.0358,0.0289 c 0.01079,-0.004 0.01823,-0.0101 0.02199,-0.0133 0.0041,-0.003 0.0071,-0.007 0.0089,-0.009 0.0034,-0.004 0.0059,-0.007 0.0066,-0.008 -0.0029,0.003 -0.0071,0.007 -0.01393,0.0121 -0.0037,0.002 -0.0089,0.006 -0.01556,0.008 -0.0069,0.003 -0.01569,0.005 -0.02589,0.005 -0.01056,7e-5 -0.02096,-0.002 -0.03051,-0.006 -0.0095,-0.004 -0.01673,-0.01 -0.02196,-0.0145 -0.0052,-0.005 -0.0088,-0.01 -0.01106,-0.0135 -0.0023,-0.004 -0.0039,-0.007 -0.0048,-0.009 -0.0026,-0.006 -0.005,-0.0122 -0.006,-0.0187 -0.001,-0.006 -7e-4,-0.0131 -1.64e-4,-0.0197 -0.0011,0.013 -0.0043,0.0274 -0.0097,0.0456 -0.006,0.0198 -0.01346,0.0408 -0.01942,0.0607 -0.0016,0.005 -0.0031,0.0103 -0.0038,0.0157 -6.53e-4,0.005 -1.81e-4,0.0108 5.85e-4,0.0161 0.0044,0.0304 0.0095,0.0638 0.01893,0.0973 9.43e-4,0.003 0.0021,0.007 0.0032,0.01 -8.21e-4,-0.002 -5.68e-4,-0.002 -3.68e-4,-0.002 3.2e-4,5.9e-4 8.62e-4,0.002 0.0016,0.004 0.0012,0.004 0.004,0.0125 0.008,0.0211 0.0022,0.005 0.0053,0.0107 0.0097,0.0168 0.0046,0.006 0.01085,0.0135 0.01961,0.0199 0.0092,0.007 0.02018,0.0119 0.03255,0.0143 0.01246,0.002 0.02411,0.002 0.03411,-3.1e-4 0.0081,-0.002 0.01633,-0.004 0.02344,-0.008 0.0071,-0.004 0.01265,-0.0107 0.01771,-0.0173 0.01145,-0.0149 0.01939,-0.0302 0.02517,-0.0444 0.0039,-0.01 0.0069,-0.019 0.0093,-0.0277 0.0013,-0.005 0.0025,-0.01 0.0036,-0.0142 0.0061,-0.0262 0.0089,-0.0492 0.01255,-0.0653 0.01547,-0.0999 0.01882,-0.15713 0.01647,-0.20882 a 0.06914072,0.06914072 90 0 0 -0.13814,0.006 z"
       id="path-1-4"
       inkscape:path-effect="#path-effect1897;#path-effect1899"
       inkscape:original-d="m -13.472065,150.06749 c 0.0086,0.12376 -0.05669,0.51119 -0.09123,0.19284 0.13908,-0.38997 -0.190495,0.23943 -0.109851,0.30095"
       style="fill:#000000;fill-rule:nonzero;stroke:none;stroke-width:1.34553" />
  </g>
</svg>
