<?xml version="1.0" encoding="UTF-8" standalone="no"?>
<!-- Created with Inkscape (http://www.inkscape.org/) -->

<svg
   width="6mm"
   height="10mm"
   viewBox="0 0 6.0000001 9.9999994"
   version="1.1"
   id="svg1681"
   inkscape:version="1.2.1 (9c6d41e410, 2022-07-14)"
   sodipodi:docname="Upper P 1.1.svg"
   inkscape:export-filename="..\..\..\..\Downloads\lower a diff canvas resize 3.0.png"
   inkscape:export-xdpi="96"
   inkscape:export-ydpi="96"
   xmlns:inkscape="http://www.inkscape.org/namespaces/inkscape"
   xmlns:sodipodi="http://sodipodi.sourceforge.net/DTD/sodipodi-0.dtd"
   xmlns="http://www.w3.org/2000/svg"
   xmlns:svg="http://www.w3.org/2000/svg"
   xmlns:rdf="http://www.w3.org/1999/02/22-rdf-syntax-ns#"
   xmlns:cc="http://creativecommons.org/ns#"
   xmlns:dc="http://purl.org/dc/elements/1.1/">
  <defs
     id="defs1675">
    <inkscape:path-effect
       effect="powerstroke"
       id="path-effect1052"
       is_visible="true"
       lpeversion="1"
       offset_points="2.5943001,0.11060805 | 6.5795184,0.14343238"
       not_jump="true"
       sort_points="true"
       interpolator_type="CentripetalCatmullRom"
       interpolator_beta="0.75"
       start_linecap_type="round"
       linejoin_type="spiro"
       miter_limit="4"
       scale_width="1"
       end_linecap_type="round" />
    <inkscape:path-effect
       effect="simplify"
       id="path-effect1050"
       is_visible="true"
       lpeversion="1"
       steps="1"
       threshold="0.0035951417"
       smooth_angles="0"
       helper_size="0"
       simplify_individual_paths="false"
       simplify_just_coalesce="false"
       step="1" />
    <inkscape:path-effect
       effect="powerstroke"
       id="path-effect502"
       is_visible="true"
       lpeversion="1"
       offset_points="3.0091841,0.21607495 | 7.3602657,0.17554228 | 9.4159651,0.20236537"
       not_jump="true"
       sort_points="true"
       interpolator_type="CentripetalCatmullRom"
       interpolator_beta="0.75"
       start_linecap_type="round"
       linejoin_type="spiro"
       miter_limit="4"
       scale_width="1"
       end_linecap_type="round" />
    <inkscape:path-effect
       effect="simplify"
       id="path-effect500"
       is_visible="true"
       lpeversion="1"
       steps="1"
       threshold="0.0035951417"
       smooth_angles="0"
       helper_size="0"
       simplify_individual_paths="false"
       simplify_just_coalesce="false"
       step="1" />
    <inkscape:path-effect
       effect="powerstroke"
       id="path-effect241"
       is_visible="true"
       lpeversion="1"
       offset_points="2.6879454,0.34086734"
       not_jump="true"
       sort_points="true"
       interpolator_type="CentripetalCatmullRom"
       interpolator_beta="0.75"
       start_linecap_type="round"
       linejoin_type="spiro"
       miter_limit="4"
       scale_width="1"
       end_linecap_type="round" />
    <inkscape:path-effect
       effect="simplify"
       id="path-effect239"
       is_visible="true"
       lpeversion="1"
       steps="1"
       threshold="0.0028332064"
       smooth_angles="0"
       helper_size="0"
       simplify_individual_paths="false"
       simplify_just_coalesce="false"
       step="1" />
    <inkscape:path-effect
       effect="powerstroke"
       id="path-effect234"
       is_visible="true"
       lpeversion="1"
       offset_points="2.13563,0.075169555"
       not_jump="true"
       sort_points="true"
       interpolator_type="CentripetalCatmullRom"
       interpolator_beta="0.75"
       start_linecap_type="round"
       linejoin_type="spiro"
       miter_limit="4"
       scale_width="1"
       end_linecap_type="round" />
    <inkscape:path-effect
       effect="simplify"
       id="path-effect232"
       is_visible="true"
       lpeversion="1"
       steps="1"
       threshold="0.0028332064"
       smooth_angles="0"
       helper_size="0"
       simplify_individual_paths="false"
       simplify_just_coalesce="false"
       step="1" />
    <inkscape:path-effect
       effect="powerstroke"
       id="path-effect227"
       is_visible="true"
       lpeversion="1"
       offset_points="2.1868266,0.075169555"
       not_jump="true"
       sort_points="true"
       interpolator_type="CentripetalCatmullRom"
       interpolator_beta="0.75"
       start_linecap_type="round"
       linejoin_type="spiro"
       miter_limit="4"
       scale_width="1"
       end_linecap_type="round" />
    <inkscape:path-effect
       effect="simplify"
       id="path-effect225"
       is_visible="true"
       lpeversion="1"
       steps="1"
       threshold="0.0028332064"
       smooth_angles="0"
       helper_size="0"
       simplify_individual_paths="false"
       simplify_just_coalesce="false"
       step="1" />
    <inkscape:path-effect
       effect="powerstroke"
       id="path-effect166"
       is_visible="true"
       lpeversion="1"
       offset_points="1.9637935,0.075169555"
       not_jump="true"
       sort_points="true"
       interpolator_type="CentripetalCatmullRom"
       interpolator_beta="0.75"
       start_linecap_type="round"
       linejoin_type="spiro"
       miter_limit="4"
       scale_width="1"
       end_linecap_type="round" />
    <inkscape:path-effect
       effect="simplify"
       id="path-effect164"
       is_visible="true"
       lpeversion="1"
       steps="1"
       threshold="0.0028332064"
       smooth_angles="0"
       helper_size="0"
       simplify_individual_paths="false"
       simplify_just_coalesce="false"
       step="1" />
    <inkscape:path-effect
       effect="powerstroke"
       id="path-effect159"
       is_visible="true"
       lpeversion="1"
       offset_points="2.2611036,0.075169555"
       not_jump="true"
       sort_points="true"
       interpolator_type="CentripetalCatmullRom"
       interpolator_beta="0.75"
       start_linecap_type="round"
       linejoin_type="spiro"
       miter_limit="4"
       scale_width="1"
       end_linecap_type="round" />
    <inkscape:path-effect
       effect="simplify"
       id="path-effect157"
       is_visible="true"
       lpeversion="1"
       steps="1"
       threshold="0.0028332064"
       smooth_angles="0"
       helper_size="0"
       simplify_individual_paths="false"
       simplify_just_coalesce="false"
       step="1" />
    <inkscape:path-effect
       effect="powerstroke"
       id="path-effect152"
       is_visible="true"
       lpeversion="1"
       offset_points="2.826981,0.075169555"
       not_jump="true"
       sort_points="true"
       interpolator_type="CentripetalCatmullRom"
       interpolator_beta="0.75"
       start_linecap_type="round"
       linejoin_type="spiro"
       miter_limit="4"
       scale_width="1"
       end_linecap_type="round" />
    <inkscape:path-effect
       effect="simplify"
       id="path-effect150"
       is_visible="true"
       lpeversion="1"
       steps="1"
       threshold="0.0028332064"
       smooth_angles="0"
       helper_size="0"
       simplify_individual_paths="false"
       simplify_just_coalesce="false"
       step="1" />
    <inkscape:path-effect
       effect="powerstroke"
       id="path-effect145"
       is_visible="true"
       lpeversion="1"
       offset_points="3.8374447,0.075169555"
       not_jump="true"
       sort_points="true"
       interpolator_type="CentripetalCatmullRom"
       interpolator_beta="0.75"
       start_linecap_type="round"
       linejoin_type="spiro"
       miter_limit="4"
       scale_width="1"
       end_linecap_type="round" />
    <inkscape:path-effect
       effect="simplify"
       id="path-effect143"
       is_visible="true"
       lpeversion="1"
       steps="1"
       threshold="0.0028332064"
       smooth_angles="0"
       helper_size="0"
       simplify_individual_paths="false"
       simplify_just_coalesce="false"
       step="1" />
    <inkscape:path-effect
       effect="powerstroke"
       id="path-effect138"
       is_visible="true"
       lpeversion="1"
       offset_points="2.6880907,0.075169555"
       not_jump="true"
       sort_points="true"
       interpolator_type="CentripetalCatmullRom"
       interpolator_beta="0.75"
       start_linecap_type="round"
       linejoin_type="spiro"
       miter_limit="4"
       scale_width="1"
       end_linecap_type="round" />
    <inkscape:path-effect
       effect="simplify"
       id="path-effect136"
       is_visible="true"
       lpeversion="1"
       steps="1"
       threshold="0.0028332064"
       smooth_angles="0"
       helper_size="0"
       simplify_individual_paths="false"
       simplify_just_coalesce="false"
       step="1" />
    <inkscape:path-effect
       effect="powerstroke"
       id="path-effect131"
       is_visible="true"
       lpeversion="1"
       offset_points="1.9940581,0.075169555"
       not_jump="true"
       sort_points="true"
       interpolator_type="CentripetalCatmullRom"
       interpolator_beta="0.75"
       start_linecap_type="round"
       linejoin_type="spiro"
       miter_limit="4"
       scale_width="1"
       end_linecap_type="round" />
    <inkscape:path-effect
       effect="simplify"
       id="path-effect129"
       is_visible="true"
       lpeversion="1"
       steps="1"
       threshold="0.0028332064"
       smooth_angles="0"
       helper_size="0"
       simplify_individual_paths="false"
       simplify_just_coalesce="false"
       step="1" />
  </defs>
  <sodipodi:namedview
     id="base"
     pagecolor="#ffffff"
     bordercolor="#666666"
     borderopacity="1.0"
     inkscape:pageopacity="0.0"
     inkscape:pageshadow="2"
     inkscape:zoom="7.919596"
     inkscape:cx="-5.3033008"
     inkscape:cy="20.834396"
     inkscape:document-units="mm"
     inkscape:current-layer="layer1"
     showgrid="false"
     fit-margin-top="0"
     fit-margin-left="0"
     fit-margin-right="0"
     fit-margin-bottom="0"
     inkscape:window-width="1280"
     inkscape:window-height="649"
     inkscape:window-x="-8"
     inkscape:window-y="1912"
     inkscape:window-maximized="1"
     showguides="true"
     inkscape:guide-bbox="true"
     inkscape:snap-bbox="true"
     inkscape:bbox-nodes="true"
     inkscape:snap-nodes="false"
     inkscape:snap-others="false"
     inkscape:snap-page="true"
     inkscape:snap-grids="false"
     inkscape:snap-to-guides="false"
     inkscape:snap-global="false"
     inkscape:pagecheckerboard="0"
     inkscape:showpageshadow="2"
     inkscape:deskcolor="#d1d1d1">
    <sodipodi:guide
       position="-6.1806075,9.4988692"
       orientation="0,1"
       id="guide816"
       inkscape:locked="false" />
    <sodipodi:guide
       position="-4.4101636,10.646923"
       orientation="0,1"
       id="guide818"
       inkscape:locked="false" />
    <sodipodi:guide
       position="2.7595724,11.09577"
       orientation="1,0"
       id="guide820"
       inkscape:locked="false" />
    <sodipodi:guide
       position="3.6572659,10.942217"
       orientation="1,0"
       id="guide822"
       inkscape:locked="false" />
    <sodipodi:guide
       position="-0.051625511,9.7492299"
       orientation="1,0"
       id="guide1853"
       inkscape:locked="false" />
    <sodipodi:guide
       position="-2.3720169,3.0175835"
       orientation="0,1"
       id="guide1855"
       inkscape:locked="false" />
  </sodipodi:namedview>
  <metadata
     id="metadata1678">
    <rdf:RDF>
      <cc:Work
         rdf:about="">
        <dc:format>image/svg+xml</dc:format>
        <dc:type
           rdf:resource="http://purl.org/dc/dcmitype/StillImage" />
      </cc:Work>
    </rdf:RDF>
  </metadata>
  <g
     inkscape:label="Layer 1"
     inkscape:groupmode="layer"
     id="layer1"
     transform="translate(17.028496,-147.22856)">
    <path
       d="m -13.965049,149.65972 c 0.0076,-0.0182 0.01361,-0.0374 0.02058,-0.0606 0.0051,-0.0171 0.01027,-0.0344 0.0157,-0.0492 0.0046,-0.0125 0.0098,-0.0222 0.01042,-0.0232 2.75e-4,-4.8e-4 -6.83e-4,0.001 -0.0043,0.004 -0.0036,0.003 -0.0095,0.007 -0.01768,0.009 -0.01711,0.005 -0.03454,0.0101 -0.05241,0.0102 -0.01786,1.2e-4 -0.03592,-0.005 -0.05047,-0.0152 -0.01454,-0.0104 -0.02509,-0.0258 -0.03082,-0.0428 -0.0057,-0.0169 -0.0068,-0.035 -0.0076,-0.0529 5.18e-4,0.012 -5.85e-4,0.0257 -0.0037,0.043 -0.0031,0.0174 -0.0077,0.035 -0.01358,0.0581 -0.0054,0.0211 -0.01212,0.0471 -0.01688,0.074 -0.0045,0.0254 -0.0077,0.0539 -0.0068,0.0845 -0.01789,0.28182 0.01065,0.56415 0.03512,0.82079 0.0049,0.0513 0.0096,0.10143 0.01404,0.15154 0.0188,0.21368 0.03145,0.42645 0.01464,0.63795 -2.73e-4,0.003 -3.49e-4,0.007 -3.01e-4,0.0103 0.0118,0.83298 0.06134,1.77557 0.02634,2.64958 l 0.165342,-0.10915 c 0.0018,1.8e-4 0.0045,0.001 0.0073,0.003 0.0026,0.002 0.0046,0.003 0.0055,0.004 0.0016,9.4e-4 -2.23e-4,-0.003 -0.0022,-0.015 -0.0021,-0.0125 -0.0035,-0.0264 -0.0051,-0.0476 -0.0012,-0.0147 -0.0026,-0.0359 -0.0054,-0.0567 -0.0074,-0.0951 -0.0077,-0.18793 -0.01003,-0.29424 -0.0021,-0.0971 -0.006,-0.20334 -0.02153,-0.31056 -0.03165,-0.56823 -0.05815,-1.15479 -0.03668,-1.73555 0.01458,-0.39443 0.05219,-0.81507 0.136003,-1.24204 0.0271,-0.11678 0.04734,-0.24281 0.08114,-0.35994 0.02897,-0.0854 0.07429,-0.17547 0.133759,-0.25137 0.05787,-0.0738 0.127151,-0.13182 0.207241,-0.16667 0.02387,-0.0107 0.04757,-0.0169 0.07233,-0.0194 0.02483,-0.003 0.05089,-0.001 0.07742,0.003 0.05392,0.01 0.107002,0.0346 0.150959,0.0697 0.171483,0.12329 0.307695,0.28135 0.401604,0.4575 0.09751,0.18291 0.147306,0.38084 0.143882,0.57469 -0.0018,0.11213 -0.02565,0.21995 -0.06634,0.31439 -0.04455,0.1034 -0.107709,0.18773 -0.182235,0.25073 -0.108369,0.0942 -0.231353,0.15837 -0.347518,0.20701 -0.142915,0.0598 -0.311612,0.10928 -0.412665,0.13955 a 0.14343238,0.14343238 90 0 0 0.0823,0.2748 c 0.09571,-0.0287 0.281423,-0.0826 0.441092,-0.14904 0.130952,-0.0545 0.284973,-0.13246 0.424245,-0.2529 0.109134,-0.0916 0.198886,-0.21276 0.260707,-0.35497 0.05624,-0.12939 0.08851,-0.27462 0.09132,-0.42433 0.0048,-0.24696 -0.05831,-0.49365 -0.177021,-0.71709 -0.114147,-0.21485 -0.27969,-0.40775 -0.482297,-0.55345 -0.0735,-0.0594 -0.170817,-0.10591 -0.274749,-0.12517 -0.05189,-0.01 -0.105861,-0.0125 -0.160208,-0.007 -0.0545,0.005 -0.109049,0.0193 -0.161571,0.0429 -0.13182,0.0573 -0.238118,0.14996 -0.31976,0.25437 -0.08347,0.10673 -0.143018,0.22792 -0.182319,0.34544 -0.03685,0.12938 -0.06533,0.29729 -0.08482,0.3874 -0.08754,0.44996 -0.125317,0.88645 -0.13918,1.29129 -0.02046,0.59738 0.0093,1.19736 0.04364,1.76795 2.87e-4,0.005 7.37e-4,0.01 0.0016,0.0142 0.01586,0.0912 0.0221,0.18539 0.027,0.28384 0.005,0.10039 0.0086,0.20498 0.02024,0.31004 2.3e-4,0.002 3.69e-4,0.004 5.79e-4,0.006 2.1e-4,0.002 6.41e-4,0.004 0.0012,0.006 0.0031,0.0111 0.0055,0.0269 0.0092,0.05 0.0034,0.0214 0.008,0.0495 0.01584,0.0776 0.0079,0.0285 0.02073,0.0628 0.0438,0.0948 0.01189,0.0165 0.02647,0.0323 0.04427,0.0462 0.018,0.014 0.03811,0.0252 0.06002,0.0332 0.01951,0.007 0.0394,0.014 0.06012,0.0154 0.02072,0.001 0.04204,-0.003 0.05946,-0.0145 0.01741,-0.0113 0.03025,-0.029 0.03713,-0.0486 0.0069,-0.0196 0.008,-0.0407 0.0086,-0.0614 0.0285,-0.87893 -0.02787,-1.84116 -0.04377,-2.65743 0.01576,-0.22901 1.51e-4,-0.45496 -0.0198,-0.6692 -0.0047,-0.051 -0.0098,-0.10168 -0.0149,-0.15298 -0.02614,-0.26212 -0.05334,-0.52788 -0.03648,-0.79083 2.73e-4,-0.004 3.39e-4,-0.009 8e-5,-0.0128 -7.46e-4,-0.0122 2.52e-4,-0.026 0.0031,-0.0427 0.003,-0.0172 0.0075,-0.0352 0.0132,-0.0572 0.0055,-0.0214 0.01219,-0.0466 0.0171,-0.0728 0.0052,-0.0277 0.0088,-0.058 0.0077,-0.0904 -5.76e-4,-0.0179 -0.0015,-0.0361 -0.0071,-0.0531 -0.0057,-0.017 -0.01625,-0.0326 -0.03087,-0.0429 -0.01462,-0.0104 -0.03279,-0.0152 -0.05071,-0.015 -0.01793,2.1e-4 -0.03541,0.005 -0.05256,0.0105 -0.02227,0.007 -0.0408,0.0177 -0.05576,0.0297 -0.01524,0.0123 -0.02699,0.0258 -0.03595,0.0382 -0.01846,0.0254 -0.03049,0.0533 -0.03816,0.0732 -0.0088,0.0228 -0.01656,0.0481 -0.02106,0.0624 -0.0074,0.0236 -0.01065,0.0328 -0.01371,0.0402 a 0.11060805,0.11060805 90 0 0 0.204118,0.0853 z"
       id="path-1"
       inkscape:path-effect="#path-effect1050;#path-effect1052"
       inkscape:original-d="m -14.067108,149.61708 c 0.06452,-0.21745 0.142409,-0.27774 0.06179,-0.01 -0.06081,0.56771 0.101438,1.13097 0.0589,1.69993 0.01456,0.88866 0.06745,1.77738 0.03527,2.66628 -0.133127,-0.009 -0.07874,-0.58064 -0.125946,-0.79118 -0.06366,-1.0892 -0.106489,-2.20134 0.143935,-3.27126 0.056,-0.40951 0.468576,-0.90709 0.89735,-0.59187 0.459534,0.31784 0.753918,0.96759 0.538553,1.51009 -0.173044,0.42683 -0.638662,0.57361 -1.041581,0.69288"
       style="fill:#000000;fill-rule:nonzero;stroke:none;stroke-width:1.355" />
  </g>
</svg>
