<?xml version="1.0" encoding="UTF-8" standalone="no"?>
<!-- Created with Inkscape (http://www.inkscape.org/) -->

<svg
   width="6mm"
   height="10mm"
   viewBox="0 0 6.0000001 9.9999994"
   version="1.1"
   id="svg1681"
   inkscape:version="1.2.1 (9c6d41e410, 2022-07-14)"
   sodipodi:docname="upper P 1.2.svg"
   inkscape:export-filename="..\..\..\..\Downloads\lower a diff canvas resize 3.0.png"
   inkscape:export-xdpi="96"
   inkscape:export-ydpi="96"
   xmlns:inkscape="http://www.inkscape.org/namespaces/inkscape"
   xmlns:sodipodi="http://sodipodi.sourceforge.net/DTD/sodipodi-0.dtd"
   xmlns="http://www.w3.org/2000/svg"
   xmlns:svg="http://www.w3.org/2000/svg"
   xmlns:rdf="http://www.w3.org/1999/02/22-rdf-syntax-ns#"
   xmlns:cc="http://creativecommons.org/ns#"
   xmlns:dc="http://purl.org/dc/elements/1.1/">
  <defs
     id="defs1675">
    <inkscape:path-effect
       effect="powerstroke"
       id="path-effect1063"
       is_visible="true"
       lpeversion="1"
       offset_points="2.1488626,0.12253956 | 3.2538903,0.13810327 | 4.4742278,0.12214554 | 9.2681137,0.14480158"
       not_jump="true"
       sort_points="true"
       interpolator_type="CentripetalCatmullRom"
       interpolator_beta="0.75"
       start_linecap_type="round"
       linejoin_type="spiro"
       miter_limit="4"
       scale_width="1"
       end_linecap_type="round" />
    <inkscape:path-effect
       effect="simplify"
       id="path-effect1061"
       is_visible="true"
       lpeversion="1"
       steps="1"
       threshold="0.0035951417"
       smooth_angles="0"
       helper_size="0"
       simplify_individual_paths="false"
       simplify_just_coalesce="false"
       step="1" />
    <inkscape:path-effect
       effect="powerstroke"
       id="path-effect502"
       is_visible="true"
       lpeversion="1"
       offset_points="3.0091841,0.21607495 | 7.3602657,0.17554228 | 9.4159651,0.20236537"
       not_jump="true"
       sort_points="true"
       interpolator_type="CentripetalCatmullRom"
       interpolator_beta="0.75"
       start_linecap_type="round"
       linejoin_type="spiro"
       miter_limit="4"
       scale_width="1"
       end_linecap_type="round" />
    <inkscape:path-effect
       effect="simplify"
       id="path-effect500"
       is_visible="true"
       lpeversion="1"
       steps="1"
       threshold="0.0035951417"
       smooth_angles="0"
       helper_size="0"
       simplify_individual_paths="false"
       simplify_just_coalesce="false"
       step="1" />
    <inkscape:path-effect
       effect="powerstroke"
       id="path-effect241"
       is_visible="true"
       lpeversion="1"
       offset_points="2.6879454,0.34086734"
       not_jump="true"
       sort_points="true"
       interpolator_type="CentripetalCatmullRom"
       interpolator_beta="0.75"
       start_linecap_type="round"
       linejoin_type="spiro"
       miter_limit="4"
       scale_width="1"
       end_linecap_type="round" />
    <inkscape:path-effect
       effect="simplify"
       id="path-effect239"
       is_visible="true"
       lpeversion="1"
       steps="1"
       threshold="0.0028332064"
       smooth_angles="0"
       helper_size="0"
       simplify_individual_paths="false"
       simplify_just_coalesce="false"
       step="1" />
    <inkscape:path-effect
       effect="powerstroke"
       id="path-effect234"
       is_visible="true"
       lpeversion="1"
       offset_points="2.13563,0.075169555"
       not_jump="true"
       sort_points="true"
       interpolator_type="CentripetalCatmullRom"
       interpolator_beta="0.75"
       start_linecap_type="round"
       linejoin_type="spiro"
       miter_limit="4"
       scale_width="1"
       end_linecap_type="round" />
    <inkscape:path-effect
       effect="simplify"
       id="path-effect232"
       is_visible="true"
       lpeversion="1"
       steps="1"
       threshold="0.0028332064"
       smooth_angles="0"
       helper_size="0"
       simplify_individual_paths="false"
       simplify_just_coalesce="false"
       step="1" />
    <inkscape:path-effect
       effect="powerstroke"
       id="path-effect227"
       is_visible="true"
       lpeversion="1"
       offset_points="2.1868266,0.075169555"
       not_jump="true"
       sort_points="true"
       interpolator_type="CentripetalCatmullRom"
       interpolator_beta="0.75"
       start_linecap_type="round"
       linejoin_type="spiro"
       miter_limit="4"
       scale_width="1"
       end_linecap_type="round" />
    <inkscape:path-effect
       effect="simplify"
       id="path-effect225"
       is_visible="true"
       lpeversion="1"
       steps="1"
       threshold="0.0028332064"
       smooth_angles="0"
       helper_size="0"
       simplify_individual_paths="false"
       simplify_just_coalesce="false"
       step="1" />
    <inkscape:path-effect
       effect="powerstroke"
       id="path-effect166"
       is_visible="true"
       lpeversion="1"
       offset_points="1.9637935,0.075169555"
       not_jump="true"
       sort_points="true"
       interpolator_type="CentripetalCatmullRom"
       interpolator_beta="0.75"
       start_linecap_type="round"
       linejoin_type="spiro"
       miter_limit="4"
       scale_width="1"
       end_linecap_type="round" />
    <inkscape:path-effect
       effect="simplify"
       id="path-effect164"
       is_visible="true"
       lpeversion="1"
       steps="1"
       threshold="0.0028332064"
       smooth_angles="0"
       helper_size="0"
       simplify_individual_paths="false"
       simplify_just_coalesce="false"
       step="1" />
    <inkscape:path-effect
       effect="powerstroke"
       id="path-effect159"
       is_visible="true"
       lpeversion="1"
       offset_points="2.2611036,0.075169555"
       not_jump="true"
       sort_points="true"
       interpolator_type="CentripetalCatmullRom"
       interpolator_beta="0.75"
       start_linecap_type="round"
       linejoin_type="spiro"
       miter_limit="4"
       scale_width="1"
       end_linecap_type="round" />
    <inkscape:path-effect
       effect="simplify"
       id="path-effect157"
       is_visible="true"
       lpeversion="1"
       steps="1"
       threshold="0.0028332064"
       smooth_angles="0"
       helper_size="0"
       simplify_individual_paths="false"
       simplify_just_coalesce="false"
       step="1" />
    <inkscape:path-effect
       effect="powerstroke"
       id="path-effect152"
       is_visible="true"
       lpeversion="1"
       offset_points="2.826981,0.075169555"
       not_jump="true"
       sort_points="true"
       interpolator_type="CentripetalCatmullRom"
       interpolator_beta="0.75"
       start_linecap_type="round"
       linejoin_type="spiro"
       miter_limit="4"
       scale_width="1"
       end_linecap_type="round" />
    <inkscape:path-effect
       effect="simplify"
       id="path-effect150"
       is_visible="true"
       lpeversion="1"
       steps="1"
       threshold="0.0028332064"
       smooth_angles="0"
       helper_size="0"
       simplify_individual_paths="false"
       simplify_just_coalesce="false"
       step="1" />
    <inkscape:path-effect
       effect="powerstroke"
       id="path-effect145"
       is_visible="true"
       lpeversion="1"
       offset_points="3.8374447,0.075169555"
       not_jump="true"
       sort_points="true"
       interpolator_type="CentripetalCatmullRom"
       interpolator_beta="0.75"
       start_linecap_type="round"
       linejoin_type="spiro"
       miter_limit="4"
       scale_width="1"
       end_linecap_type="round" />
    <inkscape:path-effect
       effect="simplify"
       id="path-effect143"
       is_visible="true"
       lpeversion="1"
       steps="1"
       threshold="0.0028332064"
       smooth_angles="0"
       helper_size="0"
       simplify_individual_paths="false"
       simplify_just_coalesce="false"
       step="1" />
    <inkscape:path-effect
       effect="powerstroke"
       id="path-effect138"
       is_visible="true"
       lpeversion="1"
       offset_points="2.6880907,0.075169555"
       not_jump="true"
       sort_points="true"
       interpolator_type="CentripetalCatmullRom"
       interpolator_beta="0.75"
       start_linecap_type="round"
       linejoin_type="spiro"
       miter_limit="4"
       scale_width="1"
       end_linecap_type="round" />
    <inkscape:path-effect
       effect="simplify"
       id="path-effect136"
       is_visible="true"
       lpeversion="1"
       steps="1"
       threshold="0.0028332064"
       smooth_angles="0"
       helper_size="0"
       simplify_individual_paths="false"
       simplify_just_coalesce="false"
       step="1" />
    <inkscape:path-effect
       effect="powerstroke"
       id="path-effect131"
       is_visible="true"
       lpeversion="1"
       offset_points="1.9940581,0.075169555"
       not_jump="true"
       sort_points="true"
       interpolator_type="CentripetalCatmullRom"
       interpolator_beta="0.75"
       start_linecap_type="round"
       linejoin_type="spiro"
       miter_limit="4"
       scale_width="1"
       end_linecap_type="round" />
    <inkscape:path-effect
       effect="simplify"
       id="path-effect129"
       is_visible="true"
       lpeversion="1"
       steps="1"
       threshold="0.0028332064"
       smooth_angles="0"
       helper_size="0"
       simplify_individual_paths="false"
       simplify_just_coalesce="false"
       step="1" />
  </defs>
  <sodipodi:namedview
     id="base"
     pagecolor="#ffffff"
     bordercolor="#666666"
     borderopacity="1.0"
     inkscape:pageopacity="0.0"
     inkscape:pageshadow="2"
     inkscape:zoom="7.919596"
     inkscape:cx="-5.3033008"
     inkscape:cy="20.834396"
     inkscape:document-units="mm"
     inkscape:current-layer="layer1"
     showgrid="false"
     fit-margin-top="0"
     fit-margin-left="0"
     fit-margin-right="0"
     fit-margin-bottom="0"
     inkscape:window-width="1920"
     inkscape:window-height="974"
     inkscape:window-x="-11"
     inkscape:window-y="2869"
     inkscape:window-maximized="1"
     showguides="true"
     inkscape:guide-bbox="true"
     inkscape:snap-bbox="true"
     inkscape:bbox-nodes="true"
     inkscape:snap-nodes="false"
     inkscape:snap-others="false"
     inkscape:snap-page="true"
     inkscape:snap-grids="false"
     inkscape:snap-to-guides="false"
     inkscape:snap-global="false"
     inkscape:pagecheckerboard="0"
     inkscape:showpageshadow="2"
     inkscape:deskcolor="#d1d1d1">
    <sodipodi:guide
       position="-6.1806075,9.4988692"
       orientation="0,1"
       id="guide816"
       inkscape:locked="false" />
    <sodipodi:guide
       position="-4.4101636,10.646923"
       orientation="0,1"
       id="guide818"
       inkscape:locked="false" />
    <sodipodi:guide
       position="2.7595724,11.09577"
       orientation="1,0"
       id="guide820"
       inkscape:locked="false" />
    <sodipodi:guide
       position="3.6572659,10.942217"
       orientation="1,0"
       id="guide822"
       inkscape:locked="false" />
    <sodipodi:guide
       position="-0.051625511,9.7492299"
       orientation="1,0"
       id="guide1853"
       inkscape:locked="false" />
    <sodipodi:guide
       position="-2.3720169,3.0175835"
       orientation="0,1"
       id="guide1855"
       inkscape:locked="false" />
  </sodipodi:namedview>
  <metadata
     id="metadata1678">
    <rdf:RDF>
      <cc:Work
         rdf:about="">
        <dc:format>image/svg+xml</dc:format>
        <dc:type
           rdf:resource="http://purl.org/dc/dcmitype/StillImage" />
      </cc:Work>
    </rdf:RDF>
  </metadata>
  <g
     inkscape:label="Layer 1"
     inkscape:groupmode="layer"
     id="layer1"
     transform="translate(17.028496,-147.22856)">
    <path
       d="m -14.46742,148.77346 c 0.01414,0.12432 0.47108,3.4396 0.533462,4.69494 0.0018,0.0476 0.0085,0.10006 0.02235,0.15159 0.01546,0.0574 0.03853,0.10893 0.0691,0.15357 0.01277,0.0186 0.02616,0.0374 0.04425,0.0509 0.01809,0.0135 0.04077,0.0213 0.06331,0.0198 0.02254,-0.001 0.04398,-0.0121 0.06038,-0.0276 0.0164,-0.0155 0.02782,-0.0355 0.03872,-0.0553 0.01284,-0.0233 0.02046,-0.0462 0.02524,-0.0659 0.0036,-0.0148 0.0059,-0.0291 0.0074,-0.0422 0.0039,-0.0336 0.0034,-0.0671 0.0026,-0.0921 -9.44e-4,-0.0289 -0.0025,-0.054 -0.0029,-0.0751 -4.93e-4,-0.0223 1.41e-4,-0.0385 0.0019,-0.0499 4.17e-4,-0.003 6.32e-4,-0.005 4.81e-4,-0.008 -1.51e-4,-0.003 -4.43e-4,-0.005 -6.04e-4,-0.008 -0.0098,-0.16361 -0.02206,-0.32308 -0.03549,-0.49687 -0.01309,-0.16947 -0.02493,-0.32277 -0.03427,-0.47737 -0.01802,-0.2984 -0.02845,-0.62656 0.0011,-0.95733 0.0108,-0.27863 0.02503,-0.66394 0.06576,-1.02635 0.002,-0.0181 0.0041,-0.0363 0.0064,-0.0547 0.03596,-0.29932 0.09883,-0.66462 0.229928,-1.03103 0.05703,-0.1522 0.130355,-0.33329 0.232834,-0.49283 0.02936,-0.0368 0.06741,-0.0647 0.11191,-0.0834 0.04521,-0.019 0.09695,-0.0284 0.150707,-0.027 0.05313,0.001 0.106226,0.0135 0.153925,0.0351 0.04718,0.0214 0.08788,0.0519 0.118327,0.0891 0.02951,0.0348 0.05289,0.0715 0.07369,0.11197 0.02105,0.041 0.03911,0.0853 0.05634,0.13289 0.03453,0.0954 0.06432,0.20157 0.108079,0.30662 0.06535,0.19387 0.114722,0.37957 0.138461,0.56098 0.02665,0.20369 0.0186,0.38539 -0.02344,0.55092 -0.01504,0.0661 -0.03678,0.1226 -0.06202,0.17269 -0.02354,0.0467 -0.05187,0.0912 -0.08422,0.1329 -0.07247,0.0935 -0.162566,0.16981 -0.258779,0.22616 -0.135408,0.0806 -0.276636,0.13047 -0.407054,0.16218 -0.1828,0.0445 -0.351494,0.0546 -0.448065,0.0574 a 0.14480158,0.14480158 90 0 0 0.0085,0.28948 c 0.10535,-0.003 0.296895,-0.0137 0.507879,-0.0645 0.150983,-0.0364 0.32112,-0.0953 0.48671,-0.19387 0.125404,-0.0734 0.244376,-0.17414 0.340716,-0.29933 0.04315,-0.0561 0.08139,-0.11659 0.113357,-0.18098 0.03427,-0.069 0.06406,-0.14811 0.08312,-0.2362 0.05025,-0.20339 0.05619,-0.4225 0.02357,-0.65495 -0.02906,-0.20706 -0.08684,-0.4125 -0.158281,-0.61677 -0.0012,-0.003 -0.0024,-0.007 -0.0038,-0.01 -0.0379,-0.085 -0.06932,-0.18794 -0.111523,-0.29754 -0.02047,-0.0532 -0.04411,-0.10865 -0.07347,-0.163 -0.02928,-0.0542 -0.06459,-0.1079 -0.109021,-0.15822 -0.05816,-0.0687 -0.133151,-0.12127 -0.213649,-0.1563 -0.08084,-0.0352 -0.168354,-0.0532 -0.254846,-0.0542 -0.08758,-0.001 -0.175588,0.0154 -0.25619,0.0508 -0.08254,0.0362 -0.156636,0.0921 -0.213606,0.16774 -0.0021,0.003 -0.0042,0.006 -0.0061,0.009 -0.116236,0.18675 -0.195482,0.39347 -0.252989,0.54995 -0.139433,0.39173 -0.20525,0.77707 -0.243282,1.0848 -0.0024,0.019 -0.0046,0.0379 -0.0068,0.0565 -0.04263,0.36654 -0.06284,0.77158 -0.07717,1.03576 -0.03701,0.34281 -0.03395,0.68508 -0.01955,0.99032 0.0074,0.15738 0.01834,0.31481 0.0315,0.48408 0.01336,0.17178 0.02719,0.33417 0.03887,0.49249 6.06e-4,0.0273 0.004,0.053 0.0075,0.0748 0.0038,0.0237 0.0086,0.0474 0.01235,0.0711 0.0032,0.0203 0.0049,0.0359 0.0048,0.0484 -3.1e-5,0.004 -2.81e-4,0.008 -5.83e-4,0.0102 -4.09e-4,0.003 -7.93e-4,0.005 -3.51e-4,0.004 0.01628,-0.0121 0.03229,-0.0246 0.04912,-0.036 0.01683,-0.0113 0.03499,-0.0214 0.05484,-0.0256 0.01986,-0.004 0.0412,-0.002 0.05916,0.008 0.01796,0.009 0.03137,0.0255 0.04353,0.0418 -0.01343,-0.018 -0.02605,-0.043 -0.03522,-0.0766 -0.0083,-0.0305 -0.01275,-0.0642 -0.01368,-0.0985 -0.06252,-1.27172 -0.51961,-4.60709 -0.53162,-4.71265 a 0.12253956,0.12253956 90 0 0 -0.243508,0.0277 z"
       id="path-1"
       inkscape:path-effect="#path-effect1061;#path-effect1063"
       inkscape:original-d="m -14.345666,148.75961 c 0.178321,1.5674 0.454526,3.12521 0.532501,4.70282 -0.0096,0.0876 0.09981,0.3964 0.08593,0.14718 -0.03541,-0.69997 -0.139719,-1.40049 -0.07151,-2.10197 0.0409,-0.89957 0.08545,-1.84217 0.529359,-2.6493 0.151245,-0.2716 0.555519,-0.27712 0.756178,-0.0603 0.14888,0.15548 0.18553,0.37809 0.269079,0.57026 0.158937,0.44975 0.271511,0.96814 0.06847,1.42253 -0.239858,0.48619 -0.825508,0.65333 -1.327819,0.66605"
       style="fill:#000000;fill-rule:nonzero;stroke:none;stroke-width:1.34188" />
  </g>
</svg>
