<?xml version="1.0" encoding="UTF-8" standalone="no"?>
<!-- Created with Inkscape (http://www.inkscape.org/) -->

<svg
   width="6mm"
   height="10mm"
   viewBox="0 0 6.0000001 9.9999994"
   version="1.1"
   id="svg1681"
   inkscape:version="1.2.1 (9c6d41e410, 2022-07-14)"
   sodipodi:docname="lower d 1.5.svg"
   inkscape:export-filename="..\..\..\..\Downloads\lower a diff canvas resize 3.0.png"
   inkscape:export-xdpi="96"
   inkscape:export-ydpi="96"
   xmlns:inkscape="http://www.inkscape.org/namespaces/inkscape"
   xmlns:sodipodi="http://sodipodi.sourceforge.net/DTD/sodipodi-0.dtd"
   xmlns="http://www.w3.org/2000/svg"
   xmlns:svg="http://www.w3.org/2000/svg"
   xmlns:rdf="http://www.w3.org/1999/02/22-rdf-syntax-ns#"
   xmlns:cc="http://creativecommons.org/ns#"
   xmlns:dc="http://purl.org/dc/elements/1.1/">
  <defs
     id="defs1675">
    <inkscape:path-effect
       effect="powerstroke"
       id="path-effect2794"
       is_visible="true"
       lpeversion="1"
       offset_points="3.9130694,0.13211294 | 7.408253,0.16590045 | 9.8719558,0.13458056"
       not_jump="true"
       sort_points="true"
       interpolator_type="CentripetalCatmullRom"
       interpolator_beta="0.75"
       start_linecap_type="round"
       linejoin_type="spiro"
       miter_limit="4"
       scale_width="1"
       end_linecap_type="round" />
    <inkscape:path-effect
       effect="simplify"
       id="path-effect2792"
       is_visible="true"
       lpeversion="1"
       steps="1"
       threshold="0.0035951417"
       smooth_angles="0"
       helper_size="0"
       simplify_individual_paths="false"
       simplify_just_coalesce="false"
       step="1" />
    <inkscape:path-effect
       effect="powerstroke"
       id="path-effect2787"
       is_visible="true"
       lpeversion="1"
       offset_points="2.3419719,0.10893713 | 5.3107052,0.12890404 | 7.8134943,0.09205334 | 9.6598333,0.10937757"
       not_jump="true"
       sort_points="true"
       interpolator_type="CentripetalCatmullRom"
       interpolator_beta="0.75"
       start_linecap_type="round"
       linejoin_type="spiro"
       miter_limit="4"
       scale_width="1"
       end_linecap_type="round" />
    <inkscape:path-effect
       effect="simplify"
       id="path-effect2785"
       is_visible="true"
       lpeversion="1"
       steps="1"
       threshold="0.0035951417"
       smooth_angles="0"
       helper_size="0"
       simplify_individual_paths="false"
       simplify_just_coalesce="false"
       step="1" />
    <inkscape:path-effect
       effect="powerstroke"
       id="path-effect2780"
       is_visible="true"
       lpeversion="1"
       offset_points="6.1419581,0.10644126 | 12.387278,0.11921421"
       not_jump="true"
       sort_points="true"
       interpolator_type="CentripetalCatmullRom"
       interpolator_beta="0.75"
       start_linecap_type="round"
       linejoin_type="spiro"
       miter_limit="4"
       scale_width="1"
       end_linecap_type="round" />
    <inkscape:path-effect
       effect="simplify"
       id="path-effect2778"
       is_visible="true"
       lpeversion="1"
       steps="1"
       threshold="0.0035951417"
       smooth_angles="0"
       helper_size="0"
       simplify_individual_paths="false"
       simplify_just_coalesce="false"
       step="1" />
    <inkscape:path-effect
       effect="powerstroke"
       id="path-effect2773"
       is_visible="true"
       lpeversion="1"
       offset_points="6.0348645,0.11657153 | 8.604311,0.094696019"
       not_jump="true"
       sort_points="true"
       interpolator_type="CentripetalCatmullRom"
       interpolator_beta="0.75"
       start_linecap_type="round"
       linejoin_type="spiro"
       miter_limit="4"
       scale_width="1"
       end_linecap_type="round" />
    <inkscape:path-effect
       effect="simplify"
       id="path-effect2771"
       is_visible="true"
       lpeversion="1"
       steps="1"
       threshold="0.0035951417"
       smooth_angles="0"
       helper_size="0"
       simplify_individual_paths="false"
       simplify_just_coalesce="false"
       step="1" />
    <inkscape:path-effect
       effect="powerstroke"
       id="path-effect502"
       is_visible="true"
       lpeversion="1"
       offset_points="3.0091841,0.21607495 | 7.3602657,0.17554228 | 9.4159651,0.20236537"
       not_jump="true"
       sort_points="true"
       interpolator_type="CentripetalCatmullRom"
       interpolator_beta="0.75"
       start_linecap_type="round"
       linejoin_type="spiro"
       miter_limit="4"
       scale_width="1"
       end_linecap_type="round" />
    <inkscape:path-effect
       effect="simplify"
       id="path-effect500"
       is_visible="true"
       lpeversion="1"
       steps="1"
       threshold="0.0035951417"
       smooth_angles="0"
       helper_size="0"
       simplify_individual_paths="false"
       simplify_just_coalesce="false"
       step="1" />
    <inkscape:path-effect
       effect="powerstroke"
       id="path-effect241"
       is_visible="true"
       lpeversion="1"
       offset_points="2.6879454,0.34086734"
       not_jump="true"
       sort_points="true"
       interpolator_type="CentripetalCatmullRom"
       interpolator_beta="0.75"
       start_linecap_type="round"
       linejoin_type="spiro"
       miter_limit="4"
       scale_width="1"
       end_linecap_type="round" />
    <inkscape:path-effect
       effect="simplify"
       id="path-effect239"
       is_visible="true"
       lpeversion="1"
       steps="1"
       threshold="0.0028332064"
       smooth_angles="0"
       helper_size="0"
       simplify_individual_paths="false"
       simplify_just_coalesce="false"
       step="1" />
    <inkscape:path-effect
       effect="powerstroke"
       id="path-effect234"
       is_visible="true"
       lpeversion="1"
       offset_points="2.13563,0.075169555"
       not_jump="true"
       sort_points="true"
       interpolator_type="CentripetalCatmullRom"
       interpolator_beta="0.75"
       start_linecap_type="round"
       linejoin_type="spiro"
       miter_limit="4"
       scale_width="1"
       end_linecap_type="round" />
    <inkscape:path-effect
       effect="simplify"
       id="path-effect232"
       is_visible="true"
       lpeversion="1"
       steps="1"
       threshold="0.0028332064"
       smooth_angles="0"
       helper_size="0"
       simplify_individual_paths="false"
       simplify_just_coalesce="false"
       step="1" />
    <inkscape:path-effect
       effect="powerstroke"
       id="path-effect227"
       is_visible="true"
       lpeversion="1"
       offset_points="2.1868266,0.075169555"
       not_jump="true"
       sort_points="true"
       interpolator_type="CentripetalCatmullRom"
       interpolator_beta="0.75"
       start_linecap_type="round"
       linejoin_type="spiro"
       miter_limit="4"
       scale_width="1"
       end_linecap_type="round" />
    <inkscape:path-effect
       effect="simplify"
       id="path-effect225"
       is_visible="true"
       lpeversion="1"
       steps="1"
       threshold="0.0028332064"
       smooth_angles="0"
       helper_size="0"
       simplify_individual_paths="false"
       simplify_just_coalesce="false"
       step="1" />
    <inkscape:path-effect
       effect="powerstroke"
       id="path-effect166"
       is_visible="true"
       lpeversion="1"
       offset_points="1.9637935,0.075169555"
       not_jump="true"
       sort_points="true"
       interpolator_type="CentripetalCatmullRom"
       interpolator_beta="0.75"
       start_linecap_type="round"
       linejoin_type="spiro"
       miter_limit="4"
       scale_width="1"
       end_linecap_type="round" />
    <inkscape:path-effect
       effect="simplify"
       id="path-effect164"
       is_visible="true"
       lpeversion="1"
       steps="1"
       threshold="0.0028332064"
       smooth_angles="0"
       helper_size="0"
       simplify_individual_paths="false"
       simplify_just_coalesce="false"
       step="1" />
    <inkscape:path-effect
       effect="powerstroke"
       id="path-effect159"
       is_visible="true"
       lpeversion="1"
       offset_points="2.2611036,0.075169555"
       not_jump="true"
       sort_points="true"
       interpolator_type="CentripetalCatmullRom"
       interpolator_beta="0.75"
       start_linecap_type="round"
       linejoin_type="spiro"
       miter_limit="4"
       scale_width="1"
       end_linecap_type="round" />
    <inkscape:path-effect
       effect="simplify"
       id="path-effect157"
       is_visible="true"
       lpeversion="1"
       steps="1"
       threshold="0.0028332064"
       smooth_angles="0"
       helper_size="0"
       simplify_individual_paths="false"
       simplify_just_coalesce="false"
       step="1" />
    <inkscape:path-effect
       effect="powerstroke"
       id="path-effect152"
       is_visible="true"
       lpeversion="1"
       offset_points="2.826981,0.075169555"
       not_jump="true"
       sort_points="true"
       interpolator_type="CentripetalCatmullRom"
       interpolator_beta="0.75"
       start_linecap_type="round"
       linejoin_type="spiro"
       miter_limit="4"
       scale_width="1"
       end_linecap_type="round" />
    <inkscape:path-effect
       effect="simplify"
       id="path-effect150"
       is_visible="true"
       lpeversion="1"
       steps="1"
       threshold="0.0028332064"
       smooth_angles="0"
       helper_size="0"
       simplify_individual_paths="false"
       simplify_just_coalesce="false"
       step="1" />
    <inkscape:path-effect
       effect="powerstroke"
       id="path-effect145"
       is_visible="true"
       lpeversion="1"
       offset_points="3.8374447,0.075169555"
       not_jump="true"
       sort_points="true"
       interpolator_type="CentripetalCatmullRom"
       interpolator_beta="0.75"
       start_linecap_type="round"
       linejoin_type="spiro"
       miter_limit="4"
       scale_width="1"
       end_linecap_type="round" />
    <inkscape:path-effect
       effect="simplify"
       id="path-effect143"
       is_visible="true"
       lpeversion="1"
       steps="1"
       threshold="0.0028332064"
       smooth_angles="0"
       helper_size="0"
       simplify_individual_paths="false"
       simplify_just_coalesce="false"
       step="1" />
    <inkscape:path-effect
       effect="powerstroke"
       id="path-effect138"
       is_visible="true"
       lpeversion="1"
       offset_points="2.6880907,0.075169555"
       not_jump="true"
       sort_points="true"
       interpolator_type="CentripetalCatmullRom"
       interpolator_beta="0.75"
       start_linecap_type="round"
       linejoin_type="spiro"
       miter_limit="4"
       scale_width="1"
       end_linecap_type="round" />
    <inkscape:path-effect
       effect="simplify"
       id="path-effect136"
       is_visible="true"
       lpeversion="1"
       steps="1"
       threshold="0.0028332064"
       smooth_angles="0"
       helper_size="0"
       simplify_individual_paths="false"
       simplify_just_coalesce="false"
       step="1" />
    <inkscape:path-effect
       effect="powerstroke"
       id="path-effect131"
       is_visible="true"
       lpeversion="1"
       offset_points="1.9940581,0.075169555"
       not_jump="true"
       sort_points="true"
       interpolator_type="CentripetalCatmullRom"
       interpolator_beta="0.75"
       start_linecap_type="round"
       linejoin_type="spiro"
       miter_limit="4"
       scale_width="1"
       end_linecap_type="round" />
    <inkscape:path-effect
       effect="simplify"
       id="path-effect129"
       is_visible="true"
       lpeversion="1"
       steps="1"
       threshold="0.0028332064"
       smooth_angles="0"
       helper_size="0"
       simplify_individual_paths="false"
       simplify_just_coalesce="false"
       step="1" />
  </defs>
  <sodipodi:namedview
     id="base"
     pagecolor="#ffffff"
     bordercolor="#666666"
     borderopacity="1.0"
     inkscape:pageopacity="0.0"
     inkscape:pageshadow="2"
     inkscape:zoom="7.919596"
     inkscape:cx="-5.3033008"
     inkscape:cy="20.834396"
     inkscape:document-units="mm"
     inkscape:current-layer="layer1"
     showgrid="false"
     fit-margin-top="0"
     fit-margin-left="0"
     fit-margin-right="0"
     fit-margin-bottom="0"
     inkscape:window-width="1920"
     inkscape:window-height="974"
     inkscape:window-x="-11"
     inkscape:window-y="2869"
     inkscape:window-maximized="1"
     showguides="true"
     inkscape:guide-bbox="true"
     inkscape:snap-bbox="true"
     inkscape:bbox-nodes="true"
     inkscape:snap-nodes="false"
     inkscape:snap-others="false"
     inkscape:snap-page="true"
     inkscape:snap-grids="false"
     inkscape:snap-to-guides="false"
     inkscape:snap-global="false"
     inkscape:pagecheckerboard="0"
     inkscape:showpageshadow="2"
     inkscape:deskcolor="#d1d1d1">
    <sodipodi:guide
       position="-6.1806075,9.4988692"
       orientation="0,1"
       id="guide816"
       inkscape:locked="false" />
    <sodipodi:guide
       position="-4.4101636,10.646923"
       orientation="0,1"
       id="guide818"
       inkscape:locked="false" />
    <sodipodi:guide
       position="2.7595724,11.09577"
       orientation="1,0"
       id="guide820"
       inkscape:locked="false" />
    <sodipodi:guide
       position="3.6572659,10.942217"
       orientation="1,0"
       id="guide822"
       inkscape:locked="false" />
    <sodipodi:guide
       position="-0.051625511,9.7492299"
       orientation="1,0"
       id="guide1853"
       inkscape:locked="false" />
    <sodipodi:guide
       position="-2.3720169,3.0175835"
       orientation="0,1"
       id="guide1855"
       inkscape:locked="false" />
  </sodipodi:namedview>
  <metadata
     id="metadata1678">
    <rdf:RDF>
      <cc:Work
         rdf:about="">
        <dc:format>image/svg+xml</dc:format>
        <dc:type
           rdf:resource="http://purl.org/dc/dcmitype/StillImage" />
      </cc:Work>
    </rdf:RDF>
  </metadata>
  <g
     inkscape:label="Layer 1"
     inkscape:groupmode="layer"
     id="layer1"
     transform="translate(17.028496,-147.22856)">
    <path
       d="m -13.645681,149.55402 c -0.0032,-0.0207 -0.0035,-0.0567 0.0098,-0.0914 0.0052,-0.0134 0.0119,-0.0257 0.02003,-0.036 0.0073,-0.009 0.01551,-0.0167 0.02448,-0.0221 l -0.02817,0.0123 c -0.0014,3.7e-4 -0.0092,0.002 -0.02104,7.9e-4 -0.0059,-7.7e-4 -0.01231,-0.002 -0.01875,-0.005 -0.0064,-0.003 -0.01202,-0.006 -0.0169,-0.009 -0.0095,-0.007 -0.0144,-0.014 -0.01622,-0.0171 -0.0017,-0.003 -0.0015,-0.004 -4.23e-4,-3.8e-4 0.0023,0.007 0.0048,0.0191 0.0065,0.0373 0.0017,0.0175 0.0021,0.0343 0.0027,0.0522 1.74e-4,0.005 6.02e-4,0.01 0.0013,0.0149 0.09391,0.63274 0.129403,1.27166 0.151458,1.92229 0.0224,0.66092 0.03031,1.29642 0.07175,1.94686 0.007,0.10456 0.01013,0.21033 0.0166,0.31425 0.0059,0.094 0.0142,0.18335 0.02906,0.27185 0.0032,0.0194 0.0068,0.0388 0.01078,0.0583 0.0017,0.008 0.0045,0.0165 0.0077,0.0244 0.0016,0.004 0.0036,0.009 0.0062,0.0135 0.0025,0.005 0.006,0.0112 0.01099,0.0183 0.0046,0.007 0.0128,0.017 0.02524,0.0273 0.0065,0.005 0.01499,0.0114 0.02571,0.0168 0.01083,0.005 0.02438,0.0103 0.03998,0.0127 0.01597,0.002 0.03269,0.002 0.0493,-0.002 0.01646,-0.004 0.03065,-0.01 0.04234,-0.0171 0.02237,-0.0138 0.03561,-0.0309 0.04241,-0.0411 0.01283,-0.0193 0.01813,-0.0378 0.01989,-0.0441 0.0025,-0.009 0.004,-0.0168 0.0049,-0.0225 0.001,-0.006 0.0018,-0.0119 0.0024,-0.0171 0.0012,-0.0103 0.0021,-0.0211 0.0029,-0.0311 0.0014,-0.0189 0.0024,-0.0394 0.0038,-0.0583 6.24e-4,-0.008 0.0013,-0.016 0.002,-0.0211 3.62e-4,-0.003 7.38e-4,-0.005 0.0011,-0.005 3.27e-4,-8.9e-4 6.47e-4,-8.1e-4 5.46e-4,0.002 l 0.0014,-0.0165 c 0.01991,-0.56997 -0.102008,-1.14825 -0.392643,-1.63889 -0.0417,-0.076 -0.09824,-0.1453 -0.16285,-0.20343 -0.06536,-0.0588 -0.139048,-0.1063 -0.216881,-0.14219 -0.159014,-0.0733 -0.337728,-0.0995 -0.507976,-0.0741 -0.08163,0.01 -0.162571,0.0331 -0.236721,0.0654 -0.111059,0.0485 -0.208065,0.11766 -0.287832,0.19694 -0.133276,0.11417 -0.24618,0.25164 -0.329261,0.40228 -0.08711,0.15793 -0.142375,0.33195 -0.154092,0.51246 -0.0076,0.12346 0.01458,0.24592 0.05998,0.35649 0.03401,0.0828 0.08156,0.16029 0.141162,0.22813 0.0201,0.0229 0.04206,0.0452 0.06596,0.0665 0.139492,0.14029 0.314271,0.24793 0.50836,0.32753 0.187973,0.0771 0.385435,0.12435 0.571048,0.15624 0.162815,0.0288 0.336108,0.0499 0.40127,0.0574 a 0.13458056,0.13458056 90 0 0 0.03093,-0.26738 c -0.06522,-0.008 -0.233456,-0.0254 -0.387134,-0.0516 -0.174837,-0.0296 -0.351767,-0.0725 -0.515319,-0.1399 -0.167903,-0.0692 -0.310306,-0.15945 -0.424163,-0.27569 -0.02055,-0.0191 -0.03448,-0.0338 -0.04721,-0.049 -0.03785,-0.0451 -0.06733,-0.0971 -0.08729,-0.15268 -0.02675,-0.0745 -0.03608,-0.1545 -0.02659,-0.23194 0.01359,-0.13307 0.05964,-0.26288 0.131576,-0.38302 0.06989,-0.11672 0.163933,-0.2237 0.273683,-0.31203 0.0031,-0.003 0.006,-0.005 0.009,-0.008 0.0578,-0.0526 0.124905,-0.097 0.197808,-0.12822 0.04803,-0.0206 0.09867,-0.0355 0.150952,-0.0428 0.109677,-0.0176 0.224845,-0.004 0.329521,0.0414 0.05076,0.0219 0.09809,0.0508 0.139619,0.0861 0.04095,0.0348 0.07622,0.0756 0.103731,0.12211 0.264792,0.43162 0.386925,0.94908 0.37678,1.47422 l 0.0014,-0.0165 c -6.98e-4,0.007 -9.69e-4,0.0127 -0.0011,0.0175 -1.3e-4,0.005 -1.35e-4,0.0101 -9.1e-5,0.0147 8.6e-5,0.009 3.92e-4,0.0194 6.98e-4,0.0286 7.32e-4,0.0221 0.0013,0.0359 0.0017,0.0542 1.74e-4,0.008 2.24e-4,0.014 3.24e-4,0.0174 6.21e-4,0.002 9.49e-4,-3.2e-4 0.0026,-0.006 6.44e-4,-0.002 0.0049,-0.0179 0.01635,-0.035 0.0061,-0.009 0.01867,-0.0255 0.0403,-0.0389 0.01132,-0.007 0.02513,-0.0131 0.04119,-0.0166 0.01622,-0.004 0.03254,-0.004 0.0481,-0.001 0.01519,0.002 0.02831,0.007 0.03871,0.0123 0.01028,0.005 0.01837,0.0109 0.02437,0.0159 0.01153,0.01 0.01872,0.0189 0.02236,0.0241 0.004,0.006 0.0065,0.0103 0.0078,0.013 0.0014,0.003 0.0023,0.005 0.0027,0.006 0.003,0.008 0.0058,0.0161 0.0077,0.0244 -0.0036,-0.0162 -0.0069,-0.0325 -0.0099,-0.049 -0.01388,-0.0755 -0.02241,-0.1547 -0.02872,-0.24359 -0.0074,-0.10443 -0.01104,-0.20972 -0.01845,-0.31415 -0.04143,-0.64447 -0.04921,-1.27046 -0.07187,-1.9384 -0.02207,-0.6507 -0.05759,-1.29873 -0.152597,-1.94374 -4.01e-4,-0.0153 -0.001,-0.0371 -0.003,-0.06 -0.0023,-0.0269 -0.0069,-0.0609 -0.01753,-0.0942 -0.0055,-0.0173 -0.01343,-0.0367 -0.02504,-0.0557 -0.01192,-0.0196 -0.02873,-0.0403 -0.05231,-0.0576 -0.01202,-0.009 -0.02537,-0.0163 -0.03997,-0.0222 -0.0148,-0.006 -0.03009,-0.01 -0.04556,-0.0118 -0.03158,-0.004 -0.06122,2.7e-4 -0.08703,0.008 -0.0098,0.003 -0.01928,0.007 -0.02817,0.0123 -0.03986,0.0232 -0.07181,0.0525 -0.09679,0.0833 -0.02734,0.0337 -0.04688,0.0698 -0.06053,0.10414 -0.03562,0.0896 -0.03465,0.17353 -0.02601,0.22871 a 0.13211294,0.13211294 90 0 0 0.261042,-0.0409 z"
       id="path-1"
       inkscape:path-effect="#path-effect2792;#path-effect2794"
       inkscape:original-d="m -13.776202,149.57446 c -0.03945,-0.21729 0.222531,-0.46175 0.220006,-0.11749 0.180421,1.20266 0.148437,2.42443 0.211958,3.63627 0.019,0.26916 0.03162,0.80421 0.07998,0.90712 0.04283,-0.57175 -0.06029,-1.17795 -0.353509,-1.67586 -0.222515,-0.44333 -0.828447,-0.50701 -1.17324,-0.17318 -0.386257,0.29798 -0.676796,0.94409 -0.271477,1.34389 0.366169,0.38351 0.92251,0.46657 1.423653,0.52456"
       style="fill:#000000;fill-rule:nonzero;stroke:none;stroke-width:1.2929" />
  </g>
</svg>
