<?xml version="1.0" encoding="UTF-8" standalone="no"?>
<!-- Created with Inkscape (http://www.inkscape.org/) -->

<svg
   width="6mm"
   height="10mm"
   viewBox="0 0 6.0000001 9.9999994"
   version="1.1"
   id="svg1681"
   inkscape:version="1.2.1 (9c6d41e410, 2022-07-14)"
   sodipodi:docname="dot 1.3.svg"
   inkscape:export-filename="..\..\..\..\Downloads\lower a diff canvas resize 3.0.png"
   inkscape:export-xdpi="96"
   inkscape:export-ydpi="96"
   xmlns:inkscape="http://www.inkscape.org/namespaces/inkscape"
   xmlns:sodipodi="http://sodipodi.sourceforge.net/DTD/sodipodi-0.dtd"
   xmlns="http://www.w3.org/2000/svg"
   xmlns:svg="http://www.w3.org/2000/svg"
   xmlns:rdf="http://www.w3.org/1999/02/22-rdf-syntax-ns#"
   xmlns:cc="http://creativecommons.org/ns#"
   xmlns:dc="http://purl.org/dc/elements/1.1/">
  <defs
     id="defs1675">
    <inkscape:path-effect
       effect="powerstroke"
       id="path-effect1547"
       is_visible="true"
       lpeversion="1"
       offset_points="5.6381698,0.094267736"
       not_jump="true"
       sort_points="true"
       interpolator_type="CentripetalCatmullRom"
       interpolator_beta="0.75"
       start_linecap_type="round"
       linejoin_type="spiro"
       miter_limit="4"
       scale_width="1"
       end_linecap_type="round" />
    <inkscape:path-effect
       effect="simplify"
       id="path-effect1545"
       is_visible="true"
       lpeversion="1"
       steps="1"
       threshold="0.0035951417"
       smooth_angles="0"
       helper_size="0"
       simplify_individual_paths="false"
       simplify_just_coalesce="false"
       step="1" />
    <inkscape:path-effect
       effect="powerstroke"
       id="path-effect502"
       is_visible="true"
       lpeversion="1"
       offset_points="3.0091841,0.21607495 | 7.3602657,0.17554228 | 9.4159651,0.20236537"
       not_jump="true"
       sort_points="true"
       interpolator_type="CentripetalCatmullRom"
       interpolator_beta="0.75"
       start_linecap_type="round"
       linejoin_type="spiro"
       miter_limit="4"
       scale_width="1"
       end_linecap_type="round" />
    <inkscape:path-effect
       effect="simplify"
       id="path-effect500"
       is_visible="true"
       lpeversion="1"
       steps="1"
       threshold="0.0035951417"
       smooth_angles="0"
       helper_size="0"
       simplify_individual_paths="false"
       simplify_just_coalesce="false"
       step="1" />
    <inkscape:path-effect
       effect="powerstroke"
       id="path-effect241"
       is_visible="true"
       lpeversion="1"
       offset_points="2.6879454,0.34086734"
       not_jump="true"
       sort_points="true"
       interpolator_type="CentripetalCatmullRom"
       interpolator_beta="0.75"
       start_linecap_type="round"
       linejoin_type="spiro"
       miter_limit="4"
       scale_width="1"
       end_linecap_type="round" />
    <inkscape:path-effect
       effect="simplify"
       id="path-effect239"
       is_visible="true"
       lpeversion="1"
       steps="1"
       threshold="0.0028332064"
       smooth_angles="0"
       helper_size="0"
       simplify_individual_paths="false"
       simplify_just_coalesce="false"
       step="1" />
    <inkscape:path-effect
       effect="powerstroke"
       id="path-effect234"
       is_visible="true"
       lpeversion="1"
       offset_points="2.13563,0.075169555"
       not_jump="true"
       sort_points="true"
       interpolator_type="CentripetalCatmullRom"
       interpolator_beta="0.75"
       start_linecap_type="round"
       linejoin_type="spiro"
       miter_limit="4"
       scale_width="1"
       end_linecap_type="round" />
    <inkscape:path-effect
       effect="simplify"
       id="path-effect232"
       is_visible="true"
       lpeversion="1"
       steps="1"
       threshold="0.0028332064"
       smooth_angles="0"
       helper_size="0"
       simplify_individual_paths="false"
       simplify_just_coalesce="false"
       step="1" />
    <inkscape:path-effect
       effect="powerstroke"
       id="path-effect227"
       is_visible="true"
       lpeversion="1"
       offset_points="2.1868266,0.075169555"
       not_jump="true"
       sort_points="true"
       interpolator_type="CentripetalCatmullRom"
       interpolator_beta="0.75"
       start_linecap_type="round"
       linejoin_type="spiro"
       miter_limit="4"
       scale_width="1"
       end_linecap_type="round" />
    <inkscape:path-effect
       effect="simplify"
       id="path-effect225"
       is_visible="true"
       lpeversion="1"
       steps="1"
       threshold="0.0028332064"
       smooth_angles="0"
       helper_size="0"
       simplify_individual_paths="false"
       simplify_just_coalesce="false"
       step="1" />
    <inkscape:path-effect
       effect="powerstroke"
       id="path-effect166"
       is_visible="true"
       lpeversion="1"
       offset_points="1.9637935,0.075169555"
       not_jump="true"
       sort_points="true"
       interpolator_type="CentripetalCatmullRom"
       interpolator_beta="0.75"
       start_linecap_type="round"
       linejoin_type="spiro"
       miter_limit="4"
       scale_width="1"
       end_linecap_type="round" />
    <inkscape:path-effect
       effect="simplify"
       id="path-effect164"
       is_visible="true"
       lpeversion="1"
       steps="1"
       threshold="0.0028332064"
       smooth_angles="0"
       helper_size="0"
       simplify_individual_paths="false"
       simplify_just_coalesce="false"
       step="1" />
    <inkscape:path-effect
       effect="powerstroke"
       id="path-effect159"
       is_visible="true"
       lpeversion="1"
       offset_points="2.2611036,0.075169555"
       not_jump="true"
       sort_points="true"
       interpolator_type="CentripetalCatmullRom"
       interpolator_beta="0.75"
       start_linecap_type="round"
       linejoin_type="spiro"
       miter_limit="4"
       scale_width="1"
       end_linecap_type="round" />
    <inkscape:path-effect
       effect="simplify"
       id="path-effect157"
       is_visible="true"
       lpeversion="1"
       steps="1"
       threshold="0.0028332064"
       smooth_angles="0"
       helper_size="0"
       simplify_individual_paths="false"
       simplify_just_coalesce="false"
       step="1" />
    <inkscape:path-effect
       effect="powerstroke"
       id="path-effect152"
       is_visible="true"
       lpeversion="1"
       offset_points="2.826981,0.075169555"
       not_jump="true"
       sort_points="true"
       interpolator_type="CentripetalCatmullRom"
       interpolator_beta="0.75"
       start_linecap_type="round"
       linejoin_type="spiro"
       miter_limit="4"
       scale_width="1"
       end_linecap_type="round" />
    <inkscape:path-effect
       effect="simplify"
       id="path-effect150"
       is_visible="true"
       lpeversion="1"
       steps="1"
       threshold="0.0028332064"
       smooth_angles="0"
       helper_size="0"
       simplify_individual_paths="false"
       simplify_just_coalesce="false"
       step="1" />
    <inkscape:path-effect
       effect="powerstroke"
       id="path-effect145"
       is_visible="true"
       lpeversion="1"
       offset_points="3.8374447,0.075169555"
       not_jump="true"
       sort_points="true"
       interpolator_type="CentripetalCatmullRom"
       interpolator_beta="0.75"
       start_linecap_type="round"
       linejoin_type="spiro"
       miter_limit="4"
       scale_width="1"
       end_linecap_type="round" />
    <inkscape:path-effect
       effect="simplify"
       id="path-effect143"
       is_visible="true"
       lpeversion="1"
       steps="1"
       threshold="0.0028332064"
       smooth_angles="0"
       helper_size="0"
       simplify_individual_paths="false"
       simplify_just_coalesce="false"
       step="1" />
    <inkscape:path-effect
       effect="powerstroke"
       id="path-effect138"
       is_visible="true"
       lpeversion="1"
       offset_points="2.6880907,0.075169555"
       not_jump="true"
       sort_points="true"
       interpolator_type="CentripetalCatmullRom"
       interpolator_beta="0.75"
       start_linecap_type="round"
       linejoin_type="spiro"
       miter_limit="4"
       scale_width="1"
       end_linecap_type="round" />
    <inkscape:path-effect
       effect="simplify"
       id="path-effect136"
       is_visible="true"
       lpeversion="1"
       steps="1"
       threshold="0.0028332064"
       smooth_angles="0"
       helper_size="0"
       simplify_individual_paths="false"
       simplify_just_coalesce="false"
       step="1" />
    <inkscape:path-effect
       effect="powerstroke"
       id="path-effect131"
       is_visible="true"
       lpeversion="1"
       offset_points="1.9940581,0.075169555"
       not_jump="true"
       sort_points="true"
       interpolator_type="CentripetalCatmullRom"
       interpolator_beta="0.75"
       start_linecap_type="round"
       linejoin_type="spiro"
       miter_limit="4"
       scale_width="1"
       end_linecap_type="round" />
    <inkscape:path-effect
       effect="simplify"
       id="path-effect129"
       is_visible="true"
       lpeversion="1"
       steps="1"
       threshold="0.0028332064"
       smooth_angles="0"
       helper_size="0"
       simplify_individual_paths="false"
       simplify_just_coalesce="false"
       step="1" />
  </defs>
  <sodipodi:namedview
     id="base"
     pagecolor="#ffffff"
     bordercolor="#666666"
     borderopacity="1.0"
     inkscape:pageopacity="0.0"
     inkscape:pageshadow="2"
     inkscape:zoom="7.919596"
     inkscape:cx="-5.3033008"
     inkscape:cy="20.834396"
     inkscape:document-units="mm"
     inkscape:current-layer="layer1"
     showgrid="false"
     fit-margin-top="0"
     fit-margin-left="0"
     fit-margin-right="0"
     fit-margin-bottom="0"
     inkscape:window-width="1920"
     inkscape:window-height="974"
     inkscape:window-x="-11"
     inkscape:window-y="2869"
     inkscape:window-maximized="1"
     showguides="true"
     inkscape:guide-bbox="true"
     inkscape:snap-bbox="true"
     inkscape:bbox-nodes="true"
     inkscape:snap-nodes="false"
     inkscape:snap-others="false"
     inkscape:snap-page="true"
     inkscape:snap-grids="false"
     inkscape:snap-to-guides="false"
     inkscape:snap-global="false"
     inkscape:pagecheckerboard="0"
     inkscape:showpageshadow="2"
     inkscape:deskcolor="#d1d1d1">
    <sodipodi:guide
       position="-6.1806075,9.4988692"
       orientation="0,1"
       id="guide816"
       inkscape:locked="false" />
    <sodipodi:guide
       position="-4.4101636,10.646923"
       orientation="0,1"
       id="guide818"
       inkscape:locked="false" />
    <sodipodi:guide
       position="2.7595724,11.09577"
       orientation="1,0"
       id="guide820"
       inkscape:locked="false" />
    <sodipodi:guide
       position="3.6572659,10.942217"
       orientation="1,0"
       id="guide822"
       inkscape:locked="false" />
    <sodipodi:guide
       position="-0.051625511,9.7492299"
       orientation="1,0"
       id="guide1853"
       inkscape:locked="false" />
    <sodipodi:guide
       position="-2.3720169,3.0175835"
       orientation="0,1"
       id="guide1855"
       inkscape:locked="false" />
  </sodipodi:namedview>
  <metadata
     id="metadata1678">
    <rdf:RDF>
      <cc:Work
         rdf:about="">
        <dc:format>image/svg+xml</dc:format>
        <dc:type
           rdf:resource="http://purl.org/dc/dcmitype/StillImage" />
      </cc:Work>
    </rdf:RDF>
  </metadata>
  <g
     inkscape:label="Layer 1"
     inkscape:groupmode="layer"
     id="layer1"
     transform="translate(17.028496,-147.22856)">
    <path
       d="m -13.671423,153.2094 c -0.04967,0.0447 -0.113811,0.0967 -0.18697,0.16361 -0.05603,0.0512 -0.123258,0.1175 -0.179737,0.19861 -0.01411,0.0215 -0.0318,0.0484 -0.04694,0.0763 -0.01405,0.0259 -0.02889,0.0579 -0.03825,0.0946 -0.0072,0.0371 -0.0054,0.0685 0.0024,0.0979 0.0075,0.0282 0.02062,0.0548 0.03829,0.0781 0.01708,0.0225 0.03902,0.0427 0.06524,0.058 0.02555,0.0149 0.05566,0.0253 0.08886,0.0277 0.025,9e-4 0.04505,-0.002 0.06341,-0.006 0.01778,-0.004 0.03395,-0.0102 0.04822,-0.0164 0.02782,-0.012 0.05006,-0.0248 0.06676,-0.0328 0.06691,-0.038 0.12068,-0.0821 0.168482,-0.13175 0.04411,-0.0458 0.08298,-0.0961 0.117756,-0.14792 0.01477,-0.0161 0.02578,-0.0344 0.0333,-0.0535 0.0089,-0.0225 0.01314,-0.047 0.01219,-0.0716 -5.24e-4,-0.0136 -0.0027,-0.0274 -0.0067,-0.0412 -0.0032,-0.011 -0.0077,-0.0221 -0.01374,-0.033 -0.01311,-0.0237 -0.03305,-0.0453 -0.06023,-0.0606 -0.0049,-0.004 -0.01718,-0.01 -0.03016,-0.0147 -0.01268,-0.005 -0.02541,-0.007 -0.03794,-0.009 -0.02417,-0.003 -0.04622,2.2e-4 -0.06456,0.005 -0.01745,0.004 -0.03324,0.01 -0.04564,0.0147 -0.01232,0.005 -0.02257,0.009 -0.02969,0.0118 -0.06177,0.0246 -0.122706,0.0576 -0.177969,0.10178 -0.05243,0.0419 -0.101119,0.0951 -0.136975,0.1607 -0.01307,0.0183 -0.02129,0.0479 -0.02133,0.0769 -4.2e-5,0.0278 0.0074,0.054 0.01936,0.0764 0.01172,0.022 0.02868,0.042 0.05012,0.0574 0.01964,0.0141 0.0439,0.0249 0.07152,0.0285 0.02202,0.004 0.04352,0.005 0.06401,0.002 0.02166,-0.003 0.04147,-0.009 0.05912,-0.0158 0.03374,-0.0137 0.06258,-0.0335 0.08404,-0.0491 0.08674,-0.0569 0.162568,-0.14586 0.204254,-0.25344 0.0024,-0.006 0.0046,-0.0125 0.0057,-0.019 0.0011,-0.007 8.88e-4,-0.0132 5.46e-4,-0.0199 -0.0011,-0.0221 -0.007,-0.0432 -0.01631,-0.0618 -0.0092,-0.0184 -0.02232,-0.0359 -0.03946,-0.0501 -0.01706,-0.0142 -0.03898,-0.0259 -0.06495,-0.0307 -0.01289,-0.002 -0.02631,-0.003 -0.03993,-0.001 -0.01356,0.002 -0.02672,0.005 -0.0392,0.0103 -0.03288,0.0108 -0.06593,0.0315 -0.09363,0.0532 -0.02515,0.0197 -0.04738,0.0414 -0.06625,0.0605 -0.02904,0.0237 -0.05351,0.0537 -0.07102,0.0875 -0.0184,0.0355 -0.03008,0.0771 -0.02933,0.12135 4.45e-4,0.0176 0.0036,0.0344 0.01,0.0504 0.0063,0.0161 0.01537,0.0302 0.02625,0.0422 0.01078,0.0119 0.0229,0.0212 0.03522,0.0283 0.01225,0.007 0.02485,0.012 0.03709,0.0154 0.02408,0.007 0.0489,0.008 0.07193,0.004 0.02105,-0.003 0.04354,-0.01 0.0644,-0.0223 0.04763,-0.0246 0.08643,-0.0601 0.116137,-0.10036 0.0303,-0.041 0.0519,-0.0879 0.06429,-0.13586 0.0024,-0.009 0.0044,-0.0185 0.004,-0.028 -4.39e-4,-0.009 -0.0033,-0.0186 -0.0065,-0.0275 -0.0088,-0.0244 -0.02374,-0.0452 -0.04285,-0.0608 -0.0188,-0.0154 -0.04041,-0.0249 -0.06208,-0.0292 -0.02157,-0.004 -0.04391,-0.004 -0.06519,0.002 -0.02137,0.006 -0.04216,0.0161 -0.06007,0.0319 -0.05101,0.0367 -0.09008,0.094 -0.117475,0.14711 -0.0011,0.001 -0.0022,0.003 -0.0032,0.004 -0.0048,0.006 -0.0093,0.0131 -0.01327,0.0202 -0.0076,0.0135 -0.01521,0.031 -0.01883,0.0511 -0.0019,0.0103 -0.0029,0.0225 -0.0016,0.0359 0.0013,0.0135 0.005,0.0289 0.01279,0.044 0.008,0.0155 0.0195,0.0291 0.03376,0.0398 0.01387,0.0104 0.029,0.0169 0.04316,0.0207 0.02456,0.006 0.04716,0.006 0.06787,0.002 0.02022,-0.004 0.03744,-0.0112 0.05121,-0.0187 0.01372,-0.007 0.0254,-0.0159 0.03455,-0.023 0.0052,-0.004 0.01026,-0.008 0.01463,-0.012 0.01688,-0.01 0.03117,-0.0222 0.04275,-0.0357 0.01488,-0.0173 0.02623,-0.0375 0.03332,-0.059 0.0071,-0.0216 0.01041,-0.0459 0.0074,-0.0711 -0.003,-0.0256 -0.01252,-0.0517 -0.03014,-0.0748 -0.01477,-0.0169 -0.02669,-0.0267 -0.04064,-0.0344 -0.01402,-0.008 -0.0286,-0.0124 -0.04294,-0.0146 -0.01416,-0.002 -0.02725,-0.002 -0.03857,-4.6e-4 -0.01126,0.001 -0.0213,0.004 -0.02969,0.007 -0.01611,0.005 -0.03039,0.012 -0.03903,0.0163 -0.0095,0.005 -0.01621,0.008 -0.0169,0.008 -0.03107,0.0155 -0.04923,0.0322 -0.06264,0.0497 -0.01354,0.0177 -0.02399,0.0384 -0.02992,0.0607 -0.0059,0.0223 -0.008,0.0487 -0.0013,0.0761 0.0034,0.0138 0.009,0.0277 0.01714,0.0409 0.0082,0.0132 0.01862,0.025 0.03084,0.035 0.0037,0.003 0.0077,0.006 0.01187,0.008 0.01154,0.007 0.02374,0.0118 0.03637,0.015 0.01262,0.003 0.02487,0.005 0.03638,0.004 0.02267,-1.1e-4 0.04209,-0.005 0.05624,-0.0105 0.01407,-0.005 0.02663,-0.0113 0.03477,-0.0154 0.0088,-0.004 0.01513,-0.008 0.01749,-0.009 0.0069,-0.003 0.01345,-0.007 0.01947,-0.0112 0.01195,-0.009 0.02271,-0.0196 0.03173,-0.0308 0.0091,-0.0113 0.01835,-0.0255 0.0252,-0.0421 0.0067,-0.0163 0.01308,-0.0398 0.0098,-0.067 -0.0017,-0.0141 -0.0059,-0.0287 -0.0135,-0.0427 -0.0076,-0.0141 -0.01773,-0.0261 -0.02928,-0.0357 -0.0078,-0.006 -0.01589,-0.0127 -0.02528,-0.0164 -0.0094,-0.004 -0.01959,-0.005 -0.02967,-0.005 -0.02425,-0.001 -0.04734,0.003 -0.06735,0.01 -0.02036,0.007 -0.03998,0.0178 -0.05722,0.0317 -0.01736,0.014 -0.03395,0.0326 -0.04565,0.056 -0.01211,0.0242 -0.01856,0.053 -0.01505,0.0839 0.0034,0.0205 0.0085,0.0355 0.01668,0.0497 0.0083,0.0143 0.01896,0.0264 0.03127,0.036 0.01226,0.01 0.0253,0.0162 0.03788,0.0205 0.01258,0.004 0.02489,0.007 0.03619,0.007 0.02244,0.002 0.04376,-0.002 0.06203,-0.008 0.0083,-0.003 0.01667,-0.006 0.0249,-0.0106 0.01443,-0.003 0.02791,-0.007 0.04027,-0.0131 0.0212,-0.01 0.03891,-0.023 0.05328,-0.0366 0.02769,-0.0263 0.04704,-0.0581 0.05912,-0.087 0.0097,-0.0207 0.0133,-0.0431 0.01102,-0.0647 -0.0025,-0.0237 -0.01181,-0.0454 -0.02585,-0.0629 -0.01439,-0.018 -0.03422,-0.0322 -0.05779,-0.0396 -0.01197,-0.004 -0.02451,-0.006 -0.03723,-0.005 -0.01286,1.7e-4 -0.02535,0.002 -0.0371,0.006 -0.01917,0.004 -0.0394,0.0184 -0.0538,0.0335 -0.01381,0.0145 -0.02217,0.0298 -0.02712,0.0403 -0.0051,0.0108 -0.0088,0.0214 -0.01082,0.027 -0.0023,0.007 -0.0039,0.0104 -0.0035,0.01 l -0.0057,0.0164 c -0.0028,0.0112 -0.01102,0.0389 -0.01459,0.0637 -0.0021,0.0146 -0.0033,0.0315 -0.0016,0.0497 0.0018,0.0194 0.0068,0.0396 0.01667,0.0596 0.0058,0.0116 0.01232,0.0232 0.02222,0.0316 0.0099,0.008 0.02239,0.0129 0.03481,0.0167 0.01626,0.005 0.033,0.006 0.04931,0.004 0.01643,-0.002 0.03032,-0.007 0.04133,-0.0134 0.01117,-0.006 0.02005,-0.0129 0.02671,-0.0189 0.0069,-0.006 0.01258,-0.0124 0.01696,-0.0176 0.0087,-0.0104 0.01597,-0.0213 0.01954,-0.0266 0.0024,-0.004 0.0037,-0.005 0.0049,-0.007 0.0012,-0.002 0.0011,-0.001 -2e-5,-1.3e-4 a 0.09426774,0.09426774 90 0 0 -0.143072,-0.12278 c -0.0046,0.005 -0.0084,0.0106 -0.01114,0.0145 -0.0026,0.004 -0.0052,0.008 -0.0071,0.0105 -0.0043,0.006 -0.0062,0.009 -0.0075,0.0106 0.0031,-0.003 0.0065,-0.006 0.01182,-0.009 0.0053,-0.003 0.01324,-0.006 0.02335,-0.007 0.01016,-0.001 0.0204,-4.4e-4 0.02982,0.002 0.01241,0.004 0.02491,0.008 0.03481,0.0167 0.0099,0.008 0.01646,0.02 0.02222,0.0316 0.0017,0.003 0.0021,0.006 0.0022,0.007 4.9e-5,5.3e-4 -1.21e-4,-0.001 4.84e-4,-0.006 0.0016,-0.0112 0.004,-0.0178 0.0092,-0.038 0.0026,-0.006 0.0046,-0.0123 0.0057,-0.0156 0.002,-0.006 0.0035,-0.009 0.0036,-0.01 1.42e-4,-3e-4 -9.26e-4,0.003 -0.0069,0.009 -0.0063,0.007 -0.0166,0.014 -0.03052,0.0175 0.0015,-1.5e-4 -0.0053,0.001 -0.01258,0.001 -0.0072,9e-5 -0.0145,-9.6e-4 -0.02151,-0.003 -0.01382,-0.004 -0.02516,-0.0126 -0.0332,-0.0226 -0.0078,-0.01 -0.01301,-0.0219 -0.0144,-0.035 -0.0014,-0.0133 0.0012,-0.0267 0.0074,-0.0383 l -0.0043,0.009 c -0.004,0.01 -0.01004,0.019 -0.01545,0.0241 -0.0022,0.002 -0.0035,0.003 -0.0029,0.002 8.45e-4,-3.9e-4 0.0031,-0.001 0.0063,-0.001 l -0.06137,0.023 c 0.0046,-0.004 0.0082,-0.005 0.0098,-0.006 0.0017,-5.6e-4 0.0051,-0.001 0.01068,-0.001 0.0029,2.1e-4 0.0071,8.3e-4 0.01208,0.003 0.005,0.002 0.01102,0.005 0.01706,0.009 0.0061,0.005 0.01144,0.0109 0.01543,0.0177 0.0039,0.007 0.0059,0.0132 0.0067,0.018 0.0018,0.0143 -2.18e-4,0.022 -0.0028,0.0272 -0.0024,0.005 -0.0043,0.006 -0.0046,0.006 7.64e-4,-3.4e-4 -4.3e-5,3e-4 -0.0047,3e-5 -0.01008,-5.9e-4 -0.02028,-0.002 -0.02967,-0.005 -0.0094,-0.004 -0.01753,-0.01 -0.02528,-0.0164 -0.0057,-0.005 -0.01135,-0.0112 -0.01583,-0.0195 -0.0045,-0.008 -0.0068,-0.0167 -0.0078,-0.0243 -0.0017,-0.0145 0.0018,-0.0243 0.0031,-0.0273 0.0016,-0.004 0.0022,-0.004 0.0023,-0.004 1.38e-4,-1.7e-4 -2.8e-4,-8e-5 0.0024,-0.002 0.006,-0.004 0.01256,-0.008 0.01947,-0.0112 -0.01103,0.005 -0.02266,0.0108 -0.02855,0.0137 -0.0076,0.004 -0.01137,0.006 -0.01377,0.006 -0.0017,6.2e-4 2.62e-4,-5.6e-4 0.0066,-5.9e-4 0.0032,-2e-5 0.0072,3.5e-4 0.01159,0.001 0.0044,0.001 0.0084,0.003 0.01183,0.005 0.0042,0.002 0.0081,0.005 0.01187,0.008 0.0037,0.003 0.0073,0.007 0.01027,0.0118 0.0029,0.005 0.0048,0.01 0.0059,0.0139 0.0021,0.009 0.0011,0.0142 3.19e-4,0.0171 -6.86e-4,0.003 -0.0016,0.004 -0.0026,0.005 -8.94e-4,0.001 -0.0035,0.004 -0.0091,0.007 0.0038,-0.001 0.01704,-0.008 0.02252,-0.0106 0.0072,-0.004 0.01211,-0.006 0.01231,-0.006 9.7e-5,-3e-5 -0.0011,3.9e-4 -0.0039,7.5e-4 -0.0028,3.5e-4 -0.0075,6e-4 -0.01346,-3.2e-4 -0.0062,-9.5e-4 -0.01271,-0.003 -0.01901,-0.006 -0.0062,-0.003 -0.01072,-0.007 -0.01363,-0.0106 -0.0093,-0.0116 -0.01145,-0.0181 -0.01207,-0.0234 -5.81e-4,-0.005 1.88e-4,-0.008 7.56e-4,-0.0101 5.68e-4,-0.002 0.0014,-0.003 0.0026,-0.005 0.0013,-0.001 0.0039,-0.004 0.0085,-0.006 l -0.02307,0.0146 c -0.0067,0.006 -0.01124,0.01 -0.01591,0.0134 -0.0045,0.004 -0.0072,0.005 -0.0086,0.006 -0.0011,6.2e-4 9e-6,-2.5e-4 0.0037,-9.6e-4 0.0042,-7.9e-4 0.0095,-8.6e-4 0.01482,4.9e-4 0.0064,0.002 0.01422,0.005 0.02232,0.0108 0.0085,0.006 0.01569,0.0148 0.02075,0.0246 0.0048,0.009 0.0069,0.0184 0.0075,0.0252 6.17e-4,0.007 2.6e-5,0.0118 -5.29e-4,0.0149 -0.001,0.006 -0.0026,0.008 -0.0026,0.008 l 0.01561,-0.0221 c 0.02095,-0.0427 0.04473,-0.0752 0.07218,-0.0953 0.0015,-7.5e-4 -0.0047,0.002 -0.01072,0.004 -0.006,0.002 -0.01231,0.002 -0.01875,5e-4 -0.0065,-0.001 -0.01379,-0.004 -0.02057,-0.01 -0.0071,-0.006 -0.01228,-0.0133 -0.01513,-0.0212 -0.0032,-0.009 -0.0061,-0.0181 -0.0065,-0.0275 -4.39e-4,-0.009 0.0016,-0.0188 0.004,-0.028 -0.0067,0.0258 -0.01823,0.0505 -0.03341,0.071 -0.01522,0.0206 -0.03322,0.036 -0.0526,0.0457 -0.0032,0.002 -0.0064,0.003 -0.0094,0.005 0.0044,-0.003 0.007,-0.003 0.0071,-0.003 2.44e-4,-4e-5 0.0014,-2.4e-4 0.0041,4.9e-4 0.0015,4.1e-4 0.0039,0.001 0.0069,0.003 0.003,0.002 0.0068,0.004 0.01052,0.009 0.0038,0.004 0.0071,0.009 0.0094,0.0151 0.0023,0.006 0.0031,0.0109 0.0032,0.0148 -1.35e-4,-0.008 0.0023,-0.0191 0.0082,-0.0306 0.0061,-0.0117 0.01479,-0.022 0.02446,-0.0295 0.0034,-0.003 0.0066,-0.005 0.0096,-0.009 0.01909,-0.0194 0.0354,-0.0353 0.05198,-0.0483 0.01627,-0.0127 0.03075,-0.0209 0.04406,-0.0254 0.0029,-9.3e-4 -0.0015,3.2e-4 -0.0066,8.8e-4 -0.0051,5.7e-4 -0.01016,3.6e-4 -0.01505,-5.4e-4 -0.0099,-0.002 -0.01708,-0.006 -0.02156,-0.01 -0.0044,-0.004 -0.0071,-0.008 -0.0087,-0.0108 -0.0016,-0.003 -0.0029,-0.007 -0.0032,-0.0125 -3.42e-4,-0.007 -5.06e-4,-0.0133 5.46e-4,-0.0199 0.0011,-0.007 0.0033,-0.0128 0.0057,-0.019 -0.02668,0.0689 -0.07612,0.12741 -0.135825,0.16665 -0.02239,0.0162 -0.03605,0.0247 -0.04765,0.0294 -0.0054,0.002 -0.0092,0.003 -0.01168,0.003 -0.0023,2.9e-4 -0.0038,1.6e-4 -0.0052,-1.5e-4 -0.004,-8.9e-4 -0.0081,-0.002 -0.01221,-0.002 0.0071,6.2e-4 0.01231,0.003 0.01543,0.005 0.003,0.002 0.0049,0.005 0.0062,0.007 0.0013,0.002 0.0029,0.007 0.0029,0.0127 -10e-6,0.007 -0.002,0.0145 -0.0067,0.0212 0.02681,-0.0481 0.05774,-0.0827 0.09419,-0.11186 0.03851,-0.0308 0.08263,-0.055 0.127632,-0.073 0.01125,-0.004 0.02213,-0.009 0.03097,-0.0122 0.0096,-0.004 0.01553,-0.006 0.01979,-0.007 0.0039,-9.1e-4 0.004,-3.8e-4 0.0012,-6.8e-4 -0.0015,-1.7e-4 -0.0035,-5.6e-4 -0.0056,-0.001 -0.0022,-7.8e-4 -0.0039,-0.002 -0.005,-0.002 0.0013,0.001 -0.0029,-0.003 -0.0055,-0.008 -0.0011,-0.002 -0.0018,-0.004 -0.0023,-0.005 -5.57e-4,-0.002 -7.44e-4,-0.003 -7.86e-4,-0.005 -7.3e-5,-0.002 2.27e-4,-0.003 7.39e-4,-0.005 5.95e-4,-0.002 0.0018,-0.004 0.0045,-0.006 l -0.01445,0.017 c -0.03141,0.0474 -0.06492,0.0909 -0.101404,0.12879 -0.03759,0.039 -0.07748,0.0712 -0.120309,0.0957 -0.0196,0.009 -0.03908,0.0202 -0.05356,0.0264 -0.0076,0.003 -0.01335,0.005 -0.01787,0.006 -0.0045,0.001 -0.0074,0.001 -0.0095,0.001 0.0016,6e-5 -6.6e-4,-5.3e-4 -0.0038,-0.002 -0.0033,-0.002 -0.0069,-0.005 -0.01,-0.009 -0.0032,-0.004 -0.0052,-0.009 -0.0063,-0.0125 -0.001,-0.004 -9.72e-4,-0.007 -5.97e-4,-0.009 0.0029,-0.0105 0.01019,-0.0274 0.01998,-0.0454 0.0108,-0.0199 0.02406,-0.0402 0.03748,-0.0608 0.04306,-0.0618 0.09826,-0.11701 0.150674,-0.16491 0.06704,-0.0613 0.132292,-0.1144 0.185898,-0.16264 a 0.09426774,0.09426774 90 0 0 -0.12612,-0.14014 z"
       id="path-1"
       inkscape:path-effect="#path-effect1545;#path-effect1547"
       inkscape:original-d="m -13.608363,153.27947 c -0.154919,0.1393 -0.337784,0.26824 -0.418871,0.46758 -0.03385,0.10007 0.07217,0.20189 0.168286,0.14887 0.137168,-0.052 0.242313,-0.16647 0.321455,-0.28639 0.06959,-0.0784 -0.01661,-0.16446 -0.101592,-0.11722 -0.126642,0.0417 -0.250531,0.12672 -0.308887,0.24902 -0.01199,0.10074 0.115538,0.10541 0.172737,0.053 0.08849,-0.0503 0.159548,-0.13128 0.196369,-0.22631 -0.02223,-0.1248 -0.156596,-0.004 -0.202386,0.0452 -0.06363,0.0435 -0.120206,0.19869 0.0051,0.18609 0.08281,-0.0219 0.145856,-0.10853 0.165377,-0.18861 -0.05022,-0.0952 -0.154554,0.0539 -0.180345,0.11237 -0.06831,0.0822 0.03713,0.0957 0.08141,0.0357 0.08501,-0.0326 0.05806,-0.16784 -0.03463,-0.10602 -0.09532,0.0249 -0.07756,0.16521 0.02605,0.10221 0.06114,-0.0106 0.08425,-0.11893 0.0032,-0.0707 -0.07991,0.0374 -0.04313,0.13508 0.03891,0.0803 0.0654,0.008 0.157232,-0.14297 0.05936,-0.12094 -0.04703,0.044 -0.07911,0.27172 0.02257,0.11618"
       style="fill:#000000;fill-rule:nonzero;stroke:none;stroke-width:0.993936" />
  </g>
</svg>
