<?xml version="1.0" encoding="UTF-8" standalone="no"?>
<!-- Created with Inkscape (http://www.inkscape.org/) -->

<svg
   width="6mm"
   height="10mm"
   viewBox="0 0 6.0000001 9.9999994"
   version="1.1"
   id="svg1681"
   inkscape:version="1.2.1 (9c6d41e410, 2022-07-14)"
   sodipodi:docname="dot 1.2.svg"
   inkscape:export-filename="..\..\..\..\Downloads\lower a diff canvas resize 3.0.png"
   inkscape:export-xdpi="96"
   inkscape:export-ydpi="96"
   xmlns:inkscape="http://www.inkscape.org/namespaces/inkscape"
   xmlns:sodipodi="http://sodipodi.sourceforge.net/DTD/sodipodi-0.dtd"
   xmlns="http://www.w3.org/2000/svg"
   xmlns:svg="http://www.w3.org/2000/svg"
   xmlns:rdf="http://www.w3.org/1999/02/22-rdf-syntax-ns#"
   xmlns:cc="http://creativecommons.org/ns#"
   xmlns:dc="http://purl.org/dc/elements/1.1/">
  <defs
     id="defs1675">
    <inkscape:path-effect
       effect="powerstroke"
       id="path-effect1447"
       is_visible="true"
       lpeversion="1"
       offset_points="3.2201357,0.099416144 | 12.975655,0.11386871"
       not_jump="true"
       sort_points="true"
       interpolator_type="CentripetalCatmullRom"
       interpolator_beta="0.75"
       start_linecap_type="round"
       linejoin_type="spiro"
       miter_limit="4"
       scale_width="1"
       end_linecap_type="round" />
    <inkscape:path-effect
       effect="simplify"
       id="path-effect1445"
       is_visible="true"
       lpeversion="1"
       steps="1"
       threshold="0.0035951417"
       smooth_angles="0"
       helper_size="0"
       simplify_individual_paths="false"
       simplify_just_coalesce="false"
       step="1" />
    <inkscape:path-effect
       effect="powerstroke"
       id="path-effect502"
       is_visible="true"
       lpeversion="1"
       offset_points="3.0091841,0.21607495 | 7.3602657,0.17554228 | 9.4159651,0.20236537"
       not_jump="true"
       sort_points="true"
       interpolator_type="CentripetalCatmullRom"
       interpolator_beta="0.75"
       start_linecap_type="round"
       linejoin_type="spiro"
       miter_limit="4"
       scale_width="1"
       end_linecap_type="round" />
    <inkscape:path-effect
       effect="simplify"
       id="path-effect500"
       is_visible="true"
       lpeversion="1"
       steps="1"
       threshold="0.0035951417"
       smooth_angles="0"
       helper_size="0"
       simplify_individual_paths="false"
       simplify_just_coalesce="false"
       step="1" />
    <inkscape:path-effect
       effect="powerstroke"
       id="path-effect241"
       is_visible="true"
       lpeversion="1"
       offset_points="2.6879454,0.34086734"
       not_jump="true"
       sort_points="true"
       interpolator_type="CentripetalCatmullRom"
       interpolator_beta="0.75"
       start_linecap_type="round"
       linejoin_type="spiro"
       miter_limit="4"
       scale_width="1"
       end_linecap_type="round" />
    <inkscape:path-effect
       effect="simplify"
       id="path-effect239"
       is_visible="true"
       lpeversion="1"
       steps="1"
       threshold="0.0028332064"
       smooth_angles="0"
       helper_size="0"
       simplify_individual_paths="false"
       simplify_just_coalesce="false"
       step="1" />
    <inkscape:path-effect
       effect="powerstroke"
       id="path-effect234"
       is_visible="true"
       lpeversion="1"
       offset_points="2.13563,0.075169555"
       not_jump="true"
       sort_points="true"
       interpolator_type="CentripetalCatmullRom"
       interpolator_beta="0.75"
       start_linecap_type="round"
       linejoin_type="spiro"
       miter_limit="4"
       scale_width="1"
       end_linecap_type="round" />
    <inkscape:path-effect
       effect="simplify"
       id="path-effect232"
       is_visible="true"
       lpeversion="1"
       steps="1"
       threshold="0.0028332064"
       smooth_angles="0"
       helper_size="0"
       simplify_individual_paths="false"
       simplify_just_coalesce="false"
       step="1" />
    <inkscape:path-effect
       effect="powerstroke"
       id="path-effect227"
       is_visible="true"
       lpeversion="1"
       offset_points="2.1868266,0.075169555"
       not_jump="true"
       sort_points="true"
       interpolator_type="CentripetalCatmullRom"
       interpolator_beta="0.75"
       start_linecap_type="round"
       linejoin_type="spiro"
       miter_limit="4"
       scale_width="1"
       end_linecap_type="round" />
    <inkscape:path-effect
       effect="simplify"
       id="path-effect225"
       is_visible="true"
       lpeversion="1"
       steps="1"
       threshold="0.0028332064"
       smooth_angles="0"
       helper_size="0"
       simplify_individual_paths="false"
       simplify_just_coalesce="false"
       step="1" />
    <inkscape:path-effect
       effect="powerstroke"
       id="path-effect166"
       is_visible="true"
       lpeversion="1"
       offset_points="1.9637935,0.075169555"
       not_jump="true"
       sort_points="true"
       interpolator_type="CentripetalCatmullRom"
       interpolator_beta="0.75"
       start_linecap_type="round"
       linejoin_type="spiro"
       miter_limit="4"
       scale_width="1"
       end_linecap_type="round" />
    <inkscape:path-effect
       effect="simplify"
       id="path-effect164"
       is_visible="true"
       lpeversion="1"
       steps="1"
       threshold="0.0028332064"
       smooth_angles="0"
       helper_size="0"
       simplify_individual_paths="false"
       simplify_just_coalesce="false"
       step="1" />
    <inkscape:path-effect
       effect="powerstroke"
       id="path-effect159"
       is_visible="true"
       lpeversion="1"
       offset_points="2.2611036,0.075169555"
       not_jump="true"
       sort_points="true"
       interpolator_type="CentripetalCatmullRom"
       interpolator_beta="0.75"
       start_linecap_type="round"
       linejoin_type="spiro"
       miter_limit="4"
       scale_width="1"
       end_linecap_type="round" />
    <inkscape:path-effect
       effect="simplify"
       id="path-effect157"
       is_visible="true"
       lpeversion="1"
       steps="1"
       threshold="0.0028332064"
       smooth_angles="0"
       helper_size="0"
       simplify_individual_paths="false"
       simplify_just_coalesce="false"
       step="1" />
    <inkscape:path-effect
       effect="powerstroke"
       id="path-effect152"
       is_visible="true"
       lpeversion="1"
       offset_points="2.826981,0.075169555"
       not_jump="true"
       sort_points="true"
       interpolator_type="CentripetalCatmullRom"
       interpolator_beta="0.75"
       start_linecap_type="round"
       linejoin_type="spiro"
       miter_limit="4"
       scale_width="1"
       end_linecap_type="round" />
    <inkscape:path-effect
       effect="simplify"
       id="path-effect150"
       is_visible="true"
       lpeversion="1"
       steps="1"
       threshold="0.0028332064"
       smooth_angles="0"
       helper_size="0"
       simplify_individual_paths="false"
       simplify_just_coalesce="false"
       step="1" />
    <inkscape:path-effect
       effect="powerstroke"
       id="path-effect145"
       is_visible="true"
       lpeversion="1"
       offset_points="3.8374447,0.075169555"
       not_jump="true"
       sort_points="true"
       interpolator_type="CentripetalCatmullRom"
       interpolator_beta="0.75"
       start_linecap_type="round"
       linejoin_type="spiro"
       miter_limit="4"
       scale_width="1"
       end_linecap_type="round" />
    <inkscape:path-effect
       effect="simplify"
       id="path-effect143"
       is_visible="true"
       lpeversion="1"
       steps="1"
       threshold="0.0028332064"
       smooth_angles="0"
       helper_size="0"
       simplify_individual_paths="false"
       simplify_just_coalesce="false"
       step="1" />
    <inkscape:path-effect
       effect="powerstroke"
       id="path-effect138"
       is_visible="true"
       lpeversion="1"
       offset_points="2.6880907,0.075169555"
       not_jump="true"
       sort_points="true"
       interpolator_type="CentripetalCatmullRom"
       interpolator_beta="0.75"
       start_linecap_type="round"
       linejoin_type="spiro"
       miter_limit="4"
       scale_width="1"
       end_linecap_type="round" />
    <inkscape:path-effect
       effect="simplify"
       id="path-effect136"
       is_visible="true"
       lpeversion="1"
       steps="1"
       threshold="0.0028332064"
       smooth_angles="0"
       helper_size="0"
       simplify_individual_paths="false"
       simplify_just_coalesce="false"
       step="1" />
    <inkscape:path-effect
       effect="powerstroke"
       id="path-effect131"
       is_visible="true"
       lpeversion="1"
       offset_points="1.9940581,0.075169555"
       not_jump="true"
       sort_points="true"
       interpolator_type="CentripetalCatmullRom"
       interpolator_beta="0.75"
       start_linecap_type="round"
       linejoin_type="spiro"
       miter_limit="4"
       scale_width="1"
       end_linecap_type="round" />
    <inkscape:path-effect
       effect="simplify"
       id="path-effect129"
       is_visible="true"
       lpeversion="1"
       steps="1"
       threshold="0.0028332064"
       smooth_angles="0"
       helper_size="0"
       simplify_individual_paths="false"
       simplify_just_coalesce="false"
       step="1" />
  </defs>
  <sodipodi:namedview
     id="base"
     pagecolor="#ffffff"
     bordercolor="#666666"
     borderopacity="1.0"
     inkscape:pageopacity="0.0"
     inkscape:pageshadow="2"
     inkscape:zoom="7.919596"
     inkscape:cx="-5.3033008"
     inkscape:cy="20.834396"
     inkscape:document-units="mm"
     inkscape:current-layer="layer1"
     showgrid="false"
     fit-margin-top="0"
     fit-margin-left="0"
     fit-margin-right="0"
     fit-margin-bottom="0"
     inkscape:window-width="1920"
     inkscape:window-height="974"
     inkscape:window-x="-11"
     inkscape:window-y="2869"
     inkscape:window-maximized="1"
     showguides="true"
     inkscape:guide-bbox="true"
     inkscape:snap-bbox="true"
     inkscape:bbox-nodes="true"
     inkscape:snap-nodes="false"
     inkscape:snap-others="false"
     inkscape:snap-page="true"
     inkscape:snap-grids="false"
     inkscape:snap-to-guides="false"
     inkscape:snap-global="false"
     inkscape:pagecheckerboard="0"
     inkscape:showpageshadow="2"
     inkscape:deskcolor="#d1d1d1">
    <sodipodi:guide
       position="-6.1806075,9.4988692"
       orientation="0,1"
       id="guide816"
       inkscape:locked="false" />
    <sodipodi:guide
       position="-4.4101636,10.646923"
       orientation="0,1"
       id="guide818"
       inkscape:locked="false" />
    <sodipodi:guide
       position="2.7595724,11.09577"
       orientation="1,0"
       id="guide820"
       inkscape:locked="false" />
    <sodipodi:guide
       position="3.6572659,10.942217"
       orientation="1,0"
       id="guide822"
       inkscape:locked="false" />
    <sodipodi:guide
       position="-0.051625511,9.7492299"
       orientation="1,0"
       id="guide1853"
       inkscape:locked="false" />
    <sodipodi:guide
       position="-2.3720169,3.0175835"
       orientation="0,1"
       id="guide1855"
       inkscape:locked="false" />
  </sodipodi:namedview>
  <metadata
     id="metadata1678">
    <rdf:RDF>
      <cc:Work
         rdf:about="">
        <dc:format>image/svg+xml</dc:format>
        <dc:type
           rdf:resource="http://purl.org/dc/dcmitype/StillImage" />
      </cc:Work>
    </rdf:RDF>
  </metadata>
  <g
     inkscape:label="Layer 1"
     inkscape:groupmode="layer"
     id="layer1"
     transform="translate(17.028496,-147.22856)">
    <path
       d="m -13.648369,153.09104 c -0.0213,0.0292 -0.05473,0.0692 -0.09468,0.12714 -0.02805,0.0406 -0.0631,0.0972 -0.08376,0.16598 -0.0078,0.0284 -0.01195,0.0536 -0.01538,0.0778 -0.0032,0.0227 -0.0054,0.0415 -0.0088,0.0602 -9.28e-4,0.005 -0.0014,0.0104 -0.0015,0.0157 -2.91e-4,0.0172 0.001,0.0361 0.0045,0.0554 0.0034,0.0187 0.0092,0.0396 0.01894,0.0602 0.0095,0.0202 0.0238,0.0422 0.04518,0.061 0.01069,0.009 0.023,0.0178 0.037,0.0246 0.01397,0.007 0.02895,0.0115 0.04469,0.0141 0.0057,9.5e-4 0.01153,0.001 0.01733,0.001 0.02357,-2.5e-4 0.04517,-0.005 0.06449,-0.012 0.0026,-9.5e-4 0.0051,-0.002 0.0076,-0.003 0.0202,-0.008 0.03757,-0.0192 0.05226,-0.03 0.02753,-0.0202 0.04793,-0.0412 0.06163,-0.053 0.0034,-0.003 0.0065,-0.006 0.0095,-0.01 0.0047,-0.005 0.01306,-0.014 0.02292,-0.0254 0.0091,-0.0104 0.02107,-0.0251 0.0315,-0.0425 0.01002,-0.0167 0.02153,-0.0406 0.0253,-0.07 0.0019,-0.0148 0.0018,-0.0309 -0.0013,-0.0477 -0.0031,-0.0166 -0.009,-0.0326 -0.01748,-0.0475 -0.0028,-0.005 -0.0062,-0.01 -0.0098,-0.0142 -0.01194,-0.0147 -0.02672,-0.0273 -0.04401,-0.0368 -0.01694,-0.009 -0.03568,-0.0152 -0.05526,-0.0172 -0.03321,-0.003 -0.06609,0.005 -0.09401,0.0226 -0.05656,0.0269 -0.117614,0.0584 -0.175396,0.0974 -0.05919,0.04 -0.117436,0.0893 -0.165813,0.15259 -0.0073,0.008 -0.01919,0.0234 -0.02966,0.041 -0.01033,0.0173 -0.02012,0.038 -0.02643,0.0614 -0.0063,0.0233 -0.0095,0.0508 -0.0049,0.0804 0.0023,0.0148 0.0065,0.0296 0.01289,0.0441 0.0064,0.0145 0.01461,0.0281 0.02457,0.0406 0.01684,0.0226 0.04004,0.0424 0.06512,0.0571 0.02494,0.0146 0.05206,0.0242 0.07955,0.0291 0.02745,0.005 0.05608,0.005 0.0843,3.9e-4 0.02826,-0.005 0.05668,-0.0149 0.08296,-0.0312 0.05705,-0.0284 0.116146,-0.0748 0.163783,-0.13106 0.04797,-0.0566 0.08499,-0.12399 0.104378,-0.19864 0.0084,-0.0338 0.0067,-0.0666 -0.0036,-0.0968 -0.01022,-0.0298 -0.02785,-0.0539 -0.04801,-0.0721 -0.02023,-0.0183 -0.0439,-0.0314 -0.06855,-0.0393 -0.02218,-0.007 -0.04634,-0.0103 -0.07105,-0.009 -0.04018,2.6e-4 -0.07643,0.008 -0.108012,0.0182 -0.03314,0.0106 -0.06351,0.0244 -0.08799,0.0361 -0.06942,0.0326 -0.138238,0.0734 -0.199995,0.12344 -0.06135,0.0497 -0.115431,0.10826 -0.157284,0.17675 -0.0012,0.002 -0.0024,0.004 -0.0036,0.006 -0.01616,0.0235 -0.02651,0.0495 -0.03141,0.076 -0.0052,0.028 -0.0043,0.0565 0.0021,0.0836 0.0063,0.0267 0.01801,0.0528 0.03546,0.076 0.01615,0.0215 0.03723,0.0404 0.06292,0.0545 0.02098,0.0128 0.04312,0.0217 0.06555,0.0271 0.02378,0.006 0.04726,0.007 0.06952,0.006 0.04111,-0.002 0.07947,-0.0135 0.112161,-0.029 0.04793,-0.018 0.100352,-0.04 0.150414,-0.0693 0.05258,-0.0308 0.104366,-0.0708 0.146895,-0.1248 0.0034,-0.004 1.34e-4,-5.5e-4 0.0054,-0.007 0.0022,-0.003 0.01141,-0.0138 0.01892,-0.0282 0.0042,-0.008 0.0092,-0.0195 0.01219,-0.0339 0.0032,-0.015 0.0041,-0.0331 -2.09e-4,-0.0526 -0.0044,-0.0198 -0.01319,-0.0368 -0.02389,-0.0504 -0.0062,-0.008 -0.01273,-0.0143 -0.01907,-0.0197 -0.0092,-0.009 -0.01921,-0.0164 -0.02988,-0.0229 -0.01398,-0.009 -0.02841,-0.0147 -0.0427,-0.0189 -0.02875,-0.008 -0.056,-0.009 -0.07838,-0.006 -0.02294,0.003 -0.04366,0.008 -0.06074,0.0147 -0.01775,0.007 -0.0337,0.0143 -0.04704,0.0217 -0.01088,0.007 -0.02375,0.0144 -0.03569,0.0225 -0.01279,0.009 -0.02909,0.0208 -0.04429,0.0364 -0.01571,0.0161 -0.03454,0.0404 -0.04437,0.0734 -0.0052,0.0176 -0.0076,0.0366 -0.006,0.0563 0.0016,0.0203 0.007,0.039 0.0148,0.0557 0.0028,0.006 0.0058,0.0121 0.0097,0.0176 0.0038,0.005 0.0085,0.0104 0.01327,0.0151 0.0169,0.0168 0.03525,0.0276 0.05164,0.0345 0.01738,0.007 0.03349,0.0108 0.04531,0.0126 0.03013,0.005 0.04515,0.003 0.0514,0.004 a 0.11386871,0.11386871 90 0 0 0.0091,-0.22756 c -0.01383,-5.5e-4 -0.02577,-0.001 -0.02527,-0.001 2.07e-4,1e-5 0.0029,2.5e-4 0.0086,0.003 0.0053,0.002 0.01284,0.006 0.02014,0.0137 0.0048,0.005 0.0094,0.01 0.01327,0.0151 0.0038,0.005 0.0068,0.0115 0.0097,0.0176 0.0026,0.006 0.0052,0.0135 0.0059,0.0232 7.38e-4,0.009 -4.21e-4,0.0185 -0.0028,0.0264 -0.0043,0.0145 -0.01038,0.0203 -0.01091,0.0209 -5.08e-4,5.5e-4 0.003,-0.003 0.009,-0.007 0.007,-0.005 0.01252,-0.008 0.02323,-0.0145 1.05e-4,1.4e-4 0.0053,-0.002 0.0099,-0.004 0.0043,-0.002 0.0076,-0.002 0.0075,-0.002 -1.27e-4,3e-5 -0.0041,6.3e-4 -0.01149,-0.002 -0.0037,-0.001 -0.0079,-0.003 -0.01216,-0.005 -0.0016,-0.001 -0.0032,-0.002 -0.0046,-0.003 -0.0024,-0.002 -0.0049,-0.005 -0.0074,-0.008 -0.0085,-0.0108 -0.0159,-0.0248 -0.01963,-0.0417 -0.0037,-0.0166 -0.0028,-0.0318 -2.63e-4,-0.0438 0.0024,-0.0115 0.0063,-0.02 0.0089,-0.025 0.0055,-0.0106 0.0078,-0.0121 0.0065,-0.0106 -0.0013,0.002 -0.0057,0.006 -0.01348,0.0179 -0.01465,0.0179 -0.04207,0.0404 -0.07701,0.0609 -0.03506,0.0206 -0.07518,0.0377 -0.119492,0.0542 -0.0039,0.001 -0.0077,0.003 -0.01143,0.005 -0.01106,0.006 -0.02063,0.008 -0.02686,0.008 -0.0028,1.6e-4 -0.0044,-1e-4 -0.0049,-2e-4 -9.84e-4,-1.8e-4 -0.002,-4e-4 -0.0029,-8.1e-4 -9.14e-4,-4.1e-4 -0.0017,-9.8e-4 -0.0025,-0.002 -7.88e-4,-6.2e-4 -0.0015,-0.001 -0.0024,-0.002 -8.17e-4,-5.8e-4 -0.0017,-0.001 -0.0026,-0.002 0.0049,0.002 0.0086,0.006 0.01104,0.009 0.0024,0.003 0.0037,0.006 0.0043,0.009 6.29e-4,0.003 7.73e-4,0.006 3.5e-5,0.01 -7.83e-4,0.004 -0.0026,0.008 -0.0057,0.0126 l 0.0068,-0.0104 c 0.0013,-0.002 0.0027,-0.005 0.004,-0.007 0.02621,-0.0433 0.06189,-0.0831 0.105985,-0.11919 0.04473,-0.0366 0.09709,-0.0685 0.154457,-0.0958 0.02322,-0.0115 0.04208,-0.0202 0.05987,-0.0262 0.01699,-0.006 0.03083,-0.008 0.04278,-0.009 0.0049,-7e-5 0.0097,-3.7e-4 0.0146,-8.9e-4 -0.0059,6.3e-4 -0.01082,-1.9e-4 -0.01474,-0.002 -0.0038,-0.001 -0.0081,-0.004 -0.01243,-0.008 -0.0044,-0.004 -0.0096,-0.0108 -0.01285,-0.0205 -0.0034,-0.0102 -0.0035,-0.0207 -0.0013,-0.0292 -0.0096,0.0385 -0.02973,0.0772 -0.05801,0.11124 -0.02827,0.0341 -0.06399,0.0628 -0.103578,0.0834 -0.0089,0.005 -0.01046,0.006 -0.01331,0.007 -0.0029,6.6e-4 -0.0064,8.5e-4 -0.01018,3.5e-4 -0.0038,-4.9e-4 -0.0069,-0.002 -0.0092,-0.003 -0.0046,-0.003 -0.0033,-0.001 -0.0021,0.001 0.0012,0.003 0.0019,0.006 0.0023,0.008 7e-4,0.005 -2.83e-4,0.008 -2.74e-4,0.008 1.1e-5,-7.9e-4 0.001,-0.004 0.0036,-0.009 0.0026,-0.005 0.0062,-0.01 0.01047,-0.0151 0.03518,-0.0464 0.07445,-0.0814 0.120282,-0.11297 0.04697,-0.0323 0.09945,-0.0601 0.154099,-0.0865 0.0073,-0.004 0.014,-0.008 0.02039,-0.0128 -0.01016,0.008 -0.0249,0.0129 -0.04138,0.0111 -0.0082,-9.1e-4 -0.01585,-0.003 -0.02253,-0.007 -0.0068,-0.004 -0.01203,-0.009 -0.01571,-0.0133 -0.0018,-0.002 -0.0036,-0.005 -0.0053,-0.007 -0.0017,-0.002 -0.0032,-0.005 -0.0046,-0.007 -0.0022,-0.004 -0.0042,-0.009 -0.0053,-0.0151 -0.0011,-0.006 -9.89e-4,-0.0113 -3.94e-4,-0.0156 0.0012,-0.008 0.0033,-0.0102 0.0021,-0.008 -0.0015,0.003 -0.0049,0.008 -0.01081,0.0147 -0.0049,0.006 -0.01079,0.0124 -0.01741,0.02 -0.01965,0.0178 -0.03332,0.0315 -0.04255,0.0385 -0.0056,0.004 -0.0087,0.006 -0.01,0.006 l 0.01916,0.001 c 0.0028,4.9e-4 0.0059,0.001 0.0091,0.003 0.0032,0.002 0.0057,0.003 0.0076,0.005 0.0037,0.003 0.004,0.005 0.0033,0.003 -8.93e-4,-0.002 -0.0022,-0.006 -0.0033,-0.0111 -6.44e-4,-0.003 -0.001,-0.007 -0.0012,-0.0104 0.0034,-0.0207 0.0062,-0.0432 0.0083,-0.0573 0.0031,-0.0214 0.006,-0.037 0.0099,-0.051 0.01124,-0.037 0.0328,-0.0735 0.05661,-0.10788 0.03234,-0.0466 0.06718,-0.0889 0.09198,-0.12288 a 0.09941614,0.09941614 90 0 0 -0.160632,-0.11718 z"
       id="path-1"
       inkscape:path-effect="#path-effect1445;#path-effect1447"
       inkscape:original-d="m -13.568053,153.14963 c -0.07563,0.10341 -0.173453,0.20608 -0.176429,0.34224 -0.03041,0.0763 0.01742,0.21571 0.115074,0.14347 0.05354,-0.0344 0.190837,-0.16398 0.07627,-0.18971 -0.143393,0.0662 -0.295801,0.14923 -0.372663,0.2936 -0.02904,0.1002 0.10037,0.15952 0.178847,0.11265 0.10606,-0.0521 0.195036,-0.15191 0.224132,-0.26766 0.01235,-0.11075 -0.136836,-0.0801 -0.198583,-0.0483 -0.139403,0.0603 -0.27535,0.15283 -0.350879,0.28774 -0.05468,0.0999 0.07431,0.17234 0.158654,0.12808 0.108155,-0.0387 0.224108,-0.0896 0.288826,-0.1895 -0.04109,-0.0734 -0.157837,-0.009 -0.199339,0.0396 -0.03435,0.0597 0.02757,0.0643 0.06821,0.0643"
       style="fill:#000000;fill-rule:nonzero;stroke:none;stroke-width:1.49152" />
  </g>
</svg>
