<?xml version="1.0" encoding="UTF-8" standalone="no"?>
<!-- Created with Inkscape (http://www.inkscape.org/) -->

<svg
   width="6mm"
   height="10mm"
   viewBox="0 0 6.0000001 9.9999994"
   version="1.1"
   id="svg1681"
   inkscape:version="1.2.1 (9c6d41e410, 2022-07-14)"
   sodipodi:docname="dot 1.5.svg"
   inkscape:export-filename="..\..\..\..\Downloads\lower a diff canvas resize 3.0.png"
   inkscape:export-xdpi="96"
   inkscape:export-ydpi="96"
   xmlns:inkscape="http://www.inkscape.org/namespaces/inkscape"
   xmlns:sodipodi="http://sodipodi.sourceforge.net/DTD/sodipodi-0.dtd"
   xmlns="http://www.w3.org/2000/svg"
   xmlns:svg="http://www.w3.org/2000/svg"
   xmlns:rdf="http://www.w3.org/1999/02/22-rdf-syntax-ns#"
   xmlns:cc="http://creativecommons.org/ns#"
   xmlns:dc="http://purl.org/dc/elements/1.1/">
  <defs
     id="defs1675">
    <inkscape:path-effect
       effect="powerstroke"
       id="path-effect1728"
       is_visible="true"
       lpeversion="1"
       offset_points="8.1536841,0.077481146 | 19.435006,0.087667 | 22.983426,0.079655653"
       not_jump="true"
       sort_points="true"
       interpolator_type="CentripetalCatmullRom"
       interpolator_beta="0.75"
       start_linecap_type="round"
       linejoin_type="spiro"
       miter_limit="4"
       scale_width="1"
       end_linecap_type="round" />
    <inkscape:path-effect
       effect="simplify"
       id="path-effect1726"
       is_visible="true"
       lpeversion="1"
       steps="1"
       threshold="0.0035951417"
       smooth_angles="0"
       helper_size="0"
       simplify_individual_paths="false"
       simplify_just_coalesce="false"
       step="1" />
    <inkscape:path-effect
       effect="powerstroke"
       id="path-effect502"
       is_visible="true"
       lpeversion="1"
       offset_points="3.0091841,0.21607495 | 7.3602657,0.17554228 | 9.4159651,0.20236537"
       not_jump="true"
       sort_points="true"
       interpolator_type="CentripetalCatmullRom"
       interpolator_beta="0.75"
       start_linecap_type="round"
       linejoin_type="spiro"
       miter_limit="4"
       scale_width="1"
       end_linecap_type="round" />
    <inkscape:path-effect
       effect="simplify"
       id="path-effect500"
       is_visible="true"
       lpeversion="1"
       steps="1"
       threshold="0.0035951417"
       smooth_angles="0"
       helper_size="0"
       simplify_individual_paths="false"
       simplify_just_coalesce="false"
       step="1" />
    <inkscape:path-effect
       effect="powerstroke"
       id="path-effect241"
       is_visible="true"
       lpeversion="1"
       offset_points="2.6879454,0.34086734"
       not_jump="true"
       sort_points="true"
       interpolator_type="CentripetalCatmullRom"
       interpolator_beta="0.75"
       start_linecap_type="round"
       linejoin_type="spiro"
       miter_limit="4"
       scale_width="1"
       end_linecap_type="round" />
    <inkscape:path-effect
       effect="simplify"
       id="path-effect239"
       is_visible="true"
       lpeversion="1"
       steps="1"
       threshold="0.0028332064"
       smooth_angles="0"
       helper_size="0"
       simplify_individual_paths="false"
       simplify_just_coalesce="false"
       step="1" />
    <inkscape:path-effect
       effect="powerstroke"
       id="path-effect234"
       is_visible="true"
       lpeversion="1"
       offset_points="2.13563,0.075169555"
       not_jump="true"
       sort_points="true"
       interpolator_type="CentripetalCatmullRom"
       interpolator_beta="0.75"
       start_linecap_type="round"
       linejoin_type="spiro"
       miter_limit="4"
       scale_width="1"
       end_linecap_type="round" />
    <inkscape:path-effect
       effect="simplify"
       id="path-effect232"
       is_visible="true"
       lpeversion="1"
       steps="1"
       threshold="0.0028332064"
       smooth_angles="0"
       helper_size="0"
       simplify_individual_paths="false"
       simplify_just_coalesce="false"
       step="1" />
    <inkscape:path-effect
       effect="powerstroke"
       id="path-effect227"
       is_visible="true"
       lpeversion="1"
       offset_points="2.1868266,0.075169555"
       not_jump="true"
       sort_points="true"
       interpolator_type="CentripetalCatmullRom"
       interpolator_beta="0.75"
       start_linecap_type="round"
       linejoin_type="spiro"
       miter_limit="4"
       scale_width="1"
       end_linecap_type="round" />
    <inkscape:path-effect
       effect="simplify"
       id="path-effect225"
       is_visible="true"
       lpeversion="1"
       steps="1"
       threshold="0.0028332064"
       smooth_angles="0"
       helper_size="0"
       simplify_individual_paths="false"
       simplify_just_coalesce="false"
       step="1" />
    <inkscape:path-effect
       effect="powerstroke"
       id="path-effect166"
       is_visible="true"
       lpeversion="1"
       offset_points="1.9637935,0.075169555"
       not_jump="true"
       sort_points="true"
       interpolator_type="CentripetalCatmullRom"
       interpolator_beta="0.75"
       start_linecap_type="round"
       linejoin_type="spiro"
       miter_limit="4"
       scale_width="1"
       end_linecap_type="round" />
    <inkscape:path-effect
       effect="simplify"
       id="path-effect164"
       is_visible="true"
       lpeversion="1"
       steps="1"
       threshold="0.0028332064"
       smooth_angles="0"
       helper_size="0"
       simplify_individual_paths="false"
       simplify_just_coalesce="false"
       step="1" />
    <inkscape:path-effect
       effect="powerstroke"
       id="path-effect159"
       is_visible="true"
       lpeversion="1"
       offset_points="2.2611036,0.075169555"
       not_jump="true"
       sort_points="true"
       interpolator_type="CentripetalCatmullRom"
       interpolator_beta="0.75"
       start_linecap_type="round"
       linejoin_type="spiro"
       miter_limit="4"
       scale_width="1"
       end_linecap_type="round" />
    <inkscape:path-effect
       effect="simplify"
       id="path-effect157"
       is_visible="true"
       lpeversion="1"
       steps="1"
       threshold="0.0028332064"
       smooth_angles="0"
       helper_size="0"
       simplify_individual_paths="false"
       simplify_just_coalesce="false"
       step="1" />
    <inkscape:path-effect
       effect="powerstroke"
       id="path-effect152"
       is_visible="true"
       lpeversion="1"
       offset_points="2.826981,0.075169555"
       not_jump="true"
       sort_points="true"
       interpolator_type="CentripetalCatmullRom"
       interpolator_beta="0.75"
       start_linecap_type="round"
       linejoin_type="spiro"
       miter_limit="4"
       scale_width="1"
       end_linecap_type="round" />
    <inkscape:path-effect
       effect="simplify"
       id="path-effect150"
       is_visible="true"
       lpeversion="1"
       steps="1"
       threshold="0.0028332064"
       smooth_angles="0"
       helper_size="0"
       simplify_individual_paths="false"
       simplify_just_coalesce="false"
       step="1" />
    <inkscape:path-effect
       effect="powerstroke"
       id="path-effect145"
       is_visible="true"
       lpeversion="1"
       offset_points="3.8374447,0.075169555"
       not_jump="true"
       sort_points="true"
       interpolator_type="CentripetalCatmullRom"
       interpolator_beta="0.75"
       start_linecap_type="round"
       linejoin_type="spiro"
       miter_limit="4"
       scale_width="1"
       end_linecap_type="round" />
    <inkscape:path-effect
       effect="simplify"
       id="path-effect143"
       is_visible="true"
       lpeversion="1"
       steps="1"
       threshold="0.0028332064"
       smooth_angles="0"
       helper_size="0"
       simplify_individual_paths="false"
       simplify_just_coalesce="false"
       step="1" />
    <inkscape:path-effect
       effect="powerstroke"
       id="path-effect138"
       is_visible="true"
       lpeversion="1"
       offset_points="2.6880907,0.075169555"
       not_jump="true"
       sort_points="true"
       interpolator_type="CentripetalCatmullRom"
       interpolator_beta="0.75"
       start_linecap_type="round"
       linejoin_type="spiro"
       miter_limit="4"
       scale_width="1"
       end_linecap_type="round" />
    <inkscape:path-effect
       effect="simplify"
       id="path-effect136"
       is_visible="true"
       lpeversion="1"
       steps="1"
       threshold="0.0028332064"
       smooth_angles="0"
       helper_size="0"
       simplify_individual_paths="false"
       simplify_just_coalesce="false"
       step="1" />
    <inkscape:path-effect
       effect="powerstroke"
       id="path-effect131"
       is_visible="true"
       lpeversion="1"
       offset_points="1.9940581,0.075169555"
       not_jump="true"
       sort_points="true"
       interpolator_type="CentripetalCatmullRom"
       interpolator_beta="0.75"
       start_linecap_type="round"
       linejoin_type="spiro"
       miter_limit="4"
       scale_width="1"
       end_linecap_type="round" />
    <inkscape:path-effect
       effect="simplify"
       id="path-effect129"
       is_visible="true"
       lpeversion="1"
       steps="1"
       threshold="0.0028332064"
       smooth_angles="0"
       helper_size="0"
       simplify_individual_paths="false"
       simplify_just_coalesce="false"
       step="1" />
  </defs>
  <sodipodi:namedview
     id="base"
     pagecolor="#ffffff"
     bordercolor="#666666"
     borderopacity="1.0"
     inkscape:pageopacity="0.0"
     inkscape:pageshadow="2"
     inkscape:zoom="7.919596"
     inkscape:cx="-5.3033008"
     inkscape:cy="20.834396"
     inkscape:document-units="mm"
     inkscape:current-layer="layer1"
     showgrid="false"
     fit-margin-top="0"
     fit-margin-left="0"
     fit-margin-right="0"
     fit-margin-bottom="0"
     inkscape:window-width="1920"
     inkscape:window-height="974"
     inkscape:window-x="-11"
     inkscape:window-y="2869"
     inkscape:window-maximized="1"
     showguides="true"
     inkscape:guide-bbox="true"
     inkscape:snap-bbox="true"
     inkscape:bbox-nodes="true"
     inkscape:snap-nodes="false"
     inkscape:snap-others="false"
     inkscape:snap-page="true"
     inkscape:snap-grids="false"
     inkscape:snap-to-guides="false"
     inkscape:snap-global="false"
     inkscape:pagecheckerboard="0"
     inkscape:showpageshadow="2"
     inkscape:deskcolor="#d1d1d1">
    <sodipodi:guide
       position="-6.1806075,9.4988692"
       orientation="0,1"
       id="guide816"
       inkscape:locked="false" />
    <sodipodi:guide
       position="-4.4101636,10.646923"
       orientation="0,1"
       id="guide818"
       inkscape:locked="false" />
    <sodipodi:guide
       position="2.7595724,11.09577"
       orientation="1,0"
       id="guide820"
       inkscape:locked="false" />
    <sodipodi:guide
       position="3.6572659,10.942217"
       orientation="1,0"
       id="guide822"
       inkscape:locked="false" />
    <sodipodi:guide
       position="-0.051625511,9.7492299"
       orientation="1,0"
       id="guide1853"
       inkscape:locked="false" />
    <sodipodi:guide
       position="-2.3720169,3.0175835"
       orientation="0,1"
       id="guide1855"
       inkscape:locked="false" />
  </sodipodi:namedview>
  <metadata
     id="metadata1678">
    <rdf:RDF>
      <cc:Work
         rdf:about="">
        <dc:format>image/svg+xml</dc:format>
        <dc:type
           rdf:resource="http://purl.org/dc/dcmitype/StillImage" />
      </cc:Work>
    </rdf:RDF>
  </metadata>
  <g
     inkscape:label="Layer 1"
     inkscape:groupmode="layer"
     id="layer1"
     transform="translate(17.028496,-147.22856)">
    <path
       d="m -13.825092,153.54254 c -0.0431,0.0379 -0.11832,0.10864 -0.166972,0.20477 -0.0072,0.0164 -0.01051,0.0295 -0.01184,0.0427 -0.0012,0.0123 -0.001,0.0276 0.0032,0.0437 0.0021,0.008 0.0053,0.0168 0.01043,0.0258 0.005,0.009 0.01198,0.018 0.02138,0.0261 0.0093,0.008 0.02027,0.0144 0.03245,0.0185 0.01187,0.004 0.02377,0.005 0.03504,0.005 0.01941,-1.2e-4 0.03835,-0.004 0.05552,-0.01 0.01644,-0.006 0.03097,-0.013 0.04348,-0.0203 0.01203,-0.007 0.02319,-0.0146 0.03238,-0.0208 0.0096,-0.007 0.01681,-0.0115 0.02382,-0.0157 0.06873,-0.0462 0.1346,-0.10242 0.187185,-0.17399 0.0037,-0.005 0.0068,-0.0105 0.0092,-0.0163 0.0069,-0.0167 0.0094,-0.0341 0.0085,-0.0507 -9.3e-4,-0.0164 -0.0053,-0.0332 -0.01374,-0.0486 -0.0084,-0.0154 -0.02121,-0.0303 -0.03908,-0.0411 -0.0089,-0.005 -0.01866,-0.009 -0.02912,-0.012 -0.01044,-0.003 -0.02107,-0.004 -0.03159,-0.003 -0.02478,-0.001 -0.05404,0.004 -0.07859,0.0109 -0.02285,0.006 -0.04786,0.0155 -0.06388,0.0208 -0.0639,0.0241 -0.114704,0.0654 -0.151308,0.11522 -0.03699,0.0503 -0.06066,0.11083 -0.06574,0.17391 -3.23e-4,0.004 -3.23e-4,0.008 -1.8e-5,0.012 0.0019,0.0254 0.0093,0.0487 0.02021,0.0692 0.01095,0.0206 0.02533,0.038 0.04122,0.0524 0.01607,0.0145 0.03411,0.0262 0.05285,0.035 0.01902,0.009 0.03936,0.0152 0.06008,0.0183 0.0083,0.002 0.02101,0.003 0.03353,0.003 0.0078,4e-5 0.01564,-4.1e-4 0.02335,-0.001 0.01971,-0.002 0.03872,-0.008 0.05652,-0.0154 0.03435,-0.015 0.06489,-0.0395 0.08755,-0.0706 0.03357,-0.0394 0.05978,-0.0896 0.07761,-0.14205 0.01731,-0.0509 0.02676,-0.10402 0.03071,-0.1559 4.33e-4,-0.004 0.0016,-0.0137 0.0021,-0.0237 5.07e-4,-0.0101 6.03e-4,-0.024 -0.002,-0.039 -0.0013,-0.008 -0.0034,-0.0162 -0.0069,-0.025 -0.0034,-0.009 -0.0082,-0.0182 -0.0149,-0.0272 -0.0067,-0.009 -0.01485,-0.0173 -0.02452,-0.0244 -0.0096,-0.007 -0.01996,-0.0123 -0.03067,-0.0161 -0.02619,-0.007 -0.04564,-0.008 -0.06358,-0.006 -0.01754,0.002 -0.03326,0.007 -0.04657,0.0116 -0.02429,0.009 -0.04855,0.0236 -0.06036,0.0299 -0.111747,0.064 -0.201676,0.16648 -0.2465,0.28925 -0.0019,0.005 -0.0032,0.0105 -0.004,0.016 -0.0033,0.0219 -0.0011,0.0434 0.0056,0.0629 0.0066,0.0194 0.01748,0.0365 0.03105,0.0504 0.01359,0.014 0.0303,0.0251 0.04915,0.0323 0.01902,0.007 0.04018,0.0103 0.062,0.008 0.02929,1.9e-4 0.06295,-0.01 0.09157,-0.0226 0.02871,-0.013 0.05383,-0.0299 0.07465,-0.0459 0.04497,-0.0371 0.07511,-0.0811 0.09615,-0.12565 0.02135,-0.0453 0.03406,-0.0927 0.04146,-0.13679 0.0039,-0.0238 0.0067,-0.0504 0.0052,-0.0784 -0.0015,-0.0289 -0.0075,-0.0604 -0.02248,-0.0912 -0.0069,-0.0161 -0.01903,-0.0328 -0.03354,-0.0462 -0.01471,-0.0137 -0.03139,-0.0236 -0.04852,-0.0303 -0.03513,-0.0136 -0.07334,-0.0138 -0.107439,-0.003 -0.03407,0.007 -0.07002,0.0252 -0.09892,0.0439 -0.03031,0.0197 -0.05721,0.0427 -0.07763,0.0605 -0.0034,0.003 -0.0066,0.006 -0.0094,0.01 -0.0073,0.009 -0.01891,0.0202 -0.03212,0.0343 -0.0021,0.002 -0.0042,0.005 -0.0063,0.007 -0.0085,0.01 -0.01748,0.0203 -0.02578,0.0326 -0.009,0.0133 -0.01703,0.0281 -0.0232,0.0447 -0.0082,0.0194 -0.01006,0.0423 -0.0073,0.0626 0.003,0.0215 0.01124,0.0408 0.02249,0.0566 0.01197,0.0169 0.02815,0.031 0.04754,0.0404 0.01837,0.009 0.03895,0.0132 0.06006,0.0119 0.01884,6.5e-4 0.03668,-0.001 0.05332,-0.004 0.01924,-0.004 0.03714,-0.009 0.0535,-0.0154 0.03101,-0.0118 0.05946,-0.0275 0.08326,-0.0403 0.0276,-0.0178 0.04211,-0.037 0.05008,-0.0584 0.0073,-0.0196 0.0088,-0.0401 0.0059,-0.0593 -0.0027,-0.0179 -0.0097,-0.0364 -0.02177,-0.053 -0.01064,-0.0146 -0.02595,-0.0286 -0.04633,-0.0376 -0.0014,-6.2e-4 -0.0028,-0.001 -0.0042,-0.002 l 0.01032,0.005 c -0.02686,-0.0154 -0.05455,-0.0234 -0.07484,-0.0296 -0.0097,-0.003 -0.01729,-0.005 -0.02399,-0.008 -0.0062,-0.002 -0.01056,-0.005 -0.0138,-0.007 -0.0036,-0.002 -0.0073,-0.004 -0.01121,-0.006 -0.0224,-0.01 -0.0502,-0.019 -0.0807,-0.0218 -0.01477,-0.001 -0.03074,-0.001 -0.0473,0.001 -0.01623,0.002 -0.0331,0.007 -0.04975,0.015 -0.0167,0.009 -0.02704,0.0176 -0.03595,0.0279 -0.0089,0.0102 -0.01552,0.0216 -0.02005,0.0337 -0.0044,0.0118 -0.0066,0.0234 -0.0072,0.0341 -6.39e-4,0.0106 1.32e-4,0.0205 0.0016,0.0292 0.0028,0.0171 0.0084,0.0323 0.01408,0.0444 0.0057,0.0122 0.01223,0.0231 0.0184,0.0321 0.02369,0.0407 0.05733,0.084 0.09779,0.12125 0.04008,0.0369 0.0872,0.0683 0.140812,0.0892 0.0045,0.002 0.0091,0.003 0.01388,0.004 0.01283,0.002 0.02594,0.003 0.03903,0.001 0.01309,-0.002 0.02543,-0.005 0.03677,-0.0103 0.02263,-0.0104 0.03949,-0.0263 0.05138,-0.0424 0.01189,-0.0162 0.01987,-0.034 0.02473,-0.0512 0.0049,-0.0173 0.0071,-0.0359 0.0061,-0.0543 6.27e-4,-0.0226 -0.0044,-0.0484 -0.0089,-0.068 -0.0053,-0.0233 -0.0086,-0.0346 -0.01108,-0.0498 -0.0035,-0.0156 -0.0066,-0.0274 -0.01082,-0.0397 -0.0043,-0.0125 -0.01003,-0.0261 -0.01787,-0.0396 -0.0081,-0.0139 -0.01877,-0.0282 -0.03311,-0.0408 -0.01504,-0.0132 -0.03314,-0.0238 -0.05418,-0.03 -0.02229,-0.006 -0.04195,-0.007 -0.05989,-0.004 -0.01845,0.002 -0.03498,0.008 -0.04907,0.0141 -0.02967,0.0134 -0.05319,0.033 -0.06937,0.0497 -0.01816,0.0194 -0.0317,0.0398 -0.04116,0.0609 -0.01235,0.0276 -0.01697,0.0547 -0.01624,0.0794 a 0.07965565,0.07965565 90 0 0 0.159242,-0.005 c -3.5e-5,-0.001 2.8e-5,-0.004 0.0024,-0.01 0.002,-0.004 0.0055,-0.0103 0.011,-0.0163 0.006,-0.006 0.01347,-0.0118 0.01948,-0.0145 -0.0034,-0.003 -0.0055,-0.004 -0.0067,-0.006 -9.4e-4,-8.6e-4 -3.36e-4,-6.2e-4 0.001,0.002 0.0014,0.002 0.0032,0.006 0.0052,0.0117 0.0019,0.005 0.0036,0.0116 0.0053,0.0187 0.0025,0.0162 0.0089,0.0398 0.01211,0.0539 0.0038,0.0163 0.0054,0.0272 0.0053,0.0363 -6.21e-4,0.01 -9.72e-4,0.01 -2.2e-4,0.009 7.71e-4,-0.001 0.0037,-0.005 0.0099,-0.007 0.0031,-0.001 0.0066,-0.002 0.01021,-0.003 0.0036,-4.2e-4 0.0067,-1.8e-4 0.0089,2.4e-4 0.0047,9.2e-4 0.0094,0.002 0.01388,0.004 -0.03318,-0.0129 -0.06397,-0.0329 -0.0916,-0.0584 -0.02796,-0.0257 -0.05215,-0.0565 -0.07174,-0.0899 -0.0051,-0.008 -0.007,-0.0111 -0.0085,-0.0142 -0.0014,-0.003 -0.0017,-0.005 -0.0014,-0.003 1.21e-4,7.3e-4 3.74e-4,0.003 2.03e-4,0.006 -1.76e-4,0.003 -8.16e-4,0.007 -0.0026,0.0118 -0.0018,0.005 -0.0046,0.01 -0.0082,0.0137 -0.0036,0.004 -0.0072,0.007 -0.0098,0.008 -0.0046,0.002 -0.003,0.002 -5.43e-4,0.002 0.0026,-3.5e-4 0.0059,-4.5e-4 0.01013,-4e-5 0.0078,7.6e-4 0.01658,0.003 0.02548,0.007 0.01254,0.008 0.0248,0.0134 0.03567,0.0179 0.01301,0.005 0.02591,0.009 0.03554,0.0125 0.02413,0.008 0.03394,0.0112 0.04233,0.0163 1.08e-4,6.1e-4 -0.0059,-0.005 -0.0097,-0.0101 -0.0042,-0.006 -0.0065,-0.0116 -0.0074,-0.0171 -0.001,-0.006 -8.56e-4,-0.0135 0.0021,-0.0216 0.0033,-0.009 0.0098,-0.0181 0.01904,-0.0245 -0.01964,0.009 -0.03877,0.0185 -0.05816,0.025 -0.0094,0.003 -0.0177,0.005 -0.02506,0.006 -0.0073,9.8e-4 -0.01361,0.001 -0.01945,2.4e-4 -0.0028,-3.5e-4 -0.0056,-6.4e-4 -0.0083,-5.9e-4 -0.0028,6e-5 -0.0056,4.3e-4 -0.0083,8.2e-4 0.0093,-0.001 0.0189,2.2e-4 0.02728,0.004 0.0077,0.004 0.01357,0.009 0.01766,0.0143 0.0038,0.005 0.0068,0.0116 0.008,0.0192 0.0011,0.007 5.74e-4,0.016 -0.003,0.0249 0.0021,-0.005 0.0034,-0.007 0.006,-0.011 0.0025,-0.004 0.006,-0.008 0.01136,-0.0136 0.0013,-0.001 0.0027,-0.003 0.0042,-0.004 0.0059,-0.006 0.02136,-0.0215 0.03383,-0.0355 0.01844,-0.0159 0.03587,-0.0303 0.05341,-0.0417 0.01758,-0.0115 0.03353,-0.0188 0.04891,-0.0222 0.0062,-0.002 0.0029,-0.001 -9.88e-4,-0.003 -0.0021,-8.5e-4 -0.0046,-0.002 -0.0071,-0.005 -0.0026,-0.002 -0.0046,-0.005 -0.0059,-0.009 0.0042,0.008 0.0065,0.0158 0.0073,0.0274 8.1e-4,0.0115 -1.1e-5,0.0252 -0.0024,0.0415 -0.0051,0.0321 -0.01369,0.0637 -0.02644,0.0915 -0.01245,0.0271 -0.0283,0.0493 -0.04791,0.0659 -0.01223,0.01 -0.02572,0.0187 -0.03846,0.0249 -0.01241,0.006 -0.02274,0.009 -0.03149,0.009 -0.0027,1e-5 0.0025,8.9e-4 0.007,0.003 0.0044,0.002 0.008,0.004 0.01082,0.007 0.0028,0.003 0.0053,0.007 0.0068,0.0117 0.0016,0.005 0.0021,0.0104 0.0012,0.0158 -9.15e-4,0.005 -0.0022,0.0108 -0.004,0.016 0.03014,-0.0846 0.0927,-0.15808 0.171475,-0.20403 0.01893,-0.0108 0.02763,-0.0164 0.03845,-0.0209 0.0044,-0.002 0.0063,-0.002 0.007,-0.002 -0.01079,-0.003 -0.01428,-0.005 -0.01802,-0.008 -0.0038,-0.003 -0.0071,-0.006 -0.0098,-0.01 -0.0026,-0.004 -0.0043,-0.007 -0.0052,-0.01 -9.62e-4,-0.003 -0.0013,-0.004 -0.0014,-0.005 -2.03e-4,-0.002 2.59e-4,3.3e-4 1.8e-4,0.004 -9.1e-5,0.005 -5.28e-4,0.009 -0.0012,0.0173 -0.003,0.0429 -0.01005,0.0827 -0.02209,0.11887 -0.01234,0.0371 -0.02955,0.0694 -0.05193,0.0963 -0.0099,0.0135 -0.01843,0.0204 -0.02711,0.0243 -0.0044,0.002 -0.0086,0.003 -0.01244,0.004 -0.0015,2e-4 -0.003,3e-4 -0.0044,3.1e-4 -0.0023,1e-5 -0.0045,-2e-4 -0.0068,-6.5e-4 -0.0099,-0.002 -0.01586,-0.003 -0.02169,-0.006 -0.0058,-0.003 -0.01087,-0.006 -0.01501,-0.01 -0.0041,-0.004 -0.0068,-0.007 -0.0085,-0.0104 -7.91e-4,-0.001 -0.0014,-0.003 -0.0018,-0.004 0.0039,-0.0304 0.01608,-0.0608 0.03533,-0.0871 0.02069,-0.0282 0.0482,-0.0499 0.07877,-0.0615 0.02046,-0.007 0.03541,-0.0126 0.0531,-0.0174 0.01613,-0.004 0.02814,-0.006 0.03821,-0.006 0.0035,1.8e-4 -9.28e-4,-1.5e-4 -0.0057,-0.001 -0.0047,-0.001 -0.0093,-0.003 -0.01341,-0.006 -0.0083,-0.005 -0.01364,-0.0116 -0.01673,-0.0172 -0.0031,-0.006 -0.0044,-0.0112 -0.0047,-0.0161 -2.89e-4,-0.005 4.48e-4,-0.0107 0.0028,-0.0165 0.0024,-0.006 0.0055,-0.0113 0.0092,-0.0163 -0.03928,0.0534 -0.09056,0.098 -0.145964,0.13521 -0.0082,0.005 -0.01931,0.0124 -0.0277,0.0181 -0.0094,0.006 -0.01652,0.0111 -0.02336,0.0151 -0.0068,0.004 -0.01174,0.006 -0.01553,0.007 -0.0037,0.001 -0.0061,0.002 -0.0079,0.002 0.0034,-8e-5 0.0095,5e-4 0.01626,0.003 0.007,0.002 0.01358,0.006 0.01921,0.0109 0.0056,0.005 0.0095,0.0101 0.01211,0.0146 0.0026,0.005 0.004,0.009 0.0048,0.0115 0.0015,0.006 0.0012,0.009 0.0011,0.0109 -1.62e-4,0.002 -5.86e-4,0.004 -0.002,0.007 0.0328,-0.0642 0.08931,-0.11893 0.129228,-0.15401 a 0.07748115,0.07748115 90 0 0 -0.102302,-0.1164 z"
       id="path-1"
       inkscape:path-effect="#path-effect1726;#path-effect1728"
       inkscape:original-d="m -13.773941,153.60074 c -0.05917,0.052 -0.113539,0.11129 -0.149113,0.18155 -0.0249,0.0812 0.06753,0.0453 0.10182,0.0169 0.07611,-0.0463 0.14728,-0.1041 0.200202,-0.17612 0.0214,-0.0843 -0.100604,-0.0393 -0.143179,-0.0246 -0.09536,0.0312 -0.165753,0.12611 -0.173398,0.22539 0.0081,0.0949 0.144354,0.14088 0.212204,0.0755 0.08709,-0.083 0.116638,-0.20995 0.117633,-0.3266 -0.02279,-0.0665 -0.104063,-0.0157 -0.142905,0.008 -0.08936,0.0547 -0.161045,0.14075 -0.196481,0.23907 -0.0022,0.0868 0.10407,0.0596 0.149561,0.0272 0.08727,-0.0497 0.12601,-0.15347 0.138126,-0.24842 0.0049,-0.0501 -1.99e-4,-0.11989 -0.05799,-0.13662 -0.07116,-0.004 -0.134077,0.0454 -0.185182,0.0903 -0.02961,0.0359 -0.112664,0.0984 -0.05765,0.14404 0.06442,0.0186 0.1284,-0.0169 0.183759,-0.0456 0.0449,-0.0737 -0.08402,-0.076 -0.125435,-0.1062 -0.04795,-0.028 -0.164809,-0.0328 -0.128049,0.0521 0.04592,0.0894 0.12097,0.16951 0.216105,0.20653 0.06862,0.008 0.07241,-0.0797 0.05779,-0.12662 -0.01317,-0.0544 -0.01857,-0.1454 -0.09151,-0.14759 -0.05838,0.004 -0.117058,0.0654 -0.115057,0.12426"
       style="fill:#000000;fill-rule:nonzero;stroke:none;stroke-width:0.779535" />
  </g>
</svg>
