<?xml version="1.0" encoding="UTF-8" standalone="no"?>
<!-- Created with Inkscape (http://www.inkscape.org/) -->

<svg
   width="6mm"
   height="10mm"
   viewBox="0 0 6.0000001 9.9999994"
   version="1.1"
   id="svg1681"
   inkscape:version="1.2.1 (9c6d41e410, 2022-07-14)"
   sodipodi:docname="dot 1.1.svg"
   inkscape:export-filename="..\..\..\..\Downloads\lower a diff canvas resize 3.0.png"
   inkscape:export-xdpi="96"
   inkscape:export-ydpi="96"
   xmlns:inkscape="http://www.inkscape.org/namespaces/inkscape"
   xmlns:sodipodi="http://sodipodi.sourceforge.net/DTD/sodipodi-0.dtd"
   xmlns="http://www.w3.org/2000/svg"
   xmlns:svg="http://www.w3.org/2000/svg"
   xmlns:rdf="http://www.w3.org/1999/02/22-rdf-syntax-ns#"
   xmlns:cc="http://creativecommons.org/ns#"
   xmlns:dc="http://purl.org/dc/elements/1.1/">
  <defs
     id="defs1675">
    <inkscape:path-effect
       effect="powerstroke"
       id="path-effect2036"
       is_visible="true"
       lpeversion="1"
       offset_points="3.0568765,0.084001606 | 7.3726651,0.098157086"
       not_jump="true"
       sort_points="true"
       interpolator_type="CentripetalCatmullRom"
       interpolator_beta="0.75"
       start_linecap_type="round"
       linejoin_type="spiro"
       miter_limit="4"
       scale_width="1"
       end_linecap_type="round" />
    <inkscape:path-effect
       effect="simplify"
       id="path-effect2034"
       is_visible="true"
       lpeversion="1"
       steps="1"
       threshold="0.0035951417"
       smooth_angles="0"
       helper_size="0"
       simplify_individual_paths="false"
       simplify_just_coalesce="false"
       step="1" />
    <inkscape:path-effect
       effect="powerstroke"
       id="path-effect502"
       is_visible="true"
       lpeversion="1"
       offset_points="3.0091841,0.21607495 | 7.3602657,0.17554228 | 9.4159651,0.20236537"
       not_jump="true"
       sort_points="true"
       interpolator_type="CentripetalCatmullRom"
       interpolator_beta="0.75"
       start_linecap_type="round"
       linejoin_type="spiro"
       miter_limit="4"
       scale_width="1"
       end_linecap_type="round" />
    <inkscape:path-effect
       effect="simplify"
       id="path-effect500"
       is_visible="true"
       lpeversion="1"
       steps="1"
       threshold="0.0035951417"
       smooth_angles="0"
       helper_size="0"
       simplify_individual_paths="false"
       simplify_just_coalesce="false"
       step="1" />
    <inkscape:path-effect
       effect="powerstroke"
       id="path-effect241"
       is_visible="true"
       lpeversion="1"
       offset_points="2.6879454,0.34086734"
       not_jump="true"
       sort_points="true"
       interpolator_type="CentripetalCatmullRom"
       interpolator_beta="0.75"
       start_linecap_type="round"
       linejoin_type="spiro"
       miter_limit="4"
       scale_width="1"
       end_linecap_type="round" />
    <inkscape:path-effect
       effect="simplify"
       id="path-effect239"
       is_visible="true"
       lpeversion="1"
       steps="1"
       threshold="0.0028332064"
       smooth_angles="0"
       helper_size="0"
       simplify_individual_paths="false"
       simplify_just_coalesce="false"
       step="1" />
    <inkscape:path-effect
       effect="powerstroke"
       id="path-effect234"
       is_visible="true"
       lpeversion="1"
       offset_points="2.13563,0.075169555"
       not_jump="true"
       sort_points="true"
       interpolator_type="CentripetalCatmullRom"
       interpolator_beta="0.75"
       start_linecap_type="round"
       linejoin_type="spiro"
       miter_limit="4"
       scale_width="1"
       end_linecap_type="round" />
    <inkscape:path-effect
       effect="simplify"
       id="path-effect232"
       is_visible="true"
       lpeversion="1"
       steps="1"
       threshold="0.0028332064"
       smooth_angles="0"
       helper_size="0"
       simplify_individual_paths="false"
       simplify_just_coalesce="false"
       step="1" />
    <inkscape:path-effect
       effect="powerstroke"
       id="path-effect227"
       is_visible="true"
       lpeversion="1"
       offset_points="2.1868266,0.075169555"
       not_jump="true"
       sort_points="true"
       interpolator_type="CentripetalCatmullRom"
       interpolator_beta="0.75"
       start_linecap_type="round"
       linejoin_type="spiro"
       miter_limit="4"
       scale_width="1"
       end_linecap_type="round" />
    <inkscape:path-effect
       effect="simplify"
       id="path-effect225"
       is_visible="true"
       lpeversion="1"
       steps="1"
       threshold="0.0028332064"
       smooth_angles="0"
       helper_size="0"
       simplify_individual_paths="false"
       simplify_just_coalesce="false"
       step="1" />
    <inkscape:path-effect
       effect="powerstroke"
       id="path-effect166"
       is_visible="true"
       lpeversion="1"
       offset_points="1.9637935,0.075169555"
       not_jump="true"
       sort_points="true"
       interpolator_type="CentripetalCatmullRom"
       interpolator_beta="0.75"
       start_linecap_type="round"
       linejoin_type="spiro"
       miter_limit="4"
       scale_width="1"
       end_linecap_type="round" />
    <inkscape:path-effect
       effect="simplify"
       id="path-effect164"
       is_visible="true"
       lpeversion="1"
       steps="1"
       threshold="0.0028332064"
       smooth_angles="0"
       helper_size="0"
       simplify_individual_paths="false"
       simplify_just_coalesce="false"
       step="1" />
    <inkscape:path-effect
       effect="powerstroke"
       id="path-effect159"
       is_visible="true"
       lpeversion="1"
       offset_points="2.2611036,0.075169555"
       not_jump="true"
       sort_points="true"
       interpolator_type="CentripetalCatmullRom"
       interpolator_beta="0.75"
       start_linecap_type="round"
       linejoin_type="spiro"
       miter_limit="4"
       scale_width="1"
       end_linecap_type="round" />
    <inkscape:path-effect
       effect="simplify"
       id="path-effect157"
       is_visible="true"
       lpeversion="1"
       steps="1"
       threshold="0.0028332064"
       smooth_angles="0"
       helper_size="0"
       simplify_individual_paths="false"
       simplify_just_coalesce="false"
       step="1" />
    <inkscape:path-effect
       effect="powerstroke"
       id="path-effect152"
       is_visible="true"
       lpeversion="1"
       offset_points="2.826981,0.075169555"
       not_jump="true"
       sort_points="true"
       interpolator_type="CentripetalCatmullRom"
       interpolator_beta="0.75"
       start_linecap_type="round"
       linejoin_type="spiro"
       miter_limit="4"
       scale_width="1"
       end_linecap_type="round" />
    <inkscape:path-effect
       effect="simplify"
       id="path-effect150"
       is_visible="true"
       lpeversion="1"
       steps="1"
       threshold="0.0028332064"
       smooth_angles="0"
       helper_size="0"
       simplify_individual_paths="false"
       simplify_just_coalesce="false"
       step="1" />
    <inkscape:path-effect
       effect="powerstroke"
       id="path-effect145"
       is_visible="true"
       lpeversion="1"
       offset_points="3.8374447,0.075169555"
       not_jump="true"
       sort_points="true"
       interpolator_type="CentripetalCatmullRom"
       interpolator_beta="0.75"
       start_linecap_type="round"
       linejoin_type="spiro"
       miter_limit="4"
       scale_width="1"
       end_linecap_type="round" />
    <inkscape:path-effect
       effect="simplify"
       id="path-effect143"
       is_visible="true"
       lpeversion="1"
       steps="1"
       threshold="0.0028332064"
       smooth_angles="0"
       helper_size="0"
       simplify_individual_paths="false"
       simplify_just_coalesce="false"
       step="1" />
    <inkscape:path-effect
       effect="powerstroke"
       id="path-effect138"
       is_visible="true"
       lpeversion="1"
       offset_points="2.6880907,0.075169555"
       not_jump="true"
       sort_points="true"
       interpolator_type="CentripetalCatmullRom"
       interpolator_beta="0.75"
       start_linecap_type="round"
       linejoin_type="spiro"
       miter_limit="4"
       scale_width="1"
       end_linecap_type="round" />
    <inkscape:path-effect
       effect="simplify"
       id="path-effect136"
       is_visible="true"
       lpeversion="1"
       steps="1"
       threshold="0.0028332064"
       smooth_angles="0"
       helper_size="0"
       simplify_individual_paths="false"
       simplify_just_coalesce="false"
       step="1" />
    <inkscape:path-effect
       effect="powerstroke"
       id="path-effect131"
       is_visible="true"
       lpeversion="1"
       offset_points="1.9940581,0.075169555"
       not_jump="true"
       sort_points="true"
       interpolator_type="CentripetalCatmullRom"
       interpolator_beta="0.75"
       start_linecap_type="round"
       linejoin_type="spiro"
       miter_limit="4"
       scale_width="1"
       end_linecap_type="round" />
    <inkscape:path-effect
       effect="simplify"
       id="path-effect129"
       is_visible="true"
       lpeversion="1"
       steps="1"
       threshold="0.0028332064"
       smooth_angles="0"
       helper_size="0"
       simplify_individual_paths="false"
       simplify_just_coalesce="false"
       step="1" />
  </defs>
  <sodipodi:namedview
     id="base"
     pagecolor="#ffffff"
     bordercolor="#666666"
     borderopacity="1.0"
     inkscape:pageopacity="0.0"
     inkscape:pageshadow="2"
     inkscape:zoom="7.919596"
     inkscape:cx="-5.3033008"
     inkscape:cy="20.960665"
     inkscape:document-units="mm"
     inkscape:current-layer="layer1"
     showgrid="false"
     fit-margin-top="0"
     fit-margin-left="0"
     fit-margin-right="0"
     fit-margin-bottom="0"
     inkscape:window-width="1920"
     inkscape:window-height="974"
     inkscape:window-x="-11"
     inkscape:window-y="2869"
     inkscape:window-maximized="1"
     showguides="true"
     inkscape:guide-bbox="true"
     inkscape:snap-bbox="true"
     inkscape:bbox-nodes="true"
     inkscape:snap-nodes="false"
     inkscape:snap-others="false"
     inkscape:snap-page="true"
     inkscape:snap-grids="false"
     inkscape:snap-to-guides="false"
     inkscape:snap-global="false"
     inkscape:pagecheckerboard="0"
     inkscape:showpageshadow="2"
     inkscape:deskcolor="#d1d1d1">
    <sodipodi:guide
       position="-6.1806075,9.4988692"
       orientation="0,1"
       id="guide816"
       inkscape:locked="false" />
    <sodipodi:guide
       position="-4.4101636,10.646923"
       orientation="0,1"
       id="guide818"
       inkscape:locked="false" />
    <sodipodi:guide
       position="2.7595724,11.09577"
       orientation="1,0"
       id="guide820"
       inkscape:locked="false" />
    <sodipodi:guide
       position="3.6572659,10.942217"
       orientation="1,0"
       id="guide822"
       inkscape:locked="false" />
    <sodipodi:guide
       position="-0.051625511,9.7492299"
       orientation="1,0"
       id="guide1853"
       inkscape:locked="false" />
    <sodipodi:guide
       position="-2.3720169,3.0175835"
       orientation="0,1"
       id="guide1855"
       inkscape:locked="false" />
  </sodipodi:namedview>
  <metadata
     id="metadata1678">
    <rdf:RDF>
      <cc:Work
         rdf:about="">
        <dc:format>image/svg+xml</dc:format>
        <dc:type
           rdf:resource="http://purl.org/dc/dcmitype/StillImage" />
      </cc:Work>
    </rdf:RDF>
  </metadata>
  <g
     inkscape:label="Layer 1"
     inkscape:groupmode="layer"
     id="layer1"
     transform="translate(17.028496,-147.22856)">
    <path
       d="m -13.703457,153.08801 c -0.03571,0.0306 -0.07615,0.0752 -0.112184,0.14092 -0.02577,0.047 -0.04664,0.0999 -0.06279,0.15833 -0.0046,0.0174 -0.01227,0.0448 -0.01646,0.0714 -0.0021,0.0135 -0.0037,0.0285 -0.0037,0.0445 -2.3e-5,0.0158 0.0015,0.0327 0.0054,0.0502 0.0055,0.0321 0.02068,0.0689 0.04493,0.0997 0.01249,0.0159 0.02765,0.0305 0.04558,0.0424 0.01855,0.0124 0.03956,0.0216 0.06255,0.0265 3.49e-4,2.4e-4 0.0049,0.001 0.0094,0.002 0.03602,0.007 0.07195,0.003 0.103661,-0.009 0.03715,-0.0139 0.0703,-0.0392 0.09321,-0.0747 0.03226,-0.0451 0.05311,-0.0993 0.06681,-0.15239 0.01141,-0.0481 0.01959,-0.10196 0.01929,-0.15834 -2.81e-4,-0.052 -0.0078,-0.10945 -0.02943,-0.16694 -0.004,-0.016 -0.01611,-0.0374 -0.03228,-0.0551 -0.01535,-0.0168 -0.03444,-0.0303 -0.05598,-0.0392 -0.02057,-0.009 -0.04422,-0.0132 -0.06926,-0.0116 -0.0215,0.001 -0.04373,0.007 -0.06465,0.0192 -0.01714,0.008 -0.03208,0.0188 -0.04505,0.0305 -0.0066,0.006 -0.0126,0.0121 -0.01804,0.0184 -0.0055,0.006 -0.01045,0.0126 -0.01498,0.0189 -0.01572,0.0219 -0.02784,0.0459 -0.03587,0.0605 -0.02004,0.0286 -0.04884,0.074 -0.07219,0.12411 -0.02175,0.0467 -0.04081,0.10156 -0.04735,0.16313 -0.0047,0.0255 -0.0049,0.064 0.0071,0.10243 0.0059,0.0187 0.01489,0.0382 0.02821,0.0564 0.01311,0.018 0.03,0.0344 0.05089,0.0474 0.01219,0.009 0.03272,0.0196 0.05405,0.0264 0.02089,0.007 0.04354,0.0104 0.06681,0.0101 0.02283,-2.7e-4 0.04725,-0.004 0.07119,-0.0142 0.02375,-0.01 0.04661,-0.025 0.06576,-0.0466 0.05242,-0.0635 0.08292,-0.13696 0.09632,-0.21248 0.01233,-0.0665 0.01314,-0.13309 0.0111,-0.19578 0.0019,-0.0241 -0.003,-0.0601 -0.01653,-0.094 -0.0068,-0.017 -0.01591,-0.0339 -0.0279,-0.0499 -0.01194,-0.0159 -0.02674,-0.0307 -0.04464,-0.0432 -0.01395,-0.009 -0.02777,-0.0162 -0.04271,-0.0207 -0.01491,-0.005 -0.02982,-0.006 -0.04426,-0.006 -0.01424,1.2e-4 -0.02746,0.002 -0.03919,0.005 -0.01164,0.003 -0.02207,0.007 -0.03113,0.0117 -0.01765,0.008 -0.03242,0.0189 -0.04336,0.0273 -0.01075,0.008 -0.02078,0.0171 -0.02672,0.0222 -0.03822,0.034 -0.07119,0.0751 -0.09486,0.12211 -0.02355,0.0468 -0.03858,0.10094 -0.03731,0.15906 -3.9e-5,0.031 0.0064,0.0682 0.02331,0.10312 0.0086,0.0177 0.02005,0.0352 0.03515,0.0511 0.01518,0.016 0.03354,0.0298 0.05505,0.0402 0.02164,0.012 0.04995,0.0207 0.07803,0.0244 0.02804,0.004 0.05668,0.003 0.08429,-0.003 0.02759,-0.006 0.055,-0.0166 0.08005,-0.0328 0.02516,-0.0163 0.048,-0.0382 0.06556,-0.0658 0.03744,-0.071 0.05444,-0.14336 0.05181,-0.21588 -0.0017,-0.0291 -0.005,-0.0598 -0.01253,-0.0911 -0.0076,-0.0314 -0.02006,-0.0653 -0.0411,-0.0972 -0.0019,-0.003 -0.0039,-0.006 -0.0061,-0.008 -0.0091,-0.0111 -0.01987,-0.021 -0.03232,-0.0291 -0.01249,-0.008 -0.02587,-0.014 -0.03961,-0.0177 -0.02753,-0.007 -0.05365,-0.005 -0.07508,6.7e-4 -0.02142,0.006 -0.0402,0.016 -0.05561,0.0278 -0.01399,0.0107 -0.02682,0.0239 -0.03723,0.0394 -0.01664,0.0219 -0.02943,0.0442 -0.03923,0.0618 -0.01167,0.0209 -0.01878,0.0344 -0.02759,0.0478 -0.03658,0.0608 -0.0706,0.12179 -0.09848,0.18653 -0.02842,0.066 -0.05072,0.1365 -0.06044,0.21171 -0.0077,0.0471 0.0043,0.0958 0.02654,0.13458 0.01149,0.02 0.02625,0.0384 0.04386,0.054 0.01786,0.0158 0.03894,0.029 0.06273,0.038 0.01475,0.006 0.03015,0.009 0.04585,0.0102 0.01579,0.001 0.03097,-4e-5 0.04523,-0.003 0.02861,-0.006 0.05153,-0.0188 0.06952,-0.0321 0.0179,-0.0133 0.03233,-0.0284 0.04351,-0.0419 0.01149,-0.0139 0.02095,-0.0279 0.02837,-0.0399 0.02378,-0.0383 0.03946,-0.0781 0.05061,-0.1151 0.01073,-0.0356 0.01796,-0.0711 0.02362,-0.10244 0.0032,-0.0108 0.0055,-0.0219 0.0068,-0.0328 0.0017,-0.0148 0.0019,-0.0308 -5.21e-4,-0.0473 -0.0024,-0.0169 -0.0077,-0.0358 -0.0181,-0.0543 -0.01096,-0.0195 -0.02716,-0.0377 -0.04917,-0.051 -0.0079,-0.005 -0.01599,-0.009 -0.02486,-0.0117 -0.0089,-0.002 -0.01817,-0.003 -0.02737,-0.003 -0.01412,1.8e-4 -0.02797,0.003 -0.04111,0.007 -0.01327,0.005 -0.02444,0.0114 -0.03362,0.0185 -0.01801,0.0139 -0.02904,0.03 -0.03499,0.0396 -0.0061,0.01 -0.01121,0.0206 -0.01299,0.0242 -0.0031,0.006 -0.0028,0.005 -8.65e-4,0.002 l -0.0075,0.0125 c -0.01011,0.0203 -0.01567,0.0326 -0.01987,0.0401 a 0.09815709,0.09815709 90 0 0 0.170924,0.0966 c 0.0092,-0.0162 0.01533,-0.0298 0.0222,-0.0436 0.0053,-0.008 0.0091,-0.0163 0.01104,-0.0201 0.003,-0.006 0.0048,-0.009 0.0045,-0.009 -3.42e-4,6e-4 -0.0028,0.006 -0.01254,0.0132 -0.0048,0.004 -0.01119,0.008 -0.01913,0.0105 -0.0079,0.003 -0.01599,0.004 -0.02371,0.004 -0.0092,1.2e-4 -0.0185,-1.1e-4 -0.02737,-0.003 -0.0089,-0.002 -0.01699,-0.007 -0.02487,-0.0117 -0.0098,-0.006 -0.01665,-0.0139 -0.02076,-0.0212 -0.0037,-0.007 -0.0048,-0.0118 -0.0052,-0.0142 -3.42e-4,-0.002 -2.43e-4,-0.004 -2.4e-4,-0.004 l -0.004,0.0144 c -0.0056,0.0308 -0.01154,0.0597 -0.01972,0.0866 -0.0078,0.0257 -0.01734,0.0483 -0.02959,0.0679 -0.0043,0.007 -0.0086,0.0129 -0.01279,0.018 -0.0043,0.005 -0.0074,0.008 -0.0087,0.009 -10e-4,7e-4 0.0012,-0.001 0.0074,-0.003 0.0032,-6.9e-4 0.0069,-0.001 0.01082,-7.4e-4 0.0039,2.8e-4 0.0072,0.001 0.0095,0.002 -0.0019,-0.002 -0.0031,-0.003 -0.0041,-0.005 -0.002,-0.004 -0.002,-0.007 -0.002,-0.007 0.0073,-0.0556 0.02338,-0.10795 0.04653,-0.16149 0.02287,-0.0529 0.05184,-0.10512 0.08422,-0.15896 0.01185,-0.0176 0.02425,-0.0407 0.03324,-0.0566 0.0099,-0.0175 0.01733,-0.0298 0.0252,-0.0397 0.0023,-0.003 0.0044,-0.006 0.0063,-0.009 -0.0027,0.004 -0.0056,0.007 -0.0082,0.009 -0.0025,0.002 -0.0067,0.005 -0.013,0.006 -0.0064,0.002 -0.01704,0.003 -0.02992,-2.3e-4 -0.0064,-0.002 -0.01271,-0.004 -0.01846,-0.008 -0.0057,-0.004 -0.01016,-0.008 -0.01342,-0.0119 -0.0022,-0.003 -0.0042,-0.005 -0.0061,-0.008 0.005,0.008 0.0097,0.0185 0.01332,0.0338 0.0037,0.0153 0.0058,0.0331 0.0069,0.0532 0.0011,0.0344 -0.0077,0.0722 -0.02518,0.10557 0.0035,-0.006 0.0021,-0.005 -5.44e-4,-0.003 -0.0028,0.002 -0.0069,0.004 -0.01208,0.005 -0.0052,0.001 -0.01075,0.001 -0.01593,5.8e-4 -0.0052,-7.1e-4 -0.0092,-0.002 -0.01194,-0.004 -0.0019,-0.002 -0.0037,-0.008 -0.0036,-0.0167 -4.37e-4,-0.0224 0.0047,-0.0439 0.01576,-0.0658 0.01119,-0.0222 0.02774,-0.0432 0.0475,-0.0608 0.0067,-0.006 0.01166,-0.0101 0.01695,-0.0142 0.0047,-0.004 0.008,-0.005 0.0074,-0.005 -2.87e-4,1.4e-4 -0.0016,7.7e-4 -0.0042,0.001 -0.0026,7.1e-4 -0.0066,0.001 -0.01163,0.001 -0.0052,5e-5 -0.01073,-6.6e-4 -0.0163,-0.002 -0.0056,-0.002 -0.01001,-0.004 -0.01323,-0.006 6.82e-4,0.005 0.0017,0.0112 0.0014,0.0171 0.0018,0.0668 6.01e-4,0.11647 -0.0078,0.16262 -0.0083,0.0472 -0.02607,0.0873 -0.05065,0.11733 0.0052,-0.006 0.0084,-0.008 0.01089,-0.009 0.0024,-9.5e-4 0.0033,-8.2e-4 0.003,-7.8e-4 -0.0011,1.2e-4 -0.0023,2e-4 -0.0034,-4e-5 -0.0011,-2.4e-4 -0.0021,-7.7e-4 -0.003,-0.001 -9.17e-4,-6.6e-4 -0.0017,-0.001 -0.0026,-0.002 -8.71e-4,-7.2e-4 -0.0018,-0.001 -0.0027,-0.002 0.002,0.001 0.0037,0.003 0.0049,0.005 1.47e-4,-2e-4 -6.68e-4,-0.006 4.38e-4,-0.0129 0.0043,-0.0402 0.01482,-0.0735 0.0301,-0.10686 0.01654,-0.0361 0.03831,-0.0716 0.06105,-0.10583 0.01716,-0.0315 0.02055,-0.0391 0.02708,-0.049 0.0013,-0.002 0.0023,-0.003 0.0031,-0.004 8.12e-4,-0.001 0.0017,-0.002 0.0027,-0.003 9.98e-4,-8.7e-4 0.0021,-0.002 0.0033,-0.002 0.0023,-0.001 0.0048,-0.002 0.007,-0.004 -0.0064,0.004 -0.01349,0.006 -0.02014,0.006 -0.0067,2.7e-4 -0.01229,-0.001 -0.01661,-0.003 -0.0045,-0.002 -0.0084,-0.005 -0.01163,-0.009 -0.0034,-0.004 -0.0062,-0.009 -0.0075,-0.0149 0.01565,0.0398 0.02176,0.0744 0.023,0.10966 0.0013,0.0383 -0.0031,0.0775 -0.01071,0.11506 -0.0075,0.0394 -0.01877,0.0721 -0.03474,0.0978 -0.0028,0.006 -0.0052,0.009 -0.0096,0.0109 -0.0037,0.002 -0.008,0.003 -0.0118,0.002 -0.0068,-0.001 -0.0082,-0.002 -0.01003,-0.003 -0.0019,-0.001 -0.0044,-0.003 -0.0072,-0.007 -0.0057,-0.007 -0.01055,-0.0175 -0.0125,-0.0286 -0.0017,-0.008 -0.0021,-0.0121 -0.0021,-0.0173 2e-5,-0.005 5.72e-4,-0.0115 0.0017,-0.0187 0.0026,-0.0159 0.0074,-0.0326 0.0131,-0.0538 0.01315,-0.0469 0.02967,-0.0874 0.04846,-0.1213 0.02583,-0.0466 0.05313,-0.0756 0.07484,-0.0943 a 0.08400161,0.08400161 90 0 0 -0.109392,-0.1275 z"
       id="path-1"
       inkscape:path-effect="#path-effect2034;#path-effect2036"
       inkscape:original-d="m -13.648761,153.15176 c -0.08959,0.0768 -0.136225,0.19283 -0.161096,0.30544 -0.02075,0.0786 0.01784,0.18567 0.111741,0.18521 0.08163,0.005 0.115049,-0.0835 0.135859,-0.14727 0.02537,-0.0965 0.03339,-0.20365 -0.0033,-0.29818 -0.03796,-0.0892 -0.131762,-0.0241 -0.151825,0.0414 -0.06155,0.0898 -0.12129,0.19274 -0.11751,0.30538 0.007,0.0842 0.133382,0.12641 0.180168,0.0499 0.06956,-0.0916 0.07574,-0.21442 0.07202,-0.32497 0.0057,-0.0677 -0.05159,-0.1568 -0.121163,-0.0959 -0.08741,0.0603 -0.15266,0.17865 -0.113199,0.2843 0.04774,0.0913 0.204535,0.0788 0.234958,-0.0211 0.03598,-0.0829 0.03191,-0.18221 -0.007,-0.26317 -0.05676,-0.0657 -0.105941,0.0396 -0.129711,0.0821 -0.07505,0.12205 -0.148363,0.2527 -0.165265,0.39719 -0.0078,0.0674 0.06503,0.14848 0.132143,0.10645 0.07328,-0.0592 0.09788,-0.15914 0.113586,-0.24789 0.01735,-0.0375 -0.01046,-0.11823 -0.04586,-0.0529 -0.01435,0.0223 -0.02379,0.0473 -0.03679,0.0703"
       style="fill:#000000;fill-rule:nonzero;stroke:none;stroke-width:1.26864" />
  </g>
</svg>
