<?xml version="1.0" encoding="UTF-8" standalone="no"?>
<!-- Created with Inkscape (http://www.inkscape.org/) -->

<svg
   width="6mm"
   height="10mm"
   viewBox="0 0 6.0000001 9.9999994"
   version="1.1"
   id="svg1681"
   inkscape:version="1.2.1 (9c6d41e410, 2022-07-14)"
   sodipodi:docname="dot 1.4.svg"
   inkscape:export-filename="..\..\..\..\Downloads\lower a diff canvas resize 3.0.png"
   inkscape:export-xdpi="96"
   inkscape:export-ydpi="96"
   xmlns:inkscape="http://www.inkscape.org/namespaces/inkscape"
   xmlns:sodipodi="http://sodipodi.sourceforge.net/DTD/sodipodi-0.dtd"
   xmlns="http://www.w3.org/2000/svg"
   xmlns:svg="http://www.w3.org/2000/svg"
   xmlns:rdf="http://www.w3.org/1999/02/22-rdf-syntax-ns#"
   xmlns:cc="http://creativecommons.org/ns#"
   xmlns:dc="http://purl.org/dc/elements/1.1/">
  <defs
     id="defs1675">
    <inkscape:path-effect
       effect="powerstroke"
       id="path-effect1588"
       is_visible="true"
       lpeversion="1"
       offset_points="7.8414948,0.064841696"
       not_jump="true"
       sort_points="true"
       interpolator_type="CentripetalCatmullRom"
       interpolator_beta="0.75"
       start_linecap_type="round"
       linejoin_type="spiro"
       miter_limit="4"
       scale_width="1"
       end_linecap_type="round" />
    <inkscape:path-effect
       effect="simplify"
       id="path-effect1586"
       is_visible="true"
       lpeversion="1"
       steps="1"
       threshold="0.0035951417"
       smooth_angles="0"
       helper_size="0"
       simplify_individual_paths="false"
       simplify_just_coalesce="false"
       step="1" />
    <inkscape:path-effect
       effect="powerstroke"
       id="path-effect502"
       is_visible="true"
       lpeversion="1"
       offset_points="3.0091841,0.21607495 | 7.3602657,0.17554228 | 9.4159651,0.20236537"
       not_jump="true"
       sort_points="true"
       interpolator_type="CentripetalCatmullRom"
       interpolator_beta="0.75"
       start_linecap_type="round"
       linejoin_type="spiro"
       miter_limit="4"
       scale_width="1"
       end_linecap_type="round" />
    <inkscape:path-effect
       effect="simplify"
       id="path-effect500"
       is_visible="true"
       lpeversion="1"
       steps="1"
       threshold="0.0035951417"
       smooth_angles="0"
       helper_size="0"
       simplify_individual_paths="false"
       simplify_just_coalesce="false"
       step="1" />
    <inkscape:path-effect
       effect="powerstroke"
       id="path-effect241"
       is_visible="true"
       lpeversion="1"
       offset_points="2.6879454,0.34086734"
       not_jump="true"
       sort_points="true"
       interpolator_type="CentripetalCatmullRom"
       interpolator_beta="0.75"
       start_linecap_type="round"
       linejoin_type="spiro"
       miter_limit="4"
       scale_width="1"
       end_linecap_type="round" />
    <inkscape:path-effect
       effect="simplify"
       id="path-effect239"
       is_visible="true"
       lpeversion="1"
       steps="1"
       threshold="0.0028332064"
       smooth_angles="0"
       helper_size="0"
       simplify_individual_paths="false"
       simplify_just_coalesce="false"
       step="1" />
    <inkscape:path-effect
       effect="powerstroke"
       id="path-effect234"
       is_visible="true"
       lpeversion="1"
       offset_points="2.13563,0.075169555"
       not_jump="true"
       sort_points="true"
       interpolator_type="CentripetalCatmullRom"
       interpolator_beta="0.75"
       start_linecap_type="round"
       linejoin_type="spiro"
       miter_limit="4"
       scale_width="1"
       end_linecap_type="round" />
    <inkscape:path-effect
       effect="simplify"
       id="path-effect232"
       is_visible="true"
       lpeversion="1"
       steps="1"
       threshold="0.0028332064"
       smooth_angles="0"
       helper_size="0"
       simplify_individual_paths="false"
       simplify_just_coalesce="false"
       step="1" />
    <inkscape:path-effect
       effect="powerstroke"
       id="path-effect227"
       is_visible="true"
       lpeversion="1"
       offset_points="2.1868266,0.075169555"
       not_jump="true"
       sort_points="true"
       interpolator_type="CentripetalCatmullRom"
       interpolator_beta="0.75"
       start_linecap_type="round"
       linejoin_type="spiro"
       miter_limit="4"
       scale_width="1"
       end_linecap_type="round" />
    <inkscape:path-effect
       effect="simplify"
       id="path-effect225"
       is_visible="true"
       lpeversion="1"
       steps="1"
       threshold="0.0028332064"
       smooth_angles="0"
       helper_size="0"
       simplify_individual_paths="false"
       simplify_just_coalesce="false"
       step="1" />
    <inkscape:path-effect
       effect="powerstroke"
       id="path-effect166"
       is_visible="true"
       lpeversion="1"
       offset_points="1.9637935,0.075169555"
       not_jump="true"
       sort_points="true"
       interpolator_type="CentripetalCatmullRom"
       interpolator_beta="0.75"
       start_linecap_type="round"
       linejoin_type="spiro"
       miter_limit="4"
       scale_width="1"
       end_linecap_type="round" />
    <inkscape:path-effect
       effect="simplify"
       id="path-effect164"
       is_visible="true"
       lpeversion="1"
       steps="1"
       threshold="0.0028332064"
       smooth_angles="0"
       helper_size="0"
       simplify_individual_paths="false"
       simplify_just_coalesce="false"
       step="1" />
    <inkscape:path-effect
       effect="powerstroke"
       id="path-effect159"
       is_visible="true"
       lpeversion="1"
       offset_points="2.2611036,0.075169555"
       not_jump="true"
       sort_points="true"
       interpolator_type="CentripetalCatmullRom"
       interpolator_beta="0.75"
       start_linecap_type="round"
       linejoin_type="spiro"
       miter_limit="4"
       scale_width="1"
       end_linecap_type="round" />
    <inkscape:path-effect
       effect="simplify"
       id="path-effect157"
       is_visible="true"
       lpeversion="1"
       steps="1"
       threshold="0.0028332064"
       smooth_angles="0"
       helper_size="0"
       simplify_individual_paths="false"
       simplify_just_coalesce="false"
       step="1" />
    <inkscape:path-effect
       effect="powerstroke"
       id="path-effect152"
       is_visible="true"
       lpeversion="1"
       offset_points="2.826981,0.075169555"
       not_jump="true"
       sort_points="true"
       interpolator_type="CentripetalCatmullRom"
       interpolator_beta="0.75"
       start_linecap_type="round"
       linejoin_type="spiro"
       miter_limit="4"
       scale_width="1"
       end_linecap_type="round" />
    <inkscape:path-effect
       effect="simplify"
       id="path-effect150"
       is_visible="true"
       lpeversion="1"
       steps="1"
       threshold="0.0028332064"
       smooth_angles="0"
       helper_size="0"
       simplify_individual_paths="false"
       simplify_just_coalesce="false"
       step="1" />
    <inkscape:path-effect
       effect="powerstroke"
       id="path-effect145"
       is_visible="true"
       lpeversion="1"
       offset_points="3.8374447,0.075169555"
       not_jump="true"
       sort_points="true"
       interpolator_type="CentripetalCatmullRom"
       interpolator_beta="0.75"
       start_linecap_type="round"
       linejoin_type="spiro"
       miter_limit="4"
       scale_width="1"
       end_linecap_type="round" />
    <inkscape:path-effect
       effect="simplify"
       id="path-effect143"
       is_visible="true"
       lpeversion="1"
       steps="1"
       threshold="0.0028332064"
       smooth_angles="0"
       helper_size="0"
       simplify_individual_paths="false"
       simplify_just_coalesce="false"
       step="1" />
    <inkscape:path-effect
       effect="powerstroke"
       id="path-effect138"
       is_visible="true"
       lpeversion="1"
       offset_points="2.6880907,0.075169555"
       not_jump="true"
       sort_points="true"
       interpolator_type="CentripetalCatmullRom"
       interpolator_beta="0.75"
       start_linecap_type="round"
       linejoin_type="spiro"
       miter_limit="4"
       scale_width="1"
       end_linecap_type="round" />
    <inkscape:path-effect
       effect="simplify"
       id="path-effect136"
       is_visible="true"
       lpeversion="1"
       steps="1"
       threshold="0.0028332064"
       smooth_angles="0"
       helper_size="0"
       simplify_individual_paths="false"
       simplify_just_coalesce="false"
       step="1" />
    <inkscape:path-effect
       effect="powerstroke"
       id="path-effect131"
       is_visible="true"
       lpeversion="1"
       offset_points="1.9940581,0.075169555"
       not_jump="true"
       sort_points="true"
       interpolator_type="CentripetalCatmullRom"
       interpolator_beta="0.75"
       start_linecap_type="round"
       linejoin_type="spiro"
       miter_limit="4"
       scale_width="1"
       end_linecap_type="round" />
    <inkscape:path-effect
       effect="simplify"
       id="path-effect129"
       is_visible="true"
       lpeversion="1"
       steps="1"
       threshold="0.0028332064"
       smooth_angles="0"
       helper_size="0"
       simplify_individual_paths="false"
       simplify_just_coalesce="false"
       step="1" />
  </defs>
  <sodipodi:namedview
     id="base"
     pagecolor="#ffffff"
     bordercolor="#666666"
     borderopacity="1.0"
     inkscape:pageopacity="0.0"
     inkscape:pageshadow="2"
     inkscape:zoom="7.919596"
     inkscape:cx="-5.3033008"
     inkscape:cy="20.834396"
     inkscape:document-units="mm"
     inkscape:current-layer="layer1"
     showgrid="false"
     fit-margin-top="0"
     fit-margin-left="0"
     fit-margin-right="0"
     fit-margin-bottom="0"
     inkscape:window-width="1920"
     inkscape:window-height="974"
     inkscape:window-x="-11"
     inkscape:window-y="2869"
     inkscape:window-maximized="1"
     showguides="true"
     inkscape:guide-bbox="true"
     inkscape:snap-bbox="true"
     inkscape:bbox-nodes="true"
     inkscape:snap-nodes="false"
     inkscape:snap-others="false"
     inkscape:snap-page="true"
     inkscape:snap-grids="false"
     inkscape:snap-to-guides="false"
     inkscape:snap-global="false"
     inkscape:pagecheckerboard="0"
     inkscape:showpageshadow="2"
     inkscape:deskcolor="#d1d1d1">
    <sodipodi:guide
       position="-6.1806075,9.4988692"
       orientation="0,1"
       id="guide816"
       inkscape:locked="false" />
    <sodipodi:guide
       position="-4.4101636,10.646923"
       orientation="0,1"
       id="guide818"
       inkscape:locked="false" />
    <sodipodi:guide
       position="2.7595724,11.09577"
       orientation="1,0"
       id="guide820"
       inkscape:locked="false" />
    <sodipodi:guide
       position="3.6572659,10.942217"
       orientation="1,0"
       id="guide822"
       inkscape:locked="false" />
    <sodipodi:guide
       position="-0.051625511,9.7492299"
       orientation="1,0"
       id="guide1853"
       inkscape:locked="false" />
    <sodipodi:guide
       position="-2.3720169,3.0175835"
       orientation="0,1"
       id="guide1855"
       inkscape:locked="false" />
  </sodipodi:namedview>
  <metadata
     id="metadata1678">
    <rdf:RDF>
      <cc:Work
         rdf:about="">
        <dc:format>image/svg+xml</dc:format>
        <dc:type
           rdf:resource="http://purl.org/dc/dcmitype/StillImage" />
      </cc:Work>
    </rdf:RDF>
  </metadata>
  <g
     inkscape:label="Layer 1"
     inkscape:groupmode="layer"
     id="layer1"
     transform="translate(17.028496,-147.22856)">
    <path
       d="m -13.73463,153.4079 c -0.02233,0.0387 -0.0567,0.0866 -0.09178,0.1551 -0.0042,0.008 -0.0081,0.017 -0.0086,0.0263 -4.53e-4,0.009 0.0025,0.0184 0.006,0.0271 0.0033,0.008 0.0085,0.0177 0.01666,0.0262 0.0082,0.009 0.01827,0.0151 0.02978,0.0191 0.01095,0.004 0.02146,0.005 0.03047,0.004 0.0087,-6e-4 0.01622,-0.003 0.02236,-0.005 0.01155,-0.004 0.02106,-0.0102 0.02812,-0.0157 0.0036,-0.003 0.007,-0.006 0.01017,-0.009 0.0031,-0.003 0.0062,-0.007 0.0092,-0.0105 0.01356,-0.0154 0.02974,-0.0343 0.04668,-0.0504 0.0029,-0.003 0.0055,-0.006 0.0078,-0.009 0.0052,-0.007 0.01097,-0.0158 0.01633,-0.0257 0.0052,-0.01 0.0105,-0.0212 0.01421,-0.0343 0.0036,-0.0128 0.0062,-0.0287 0.0043,-0.0461 -9.35e-4,-0.009 -0.003,-0.0177 -0.0064,-0.0268 -0.0035,-0.009 -0.0082,-0.0175 -0.01417,-0.0255 -0.003,-0.004 -0.0064,-0.008 -0.01025,-0.0108 -0.01324,-0.0111 -0.02775,-0.0175 -0.04179,-0.0209 -0.01315,-0.003 -0.02517,-0.003 -0.0341,-0.003 -0.0082,2.8e-4 -0.01695,0.001 -0.0211,0.002 -0.0049,4.4e-4 -0.0077,4.6e-4 -0.0076,4.6e-4 -0.03324,0.002 -0.0626,0.008 -0.09085,0.0197 -0.01404,0.006 -0.02857,0.0142 -0.04215,0.0252 -0.01349,0.0109 -0.02597,0.0247 -0.03582,0.0416 -0.01198,0.0276 -0.01495,0.048 -0.0138,0.0677 0.0011,0.0193 0.0061,0.0375 0.01361,0.0539 0.0074,0.0161 0.01736,0.0309 0.02916,0.0438 0.01165,0.0127 0.02551,0.0239 0.04114,0.0326 0.02674,0.0172 0.06297,0.0235 0.09674,0.0173 0.01681,-0.003 0.03363,-0.009 0.04901,-0.0195 0.0056,-0.004 0.01099,-0.008 0.01611,-0.0125 0.0087,-0.008 0.01664,-0.0174 0.02321,-0.0283 0.01288,-0.0157 0.02847,-0.043 0.03799,-0.0739 0.0089,-0.029 0.01295,-0.0629 0.0059,-0.0983 -8.92e-4,-0.005 -0.0019,-0.009 -0.0037,-0.0132 -0.0018,-0.004 -0.0044,-0.008 -0.0071,-0.0118 -0.006,-0.008 -0.01327,-0.0161 -0.0219,-0.0225 -0.0085,-0.006 -0.01779,-0.0111 -0.02742,-0.0143 -0.0094,-0.003 -0.01879,-0.005 -0.02763,-0.005 -0.0087,-3.6e-4 -0.01691,3.7e-4 -0.02445,0.002 -0.01462,0.003 -0.02781,0.008 -0.03888,0.0135 -0.01089,0.006 -0.02097,0.0125 -0.02967,0.02 -0.03344,0.024 -0.0684,0.057 -0.09932,0.0959 -0.01295,0.0162 -0.02665,0.0365 -0.03664,0.0601 -0.0049,0.0116 -0.0091,0.0244 -0.01176,0.0382 -0.0026,0.0136 -0.0037,0.0282 -0.0026,0.0434 3.21e-4,0.004 0.0011,0.009 0.0023,0.013 0.0053,0.0188 0.0152,0.0352 0.02821,0.0482 0.01265,0.0127 0.02742,0.0214 0.0423,0.0269 0.01464,0.005 0.0299,0.008 0.04472,0.008 0.01463,1.5e-4 0.02965,-0.002 0.0441,-0.007 0.03369,-0.009 0.0671,-0.0259 0.0956,-0.0413 0.003,-0.002 0.0058,-0.003 0.0085,-0.005 0.0096,-0.007 0.01869,-0.0163 0.02653,-0.0262 0.0077,-0.01 0.01532,-0.0218 0.02077,-0.0357 0.0054,-0.0136 0.0095,-0.0313 0.0074,-0.051 -0.001,-0.01 -0.0036,-0.0202 -0.0082,-0.0301 -0.0046,-0.01 -0.01076,-0.019 -0.01828,-0.0269 -0.0034,-0.004 -0.0073,-0.007 -0.0114,-0.009 -0.01758,-0.0115 -0.0365,-0.0178 -0.05516,-0.0201 -0.01823,-0.002 -0.03564,-6.9e-4 -0.0512,0.003 -0.01544,0.003 -0.02984,0.009 -0.04267,0.0149 -0.01278,0.006 -0.02462,0.0133 -0.03511,0.0207 -0.0419,0.0314 -0.07301,0.0708 -0.097,0.11075 -0.0054,0.0102 -0.01072,0.0201 -0.0155,0.0308 -0.0048,0.0106 -0.01003,0.024 -0.01335,0.0388 -0.0033,0.0147 -0.0052,0.0333 -0.0011,0.0533 0.0021,0.0101 0.0056,0.0203 0.01103,0.0302 0.0054,0.01 0.01228,0.0188 0.02043,0.0267 0.0051,0.005 0.01109,0.009 0.01757,0.0121 0.0227,0.0106 0.04582,0.0146 0.06805,0.0137 0.02162,-8.8e-4 0.04129,-0.006 0.05815,-0.0128 0.01673,-0.007 0.03198,-0.0148 0.04502,-0.0226 0.01271,-0.008 0.0252,-0.0159 0.03458,-0.022 0.02927,-0.0213 0.05521,-0.0438 0.07819,-0.0701 0.0228,-0.0261 0.04306,-0.0563 0.0575,-0.091 0.0025,-0.006 0.004,-0.0122 0.0047,-0.0186 9.24e-4,-0.009 5.23e-4,-0.0188 -0.0013,-0.0281 -0.0018,-0.009 -0.005,-0.018 -0.0093,-0.026 -0.0085,-0.0159 -0.02065,-0.0278 -0.03345,-0.0361 -0.01269,-0.008 -0.02674,-0.0133 -0.04075,-0.0156 -0.01398,-0.002 -0.02907,-0.002 -0.04405,0.002 -0.02368,0.002 -0.05171,0.014 -0.07532,0.0285 -0.02323,0.0142 -0.0431,0.0316 -0.05961,0.0478 -0.0072,0.007 -0.01562,0.0157 -0.02374,0.0257 -0.008,0.01 -0.01646,0.0217 -0.0234,0.0353 -0.0069,0.0136 -0.01293,0.03 -0.01493,0.0487 -0.002,0.0191 2.62e-4,0.0392 0.0084,0.0591 0.0063,0.0134 0.01235,0.0222 0.0196,0.0299 0.0072,0.008 0.01528,0.0139 0.0237,0.0188 0.01665,0.01 0.03409,0.0138 0.04943,0.0151 0.01535,0.001 0.03022,-1.8e-4 0.04351,-0.003 0.01327,-0.003 0.02632,-0.008 0.03818,-0.0137 0.03013,-0.014 0.05879,-0.0359 0.08208,-0.0622 0.02226,-0.0251 0.03999,-0.0545 0.05157,-0.0865 0.0058,-0.0126 0.0091,-0.0259 0.01004,-0.0388 0.0011,-0.0147 -6.37e-4,-0.0298 -0.0053,-0.0441 -0.0047,-0.0143 -0.01261,-0.0285 -0.02424,-0.0407 -0.01177,-0.0123 -0.02683,-0.022 -0.04451,-0.0274 -0.01383,-0.004 -0.02778,-0.006 -0.0405,-0.007 -0.01258,-8.6e-4 -0.02442,-5.2e-4 -0.03463,6e-5 -0.02391,0.001 -0.03353,0.003 -0.04762,0.003 -0.03172,0.003 -0.05154,0.0134 -0.0659,0.0283 -0.01388,0.0144 -0.02215,0.0321 -0.02552,0.0495 -0.0034,0.0175 -0.0023,0.0371 0.0055,0.0558 0.0039,0.009 0.0096,0.0187 0.0171,0.0269 0.0076,0.008 0.01662,0.0152 0.02684,0.0203 0.01103,0.005 0.02829,0.0139 0.04582,0.0196 0.0095,0.003 0.02034,0.006 0.03237,0.007 0.01074,0.001 0.02224,0.001 0.03427,-6e-4 0.0133,-0.001 0.0259,-0.005 0.03716,-0.01 0.0128,-0.006 0.02504,-0.0143 0.03527,-0.0255 0.01027,-0.0112 0.0192,-0.0258 0.02351,-0.0435 0.0022,-0.009 0.0031,-0.0182 0.0025,-0.0278 -5.66e-4,-0.01 -0.0026,-0.019 -0.0059,-0.028 -2.48e-4,-0.003 -0.0042,-0.0118 -0.0098,-0.0203 -0.0056,-0.008 -0.01251,-0.0156 -0.02021,-0.0213 -0.0076,-0.006 -0.01575,-0.01 -0.02372,-0.0124 -0.0079,-0.003 -0.01583,-0.004 -0.02332,-0.005 -0.01477,-0.001 -0.02925,0.001 -0.04221,0.006 -0.01296,0.005 -0.02621,0.0133 -0.0371,0.0257 -0.0072,0.006 -0.02099,0.0201 -0.02939,0.0283 -0.01,0.01 -0.01767,0.0164 -0.02514,0.0213 -0.0048,0.003 -0.0091,0.007 -0.01294,0.0111 -0.0043,0.005 -0.0094,0.011 -0.01422,0.0181 -0.0048,0.007 -0.0102,0.0163 -0.0143,0.0272 -0.004,0.0108 -0.0078,0.0261 -0.0059,0.0438 9.89e-4,0.009 0.0035,0.0184 0.0078,0.0276 0.0044,0.009 0.01029,0.0173 0.01723,0.0242 0.0037,0.004 0.0076,0.007 0.01216,0.0101 0.0045,0.003 0.0096,0.004 0.01461,0.006 0.01587,0.005 0.0311,0.005 0.04464,0.004 0.01325,-0.002 0.02489,-0.005 0.03425,-0.009 0.01604,-0.006 0.03512,-0.0171 0.04012,-0.0197 0.02539,-0.0164 0.04639,-0.0332 0.06401,-0.0546 0.0089,-0.0108 0.01733,-0.0232 0.02409,-0.0372 0.0068,-0.0141 0.01197,-0.0298 0.01427,-0.047 7.2e-4,-0.0192 -9.28e-4,-0.0306 -0.0047,-0.0418 -0.0037,-0.0111 -0.0093,-0.0211 -0.01614,-0.0297 -0.0068,-0.009 -0.01459,-0.0155 -0.02257,-0.0209 -0.008,-0.005 -0.01622,-0.009 -0.02424,-0.0125 -0.01589,-0.006 -0.03228,-0.008 -0.04737,-0.008 -0.01511,1.6e-4 -0.03104,0.003 -0.04611,0.009 -0.0085,0.002 -0.02092,0.008 -0.03157,0.0159 -0.01058,0.007 -0.01929,0.0159 -0.02643,0.0243 -0.01403,0.0165 -0.02355,0.0345 -0.03,0.0486 -0.0095,0.0253 -0.0109,0.0466 -0.0084,0.0658 0.0025,0.0193 0.0092,0.0383 0.01954,0.055 0.01055,0.017 0.0255,0.0328 0.04572,0.0437 0.01019,0.006 0.02149,0.01 0.03369,0.0117 0.0088,0.002 0.0178,0.002 0.02681,0.001 0.01387,0.001 0.02737,-4e-5 0.04008,-0.003 0.01574,-0.004 0.03013,-0.0102 0.04275,-0.0184 0.01266,-0.008 0.02384,-0.0183 0.0332,-0.0296 0.0094,-0.0114 0.01722,-0.0243 0.02286,-0.0384 0.0068,-0.0143 0.01077,-0.0318 0.01222,-0.0483 0.0014,-0.0163 4.08e-4,-0.0314 -0.0012,-0.0445 -0.0016,-0.0129 -0.0041,-0.0254 -0.0061,-0.0352 -0.0021,-0.0107 -0.0037,-0.0186 -0.0046,-0.026 -0.0052,-0.0246 -0.01152,-0.0445 -0.02111,-0.0638 -0.0097,-0.0196 -0.02315,-0.0392 -0.04168,-0.056 -0.0047,-0.004 -0.0094,-0.008 -0.01478,-0.0118 -0.0054,-0.003 -0.01131,-0.006 -0.01753,-0.007 -0.0062,-0.001 -0.01265,-6.8e-4 -0.0188,7.2e-4 -0.0062,0.001 -0.01201,0.004 -0.01782,0.006 -0.01595,0.007 -0.03007,0.0155 -0.04251,0.0253 -0.01248,0.01 -0.02324,0.0207 -0.03256,0.0318 -0.01859,0.0222 -0.03242,0.0465 -0.04296,0.068 -0.009,0.0171 -0.02111,0.0419 -0.02777,0.0695 -0.0035,0.0143 -0.0056,0.0301 -0.0051,0.0469 5.28e-4,0.0171 0.0038,0.0347 0.01089,0.0521 0.0024,0.01 0.01055,0.0245 0.02051,0.0366 0.01004,0.0122 0.0225,0.0224 0.0366,0.03 0.01434,0.008 0.0309,0.0127 0.04899,0.0134 0.01855,6.6e-4 0.03763,-0.003 0.05527,-0.0133 0.01408,-0.006 0.03074,-0.017 0.04531,-0.0292 0.01464,-0.0122 0.02721,-0.0257 0.03805,-0.0394 0.02167,-0.0272 0.03811,-0.0572 0.05087,-0.0823 0.0053,-0.0114 0.01024,-0.0225 0.01458,-0.0347 0.0044,-0.0122 0.0085,-0.0265 0.01065,-0.0419 0.0022,-0.0158 0.0025,-0.0337 -0.0019,-0.0525 -0.0022,-0.01 -0.0056,-0.0191 -0.01048,-0.0285 -0.0049,-0.009 -0.01098,-0.0182 -0.01828,-0.0263 -0.01542,-0.0159 -0.03167,-0.0258 -0.04846,-0.032 -0.01691,-0.006 -0.03439,-0.009 -0.05115,-0.008 -0.03369,0.001 -0.06788,0.0148 -0.09299,0.0408 -0.0081,0.007 -0.01765,0.0185 -0.02519,0.0307 -0.0076,0.0123 -0.01304,0.0248 -0.01702,0.0367 -0.007,0.0209 -0.01,0.0418 -0.01152,0.0591 -0.0015,0.005 -0.0036,0.0105 -0.0063,0.0181 -0.0034,0.01 -0.0079,0.0221 -0.01123,0.0355 -0.0034,0.0138 -0.0062,0.0306 -0.0049,0.0491 6.3e-4,0.009 0.0023,0.0193 0.0054,0.0292 0.0031,0.0101 0.0075,0.0198 0.01328,0.0291 0.01438,0.0188 0.02648,0.0292 0.03945,0.0373 0.01328,0.008 0.02805,0.0143 0.04356,0.0175 0.01594,0.003 0.03308,0.004 0.0503,3.6e-4 0.0162,-0.003 0.0318,-0.01 0.04578,-0.0201 0.01333,-0.008 0.02367,-0.0195 0.03087,-0.0318 0.0084,-0.0143 0.01249,-0.03 0.01287,-0.0453 3.9e-4,-0.0159 -0.0032,-0.0321 -0.01128,-0.0468 -0.0072,-0.0132 -0.01755,-0.0244 -0.03029,-0.0327 -0.01368,-0.011 -0.02818,-0.02 -0.04353,-0.0267 a 0.0648417,0.0648417 90 0 0 -0.05221,0.11872 c 0.0043,0.002 0.0098,0.005 0.01644,0.0107 0.0034,0.003 0.0071,0.005 0.0111,0.008 -0.0062,-0.003 -0.01168,-0.009 -0.01531,-0.0153 -0.0034,-0.006 -0.0047,-0.0126 -0.0046,-0.0185 1.4e-4,-0.006 0.0017,-0.0116 0.0049,-0.0171 0.0019,-0.003 0.0044,-0.006 0.0075,-0.009 6.84e-4,-2.8e-4 0.0014,-4.9e-4 0.0021,-6.3e-4 0.003,0.004 0.003,0.002 0.0045,-0.004 0.0015,-0.006 0.0038,-0.0129 0.0074,-0.0228 0.0031,-0.009 0.0077,-0.021 0.01099,-0.0334 0.0011,-0.004 0.0018,-0.008 0.002,-0.0122 0.001,-0.0142 0.0028,-0.0255 0.0057,-0.0344 0.0014,-0.004 0.0028,-0.007 0.0043,-0.009 0.0013,-0.002 0.0027,-0.004 0.0041,-0.005 0.0039,-0.004 0.0063,-0.005 0.0085,-0.005 -0.0027,-0.006 -0.0023,-0.004 -0.0028,-1.9e-4 -5.67e-4,0.004 -0.0019,0.009 -0.0044,0.0163 -0.0024,0.007 -0.0055,0.0139 -0.0091,0.0217 -0.01055,0.0207 -0.02228,0.0413 -0.03569,0.0581 -0.0065,0.008 -0.01304,0.015 -0.01971,0.0206 -0.0066,0.005 -0.01322,0.01 -0.02013,0.0128 -0.0012,3.7e-4 0.0033,-6e-4 0.0073,-4.5e-4 0.0037,1.3e-4 0.0061,0.001 0.0074,0.002 0.0029,0.003 0.0038,0.004 0.0045,0.006 -0.0032,-0.009 -0.0037,-0.0114 -0.0038,-0.0144 -9.4e-5,-0.003 2.8e-4,-0.007 0.0016,-0.0124 0.0027,-0.0113 0.0085,-0.0243 0.01737,-0.0413 0.0088,-0.0179 0.01735,-0.0321 0.02669,-0.0433 0.0045,-0.005 0.009,-0.01 0.01345,-0.0133 0.0044,-0.003 0.0087,-0.006 0.01309,-0.008 l -0.06894,-0.0115 c 0.0043,0.004 0.0086,0.009 0.01249,0.0174 0.0039,0.008 0.0072,0.0176 0.0097,0.0288 5.62e-4,0.007 0.0031,0.0189 0.005,0.0287 0.0021,0.0105 0.0037,0.0187 0.0046,0.0263 9.43e-4,0.007 0.0011,0.0128 7.18e-4,0.0168 -3.29e-4,0.004 -0.0011,0.006 -0.002,0.008 -0.0019,0.004 -0.0027,0.006 -0.0039,0.007 -7.34e-4,8.9e-4 -0.0015,0.002 -0.0023,0.003 -8.62e-4,7.6e-4 -0.0018,0.001 -0.0029,0.002 -0.0021,9e-4 -0.0045,9.8e-4 -0.0068,6.9e-4 -0.0023,-3e-4 -0.0045,-8.8e-4 -0.0068,-0.001 -0.0023,-2.1e-4 -0.0046,1e-5 -0.0069,3.7e-4 0.0013,-2.1e-4 0.0032,-2.7e-4 0.0053,1.1e-4 0.0021,3.8e-4 0.004,0.001 0.0054,0.002 0.0028,0.002 0.0032,0.003 0.0029,0.002 -0.0014,-0.005 -9.85e-4,-0.005 -0.0016,-0.003 0.0022,-0.004 0.0059,-0.0103 0.0089,-0.0138 0.005,-0.003 0.0053,-0.003 0.0067,-0.003 0.0014,-1e-5 0.0017,2.6e-4 7.37e-4,-1e-4 -0.0051,-0.003 -0.0073,-0.005 -0.0094,-0.008 -0.0022,-0.003 -0.004,-0.006 -0.0052,-0.01 -0.0012,-0.004 -0.0015,-0.007 -0.0015,-0.009 2.89e-4,-0.006 -4.04e-4,-0.003 -0.0019,10e-6 -0.0015,0.003 -0.0039,0.007 -0.0074,0.0111 -0.0071,0.009 -0.01733,0.0173 -0.02947,0.0254 -0.0097,0.004 -0.0137,0.007 -0.02152,0.0105 -0.0024,9.2e-4 -0.0032,9.2e-4 -0.002,7.9e-4 0.0013,-1.6e-4 0.0043,-2.2e-4 0.0079,8.8e-4 0.005,0.002 0.01009,0.003 0.01461,0.006 0.0045,0.003 0.0084,0.006 0.01216,0.0101 0.003,0.003 0.006,0.007 0.0084,0.0119 0.0023,0.005 0.0036,0.01 0.0041,0.0143 9.54e-4,0.009 -8.34e-4,0.0138 -0.0015,0.0157 -5.86e-4,0.002 -8.36e-4,0.002 1.57e-4,1.4e-4 8.83e-4,-0.001 0.0021,-0.003 0.0036,-0.004 l -0.01294,0.0111 c 0.01817,-0.0118 0.03301,-0.0255 0.04484,-0.037 0.01207,-0.0118 0.02201,-0.0221 0.03078,-0.03 7.95e-4,-2.3e-4 -0.0041,0.003 -0.0079,0.004 -0.0038,0.001 -0.0084,0.002 -0.01367,0.002 -0.0027,-1.9e-4 -0.006,-7.4e-4 -0.0096,-0.002 -0.0036,-0.001 -0.0077,-0.003 -0.01162,-0.006 -0.004,-0.003 -0.0077,-0.007 -0.01065,-0.0112 -0.003,-0.004 -0.0048,-0.009 -0.0058,-0.013 0.0011,0.004 3.71e-4,9.4e-4 1.58e-4,-0.003 -2.12e-4,-0.004 1.37e-4,-0.007 9.41e-4,-0.0104 0.0016,-0.007 0.0047,-0.0111 0.007,-0.0136 0.0023,-0.003 0.0046,-0.004 0.0064,-0.005 0.0018,-8.4e-4 0.0044,-0.002 0.0079,-0.002 l -0.01154,0.001 c -0.0011,-1.2e-4 -0.0031,-4.9e-4 -0.0063,-0.002 -0.0077,-0.003 -0.01483,-0.006 -0.02927,-0.0129 0.0055,0.003 0.0091,0.005 0.01227,0.009 0.0031,0.003 0.0054,0.007 0.0069,0.0108 0.0029,0.007 0.003,0.0135 0.0021,0.0184 -9.48e-4,0.005 -0.0034,0.0107 -0.0084,0.0159 -0.0055,0.006 -0.01355,0.0101 -0.02253,0.011 0.01253,8.7e-4 0.03864,-0.002 0.05009,-0.003 0.0075,-4.3e-4 0.01336,-4.9e-4 0.01832,-1.5e-4 0.0048,3.3e-4 0.0083,0.001 0.01104,0.002 -0.0038,-0.001 -0.0079,-0.004 -0.01092,-0.007 -0.0029,-0.003 -0.0044,-0.006 -0.0052,-0.008 -7.35e-4,-0.002 -9.26e-4,-0.004 -7.87e-4,-0.006 1.41e-4,-0.002 6.77e-4,-0.004 0.0021,-0.007 l -0.004,0.009 c -0.0058,0.0169 -0.01521,0.0329 -0.02735,0.0466 -0.01218,0.0137 -0.0267,0.0247 -0.04236,0.032 -0.0037,0.002 -0.0059,0.003 -0.0086,0.003 -0.0027,5.9e-4 -0.0045,5.9e-4 -0.0052,5.4e-4 -4.01e-4,-4e-5 0.0014,-6e-5 0.005,0.002 0.0018,0.001 0.0038,0.003 0.0057,0.005 0.0019,0.002 0.0033,0.004 0.0043,0.006 0.0021,0.008 0.0021,0.007 0.0036,0.004 0.0016,-0.003 0.0043,-0.007 0.0083,-0.0121 0.004,-0.005 0.0087,-0.01 0.014,-0.015 0.01293,-0.0127 0.02494,-0.0227 0.03669,-0.0299 0.0116,-0.007 0.02179,-0.0107 0.03115,-0.0118 0.005,-6.7e-4 0.0019,-7.1e-4 -5.22e-4,-0.001 -0.0024,-4e-4 -0.0054,-0.001 -0.0085,-0.003 -0.0032,-0.002 -0.0075,-0.006 -0.01071,-0.0119 -0.0016,-0.003 -0.0028,-0.006 -0.0035,-0.01 -7.01e-4,-0.004 -7.89e-4,-0.007 -5.06e-4,-0.01 6.3e-4,-0.006 0.0022,-0.0126 0.0047,-0.0186 -0.0081,0.0196 -0.02019,0.0381 -0.03545,0.0555 -0.01543,0.0177 -0.03385,0.0339 -0.05404,0.0487 -0.0082,0.005 -0.01748,0.0114 -0.02755,0.0174 -0.0098,0.006 -0.01826,0.0102 -0.02577,0.0132 -0.0075,0.003 -0.01272,0.004 -0.01617,0.004 -0.003,1.2e-4 -0.0052,-3.1e-4 -0.0077,-0.001 l 0.01758,0.0121 c 8.54e-4,8.3e-4 0.0021,0.002 0.0032,0.004 0.0011,0.002 0.0018,0.004 0.0022,0.006 6.57e-4,0.003 -4.9e-5,0.004 6.22e-4,0.001 6.72e-4,-0.003 0.0022,-0.007 0.0051,-0.0139 0.0029,-0.006 0.0062,-0.0128 0.0103,-0.0206 0.01633,-0.027 0.0371,-0.0519 0.06055,-0.0695 0.0036,-0.003 0.009,-0.006 0.0144,-0.008 0.0055,-0.003 0.01046,-0.004 0.01454,-0.005 0.0041,-9.1e-4 0.0065,-8.2e-4 0.0075,-7e-4 l -0.01138,-0.01 c -0.002,-0.002 -0.0041,-0.005 -0.0057,-0.009 -0.0016,-0.004 -0.0025,-0.007 -0.0029,-0.0104 -6.58e-4,-0.006 6.41e-4,-0.009 8.45e-4,-0.01 2.06e-4,-5.3e-4 -5.27e-4,0.001 -0.0018,0.003 -0.0221,0.0128 -0.04431,0.0234 -0.06606,0.0293 -0.0059,0.001 -0.0042,0.002 -0.0021,0.004 0.0023,0.002 0.004,0.005 0.0048,0.008 0.0012,0.004 0.002,0.009 0.0023,0.013 -2.06e-4,-0.003 -3.4e-5,-0.006 6.37e-4,-0.009 6.89e-4,-0.004 0.0019,-0.008 0.0038,-0.0121 0.004,-0.009 0.01037,-0.0195 0.01865,-0.0298 0.02357,-0.0296 0.04999,-0.0545 0.07806,-0.0749 0.0054,-0.004 0.0074,-0.006 0.0093,-0.007 0.0018,-9.5e-4 0.0031,-0.001 0.0019,-9.4e-4 -0.0058,1.2e-4 -0.0085,-2.5e-4 -0.01166,-0.001 -0.0032,-0.001 -0.0064,-0.003 -0.0093,-0.005 -0.0029,-0.002 -0.0049,-0.004 -0.0061,-0.006 -0.0027,-0.004 -0.0052,-0.008 -0.0071,-0.0118 -0.0018,-0.004 -0.0028,-0.009 -0.0037,-0.0132 0.0021,0.0105 0.0012,0.0224 -0.0027,0.0351 -0.0042,0.0137 -0.01157,0.027 -0.0206,0.0386 -0.0081,0.007 -0.01072,0.006 -0.01205,0.005 -0.0062,-0.004 -0.0093,-0.006 -0.01217,-0.009 -0.0029,-0.003 -0.0052,-0.007 -0.0066,-0.01 -0.0015,-0.003 -0.002,-0.006 -0.0021,-0.007 -0.0024,0.003 -7.99e-4,9.9e-4 0.0018,-0.001 0.0027,-0.002 0.0066,-0.005 0.01189,-0.007 0.01131,-0.005 0.02603,-0.008 0.04214,-0.01 9.87e-4,7.7e-4 0.01079,-7e-5 0.0168,-6.2e-4 0.0076,-6.9e-4 0.01043,-0.001 0.01377,-0.001 0.0027,-9e-5 0.002,2e-4 -4.12e-4,-3.8e-4 -0.0031,-7.4e-4 -0.0074,-0.002 -0.01132,-0.006 -0.0038,-0.003 -0.0073,-0.007 -0.01025,-0.0108 -0.0012,-0.002 -0.0023,-0.004 -0.0032,-0.006 -8.55e-4,-0.002 -0.0013,-0.004 -0.0015,-0.006 -3.52e-4,-0.003 1.9e-4,-0.004 -1.41e-4,-0.003 -4.03e-4,0.001 -0.0014,0.004 -0.0034,0.008 -0.0013,0.002 -0.0027,0.005 -0.0043,0.007 -0.02058,0.0201 -0.03934,0.0421 -0.05316,0.058 0.0023,-0.002 0.0049,-0.004 0.0097,-0.005 0.0026,-9.4e-4 0.0068,-0.002 0.01213,-0.002 0.0056,-3.9e-4 0.01293,7e-5 0.02091,0.003 0.0084,0.003 0.01578,0.008 0.02149,0.0138 0.0057,0.006 0.0087,0.0118 0.01028,0.0158 0.0034,0.009 0.0064,0.0178 0.006,0.0271 -4.54e-4,0.009 -0.0043,0.0181 -0.0086,0.0263 0.02878,-0.0562 0.0634,-0.10554 0.08872,-0.14948 a 0.0648417,0.0648417 90 0 0 -0.11236,-0.0648 z"
       id="path-1"
       inkscape:path-effect="#path-effect1586;#path-effect1588"
       inkscape:original-d="m -13.67845,153.44028 c -0.02945,0.0511 -0.0633,0.0997 -0.09025,0.15229 0.01502,0.0327 0.05396,-0.0327 0.07142,-0.0471 0.03823,-0.0279 0.07016,-0.11766 -0.0073,-0.10628 -0.04757,-4.3e-4 -0.102525,0.01 -0.133533,0.0489 -0.03603,0.0679 0.05185,0.15647 0.119755,0.11694 0.03934,-0.0333 0.06772,-0.096 0.05659,-0.14773 -0.0345,-0.0425 -0.08551,0.016 -0.11643,0.038 -0.03936,0.0408 -0.09046,0.0897 -0.0864,0.15051 0.02277,0.0615 0.09582,0.03 0.136969,0.008 0.04606,-0.0102 0.08717,-0.09 0.01677,-0.0961 -0.07127,-0.003 -0.122352,0.0584 -0.158427,0.11248 -0.01558,0.0306 -0.04317,0.0771 -0.01202,0.10577 0.0474,0.0237 0.09875,-0.0112 0.138524,-0.0362 0.04837,-0.0345 0.09261,-0.0795 0.115575,-0.13488 -7.08e-4,-0.0607 -0.08858,-0.0298 -0.117765,-0.006 -0.03809,0.0301 -0.104802,0.0868 -0.0697,0.13873 0.03778,0.0323 0.08951,0.003 0.122094,-0.0232 0.03303,-0.0292 0.05953,-0.0692 0.06655,-0.11303 -0.0058,-0.0596 -0.07671,-0.0428 -0.117627,-0.0418 -0.05009,-0.007 -0.06171,0.0538 -0.01225,0.0648 0.0336,0.0252 0.118535,0.0187 0.0976,-0.0394 -0.03263,-0.041 -0.0716,0.0365 -0.102328,0.0513 -0.03028,0.019 -0.04863,0.0773 0.005,0.0596 0.04771,-0.014 0.09133,-0.0505 0.109225,-0.0974 0.01399,-0.0661 -0.08868,-0.064 -0.109818,-0.0159 -0.03737,0.0365 -0.01374,0.11734 0.0441,0.10982 0.06211,0.008 0.09918,-0.0617 0.08317,-0.11548 -0.0058,-0.0476 -0.01343,-0.10032 -0.05074,-0.13445 -0.0565,0.0243 -0.08313,0.0871 -0.10609,0.14001 -0.01394,0.0416 -0.0012,0.10777 0.0515,0.10942 0.0531,-0.01 0.08645,-0.06 0.113485,-0.10243 0.02233,-0.0425 0.05964,-0.11527 0.0046,-0.14794 -0.06432,-0.0333 -0.122243,0.0345 -0.118605,0.0966 -0.01084,0.0475 -0.05563,0.11474 0.01187,0.14426 0.03347,0.0243 0.108173,-0.0192 0.06149,-0.0545 -0.0095,-0.008 -0.0204,-0.0153 -0.03204,-0.0204"
       style="fill:#000000;fill-rule:nonzero;stroke:none;stroke-width:0.675312" />
  </g>
</svg>
