<?xml version="1.0" encoding="UTF-8" standalone="no"?>
<!-- Created with Inkscape (http://www.inkscape.org/) -->

<svg
   width="6mm"
   height="10mm"
   viewBox="0 0 6.0000001 9.9999994"
   version="1.1"
   id="svg1681"
   inkscape:version="1.2.1 (9c6d41e410, 2022-07-14)"
   sodipodi:docname="lower w 1.4.svg"
   inkscape:export-filename="..\..\..\..\Downloads\lower a diff canvas resize 3.0.png"
   inkscape:export-xdpi="96"
   inkscape:export-ydpi="96"
   xmlns:inkscape="http://www.inkscape.org/namespaces/inkscape"
   xmlns:sodipodi="http://sodipodi.sourceforge.net/DTD/sodipodi-0.dtd"
   xmlns="http://www.w3.org/2000/svg"
   xmlns:svg="http://www.w3.org/2000/svg"
   xmlns:rdf="http://www.w3.org/1999/02/22-rdf-syntax-ns#"
   xmlns:cc="http://creativecommons.org/ns#"
   xmlns:dc="http://purl.org/dc/elements/1.1/">
  <defs
     id="defs1675">
    <inkscape:path-effect
       effect="powerstroke"
       id="path-effect3052"
       is_visible="true"
       lpeversion="1"
       offset_points="3.0581724,0.12657532 | 9.4003897,0.10106552 | 10.590707,0.119565"
       not_jump="true"
       sort_points="true"
       interpolator_type="CentripetalCatmullRom"
       interpolator_beta="0.75"
       start_linecap_type="round"
       linejoin_type="spiro"
       miter_limit="4"
       scale_width="1"
       end_linecap_type="round" />
    <inkscape:path-effect
       effect="simplify"
       id="path-effect3050"
       is_visible="true"
       lpeversion="1"
       steps="1"
       threshold="0.0035951417"
       smooth_angles="0"
       helper_size="0"
       simplify_individual_paths="false"
       simplify_just_coalesce="false"
       step="1" />
    <inkscape:path-effect
       effect="powerstroke"
       id="path-effect502"
       is_visible="true"
       lpeversion="1"
       offset_points="3.0091841,0.21607495 | 7.3602657,0.17554228 | 9.4159651,0.20236537"
       not_jump="true"
       sort_points="true"
       interpolator_type="CentripetalCatmullRom"
       interpolator_beta="0.75"
       start_linecap_type="round"
       linejoin_type="spiro"
       miter_limit="4"
       scale_width="1"
       end_linecap_type="round" />
    <inkscape:path-effect
       effect="simplify"
       id="path-effect500"
       is_visible="true"
       lpeversion="1"
       steps="1"
       threshold="0.0035951417"
       smooth_angles="0"
       helper_size="0"
       simplify_individual_paths="false"
       simplify_just_coalesce="false"
       step="1" />
    <inkscape:path-effect
       effect="powerstroke"
       id="path-effect241"
       is_visible="true"
       lpeversion="1"
       offset_points="2.6879454,0.34086734"
       not_jump="true"
       sort_points="true"
       interpolator_type="CentripetalCatmullRom"
       interpolator_beta="0.75"
       start_linecap_type="round"
       linejoin_type="spiro"
       miter_limit="4"
       scale_width="1"
       end_linecap_type="round" />
    <inkscape:path-effect
       effect="simplify"
       id="path-effect239"
       is_visible="true"
       lpeversion="1"
       steps="1"
       threshold="0.0028332064"
       smooth_angles="0"
       helper_size="0"
       simplify_individual_paths="false"
       simplify_just_coalesce="false"
       step="1" />
    <inkscape:path-effect
       effect="powerstroke"
       id="path-effect234"
       is_visible="true"
       lpeversion="1"
       offset_points="2.13563,0.075169555"
       not_jump="true"
       sort_points="true"
       interpolator_type="CentripetalCatmullRom"
       interpolator_beta="0.75"
       start_linecap_type="round"
       linejoin_type="spiro"
       miter_limit="4"
       scale_width="1"
       end_linecap_type="round" />
    <inkscape:path-effect
       effect="simplify"
       id="path-effect232"
       is_visible="true"
       lpeversion="1"
       steps="1"
       threshold="0.0028332064"
       smooth_angles="0"
       helper_size="0"
       simplify_individual_paths="false"
       simplify_just_coalesce="false"
       step="1" />
    <inkscape:path-effect
       effect="powerstroke"
       id="path-effect227"
       is_visible="true"
       lpeversion="1"
       offset_points="2.1868266,0.075169555"
       not_jump="true"
       sort_points="true"
       interpolator_type="CentripetalCatmullRom"
       interpolator_beta="0.75"
       start_linecap_type="round"
       linejoin_type="spiro"
       miter_limit="4"
       scale_width="1"
       end_linecap_type="round" />
    <inkscape:path-effect
       effect="simplify"
       id="path-effect225"
       is_visible="true"
       lpeversion="1"
       steps="1"
       threshold="0.0028332064"
       smooth_angles="0"
       helper_size="0"
       simplify_individual_paths="false"
       simplify_just_coalesce="false"
       step="1" />
    <inkscape:path-effect
       effect="powerstroke"
       id="path-effect166"
       is_visible="true"
       lpeversion="1"
       offset_points="1.9637935,0.075169555"
       not_jump="true"
       sort_points="true"
       interpolator_type="CentripetalCatmullRom"
       interpolator_beta="0.75"
       start_linecap_type="round"
       linejoin_type="spiro"
       miter_limit="4"
       scale_width="1"
       end_linecap_type="round" />
    <inkscape:path-effect
       effect="simplify"
       id="path-effect164"
       is_visible="true"
       lpeversion="1"
       steps="1"
       threshold="0.0028332064"
       smooth_angles="0"
       helper_size="0"
       simplify_individual_paths="false"
       simplify_just_coalesce="false"
       step="1" />
    <inkscape:path-effect
       effect="powerstroke"
       id="path-effect159"
       is_visible="true"
       lpeversion="1"
       offset_points="2.2611036,0.075169555"
       not_jump="true"
       sort_points="true"
       interpolator_type="CentripetalCatmullRom"
       interpolator_beta="0.75"
       start_linecap_type="round"
       linejoin_type="spiro"
       miter_limit="4"
       scale_width="1"
       end_linecap_type="round" />
    <inkscape:path-effect
       effect="simplify"
       id="path-effect157"
       is_visible="true"
       lpeversion="1"
       steps="1"
       threshold="0.0028332064"
       smooth_angles="0"
       helper_size="0"
       simplify_individual_paths="false"
       simplify_just_coalesce="false"
       step="1" />
    <inkscape:path-effect
       effect="powerstroke"
       id="path-effect152"
       is_visible="true"
       lpeversion="1"
       offset_points="2.826981,0.075169555"
       not_jump="true"
       sort_points="true"
       interpolator_type="CentripetalCatmullRom"
       interpolator_beta="0.75"
       start_linecap_type="round"
       linejoin_type="spiro"
       miter_limit="4"
       scale_width="1"
       end_linecap_type="round" />
    <inkscape:path-effect
       effect="simplify"
       id="path-effect150"
       is_visible="true"
       lpeversion="1"
       steps="1"
       threshold="0.0028332064"
       smooth_angles="0"
       helper_size="0"
       simplify_individual_paths="false"
       simplify_just_coalesce="false"
       step="1" />
    <inkscape:path-effect
       effect="powerstroke"
       id="path-effect145"
       is_visible="true"
       lpeversion="1"
       offset_points="3.8374447,0.075169555"
       not_jump="true"
       sort_points="true"
       interpolator_type="CentripetalCatmullRom"
       interpolator_beta="0.75"
       start_linecap_type="round"
       linejoin_type="spiro"
       miter_limit="4"
       scale_width="1"
       end_linecap_type="round" />
    <inkscape:path-effect
       effect="simplify"
       id="path-effect143"
       is_visible="true"
       lpeversion="1"
       steps="1"
       threshold="0.0028332064"
       smooth_angles="0"
       helper_size="0"
       simplify_individual_paths="false"
       simplify_just_coalesce="false"
       step="1" />
    <inkscape:path-effect
       effect="powerstroke"
       id="path-effect138"
       is_visible="true"
       lpeversion="1"
       offset_points="2.6880907,0.075169555"
       not_jump="true"
       sort_points="true"
       interpolator_type="CentripetalCatmullRom"
       interpolator_beta="0.75"
       start_linecap_type="round"
       linejoin_type="spiro"
       miter_limit="4"
       scale_width="1"
       end_linecap_type="round" />
    <inkscape:path-effect
       effect="simplify"
       id="path-effect136"
       is_visible="true"
       lpeversion="1"
       steps="1"
       threshold="0.0028332064"
       smooth_angles="0"
       helper_size="0"
       simplify_individual_paths="false"
       simplify_just_coalesce="false"
       step="1" />
    <inkscape:path-effect
       effect="powerstroke"
       id="path-effect131"
       is_visible="true"
       lpeversion="1"
       offset_points="1.9940581,0.075169555"
       not_jump="true"
       sort_points="true"
       interpolator_type="CentripetalCatmullRom"
       interpolator_beta="0.75"
       start_linecap_type="round"
       linejoin_type="spiro"
       miter_limit="4"
       scale_width="1"
       end_linecap_type="round" />
    <inkscape:path-effect
       effect="simplify"
       id="path-effect129"
       is_visible="true"
       lpeversion="1"
       steps="1"
       threshold="0.0028332064"
       smooth_angles="0"
       helper_size="0"
       simplify_individual_paths="false"
       simplify_just_coalesce="false"
       step="1" />
  </defs>
  <sodipodi:namedview
     id="base"
     pagecolor="#ffffff"
     bordercolor="#666666"
     borderopacity="1.0"
     inkscape:pageopacity="0.0"
     inkscape:pageshadow="2"
     inkscape:zoom="7.919596"
     inkscape:cx="-5.3033008"
     inkscape:cy="20.834396"
     inkscape:document-units="mm"
     inkscape:current-layer="layer1"
     showgrid="false"
     fit-margin-top="0"
     fit-margin-left="0"
     fit-margin-right="0"
     fit-margin-bottom="0"
     inkscape:window-width="1920"
     inkscape:window-height="974"
     inkscape:window-x="-11"
     inkscape:window-y="2869"
     inkscape:window-maximized="1"
     showguides="true"
     inkscape:guide-bbox="true"
     inkscape:snap-bbox="true"
     inkscape:bbox-nodes="true"
     inkscape:snap-nodes="false"
     inkscape:snap-others="false"
     inkscape:snap-page="true"
     inkscape:snap-grids="false"
     inkscape:snap-to-guides="false"
     inkscape:snap-global="false"
     inkscape:pagecheckerboard="0"
     inkscape:showpageshadow="2"
     inkscape:deskcolor="#d1d1d1">
    <sodipodi:guide
       position="-6.1806075,9.4988692"
       orientation="0,1"
       id="guide816"
       inkscape:locked="false" />
    <sodipodi:guide
       position="-4.4101636,10.646923"
       orientation="0,1"
       id="guide818"
       inkscape:locked="false" />
    <sodipodi:guide
       position="2.7595724,11.09577"
       orientation="1,0"
       id="guide820"
       inkscape:locked="false" />
    <sodipodi:guide
       position="3.6572659,10.942217"
       orientation="1,0"
       id="guide822"
       inkscape:locked="false" />
    <sodipodi:guide
       position="-0.051625511,9.7492299"
       orientation="1,0"
       id="guide1853"
       inkscape:locked="false" />
    <sodipodi:guide
       position="-2.3720169,3.0175835"
       orientation="0,1"
       id="guide1855"
       inkscape:locked="false" />
  </sodipodi:namedview>
  <metadata
     id="metadata1678">
    <rdf:RDF>
      <cc:Work
         rdf:about="">
        <dc:format>image/svg+xml</dc:format>
        <dc:type
           rdf:resource="http://purl.org/dc/dcmitype/StillImage" />
      </cc:Work>
    </rdf:RDF>
  </metadata>
  <g
     inkscape:label="Layer 1"
     inkscape:groupmode="layer"
     id="layer1"
     transform="translate(17.028496,-147.22856)">
    <path
       d="m -15.147809,151.18661 c 0.02136,0.15295 0.08708,0.66921 0.144509,0.99321 0.05198,0.29321 0.128104,0.64102 0.260118,0.98718 0.09008,0.2359 0.215256,0.4903 0.390553,0.73068 0.0099,0.0136 0.02081,0.027 0.03518,0.0358 0.01437,0.009 0.03124,0.0124 0.04788,0.0151 0.07394,0.0117 0.156952,0.009 0.235614,-0.0157 0.03944,-0.0124 0.07841,-0.0306 0.11436,-0.0559 0.03636,-0.0256 0.06892,-0.058 0.09511,-0.0976 0.0068,-0.0102 0.01321,-0.0206 0.01924,-0.0311 0.01939,-0.0338 0.03513,-0.0693 0.04774,-0.10636 0.01543,-0.0453 0.02582,-0.092 0.03275,-0.13941 0.01287,-0.0881 0.0134,-0.17565 0.01378,-0.25916 -7.08e-4,-0.0945 -0.0065,-0.18376 -0.01094,-0.27593 -0.0042,-0.0867 -0.0068,-0.17235 -0.0018,-0.25649 2.19e-4,-0.004 4.23e-4,-0.007 2.71e-4,-0.011 -0.002,-0.0488 -0.0027,-0.0957 9.31e-4,-0.14043 0.0036,-0.044 0.01113,-0.0841 0.02456,-0.12039 l -0.03645,0.0478 c -0.0022,0.002 -0.0069,0.005 -0.01395,0.008 -0.0072,0.003 -0.01763,0.006 -0.0306,0.007 -0.01339,5.5e-4 -0.02713,-0.002 -0.04003,-0.007 -0.01258,-0.005 -0.02194,-0.0123 -0.0284,-0.0185 -0.0063,-0.006 -0.01017,-0.0118 -0.0123,-0.0154 -0.0022,-0.004 -0.0032,-0.006 -0.0036,-0.007 -8.03e-4,-0.003 2.99e-4,-6.9e-4 0.0014,0.003 0.0026,0.009 0.0048,0.0223 0.0072,0.039 0.0011,0.008 0.0024,0.0168 0.0037,0.0249 6.75e-4,0.004 0.0015,0.009 0.0024,0.0135 4.56e-4,0.002 9.92e-4,0.005 0.0016,0.008 0.0055,0.0555 0.01875,0.10722 0.03078,0.15067 0.01473,0.0532 0.02651,0.0908 0.03496,0.13323 0.04103,0.17263 0.07219,0.32214 0.119618,0.48007 0.05273,0.17555 0.116906,0.32887 0.206232,0.46651 0.04421,0.0677 0.09201,0.12315 0.137952,0.16783 0.0976,0.0949 0.196625,0.15168 0.274735,0.18453 0.0074,0.003 0.01512,0.006 0.02313,0.007 0.008,8.6e-4 0.01608,4e-4 0.02413,7e-5 0.08472,-0.004 0.177719,-0.0276 0.266639,-0.0843 0.0137,-0.009 0.02762,-0.0184 0.04157,-0.0292 0.05241,-0.0405 0.107134,-0.0973 0.150339,-0.17222 0.0677,-0.11462 0.109455,-0.23966 0.14069,-0.37156 0.02953,-0.12468 0.04859,-0.24909 0.07185,-0.36066 0.09205,-0.55745 0.08346,-1.40967 0.08654,-1.56989 a 0.119565,0.119565 90 0 0 -0.239086,-0.005 c -0.0035,0.18122 0.0027,0.99892 -0.08589,1.5296 -0.0246,0.11491 -0.04391,0.23735 -0.07052,0.34931 -0.02826,0.1189 -0.06268,0.21837 -0.113754,0.30614 -0.02592,0.0461 -0.05807,0.081 -0.08893,0.10666 -0.0082,0.007 -0.01629,0.013 -0.02423,0.0187 -0.04453,0.0317 -0.0909,0.0512 -0.13408,0.0604 -0.05331,-0.0203 -0.117894,-0.0549 -0.183727,-0.11589 -0.03654,-0.0339 -0.07481,-0.0771 -0.109971,-0.13064 -0.07587,-0.11653 -0.132912,-0.25112 -0.181238,-0.41465 -0.04435,-0.1501 -0.07251,-0.29024 -0.112627,-0.4644 -0.008,-0.0475 -0.02189,-0.0978 -0.03309,-0.14396 -0.01086,-0.0448 -0.01892,-0.0845 -0.02052,-0.12301 -1.34e-4,-0.003 -2.42e-4,-0.006 -6.79e-4,-0.01 -4.37e-4,-0.003 -0.0013,-0.006 -0.0023,-0.009 4.6e-4,0.001 5e-4,0.001 4.13e-4,1.2e-4 -6.5e-5,-9.1e-4 -3.05e-4,-0.003 -5.21e-4,-0.006 -5.42e-4,-0.006 -0.0013,-0.0154 -0.0019,-0.0214 -0.0014,-0.016 -0.0037,-0.0401 -0.0084,-0.0628 -0.0024,-0.0115 -0.006,-0.0256 -0.0118,-0.04 -0.003,-0.007 -0.0069,-0.0157 -0.0122,-0.0244 -0.0053,-0.009 -0.01254,-0.0186 -0.02256,-0.0282 -0.01017,-0.01 -0.02355,-0.0195 -0.04048,-0.0265 -0.01725,-0.007 -0.03567,-0.0102 -0.05412,-0.009 -0.01802,7.8e-4 -0.03386,0.005 -0.0469,0.0107 -0.01288,0.005 -0.02377,0.0122 -0.03265,0.0188 -0.0082,0.006 -0.01618,0.0126 -0.02228,0.0208 -0.0061,0.008 -0.01025,0.0176 -0.01417,0.027 -0.02503,0.0601 -0.03815,0.12127 -0.04517,0.17995 -0.0067,0.0561 -0.008,0.11165 -0.0079,0.16185 -0.0076,0.0963 -0.0063,0.19136 -0.0039,0.27874 0.0027,0.098 0.0066,0.17833 0.0057,0.26497 -0.0021,0.0844 -0.0041,0.15487 -0.01516,0.22313 -0.0057,0.0354 -0.01346,0.0667 -0.02344,0.0949 -0.0081,0.0229 -0.01762,0.0434 -0.02852,0.062 -0.0034,0.006 -0.007,0.0115 -0.01078,0.0171 -0.0081,0.0118 -0.01808,0.0217 -0.03024,0.0301 -0.01225,0.008 -0.02714,0.0156 -0.04462,0.021 -0.0215,0.007 -0.04539,0.0101 -0.06987,0.0103 -0.141918,-0.20451 -0.247134,-0.42008 -0.325454,-0.62405 -0.124006,-0.32445 -0.197078,-0.65444 -0.24807,-0.94065 -0.05697,-0.31978 -0.120944,-0.8211 -0.143667,-0.98383 a 0.12657532,0.12657532 90 0 0 -0.250718,0.035 z"
       id="path-1"
       inkscape:path-effect="#path-effect3050;#path-effect3052"
       inkscape:original-d="m -15.02245,151.1691 c 0.126768,0.9108 0.214446,1.8859 0.772965,2.6534 0.579344,0.0724 0.370439,-0.7491 0.408881,-1.10941 -0.01518,-0.22445 0.07109,-0.54892 0.104879,-0.12749 0.137665,0.49478 0.191292,1.22698 0.73157,1.43554 0.443401,-0.0486 0.485918,-0.57596 0.55905,-0.92172 0.08696,-0.51494 0.07774,-1.03895 0.08775,-1.55923"
       style="fill:#000000;fill-rule:nonzero;stroke:none;stroke-width:1.32636" />
  </g>
</svg>
