<?xml version="1.0" encoding="UTF-8" standalone="no"?>
<!-- Created with Inkscape (http://www.inkscape.org/) -->

<svg
   width="6mm"
   height="10mm"
   viewBox="0 0 6.0000001 9.9999994"
   version="1.1"
   id="svg1681"
   inkscape:version="1.2.1 (9c6d41e410, 2022-07-14)"
   sodipodi:docname="lower w 1.2.svg"
   inkscape:export-filename="..\..\..\..\Downloads\lower a diff canvas resize 3.0.png"
   inkscape:export-xdpi="96"
   inkscape:export-ydpi="96"
   xmlns:inkscape="http://www.inkscape.org/namespaces/inkscape"
   xmlns:sodipodi="http://sodipodi.sourceforge.net/DTD/sodipodi-0.dtd"
   xmlns="http://www.w3.org/2000/svg"
   xmlns:svg="http://www.w3.org/2000/svg"
   xmlns:rdf="http://www.w3.org/1999/02/22-rdf-syntax-ns#"
   xmlns:cc="http://creativecommons.org/ns#"
   xmlns:dc="http://purl.org/dc/elements/1.1/">
  <defs
     id="defs1675">
    <inkscape:path-effect
       effect="powerstroke"
       id="path-effect381"
       is_visible="true"
       lpeversion="1"
       offset_points="2.6277777,0.10831688"
       not_jump="true"
       sort_points="true"
       interpolator_type="CentripetalCatmullRom"
       interpolator_beta="0.75"
       start_linecap_type="round"
       linejoin_type="spiro"
       miter_limit="4"
       scale_width="1"
       end_linecap_type="round" />
    <inkscape:path-effect
       effect="simplify"
       id="path-effect379"
       is_visible="true"
       lpeversion="1"
       steps="1"
       threshold="0.0035951417"
       smooth_angles="0"
       helper_size="0"
       simplify_individual_paths="false"
       simplify_just_coalesce="false"
       step="1" />
    <inkscape:path-effect
       effect="powerstroke"
       id="path-effect374"
       is_visible="true"
       lpeversion="1"
       offset_points="1.9508702,0.086474349 | 3.7233474,0.099981378 | 6.2012716,0.068856485 | 10.47004,0.1039454"
       not_jump="true"
       sort_points="true"
       interpolator_type="CentripetalCatmullRom"
       interpolator_beta="0.75"
       start_linecap_type="round"
       linejoin_type="spiro"
       miter_limit="4"
       scale_width="1"
       end_linecap_type="round" />
    <inkscape:path-effect
       effect="simplify"
       id="path-effect372"
       is_visible="true"
       lpeversion="1"
       steps="1"
       threshold="0.0035951417"
       smooth_angles="0"
       helper_size="0"
       simplify_individual_paths="false"
       simplify_just_coalesce="false"
       step="1" />
    <inkscape:path-effect
       effect="powerstroke"
       id="path-effect367"
       is_visible="true"
       lpeversion="1"
       offset_points="2.0813796,0.070765087 | 2.7830109,0.079280388 | 4.0498681,0.07164598 | 12.439165,0.087942505"
       not_jump="true"
       sort_points="true"
       interpolator_type="CentripetalCatmullRom"
       interpolator_beta="0.75"
       start_linecap_type="round"
       linejoin_type="spiro"
       miter_limit="4"
       scale_width="1"
       end_linecap_type="round" />
    <inkscape:path-effect
       effect="simplify"
       id="path-effect365"
       is_visible="true"
       lpeversion="1"
       steps="1"
       threshold="0.0035951417"
       smooth_angles="0"
       helper_size="0"
       simplify_individual_paths="false"
       simplify_just_coalesce="false"
       step="1" />
    <inkscape:path-effect
       effect="powerstroke"
       id="path-effect502"
       is_visible="true"
       lpeversion="1"
       offset_points="3.0091841,0.21607495 | 7.3602657,0.17554228 | 9.4159651,0.20236537"
       not_jump="true"
       sort_points="true"
       interpolator_type="CentripetalCatmullRom"
       interpolator_beta="0.75"
       start_linecap_type="round"
       linejoin_type="spiro"
       miter_limit="4"
       scale_width="1"
       end_linecap_type="round" />
    <inkscape:path-effect
       effect="simplify"
       id="path-effect500"
       is_visible="true"
       lpeversion="1"
       steps="1"
       threshold="0.0035951417"
       smooth_angles="0"
       helper_size="0"
       simplify_individual_paths="false"
       simplify_just_coalesce="false"
       step="1" />
    <inkscape:path-effect
       effect="powerstroke"
       id="path-effect241"
       is_visible="true"
       lpeversion="1"
       offset_points="2.6879454,0.34086734"
       not_jump="true"
       sort_points="true"
       interpolator_type="CentripetalCatmullRom"
       interpolator_beta="0.75"
       start_linecap_type="round"
       linejoin_type="spiro"
       miter_limit="4"
       scale_width="1"
       end_linecap_type="round" />
    <inkscape:path-effect
       effect="simplify"
       id="path-effect239"
       is_visible="true"
       lpeversion="1"
       steps="1"
       threshold="0.0028332064"
       smooth_angles="0"
       helper_size="0"
       simplify_individual_paths="false"
       simplify_just_coalesce="false"
       step="1" />
    <inkscape:path-effect
       effect="powerstroke"
       id="path-effect234"
       is_visible="true"
       lpeversion="1"
       offset_points="2.13563,0.075169555"
       not_jump="true"
       sort_points="true"
       interpolator_type="CentripetalCatmullRom"
       interpolator_beta="0.75"
       start_linecap_type="round"
       linejoin_type="spiro"
       miter_limit="4"
       scale_width="1"
       end_linecap_type="round" />
    <inkscape:path-effect
       effect="simplify"
       id="path-effect232"
       is_visible="true"
       lpeversion="1"
       steps="1"
       threshold="0.0028332064"
       smooth_angles="0"
       helper_size="0"
       simplify_individual_paths="false"
       simplify_just_coalesce="false"
       step="1" />
    <inkscape:path-effect
       effect="powerstroke"
       id="path-effect227"
       is_visible="true"
       lpeversion="1"
       offset_points="2.1868266,0.075169555"
       not_jump="true"
       sort_points="true"
       interpolator_type="CentripetalCatmullRom"
       interpolator_beta="0.75"
       start_linecap_type="round"
       linejoin_type="spiro"
       miter_limit="4"
       scale_width="1"
       end_linecap_type="round" />
    <inkscape:path-effect
       effect="simplify"
       id="path-effect225"
       is_visible="true"
       lpeversion="1"
       steps="1"
       threshold="0.0028332064"
       smooth_angles="0"
       helper_size="0"
       simplify_individual_paths="false"
       simplify_just_coalesce="false"
       step="1" />
    <inkscape:path-effect
       effect="powerstroke"
       id="path-effect166"
       is_visible="true"
       lpeversion="1"
       offset_points="1.9637935,0.075169555"
       not_jump="true"
       sort_points="true"
       interpolator_type="CentripetalCatmullRom"
       interpolator_beta="0.75"
       start_linecap_type="round"
       linejoin_type="spiro"
       miter_limit="4"
       scale_width="1"
       end_linecap_type="round" />
    <inkscape:path-effect
       effect="simplify"
       id="path-effect164"
       is_visible="true"
       lpeversion="1"
       steps="1"
       threshold="0.0028332064"
       smooth_angles="0"
       helper_size="0"
       simplify_individual_paths="false"
       simplify_just_coalesce="false"
       step="1" />
    <inkscape:path-effect
       effect="powerstroke"
       id="path-effect159"
       is_visible="true"
       lpeversion="1"
       offset_points="2.2611036,0.075169555"
       not_jump="true"
       sort_points="true"
       interpolator_type="CentripetalCatmullRom"
       interpolator_beta="0.75"
       start_linecap_type="round"
       linejoin_type="spiro"
       miter_limit="4"
       scale_width="1"
       end_linecap_type="round" />
    <inkscape:path-effect
       effect="simplify"
       id="path-effect157"
       is_visible="true"
       lpeversion="1"
       steps="1"
       threshold="0.0028332064"
       smooth_angles="0"
       helper_size="0"
       simplify_individual_paths="false"
       simplify_just_coalesce="false"
       step="1" />
    <inkscape:path-effect
       effect="powerstroke"
       id="path-effect152"
       is_visible="true"
       lpeversion="1"
       offset_points="2.826981,0.075169555"
       not_jump="true"
       sort_points="true"
       interpolator_type="CentripetalCatmullRom"
       interpolator_beta="0.75"
       start_linecap_type="round"
       linejoin_type="spiro"
       miter_limit="4"
       scale_width="1"
       end_linecap_type="round" />
    <inkscape:path-effect
       effect="simplify"
       id="path-effect150"
       is_visible="true"
       lpeversion="1"
       steps="1"
       threshold="0.0028332064"
       smooth_angles="0"
       helper_size="0"
       simplify_individual_paths="false"
       simplify_just_coalesce="false"
       step="1" />
    <inkscape:path-effect
       effect="powerstroke"
       id="path-effect145"
       is_visible="true"
       lpeversion="1"
       offset_points="3.8374447,0.075169555"
       not_jump="true"
       sort_points="true"
       interpolator_type="CentripetalCatmullRom"
       interpolator_beta="0.75"
       start_linecap_type="round"
       linejoin_type="spiro"
       miter_limit="4"
       scale_width="1"
       end_linecap_type="round" />
    <inkscape:path-effect
       effect="simplify"
       id="path-effect143"
       is_visible="true"
       lpeversion="1"
       steps="1"
       threshold="0.0028332064"
       smooth_angles="0"
       helper_size="0"
       simplify_individual_paths="false"
       simplify_just_coalesce="false"
       step="1" />
    <inkscape:path-effect
       effect="powerstroke"
       id="path-effect138"
       is_visible="true"
       lpeversion="1"
       offset_points="2.6880907,0.075169555"
       not_jump="true"
       sort_points="true"
       interpolator_type="CentripetalCatmullRom"
       interpolator_beta="0.75"
       start_linecap_type="round"
       linejoin_type="spiro"
       miter_limit="4"
       scale_width="1"
       end_linecap_type="round" />
    <inkscape:path-effect
       effect="simplify"
       id="path-effect136"
       is_visible="true"
       lpeversion="1"
       steps="1"
       threshold="0.0028332064"
       smooth_angles="0"
       helper_size="0"
       simplify_individual_paths="false"
       simplify_just_coalesce="false"
       step="1" />
    <inkscape:path-effect
       effect="powerstroke"
       id="path-effect131"
       is_visible="true"
       lpeversion="1"
       offset_points="1.9940581,0.075169555"
       not_jump="true"
       sort_points="true"
       interpolator_type="CentripetalCatmullRom"
       interpolator_beta="0.75"
       start_linecap_type="round"
       linejoin_type="spiro"
       miter_limit="4"
       scale_width="1"
       end_linecap_type="round" />
    <inkscape:path-effect
       effect="simplify"
       id="path-effect129"
       is_visible="true"
       lpeversion="1"
       steps="1"
       threshold="0.0028332064"
       smooth_angles="0"
       helper_size="0"
       simplify_individual_paths="false"
       simplify_just_coalesce="false"
       step="1" />
  </defs>
  <sodipodi:namedview
     id="base"
     pagecolor="#ffffff"
     bordercolor="#666666"
     borderopacity="1.0"
     inkscape:pageopacity="0.0"
     inkscape:pageshadow="2"
     inkscape:zoom="7.919596"
     inkscape:cx="-5.3033008"
     inkscape:cy="20.834396"
     inkscape:document-units="mm"
     inkscape:current-layer="layer1"
     showgrid="false"
     fit-margin-top="0"
     fit-margin-left="0"
     fit-margin-right="0"
     fit-margin-bottom="0"
     inkscape:window-width="1920"
     inkscape:window-height="974"
     inkscape:window-x="-11"
     inkscape:window-y="2869"
     inkscape:window-maximized="1"
     showguides="true"
     inkscape:guide-bbox="true"
     inkscape:snap-bbox="true"
     inkscape:bbox-nodes="true"
     inkscape:snap-nodes="false"
     inkscape:snap-others="false"
     inkscape:snap-page="true"
     inkscape:snap-grids="false"
     inkscape:snap-to-guides="false"
     inkscape:snap-global="false"
     inkscape:pagecheckerboard="0"
     inkscape:showpageshadow="2"
     inkscape:deskcolor="#d1d1d1">
    <sodipodi:guide
       position="-6.1806075,9.4988692"
       orientation="0,1"
       id="guide816"
       inkscape:locked="false" />
    <sodipodi:guide
       position="-4.4101636,10.646923"
       orientation="0,1"
       id="guide818"
       inkscape:locked="false" />
    <sodipodi:guide
       position="2.7595724,11.09577"
       orientation="1,0"
       id="guide820"
       inkscape:locked="false" />
    <sodipodi:guide
       position="3.6572659,10.942217"
       orientation="1,0"
       id="guide822"
       inkscape:locked="false" />
    <sodipodi:guide
       position="-0.051625511,9.7492299"
       orientation="1,0"
       id="guide1853"
       inkscape:locked="false" />
    <sodipodi:guide
       position="-2.3720169,3.0175835"
       orientation="0,1"
       id="guide1855"
       inkscape:locked="false" />
  </sodipodi:namedview>
  <metadata
     id="metadata1678">
    <rdf:RDF>
      <cc:Work
         rdf:about="">
        <dc:format>image/svg+xml</dc:format>
        <dc:type
           rdf:resource="http://purl.org/dc/dcmitype/StillImage" />
      </cc:Work>
    </rdf:RDF>
  </metadata>
  <g
     inkscape:label="Layer 1"
     inkscape:groupmode="layer"
     id="layer1"
     transform="translate(17.028496,-147.22856)">
    <path
       d="m -15.440622,151.03315 c 0.168099,0.37156 0.266908,0.65416 0.487024,1.25467 0.1328,0.3623 0.306743,0.82684 0.536865,1.25798 0.0045,0.008 0.009,0.0168 0.01481,0.0243 0.0058,0.008 0.01273,0.0143 0.02076,0.0193 0.008,0.005 0.01706,0.009 0.02636,0.0105 0.0093,0.002 0.01884,0.003 0.02833,0.003 0.06683,0.003 0.136283,-0.0164 0.194192,-0.0593 0.02675,-0.0198 0.05125,-0.0448 0.07099,-0.0748 0.01904,-0.0289 0.03364,-0.0625 0.0411,-0.0997 0.02219,-0.10127 0.01906,-0.2028 0.0068,-0.30076 -0.003,-0.0243 -0.0066,-0.0483 -0.01051,-0.072 -0.01079,-0.0659 -0.0241,-0.13051 -0.03488,-0.19642 -0.0083,-0.0485 -0.0189,-0.10352 -0.02547,-0.15253 -0.0061,-0.0456 -0.0096,-0.091 -0.0065,-0.1352 4.63e-4,-0.007 7.73e-4,-0.0133 2.2e-5,-0.0199 -7.51e-4,-0.007 -0.0026,-0.013 -0.0045,-0.0194 -0.0179,-0.0585 -0.0243,-0.12329 -0.02091,-0.19548 0.0032,-0.0685 0.01501,-0.13965 0.03134,-0.21473 8.82e-4,-0.003 0.003,-0.0105 0.0055,-0.0195 0.0025,-0.009 0.0051,-0.0176 0.008,-0.0263 0.006,-0.0182 0.01196,-0.0321 0.01716,-0.0408 0.0022,-0.004 0.0037,-0.005 0.0022,-0.004 -0.0015,0.001 -0.0064,0.006 -0.01638,0.0101 -0.0051,0.002 -0.01087,0.003 -0.01721,0.004 -0.0063,5.7e-4 -0.01221,1.6e-4 -0.01734,-8.5e-4 -0.01,-0.002 -0.0145,-0.006 -0.01362,-0.005 l -0.02121,-0.0206 c 0.02034,0.0261 0.03591,0.0578 0.04725,0.0951 0.01123,0.0369 0.01784,0.0778 0.02127,0.12133 0.02712,0.20071 0.07468,0.38895 0.128058,0.57267 0.05334,0.18358 0.112517,0.36305 0.163414,0.54092 0.0012,0.004 0.0027,0.008 0.0044,0.0126 0.05424,0.12765 0.104004,0.26765 0.169031,0.40425 0.03275,0.0688 0.06957,0.13695 0.11313,0.20189 0.04398,0.0656 0.09479,0.12779 0.155195,0.1842 0.01305,0.0134 0.03177,0.0306 0.05266,0.0462 0.02108,0.0157 0.04547,0.0307 0.07301,0.0417 0.02821,0.0113 0.06002,0.0186 0.09453,0.0182 0.03198,-4.1e-4 0.06343,-0.007 0.09356,-0.0209 0.05914,-0.018 0.111353,-0.0451 0.157424,-0.0776 0.04919,-0.0347 0.09131,-0.0754 0.127648,-0.11789 0.07435,-0.0869 0.130321,-0.18805 0.173444,-0.27216 0.03738,-0.0732 0.06906,-0.14062 0.106379,-0.21366 0.03767,-0.0735 0.07323,-0.1362 0.112892,-0.19335 0.0029,-0.004 0.0056,-0.009 0.0079,-0.0133 0.290499,-0.58107 0.475222,-1.08012 0.634502,-1.42729 a 0.10831688,0.10831688 90 0 0 -0.1969,-0.0903 c -0.161722,0.3525 -0.347533,0.85198 -0.627982,1.41397 -0.04537,0.0662 -0.08457,0.13613 -0.123211,0.21154 -0.03502,0.0684 -0.0714,0.14539 -0.106425,0.21374 -0.04157,0.0811 -0.08813,0.16335 -0.145177,0.23 -0.02725,0.0318 -0.05636,0.0595 -0.08789,0.0817 -0.03067,0.0216 -0.064,0.0384 -0.101061,0.049 -0.0063,0.002 -0.01248,0.004 -0.01838,0.007 -0.0052,0.003 -0.0081,0.003 -0.0095,0.003 -0.002,3e-5 -0.0051,-2.3e-4 -0.0111,-0.003 -0.0061,-0.002 -0.01417,-0.007 -0.02407,-0.0143 -0.0097,-0.007 -0.0201,-0.0165 -0.03103,-0.0277 -0.04989,-0.0467 -0.09024,-0.0958 -0.126511,-0.14983 -0.03607,-0.0538 -0.06781,-0.11209 -0.09743,-0.17432 -0.05774,-0.1213 -0.10605,-0.25588 -0.162637,-0.38969 -0.05203,-0.1812 -0.110534,-0.35885 -0.161825,-0.53538 -0.05212,-0.17938 -0.09639,-0.35598 -0.120778,-0.53533 -0.0036,-0.0478 -0.01223,-0.10503 -0.02931,-0.16122 -0.0174,-0.0572 -0.04393,-0.11433 -0.08368,-0.16531 -0.0061,-0.008 -0.01323,-0.0148 -0.02121,-0.0206 -0.02021,-0.0149 -0.04461,-0.0276 -0.07302,-0.0332 -0.01433,-0.003 -0.02906,-0.004 -0.04387,-0.002 -0.01485,0.001 -0.02883,0.005 -0.04172,0.01 -0.02569,0.01 -0.04505,0.0251 -0.05969,0.04 -0.01442,0.0147 -0.02552,0.0305 -0.034,0.0448 -0.01688,0.0284 -0.02859,0.0592 -0.03659,0.0834 -0.0042,0.0128 -0.0078,0.0249 -0.01081,0.0354 -0.0029,0.0103 -0.0056,0.0204 -0.0074,0.027 -0.01894,0.0864 -0.03338,0.17062 -0.0374,0.2561 -0.004,0.0841 0.0023,0.16807 0.02457,0.24973 -0.0023,0.0575 0.0026,0.11181 0.009,0.15913 0.0073,0.0541 0.01958,0.11886 0.02651,0.15944 0.01041,0.0638 0.02422,0.1311 0.03476,0.19571 0.0036,0.0218 0.0067,0.043 0.0093,0.0639 0.01061,0.0849 0.01145,0.15942 -0.0039,0.22946 -0.0021,0.0102 -0.0053,0.0179 -0.01,0.025 -0.0049,0.007 -0.01136,0.0142 -0.01903,0.0199 -7.88e-4,5.8e-4 -0.0016,0.001 -0.0024,0.002 -0.203648,-0.39566 -0.361284,-0.8162 -0.48658,-1.15803 -0.219165,-0.59792 -0.320946,-0.88899 -0.493048,-1.26941 a 0.10831688,0.10831688 90 0 0 -0.197376,0.0893 z"
       id="path-1"
       inkscape:path-effect="#path-effect379;#path-effect381"
       inkscape:original-d="m -15.341934,150.9885 c 0.372089,0.82244 0.594413,1.70758 1.020758,2.5063 0.403605,-0.01 0.09457,-0.70673 0.122428,-0.99015 -0.08893,-0.22658 0.06901,-0.98741 0.226642,-0.43181 0.0389,0.40832 0.186073,0.79439 0.298659,1.18762 0.123332,0.29412 0.239015,0.67359 0.52127,0.83298 0.415206,-0.0345 0.503996,-0.55323 0.713455,-0.84054 0.235032,-0.46822 0.420114,-0.95914 0.638435,-1.435"
       style="fill:#000000;fill-rule:nonzero;stroke:none;stroke-width:1.3587" />
  </g>
</svg>
