<?xml version="1.0" encoding="UTF-8" standalone="no"?>
<!-- Created with Inkscape (http://www.inkscape.org/) -->

<svg
   width="6mm"
   height="10mm"
   viewBox="0 0 6.0000001 9.9999994"
   version="1.1"
   id="svg1681"
   inkscape:version="1.2.1 (9c6d41e410, 2022-07-14)"
   sodipodi:docname="lower w 1.1.svg"
   inkscape:export-filename="..\..\..\..\Downloads\lower a diff canvas resize 3.0.png"
   inkscape:export-xdpi="96"
   inkscape:export-ydpi="96"
   xmlns:inkscape="http://www.inkscape.org/namespaces/inkscape"
   xmlns:sodipodi="http://sodipodi.sourceforge.net/DTD/sodipodi-0.dtd"
   xmlns="http://www.w3.org/2000/svg"
   xmlns:svg="http://www.w3.org/2000/svg"
   xmlns:rdf="http://www.w3.org/1999/02/22-rdf-syntax-ns#"
   xmlns:cc="http://creativecommons.org/ns#"
   xmlns:dc="http://purl.org/dc/elements/1.1/">
  <defs
     id="defs1675">
    <inkscape:path-effect
       effect="powerstroke"
       id="path-effect1424"
       is_visible="true"
       lpeversion="1"
       offset_points="3.2337937,0.081070904 | 7.9295992,0.091460573"
       not_jump="true"
       sort_points="true"
       interpolator_type="CentripetalCatmullRom"
       interpolator_beta="0.75"
       start_linecap_type="round"
       linejoin_type="spiro"
       miter_limit="4"
       scale_width="1"
       end_linecap_type="round" />
    <inkscape:path-effect
       effect="simplify"
       id="path-effect1422"
       is_visible="true"
       lpeversion="1"
       steps="1"
       threshold="0.0035951417"
       smooth_angles="0"
       helper_size="0"
       simplify_individual_paths="false"
       simplify_just_coalesce="false"
       step="1" />
    <inkscape:path-effect
       effect="powerstroke"
       id="path-effect502"
       is_visible="true"
       lpeversion="1"
       offset_points="3.0091841,0.21607495 | 7.3602657,0.17554228 | 9.4159651,0.20236537"
       not_jump="true"
       sort_points="true"
       interpolator_type="CentripetalCatmullRom"
       interpolator_beta="0.75"
       start_linecap_type="round"
       linejoin_type="spiro"
       miter_limit="4"
       scale_width="1"
       end_linecap_type="round" />
    <inkscape:path-effect
       effect="simplify"
       id="path-effect500"
       is_visible="true"
       lpeversion="1"
       steps="1"
       threshold="0.0035951417"
       smooth_angles="0"
       helper_size="0"
       simplify_individual_paths="false"
       simplify_just_coalesce="false"
       step="1" />
    <inkscape:path-effect
       effect="powerstroke"
       id="path-effect241"
       is_visible="true"
       lpeversion="1"
       offset_points="2.6879454,0.34086734"
       not_jump="true"
       sort_points="true"
       interpolator_type="CentripetalCatmullRom"
       interpolator_beta="0.75"
       start_linecap_type="round"
       linejoin_type="spiro"
       miter_limit="4"
       scale_width="1"
       end_linecap_type="round" />
    <inkscape:path-effect
       effect="simplify"
       id="path-effect239"
       is_visible="true"
       lpeversion="1"
       steps="1"
       threshold="0.0028332064"
       smooth_angles="0"
       helper_size="0"
       simplify_individual_paths="false"
       simplify_just_coalesce="false"
       step="1" />
    <inkscape:path-effect
       effect="powerstroke"
       id="path-effect234"
       is_visible="true"
       lpeversion="1"
       offset_points="2.13563,0.075169555"
       not_jump="true"
       sort_points="true"
       interpolator_type="CentripetalCatmullRom"
       interpolator_beta="0.75"
       start_linecap_type="round"
       linejoin_type="spiro"
       miter_limit="4"
       scale_width="1"
       end_linecap_type="round" />
    <inkscape:path-effect
       effect="simplify"
       id="path-effect232"
       is_visible="true"
       lpeversion="1"
       steps="1"
       threshold="0.0028332064"
       smooth_angles="0"
       helper_size="0"
       simplify_individual_paths="false"
       simplify_just_coalesce="false"
       step="1" />
    <inkscape:path-effect
       effect="powerstroke"
       id="path-effect227"
       is_visible="true"
       lpeversion="1"
       offset_points="2.1868266,0.075169555"
       not_jump="true"
       sort_points="true"
       interpolator_type="CentripetalCatmullRom"
       interpolator_beta="0.75"
       start_linecap_type="round"
       linejoin_type="spiro"
       miter_limit="4"
       scale_width="1"
       end_linecap_type="round" />
    <inkscape:path-effect
       effect="simplify"
       id="path-effect225"
       is_visible="true"
       lpeversion="1"
       steps="1"
       threshold="0.0028332064"
       smooth_angles="0"
       helper_size="0"
       simplify_individual_paths="false"
       simplify_just_coalesce="false"
       step="1" />
    <inkscape:path-effect
       effect="powerstroke"
       id="path-effect166"
       is_visible="true"
       lpeversion="1"
       offset_points="1.9637935,0.075169555"
       not_jump="true"
       sort_points="true"
       interpolator_type="CentripetalCatmullRom"
       interpolator_beta="0.75"
       start_linecap_type="round"
       linejoin_type="spiro"
       miter_limit="4"
       scale_width="1"
       end_linecap_type="round" />
    <inkscape:path-effect
       effect="simplify"
       id="path-effect164"
       is_visible="true"
       lpeversion="1"
       steps="1"
       threshold="0.0028332064"
       smooth_angles="0"
       helper_size="0"
       simplify_individual_paths="false"
       simplify_just_coalesce="false"
       step="1" />
    <inkscape:path-effect
       effect="powerstroke"
       id="path-effect159"
       is_visible="true"
       lpeversion="1"
       offset_points="2.2611036,0.075169555"
       not_jump="true"
       sort_points="true"
       interpolator_type="CentripetalCatmullRom"
       interpolator_beta="0.75"
       start_linecap_type="round"
       linejoin_type="spiro"
       miter_limit="4"
       scale_width="1"
       end_linecap_type="round" />
    <inkscape:path-effect
       effect="simplify"
       id="path-effect157"
       is_visible="true"
       lpeversion="1"
       steps="1"
       threshold="0.0028332064"
       smooth_angles="0"
       helper_size="0"
       simplify_individual_paths="false"
       simplify_just_coalesce="false"
       step="1" />
    <inkscape:path-effect
       effect="powerstroke"
       id="path-effect152"
       is_visible="true"
       lpeversion="1"
       offset_points="2.826981,0.075169555"
       not_jump="true"
       sort_points="true"
       interpolator_type="CentripetalCatmullRom"
       interpolator_beta="0.75"
       start_linecap_type="round"
       linejoin_type="spiro"
       miter_limit="4"
       scale_width="1"
       end_linecap_type="round" />
    <inkscape:path-effect
       effect="simplify"
       id="path-effect150"
       is_visible="true"
       lpeversion="1"
       steps="1"
       threshold="0.0028332064"
       smooth_angles="0"
       helper_size="0"
       simplify_individual_paths="false"
       simplify_just_coalesce="false"
       step="1" />
    <inkscape:path-effect
       effect="powerstroke"
       id="path-effect145"
       is_visible="true"
       lpeversion="1"
       offset_points="3.8374447,0.075169555"
       not_jump="true"
       sort_points="true"
       interpolator_type="CentripetalCatmullRom"
       interpolator_beta="0.75"
       start_linecap_type="round"
       linejoin_type="spiro"
       miter_limit="4"
       scale_width="1"
       end_linecap_type="round" />
    <inkscape:path-effect
       effect="simplify"
       id="path-effect143"
       is_visible="true"
       lpeversion="1"
       steps="1"
       threshold="0.0028332064"
       smooth_angles="0"
       helper_size="0"
       simplify_individual_paths="false"
       simplify_just_coalesce="false"
       step="1" />
    <inkscape:path-effect
       effect="powerstroke"
       id="path-effect138"
       is_visible="true"
       lpeversion="1"
       offset_points="2.6880907,0.075169555"
       not_jump="true"
       sort_points="true"
       interpolator_type="CentripetalCatmullRom"
       interpolator_beta="0.75"
       start_linecap_type="round"
       linejoin_type="spiro"
       miter_limit="4"
       scale_width="1"
       end_linecap_type="round" />
    <inkscape:path-effect
       effect="simplify"
       id="path-effect136"
       is_visible="true"
       lpeversion="1"
       steps="1"
       threshold="0.0028332064"
       smooth_angles="0"
       helper_size="0"
       simplify_individual_paths="false"
       simplify_just_coalesce="false"
       step="1" />
    <inkscape:path-effect
       effect="powerstroke"
       id="path-effect131"
       is_visible="true"
       lpeversion="1"
       offset_points="1.9940581,0.075169555"
       not_jump="true"
       sort_points="true"
       interpolator_type="CentripetalCatmullRom"
       interpolator_beta="0.75"
       start_linecap_type="round"
       linejoin_type="spiro"
       miter_limit="4"
       scale_width="1"
       end_linecap_type="round" />
    <inkscape:path-effect
       effect="simplify"
       id="path-effect129"
       is_visible="true"
       lpeversion="1"
       steps="1"
       threshold="0.0028332064"
       smooth_angles="0"
       helper_size="0"
       simplify_individual_paths="false"
       simplify_just_coalesce="false"
       step="1" />
  </defs>
  <sodipodi:namedview
     id="base"
     pagecolor="#ffffff"
     bordercolor="#666666"
     borderopacity="1.0"
     inkscape:pageopacity="0.0"
     inkscape:pageshadow="2"
     inkscape:zoom="7.919596"
     inkscape:cx="-5.3033008"
     inkscape:cy="20.834396"
     inkscape:document-units="mm"
     inkscape:current-layer="layer1"
     showgrid="false"
     fit-margin-top="0"
     fit-margin-left="0"
     fit-margin-right="0"
     fit-margin-bottom="0"
     inkscape:window-width="1280"
     inkscape:window-height="649"
     inkscape:window-x="-8"
     inkscape:window-y="1912"
     inkscape:window-maximized="1"
     showguides="true"
     inkscape:guide-bbox="true"
     inkscape:snap-bbox="true"
     inkscape:bbox-nodes="true"
     inkscape:snap-nodes="false"
     inkscape:snap-others="false"
     inkscape:snap-page="true"
     inkscape:snap-grids="false"
     inkscape:snap-to-guides="false"
     inkscape:snap-global="false"
     inkscape:pagecheckerboard="0"
     inkscape:showpageshadow="2"
     inkscape:deskcolor="#d1d1d1">
    <sodipodi:guide
       position="-6.1806075,9.4988692"
       orientation="0,1"
       id="guide816"
       inkscape:locked="false" />
    <sodipodi:guide
       position="-4.4101636,10.646923"
       orientation="0,1"
       id="guide818"
       inkscape:locked="false" />
    <sodipodi:guide
       position="2.7595724,11.09577"
       orientation="1,0"
       id="guide820"
       inkscape:locked="false" />
    <sodipodi:guide
       position="3.6572659,10.942217"
       orientation="1,0"
       id="guide822"
       inkscape:locked="false" />
    <sodipodi:guide
       position="-0.051625511,9.7492299"
       orientation="1,0"
       id="guide1853"
       inkscape:locked="false" />
    <sodipodi:guide
       position="-2.3720169,3.0175835"
       orientation="0,1"
       id="guide1855"
       inkscape:locked="false" />
  </sodipodi:namedview>
  <metadata
     id="metadata1678">
    <rdf:RDF>
      <cc:Work
         rdf:about="">
        <dc:format>image/svg+xml</dc:format>
        <dc:type
           rdf:resource="http://purl.org/dc/dcmitype/StillImage" />
      </cc:Work>
    </rdf:RDF>
  </metadata>
  <g
     inkscape:label="Layer 1"
     inkscape:groupmode="layer"
     id="layer1"
     transform="translate(17.028496,-147.22856)">
    <path
       d="m -15.408834,151.40312 c 0.024,0.14972 0.07228,0.45769 0.145456,0.73247 0.05743,0.21565 0.142238,0.46419 0.282537,0.70296 0.08792,0.14403 0.169078,0.31861 0.269054,0.49494 0.172028,0.3146 0.354305,0.61774 0.568701,0.89761 0.0047,0.006 0.0095,0.0123 0.01526,0.0175 0.0057,0.005 0.01238,0.01 0.01966,0.0122 0.0073,0.003 0.01512,0.004 0.02287,0.004 0.0078,-2.5e-4 0.01541,-0.002 0.02301,-0.003 0.0308,-0.006 0.05914,-0.0178 0.08441,-0.0325 0.02906,-0.0169 0.0549,-0.0388 0.07651,-0.0642 0.03973,-0.0468 0.06623,-0.10712 0.0705,-0.17292 0.0056,-0.0627 0.0019,-0.12562 -0.0063,-0.18629 -0.008,-0.0598 -0.02047,-0.11832 -0.03267,-0.17441 -0.01222,-0.0562 -0.0241,-0.10952 -0.03238,-0.16274 -0.0081,-0.0523 -0.0125,-0.10294 -0.01015,-0.15294 0.0033,-0.0434 -0.0011,-0.0869 -0.0062,-0.12531 -0.0052,-0.0398 -0.01051,-0.0713 -0.0125,-0.10393 -0.02238,-0.18517 -0.0419,-0.36921 -0.04813,-0.55246 -0.0061,-0.17973 4.76e-4,-0.35997 0.03038,-0.53819 l -0.07179,0.0736 c 0.01009,-0.002 0.01969,-0.001 0.02907,0.001 0.0095,0.002 0.0195,0.007 0.02956,0.0143 0.01,0.007 0.01961,0.0165 0.02805,0.0277 0.006,0.008 0.01119,0.0165 0.0154,0.0254 0.0016,0.003 0.0031,0.007 0.0044,0.0105 0.03929,0.0906 0.05556,0.18075 0.0788,0.29845 0.0103,0.0521 0.02211,0.10928 0.0385,0.16575 0.01602,0.0552 0.03714,0.11254 0.06777,0.16871 0.002,0.004 0.0043,0.007 0.0068,0.0106 0.0057,0.008 0.01106,0.0171 0.01623,0.0286 0.0051,0.0114 0.0098,0.0243 0.01473,0.0397 0.008,0.0249 0.0204,0.0708 0.03503,0.10709 0.05277,0.15818 0.11146,0.3297 0.183879,0.4951 0.07209,0.16464 0.158873,0.32592 0.272358,0.47353 0.0056,0.007 0.01156,0.0145 0.01905,0.0198 0.0075,0.005 0.0162,0.009 0.02492,0.0115 0.06393,0.0214 0.134534,0.0255 0.20081,0.0101 0.03363,-0.008 0.06657,-0.0207 0.09703,-0.0392 0.03086,-0.0188 0.05883,-0.0432 0.08207,-0.0732 0.03072,-0.0386 0.05563,-0.0804 0.07588,-0.12262 0.02053,-0.0428 0.03646,-0.0865 0.04957,-0.12899 0.02558,-0.083 0.04482,-0.17869 0.06169,-0.24864 0.0244,-0.11506 0.04807,-0.20527 0.08177,-0.28859 0.0018,-0.004 0.0032,-0.009 0.0043,-0.0134 0.04399,-0.18609 0.08205,-0.33718 0.133903,-0.48489 0.06574,-0.18727 0.139038,-0.32339 0.218154,-0.43191 a 0.09146057,0.09146057 90 0 0 -0.147808,-0.10776 c -0.09095,0.12475 -0.172111,0.27715 -0.243078,0.47898 -0.05473,0.15564 -0.09442,0.31292 -0.138013,0.49657 -0.0384,0.096 -0.06429,0.19633 -0.08864,0.31018 -0.01906,0.0784 -0.0349,0.15922 -0.05837,0.23501 -0.01129,0.0365 -0.02416,0.0711 -0.03975,0.10357 -0.01531,0.0318 -0.03319,0.0614 -0.05474,0.0884 -0.0097,0.0124 -0.02042,0.0219 -0.03288,0.0294 -0.01242,0.008 -0.02681,0.0133 -0.04264,0.017 -0.02385,0.005 -0.04993,0.006 -0.07523,0.001 -0.09284,-0.12577 -0.166947,-0.26427 -0.230865,-0.41025 -0.06872,-0.15696 -0.125114,-0.32134 -0.179911,-0.48492 -0.01349,-0.0338 -0.01958,-0.0595 -0.03258,-0.0998 -0.006,-0.0187 -0.01318,-0.0388 -0.02234,-0.059 -0.0085,-0.0188 -0.01892,-0.038 -0.03205,-0.0566 -0.02119,-0.0398 -0.03709,-0.0822 -0.05013,-0.12687 -0.01404,-0.0481 -0.02466,-0.0984 -0.03498,-0.15009 -0.02219,-0.11118 -0.04218,-0.22335 -0.0898,-0.33195 -0.0016,-0.004 -0.0051,-0.0125 -0.0089,-0.0203 -0.0098,-0.0203 -0.02179,-0.0396 -0.03554,-0.0574 -0.01927,-0.0249 -0.04241,-0.0474 -0.06882,-0.0656 -0.02671,-0.0185 -0.05713,-0.0329 -0.09041,-0.0409 -0.03381,-0.008 -0.06971,-0.009 -0.106144,-0.002 -0.0092,0.002 -0.01847,0.004 -0.02719,0.007 -0.0087,0.003 -0.01685,0.009 -0.02342,0.0153 -0.0066,0.007 -0.0115,0.0149 -0.01477,0.0237 -0.0033,0.009 -0.0049,0.0181 -0.0064,0.0274 -0.03174,0.19344 -0.03766,0.38626 -0.03046,0.57406 0.0073,0.19117 0.02848,0.3813 0.05147,0.56339 0.0031,0.0363 0.01108,0.0793 0.01604,0.11096 0.0056,0.0356 0.0088,0.0646 0.0074,0.0918 -0.0026,0.067 0.0037,0.12951 0.01335,0.18865 0.0097,0.0592 0.02328,0.11798 0.03552,0.1723 0.01267,0.0562 0.02412,0.10864 0.03149,0.16085 0.0074,0.0523 0.01034,0.10243 0.0063,0.15182 -0.0015,0.0305 -0.01263,0.058 -0.03081,0.0799 -0.0098,0.0118 -0.02131,0.0217 -0.03393,0.0292 -0.01094,0.007 -0.02293,0.0114 -0.03573,0.0141 l 0.0808,0.0299 c -0.207625,-0.27018 -0.385598,-0.56528 -0.556347,-0.87751 -0.09579,-0.16895 -0.178081,-0.34652 -0.271186,-0.4995 -0.129383,-0.22047 -0.209419,-0.45379 -0.264652,-0.66168 -0.07048,-0.2653 -0.117481,-0.56512 -0.141753,-0.71653 a 0.0810709,0.0810709 90 0 0 -0.160098,0.0257 z"
       id="path-1"
       inkscape:path-effect="#path-effect1422;#path-effect1424"
       inkscape:original-d="m -15.328785,151.39029 c 0.08235,0.5128 0.176592,1.03704 0.462803,1.48092 0.235466,0.45197 0.475922,0.90512 0.78704,1.31068 0.350104,-0.096 0.04041,-0.623 0.08502,-0.89688 -0.05501,-0.43151 -0.115354,-0.87125 -0.04357,-1.30462 0.321583,-0.0387 0.23738,0.57208 0.412474,0.78924 0.130168,0.38357 0.248035,0.78352 0.498397,1.10947 0.428389,0.12243 0.40383,-0.55681 0.530781,-0.82215 0.07972,-0.33672 0.164058,-0.68089 0.371118,-0.96535"
       style="fill:#000000;fill-rule:nonzero;stroke:none;stroke-width:1.07222" />
  </g>
</svg>
