<?xml version="1.0" encoding="UTF-8" standalone="no"?>
<!-- Created with Inkscape (http://www.inkscape.org/) -->

<svg
   width="6mm"
   height="10mm"
   viewBox="0 0 6.0000001 9.9999994"
   version="1.1"
   id="svg1681"
   inkscape:version="1.2.1 (9c6d41e410, 2022-07-14)"
   sodipodi:docname="lower w 1.5.svg"
   inkscape:export-filename="..\..\..\..\Downloads\lower a diff canvas resize 3.0.png"
   inkscape:export-xdpi="96"
   inkscape:export-ydpi="96"
   xmlns:inkscape="http://www.inkscape.org/namespaces/inkscape"
   xmlns:sodipodi="http://sodipodi.sourceforge.net/DTD/sodipodi-0.dtd"
   xmlns="http://www.w3.org/2000/svg"
   xmlns:svg="http://www.w3.org/2000/svg"
   xmlns:rdf="http://www.w3.org/1999/02/22-rdf-syntax-ns#"
   xmlns:cc="http://creativecommons.org/ns#"
   xmlns:dc="http://purl.org/dc/elements/1.1/">
  <defs
     id="defs1675">
    <inkscape:path-effect
       effect="powerstroke"
       id="path-effect3124"
       is_visible="true"
       lpeversion="1"
       offset_points="3.0904752,0.11089802 | 10.407203,0.14306843"
       not_jump="true"
       sort_points="true"
       interpolator_type="CentripetalCatmullRom"
       interpolator_beta="0.75"
       start_linecap_type="round"
       linejoin_type="spiro"
       miter_limit="4"
       scale_width="1"
       end_linecap_type="round" />
    <inkscape:path-effect
       effect="simplify"
       id="path-effect3122"
       is_visible="true"
       lpeversion="1"
       steps="1"
       threshold="0.0035951417"
       smooth_angles="0"
       helper_size="0"
       simplify_individual_paths="false"
       simplify_just_coalesce="false"
       step="1" />
    <inkscape:path-effect
       effect="powerstroke"
       id="path-effect502"
       is_visible="true"
       lpeversion="1"
       offset_points="3.0091841,0.21607495 | 7.3602657,0.17554228 | 9.4159651,0.20236537"
       not_jump="true"
       sort_points="true"
       interpolator_type="CentripetalCatmullRom"
       interpolator_beta="0.75"
       start_linecap_type="round"
       linejoin_type="spiro"
       miter_limit="4"
       scale_width="1"
       end_linecap_type="round" />
    <inkscape:path-effect
       effect="simplify"
       id="path-effect500"
       is_visible="true"
       lpeversion="1"
       steps="1"
       threshold="0.0035951417"
       smooth_angles="0"
       helper_size="0"
       simplify_individual_paths="false"
       simplify_just_coalesce="false"
       step="1" />
    <inkscape:path-effect
       effect="powerstroke"
       id="path-effect241"
       is_visible="true"
       lpeversion="1"
       offset_points="2.6879454,0.34086734"
       not_jump="true"
       sort_points="true"
       interpolator_type="CentripetalCatmullRom"
       interpolator_beta="0.75"
       start_linecap_type="round"
       linejoin_type="spiro"
       miter_limit="4"
       scale_width="1"
       end_linecap_type="round" />
    <inkscape:path-effect
       effect="simplify"
       id="path-effect239"
       is_visible="true"
       lpeversion="1"
       steps="1"
       threshold="0.0028332064"
       smooth_angles="0"
       helper_size="0"
       simplify_individual_paths="false"
       simplify_just_coalesce="false"
       step="1" />
    <inkscape:path-effect
       effect="powerstroke"
       id="path-effect234"
       is_visible="true"
       lpeversion="1"
       offset_points="2.13563,0.075169555"
       not_jump="true"
       sort_points="true"
       interpolator_type="CentripetalCatmullRom"
       interpolator_beta="0.75"
       start_linecap_type="round"
       linejoin_type="spiro"
       miter_limit="4"
       scale_width="1"
       end_linecap_type="round" />
    <inkscape:path-effect
       effect="simplify"
       id="path-effect232"
       is_visible="true"
       lpeversion="1"
       steps="1"
       threshold="0.0028332064"
       smooth_angles="0"
       helper_size="0"
       simplify_individual_paths="false"
       simplify_just_coalesce="false"
       step="1" />
    <inkscape:path-effect
       effect="powerstroke"
       id="path-effect227"
       is_visible="true"
       lpeversion="1"
       offset_points="2.1868266,0.075169555"
       not_jump="true"
       sort_points="true"
       interpolator_type="CentripetalCatmullRom"
       interpolator_beta="0.75"
       start_linecap_type="round"
       linejoin_type="spiro"
       miter_limit="4"
       scale_width="1"
       end_linecap_type="round" />
    <inkscape:path-effect
       effect="simplify"
       id="path-effect225"
       is_visible="true"
       lpeversion="1"
       steps="1"
       threshold="0.0028332064"
       smooth_angles="0"
       helper_size="0"
       simplify_individual_paths="false"
       simplify_just_coalesce="false"
       step="1" />
    <inkscape:path-effect
       effect="powerstroke"
       id="path-effect166"
       is_visible="true"
       lpeversion="1"
       offset_points="1.9637935,0.075169555"
       not_jump="true"
       sort_points="true"
       interpolator_type="CentripetalCatmullRom"
       interpolator_beta="0.75"
       start_linecap_type="round"
       linejoin_type="spiro"
       miter_limit="4"
       scale_width="1"
       end_linecap_type="round" />
    <inkscape:path-effect
       effect="simplify"
       id="path-effect164"
       is_visible="true"
       lpeversion="1"
       steps="1"
       threshold="0.0028332064"
       smooth_angles="0"
       helper_size="0"
       simplify_individual_paths="false"
       simplify_just_coalesce="false"
       step="1" />
    <inkscape:path-effect
       effect="powerstroke"
       id="path-effect159"
       is_visible="true"
       lpeversion="1"
       offset_points="2.2611036,0.075169555"
       not_jump="true"
       sort_points="true"
       interpolator_type="CentripetalCatmullRom"
       interpolator_beta="0.75"
       start_linecap_type="round"
       linejoin_type="spiro"
       miter_limit="4"
       scale_width="1"
       end_linecap_type="round" />
    <inkscape:path-effect
       effect="simplify"
       id="path-effect157"
       is_visible="true"
       lpeversion="1"
       steps="1"
       threshold="0.0028332064"
       smooth_angles="0"
       helper_size="0"
       simplify_individual_paths="false"
       simplify_just_coalesce="false"
       step="1" />
    <inkscape:path-effect
       effect="powerstroke"
       id="path-effect152"
       is_visible="true"
       lpeversion="1"
       offset_points="2.826981,0.075169555"
       not_jump="true"
       sort_points="true"
       interpolator_type="CentripetalCatmullRom"
       interpolator_beta="0.75"
       start_linecap_type="round"
       linejoin_type="spiro"
       miter_limit="4"
       scale_width="1"
       end_linecap_type="round" />
    <inkscape:path-effect
       effect="simplify"
       id="path-effect150"
       is_visible="true"
       lpeversion="1"
       steps="1"
       threshold="0.0028332064"
       smooth_angles="0"
       helper_size="0"
       simplify_individual_paths="false"
       simplify_just_coalesce="false"
       step="1" />
    <inkscape:path-effect
       effect="powerstroke"
       id="path-effect145"
       is_visible="true"
       lpeversion="1"
       offset_points="3.8374447,0.075169555"
       not_jump="true"
       sort_points="true"
       interpolator_type="CentripetalCatmullRom"
       interpolator_beta="0.75"
       start_linecap_type="round"
       linejoin_type="spiro"
       miter_limit="4"
       scale_width="1"
       end_linecap_type="round" />
    <inkscape:path-effect
       effect="simplify"
       id="path-effect143"
       is_visible="true"
       lpeversion="1"
       steps="1"
       threshold="0.0028332064"
       smooth_angles="0"
       helper_size="0"
       simplify_individual_paths="false"
       simplify_just_coalesce="false"
       step="1" />
    <inkscape:path-effect
       effect="powerstroke"
       id="path-effect138"
       is_visible="true"
       lpeversion="1"
       offset_points="2.6880907,0.075169555"
       not_jump="true"
       sort_points="true"
       interpolator_type="CentripetalCatmullRom"
       interpolator_beta="0.75"
       start_linecap_type="round"
       linejoin_type="spiro"
       miter_limit="4"
       scale_width="1"
       end_linecap_type="round" />
    <inkscape:path-effect
       effect="simplify"
       id="path-effect136"
       is_visible="true"
       lpeversion="1"
       steps="1"
       threshold="0.0028332064"
       smooth_angles="0"
       helper_size="0"
       simplify_individual_paths="false"
       simplify_just_coalesce="false"
       step="1" />
    <inkscape:path-effect
       effect="powerstroke"
       id="path-effect131"
       is_visible="true"
       lpeversion="1"
       offset_points="1.9940581,0.075169555"
       not_jump="true"
       sort_points="true"
       interpolator_type="CentripetalCatmullRom"
       interpolator_beta="0.75"
       start_linecap_type="round"
       linejoin_type="spiro"
       miter_limit="4"
       scale_width="1"
       end_linecap_type="round" />
    <inkscape:path-effect
       effect="simplify"
       id="path-effect129"
       is_visible="true"
       lpeversion="1"
       steps="1"
       threshold="0.0028332064"
       smooth_angles="0"
       helper_size="0"
       simplify_individual_paths="false"
       simplify_just_coalesce="false"
       step="1" />
  </defs>
  <sodipodi:namedview
     id="base"
     pagecolor="#ffffff"
     bordercolor="#666666"
     borderopacity="1.0"
     inkscape:pageopacity="0.0"
     inkscape:pageshadow="2"
     inkscape:zoom="7.919596"
     inkscape:cx="-5.3033008"
     inkscape:cy="20.834396"
     inkscape:document-units="mm"
     inkscape:current-layer="layer1"
     showgrid="false"
     fit-margin-top="0"
     fit-margin-left="0"
     fit-margin-right="0"
     fit-margin-bottom="0"
     inkscape:window-width="1920"
     inkscape:window-height="974"
     inkscape:window-x="-11"
     inkscape:window-y="2869"
     inkscape:window-maximized="1"
     showguides="true"
     inkscape:guide-bbox="true"
     inkscape:snap-bbox="true"
     inkscape:bbox-nodes="true"
     inkscape:snap-nodes="false"
     inkscape:snap-others="false"
     inkscape:snap-page="true"
     inkscape:snap-grids="false"
     inkscape:snap-to-guides="false"
     inkscape:snap-global="false"
     inkscape:pagecheckerboard="0"
     inkscape:showpageshadow="2"
     inkscape:deskcolor="#d1d1d1">
    <sodipodi:guide
       position="-6.1806075,9.4988692"
       orientation="0,1"
       id="guide816"
       inkscape:locked="false" />
    <sodipodi:guide
       position="-4.4101636,10.646923"
       orientation="0,1"
       id="guide818"
       inkscape:locked="false" />
    <sodipodi:guide
       position="2.7595724,11.09577"
       orientation="1,0"
       id="guide820"
       inkscape:locked="false" />
    <sodipodi:guide
       position="3.6572659,10.942217"
       orientation="1,0"
       id="guide822"
       inkscape:locked="false" />
    <sodipodi:guide
       position="-0.051625511,9.7492299"
       orientation="1,0"
       id="guide1853"
       inkscape:locked="false" />
    <sodipodi:guide
       position="-2.3720169,3.0175835"
       orientation="0,1"
       id="guide1855"
       inkscape:locked="false" />
  </sodipodi:namedview>
  <metadata
     id="metadata1678">
    <rdf:RDF>
      <cc:Work
         rdf:about="">
        <dc:format>image/svg+xml</dc:format>
        <dc:type
           rdf:resource="http://purl.org/dc/dcmitype/StillImage" />
      </cc:Work>
    </rdf:RDF>
  </metadata>
  <g
     inkscape:label="Layer 1"
     inkscape:groupmode="layer"
     id="layer1"
     transform="translate(17.028496,-147.22856)">
    <path
       d="m -15.442829,151.1804 c -0.05699,0.19752 -0.09863,0.45422 -0.08174,0.78262 0.01227,0.23863 0.05404,0.49157 0.124724,0.76553 0.05986,0.22488 0.136654,0.50222 0.25341,0.76164 0.05044,0.11835 0.111459,0.24622 0.189377,0.365 0.0773,0.11784 0.172154,0.22825 0.293226,0.31624 0.0054,0.004 0.01088,0.008 0.01689,0.0106 0.006,0.003 0.0124,0.005 0.01881,0.007 0.01726,0.005 0.03457,0.008 0.05183,0.0104 0.02992,0.004 0.06004,0.004 0.08996,6.3e-4 0.04475,-0.005 0.08831,-0.0177 0.129419,-0.0367 0.07618,-0.0352 0.145297,-0.0927 0.196512,-0.16361 0.05399,-0.0683 0.09199,-0.14772 0.123079,-0.2268 0.0295,-0.0751 0.05278,-0.14936 0.07927,-0.21598 0.176926,-0.52024 0.249839,-1.06384 0.286384,-1.62092 6.26e-4,-0.01 8.93e-4,-0.0192 -7.87e-4,-0.0286 -0.0017,-0.009 -0.0052,-0.0184 -0.0088,-0.0273 -0.01268,-0.0309 -0.03247,-0.0565 -0.05337,-0.0756 -0.01073,-0.01 -0.02298,-0.019 -0.03659,-0.0268 -0.01337,-0.008 -0.02989,-0.0151 -0.04905,-0.0195 -0.01899,-0.004 -0.04401,-0.007 -0.07162,1.1e-4 -0.01398,0.003 -0.02818,0.009 -0.04181,0.0173 -0.01367,0.008 -0.02567,0.0187 -0.03577,0.0306 -0.01002,0.0118 -0.01755,0.0243 -0.02311,0.0367 -0.0055,0.0123 -0.0091,0.0243 -0.01142,0.0356 -0.0037,0.0183 -0.0044,0.036 -0.0036,0.0521 -7.27e-4,0.0821 0.0095,0.16171 0.01857,0.23154 0.0098,0.0749 0.01815,0.13788 0.01871,0.2008 0.01581,0.23822 0.02271,0.47664 0.04753,0.71354 0.02568,0.245 0.07031,0.48653 0.161396,0.71943 0.01497,0.0387 0.03373,0.0937 0.05786,0.14289 0.0133,0.0271 0.02925,0.0549 0.04932,0.0819 0.02094,0.0281 0.04589,0.0546 0.07601,0.078 0.05263,0.0456 0.119731,0.0813 0.187633,0.10399 0.04461,0.0149 0.0902,0.0244 0.135348,0.029 0.02707,0.003 0.05445,0.004 0.08188,0.003 0.07311,-0.002 0.147626,-0.0182 0.217265,-0.0499 0.06948,-0.0317 0.13374,-0.0793 0.185097,-0.14426 0.08956,-0.12935 0.182067,-0.25739 0.253116,-0.40142 0.132335,-0.25753 0.218275,-0.52858 0.285206,-0.78311 0.07326,-0.27859 0.127155,-0.54499 0.187573,-0.78637 0.01814,-0.074 0.03266,-0.12956 0.04323,-0.16774 a 0.14306843,0.14306843 90 0 0 -0.275758,-0.0764 c -0.01138,0.0411 -0.02684,0.097 -0.04656,0.17416 -0.06268,0.24925 -0.11692,0.51546 -0.18744,0.78284 -0.06481,0.24572 -0.144568,0.49387 -0.264215,0.72662 -0.06079,0.12296 -0.137833,0.23006 -0.227006,0.36073 -0.01506,0.0187 -0.04166,0.0392 -0.07297,0.0536 -0.03184,0.0147 -0.06863,0.0233 -0.107753,0.0249 -0.01455,5.9e-4 -0.02926,1.9e-4 -0.04395,-0.001 -0.02457,-0.002 -0.04935,-0.007 -0.07339,-0.0151 -0.03685,-0.012 -0.0708,-0.0302 -0.09877,-0.0537 -0.01395,-0.0106 -0.0217,-0.018 -0.02956,-0.0279 -0.0077,-0.01 -0.01556,-0.0219 -0.02383,-0.0376 -0.01838,-0.0349 -0.02908,-0.0658 -0.0518,-0.11946 -0.07947,-0.19957 -0.121834,-0.41418 -0.147689,-0.64588 -0.02491,-0.22322 -0.0335,-0.45804 -0.05116,-0.6967 -0.0023,-0.0755 -0.01512,-0.15484 -0.02599,-0.22531 -0.01112,-0.0721 -0.02034,-0.1353 -0.02108,-0.19754 -1.3e-5,-0.001 1.4e-5,-0.002 1.62e-4,-0.003 1.48e-4,-0.001 3.95e-4,-0.002 5.44e-4,-0.003 1.49e-4,-0.001 1.77e-4,-0.002 -5.9e-5,-0.003 -2.36e-4,-0.001 -7.49e-4,-0.002 -0.0013,-0.003 -2.66e-4,-4.8e-4 2.75e-4,0.003 -0.0018,0.013 -0.001,0.005 -0.0029,0.0111 -0.0062,0.0183 -0.0034,0.007 -0.0082,0.0156 -0.01525,0.0238 -0.0071,0.008 -0.0157,0.0157 -0.02569,0.0218 -0.0099,0.006 -0.02016,0.01 -0.02991,0.0123 -0.01926,0.005 -0.03417,0.003 -0.04391,3.6e-4 -0.0093,-0.002 -0.01551,-0.006 -0.01876,-0.008 -0.0035,-0.002 -0.0056,-0.004 -0.0069,-0.006 -0.0019,-0.002 -0.0053,-0.007 -0.0082,-0.0143 -0.0033,-0.009 -0.0067,-0.0179 -0.0085,-0.0273 -0.0018,-0.009 -0.0017,-0.019 -0.0011,-0.0285 -0.03241,0.54756 -0.100115,1.06798 -0.262821,1.55613 -0.02762,0.0738 -0.04919,0.14802 -0.07339,0.21327 -0.02575,0.0694 -0.0529,0.1261 -0.08923,0.17393 -0.03126,0.045 -0.06979,0.0776 -0.109076,0.0966 -0.02074,0.01 -0.04097,0.016 -0.06,0.0184 -0.01269,0.002 -0.02498,0.002 -0.03687,3.4e-4 -0.0011,-1.3e-4 -0.0023,-2.8e-4 -0.0034,-4.4e-4 -0.08621,-0.0659 -0.158258,-0.14916 -0.220871,-0.24409 -0.06788,-0.10292 -0.123139,-0.21723 -0.172246,-0.33223 -0.10959,-0.24323 -0.182073,-0.50467 -0.241339,-0.72919 -0.06728,-0.26197 -0.105841,-0.5001 -0.116917,-0.72111 -0.01518,-0.30287 0.02357,-0.53493 0.07406,-0.70992 a 0.11089802,0.11089802 90 0 0 -0.213104,-0.0615 z"
       id="path-1"
       inkscape:path-effect="#path-effect3122;#path-effect3124"
       inkscape:original-d="m -15.336277,151.21114 c -0.191404,0.66819 -0.01355,1.37148 0.198449,2.0116 0.126732,0.31291 0.255508,0.65292 0.53888,0.85899 0.246503,0.058 0.40804,-0.19223 0.468187,-0.3959 0.218329,-0.55964 0.298942,-1.1618 0.336112,-1.75795 -0.148498,-0.19746 -0.05865,0.21518 -0.05204,0.3069 0.04671,0.53016 0.02282,1.0833 0.243243,1.58013 0.0918,0.31639 0.596109,0.38242 0.752596,0.0838 0.446228,-0.58755 0.520208,-1.3466 0.711104,-2.03589"
       style="fill:#000000;fill-rule:nonzero;stroke:none;stroke-width:1.361" />
  </g>
</svg>
