<?xml version="1.0" encoding="UTF-8" standalone="no"?>
<!-- Created with Inkscape (http://www.inkscape.org/) -->

<svg
   width="6mm"
   height="10mm"
   viewBox="0 0 6.0000001 9.9999994"
   version="1.1"
   id="svg1681"
   inkscape:version="1.2.1 (9c6d41e410, 2022-07-14)"
   sodipodi:docname="upper I 1.5.svg"
   inkscape:export-filename="..\..\..\..\Downloads\lower a diff canvas resize 3.0.png"
   inkscape:export-xdpi="96"
   inkscape:export-ydpi="96"
   xmlns:inkscape="http://www.inkscape.org/namespaces/inkscape"
   xmlns:sodipodi="http://sodipodi.sourceforge.net/DTD/sodipodi-0.dtd"
   xmlns="http://www.w3.org/2000/svg"
   xmlns:svg="http://www.w3.org/2000/svg"
   xmlns:rdf="http://www.w3.org/1999/02/22-rdf-syntax-ns#"
   xmlns:cc="http://creativecommons.org/ns#"
   xmlns:dc="http://purl.org/dc/elements/1.1/">
  <defs
     id="defs1675">
    <inkscape:path-effect
       effect="powerstroke"
       id="path-effect2569"
       is_visible="true"
       lpeversion="1"
       offset_points="3.5205882,0.13721892 | 6.32504,0.16186902 | 10.747403,0.14379228"
       not_jump="true"
       sort_points="true"
       interpolator_type="CentripetalCatmullRom"
       interpolator_beta="0.75"
       start_linecap_type="round"
       linejoin_type="spiro"
       miter_limit="4"
       scale_width="1"
       end_linecap_type="round" />
    <inkscape:path-effect
       effect="simplify"
       id="path-effect2567"
       is_visible="true"
       lpeversion="1"
       steps="1"
       threshold="0.0035951417"
       smooth_angles="0"
       helper_size="0"
       simplify_individual_paths="false"
       simplify_just_coalesce="false"
       step="1" />
    <inkscape:path-effect
       effect="powerstroke"
       id="path-effect2562"
       is_visible="true"
       lpeversion="1"
       offset_points="0.36166775,0.15200898"
       not_jump="true"
       sort_points="true"
       interpolator_type="CentripetalCatmullRom"
       interpolator_beta="0.75"
       start_linecap_type="round"
       linejoin_type="spiro"
       miter_limit="4"
       scale_width="1"
       end_linecap_type="round" />
    <inkscape:path-effect
       effect="simplify"
       id="path-effect2560"
       is_visible="true"
       lpeversion="1"
       steps="1"
       threshold="0.0035951417"
       smooth_angles="0"
       helper_size="0"
       simplify_individual_paths="false"
       simplify_just_coalesce="false"
       step="1" />
    <inkscape:path-effect
       effect="powerstroke"
       id="path-effect2555"
       is_visible="true"
       lpeversion="1"
       offset_points="1.6363091,0.11873135"
       not_jump="true"
       sort_points="true"
       interpolator_type="CentripetalCatmullRom"
       interpolator_beta="0.75"
       start_linecap_type="round"
       linejoin_type="spiro"
       miter_limit="4"
       scale_width="1"
       end_linecap_type="round" />
    <inkscape:path-effect
       effect="simplify"
       id="path-effect2553"
       is_visible="true"
       lpeversion="1"
       steps="1"
       threshold="0.0035951417"
       smooth_angles="0"
       helper_size="0"
       simplify_individual_paths="false"
       simplify_just_coalesce="false"
       step="1" />
    <inkscape:path-effect
       effect="powerstroke"
       id="path-effect502"
       is_visible="true"
       lpeversion="1"
       offset_points="3.0091841,0.21607495 | 7.3602657,0.17554228 | 9.4159651,0.20236537"
       not_jump="true"
       sort_points="true"
       interpolator_type="CentripetalCatmullRom"
       interpolator_beta="0.75"
       start_linecap_type="round"
       linejoin_type="spiro"
       miter_limit="4"
       scale_width="1"
       end_linecap_type="round" />
    <inkscape:path-effect
       effect="simplify"
       id="path-effect500"
       is_visible="true"
       lpeversion="1"
       steps="1"
       threshold="0.0035951417"
       smooth_angles="0"
       helper_size="0"
       simplify_individual_paths="false"
       simplify_just_coalesce="false"
       step="1" />
    <inkscape:path-effect
       effect="powerstroke"
       id="path-effect241"
       is_visible="true"
       lpeversion="1"
       offset_points="2.6879454,0.34086734"
       not_jump="true"
       sort_points="true"
       interpolator_type="CentripetalCatmullRom"
       interpolator_beta="0.75"
       start_linecap_type="round"
       linejoin_type="spiro"
       miter_limit="4"
       scale_width="1"
       end_linecap_type="round" />
    <inkscape:path-effect
       effect="simplify"
       id="path-effect239"
       is_visible="true"
       lpeversion="1"
       steps="1"
       threshold="0.0028332064"
       smooth_angles="0"
       helper_size="0"
       simplify_individual_paths="false"
       simplify_just_coalesce="false"
       step="1" />
    <inkscape:path-effect
       effect="powerstroke"
       id="path-effect234"
       is_visible="true"
       lpeversion="1"
       offset_points="2.13563,0.075169555"
       not_jump="true"
       sort_points="true"
       interpolator_type="CentripetalCatmullRom"
       interpolator_beta="0.75"
       start_linecap_type="round"
       linejoin_type="spiro"
       miter_limit="4"
       scale_width="1"
       end_linecap_type="round" />
    <inkscape:path-effect
       effect="simplify"
       id="path-effect232"
       is_visible="true"
       lpeversion="1"
       steps="1"
       threshold="0.0028332064"
       smooth_angles="0"
       helper_size="0"
       simplify_individual_paths="false"
       simplify_just_coalesce="false"
       step="1" />
    <inkscape:path-effect
       effect="powerstroke"
       id="path-effect227"
       is_visible="true"
       lpeversion="1"
       offset_points="2.1868266,0.075169555"
       not_jump="true"
       sort_points="true"
       interpolator_type="CentripetalCatmullRom"
       interpolator_beta="0.75"
       start_linecap_type="round"
       linejoin_type="spiro"
       miter_limit="4"
       scale_width="1"
       end_linecap_type="round" />
    <inkscape:path-effect
       effect="simplify"
       id="path-effect225"
       is_visible="true"
       lpeversion="1"
       steps="1"
       threshold="0.0028332064"
       smooth_angles="0"
       helper_size="0"
       simplify_individual_paths="false"
       simplify_just_coalesce="false"
       step="1" />
    <inkscape:path-effect
       effect="powerstroke"
       id="path-effect166"
       is_visible="true"
       lpeversion="1"
       offset_points="1.9637935,0.075169555"
       not_jump="true"
       sort_points="true"
       interpolator_type="CentripetalCatmullRom"
       interpolator_beta="0.75"
       start_linecap_type="round"
       linejoin_type="spiro"
       miter_limit="4"
       scale_width="1"
       end_linecap_type="round" />
    <inkscape:path-effect
       effect="simplify"
       id="path-effect164"
       is_visible="true"
       lpeversion="1"
       steps="1"
       threshold="0.0028332064"
       smooth_angles="0"
       helper_size="0"
       simplify_individual_paths="false"
       simplify_just_coalesce="false"
       step="1" />
    <inkscape:path-effect
       effect="powerstroke"
       id="path-effect159"
       is_visible="true"
       lpeversion="1"
       offset_points="2.2611036,0.075169555"
       not_jump="true"
       sort_points="true"
       interpolator_type="CentripetalCatmullRom"
       interpolator_beta="0.75"
       start_linecap_type="round"
       linejoin_type="spiro"
       miter_limit="4"
       scale_width="1"
       end_linecap_type="round" />
    <inkscape:path-effect
       effect="simplify"
       id="path-effect157"
       is_visible="true"
       lpeversion="1"
       steps="1"
       threshold="0.0028332064"
       smooth_angles="0"
       helper_size="0"
       simplify_individual_paths="false"
       simplify_just_coalesce="false"
       step="1" />
    <inkscape:path-effect
       effect="powerstroke"
       id="path-effect152"
       is_visible="true"
       lpeversion="1"
       offset_points="2.826981,0.075169555"
       not_jump="true"
       sort_points="true"
       interpolator_type="CentripetalCatmullRom"
       interpolator_beta="0.75"
       start_linecap_type="round"
       linejoin_type="spiro"
       miter_limit="4"
       scale_width="1"
       end_linecap_type="round" />
    <inkscape:path-effect
       effect="simplify"
       id="path-effect150"
       is_visible="true"
       lpeversion="1"
       steps="1"
       threshold="0.0028332064"
       smooth_angles="0"
       helper_size="0"
       simplify_individual_paths="false"
       simplify_just_coalesce="false"
       step="1" />
    <inkscape:path-effect
       effect="powerstroke"
       id="path-effect145"
       is_visible="true"
       lpeversion="1"
       offset_points="3.8374447,0.075169555"
       not_jump="true"
       sort_points="true"
       interpolator_type="CentripetalCatmullRom"
       interpolator_beta="0.75"
       start_linecap_type="round"
       linejoin_type="spiro"
       miter_limit="4"
       scale_width="1"
       end_linecap_type="round" />
    <inkscape:path-effect
       effect="simplify"
       id="path-effect143"
       is_visible="true"
       lpeversion="1"
       steps="1"
       threshold="0.0028332064"
       smooth_angles="0"
       helper_size="0"
       simplify_individual_paths="false"
       simplify_just_coalesce="false"
       step="1" />
    <inkscape:path-effect
       effect="powerstroke"
       id="path-effect138"
       is_visible="true"
       lpeversion="1"
       offset_points="2.6880907,0.075169555"
       not_jump="true"
       sort_points="true"
       interpolator_type="CentripetalCatmullRom"
       interpolator_beta="0.75"
       start_linecap_type="round"
       linejoin_type="spiro"
       miter_limit="4"
       scale_width="1"
       end_linecap_type="round" />
    <inkscape:path-effect
       effect="simplify"
       id="path-effect136"
       is_visible="true"
       lpeversion="1"
       steps="1"
       threshold="0.0028332064"
       smooth_angles="0"
       helper_size="0"
       simplify_individual_paths="false"
       simplify_just_coalesce="false"
       step="1" />
    <inkscape:path-effect
       effect="powerstroke"
       id="path-effect131"
       is_visible="true"
       lpeversion="1"
       offset_points="1.9940581,0.075169555"
       not_jump="true"
       sort_points="true"
       interpolator_type="CentripetalCatmullRom"
       interpolator_beta="0.75"
       start_linecap_type="round"
       linejoin_type="spiro"
       miter_limit="4"
       scale_width="1"
       end_linecap_type="round" />
    <inkscape:path-effect
       effect="simplify"
       id="path-effect129"
       is_visible="true"
       lpeversion="1"
       steps="1"
       threshold="0.0028332064"
       smooth_angles="0"
       helper_size="0"
       simplify_individual_paths="false"
       simplify_just_coalesce="false"
       step="1" />
  </defs>
  <sodipodi:namedview
     id="base"
     pagecolor="#ffffff"
     bordercolor="#666666"
     borderopacity="1.0"
     inkscape:pageopacity="0.0"
     inkscape:pageshadow="2"
     inkscape:zoom="7.919596"
     inkscape:cx="-5.3033008"
     inkscape:cy="20.834396"
     inkscape:document-units="mm"
     inkscape:current-layer="layer1"
     showgrid="false"
     fit-margin-top="0"
     fit-margin-left="0"
     fit-margin-right="0"
     fit-margin-bottom="0"
     inkscape:window-width="1920"
     inkscape:window-height="974"
     inkscape:window-x="-11"
     inkscape:window-y="2869"
     inkscape:window-maximized="1"
     showguides="true"
     inkscape:guide-bbox="true"
     inkscape:snap-bbox="true"
     inkscape:bbox-nodes="true"
     inkscape:snap-nodes="false"
     inkscape:snap-others="false"
     inkscape:snap-page="true"
     inkscape:snap-grids="false"
     inkscape:snap-to-guides="false"
     inkscape:snap-global="false"
     inkscape:pagecheckerboard="0"
     inkscape:showpageshadow="2"
     inkscape:deskcolor="#d1d1d1">
    <sodipodi:guide
       position="-6.1806075,9.4988692"
       orientation="0,1"
       id="guide816"
       inkscape:locked="false" />
    <sodipodi:guide
       position="-4.4101636,10.646923"
       orientation="0,1"
       id="guide818"
       inkscape:locked="false" />
    <sodipodi:guide
       position="2.7595724,11.09577"
       orientation="1,0"
       id="guide820"
       inkscape:locked="false" />
    <sodipodi:guide
       position="3.6572659,10.942217"
       orientation="1,0"
       id="guide822"
       inkscape:locked="false" />
    <sodipodi:guide
       position="-0.051625511,9.7492299"
       orientation="1,0"
       id="guide1853"
       inkscape:locked="false" />
    <sodipodi:guide
       position="-2.3720169,3.0175835"
       orientation="0,1"
       id="guide1855"
       inkscape:locked="false" />
  </sodipodi:namedview>
  <metadata
     id="metadata1678">
    <rdf:RDF>
      <cc:Work
         rdf:about="">
        <dc:format>image/svg+xml</dc:format>
        <dc:type
           rdf:resource="http://purl.org/dc/dcmitype/StillImage" />
      </cc:Work>
    </rdf:RDF>
  </metadata>
  <g
     inkscape:label="Layer 1"
     inkscape:groupmode="layer"
     id="layer1"
     transform="translate(17.028496,-147.22856)">
    <path
       d="m -14.400668,148.17002 c -0.161267,0.95516 -0.237323,2.45145 0.314224,4.37967 0.08643,0.30272 0.169916,0.55151 0.226959,0.71472 0.06502,0.18605 0.121063,0.33286 0.14778,0.40219 a 0.11873135,0.11873135 90 0 0 0.22158,-0.0854 c -0.02626,-0.0682 -0.08132,-0.2124 -0.145194,-0.39516 -0.05604,-0.16034 -0.137984,-0.40455 -0.222803,-0.70162 -0.54053,-1.8897 -0.464596,-3.34974 -0.308398,-4.27488 a 0.11873135,0.11873135 90 0 0 -0.234148,-0.0395 z"
       id="path-1"
       inkscape:path-effect="#path-effect2553;#path-effect2555"
       inkscape:original-d="m -14.283594,148.18979 c -0.308261,1.82954 0.02127,3.71787 0.682679,5.43412"
       style="fill:#000000;fill-rule:nonzero;stroke:none;stroke-width:1.39916" />
    <path
       d="m -15.753324,148.55798 c 0.309361,-0.0166 0.713293,-0.0175 1.441989,0.056 0.173293,0.0175 0.324678,0.0345 0.5572,0.0605 0.516458,0.0577 1.307603,0.15243 2.052361,0.098 0.256559,-0.0189 0.452752,-0.0508 0.574391,-0.0736 a 0.15200898,0.15200898 90 0 0 -0.05578,-0.29886 c -0.113583,0.0212 -0.298306,0.0513 -0.540878,0.0692 -0.711179,0.052 -1.472587,-0.0385 -1.99636,-0.0969 -0.232112,-0.0259 -0.385203,-0.0431 -0.560425,-0.0608 -0.742128,-0.0748 -1.161839,-0.0746 -1.48881,-0.0571 a 0.15200898,0.15200898 90 0 0 0.01631,0.30358 z"
       id="path-1-3"
       inkscape:path-effect="#path-effect2560;#path-effect2562"
       inkscape:original-d="m -15.761481,148.40619 c 1.539789,-0.083 3.070927,0.42968 4.606207,0.14325"
       style="fill:#000000;fill-rule:nonzero;stroke:none;stroke-width:1.39916" />
    <path
       d="m -15.199582,154.14082 c 0.169183,-0.081 0.400733,-0.17056 0.717356,-0.23867 0.229457,-0.0494 0.479269,-0.0825 0.76378,-0.10269 0.290037,-0.0205 0.58034,-0.0284 0.909101,-0.0344 0.130507,0.009 0.257625,0.002 0.374094,-0.0119 0.0045,-5.3e-4 0.0089,-0.001 0.01331,-0.002 0.0063,-0.001 0.01321,-0.003 0.02023,-0.005 0.0067,-0.002 0.01611,-0.005 0.02636,-0.0103 0.0053,-0.003 0.01214,-0.006 0.01954,-0.0115 0.0073,-0.005 0.01716,-0.0129 0.02692,-0.0244 0.0099,-0.0117 0.02146,-0.0291 0.02803,-0.0526 0.0033,-0.0118 0.0052,-0.0245 0.0051,-0.0376 -3.7e-5,-0.0132 -0.002,-0.0258 -0.0053,-0.0374 -0.0066,-0.0232 -0.01797,-0.0404 -0.02746,-0.0516 -0.0095,-0.0113 -0.01911,-0.0191 -0.026,-0.0241 -0.0134,-0.01 -0.02587,-0.0151 -0.03234,-0.0178 -0.0076,-0.003 -0.01443,-0.005 -0.01949,-0.007 -0.0054,-0.002 -0.01048,-0.003 -0.01487,-0.004 -0.0015,-3.5e-4 -0.003,-6.8e-4 -0.0044,-9.9e-4 -0.0072,-0.002 -0.01436,-0.003 -0.02078,-0.004 -0.0079,-0.001 -0.0157,-0.002 -0.02281,-0.003 -0.0072,-9.7e-4 -0.01437,-0.002 -0.0207,-0.003 -0.0059,-6.4e-4 -0.01333,-0.001 -0.01981,-0.002 -0.239233,-0.0137 -0.497616,-0.0263 -0.754056,0.0251 -0.121495,0.0244 -0.268341,0.0657 -0.398919,0.15459 -0.0054,0.004 -0.01033,0.008 -0.01529,0.0121 -0.0173,0.0148 -0.03746,0.0339 -0.05659,0.0573 -0.0096,0.0117 -0.01992,0.0257 -0.02978,0.0419 -0.01255,0.0207 -0.02561,0.0471 -0.03427,0.0785 -0.0081,0.0292 -0.01246,0.0634 -0.0085,0.1009 0.0013,0.0121 0.0029,0.0242 0.0067,0.0357 0.0039,0.0115 0.0099,0.0221 0.0163,0.0325 0.01368,0.0222 0.0331,0.0449 0.06003,0.063 0.02668,0.0179 0.05566,0.0279 0.08402,0.0315 0.02679,0.003 0.05055,9.7e-4 0.0692,-0.003 0.01825,-0.004 0.03395,-0.009 0.04615,-0.0145 0.02266,-0.009 0.04283,-0.0215 0.05251,-0.0272 0.0045,-0.003 0.01054,-0.006 0.01123,-0.007 0.0021,-0.001 5.54e-4,-4.1e-4 -0.0049,0.001 -0.0034,0.001 -0.0069,0.002 -0.01038,0.003 0.153344,-0.0448 0.312808,-0.0598 0.49499,-0.0823 0.08935,-0.011 0.181435,-0.0238 0.273485,-0.0433 0.09413,-0.0199 0.188273,-0.0469 0.280807,-0.0865 0.213393,-0.0961 0.348785,-0.25396 0.348133,-0.25456 -5.32e-4,-4.8e-4 -0.114531,0.10584 -0.139408,0.12402 a 0.14379228,0.14379228 90 0 0 -0.169714,-0.23216 c 0.01777,-0.013 0.09827,-0.0864 0.09774,-0.0868 -6.51e-4,-6e-4 -0.09874,0.10193 -0.25776,0.16464 -0.06932,0.0289 -0.143371,0.0498 -0.223142,0.0659 -0.07874,0.0159 -0.160189,0.0267 -0.247398,0.0367 -0.167866,0.0193 -0.360836,0.0358 -0.545863,0.0885 -0.0035,9.9e-4 -0.0069,0.002 -0.01038,0.003 -0.01395,0.005 -0.02595,0.0107 -0.03372,0.0146 -0.0079,0.004 -0.01607,0.008 -0.02099,0.011 -0.01136,0.006 -0.01843,0.009 -0.01676,0.008 6.06e-4,-3.4e-4 0.0045,-0.002 0.01172,-0.004 0.0073,-0.002 0.02016,-0.003 0.03665,-0.001 0.01783,0.002 0.03698,0.009 0.05465,0.0205 0.01769,0.0118 0.02878,0.0256 0.03515,0.0359 0.0064,0.0103 0.01241,0.021 0.01618,0.0325 0.0038,0.0115 0.0054,0.0237 0.0068,0.0357 9.65e-4,0.008 -7.8e-5,0.0147 -0.0011,0.0185 -0.001,0.004 -0.0016,0.004 -6.57e-4,0.002 8.28e-4,-0.001 0.0023,-0.004 0.0045,-0.007 0.0037,-0.005 0.0086,-0.0107 0.01461,-0.0169 0.07676,-0.0529 0.170936,-0.0879 0.269939,-0.11452 0.21023,-0.0493 0.432797,-0.048 0.681439,-0.04 0.0042,-2.3e-4 0.0068,-5.7e-4 0.0094,-6.9e-4 0.0029,-1.5e-4 0.0068,-1.4e-4 0.01083,-3e-5 0.0041,1.2e-4 0.008,3.4e-4 0.01158,6e-4 0.0028,2.1e-4 0.0052,4.4e-4 0.0063,4.9e-4 -0.002,-9.6e-4 -0.0056,-0.002 -0.0099,-0.004 -0.0034,-0.001 -0.01342,-0.006 -0.02495,-0.014 -0.006,-0.004 -0.01482,-0.0114 -0.02375,-0.022 -0.0089,-0.0106 -0.0199,-0.0271 -0.0263,-0.0496 -0.0032,-0.0113 -0.0051,-0.0235 -0.0051,-0.0363 -3.6e-5,-0.0128 0.0018,-0.0251 0.005,-0.0366 0.0064,-0.0227 0.01747,-0.0394 0.02679,-0.0504 0.0091,-0.0107 0.01818,-0.0179 0.02435,-0.0221 0.0063,-0.004 0.01182,-0.007 0.01555,-0.009 0.0072,-0.004 0.01237,-0.005 0.01382,-0.006 0.0014,-4e-4 0.0027,-6.5e-4 0.001,-2.1e-4 l 0.01331,-0.002 c -0.106204,0.0136 -0.217139,0.0197 -0.327105,0.0113 -0.0042,-3.2e-4 -0.0084,-4.4e-4 -0.01263,-3.6e-4 -0.332389,0.006 -0.629415,0.013 -0.929232,0.0332 -0.294357,0.0204 -0.55736,0.0545 -0.802196,0.10672 -0.339021,0.0723 -0.591226,0.16881 -0.778611,0.25855 a 0.13721892,0.13721892 90 0 0 0.118534,0.24752 z"
       id="path-1-5"
       inkscape:path-effect="#path-effect2567;#path-effect2569"
       inkscape:original-d="m -15.258849,154.01706 c 0.76031,-0.36291 1.623159,-0.36747 2.447761,-0.38798 0.109316,0.0179 0.622956,-0.0167 0.255043,-0.0365 -0.330139,-0.0105 -0.688548,-0.0186 -0.983108,0.1521 -0.118731,0.066 -0.172109,0.26622 0.0094,0.14699 0.404914,-0.12003 0.868339,-0.0469 1.226715,-0.30852"
       style="fill:#000000;fill-rule:nonzero;stroke:none;stroke-width:1.39916" />
  </g>
</svg>
