<?xml version="1.0" encoding="UTF-8" standalone="no"?>
<!-- Created with Inkscape (http://www.inkscape.org/) -->

<svg
   width="6mm"
   height="10mm"
   viewBox="0 0 6.0000001 9.9999994"
   version="1.1"
   id="svg1681"
   inkscape:version="1.2.1 (9c6d41e410, 2022-07-14)"
   sodipodi:docname="lower f 1.2.svg"
   inkscape:export-filename="..\..\..\..\Downloads\lower a diff canvas resize 3.0.png"
   inkscape:export-xdpi="96"
   inkscape:export-ydpi="96"
   xmlns:inkscape="http://www.inkscape.org/namespaces/inkscape"
   xmlns:sodipodi="http://sodipodi.sourceforge.net/DTD/sodipodi-0.dtd"
   xmlns="http://www.w3.org/2000/svg"
   xmlns:svg="http://www.w3.org/2000/svg"
   xmlns:rdf="http://www.w3.org/1999/02/22-rdf-syntax-ns#"
   xmlns:cc="http://creativecommons.org/ns#"
   xmlns:dc="http://purl.org/dc/elements/1.1/">
  <defs
     id="defs1675">
    <inkscape:path-effect
       effect="powerstroke"
       id="path-effect2441"
       is_visible="true"
       lpeversion="1"
       offset_points="1.7866323,0.13478635"
       not_jump="true"
       sort_points="true"
       interpolator_type="CentripetalCatmullRom"
       interpolator_beta="0.75"
       start_linecap_type="round"
       linejoin_type="spiro"
       miter_limit="4"
       scale_width="1"
       end_linecap_type="round" />
    <inkscape:path-effect
       effect="simplify"
       id="path-effect2439"
       is_visible="true"
       lpeversion="1"
       steps="1"
       threshold="0.0035951417"
       smooth_angles="0"
       helper_size="0"
       simplify_individual_paths="false"
       simplify_just_coalesce="false"
       step="1" />
    <inkscape:path-effect
       effect="powerstroke"
       id="path-effect2434"
       is_visible="true"
       lpeversion="1"
       offset_points="3.5561555,0.11786756 | 7.2591924,0.13986199"
       not_jump="true"
       sort_points="true"
       interpolator_type="CentripetalCatmullRom"
       interpolator_beta="0.75"
       start_linecap_type="round"
       linejoin_type="spiro"
       miter_limit="4"
       scale_width="1"
       end_linecap_type="round" />
    <inkscape:path-effect
       effect="simplify"
       id="path-effect2432"
       is_visible="true"
       lpeversion="1"
       steps="1"
       threshold="0.0035951417"
       smooth_angles="0"
       helper_size="0"
       simplify_individual_paths="false"
       simplify_just_coalesce="false"
       step="1" />
    <inkscape:path-effect
       effect="powerstroke"
       id="path-effect502"
       is_visible="true"
       lpeversion="1"
       offset_points="3.0091841,0.21607495 | 7.3602657,0.17554228 | 9.4159651,0.20236537"
       not_jump="true"
       sort_points="true"
       interpolator_type="CentripetalCatmullRom"
       interpolator_beta="0.75"
       start_linecap_type="round"
       linejoin_type="spiro"
       miter_limit="4"
       scale_width="1"
       end_linecap_type="round" />
    <inkscape:path-effect
       effect="simplify"
       id="path-effect500"
       is_visible="true"
       lpeversion="1"
       steps="1"
       threshold="0.0035951417"
       smooth_angles="0"
       helper_size="0"
       simplify_individual_paths="false"
       simplify_just_coalesce="false"
       step="1" />
    <inkscape:path-effect
       effect="powerstroke"
       id="path-effect241"
       is_visible="true"
       lpeversion="1"
       offset_points="2.6879454,0.34086734"
       not_jump="true"
       sort_points="true"
       interpolator_type="CentripetalCatmullRom"
       interpolator_beta="0.75"
       start_linecap_type="round"
       linejoin_type="spiro"
       miter_limit="4"
       scale_width="1"
       end_linecap_type="round" />
    <inkscape:path-effect
       effect="simplify"
       id="path-effect239"
       is_visible="true"
       lpeversion="1"
       steps="1"
       threshold="0.0028332064"
       smooth_angles="0"
       helper_size="0"
       simplify_individual_paths="false"
       simplify_just_coalesce="false"
       step="1" />
    <inkscape:path-effect
       effect="powerstroke"
       id="path-effect234"
       is_visible="true"
       lpeversion="1"
       offset_points="2.13563,0.075169555"
       not_jump="true"
       sort_points="true"
       interpolator_type="CentripetalCatmullRom"
       interpolator_beta="0.75"
       start_linecap_type="round"
       linejoin_type="spiro"
       miter_limit="4"
       scale_width="1"
       end_linecap_type="round" />
    <inkscape:path-effect
       effect="simplify"
       id="path-effect232"
       is_visible="true"
       lpeversion="1"
       steps="1"
       threshold="0.0028332064"
       smooth_angles="0"
       helper_size="0"
       simplify_individual_paths="false"
       simplify_just_coalesce="false"
       step="1" />
    <inkscape:path-effect
       effect="powerstroke"
       id="path-effect227"
       is_visible="true"
       lpeversion="1"
       offset_points="2.1868266,0.075169555"
       not_jump="true"
       sort_points="true"
       interpolator_type="CentripetalCatmullRom"
       interpolator_beta="0.75"
       start_linecap_type="round"
       linejoin_type="spiro"
       miter_limit="4"
       scale_width="1"
       end_linecap_type="round" />
    <inkscape:path-effect
       effect="simplify"
       id="path-effect225"
       is_visible="true"
       lpeversion="1"
       steps="1"
       threshold="0.0028332064"
       smooth_angles="0"
       helper_size="0"
       simplify_individual_paths="false"
       simplify_just_coalesce="false"
       step="1" />
    <inkscape:path-effect
       effect="powerstroke"
       id="path-effect166"
       is_visible="true"
       lpeversion="1"
       offset_points="1.9637935,0.075169555"
       not_jump="true"
       sort_points="true"
       interpolator_type="CentripetalCatmullRom"
       interpolator_beta="0.75"
       start_linecap_type="round"
       linejoin_type="spiro"
       miter_limit="4"
       scale_width="1"
       end_linecap_type="round" />
    <inkscape:path-effect
       effect="simplify"
       id="path-effect164"
       is_visible="true"
       lpeversion="1"
       steps="1"
       threshold="0.0028332064"
       smooth_angles="0"
       helper_size="0"
       simplify_individual_paths="false"
       simplify_just_coalesce="false"
       step="1" />
    <inkscape:path-effect
       effect="powerstroke"
       id="path-effect159"
       is_visible="true"
       lpeversion="1"
       offset_points="2.2611036,0.075169555"
       not_jump="true"
       sort_points="true"
       interpolator_type="CentripetalCatmullRom"
       interpolator_beta="0.75"
       start_linecap_type="round"
       linejoin_type="spiro"
       miter_limit="4"
       scale_width="1"
       end_linecap_type="round" />
    <inkscape:path-effect
       effect="simplify"
       id="path-effect157"
       is_visible="true"
       lpeversion="1"
       steps="1"
       threshold="0.0028332064"
       smooth_angles="0"
       helper_size="0"
       simplify_individual_paths="false"
       simplify_just_coalesce="false"
       step="1" />
    <inkscape:path-effect
       effect="powerstroke"
       id="path-effect152"
       is_visible="true"
       lpeversion="1"
       offset_points="2.826981,0.075169555"
       not_jump="true"
       sort_points="true"
       interpolator_type="CentripetalCatmullRom"
       interpolator_beta="0.75"
       start_linecap_type="round"
       linejoin_type="spiro"
       miter_limit="4"
       scale_width="1"
       end_linecap_type="round" />
    <inkscape:path-effect
       effect="simplify"
       id="path-effect150"
       is_visible="true"
       lpeversion="1"
       steps="1"
       threshold="0.0028332064"
       smooth_angles="0"
       helper_size="0"
       simplify_individual_paths="false"
       simplify_just_coalesce="false"
       step="1" />
    <inkscape:path-effect
       effect="powerstroke"
       id="path-effect145"
       is_visible="true"
       lpeversion="1"
       offset_points="3.8374447,0.075169555"
       not_jump="true"
       sort_points="true"
       interpolator_type="CentripetalCatmullRom"
       interpolator_beta="0.75"
       start_linecap_type="round"
       linejoin_type="spiro"
       miter_limit="4"
       scale_width="1"
       end_linecap_type="round" />
    <inkscape:path-effect
       effect="simplify"
       id="path-effect143"
       is_visible="true"
       lpeversion="1"
       steps="1"
       threshold="0.0028332064"
       smooth_angles="0"
       helper_size="0"
       simplify_individual_paths="false"
       simplify_just_coalesce="false"
       step="1" />
    <inkscape:path-effect
       effect="powerstroke"
       id="path-effect138"
       is_visible="true"
       lpeversion="1"
       offset_points="2.6880907,0.075169555"
       not_jump="true"
       sort_points="true"
       interpolator_type="CentripetalCatmullRom"
       interpolator_beta="0.75"
       start_linecap_type="round"
       linejoin_type="spiro"
       miter_limit="4"
       scale_width="1"
       end_linecap_type="round" />
    <inkscape:path-effect
       effect="simplify"
       id="path-effect136"
       is_visible="true"
       lpeversion="1"
       steps="1"
       threshold="0.0028332064"
       smooth_angles="0"
       helper_size="0"
       simplify_individual_paths="false"
       simplify_just_coalesce="false"
       step="1" />
    <inkscape:path-effect
       effect="powerstroke"
       id="path-effect131"
       is_visible="true"
       lpeversion="1"
       offset_points="1.9940581,0.075169555"
       not_jump="true"
       sort_points="true"
       interpolator_type="CentripetalCatmullRom"
       interpolator_beta="0.75"
       start_linecap_type="round"
       linejoin_type="spiro"
       miter_limit="4"
       scale_width="1"
       end_linecap_type="round" />
    <inkscape:path-effect
       effect="simplify"
       id="path-effect129"
       is_visible="true"
       lpeversion="1"
       steps="1"
       threshold="0.0028332064"
       smooth_angles="0"
       helper_size="0"
       simplify_individual_paths="false"
       simplify_just_coalesce="false"
       step="1" />
  </defs>
  <sodipodi:namedview
     id="base"
     pagecolor="#ffffff"
     bordercolor="#666666"
     borderopacity="1.0"
     inkscape:pageopacity="0.0"
     inkscape:pageshadow="2"
     inkscape:zoom="7.919596"
     inkscape:cx="-5.3033008"
     inkscape:cy="20.834396"
     inkscape:document-units="mm"
     inkscape:current-layer="layer1"
     showgrid="false"
     fit-margin-top="0"
     fit-margin-left="0"
     fit-margin-right="0"
     fit-margin-bottom="0"
     inkscape:window-width="1920"
     inkscape:window-height="974"
     inkscape:window-x="-11"
     inkscape:window-y="2869"
     inkscape:window-maximized="1"
     showguides="true"
     inkscape:guide-bbox="true"
     inkscape:snap-bbox="true"
     inkscape:bbox-nodes="true"
     inkscape:snap-nodes="false"
     inkscape:snap-others="false"
     inkscape:snap-page="true"
     inkscape:snap-grids="false"
     inkscape:snap-to-guides="false"
     inkscape:snap-global="false"
     inkscape:pagecheckerboard="0"
     inkscape:showpageshadow="2"
     inkscape:deskcolor="#d1d1d1">
    <sodipodi:guide
       position="-6.1806075,9.4988692"
       orientation="0,1"
       id="guide816"
       inkscape:locked="false" />
    <sodipodi:guide
       position="-4.4101636,10.646923"
       orientation="0,1"
       id="guide818"
       inkscape:locked="false" />
    <sodipodi:guide
       position="2.7595724,11.09577"
       orientation="1,0"
       id="guide820"
       inkscape:locked="false" />
    <sodipodi:guide
       position="3.6572659,10.942217"
       orientation="1,0"
       id="guide822"
       inkscape:locked="false" />
    <sodipodi:guide
       position="-0.051625511,9.7492299"
       orientation="1,0"
       id="guide1853"
       inkscape:locked="false" />
    <sodipodi:guide
       position="-2.3720169,3.0175835"
       orientation="0,1"
       id="guide1855"
       inkscape:locked="false" />
  </sodipodi:namedview>
  <metadata
     id="metadata1678">
    <rdf:RDF>
      <cc:Work
         rdf:about="">
        <dc:format>image/svg+xml</dc:format>
        <dc:type
           rdf:resource="http://purl.org/dc/dcmitype/StillImage" />
      </cc:Work>
    </rdf:RDF>
  </metadata>
  <g
     inkscape:label="Layer 1"
     inkscape:groupmode="layer"
     id="layer1"
     transform="translate(17.028496,-147.22856)">
    <path
       d="m -14.186329,153.82551 c -0.002,0.0118 -0.0043,0.0276 -0.0074,0.0498 -0.0026,0.0188 -0.0051,0.0376 -0.0077,0.0563 -0.0024,0.0173 -0.0046,0.033 -0.0064,0.0437 -4.05e-4,0.002 -7.02e-4,0.004 -9.39e-4,0.005 -2.3e-4,0.001 -2.9e-4,0.002 -3.1e-5,5.7e-4 0.0014,-0.005 0.0026,-0.009 0.0046,-0.0133 0.001,-0.002 0.0027,-0.006 0.0051,-0.0106 0.0022,-0.004 0.0066,-0.0115 0.01378,-0.0198 0.0037,-0.004 0.0091,-0.01 0.01629,-0.0155 0.0072,-0.006 0.01747,-0.0123 0.03097,-0.0174 0.0139,-0.005 0.03073,-0.008 0.04938,-0.007 0.01869,0.001 0.03527,0.007 0.04892,0.0147 0.0099,0.006 0.01979,0.0113 0.02855,0.0185 0.0088,0.007 0.0163,0.016 0.02165,0.026 0.0053,0.01 0.0084,0.0212 0.0096,0.0325 0.0011,0.0113 3.9e-4,0.0227 -4.65e-4,0.034 0.0074,-0.0976 0.01887,-0.20476 0.02469,-0.3193 0.0054,-0.10687 0.0056,-0.22198 -0.01165,-0.33913 -0.0093,-0.0434 -0.01189,-0.0821 -0.01265,-0.12832 -7.33e-4,-0.0443 2.91e-4,-0.0987 -0.0028,-0.15015 -0.01186,-0.61736 0.03151,-1.20654 0.1318,-1.75825 0.0762,-0.41918 0.196775,-0.88031 0.390093,-1.34859 0.05313,-0.10621 0.114097,-0.2296 0.18512,-0.33985 0.06777,-0.1052 0.144787,-0.19894 0.240394,-0.27185 0.05102,-0.0399 0.110993,-0.0629 0.172583,-0.0693 0.06445,-0.007 0.126278,0.005 0.178036,0.0312 0.07816,0.0353 0.143789,0.0795 0.20131,0.12505 0.170862,0.13515 0.278448,0.26361 0.278066,0.26399 -2.86e-4,2.9e-4 -0.07948,-0.0789 -0.09536,-0.0943 a 0.13986199,0.13986199 90 0 0 0.194966,-0.20058 c 0.01682,0.0163 0.09794,0.0962 0.09765,0.0965 -3.8e-4,3.8e-4 -0.103181,-0.12111 -0.312307,-0.27787 -0.06972,-0.0523 -0.155452,-0.10784 -0.255903,-0.15019 -0.09403,-0.0441 -0.205765,-0.0612 -0.316777,-0.0468 -0.105996,0.0137 -0.210184,0.056 -0.296684,0.12696 -0.122761,0.0963 -0.216266,0.21622 -0.291712,0.33659 -0.07807,0.12454 -0.143523,0.26147 -0.197203,0.37238 -0.202922,0.49453 -0.326516,0.97258 -0.404249,1.40473 -0.102364,0.56907 -0.145873,1.17391 -0.133024,1.81001 0.0033,0.0495 0.0023,0.0885 0.0034,0.14449 9.62e-4,0.0504 0.0038,0.10779 0.01662,0.16616 0.01252,0.0876 0.01276,0.18571 0.0075,0.28506 -0.0056,0.10557 -0.01714,0.21135 -0.02516,0.31337 -8.91e-4,0.0113 -0.0017,0.0227 -5.44e-4,0.034 0.0011,0.0113 0.0042,0.0225 0.0096,0.0325 0.0054,0.01 0.01293,0.0188 0.0217,0.026 0.0088,0.007 0.01867,0.0129 0.02857,0.0185 0.01371,0.008 0.03035,0.0134 0.04911,0.0148 0.01871,0.001 0.03561,-0.002 0.04958,-0.007 0.01357,-0.005 0.02393,-0.0118 0.03117,-0.0175 0.0073,-0.006 0.01272,-0.0114 0.01651,-0.0157 0.0073,-0.008 0.01188,-0.0162 0.01423,-0.0205 0.0026,-0.005 0.0045,-0.009 0.0056,-0.0117 0.0023,-0.006 0.0038,-0.0102 0.0046,-0.0129 9.13e-4,-0.003 0.0016,-0.006 0.0022,-0.008 0.0011,-0.004 0.0019,-0.008 0.0026,-0.0115 7.2e-4,-0.004 0.0014,-0.007 0.002,-0.0107 0.0026,-0.0146 0.0055,-0.0335 0.008,-0.0506 0.002,-0.0134 0.0062,-0.0431 0.0082,-0.0566 0.0032,-0.0221 0.0052,-0.0349 0.0067,-0.0436 a 0.11786756,0.11786756 90 0 0 -0.232436,-0.0393 z"
       id="path-1"
       inkscape:path-effect="#path-effect2432;#path-effect2434"
       inkscape:original-d="m -14.070111,153.84516 c -0.08236,0.55638 0.05016,-0.30967 -0.02117,-0.49356 -0.05001,-1.1554 0.07714,-2.34216 0.519707,-3.41752 0.171367,-0.35721 0.469035,-0.93917 0.95448,-0.71694 0.158114,0.0712 0.290476,0.18733 0.413676,0.30704"
       style="fill:#000000;fill-rule:nonzero;stroke:none;stroke-width:1.28042" />
    <path
       d="m -14.989182,152.12412 c 0.110047,-0.0712 0.309786,-0.16669 0.612096,-0.17455 0.23395,-0.007 0.476684,0.0295 0.673771,0.0592 0.195356,0.0294 0.287389,0.0431 0.404177,0.0555 0.154423,0.0164 0.2571,0.0182 0.312187,0.0184 a 0.13478635,0.13478635 90 0 0 7.72e-4,-0.26958 c -0.04805,-1.3e-4 -0.141267,-0.002 -0.284578,-0.0169 -0.110143,-0.0117 -0.196746,-0.0245 -0.392378,-0.0539 -0.192776,-0.0291 -0.459738,-0.0701 -0.721538,-0.0621 -0.358512,0.009 -0.605787,0.12374 -0.750965,0.21769 a 0.13478635,0.13478635 90 0 0 0.146456,0.22632 z"
       id="path-1-4"
       inkscape:path-effect="#path-effect2439;#path-effect2441"
       inkscape:original-d="m -15.06241,152.01096 c 0.634153,-0.40378 1.3928,-0.0623 2.075845,-0.0631"
       style="fill:#000000;fill-rule:nonzero;stroke:none;stroke-width:1.28042" />
  </g>
</svg>
