<?xml version="1.0" encoding="UTF-8" standalone="no"?>
<!-- Created with Inkscape (http://www.inkscape.org/) -->

<svg
   width="6mm"
   height="10mm"
   viewBox="0 0 6.0000001 9.9999994"
   version="1.1"
   id="svg1681"
   inkscape:version="1.2.1 (9c6d41e410, 2022-07-14)"
   sodipodi:docname="lower t 1.5.svg"
   inkscape:export-filename="..\..\..\..\Downloads\lower a diff canvas resize 3.0.png"
   inkscape:export-xdpi="96"
   inkscape:export-ydpi="96"
   xmlns:inkscape="http://www.inkscape.org/namespaces/inkscape"
   xmlns:sodipodi="http://sodipodi.sourceforge.net/DTD/sodipodi-0.dtd"
   xmlns="http://www.w3.org/2000/svg"
   xmlns:svg="http://www.w3.org/2000/svg"
   xmlns:rdf="http://www.w3.org/1999/02/22-rdf-syntax-ns#"
   xmlns:cc="http://creativecommons.org/ns#"
   xmlns:dc="http://purl.org/dc/elements/1.1/">
  <defs
     id="defs1675">
    <inkscape:path-effect
       effect="powerstroke"
       id="path-effect2518"
       is_visible="true"
       lpeversion="1"
       offset_points="1.682065,0.12696605"
       not_jump="true"
       sort_points="true"
       interpolator_type="CentripetalCatmullRom"
       interpolator_beta="0.75"
       start_linecap_type="round"
       linejoin_type="spiro"
       miter_limit="4"
       scale_width="1"
       end_linecap_type="round" />
    <inkscape:path-effect
       effect="simplify"
       id="path-effect2516"
       is_visible="true"
       lpeversion="1"
       steps="1"
       threshold="0.0035951417"
       smooth_angles="0"
       helper_size="0"
       simplify_individual_paths="false"
       simplify_just_coalesce="false"
       step="1" />
    <inkscape:path-effect
       effect="powerstroke"
       id="path-effect2511"
       is_visible="true"
       lpeversion="1"
       offset_points="0.54072971,0.11975206"
       not_jump="true"
       sort_points="true"
       interpolator_type="CentripetalCatmullRom"
       interpolator_beta="0.75"
       start_linecap_type="round"
       linejoin_type="spiro"
       miter_limit="4"
       scale_width="1"
       end_linecap_type="round" />
    <inkscape:path-effect
       effect="simplify"
       id="path-effect2509"
       is_visible="true"
       lpeversion="1"
       steps="1"
       threshold="0.0035951417"
       smooth_angles="0"
       helper_size="0"
       simplify_individual_paths="false"
       simplify_just_coalesce="false"
       step="1" />
    <inkscape:path-effect
       effect="powerstroke"
       id="path-effect502"
       is_visible="true"
       lpeversion="1"
       offset_points="3.0091841,0.21607495 | 7.3602657,0.17554228 | 9.4159651,0.20236537"
       not_jump="true"
       sort_points="true"
       interpolator_type="CentripetalCatmullRom"
       interpolator_beta="0.75"
       start_linecap_type="round"
       linejoin_type="spiro"
       miter_limit="4"
       scale_width="1"
       end_linecap_type="round" />
    <inkscape:path-effect
       effect="simplify"
       id="path-effect500"
       is_visible="true"
       lpeversion="1"
       steps="1"
       threshold="0.0035951417"
       smooth_angles="0"
       helper_size="0"
       simplify_individual_paths="false"
       simplify_just_coalesce="false"
       step="1" />
    <inkscape:path-effect
       effect="powerstroke"
       id="path-effect241"
       is_visible="true"
       lpeversion="1"
       offset_points="2.6879454,0.34086734"
       not_jump="true"
       sort_points="true"
       interpolator_type="CentripetalCatmullRom"
       interpolator_beta="0.75"
       start_linecap_type="round"
       linejoin_type="spiro"
       miter_limit="4"
       scale_width="1"
       end_linecap_type="round" />
    <inkscape:path-effect
       effect="simplify"
       id="path-effect239"
       is_visible="true"
       lpeversion="1"
       steps="1"
       threshold="0.0028332064"
       smooth_angles="0"
       helper_size="0"
       simplify_individual_paths="false"
       simplify_just_coalesce="false"
       step="1" />
    <inkscape:path-effect
       effect="powerstroke"
       id="path-effect234"
       is_visible="true"
       lpeversion="1"
       offset_points="2.13563,0.075169555"
       not_jump="true"
       sort_points="true"
       interpolator_type="CentripetalCatmullRom"
       interpolator_beta="0.75"
       start_linecap_type="round"
       linejoin_type="spiro"
       miter_limit="4"
       scale_width="1"
       end_linecap_type="round" />
    <inkscape:path-effect
       effect="simplify"
       id="path-effect232"
       is_visible="true"
       lpeversion="1"
       steps="1"
       threshold="0.0028332064"
       smooth_angles="0"
       helper_size="0"
       simplify_individual_paths="false"
       simplify_just_coalesce="false"
       step="1" />
    <inkscape:path-effect
       effect="powerstroke"
       id="path-effect227"
       is_visible="true"
       lpeversion="1"
       offset_points="2.1868266,0.075169555"
       not_jump="true"
       sort_points="true"
       interpolator_type="CentripetalCatmullRom"
       interpolator_beta="0.75"
       start_linecap_type="round"
       linejoin_type="spiro"
       miter_limit="4"
       scale_width="1"
       end_linecap_type="round" />
    <inkscape:path-effect
       effect="simplify"
       id="path-effect225"
       is_visible="true"
       lpeversion="1"
       steps="1"
       threshold="0.0028332064"
       smooth_angles="0"
       helper_size="0"
       simplify_individual_paths="false"
       simplify_just_coalesce="false"
       step="1" />
    <inkscape:path-effect
       effect="powerstroke"
       id="path-effect166"
       is_visible="true"
       lpeversion="1"
       offset_points="1.9637935,0.075169555"
       not_jump="true"
       sort_points="true"
       interpolator_type="CentripetalCatmullRom"
       interpolator_beta="0.75"
       start_linecap_type="round"
       linejoin_type="spiro"
       miter_limit="4"
       scale_width="1"
       end_linecap_type="round" />
    <inkscape:path-effect
       effect="simplify"
       id="path-effect164"
       is_visible="true"
       lpeversion="1"
       steps="1"
       threshold="0.0028332064"
       smooth_angles="0"
       helper_size="0"
       simplify_individual_paths="false"
       simplify_just_coalesce="false"
       step="1" />
    <inkscape:path-effect
       effect="powerstroke"
       id="path-effect159"
       is_visible="true"
       lpeversion="1"
       offset_points="2.2611036,0.075169555"
       not_jump="true"
       sort_points="true"
       interpolator_type="CentripetalCatmullRom"
       interpolator_beta="0.75"
       start_linecap_type="round"
       linejoin_type="spiro"
       miter_limit="4"
       scale_width="1"
       end_linecap_type="round" />
    <inkscape:path-effect
       effect="simplify"
       id="path-effect157"
       is_visible="true"
       lpeversion="1"
       steps="1"
       threshold="0.0028332064"
       smooth_angles="0"
       helper_size="0"
       simplify_individual_paths="false"
       simplify_just_coalesce="false"
       step="1" />
    <inkscape:path-effect
       effect="powerstroke"
       id="path-effect152"
       is_visible="true"
       lpeversion="1"
       offset_points="2.826981,0.075169555"
       not_jump="true"
       sort_points="true"
       interpolator_type="CentripetalCatmullRom"
       interpolator_beta="0.75"
       start_linecap_type="round"
       linejoin_type="spiro"
       miter_limit="4"
       scale_width="1"
       end_linecap_type="round" />
    <inkscape:path-effect
       effect="simplify"
       id="path-effect150"
       is_visible="true"
       lpeversion="1"
       steps="1"
       threshold="0.0028332064"
       smooth_angles="0"
       helper_size="0"
       simplify_individual_paths="false"
       simplify_just_coalesce="false"
       step="1" />
    <inkscape:path-effect
       effect="powerstroke"
       id="path-effect145"
       is_visible="true"
       lpeversion="1"
       offset_points="3.8374447,0.075169555"
       not_jump="true"
       sort_points="true"
       interpolator_type="CentripetalCatmullRom"
       interpolator_beta="0.75"
       start_linecap_type="round"
       linejoin_type="spiro"
       miter_limit="4"
       scale_width="1"
       end_linecap_type="round" />
    <inkscape:path-effect
       effect="simplify"
       id="path-effect143"
       is_visible="true"
       lpeversion="1"
       steps="1"
       threshold="0.0028332064"
       smooth_angles="0"
       helper_size="0"
       simplify_individual_paths="false"
       simplify_just_coalesce="false"
       step="1" />
    <inkscape:path-effect
       effect="powerstroke"
       id="path-effect138"
       is_visible="true"
       lpeversion="1"
       offset_points="2.6880907,0.075169555"
       not_jump="true"
       sort_points="true"
       interpolator_type="CentripetalCatmullRom"
       interpolator_beta="0.75"
       start_linecap_type="round"
       linejoin_type="spiro"
       miter_limit="4"
       scale_width="1"
       end_linecap_type="round" />
    <inkscape:path-effect
       effect="simplify"
       id="path-effect136"
       is_visible="true"
       lpeversion="1"
       steps="1"
       threshold="0.0028332064"
       smooth_angles="0"
       helper_size="0"
       simplify_individual_paths="false"
       simplify_just_coalesce="false"
       step="1" />
    <inkscape:path-effect
       effect="powerstroke"
       id="path-effect131"
       is_visible="true"
       lpeversion="1"
       offset_points="1.9940581,0.075169555"
       not_jump="true"
       sort_points="true"
       interpolator_type="CentripetalCatmullRom"
       interpolator_beta="0.75"
       start_linecap_type="round"
       linejoin_type="spiro"
       miter_limit="4"
       scale_width="1"
       end_linecap_type="round" />
    <inkscape:path-effect
       effect="simplify"
       id="path-effect129"
       is_visible="true"
       lpeversion="1"
       steps="1"
       threshold="0.0028332064"
       smooth_angles="0"
       helper_size="0"
       simplify_individual_paths="false"
       simplify_just_coalesce="false"
       step="1" />
  </defs>
  <sodipodi:namedview
     id="base"
     pagecolor="#ffffff"
     bordercolor="#666666"
     borderopacity="1.0"
     inkscape:pageopacity="0.0"
     inkscape:pageshadow="2"
     inkscape:zoom="7.919596"
     inkscape:cx="-5.3033008"
     inkscape:cy="20.834396"
     inkscape:document-units="mm"
     inkscape:current-layer="layer1"
     showgrid="false"
     fit-margin-top="0"
     fit-margin-left="0"
     fit-margin-right="0"
     fit-margin-bottom="0"
     inkscape:window-width="1920"
     inkscape:window-height="974"
     inkscape:window-x="-11"
     inkscape:window-y="2869"
     inkscape:window-maximized="1"
     showguides="true"
     inkscape:guide-bbox="true"
     inkscape:snap-bbox="true"
     inkscape:bbox-nodes="true"
     inkscape:snap-nodes="false"
     inkscape:snap-others="false"
     inkscape:snap-page="true"
     inkscape:snap-grids="false"
     inkscape:snap-to-guides="false"
     inkscape:snap-global="false"
     inkscape:pagecheckerboard="0"
     inkscape:showpageshadow="2"
     inkscape:deskcolor="#d1d1d1">
    <sodipodi:guide
       position="-6.1806075,9.4988692"
       orientation="0,1"
       id="guide816"
       inkscape:locked="false" />
    <sodipodi:guide
       position="-4.4101636,10.646923"
       orientation="0,1"
       id="guide818"
       inkscape:locked="false" />
    <sodipodi:guide
       position="2.7595724,11.09577"
       orientation="1,0"
       id="guide820"
       inkscape:locked="false" />
    <sodipodi:guide
       position="3.6572659,10.942217"
       orientation="1,0"
       id="guide822"
       inkscape:locked="false" />
    <sodipodi:guide
       position="-0.051625511,9.7492299"
       orientation="1,0"
       id="guide1853"
       inkscape:locked="false" />
    <sodipodi:guide
       position="-2.3720169,3.0175835"
       orientation="0,1"
       id="guide1855"
       inkscape:locked="false" />
  </sodipodi:namedview>
  <metadata
     id="metadata1678">
    <rdf:RDF>
      <cc:Work
         rdf:about="">
        <dc:format>image/svg+xml</dc:format>
        <dc:type
           rdf:resource="http://purl.org/dc/dcmitype/StillImage" />
      </cc:Work>
    </rdf:RDF>
  </metadata>
  <g
     inkscape:label="Layer 1"
     inkscape:groupmode="layer"
     id="layer1"
     transform="translate(17.028496,-147.22856)">
    <path
       d="m -13.611384,148.80821 c -7.22e-4,-0.009 -0.0022,-0.0248 -0.0048,-0.047 -8.96e-4,-0.007 -0.0019,-0.0155 -0.003,-0.0233 -9.4e-4,-0.007 -0.002,-0.0141 -0.003,-0.0205 -3.28e-4,-0.002 -6.77e-4,-0.004 -0.001,-0.006 -9.17e-4,-0.005 -0.0013,-0.007 -0.0017,-0.009 -3.84e-4,-0.002 -9.84e-4,-0.004 -0.0018,-0.007 -4.03e-4,-0.001 -9.74e-4,-0.004 -0.0017,-0.006 -6.81e-4,-0.002 -0.0018,-0.006 -0.0035,-0.01 -0.0013,-0.003 -0.0047,-0.0111 -0.01052,-0.0201 -0.003,-0.005 -0.0082,-0.0119 -0.01603,-0.0197 -0.0074,-0.007 -0.02161,-0.0196 -0.04333,-0.0276 -0.01128,-0.004 -0.02464,-0.007 -0.03954,-0.007 -0.01498,-2.1e-4 -0.02957,0.002 -0.04307,0.007 -0.01323,0.005 -0.02406,0.0115 -0.03255,0.0182 -0.0084,0.007 -0.01468,0.0133 -0.01932,0.019 -0.0089,0.011 -0.01393,0.0212 -0.0166,0.0274 -0.0028,0.006 -0.0046,0.0121 -0.0057,0.0159 -0.002,0.007 -0.003,0.0133 -0.0034,0.0164 -4.77e-4,0.003 -7.29e-4,0.006 -8.72e-4,0.008 -2.77e-4,0.004 -3.37e-4,0.007 -3.5e-4,0.01 -1.5e-5,0.002 1.8e-5,0.005 6.6e-5,0.006 9.3e-5,0.004 2.75e-4,0.008 5.11e-4,0.012 4.46e-4,0.008 0.0012,0.0186 0.0023,0.0324 0.02396,0.29722 0.05385,0.64743 0.06295,0.98257 0.09572,2.11182 0.04904,3.2273 -0.08909,4.2563 a 0.11975206,0.11975206 90 0 0 0.237374,0.0319 c 0.140673,-1.04794 0.187074,-2.17873 0.09105,-4.29683 -0.0092,-0.3408 -0.03979,-0.69832 -0.06356,-0.99313 -0.001,-0.0128 -0.0016,-0.0212 -0.0019,-0.0265 -1.5e-4,-0.003 -2.09e-4,-0.004 -2.16e-4,-0.005 -2e-6,0.002 -2.1e-5,0.004 -2.3e-4,0.007 -1.08e-4,0.002 -3.19e-4,0.004 -7.48e-4,0.007 -3.79e-4,0.003 -0.0013,0.008 -0.0032,0.0156 -0.001,0.004 -0.0028,0.009 -0.0056,0.0156 -0.0026,0.006 -0.0077,0.0162 -0.0165,0.0272 -0.0046,0.006 -0.01092,0.0125 -0.01926,0.019 -0.0085,0.007 -0.01928,0.0133 -0.03249,0.0181 -0.01349,0.005 -0.02805,0.008 -0.04301,0.007 -0.01488,-2.1e-4 -0.02822,-0.003 -0.03948,-0.007 -0.02168,-0.008 -0.03589,-0.0202 -0.04319,-0.0275 -0.0078,-0.008 -0.01299,-0.0151 -0.01589,-0.0196 -0.0058,-0.009 -0.009,-0.0165 -0.01021,-0.0194 -0.0016,-0.004 -0.0026,-0.007 -0.0032,-0.009 -6.23e-4,-0.002 -0.0011,-0.004 -0.0013,-0.005 4e-6,0.002 7.34e-4,0.007 0.0015,0.0129 8.62e-4,0.006 0.0017,0.0131 0.0025,0.0196 0.0022,0.0183 0.0034,0.0319 0.0039,0.0376 a 0.11975206,0.11975206 90 0 0 0.23875,-0.019 z"
       id="path-1"
       inkscape:path-effect="#path-effect2509;#path-effect2511"
       inkscape:original-d="m -13.730759,148.81771 c -0.05021,-0.45394 0.04835,0.57714 0.04505,0.76599 0.06945,1.48013 0.11568,2.97749 -0.08209,4.44901"
       style="fill:#000000;fill-rule:nonzero;stroke:none;stroke-width:1.40389" />
    <path
       d="m -14.802993,151.61273 c 0.05862,-0.0196 0.154623,-0.0433 0.281833,-0.0379 0.09022,0.004 0.187699,0.022 0.286233,0.0581 0.138389,0.0501 0.267265,0.12133 0.391016,0.20353 0.04666,0.031 0.09196,0.0631 0.1356,0.0953 0.07463,0.0551 0.147707,0.11274 0.232874,0.18103 0.111374,0.0905 0.241777,0.19657 0.376847,0.29082 0.134478,0.0938 0.276198,0.17812 0.430443,0.242 0.163382,0.0668 0.295373,0.0884 0.37979,0.0965 a 0.12696605,0.12696605 90 0 0 0.02413,-0.25278 c -0.06505,-0.006 -0.171959,-0.0232 -0.307316,-0.0785 -0.131718,-0.0546 -0.257089,-0.12843 -0.381734,-0.21541 -0.126169,-0.088 -0.249386,-0.18814 -0.362679,-0.28018 -0.08642,-0.0693 -0.162709,-0.12954 -0.241557,-0.18774 -0.04621,-0.0341 -0.09501,-0.0687 -0.145907,-0.10255 -0.134648,-0.0894 -0.281901,-0.17167 -0.444553,-0.23058 -0.122842,-0.0451 -0.246206,-0.0683 -0.362435,-0.0733 -0.165071,-0.007 -0.29245,0.0238 -0.373083,0.0507 a 0.12696605,0.12696605 90 0 0 0.0805,0.24084 z"
       id="path-1-5"
       inkscape:path-effect="#path-effect2516;#path-effect2518"
       inkscape:original-d="m -14.843242,151.49231 c 0.598364,-0.19301 1.135257,0.26874 1.580179,0.62936 0.292791,0.23025 0.613611,0.45821 0.986771,0.49414"
       style="fill:#000000;fill-rule:nonzero;stroke:none;stroke-width:1.40389" />
  </g>
</svg>
