<?xml version="1.0" encoding="UTF-8" standalone="no"?>
<!-- Created with Inkscape (http://www.inkscape.org/) -->

<svg
   width="6mm"
   height="10mm"
   viewBox="0 0 6.0000001 9.9999994"
   version="1.1"
   id="svg1681"
   inkscape:version="1.2.1 (9c6d41e410, 2022-07-14)"
   sodipodi:docname="lower t 1.1.svg"
   inkscape:export-filename="..\..\..\..\Downloads\lower a diff canvas resize 3.0.png"
   inkscape:export-xdpi="96"
   inkscape:export-ydpi="96"
   xmlns:inkscape="http://www.inkscape.org/namespaces/inkscape"
   xmlns:sodipodi="http://sodipodi.sourceforge.net/DTD/sodipodi-0.dtd"
   xmlns="http://www.w3.org/2000/svg"
   xmlns:svg="http://www.w3.org/2000/svg"
   xmlns:rdf="http://www.w3.org/1999/02/22-rdf-syntax-ns#"
   xmlns:cc="http://creativecommons.org/ns#"
   xmlns:dc="http://purl.org/dc/elements/1.1/">
  <defs
     id="defs1675">
    <inkscape:path-effect
       effect="powerstroke"
       id="path-effect1657"
       is_visible="true"
       lpeversion="1"
       offset_points="2.0943089,0.087170086 | 9.4713174,0.10421746"
       not_jump="true"
       sort_points="true"
       interpolator_type="CentripetalCatmullRom"
       interpolator_beta="0.75"
       start_linecap_type="round"
       linejoin_type="spiro"
       miter_limit="4"
       scale_width="1"
       end_linecap_type="round" />
    <inkscape:path-effect
       effect="simplify"
       id="path-effect1655"
       is_visible="true"
       lpeversion="1"
       steps="1"
       threshold="0.0035951417"
       smooth_angles="0"
       helper_size="0"
       simplify_individual_paths="false"
       simplify_just_coalesce="false"
       step="1" />
    <inkscape:path-effect
       effect="powerstroke"
       id="path-effect1650"
       is_visible="true"
       lpeversion="1"
       offset_points="1.146207,0.073813378"
       not_jump="true"
       sort_points="true"
       interpolator_type="CentripetalCatmullRom"
       interpolator_beta="0.75"
       start_linecap_type="round"
       linejoin_type="spiro"
       miter_limit="4"
       scale_width="1"
       end_linecap_type="round" />
    <inkscape:path-effect
       effect="simplify"
       id="path-effect1648"
       is_visible="true"
       lpeversion="1"
       steps="1"
       threshold="0.0035951417"
       smooth_angles="0"
       helper_size="0"
       simplify_individual_paths="false"
       simplify_just_coalesce="false"
       step="1" />
    <inkscape:path-effect
       effect="powerstroke"
       id="path-effect502"
       is_visible="true"
       lpeversion="1"
       offset_points="3.0091841,0.21607495 | 7.3602657,0.17554228 | 9.4159651,0.20236537"
       not_jump="true"
       sort_points="true"
       interpolator_type="CentripetalCatmullRom"
       interpolator_beta="0.75"
       start_linecap_type="round"
       linejoin_type="spiro"
       miter_limit="4"
       scale_width="1"
       end_linecap_type="round" />
    <inkscape:path-effect
       effect="simplify"
       id="path-effect500"
       is_visible="true"
       lpeversion="1"
       steps="1"
       threshold="0.0035951417"
       smooth_angles="0"
       helper_size="0"
       simplify_individual_paths="false"
       simplify_just_coalesce="false"
       step="1" />
    <inkscape:path-effect
       effect="powerstroke"
       id="path-effect241"
       is_visible="true"
       lpeversion="1"
       offset_points="2.6879454,0.34086734"
       not_jump="true"
       sort_points="true"
       interpolator_type="CentripetalCatmullRom"
       interpolator_beta="0.75"
       start_linecap_type="round"
       linejoin_type="spiro"
       miter_limit="4"
       scale_width="1"
       end_linecap_type="round" />
    <inkscape:path-effect
       effect="simplify"
       id="path-effect239"
       is_visible="true"
       lpeversion="1"
       steps="1"
       threshold="0.0028332064"
       smooth_angles="0"
       helper_size="0"
       simplify_individual_paths="false"
       simplify_just_coalesce="false"
       step="1" />
    <inkscape:path-effect
       effect="powerstroke"
       id="path-effect234"
       is_visible="true"
       lpeversion="1"
       offset_points="2.13563,0.075169555"
       not_jump="true"
       sort_points="true"
       interpolator_type="CentripetalCatmullRom"
       interpolator_beta="0.75"
       start_linecap_type="round"
       linejoin_type="spiro"
       miter_limit="4"
       scale_width="1"
       end_linecap_type="round" />
    <inkscape:path-effect
       effect="simplify"
       id="path-effect232"
       is_visible="true"
       lpeversion="1"
       steps="1"
       threshold="0.0028332064"
       smooth_angles="0"
       helper_size="0"
       simplify_individual_paths="false"
       simplify_just_coalesce="false"
       step="1" />
    <inkscape:path-effect
       effect="powerstroke"
       id="path-effect227"
       is_visible="true"
       lpeversion="1"
       offset_points="2.1868266,0.075169555"
       not_jump="true"
       sort_points="true"
       interpolator_type="CentripetalCatmullRom"
       interpolator_beta="0.75"
       start_linecap_type="round"
       linejoin_type="spiro"
       miter_limit="4"
       scale_width="1"
       end_linecap_type="round" />
    <inkscape:path-effect
       effect="simplify"
       id="path-effect225"
       is_visible="true"
       lpeversion="1"
       steps="1"
       threshold="0.0028332064"
       smooth_angles="0"
       helper_size="0"
       simplify_individual_paths="false"
       simplify_just_coalesce="false"
       step="1" />
    <inkscape:path-effect
       effect="powerstroke"
       id="path-effect166"
       is_visible="true"
       lpeversion="1"
       offset_points="1.9637935,0.075169555"
       not_jump="true"
       sort_points="true"
       interpolator_type="CentripetalCatmullRom"
       interpolator_beta="0.75"
       start_linecap_type="round"
       linejoin_type="spiro"
       miter_limit="4"
       scale_width="1"
       end_linecap_type="round" />
    <inkscape:path-effect
       effect="simplify"
       id="path-effect164"
       is_visible="true"
       lpeversion="1"
       steps="1"
       threshold="0.0028332064"
       smooth_angles="0"
       helper_size="0"
       simplify_individual_paths="false"
       simplify_just_coalesce="false"
       step="1" />
    <inkscape:path-effect
       effect="powerstroke"
       id="path-effect159"
       is_visible="true"
       lpeversion="1"
       offset_points="2.2611036,0.075169555"
       not_jump="true"
       sort_points="true"
       interpolator_type="CentripetalCatmullRom"
       interpolator_beta="0.75"
       start_linecap_type="round"
       linejoin_type="spiro"
       miter_limit="4"
       scale_width="1"
       end_linecap_type="round" />
    <inkscape:path-effect
       effect="simplify"
       id="path-effect157"
       is_visible="true"
       lpeversion="1"
       steps="1"
       threshold="0.0028332064"
       smooth_angles="0"
       helper_size="0"
       simplify_individual_paths="false"
       simplify_just_coalesce="false"
       step="1" />
    <inkscape:path-effect
       effect="powerstroke"
       id="path-effect152"
       is_visible="true"
       lpeversion="1"
       offset_points="2.826981,0.075169555"
       not_jump="true"
       sort_points="true"
       interpolator_type="CentripetalCatmullRom"
       interpolator_beta="0.75"
       start_linecap_type="round"
       linejoin_type="spiro"
       miter_limit="4"
       scale_width="1"
       end_linecap_type="round" />
    <inkscape:path-effect
       effect="simplify"
       id="path-effect150"
       is_visible="true"
       lpeversion="1"
       steps="1"
       threshold="0.0028332064"
       smooth_angles="0"
       helper_size="0"
       simplify_individual_paths="false"
       simplify_just_coalesce="false"
       step="1" />
    <inkscape:path-effect
       effect="powerstroke"
       id="path-effect145"
       is_visible="true"
       lpeversion="1"
       offset_points="3.8374447,0.075169555"
       not_jump="true"
       sort_points="true"
       interpolator_type="CentripetalCatmullRom"
       interpolator_beta="0.75"
       start_linecap_type="round"
       linejoin_type="spiro"
       miter_limit="4"
       scale_width="1"
       end_linecap_type="round" />
    <inkscape:path-effect
       effect="simplify"
       id="path-effect143"
       is_visible="true"
       lpeversion="1"
       steps="1"
       threshold="0.0028332064"
       smooth_angles="0"
       helper_size="0"
       simplify_individual_paths="false"
       simplify_just_coalesce="false"
       step="1" />
    <inkscape:path-effect
       effect="powerstroke"
       id="path-effect138"
       is_visible="true"
       lpeversion="1"
       offset_points="2.6880907,0.075169555"
       not_jump="true"
       sort_points="true"
       interpolator_type="CentripetalCatmullRom"
       interpolator_beta="0.75"
       start_linecap_type="round"
       linejoin_type="spiro"
       miter_limit="4"
       scale_width="1"
       end_linecap_type="round" />
    <inkscape:path-effect
       effect="simplify"
       id="path-effect136"
       is_visible="true"
       lpeversion="1"
       steps="1"
       threshold="0.0028332064"
       smooth_angles="0"
       helper_size="0"
       simplify_individual_paths="false"
       simplify_just_coalesce="false"
       step="1" />
    <inkscape:path-effect
       effect="powerstroke"
       id="path-effect131"
       is_visible="true"
       lpeversion="1"
       offset_points="1.9940581,0.075169555"
       not_jump="true"
       sort_points="true"
       interpolator_type="CentripetalCatmullRom"
       interpolator_beta="0.75"
       start_linecap_type="round"
       linejoin_type="spiro"
       miter_limit="4"
       scale_width="1"
       end_linecap_type="round" />
    <inkscape:path-effect
       effect="simplify"
       id="path-effect129"
       is_visible="true"
       lpeversion="1"
       steps="1"
       threshold="0.0028332064"
       smooth_angles="0"
       helper_size="0"
       simplify_individual_paths="false"
       simplify_just_coalesce="false"
       step="1" />
  </defs>
  <sodipodi:namedview
     id="base"
     pagecolor="#ffffff"
     bordercolor="#666666"
     borderopacity="1.0"
     inkscape:pageopacity="0.0"
     inkscape:pageshadow="2"
     inkscape:zoom="7.919596"
     inkscape:cx="-5.3033008"
     inkscape:cy="20.834396"
     inkscape:document-units="mm"
     inkscape:current-layer="layer1"
     showgrid="false"
     fit-margin-top="0"
     fit-margin-left="0"
     fit-margin-right="0"
     fit-margin-bottom="0"
     inkscape:window-width="1280"
     inkscape:window-height="649"
     inkscape:window-x="-8"
     inkscape:window-y="1912"
     inkscape:window-maximized="1"
     showguides="true"
     inkscape:guide-bbox="true"
     inkscape:snap-bbox="true"
     inkscape:bbox-nodes="true"
     inkscape:snap-nodes="false"
     inkscape:snap-others="false"
     inkscape:snap-page="true"
     inkscape:snap-grids="false"
     inkscape:snap-to-guides="false"
     inkscape:snap-global="false"
     inkscape:pagecheckerboard="0"
     inkscape:showpageshadow="2"
     inkscape:deskcolor="#d1d1d1">
    <sodipodi:guide
       position="-6.1806075,9.4988692"
       orientation="0,1"
       id="guide816"
       inkscape:locked="false" />
    <sodipodi:guide
       position="-4.4101636,10.646923"
       orientation="0,1"
       id="guide818"
       inkscape:locked="false" />
    <sodipodi:guide
       position="2.7595724,11.09577"
       orientation="1,0"
       id="guide820"
       inkscape:locked="false" />
    <sodipodi:guide
       position="3.6572659,10.942217"
       orientation="1,0"
       id="guide822"
       inkscape:locked="false" />
    <sodipodi:guide
       position="-0.051625511,9.7492299"
       orientation="1,0"
       id="guide1853"
       inkscape:locked="false" />
    <sodipodi:guide
       position="-2.3720169,3.0175835"
       orientation="0,1"
       id="guide1855"
       inkscape:locked="false" />
  </sodipodi:namedview>
  <metadata
     id="metadata1678">
    <rdf:RDF>
      <cc:Work
         rdf:about="">
        <dc:format>image/svg+xml</dc:format>
        <dc:type
           rdf:resource="http://purl.org/dc/dcmitype/StillImage" />
      </cc:Work>
    </rdf:RDF>
  </metadata>
  <g
     inkscape:label="Layer 1"
     inkscape:groupmode="layer"
     id="layer1"
     transform="translate(17.028496,-147.22856)">
    <path
       d="m -13.764421,150.41935 c 0.05522,0.42231 0.153002,1.33406 0.01838,2.37303 -0.125078,0.9653 -0.468973,1.78312 -0.468973,1.78312 0,0 0.159344,-0.42201 0.186894,-0.50761 a 0.07381338,0.07381338 90 0 0 0.140528,0.0452 c -0.02816,0.0875 -0.191155,0.51918 -0.191155,0.51918 0,0 0.351665,-0.83737 0.479109,-1.82094 0.137042,-1.05763 0.03744,-1.98407 -0.0184,-2.41114 a 0.07381338,0.07381338 90 0 0 -0.14638,0.0191 z"
       id="path-1"
       inkscape:path-effect="#path-effect1648;#path-effect1650"
       inkscape:original-d="m -13.691231,150.40978 c 0.161027,1.22693 0.113167,2.50301 -0.266627,3.68072"
       style="fill:#000000;fill-rule:nonzero;stroke:none;stroke-width:1.19706" />
    <path
       d="m -14.716609,151.69353 c 0.0099,0.0198 0.02594,0.0415 0.05091,0.0591 0.01869,0.0131 0.04051,0.0226 0.0645,0.0275 0.02039,0.004 0.04207,0.005 0.06394,0.002 0.01966,-0.002 0.04021,-0.008 0.06003,-0.0171 0.02554,-0.0112 0.05933,-0.0291 0.08984,-0.0552 0.01455,-0.0124 0.0291,-0.0274 0.04188,-0.0451 0.0125,-0.0174 0.02336,-0.0376 0.03068,-0.0607 0.0016,-0.005 0.003,-0.01 0.0036,-0.015 6.34e-4,-0.005 4.86e-4,-0.0103 2.39e-4,-0.0154 -5.86e-4,-0.0122 -0.0028,-0.0253 -0.0076,-0.0385 -0.0015,-0.004 -0.0034,-0.008 -0.0055,-0.0127 -0.0086,-0.0171 -0.02098,-0.0315 -0.03633,-0.0424 -0.0141,-0.0101 -0.02886,-0.0159 -0.04213,-0.0193 -0.01255,-0.003 -0.02455,-0.004 -0.03503,-0.005 -0.0194,-5.1e-4 -0.03793,0.002 -0.05227,0.005 -0.007,0.001 -0.01362,0.003 -0.01923,0.004 -0.0056,0.001 -0.0099,0.002 -0.0132,0.003 -0.02936,0.006 -0.06211,0.0167 -0.09322,0.0351 -0.02933,0.0173 -0.0587,0.0422 -0.0807,0.0774 -0.0024,0.004 -0.0048,0.008 -0.0065,0.0122 -0.0018,0.004 -0.0029,0.009 -0.0041,0.0132 -0.0041,0.0161 -0.0058,0.0338 -0.0031,0.0523 0.0026,0.0185 0.0092,0.0354 0.0186,0.05 0.0091,0.0142 0.02,0.0251 0.03052,0.0334 0.01037,0.008 0.02097,0.0143 0.03055,0.0189 0.01855,0.009 0.03735,0.0143 0.05196,0.0177 0.01476,0.003 0.02859,0.006 0.03738,0.007 0.0021,3.5e-4 0.0042,5.7e-4 0.0063,6.3e-4 0.0021,7e-5 0.0042,1.4e-4 0.0063,3.3e-4 0.0013,1.2e-4 0.0049,3.7e-4 0.0096,7.6e-4 0.0044,3.6e-4 0.01089,9.1e-4 0.01727,0.001 0.01255,8.7e-4 0.03057,0.002 0.04925,2.1e-4 0.0096,-8e-4 0.02072,-0.002 0.03247,-0.005 0.01168,-0.003 0.02557,-0.008 0.03949,-0.0169 0.0143,-0.009 0.02854,-0.0217 0.03968,-0.0392 0.01121,-0.0176 0.01719,-0.0368 0.01915,-0.0558 0.0011,-0.0103 0.0016,-0.0209 -7.23e-4,-0.031 -0.0024,-0.0101 -0.0074,-0.0193 -0.01277,-0.0283 -0.0075,-0.0126 -0.01662,-0.0243 -0.0275,-0.0346 -0.01094,-0.0104 -0.02301,-0.0189 -0.0358,-0.0254 -0.01276,-0.007 -0.02558,-0.0109 -0.03781,-0.0136 -0.0122,-0.003 -0.02383,-0.004 -0.03437,-0.004 -0.02073,-5.9e-4 -0.03975,0.002 -0.05413,0.005 -0.0086,0.002 -0.01793,0.004 -0.02559,0.005 -0.0069,4.7e-4 -0.01342,0.001 -0.01945,0.003 -0.01063,0.002 -0.02064,0.005 -0.02982,0.01 -0.0092,0.004 -0.01846,0.009 -0.02719,0.0155 -0.0086,0.006 -0.01833,0.0148 -0.02701,0.0261 -0.0085,0.0112 -0.0188,0.0287 -0.02236,0.052 -0.0018,0.0121 -0.0018,0.0254 0.0011,0.0391 0.003,0.0139 0.0085,0.0266 0.01579,0.0376 0.0073,0.011 0.01569,0.0195 0.02385,0.026 0.0082,0.007 0.01635,0.0113 0.02366,0.0148 0.01441,0.007 0.02855,0.0104 0.03999,0.0123 0.0564,0.0151 0.121033,0.0249 0.177633,0.032 0.06478,0.008 0.123374,0.0137 0.175126,0.0204 0.0522,0.007 0.08881,0.0119 0.131666,0.0171 0.0535,0.007 0.103129,0.0119 0.151947,0.0156 0.682389,0.0605 1.31996,0.0259 1.578329,0.0107 a 0.10421746,0.10421746 90 0 0 -0.01224,-0.20808 c -0.256633,0.0151 -0.881485,0.048 -1.548881,-0.011 -0.04631,-0.004 -0.09262,-0.008 -0.144583,-0.0142 -0.03772,-0.004 -0.08147,-0.01 -0.130656,-0.0155 -0.05643,-0.007 -0.115941,-0.0116 -0.176284,-0.0185 -0.0535,-0.006 -0.108234,-0.0138 -0.161158,-0.0268 -0.0085,-0.002 -0.0026,-5.7e-4 0.0051,0.003 0.0041,0.002 0.0096,0.005 0.01548,0.01 0.0059,0.005 0.01263,0.0114 0.01858,0.0204 0.006,0.009 0.01069,0.0198 0.01319,0.0316 0.0025,0.0117 0.0025,0.0229 9.43e-4,0.0328 -0.0029,0.0191 -0.01112,0.0322 -0.01643,0.0391 -0.0055,0.007 -0.01086,0.0115 -0.01433,0.0139 -0.0036,0.003 -0.0069,0.004 -0.0097,0.005 -0.0028,0.001 -0.006,0.002 -0.0096,0.003 -0.0035,6.5e-4 -0.0084,0.001 -0.01429,8.7e-4 l 0.02731,-0.003 c 0.01286,-0.003 0.01955,-0.005 0.0283,-0.007 0.0071,-0.002 0.01186,-0.002 0.01216,-0.002 -0.0049,-0.001 -0.0079,-0.002 -0.01126,-0.004 -0.0035,-0.002 -0.0067,-0.004 -0.0094,-0.007 -0.0026,-0.003 -0.0042,-0.005 -0.0048,-0.006 -0.0046,-0.009 -0.0095,-0.0185 -0.01216,-0.0285 -0.0027,-0.01 -0.0025,-0.0205 -0.0013,-0.0308 8.76e-4,-0.008 0.0036,-0.0176 0.0099,-0.0274 0.0062,-0.01 0.01387,-0.0162 0.02028,-0.0201 0.0061,-0.004 0.01071,-0.005 0.01237,-0.005 0.0011,-2.4e-4 0.0025,-2.3e-4 8.8e-5,1.6e-4 -0.0039,6.4e-4 -0.01104,8.3e-4 -0.0214,5.1e-4 -0.0053,-1.6e-4 -0.01,-3.8e-4 -0.01607,-6.3e-4 -0.0041,-1.7e-4 -0.0091,-3.5e-4 -0.01421,-4.1e-4 -0.0059,-7.5e-4 -0.01126,-0.002 -0.0166,-0.003 -0.0071,-0.001 -0.01263,-0.003 -0.0131,-0.003 -2.36e-4,1e-5 8.79e-4,5.5e-4 0.0034,0.003 0.0025,0.002 0.0066,0.006 0.01049,0.0121 0.0041,0.007 0.0072,0.0144 0.0083,0.023 0.0011,0.008 1.02e-4,0.0149 -9.38e-4,0.0187 -0.0012,0.004 -0.0026,0.009 -0.0045,0.013 -0.0018,0.004 -0.004,0.008 -0.0062,0.0124 0.0031,-0.006 0.0088,-0.0123 0.0185,-0.0187 0.01041,-0.007 0.02328,-0.0119 0.03657,-0.0151 0.005,-0.001 0.01109,-0.003 0.01518,-0.004 0.0049,-0.001 0.0092,-0.002 0.01338,-0.003 0.01058,-0.002 0.01306,-0.002 0.0162,-0.002 5.3e-4,-7e-5 -6.36e-4,-3e-5 -0.004,-9.3e-4 -0.0034,-9.2e-4 -0.0095,-0.003 -0.01641,-0.008 -0.0077,-0.006 -0.0141,-0.013 -0.01834,-0.0215 -0.001,-0.002 -0.0018,-0.004 -0.0025,-0.006 -0.0021,-0.006 -0.0026,-0.0104 -0.0027,-0.0128 -1.95e-4,-0.005 -2.57e-4,-0.0103 4.11e-4,-0.0154 6.69e-4,-0.005 0.002,-0.0101 0.0034,-0.015 -0.001,0.004 -0.0028,0.007 -0.0058,0.0116 -0.0031,0.004 -0.0076,0.009 -0.01347,0.0145 -0.01295,0.0112 -0.03014,0.0209 -0.0482,0.0288 -0.0039,0.002 -0.0068,0.003 -0.01,0.003 -0.0034,3.9e-4 -0.006,8e-5 -0.0073,-2.4e-4 -0.0014,-3.4e-4 -9.38e-4,-5.7e-4 5.72e-4,4.4e-4 0.0022,0.001 0.0037,0.004 0.0044,0.005 a 0.08717009,0.08717009 90 0 0 -0.1558,0.0782 z"
       id="path-1-6"
       inkscape:path-effect="#path-effect1655;#path-effect1657"
       inkscape:original-d="m -14.638709,151.65441 c 0.09522,0.16346 0.434426,-0.20142 0.09085,-0.0872 -0.266764,0.14914 0.292411,0.16375 0.08626,0.0612 -0.379304,0.0555 0.258376,0.0933 0.358269,0.11438 0.578018,0.0643 1.160775,0.0626 1.740476,0.0285"
       style="fill:#000000;fill-rule:nonzero;stroke:none;stroke-width:1.19706" />
  </g>
</svg>
