<?xml version="1.0" encoding="UTF-8" standalone="no"?>
<!-- Created with Inkscape (http://www.inkscape.org/) -->

<svg
   width="6mm"
   height="10mm"
   viewBox="0 0 6.0000001 9.9999994"
   version="1.1"
   id="svg1681"
   inkscape:version="1.2.1 (9c6d41e410, 2022-07-14)"
   sodipodi:docname="number eight 1.5.svg"
   inkscape:export-filename="..\..\..\..\Downloads\lower a diff canvas resize 3.0.png"
   inkscape:export-xdpi="96"
   inkscape:export-ydpi="96"
   xmlns:inkscape="http://www.inkscape.org/namespaces/inkscape"
   xmlns:sodipodi="http://sodipodi.sourceforge.net/DTD/sodipodi-0.dtd"
   xmlns="http://www.w3.org/2000/svg"
   xmlns:svg="http://www.w3.org/2000/svg"
   xmlns:rdf="http://www.w3.org/1999/02/22-rdf-syntax-ns#"
   xmlns:cc="http://creativecommons.org/ns#"
   xmlns:dc="http://purl.org/dc/elements/1.1/">
  <defs
     id="defs1675">
    <inkscape:path-effect
       effect="powerstroke"
       id="path-effect4526"
       is_visible="true"
       lpeversion="1"
       offset_points="2.9865946,0.11668938 | 5.2780088,0.10161553 | 11.370961,0.12786177"
       not_jump="true"
       sort_points="true"
       interpolator_type="CentripetalCatmullRom"
       interpolator_beta="0.75"
       start_linecap_type="round"
       linejoin_type="spiro"
       miter_limit="4"
       scale_width="1"
       end_linecap_type="round" />
    <inkscape:path-effect
       effect="simplify"
       id="path-effect4524"
       is_visible="true"
       lpeversion="1"
       steps="1"
       threshold="0.0035951417"
       smooth_angles="0"
       helper_size="0"
       simplify_individual_paths="false"
       simplify_just_coalesce="false"
       step="1" />
    <inkscape:path-effect
       effect="powerstroke"
       id="path-effect502"
       is_visible="true"
       lpeversion="1"
       offset_points="3.0091841,0.21607495 | 7.3602657,0.17554228 | 9.4159651,0.20236537"
       not_jump="true"
       sort_points="true"
       interpolator_type="CentripetalCatmullRom"
       interpolator_beta="0.75"
       start_linecap_type="round"
       linejoin_type="spiro"
       miter_limit="4"
       scale_width="1"
       end_linecap_type="round" />
    <inkscape:path-effect
       effect="simplify"
       id="path-effect500"
       is_visible="true"
       lpeversion="1"
       steps="1"
       threshold="0.0035951417"
       smooth_angles="0"
       helper_size="0"
       simplify_individual_paths="false"
       simplify_just_coalesce="false"
       step="1" />
    <inkscape:path-effect
       effect="powerstroke"
       id="path-effect241"
       is_visible="true"
       lpeversion="1"
       offset_points="2.6879454,0.34086734"
       not_jump="true"
       sort_points="true"
       interpolator_type="CentripetalCatmullRom"
       interpolator_beta="0.75"
       start_linecap_type="round"
       linejoin_type="spiro"
       miter_limit="4"
       scale_width="1"
       end_linecap_type="round" />
    <inkscape:path-effect
       effect="simplify"
       id="path-effect239"
       is_visible="true"
       lpeversion="1"
       steps="1"
       threshold="0.0028332064"
       smooth_angles="0"
       helper_size="0"
       simplify_individual_paths="false"
       simplify_just_coalesce="false"
       step="1" />
    <inkscape:path-effect
       effect="powerstroke"
       id="path-effect234"
       is_visible="true"
       lpeversion="1"
       offset_points="2.13563,0.075169555"
       not_jump="true"
       sort_points="true"
       interpolator_type="CentripetalCatmullRom"
       interpolator_beta="0.75"
       start_linecap_type="round"
       linejoin_type="spiro"
       miter_limit="4"
       scale_width="1"
       end_linecap_type="round" />
    <inkscape:path-effect
       effect="simplify"
       id="path-effect232"
       is_visible="true"
       lpeversion="1"
       steps="1"
       threshold="0.0028332064"
       smooth_angles="0"
       helper_size="0"
       simplify_individual_paths="false"
       simplify_just_coalesce="false"
       step="1" />
    <inkscape:path-effect
       effect="powerstroke"
       id="path-effect227"
       is_visible="true"
       lpeversion="1"
       offset_points="2.1868266,0.075169555"
       not_jump="true"
       sort_points="true"
       interpolator_type="CentripetalCatmullRom"
       interpolator_beta="0.75"
       start_linecap_type="round"
       linejoin_type="spiro"
       miter_limit="4"
       scale_width="1"
       end_linecap_type="round" />
    <inkscape:path-effect
       effect="simplify"
       id="path-effect225"
       is_visible="true"
       lpeversion="1"
       steps="1"
       threshold="0.0028332064"
       smooth_angles="0"
       helper_size="0"
       simplify_individual_paths="false"
       simplify_just_coalesce="false"
       step="1" />
    <inkscape:path-effect
       effect="powerstroke"
       id="path-effect166"
       is_visible="true"
       lpeversion="1"
       offset_points="1.9637935,0.075169555"
       not_jump="true"
       sort_points="true"
       interpolator_type="CentripetalCatmullRom"
       interpolator_beta="0.75"
       start_linecap_type="round"
       linejoin_type="spiro"
       miter_limit="4"
       scale_width="1"
       end_linecap_type="round" />
    <inkscape:path-effect
       effect="simplify"
       id="path-effect164"
       is_visible="true"
       lpeversion="1"
       steps="1"
       threshold="0.0028332064"
       smooth_angles="0"
       helper_size="0"
       simplify_individual_paths="false"
       simplify_just_coalesce="false"
       step="1" />
    <inkscape:path-effect
       effect="powerstroke"
       id="path-effect159"
       is_visible="true"
       lpeversion="1"
       offset_points="2.2611036,0.075169555"
       not_jump="true"
       sort_points="true"
       interpolator_type="CentripetalCatmullRom"
       interpolator_beta="0.75"
       start_linecap_type="round"
       linejoin_type="spiro"
       miter_limit="4"
       scale_width="1"
       end_linecap_type="round" />
    <inkscape:path-effect
       effect="simplify"
       id="path-effect157"
       is_visible="true"
       lpeversion="1"
       steps="1"
       threshold="0.0028332064"
       smooth_angles="0"
       helper_size="0"
       simplify_individual_paths="false"
       simplify_just_coalesce="false"
       step="1" />
    <inkscape:path-effect
       effect="powerstroke"
       id="path-effect152"
       is_visible="true"
       lpeversion="1"
       offset_points="2.826981,0.075169555"
       not_jump="true"
       sort_points="true"
       interpolator_type="CentripetalCatmullRom"
       interpolator_beta="0.75"
       start_linecap_type="round"
       linejoin_type="spiro"
       miter_limit="4"
       scale_width="1"
       end_linecap_type="round" />
    <inkscape:path-effect
       effect="simplify"
       id="path-effect150"
       is_visible="true"
       lpeversion="1"
       steps="1"
       threshold="0.0028332064"
       smooth_angles="0"
       helper_size="0"
       simplify_individual_paths="false"
       simplify_just_coalesce="false"
       step="1" />
    <inkscape:path-effect
       effect="powerstroke"
       id="path-effect145"
       is_visible="true"
       lpeversion="1"
       offset_points="3.8374447,0.075169555"
       not_jump="true"
       sort_points="true"
       interpolator_type="CentripetalCatmullRom"
       interpolator_beta="0.75"
       start_linecap_type="round"
       linejoin_type="spiro"
       miter_limit="4"
       scale_width="1"
       end_linecap_type="round" />
    <inkscape:path-effect
       effect="simplify"
       id="path-effect143"
       is_visible="true"
       lpeversion="1"
       steps="1"
       threshold="0.0028332064"
       smooth_angles="0"
       helper_size="0"
       simplify_individual_paths="false"
       simplify_just_coalesce="false"
       step="1" />
    <inkscape:path-effect
       effect="powerstroke"
       id="path-effect138"
       is_visible="true"
       lpeversion="1"
       offset_points="2.6880907,0.075169555"
       not_jump="true"
       sort_points="true"
       interpolator_type="CentripetalCatmullRom"
       interpolator_beta="0.75"
       start_linecap_type="round"
       linejoin_type="spiro"
       miter_limit="4"
       scale_width="1"
       end_linecap_type="round" />
    <inkscape:path-effect
       effect="simplify"
       id="path-effect136"
       is_visible="true"
       lpeversion="1"
       steps="1"
       threshold="0.0028332064"
       smooth_angles="0"
       helper_size="0"
       simplify_individual_paths="false"
       simplify_just_coalesce="false"
       step="1" />
    <inkscape:path-effect
       effect="powerstroke"
       id="path-effect131"
       is_visible="true"
       lpeversion="1"
       offset_points="1.9940581,0.075169555"
       not_jump="true"
       sort_points="true"
       interpolator_type="CentripetalCatmullRom"
       interpolator_beta="0.75"
       start_linecap_type="round"
       linejoin_type="spiro"
       miter_limit="4"
       scale_width="1"
       end_linecap_type="round" />
    <inkscape:path-effect
       effect="simplify"
       id="path-effect129"
       is_visible="true"
       lpeversion="1"
       steps="1"
       threshold="0.0028332064"
       smooth_angles="0"
       helper_size="0"
       simplify_individual_paths="false"
       simplify_just_coalesce="false"
       step="1" />
  </defs>
  <sodipodi:namedview
     id="base"
     pagecolor="#ffffff"
     bordercolor="#666666"
     borderopacity="1.0"
     inkscape:pageopacity="0.0"
     inkscape:pageshadow="2"
     inkscape:zoom="7.919596"
     inkscape:cx="-5.3033008"
     inkscape:cy="20.834396"
     inkscape:document-units="mm"
     inkscape:current-layer="layer1"
     showgrid="false"
     fit-margin-top="0"
     fit-margin-left="0"
     fit-margin-right="0"
     fit-margin-bottom="0"
     inkscape:window-width="1920"
     inkscape:window-height="974"
     inkscape:window-x="-11"
     inkscape:window-y="2869"
     inkscape:window-maximized="1"
     showguides="true"
     inkscape:guide-bbox="true"
     inkscape:snap-bbox="true"
     inkscape:bbox-nodes="true"
     inkscape:snap-nodes="false"
     inkscape:snap-others="false"
     inkscape:snap-page="true"
     inkscape:snap-grids="false"
     inkscape:snap-to-guides="false"
     inkscape:snap-global="false"
     inkscape:pagecheckerboard="0"
     inkscape:showpageshadow="2"
     inkscape:deskcolor="#d1d1d1">
    <sodipodi:guide
       position="-6.1806075,9.4988692"
       orientation="0,1"
       id="guide816"
       inkscape:locked="false" />
    <sodipodi:guide
       position="-4.4101636,10.646923"
       orientation="0,1"
       id="guide818"
       inkscape:locked="false" />
    <sodipodi:guide
       position="2.7595724,11.09577"
       orientation="1,0"
       id="guide820"
       inkscape:locked="false" />
    <sodipodi:guide
       position="3.6572659,10.942217"
       orientation="1,0"
       id="guide822"
       inkscape:locked="false" />
    <sodipodi:guide
       position="-0.051625511,9.7492299"
       orientation="1,0"
       id="guide1853"
       inkscape:locked="false" />
    <sodipodi:guide
       position="-2.3720169,3.0175835"
       orientation="0,1"
       id="guide1855"
       inkscape:locked="false" />
  </sodipodi:namedview>
  <metadata
     id="metadata1678">
    <rdf:RDF>
      <cc:Work
         rdf:about="">
        <dc:format>image/svg+xml</dc:format>
        <dc:type
           rdf:resource="http://purl.org/dc/dcmitype/StillImage" />
      </cc:Work>
    </rdf:RDF>
  </metadata>
  <g
     inkscape:label="Layer 1"
     inkscape:groupmode="layer"
     id="layer1"
     transform="translate(17.028496,-147.22856)">
    <path
       d="m -13.821808,148.94038 c -0.141327,0.0529 -0.240094,0.0699 -0.499874,0.12575 -0.08165,0.0176 -0.175433,0.0391 -0.268283,0.0684 -0.08617,0.0272 -0.177197,0.0627 -0.266874,0.11289 -0.08169,0.0438 -0.158801,0.11162 -0.214062,0.19828 -0.02669,0.0419 -0.0482,0.088 -0.06237,0.13753 -0.01418,0.0495 -0.02085,0.10183 -0.0183,0.15554 -0.0017,0.0423 0.0044,0.0909 0.01492,0.13598 0.01078,0.0462 0.02625,0.0892 0.04283,0.12803 0.03173,0.0744 0.08049,0.16014 0.106075,0.20873 9.08e-4,0.002 0.0018,0.003 0.0027,0.005 0.244101,0.4415 0.583921,0.82402 0.865163,1.1441 0.318533,0.36253 0.616351,0.70226 0.838595,1.09971 0.09166,0.15644 0.171145,0.3359 0.242508,0.55413 0.0018,0.005 0.0039,0.0108 0.0066,0.0159 0.03327,0.0634 0.05652,0.13514 0.06723,0.21341 0.0078,0.0572 0.009,0.11863 0.002,0.18249 -0.0142,0.12837 -0.06194,0.26515 -0.149023,0.38169 -0.04524,0.062 -0.108963,0.11468 -0.184313,0.1464 -0.03539,0.0149 -0.07267,0.0248 -0.110538,0.0288 -0.03681,0.004 -0.07416,0.002 -0.11099,-0.007 -0.106398,-0.0261 -0.210038,-0.0756 -0.306482,-0.14388 -0.09423,-0.0667 -0.179733,-0.14987 -0.253011,-0.24242 -0.134184,-0.17338 -0.225894,-0.37587 -0.284027,-0.59198 -0.05864,-0.21799 -0.08247,-0.44749 -0.08318,-0.6713 -0.0013,-0.17058 0.01815,-0.32393 0.0649,-0.46314 0.09879,-0.33937 0.274401,-0.65873 0.43048,-0.95876 0.08639,-0.16606 0.167105,-0.32603 0.236789,-0.49202 0.0745,-0.17747 0.132619,-0.35323 0.168632,-0.53486 0.01559,-0.0738 0.02759,-0.14695 0.03114,-0.22024 0.0013,-0.0276 0.0015,-0.0557 4.8e-5,-0.0838 -0.0029,-0.056 -0.01201,-0.11245 -0.03055,-0.16739 -0.01955,-0.0579 -0.04888,-0.11209 -0.08949,-0.16069 -0.06856,-0.0809 -0.149249,-0.11322 -0.19024,-0.12633 a 0.12786177,0.12786177 90 0 0 -0.07793,0.24356 c 0.01566,0.005 0.04599,0.0184 0.07153,0.0484 0.01839,0.022 0.03272,0.0478 0.04287,0.0775 0.0098,0.0287 0.01582,0.0614 0.01796,0.0987 0.0011,0.0187 0.0012,0.0382 3.37e-4,0.0586 -0.0022,0.0547 -0.01071,0.11328 -0.02419,0.18197 -0.03156,0.16212 -0.08313,0.32156 -0.152108,0.48778 -0.06484,0.15625 -0.140883,0.30894 -0.226025,0.47442 -0.149834,0.29121 -0.338292,0.63685 -0.442547,1.00196 -0.0527,0.16859 -0.07007,0.35014 -0.06442,0.53753 0.0027,0.23772 0.03005,0.48745 0.09683,0.72809 0.0663,0.23894 0.171433,0.46882 0.329407,0.66975 0.08745,0.10732 0.189137,0.20405 0.303014,0.28239 0.116724,0.0803 0.245403,0.14066 0.382718,0.17257 0.06282,0.0136 0.123734,0.0155 0.181961,0.009 0.05974,-0.007 0.116709,-0.0234 0.169186,-0.0463 0.110788,-0.0483 0.202815,-0.12633 0.267299,-0.21632 0.109292,-0.14788 0.16811,-0.31903 0.18582,-0.48031 0.0088,-0.0803 0.0075,-0.1583 -0.0024,-0.23198 -0.0131,-0.0975 -0.04136,-0.18912 -0.08292,-0.27207 -0.07138,-0.2254 -0.150183,-0.41905 -0.244042,-0.59091 -0.232316,-0.42207 -0.543749,-0.78099 -0.858011,-1.14265 -0.283059,-0.32575 -0.603591,-0.69106 -0.830646,-1.10398 6.48e-4,0.001 -3.21e-4,-8e-4 -0.0013,-0.003 -0.03139,-0.0617 -0.07017,-0.13053 -0.0966,-0.19342 -0.01277,-0.0304 -0.02305,-0.0601 -0.02981,-0.0894 -0.0065,-0.0283 -0.0097,-0.0563 -0.0088,-0.0845 -0.0013,-0.0361 0.0019,-0.0628 0.0094,-0.0888 0.0075,-0.0262 0.01909,-0.0517 0.03439,-0.0758 0.03205,-0.0505 0.07801,-0.0916 0.128253,-0.11883 0.07363,-0.0413 0.148891,-0.0712 0.224543,-0.0953 0.08197,-0.0261 0.166981,-0.0459 0.246878,-0.0633 0.25363,-0.0551 0.370889,-0.0756 0.532316,-0.13608 a 0.11668938,0.11668938 90 0 0 -0.08188,-0.21854 z"
       id="path-1"
       inkscape:path-effect="#path-effect4524;#path-effect4526"
       inkscape:original-d="m -13.780866,149.04965 c -0.439157,0.17729 -1.420377,0.13315 -1.228147,0.85282 0.491928,1.14629 1.703869,1.84489 2.061317,3.06963 0.273044,0.47983 -0.101767,1.32863 -0.719796,1.06898 -0.748571,-0.31924 -0.945103,-1.24343 -0.882645,-1.97801 0.145957,-0.85726 0.835308,-1.53571 0.910342,-2.41103 0.01,-0.16533 -0.04806,-0.35389 -0.221996,-0.4105"
       style="fill:#000000;fill-rule:nonzero;stroke:none;stroke-width:1.20791" />
  </g>
</svg>
