<?xml version="1.0" encoding="UTF-8" standalone="no"?>
<!-- Created with Inkscape (http://www.inkscape.org/) -->

<svg
   width="6mm"
   height="10mm"
   viewBox="0 0 6.0000001 9.9999994"
   version="1.1"
   id="svg1681"
   inkscape:version="1.2.1 (9c6d41e410, 2022-07-14)"
   sodipodi:docname="number eight 1.2.svg"
   inkscape:export-filename="..\..\..\..\Downloads\lower a diff canvas resize 3.0.png"
   inkscape:export-xdpi="96"
   inkscape:export-ydpi="96"
   xmlns:inkscape="http://www.inkscape.org/namespaces/inkscape"
   xmlns:sodipodi="http://sodipodi.sourceforge.net/DTD/sodipodi-0.dtd"
   xmlns="http://www.w3.org/2000/svg"
   xmlns:svg="http://www.w3.org/2000/svg"
   xmlns:rdf="http://www.w3.org/1999/02/22-rdf-syntax-ns#"
   xmlns:cc="http://creativecommons.org/ns#"
   xmlns:dc="http://purl.org/dc/elements/1.1/">
  <defs
     id="defs1675">
    <inkscape:path-effect
       effect="powerstroke"
       id="path-effect4327"
       is_visible="true"
       lpeversion="1"
       offset_points="1.7347349,0.12753874 | 6.620321,0.10505471 | 12.585387,0.13587334"
       not_jump="true"
       sort_points="true"
       interpolator_type="CentripetalCatmullRom"
       interpolator_beta="0.75"
       start_linecap_type="round"
       linejoin_type="spiro"
       miter_limit="4"
       scale_width="1"
       end_linecap_type="round" />
    <inkscape:path-effect
       effect="simplify"
       id="path-effect4325"
       is_visible="true"
       lpeversion="1"
       steps="1"
       threshold="0.0035951417"
       smooth_angles="0"
       helper_size="0"
       simplify_individual_paths="false"
       simplify_just_coalesce="false"
       step="1" />
    <inkscape:path-effect
       effect="powerstroke"
       id="path-effect4320"
       is_visible="true"
       lpeversion="1"
       offset_points="1.7813126,0.10218361 | 12.425722,0.11510338"
       not_jump="true"
       sort_points="true"
       interpolator_type="CentripetalCatmullRom"
       interpolator_beta="0.75"
       start_linecap_type="round"
       linejoin_type="spiro"
       miter_limit="4"
       scale_width="1"
       end_linecap_type="round" />
    <inkscape:path-effect
       effect="simplify"
       id="path-effect4318"
       is_visible="true"
       lpeversion="1"
       steps="1"
       threshold="0.0035951417"
       smooth_angles="0"
       helper_size="0"
       simplify_individual_paths="false"
       simplify_just_coalesce="false"
       step="1" />
    <inkscape:path-effect
       effect="powerstroke"
       id="path-effect502"
       is_visible="true"
       lpeversion="1"
       offset_points="3.0091841,0.21607495 | 7.3602657,0.17554228 | 9.4159651,0.20236537"
       not_jump="true"
       sort_points="true"
       interpolator_type="CentripetalCatmullRom"
       interpolator_beta="0.75"
       start_linecap_type="round"
       linejoin_type="spiro"
       miter_limit="4"
       scale_width="1"
       end_linecap_type="round" />
    <inkscape:path-effect
       effect="simplify"
       id="path-effect500"
       is_visible="true"
       lpeversion="1"
       steps="1"
       threshold="0.0035951417"
       smooth_angles="0"
       helper_size="0"
       simplify_individual_paths="false"
       simplify_just_coalesce="false"
       step="1" />
    <inkscape:path-effect
       effect="powerstroke"
       id="path-effect241"
       is_visible="true"
       lpeversion="1"
       offset_points="2.6879454,0.34086734"
       not_jump="true"
       sort_points="true"
       interpolator_type="CentripetalCatmullRom"
       interpolator_beta="0.75"
       start_linecap_type="round"
       linejoin_type="spiro"
       miter_limit="4"
       scale_width="1"
       end_linecap_type="round" />
    <inkscape:path-effect
       effect="simplify"
       id="path-effect239"
       is_visible="true"
       lpeversion="1"
       steps="1"
       threshold="0.0028332064"
       smooth_angles="0"
       helper_size="0"
       simplify_individual_paths="false"
       simplify_just_coalesce="false"
       step="1" />
    <inkscape:path-effect
       effect="powerstroke"
       id="path-effect234"
       is_visible="true"
       lpeversion="1"
       offset_points="2.13563,0.075169555"
       not_jump="true"
       sort_points="true"
       interpolator_type="CentripetalCatmullRom"
       interpolator_beta="0.75"
       start_linecap_type="round"
       linejoin_type="spiro"
       miter_limit="4"
       scale_width="1"
       end_linecap_type="round" />
    <inkscape:path-effect
       effect="simplify"
       id="path-effect232"
       is_visible="true"
       lpeversion="1"
       steps="1"
       threshold="0.0028332064"
       smooth_angles="0"
       helper_size="0"
       simplify_individual_paths="false"
       simplify_just_coalesce="false"
       step="1" />
    <inkscape:path-effect
       effect="powerstroke"
       id="path-effect227"
       is_visible="true"
       lpeversion="1"
       offset_points="2.1868266,0.075169555"
       not_jump="true"
       sort_points="true"
       interpolator_type="CentripetalCatmullRom"
       interpolator_beta="0.75"
       start_linecap_type="round"
       linejoin_type="spiro"
       miter_limit="4"
       scale_width="1"
       end_linecap_type="round" />
    <inkscape:path-effect
       effect="simplify"
       id="path-effect225"
       is_visible="true"
       lpeversion="1"
       steps="1"
       threshold="0.0028332064"
       smooth_angles="0"
       helper_size="0"
       simplify_individual_paths="false"
       simplify_just_coalesce="false"
       step="1" />
    <inkscape:path-effect
       effect="powerstroke"
       id="path-effect166"
       is_visible="true"
       lpeversion="1"
       offset_points="1.9637935,0.075169555"
       not_jump="true"
       sort_points="true"
       interpolator_type="CentripetalCatmullRom"
       interpolator_beta="0.75"
       start_linecap_type="round"
       linejoin_type="spiro"
       miter_limit="4"
       scale_width="1"
       end_linecap_type="round" />
    <inkscape:path-effect
       effect="simplify"
       id="path-effect164"
       is_visible="true"
       lpeversion="1"
       steps="1"
       threshold="0.0028332064"
       smooth_angles="0"
       helper_size="0"
       simplify_individual_paths="false"
       simplify_just_coalesce="false"
       step="1" />
    <inkscape:path-effect
       effect="powerstroke"
       id="path-effect159"
       is_visible="true"
       lpeversion="1"
       offset_points="2.2611036,0.075169555"
       not_jump="true"
       sort_points="true"
       interpolator_type="CentripetalCatmullRom"
       interpolator_beta="0.75"
       start_linecap_type="round"
       linejoin_type="spiro"
       miter_limit="4"
       scale_width="1"
       end_linecap_type="round" />
    <inkscape:path-effect
       effect="simplify"
       id="path-effect157"
       is_visible="true"
       lpeversion="1"
       steps="1"
       threshold="0.0028332064"
       smooth_angles="0"
       helper_size="0"
       simplify_individual_paths="false"
       simplify_just_coalesce="false"
       step="1" />
    <inkscape:path-effect
       effect="powerstroke"
       id="path-effect152"
       is_visible="true"
       lpeversion="1"
       offset_points="2.826981,0.075169555"
       not_jump="true"
       sort_points="true"
       interpolator_type="CentripetalCatmullRom"
       interpolator_beta="0.75"
       start_linecap_type="round"
       linejoin_type="spiro"
       miter_limit="4"
       scale_width="1"
       end_linecap_type="round" />
    <inkscape:path-effect
       effect="simplify"
       id="path-effect150"
       is_visible="true"
       lpeversion="1"
       steps="1"
       threshold="0.0028332064"
       smooth_angles="0"
       helper_size="0"
       simplify_individual_paths="false"
       simplify_just_coalesce="false"
       step="1" />
    <inkscape:path-effect
       effect="powerstroke"
       id="path-effect145"
       is_visible="true"
       lpeversion="1"
       offset_points="3.8374447,0.075169555"
       not_jump="true"
       sort_points="true"
       interpolator_type="CentripetalCatmullRom"
       interpolator_beta="0.75"
       start_linecap_type="round"
       linejoin_type="spiro"
       miter_limit="4"
       scale_width="1"
       end_linecap_type="round" />
    <inkscape:path-effect
       effect="simplify"
       id="path-effect143"
       is_visible="true"
       lpeversion="1"
       steps="1"
       threshold="0.0028332064"
       smooth_angles="0"
       helper_size="0"
       simplify_individual_paths="false"
       simplify_just_coalesce="false"
       step="1" />
    <inkscape:path-effect
       effect="powerstroke"
       id="path-effect138"
       is_visible="true"
       lpeversion="1"
       offset_points="2.6880907,0.075169555"
       not_jump="true"
       sort_points="true"
       interpolator_type="CentripetalCatmullRom"
       interpolator_beta="0.75"
       start_linecap_type="round"
       linejoin_type="spiro"
       miter_limit="4"
       scale_width="1"
       end_linecap_type="round" />
    <inkscape:path-effect
       effect="simplify"
       id="path-effect136"
       is_visible="true"
       lpeversion="1"
       steps="1"
       threshold="0.0028332064"
       smooth_angles="0"
       helper_size="0"
       simplify_individual_paths="false"
       simplify_just_coalesce="false"
       step="1" />
    <inkscape:path-effect
       effect="powerstroke"
       id="path-effect131"
       is_visible="true"
       lpeversion="1"
       offset_points="1.9940581,0.075169555"
       not_jump="true"
       sort_points="true"
       interpolator_type="CentripetalCatmullRom"
       interpolator_beta="0.75"
       start_linecap_type="round"
       linejoin_type="spiro"
       miter_limit="4"
       scale_width="1"
       end_linecap_type="round" />
    <inkscape:path-effect
       effect="simplify"
       id="path-effect129"
       is_visible="true"
       lpeversion="1"
       steps="1"
       threshold="0.0028332064"
       smooth_angles="0"
       helper_size="0"
       simplify_individual_paths="false"
       simplify_just_coalesce="false"
       step="1" />
  </defs>
  <sodipodi:namedview
     id="base"
     pagecolor="#ffffff"
     bordercolor="#666666"
     borderopacity="1.0"
     inkscape:pageopacity="0.0"
     inkscape:pageshadow="2"
     inkscape:zoom="7.919596"
     inkscape:cx="-5.3033008"
     inkscape:cy="20.834396"
     inkscape:document-units="mm"
     inkscape:current-layer="layer1"
     showgrid="false"
     fit-margin-top="0"
     fit-margin-left="0"
     fit-margin-right="0"
     fit-margin-bottom="0"
     inkscape:window-width="1920"
     inkscape:window-height="974"
     inkscape:window-x="-11"
     inkscape:window-y="2869"
     inkscape:window-maximized="1"
     showguides="true"
     inkscape:guide-bbox="true"
     inkscape:snap-bbox="true"
     inkscape:bbox-nodes="true"
     inkscape:snap-nodes="false"
     inkscape:snap-others="false"
     inkscape:snap-page="true"
     inkscape:snap-grids="false"
     inkscape:snap-to-guides="false"
     inkscape:snap-global="false"
     inkscape:pagecheckerboard="0"
     inkscape:showpageshadow="2"
     inkscape:deskcolor="#d1d1d1">
    <sodipodi:guide
       position="-6.1806075,9.4988692"
       orientation="0,1"
       id="guide816"
       inkscape:locked="false" />
    <sodipodi:guide
       position="-4.4101636,10.646923"
       orientation="0,1"
       id="guide818"
       inkscape:locked="false" />
    <sodipodi:guide
       position="2.7595724,11.09577"
       orientation="1,0"
       id="guide820"
       inkscape:locked="false" />
    <sodipodi:guide
       position="3.6572659,10.942217"
       orientation="1,0"
       id="guide822"
       inkscape:locked="false" />
    <sodipodi:guide
       position="-0.051625511,9.7492299"
       orientation="1,0"
       id="guide1853"
       inkscape:locked="false" />
    <sodipodi:guide
       position="-2.3720169,3.0175835"
       orientation="0,1"
       id="guide1855"
       inkscape:locked="false" />
  </sodipodi:namedview>
  <metadata
     id="metadata1678">
    <rdf:RDF>
      <cc:Work
         rdf:about="">
        <dc:format>image/svg+xml</dc:format>
        <dc:type
           rdf:resource="http://purl.org/dc/dcmitype/StillImage" />
      </cc:Work>
    </rdf:RDF>
  </metadata>
  <g
     inkscape:label="Layer 1"
     inkscape:groupmode="layer"
     id="layer1"
     transform="translate(17.028496,-147.22856)">
    <path
       d="m -13.635574,149.47546 c -0.164309,-0.003 -0.464954,0.002 -0.791989,0.0841 -0.233317,0.0587 -0.49388,0.16003 -0.73447,0.33756 -0.0037,0.003 -0.0072,0.006 -0.01057,0.009 -0.01025,0.009 -0.02296,0.0191 -0.04301,0.0339 -0.01717,0.0127 -0.04131,0.0304 -0.0636,0.0501 -0.02116,0.0187 -0.04483,0.0429 -0.06456,0.0735 -0.0013,0.002 -0.0026,0.004 -0.0038,0.006 -0.01013,0.0166 -0.0193,0.0355 -0.02623,0.0567 -0.0059,0.0182 -0.01005,0.0375 -0.01191,0.058 -0.01105,0.061 -0.01035,0.12228 9.88e-4,0.18238 0.01123,0.0595 0.03261,0.11637 0.06159,0.16949 0.05422,0.0994 0.135632,0.18648 0.227476,0.25249 0.06092,0.048 0.131368,0.0876 0.2029,0.12186 0.068,0.0326 0.137665,0.0605 0.202573,0.0884 0.284623,0.15119 0.588278,0.30422 0.874959,0.47288 0.28361,0.16686 0.554418,0.35105 0.794517,0.57495 0.124959,0.11866 0.243978,0.24618 0.34336,0.38436 0.09973,0.13868 0.178261,0.28613 0.224824,0.44502 0.04017,0.13143 0.05976,0.26952 0.05093,0.40059 -0.0021,0.0318 -0.006,0.0631 -0.0115,0.0937 -0.0059,0.0327 -0.01394,0.065 -0.02425,0.0967 -0.01931,0.0593 -0.04679,0.11646 -0.08424,0.16952 -0.04828,0.0652 -0.111207,0.12536 -0.185441,0.1781 -0.07121,0.0506 -0.151298,0.0933 -0.236305,0.12794 -0.16626,0.0651 -0.35476,0.095 -0.538864,0.0799 -0.181655,-0.015 -0.355247,-0.0735 -0.498835,-0.18023 -0.07441,-0.0564 -0.137395,-0.12799 -0.183751,-0.20816 -0.04694,-0.0812 -0.076,-0.16964 -0.08453,-0.25928 -0.0317,-0.20591 -0.01285,-0.40564 0.03328,-0.60076 0.04801,-0.20306 0.125901,-0.40209 0.208052,-0.58808 0.131282,-0.29229 0.265848,-0.56634 0.369162,-0.82051 0.08323,-0.18683 0.178762,-0.36882 0.251504,-0.54144 0.0141,-0.0335 0.02738,-0.0664 0.03983,-0.0991 0.0649,-0.17033 0.110283,-0.34099 0.122115,-0.51993 0.0088,-0.14019 -0.0085,-0.24843 -0.01921,-0.30545 a 0.13587334,0.13587334 90 0 0 -0.267062,0.0502 c 0.0082,0.0437 0.02007,0.12824 0.01374,0.23801 -0.0093,0.14353 -0.04584,0.287 -0.103714,0.44089 -0.0111,0.0295 -0.02306,0.0596 -0.03593,0.0906 -0.0664,0.15994 -0.158692,0.33883 -0.24733,0.54293 -0.09779,0.24866 -0.226388,0.5204 -0.356343,0.82161 -0.08291,0.19308 -0.165573,0.40913 -0.216367,0.63448 -0.04912,0.21791 -0.07003,0.45006 -0.03067,0.68846 0.01381,0.11959 0.05684,0.23983 0.121757,0.34706 0.06407,0.10581 0.149471,0.19898 0.249867,0.27214 0.1843,0.13418 0.400388,0.20259 0.61725,0.21849 0.219446,0.0161 0.441151,-0.0213 0.638113,-0.10027 0.09939,-0.0423 0.193572,-0.0939 0.279117,-0.15617 0.08929,-0.065 0.168155,-0.14103 0.231936,-0.22846 0.05165,-0.0738 0.08785,-0.1503 0.112871,-0.22766 0.01334,-0.0412 0.02352,-0.0828 0.03099,-0.12414 0.007,-0.0387 0.01172,-0.0777 0.01439,-0.11693 0.01091,-0.1605 -0.01268,-0.32426 -0.05789,-0.47491 -0.05359,-0.18573 -0.143562,-0.35507 -0.252966,-0.50944 -0.108776,-0.1535 -0.236826,-0.29228 -0.367414,-0.41857 -0.255778,-0.24084 -0.540311,-0.43584 -0.830819,-0.60898 -0.29137,-0.17365 -0.602793,-0.33308 -0.887982,-0.48655 -0.07803,-0.0364 -0.137343,-0.0621 -0.198679,-0.0938 -0.06164,-0.0318 -0.11436,-0.0644 -0.159977,-0.10245 -0.06982,-0.0527 -0.123357,-0.11426 -0.156233,-0.17753 -0.01728,-0.0333 -0.02832,-0.0659 -0.03361,-0.0971 -0.0055,-0.0327 -0.0049,-0.0644 0.0018,-0.0953 4.36e-4,-0.002 8.12e-4,-0.004 0.001,-0.006 1.9e-4,-0.002 2.26e-4,-0.004 4.07e-4,-0.006 1.82e-4,-0.002 5.47e-4,-0.004 0.0013,-0.006 7.47e-4,-0.002 0.0019,-0.004 0.0031,-0.005 0.003,-0.004 0.0086,-0.0108 0.01977,-0.0204 0.01258,-0.0109 0.02701,-0.0214 0.04689,-0.036 0.01727,-0.0127 0.03843,-0.0283 0.0586,-0.0462 0.205684,-0.15057 0.431266,-0.23939 0.639802,-0.29215 0.295385,-0.0747 0.57027,-0.0801 0.724662,-0.0773 a 0.12753874,0.12753874 90 0 0 0.0047,-0.25504 z"
       id="path-1"
       inkscape:path-effect="#path-effect4325;#path-effect4327"
       inkscape:original-d="m -13.637928,149.60298 c -0.570538,-0.0111 -1.180981,0.12285 -1.604012,0.52918 -0.12727,0.37363 0.26008,0.63452 0.562358,0.74235 0.773727,0.41447 1.627306,0.80885 2.134045,1.55904 0.281838,0.41819 0.406234,1.09489 -0.05958,1.43574 -0.508666,0.41982 -1.4672,0.3673 -1.726076,-0.31041 -0.211294,-0.7331 0.226128,-1.42697 0.500627,-2.07875 0.189819,-0.50079 0.55775,-0.99329 0.452432,-1.5554"
       style="fill:#000000;fill-rule:nonzero;stroke:none;stroke-width:1.32021" />
  </g>
</svg>
