<?xml version="1.0" encoding="UTF-8" standalone="no"?>
<!-- Created with Inkscape (http://www.inkscape.org/) -->

<svg
   width="6mm"
   height="10mm"
   viewBox="0 0 6.0000001 9.9999994"
   version="1.1"
   id="svg1681"
   inkscape:version="1.2.1 (9c6d41e410, 2022-07-14)"
   sodipodi:docname="number four 1.4.svg"
   inkscape:export-filename="..\..\..\..\Downloads\lower a diff canvas resize 3.0.png"
   inkscape:export-xdpi="96"
   inkscape:export-ydpi="96"
   xmlns:inkscape="http://www.inkscape.org/namespaces/inkscape"
   xmlns:sodipodi="http://sodipodi.sourceforge.net/DTD/sodipodi-0.dtd"
   xmlns="http://www.w3.org/2000/svg"
   xmlns:svg="http://www.w3.org/2000/svg"
   xmlns:rdf="http://www.w3.org/1999/02/22-rdf-syntax-ns#"
   xmlns:cc="http://creativecommons.org/ns#"
   xmlns:dc="http://purl.org/dc/elements/1.1/">
  <defs
     id="defs1675">
    <inkscape:path-effect
       effect="powerstroke"
       id="path-effect490"
       is_visible="true"
       lpeversion="1"
       offset_points="1.982959,0.087471855 | 3.1320236,0.10472468 | 7.2352791,0.065560759 | 9.4961694,0.083158645"
       not_jump="true"
       sort_points="true"
       interpolator_type="CentripetalCatmullRom"
       interpolator_beta="0.75"
       start_linecap_type="round"
       linejoin_type="spiro"
       miter_limit="4"
       scale_width="1"
       end_linecap_type="round" />
    <inkscape:path-effect
       effect="simplify"
       id="path-effect488"
       is_visible="true"
       lpeversion="1"
       steps="1"
       threshold="0.0035951417"
       smooth_angles="0"
       helper_size="0"
       simplify_individual_paths="false"
       simplify_just_coalesce="false"
       step="1" />
    <inkscape:path-effect
       effect="powerstroke"
       id="path-effect502"
       is_visible="true"
       lpeversion="1"
       offset_points="3.0091841,0.21607495 | 7.3602657,0.17554228 | 9.4159651,0.20236537"
       not_jump="true"
       sort_points="true"
       interpolator_type="CentripetalCatmullRom"
       interpolator_beta="0.75"
       start_linecap_type="round"
       linejoin_type="spiro"
       miter_limit="4"
       scale_width="1"
       end_linecap_type="round" />
    <inkscape:path-effect
       effect="simplify"
       id="path-effect500"
       is_visible="true"
       lpeversion="1"
       steps="1"
       threshold="0.0035951417"
       smooth_angles="0"
       helper_size="0"
       simplify_individual_paths="false"
       simplify_just_coalesce="false"
       step="1" />
    <inkscape:path-effect
       effect="powerstroke"
       id="path-effect241"
       is_visible="true"
       lpeversion="1"
       offset_points="2.6879454,0.34086734"
       not_jump="true"
       sort_points="true"
       interpolator_type="CentripetalCatmullRom"
       interpolator_beta="0.75"
       start_linecap_type="round"
       linejoin_type="spiro"
       miter_limit="4"
       scale_width="1"
       end_linecap_type="round" />
    <inkscape:path-effect
       effect="simplify"
       id="path-effect239"
       is_visible="true"
       lpeversion="1"
       steps="1"
       threshold="0.0028332064"
       smooth_angles="0"
       helper_size="0"
       simplify_individual_paths="false"
       simplify_just_coalesce="false"
       step="1" />
    <inkscape:path-effect
       effect="powerstroke"
       id="path-effect234"
       is_visible="true"
       lpeversion="1"
       offset_points="2.13563,0.075169555"
       not_jump="true"
       sort_points="true"
       interpolator_type="CentripetalCatmullRom"
       interpolator_beta="0.75"
       start_linecap_type="round"
       linejoin_type="spiro"
       miter_limit="4"
       scale_width="1"
       end_linecap_type="round" />
    <inkscape:path-effect
       effect="simplify"
       id="path-effect232"
       is_visible="true"
       lpeversion="1"
       steps="1"
       threshold="0.0028332064"
       smooth_angles="0"
       helper_size="0"
       simplify_individual_paths="false"
       simplify_just_coalesce="false"
       step="1" />
    <inkscape:path-effect
       effect="powerstroke"
       id="path-effect227"
       is_visible="true"
       lpeversion="1"
       offset_points="2.1868266,0.075169555"
       not_jump="true"
       sort_points="true"
       interpolator_type="CentripetalCatmullRom"
       interpolator_beta="0.75"
       start_linecap_type="round"
       linejoin_type="spiro"
       miter_limit="4"
       scale_width="1"
       end_linecap_type="round" />
    <inkscape:path-effect
       effect="simplify"
       id="path-effect225"
       is_visible="true"
       lpeversion="1"
       steps="1"
       threshold="0.0028332064"
       smooth_angles="0"
       helper_size="0"
       simplify_individual_paths="false"
       simplify_just_coalesce="false"
       step="1" />
    <inkscape:path-effect
       effect="powerstroke"
       id="path-effect166"
       is_visible="true"
       lpeversion="1"
       offset_points="1.9637935,0.075169555"
       not_jump="true"
       sort_points="true"
       interpolator_type="CentripetalCatmullRom"
       interpolator_beta="0.75"
       start_linecap_type="round"
       linejoin_type="spiro"
       miter_limit="4"
       scale_width="1"
       end_linecap_type="round" />
    <inkscape:path-effect
       effect="simplify"
       id="path-effect164"
       is_visible="true"
       lpeversion="1"
       steps="1"
       threshold="0.0028332064"
       smooth_angles="0"
       helper_size="0"
       simplify_individual_paths="false"
       simplify_just_coalesce="false"
       step="1" />
    <inkscape:path-effect
       effect="powerstroke"
       id="path-effect159"
       is_visible="true"
       lpeversion="1"
       offset_points="2.2611036,0.075169555"
       not_jump="true"
       sort_points="true"
       interpolator_type="CentripetalCatmullRom"
       interpolator_beta="0.75"
       start_linecap_type="round"
       linejoin_type="spiro"
       miter_limit="4"
       scale_width="1"
       end_linecap_type="round" />
    <inkscape:path-effect
       effect="simplify"
       id="path-effect157"
       is_visible="true"
       lpeversion="1"
       steps="1"
       threshold="0.0028332064"
       smooth_angles="0"
       helper_size="0"
       simplify_individual_paths="false"
       simplify_just_coalesce="false"
       step="1" />
    <inkscape:path-effect
       effect="powerstroke"
       id="path-effect152"
       is_visible="true"
       lpeversion="1"
       offset_points="2.826981,0.075169555"
       not_jump="true"
       sort_points="true"
       interpolator_type="CentripetalCatmullRom"
       interpolator_beta="0.75"
       start_linecap_type="round"
       linejoin_type="spiro"
       miter_limit="4"
       scale_width="1"
       end_linecap_type="round" />
    <inkscape:path-effect
       effect="simplify"
       id="path-effect150"
       is_visible="true"
       lpeversion="1"
       steps="1"
       threshold="0.0028332064"
       smooth_angles="0"
       helper_size="0"
       simplify_individual_paths="false"
       simplify_just_coalesce="false"
       step="1" />
    <inkscape:path-effect
       effect="powerstroke"
       id="path-effect145"
       is_visible="true"
       lpeversion="1"
       offset_points="3.8374447,0.075169555"
       not_jump="true"
       sort_points="true"
       interpolator_type="CentripetalCatmullRom"
       interpolator_beta="0.75"
       start_linecap_type="round"
       linejoin_type="spiro"
       miter_limit="4"
       scale_width="1"
       end_linecap_type="round" />
    <inkscape:path-effect
       effect="simplify"
       id="path-effect143"
       is_visible="true"
       lpeversion="1"
       steps="1"
       threshold="0.0028332064"
       smooth_angles="0"
       helper_size="0"
       simplify_individual_paths="false"
       simplify_just_coalesce="false"
       step="1" />
    <inkscape:path-effect
       effect="powerstroke"
       id="path-effect138"
       is_visible="true"
       lpeversion="1"
       offset_points="2.6880907,0.075169555"
       not_jump="true"
       sort_points="true"
       interpolator_type="CentripetalCatmullRom"
       interpolator_beta="0.75"
       start_linecap_type="round"
       linejoin_type="spiro"
       miter_limit="4"
       scale_width="1"
       end_linecap_type="round" />
    <inkscape:path-effect
       effect="simplify"
       id="path-effect136"
       is_visible="true"
       lpeversion="1"
       steps="1"
       threshold="0.0028332064"
       smooth_angles="0"
       helper_size="0"
       simplify_individual_paths="false"
       simplify_just_coalesce="false"
       step="1" />
    <inkscape:path-effect
       effect="powerstroke"
       id="path-effect131"
       is_visible="true"
       lpeversion="1"
       offset_points="1.9940581,0.075169555"
       not_jump="true"
       sort_points="true"
       interpolator_type="CentripetalCatmullRom"
       interpolator_beta="0.75"
       start_linecap_type="round"
       linejoin_type="spiro"
       miter_limit="4"
       scale_width="1"
       end_linecap_type="round" />
    <inkscape:path-effect
       effect="simplify"
       id="path-effect129"
       is_visible="true"
       lpeversion="1"
       steps="1"
       threshold="0.0028332064"
       smooth_angles="0"
       helper_size="0"
       simplify_individual_paths="false"
       simplify_just_coalesce="false"
       step="1" />
  </defs>
  <sodipodi:namedview
     id="base"
     pagecolor="#ffffff"
     bordercolor="#666666"
     borderopacity="1.0"
     inkscape:pageopacity="0.0"
     inkscape:pageshadow="2"
     inkscape:zoom="7.919596"
     inkscape:cx="-5.3033008"
     inkscape:cy="20.834396"
     inkscape:document-units="mm"
     inkscape:current-layer="layer1"
     showgrid="false"
     fit-margin-top="0"
     fit-margin-left="0"
     fit-margin-right="0"
     fit-margin-bottom="0"
     inkscape:window-width="1920"
     inkscape:window-height="974"
     inkscape:window-x="-11"
     inkscape:window-y="2869"
     inkscape:window-maximized="1"
     showguides="true"
     inkscape:guide-bbox="true"
     inkscape:snap-bbox="true"
     inkscape:bbox-nodes="true"
     inkscape:snap-nodes="false"
     inkscape:snap-others="false"
     inkscape:snap-page="true"
     inkscape:snap-grids="false"
     inkscape:snap-to-guides="false"
     inkscape:snap-global="false"
     inkscape:pagecheckerboard="0"
     inkscape:showpageshadow="2"
     inkscape:deskcolor="#d1d1d1">
    <sodipodi:guide
       position="-6.1806075,9.4988692"
       orientation="0,1"
       id="guide816"
       inkscape:locked="false" />
    <sodipodi:guide
       position="-4.4101636,10.646923"
       orientation="0,1"
       id="guide818"
       inkscape:locked="false" />
    <sodipodi:guide
       position="2.7595724,11.09577"
       orientation="1,0"
       id="guide820"
       inkscape:locked="false" />
    <sodipodi:guide
       position="3.6572659,10.942217"
       orientation="1,0"
       id="guide822"
       inkscape:locked="false" />
    <sodipodi:guide
       position="-0.051625511,9.7492299"
       orientation="1,0"
       id="guide1853"
       inkscape:locked="false" />
    <sodipodi:guide
       position="-2.3720169,3.0175835"
       orientation="0,1"
       id="guide1855"
       inkscape:locked="false" />
  </sodipodi:namedview>
  <metadata
     id="metadata1678">
    <rdf:RDF>
      <cc:Work
         rdf:about="">
        <dc:format>image/svg+xml</dc:format>
        <dc:type
           rdf:resource="http://purl.org/dc/dcmitype/StillImage" />
      </cc:Work>
    </rdf:RDF>
  </metadata>
  <g
     inkscape:label="Layer 1"
     inkscape:groupmode="layer"
     id="layer1"
     transform="translate(17.028496,-147.22856)">
    <path
       d="m -14.825315,149.56745 c -0.03555,0.21445 -0.127596,0.58072 -0.231875,1.02873 -0.0736,0.31621 -0.147638,0.68535 -0.143984,1.0677 0.0039,0.17013 0.01661,0.30659 0.04001,0.43652 4.57e-4,0.003 9.16e-4,0.005 0.0014,0.008 0.02169,0.0736 0.05547,0.12546 0.09151,0.16492 0.04102,0.0449 0.09003,0.0794 0.141145,0.1035 0.05003,0.0236 0.107995,0.0401 0.1705,0.0437 0.05335,0.003 0.115807,-0.003 0.179257,-0.0277 0.03402,-0.009 0.07789,-0.0248 0.122727,-0.0435 0.108069,-0.0451 0.215118,-0.10664 0.327982,-0.18704 0.132695,-0.0945 0.248094,-0.196 0.383066,-0.31138 0.180025,-0.16726 0.353946,-0.36043 0.500494,-0.581 0.138545,-0.20853 0.252556,-0.44149 0.320556,-0.69663 0.0011,-0.004 0.002,-0.008 0.0024,-0.0122 0.0203,-0.17547 0.0288,-0.36295 0.0061,-0.54682 -0.01139,-0.0922 -0.03061,-0.18327 -0.05998,-0.27143 -0.02973,-0.0892 -0.06965,-0.17484 -0.121749,-0.25517 -0.002,-0.003 -0.0042,-0.006 -0.0067,-0.009 -0.01552,-0.0171 -0.03488,-0.0303 -0.05766,-0.0371 -0.01121,-0.003 -0.02236,-0.005 -0.03315,-0.005 -0.0108,-8e-5 -0.02098,0.001 -0.03034,0.003 -0.01865,0.004 -0.03502,0.0123 -0.04857,0.0207 -0.01392,0.009 -0.02656,0.0188 -0.03768,0.029 -0.02277,0.0209 -0.04274,0.0454 -0.05824,0.0673 -0.0082,0.0116 -0.01558,0.023 -0.0219,0.0337 -0.0065,0.011 -0.01217,0.0217 -0.0167,0.0316 -0.01781,0.0403 -0.0304,0.0787 -0.04005,0.11518 -0.01152,0.0435 -0.01951,0.087 -0.02551,0.12889 -0.01133,0.0791 -0.01723,0.16746 -0.02369,0.23629 -0.0094,0.11682 -0.02907,0.23511 -0.04663,0.34777 -0.01891,0.12128 -0.03609,0.23993 -0.0411,0.36154 -0.03822,0.46593 -0.08211,0.91032 -0.101996,1.36922 0,-1e-5 -4.59e-4,0.0107 -4.58e-4,0.0107 -0.01899,0.44677 -0.01556,0.91939 0.05114,1.3962 0.03606,0.25742 0.0834,0.45255 0.113935,0.56959 a 0.08315864,0.08315864 90 0 0 0.16093,-0.042 c -0.02945,-0.11289 -0.07306,-0.30157 -0.108294,-0.55098 -0.06487,-0.46294 -0.06904,-0.92437 -0.0515,-1.366 10e-7,-1e-5 4.22e-4,-0.0105 4.23e-4,-0.0105 0.01848,-0.45601 0.05909,-0.89293 0.09437,-1.36784 0.0016,-0.11621 0.01373,-0.22772 0.02875,-0.34948 0.01362,-0.11048 0.03057,-0.23593 0.03752,-0.35834 0.0042,-0.0742 0.0072,-0.15322 0.01703,-0.2282 0.005,-0.0382 0.01187,-0.0761 0.02179,-0.11304 0.0083,-0.0309 0.01909,-0.0622 0.0334,-0.093 0.0018,-0.003 0.0055,-0.01 0.01047,-0.0172 0.0048,-0.007 0.01046,-0.0152 0.01691,-0.0234 0.01259,-0.016 0.02713,-0.0315 0.04127,-0.0428 0.0068,-0.005 0.01275,-0.009 0.01751,-0.0115 0.0042,-0.002 0.0077,-0.003 0.0066,-0.002 -0.0057,0.001 -0.0083,9.6e-4 -0.01113,3.1e-4 -0.0055,-0.001 -0.01008,-0.005 -0.01084,-0.005 -4.94e-4,-9e-5 -9.9e-4,-1.8e-4 -0.0015,-3.4e-4 -4.75e-4,-1.6e-4 -9.28e-4,-3.9e-4 -0.0013,-7e-4 -7.98e-4,-6e-4 -0.0013,-0.001 -0.0017,-0.002 -3.54e-4,-9.4e-4 -5.65e-4,-0.002 -8.99e-4,-0.003 -3.34e-4,-9.4e-4 -8.16e-4,-0.002 -0.0013,-0.003 0.04303,0.0696 0.07577,0.1441 0.09982,0.22244 0.02379,0.0775 0.03896,0.15847 0.04719,0.24175 0.01624,0.16429 0.0052,0.33465 -0.0177,0.49928 -0.06645,0.23042 -0.17445,0.44187 -0.305888,0.63273 -0.140149,0.20351 -0.306331,0.38274 -0.476051,0.53626 -0.138343,0.11306 -0.245383,0.2041 -0.371166,0.29159 -0.104276,0.0725 -0.198106,0.12531 -0.289414,0.16404 -0.03787,0.0161 -0.0745,0.0293 -0.110064,0.0403 -0.04041,0.0165 -0.07321,0.0217 -0.103648,0.0219 -0.03552,2.2e-4 -0.07016,-0.006 -0.10106,-0.0179 -0.03156,-0.0118 -0.06163,-0.0294 -0.08657,-0.0532 -0.0218,-0.0207 -0.04157,-0.048 -0.05309,-0.0824 0.0017,0.007 0.0012,0.004 7.56e-4,0.002 -0.02467,-0.11393 -0.03739,-0.24566 -0.04018,-0.40517 -0.0031,-0.35982 0.06751,-0.71215 0.14116,-1.02576 0.135109,-0.57531 0.176552,-0.68197 0.235831,-1.03954 a 0.08747185,0.08747185 90 0 0 -0.172588,-0.0286 z"
       id="path-1"
       inkscape:path-effect="#path-effect488;#path-effect490"
       inkscape:original-d="m -14.739021,149.58176 c -0.133536,0.80516 -0.47647,1.5999 -0.348462,2.42932 0.0077,0.22359 0.254991,0.36086 0.456936,0.28886 0.307848,-0.0854 0.554716,-0.30394 0.796674,-0.50234 0.373291,-0.33596 0.692412,-0.75907 0.826647,-1.24808 0.0453,-0.35415 0.03925,-0.74621 -0.171109,-1.05083 -0.220165,0.0712 -0.223688,0.34939 -0.246446,0.54036 -0.0044,0.24377 -0.06781,0.4791 -0.0755,0.7221 -0.08614,1.12127 -0.228646,2.2699 0.05963,3.3751"
       style="fill:#000000;fill-rule:nonzero;stroke:none;stroke-width:1.17513" />
  </g>
</svg>
