<?xml version="1.0" encoding="UTF-8" standalone="no"?>
<!-- Created with Inkscape (http://www.inkscape.org/) -->

<svg
   width="6mm"
   height="10mm"
   viewBox="0 0 6.0000001 9.9999994"
   version="1.1"
   id="svg1681"
   inkscape:version="1.2.1 (9c6d41e410, 2022-07-14)"
   sodipodi:docname="number four 1.1.svg"
   inkscape:export-filename="..\..\..\..\Downloads\lower a diff canvas resize 3.0.png"
   inkscape:export-xdpi="96"
   inkscape:export-ydpi="96"
   xmlns:inkscape="http://www.inkscape.org/namespaces/inkscape"
   xmlns:sodipodi="http://sodipodi.sourceforge.net/DTD/sodipodi-0.dtd"
   xmlns="http://www.w3.org/2000/svg"
   xmlns:svg="http://www.w3.org/2000/svg"
   xmlns:rdf="http://www.w3.org/1999/02/22-rdf-syntax-ns#"
   xmlns:cc="http://creativecommons.org/ns#"
   xmlns:dc="http://purl.org/dc/elements/1.1/">
  <defs
     id="defs1675">
    <inkscape:path-effect
       effect="powerstroke"
       id="path-effect524"
       is_visible="true"
       lpeversion="1"
       offset_points="1.1114631,0.10807731 | 1.990395,0.12056779"
       not_jump="true"
       sort_points="true"
       interpolator_type="CentripetalCatmullRom"
       interpolator_beta="0.75"
       start_linecap_type="round"
       linejoin_type="spiro"
       miter_limit="4"
       scale_width="1"
       end_linecap_type="round" />
    <inkscape:path-effect
       effect="simplify"
       id="path-effect522"
       is_visible="true"
       lpeversion="1"
       steps="1"
       threshold="0.0035951417"
       smooth_angles="0"
       helper_size="0"
       simplify_individual_paths="false"
       simplify_just_coalesce="false"
       step="1" />
    <inkscape:path-effect
       effect="powerstroke"
       id="path-effect517"
       is_visible="true"
       lpeversion="1"
       offset_points="0.32417779,0.078546311"
       not_jump="true"
       sort_points="true"
       interpolator_type="CentripetalCatmullRom"
       interpolator_beta="0.75"
       start_linecap_type="round"
       linejoin_type="spiro"
       miter_limit="4"
       scale_width="1"
       end_linecap_type="round" />
    <inkscape:path-effect
       effect="simplify"
       id="path-effect515"
       is_visible="true"
       lpeversion="1"
       steps="1"
       threshold="0.0035951417"
       smooth_angles="0"
       helper_size="0"
       simplify_individual_paths="false"
       simplify_just_coalesce="false"
       step="1" />
    <inkscape:path-effect
       effect="powerstroke"
       id="path-effect510"
       is_visible="true"
       lpeversion="1"
       offset_points="1.1966291,0.097925961"
       not_jump="true"
       sort_points="true"
       interpolator_type="CentripetalCatmullRom"
       interpolator_beta="0.75"
       start_linecap_type="round"
       linejoin_type="spiro"
       miter_limit="4"
       scale_width="1"
       end_linecap_type="round" />
    <inkscape:path-effect
       effect="simplify"
       id="path-effect508"
       is_visible="true"
       lpeversion="1"
       steps="1"
       threshold="0.0035951417"
       smooth_angles="0"
       helper_size="0"
       simplify_individual_paths="false"
       simplify_just_coalesce="false"
       step="1" />
    <inkscape:path-effect
       effect="powerstroke"
       id="path-effect502"
       is_visible="true"
       lpeversion="1"
       offset_points="3.0091841,0.21607495 | 7.3602657,0.17554228 | 9.4159651,0.20236537"
       not_jump="true"
       sort_points="true"
       interpolator_type="CentripetalCatmullRom"
       interpolator_beta="0.75"
       start_linecap_type="round"
       linejoin_type="spiro"
       miter_limit="4"
       scale_width="1"
       end_linecap_type="round" />
    <inkscape:path-effect
       effect="simplify"
       id="path-effect500"
       is_visible="true"
       lpeversion="1"
       steps="1"
       threshold="0.0035951417"
       smooth_angles="0"
       helper_size="0"
       simplify_individual_paths="false"
       simplify_just_coalesce="false"
       step="1" />
    <inkscape:path-effect
       effect="powerstroke"
       id="path-effect241"
       is_visible="true"
       lpeversion="1"
       offset_points="2.6879454,0.34086734"
       not_jump="true"
       sort_points="true"
       interpolator_type="CentripetalCatmullRom"
       interpolator_beta="0.75"
       start_linecap_type="round"
       linejoin_type="spiro"
       miter_limit="4"
       scale_width="1"
       end_linecap_type="round" />
    <inkscape:path-effect
       effect="simplify"
       id="path-effect239"
       is_visible="true"
       lpeversion="1"
       steps="1"
       threshold="0.0028332064"
       smooth_angles="0"
       helper_size="0"
       simplify_individual_paths="false"
       simplify_just_coalesce="false"
       step="1" />
    <inkscape:path-effect
       effect="powerstroke"
       id="path-effect234"
       is_visible="true"
       lpeversion="1"
       offset_points="2.13563,0.075169555"
       not_jump="true"
       sort_points="true"
       interpolator_type="CentripetalCatmullRom"
       interpolator_beta="0.75"
       start_linecap_type="round"
       linejoin_type="spiro"
       miter_limit="4"
       scale_width="1"
       end_linecap_type="round" />
    <inkscape:path-effect
       effect="simplify"
       id="path-effect232"
       is_visible="true"
       lpeversion="1"
       steps="1"
       threshold="0.0028332064"
       smooth_angles="0"
       helper_size="0"
       simplify_individual_paths="false"
       simplify_just_coalesce="false"
       step="1" />
    <inkscape:path-effect
       effect="powerstroke"
       id="path-effect227"
       is_visible="true"
       lpeversion="1"
       offset_points="2.1868266,0.075169555"
       not_jump="true"
       sort_points="true"
       interpolator_type="CentripetalCatmullRom"
       interpolator_beta="0.75"
       start_linecap_type="round"
       linejoin_type="spiro"
       miter_limit="4"
       scale_width="1"
       end_linecap_type="round" />
    <inkscape:path-effect
       effect="simplify"
       id="path-effect225"
       is_visible="true"
       lpeversion="1"
       steps="1"
       threshold="0.0028332064"
       smooth_angles="0"
       helper_size="0"
       simplify_individual_paths="false"
       simplify_just_coalesce="false"
       step="1" />
    <inkscape:path-effect
       effect="powerstroke"
       id="path-effect166"
       is_visible="true"
       lpeversion="1"
       offset_points="1.9637935,0.075169555"
       not_jump="true"
       sort_points="true"
       interpolator_type="CentripetalCatmullRom"
       interpolator_beta="0.75"
       start_linecap_type="round"
       linejoin_type="spiro"
       miter_limit="4"
       scale_width="1"
       end_linecap_type="round" />
    <inkscape:path-effect
       effect="simplify"
       id="path-effect164"
       is_visible="true"
       lpeversion="1"
       steps="1"
       threshold="0.0028332064"
       smooth_angles="0"
       helper_size="0"
       simplify_individual_paths="false"
       simplify_just_coalesce="false"
       step="1" />
    <inkscape:path-effect
       effect="powerstroke"
       id="path-effect159"
       is_visible="true"
       lpeversion="1"
       offset_points="2.2611036,0.075169555"
       not_jump="true"
       sort_points="true"
       interpolator_type="CentripetalCatmullRom"
       interpolator_beta="0.75"
       start_linecap_type="round"
       linejoin_type="spiro"
       miter_limit="4"
       scale_width="1"
       end_linecap_type="round" />
    <inkscape:path-effect
       effect="simplify"
       id="path-effect157"
       is_visible="true"
       lpeversion="1"
       steps="1"
       threshold="0.0028332064"
       smooth_angles="0"
       helper_size="0"
       simplify_individual_paths="false"
       simplify_just_coalesce="false"
       step="1" />
    <inkscape:path-effect
       effect="powerstroke"
       id="path-effect152"
       is_visible="true"
       lpeversion="1"
       offset_points="2.826981,0.075169555"
       not_jump="true"
       sort_points="true"
       interpolator_type="CentripetalCatmullRom"
       interpolator_beta="0.75"
       start_linecap_type="round"
       linejoin_type="spiro"
       miter_limit="4"
       scale_width="1"
       end_linecap_type="round" />
    <inkscape:path-effect
       effect="simplify"
       id="path-effect150"
       is_visible="true"
       lpeversion="1"
       steps="1"
       threshold="0.0028332064"
       smooth_angles="0"
       helper_size="0"
       simplify_individual_paths="false"
       simplify_just_coalesce="false"
       step="1" />
    <inkscape:path-effect
       effect="powerstroke"
       id="path-effect145"
       is_visible="true"
       lpeversion="1"
       offset_points="3.8374447,0.075169555"
       not_jump="true"
       sort_points="true"
       interpolator_type="CentripetalCatmullRom"
       interpolator_beta="0.75"
       start_linecap_type="round"
       linejoin_type="spiro"
       miter_limit="4"
       scale_width="1"
       end_linecap_type="round" />
    <inkscape:path-effect
       effect="simplify"
       id="path-effect143"
       is_visible="true"
       lpeversion="1"
       steps="1"
       threshold="0.0028332064"
       smooth_angles="0"
       helper_size="0"
       simplify_individual_paths="false"
       simplify_just_coalesce="false"
       step="1" />
    <inkscape:path-effect
       effect="powerstroke"
       id="path-effect138"
       is_visible="true"
       lpeversion="1"
       offset_points="2.6880907,0.075169555"
       not_jump="true"
       sort_points="true"
       interpolator_type="CentripetalCatmullRom"
       interpolator_beta="0.75"
       start_linecap_type="round"
       linejoin_type="spiro"
       miter_limit="4"
       scale_width="1"
       end_linecap_type="round" />
    <inkscape:path-effect
       effect="simplify"
       id="path-effect136"
       is_visible="true"
       lpeversion="1"
       steps="1"
       threshold="0.0028332064"
       smooth_angles="0"
       helper_size="0"
       simplify_individual_paths="false"
       simplify_just_coalesce="false"
       step="1" />
    <inkscape:path-effect
       effect="powerstroke"
       id="path-effect131"
       is_visible="true"
       lpeversion="1"
       offset_points="1.9940581,0.075169555"
       not_jump="true"
       sort_points="true"
       interpolator_type="CentripetalCatmullRom"
       interpolator_beta="0.75"
       start_linecap_type="round"
       linejoin_type="spiro"
       miter_limit="4"
       scale_width="1"
       end_linecap_type="round" />
    <inkscape:path-effect
       effect="simplify"
       id="path-effect129"
       is_visible="true"
       lpeversion="1"
       steps="1"
       threshold="0.0028332064"
       smooth_angles="0"
       helper_size="0"
       simplify_individual_paths="false"
       simplify_just_coalesce="false"
       step="1" />
  </defs>
  <sodipodi:namedview
     id="base"
     pagecolor="#ffffff"
     bordercolor="#666666"
     borderopacity="1.0"
     inkscape:pageopacity="0.0"
     inkscape:pageshadow="2"
     inkscape:zoom="7.919596"
     inkscape:cx="-5.3033008"
     inkscape:cy="20.834396"
     inkscape:document-units="mm"
     inkscape:current-layer="layer1"
     showgrid="false"
     fit-margin-top="0"
     fit-margin-left="0"
     fit-margin-right="0"
     fit-margin-bottom="0"
     inkscape:window-width="1920"
     inkscape:window-height="974"
     inkscape:window-x="-11"
     inkscape:window-y="2869"
     inkscape:window-maximized="1"
     showguides="true"
     inkscape:guide-bbox="true"
     inkscape:snap-bbox="true"
     inkscape:bbox-nodes="true"
     inkscape:snap-nodes="false"
     inkscape:snap-others="false"
     inkscape:snap-page="true"
     inkscape:snap-grids="false"
     inkscape:snap-to-guides="false"
     inkscape:snap-global="false"
     inkscape:pagecheckerboard="0"
     inkscape:showpageshadow="2"
     inkscape:deskcolor="#d1d1d1">
    <sodipodi:guide
       position="-6.1806075,9.4988692"
       orientation="0,1"
       id="guide816"
       inkscape:locked="false" />
    <sodipodi:guide
       position="-4.4101636,10.646923"
       orientation="0,1"
       id="guide818"
       inkscape:locked="false" />
    <sodipodi:guide
       position="2.7595724,11.09577"
       orientation="1,0"
       id="guide820"
       inkscape:locked="false" />
    <sodipodi:guide
       position="3.6572659,10.942217"
       orientation="1,0"
       id="guide822"
       inkscape:locked="false" />
    <sodipodi:guide
       position="-0.051625511,9.7492299"
       orientation="1,0"
       id="guide1853"
       inkscape:locked="false" />
    <sodipodi:guide
       position="-2.3720169,3.0175835"
       orientation="0,1"
       id="guide1855"
       inkscape:locked="false" />
  </sodipodi:namedview>
  <metadata
     id="metadata1678">
    <rdf:RDF>
      <cc:Work
         rdf:about="">
        <dc:format>image/svg+xml</dc:format>
        <dc:type
           rdf:resource="http://purl.org/dc/dcmitype/StillImage" />
      </cc:Work>
    </rdf:RDF>
  </metadata>
  <g
     inkscape:label="Layer 1"
     inkscape:groupmode="layer"
     id="layer1"
     transform="translate(17.028496,-147.22856)">
    <path
       d="m -14.759405,149.822 c -0.04655,0.19055 -0.158639,0.58424 -0.264212,1.02978 -0.08663,0.36561 -0.148933,0.71412 -0.163706,1.06835 -0.0011,0.0241 -0.0019,0.047 -0.0026,0.0686 -0.0043,0.13782 -0.0086,0.32825 0.0213,0.54265 2.73e-4,0.002 5.5e-4,0.004 8.32e-4,0.006 0.0013,0.009 0.003,0.0184 0.0066,0.027 0.0036,0.009 0.0087,0.0164 0.01396,0.0241 0.03669,0.0537 0.100154,0.12451 0.194474,0.17285 0.03766,0.0193 0.08147,0.0355 0.130253,0.0438 0.04465,0.008 0.09378,0.008 0.145276,-0.001 0.05743,-0.0108 0.112903,-0.0294 0.166263,-0.0542 0.05044,-0.0234 0.09804,-0.052 0.143536,-0.0839 0.086,-0.0602 0.162383,-0.1307 0.235094,-0.19768 0.112477,-0.1111 0.240479,-0.23578 0.357442,-0.35582 0.234538,-0.25414 0.411082,-0.55529 0.522611,-0.87963 0.111595,-0.32454 0.157483,-0.6705 0.13016,-1.01102 -9.38e-4,-0.0117 -0.0035,-0.0232 -0.0077,-0.0341 -0.0025,-0.007 -0.0067,-0.0164 -0.01303,-0.0268 -0.0033,-0.005 -0.0081,-0.0125 -0.01492,-0.0201 -0.0066,-0.007 -0.01723,-0.0175 -0.03251,-0.0262 -0.0079,-0.004 -0.01721,-0.009 -0.02802,-0.0116 -0.01091,-0.003 -0.02277,-0.005 -0.03524,-0.005 -0.02582,2.7e-4 -0.04774,0.008 -0.06426,0.0185 -0.01568,0.01 -0.02624,0.0208 -0.0327,0.0288 -0.0066,0.008 -0.01115,0.0159 -0.0141,0.0215 -0.0057,0.0109 -0.009,0.0207 -0.01082,0.0266 -0.002,0.007 -0.0034,0.0126 -0.0044,0.0176 -0.002,0.01 -0.0035,0.0197 -0.0045,0.028 -0.0021,0.0167 -0.0036,0.0352 -0.0046,0.0478 -5.92e-4,0.007 -9.89e-4,0.012 -0.0014,0.0162 -3.35e-4,0.004 -3.22e-4,0.003 5.24e-4,-7.9e-4 l -0.0023,0.0152 c -0.02512,0.29766 -0.03871,0.49808 -0.06559,0.74589 -0.136764,1.47971 -0.185711,2.31286 -0.183647,3.1575 a 0.12056779,0.12056779 90 0 0 0.241134,-5.8e-4 c -0.002,-0.83263 0.04678,-1.65903 0.183943,-3.13245 0.02762,-0.24789 0.04228,-0.4529 0.06761,-0.74352 3.13e-4,-0.002 5.6e-4,-0.004 7.52e-4,-0.005 5.17e-4,-0.004 9.55e-4,-0.007 0.0013,-0.0106 7.21e-4,-0.006 0.0014,-0.0136 0.002,-0.0203 0.0013,-0.0141 0.0026,-0.0273 0.004,-0.0378 6.63e-4,-0.005 0.0014,-0.008 0.0014,-0.009 3.1e-5,-5e-5 -7.9e-5,7.9e-4 -8.99e-4,0.004 -5.58e-4,0.002 -0.0025,0.008 -0.0069,0.0165 -0.0022,0.004 -0.0061,0.0108 -0.01194,0.0181 -0.0057,0.007 -0.01553,0.0176 -0.03042,0.0267 -0.01574,0.01 -0.03685,0.0175 -0.06185,0.0178 -0.01206,1.3e-4 -0.02349,-0.002 -0.03398,-0.004 -0.01038,-0.003 -0.01931,-0.007 -0.02673,-0.0111 -0.0144,-0.008 -0.02412,-0.0175 -0.02981,-0.0239 -0.0059,-0.007 -0.0098,-0.0124 -0.01208,-0.0162 -0.0044,-0.007 -0.0065,-0.0127 -0.0069,-0.0136 -0.0021,-0.005 -0.0042,-0.011 -0.0054,-0.0167 -0.0013,-0.006 -0.0018,-0.0116 -0.0023,-0.0174 0.02423,0.30554 -0.01715,0.6174 -0.118274,0.91075 -0.101061,0.29318 -0.260485,0.5641 -0.468491,0.78931 -0.112351,0.11472 -0.238248,0.23705 -0.349184,0.34681 -0.07154,0.0658 -0.135886,0.12485 -0.206032,0.17418 -0.03602,0.0253 -0.07096,0.0461 -0.10571,0.0624 -0.03654,0.0171 -0.07236,0.029 -0.10824,0.036 -0.02022,0.004 -0.03939,0.004 -0.05796,0.001 -0.02054,-0.003 -0.04068,-0.0101 -0.05977,-0.0195 -0.04915,-0.0242 -0.08557,-0.0621 -0.107981,-0.0924 l 0.02055,0.0511 c -4e-6,-2e-5 -8.87e-4,-0.005 -8.91e-4,-0.005 -0.03213,-0.19607 -0.04458,-0.37191 -0.04361,-0.50236 1.51e-4,-0.0203 5.62e-4,-0.0418 0.0013,-0.0644 0.01269,-0.33448 0.07201,-0.66902 0.1574,-1.02724 0.104062,-0.43653 0.218326,-0.83405 0.265717,-1.02803 a 0.10807731,0.10807731 90 0 0 -0.209978,-0.0513 z"
       id="path-1"
       inkscape:path-effect="#path-effect522;#path-effect524"
       inkscape:original-d="m -14.654416,149.84765 c -0.213354,0.8723 -0.533394,1.76042 -0.394148,2.67136 0.353138,0.46408 0.827036,-0.15667 1.107344,-0.41356 0.484917,-0.47808 0.737808,-1.15526 0.699772,-1.83379 -0.01886,-0.27967 -0.05572,0.49514 -0.08253,0.66387 -0.101867,1.09219 -0.19947,2.18684 -0.196791,3.28475"
       style="fill:#000000;fill-rule:nonzero;stroke:none;stroke-width:1.18161" />
  </g>
</svg>
