<?xml version="1.0" encoding="UTF-8" standalone="no"?>
<!-- Created with Inkscape (http://www.inkscape.org/) -->

<svg
   width="6mm"
   height="10mm"
   viewBox="0 0 6.0000001 9.9999994"
   version="1.1"
   id="svg1681"
   inkscape:version="1.2.1 (9c6d41e410, 2022-07-14)"
   sodipodi:docname="number four 1.3.svg"
   inkscape:export-filename="..\..\..\..\Downloads\lower a diff canvas resize 3.0.png"
   inkscape:export-xdpi="96"
   inkscape:export-ydpi="96"
   xmlns:inkscape="http://www.inkscape.org/namespaces/inkscape"
   xmlns:sodipodi="http://sodipodi.sourceforge.net/DTD/sodipodi-0.dtd"
   xmlns="http://www.w3.org/2000/svg"
   xmlns:svg="http://www.w3.org/2000/svg"
   xmlns:rdf="http://www.w3.org/1999/02/22-rdf-syntax-ns#"
   xmlns:cc="http://creativecommons.org/ns#"
   xmlns:dc="http://purl.org/dc/elements/1.1/">
  <defs
     id="defs1675">
    <inkscape:path-effect
       effect="powerstroke"
       id="path-effect446"
       is_visible="true"
       lpeversion="1"
       offset_points="1.2783792,0.12022235"
       not_jump="true"
       sort_points="true"
       interpolator_type="CentripetalCatmullRom"
       interpolator_beta="0.75"
       start_linecap_type="round"
       linejoin_type="spiro"
       miter_limit="4"
       scale_width="1"
       end_linecap_type="round" />
    <inkscape:path-effect
       effect="simplify"
       id="path-effect444"
       is_visible="true"
       lpeversion="1"
       steps="1"
       threshold="0.0035951417"
       smooth_angles="0"
       helper_size="0"
       simplify_individual_paths="false"
       simplify_just_coalesce="false"
       step="1" />
    <inkscape:path-effect
       effect="powerstroke"
       id="path-effect439"
       is_visible="true"
       lpeversion="1"
       offset_points="3.6016306,0.11428113"
       not_jump="true"
       sort_points="true"
       interpolator_type="CentripetalCatmullRom"
       interpolator_beta="0.75"
       start_linecap_type="round"
       linejoin_type="spiro"
       miter_limit="4"
       scale_width="1"
       end_linecap_type="round" />
    <inkscape:path-effect
       effect="simplify"
       id="path-effect437"
       is_visible="true"
       lpeversion="1"
       steps="1"
       threshold="0.0035951417"
       smooth_angles="0"
       helper_size="0"
       simplify_individual_paths="false"
       simplify_just_coalesce="false"
       step="1" />
    <inkscape:path-effect
       effect="powerstroke"
       id="path-effect502"
       is_visible="true"
       lpeversion="1"
       offset_points="3.0091841,0.21607495 | 7.3602657,0.17554228 | 9.4159651,0.20236537"
       not_jump="true"
       sort_points="true"
       interpolator_type="CentripetalCatmullRom"
       interpolator_beta="0.75"
       start_linecap_type="round"
       linejoin_type="spiro"
       miter_limit="4"
       scale_width="1"
       end_linecap_type="round" />
    <inkscape:path-effect
       effect="simplify"
       id="path-effect500"
       is_visible="true"
       lpeversion="1"
       steps="1"
       threshold="0.0035951417"
       smooth_angles="0"
       helper_size="0"
       simplify_individual_paths="false"
       simplify_just_coalesce="false"
       step="1" />
    <inkscape:path-effect
       effect="powerstroke"
       id="path-effect241"
       is_visible="true"
       lpeversion="1"
       offset_points="2.6879454,0.34086734"
       not_jump="true"
       sort_points="true"
       interpolator_type="CentripetalCatmullRom"
       interpolator_beta="0.75"
       start_linecap_type="round"
       linejoin_type="spiro"
       miter_limit="4"
       scale_width="1"
       end_linecap_type="round" />
    <inkscape:path-effect
       effect="simplify"
       id="path-effect239"
       is_visible="true"
       lpeversion="1"
       steps="1"
       threshold="0.0028332064"
       smooth_angles="0"
       helper_size="0"
       simplify_individual_paths="false"
       simplify_just_coalesce="false"
       step="1" />
    <inkscape:path-effect
       effect="powerstroke"
       id="path-effect234"
       is_visible="true"
       lpeversion="1"
       offset_points="2.13563,0.075169555"
       not_jump="true"
       sort_points="true"
       interpolator_type="CentripetalCatmullRom"
       interpolator_beta="0.75"
       start_linecap_type="round"
       linejoin_type="spiro"
       miter_limit="4"
       scale_width="1"
       end_linecap_type="round" />
    <inkscape:path-effect
       effect="simplify"
       id="path-effect232"
       is_visible="true"
       lpeversion="1"
       steps="1"
       threshold="0.0028332064"
       smooth_angles="0"
       helper_size="0"
       simplify_individual_paths="false"
       simplify_just_coalesce="false"
       step="1" />
    <inkscape:path-effect
       effect="powerstroke"
       id="path-effect227"
       is_visible="true"
       lpeversion="1"
       offset_points="2.1868266,0.075169555"
       not_jump="true"
       sort_points="true"
       interpolator_type="CentripetalCatmullRom"
       interpolator_beta="0.75"
       start_linecap_type="round"
       linejoin_type="spiro"
       miter_limit="4"
       scale_width="1"
       end_linecap_type="round" />
    <inkscape:path-effect
       effect="simplify"
       id="path-effect225"
       is_visible="true"
       lpeversion="1"
       steps="1"
       threshold="0.0028332064"
       smooth_angles="0"
       helper_size="0"
       simplify_individual_paths="false"
       simplify_just_coalesce="false"
       step="1" />
    <inkscape:path-effect
       effect="powerstroke"
       id="path-effect166"
       is_visible="true"
       lpeversion="1"
       offset_points="1.9637935,0.075169555"
       not_jump="true"
       sort_points="true"
       interpolator_type="CentripetalCatmullRom"
       interpolator_beta="0.75"
       start_linecap_type="round"
       linejoin_type="spiro"
       miter_limit="4"
       scale_width="1"
       end_linecap_type="round" />
    <inkscape:path-effect
       effect="simplify"
       id="path-effect164"
       is_visible="true"
       lpeversion="1"
       steps="1"
       threshold="0.0028332064"
       smooth_angles="0"
       helper_size="0"
       simplify_individual_paths="false"
       simplify_just_coalesce="false"
       step="1" />
    <inkscape:path-effect
       effect="powerstroke"
       id="path-effect159"
       is_visible="true"
       lpeversion="1"
       offset_points="2.2611036,0.075169555"
       not_jump="true"
       sort_points="true"
       interpolator_type="CentripetalCatmullRom"
       interpolator_beta="0.75"
       start_linecap_type="round"
       linejoin_type="spiro"
       miter_limit="4"
       scale_width="1"
       end_linecap_type="round" />
    <inkscape:path-effect
       effect="simplify"
       id="path-effect157"
       is_visible="true"
       lpeversion="1"
       steps="1"
       threshold="0.0028332064"
       smooth_angles="0"
       helper_size="0"
       simplify_individual_paths="false"
       simplify_just_coalesce="false"
       step="1" />
    <inkscape:path-effect
       effect="powerstroke"
       id="path-effect152"
       is_visible="true"
       lpeversion="1"
       offset_points="2.826981,0.075169555"
       not_jump="true"
       sort_points="true"
       interpolator_type="CentripetalCatmullRom"
       interpolator_beta="0.75"
       start_linecap_type="round"
       linejoin_type="spiro"
       miter_limit="4"
       scale_width="1"
       end_linecap_type="round" />
    <inkscape:path-effect
       effect="simplify"
       id="path-effect150"
       is_visible="true"
       lpeversion="1"
       steps="1"
       threshold="0.0028332064"
       smooth_angles="0"
       helper_size="0"
       simplify_individual_paths="false"
       simplify_just_coalesce="false"
       step="1" />
    <inkscape:path-effect
       effect="powerstroke"
       id="path-effect145"
       is_visible="true"
       lpeversion="1"
       offset_points="3.8374447,0.075169555"
       not_jump="true"
       sort_points="true"
       interpolator_type="CentripetalCatmullRom"
       interpolator_beta="0.75"
       start_linecap_type="round"
       linejoin_type="spiro"
       miter_limit="4"
       scale_width="1"
       end_linecap_type="round" />
    <inkscape:path-effect
       effect="simplify"
       id="path-effect143"
       is_visible="true"
       lpeversion="1"
       steps="1"
       threshold="0.0028332064"
       smooth_angles="0"
       helper_size="0"
       simplify_individual_paths="false"
       simplify_just_coalesce="false"
       step="1" />
    <inkscape:path-effect
       effect="powerstroke"
       id="path-effect138"
       is_visible="true"
       lpeversion="1"
       offset_points="2.6880907,0.075169555"
       not_jump="true"
       sort_points="true"
       interpolator_type="CentripetalCatmullRom"
       interpolator_beta="0.75"
       start_linecap_type="round"
       linejoin_type="spiro"
       miter_limit="4"
       scale_width="1"
       end_linecap_type="round" />
    <inkscape:path-effect
       effect="simplify"
       id="path-effect136"
       is_visible="true"
       lpeversion="1"
       steps="1"
       threshold="0.0028332064"
       smooth_angles="0"
       helper_size="0"
       simplify_individual_paths="false"
       simplify_just_coalesce="false"
       step="1" />
    <inkscape:path-effect
       effect="powerstroke"
       id="path-effect131"
       is_visible="true"
       lpeversion="1"
       offset_points="1.9940581,0.075169555"
       not_jump="true"
       sort_points="true"
       interpolator_type="CentripetalCatmullRom"
       interpolator_beta="0.75"
       start_linecap_type="round"
       linejoin_type="spiro"
       miter_limit="4"
       scale_width="1"
       end_linecap_type="round" />
    <inkscape:path-effect
       effect="simplify"
       id="path-effect129"
       is_visible="true"
       lpeversion="1"
       steps="1"
       threshold="0.0028332064"
       smooth_angles="0"
       helper_size="0"
       simplify_individual_paths="false"
       simplify_just_coalesce="false"
       step="1" />
  </defs>
  <sodipodi:namedview
     id="base"
     pagecolor="#ffffff"
     bordercolor="#666666"
     borderopacity="1.0"
     inkscape:pageopacity="0.0"
     inkscape:pageshadow="2"
     inkscape:zoom="7.919596"
     inkscape:cx="-5.3033008"
     inkscape:cy="20.834396"
     inkscape:document-units="mm"
     inkscape:current-layer="layer1"
     showgrid="false"
     fit-margin-top="0"
     fit-margin-left="0"
     fit-margin-right="0"
     fit-margin-bottom="0"
     inkscape:window-width="1920"
     inkscape:window-height="974"
     inkscape:window-x="-11"
     inkscape:window-y="2869"
     inkscape:window-maximized="1"
     showguides="true"
     inkscape:guide-bbox="true"
     inkscape:snap-bbox="true"
     inkscape:bbox-nodes="true"
     inkscape:snap-nodes="false"
     inkscape:snap-others="false"
     inkscape:snap-page="true"
     inkscape:snap-grids="false"
     inkscape:snap-to-guides="false"
     inkscape:snap-global="false"
     inkscape:pagecheckerboard="0"
     inkscape:showpageshadow="2"
     inkscape:deskcolor="#d1d1d1">
    <sodipodi:guide
       position="-6.1806075,9.4988692"
       orientation="0,1"
       id="guide816"
       inkscape:locked="false" />
    <sodipodi:guide
       position="-4.4101636,10.646923"
       orientation="0,1"
       id="guide818"
       inkscape:locked="false" />
    <sodipodi:guide
       position="2.7595724,11.09577"
       orientation="1,0"
       id="guide820"
       inkscape:locked="false" />
    <sodipodi:guide
       position="3.6572659,10.942217"
       orientation="1,0"
       id="guide822"
       inkscape:locked="false" />
    <sodipodi:guide
       position="-0.051625511,9.7492299"
       orientation="1,0"
       id="guide1853"
       inkscape:locked="false" />
    <sodipodi:guide
       position="-2.3720169,3.0175835"
       orientation="0,1"
       id="guide1855"
       inkscape:locked="false" />
  </sodipodi:namedview>
  <metadata
     id="metadata1678">
    <rdf:RDF>
      <cc:Work
         rdf:about="">
        <dc:format>image/svg+xml</dc:format>
        <dc:type
           rdf:resource="http://purl.org/dc/dcmitype/StillImage" />
      </cc:Work>
    </rdf:RDF>
  </metadata>
  <g
     inkscape:label="Layer 1"
     inkscape:groupmode="layer"
     id="layer1"
     transform="translate(17.028496,-147.22856)">
    <path
       d="m -15.134046,149.29194 c 0.0017,-0.005 0.0035,-0.0102 0.0055,-0.0163 0.0017,-0.005 0.0034,-0.0109 0.0054,-0.0171 0.0028,-0.009 0.0077,-0.0255 0.0105,-0.0346 0.0032,-0.0105 0.006,-0.0195 0.008,-0.0251 -0.0023,0.005 -0.0037,0.007 -0.0057,0.0104 -0.0017,0.003 -0.0056,0.009 -0.01176,0.0158 -0.0032,0.004 -0.0082,0.009 -0.01505,0.014 -0.0066,0.005 -0.01759,0.0124 -0.03274,0.0176 -0.02077,0.007 -0.04207,0.0139 -0.06402,0.0139 -0.02195,4e-5 -0.04415,-0.007 -0.06068,-0.0216 -0.01653,-0.0144 -0.02663,-0.0355 -0.02955,-0.0572 -0.0029,-0.0217 9.67e-4,-0.0438 0.0052,-0.0653 -0.01031,0.0526 -0.02438,0.1215 -0.03125,0.18929 -0.0066,0.0654 -0.0078,0.13888 0.0081,0.21495 0.0019,0.009 0.005,0.0183 0.0092,0.0268 0.02141,0.0438 0.0337,0.0933 0.04073,0.15032 0.03195,0.20719 0.02573,0.41304 0.01008,0.61386 -0.0033,0.0427 -0.0071,0.0854 -0.01106,0.1277 -0.01388,0.14834 -0.03478,0.33579 -0.04385,0.50633 -0.01222,0.086 -0.0089,0.18073 0.01719,0.27305 0.0254,0.0898 0.07291,0.17852 0.149239,0.24968 0.0456,0.0432 0.09718,0.0786 0.151924,0.10636 0.05451,0.0276 0.111864,0.0476 0.16997,0.0611 0.117075,0.0271 0.2381,0.0279 0.349058,0.0112 0.126449,-0.0184 0.239496,-0.0634 0.33284,-0.11616 0.167522,-0.0677 0.330555,-0.14767 0.46009,-0.21207 0.213049,-0.10592 0.309448,-0.1554 0.450794,-0.21931 a 0.11428113,0.11428113 90 0 0 -0.09417,-0.20826 c -0.146155,0.0661 -0.247246,0.11794 -0.458376,0.22291 -0.131364,0.0653 -0.290017,0.14298 -0.450799,0.20756 -0.0049,0.002 -0.0098,0.004 -0.01437,0.007 -0.07477,0.043 -0.163051,0.0782 -0.259492,0.0922 -0.08724,0.0131 -0.178908,0.0119 -0.264072,-0.008 -0.04195,-0.01 -0.08163,-0.0237 -0.11807,-0.0422 -0.03648,-0.0185 -0.06964,-0.0414 -0.09879,-0.0691 -0.04172,-0.0389 -0.06991,-0.089 -0.08584,-0.14535 -0.01687,-0.0597 -0.01919,-0.12345 -0.01028,-0.1825 5.58e-4,-0.004 9.34e-4,-0.007 0.0011,-0.0111 0.0086,-0.16565 0.02883,-0.34595 0.04345,-0.50225 0.004,-0.043 0.0079,-0.087 0.01137,-0.13123 0.0161,-0.20658 0.02393,-0.43317 -0.01159,-0.66304 -0.0079,-0.0643 -0.02339,-0.13531 -0.05488,-0.20468 -0.0071,-0.0417 -0.0069,-0.0859 -0.0021,-0.13297 0.0056,-0.0549 0.01714,-0.11225 0.02813,-0.16831 0.0042,-0.0215 0.0081,-0.0436 0.0052,-0.0653 -0.0029,-0.0218 -0.01302,-0.0428 -0.02955,-0.0572 -0.01653,-0.0144 -0.03873,-0.0216 -0.06068,-0.0216 -0.02195,4e-5 -0.04325,0.007 -0.06402,0.0139 -0.01529,0.005 -0.0264,0.0126 -0.03317,0.0178 -0.007,0.005 -0.01218,0.0107 -0.01552,0.0144 -0.0065,0.007 -0.01076,0.0139 -0.01284,0.0173 -0.0024,0.004 -0.0042,0.007 -0.0054,0.01 -0.0013,0.002 -0.0023,0.005 -0.0031,0.007 -0.0016,0.004 -0.0029,0.007 -0.0039,0.01 -0.0011,0.003 -0.0021,0.006 -0.0029,0.008 -0.0036,0.0103 -0.0075,0.023 -0.01064,0.0333 -0.0042,0.0137 -0.0062,0.0206 -0.01041,0.0343 -0.0018,0.006 -0.0032,0.0104 -0.0045,0.0144 -0.0015,0.005 -0.0025,0.008 -0.0032,0.01 a 0.11428113,0.11428113 90 0 0 0.215366,0.0765 z"
       id="path-1"
       inkscape:path-effect="#path-effect437;#path-effect439"
       inkscape:original-d="m -15.241729,149.25367 c 0.108235,-0.33986 -0.07097,0.17863 0.03735,0.30866 0.109956,0.46768 0.0054,0.936 -0.0189,1.40471 -0.07679,0.57576 0.595997,0.71549 0.999113,0.47375 0.315861,-0.12608 0.611609,-0.29542 0.921064,-0.43535"
       style="fill:#000000;fill-rule:nonzero;stroke:none;stroke-width:1.19021" />
    <path
       d="m -13.17303,149.37368 c -0.04551,0.39971 -0.07797,0.93344 -0.0448,1.73322 0.02381,0.57397 0.07172,1.11227 0.115874,1.71744 0.005,0.0617 0.0092,0.12182 0.01294,0.17849 0.0075,0.1143 0.01868,0.31504 0.03144,0.46732 0.04622,0.29872 0.120631,0.4899 0.188857,0.62251 a 0.12022235,0.12022235 90 0 0 0.213806,-0.11 c -0.05652,-0.10987 -0.122857,-0.27642 -0.16407,-0.54105 -0.01151,-0.14098 -0.02233,-0.3357 -0.0301,-0.45447 -0.0037,-0.0573 -0.008,-0.11885 -0.01315,-0.18135 -0.04441,-0.60877 -0.09176,-1.1399 -0.115362,-1.70885 -0.03268,-0.78784 -5.92e-4,-1.30913 0.04347,-1.69606 a 0.12022235,0.12022235 90 0 0 -0.238902,-0.0272 z"
       id="path-1-8"
       inkscape:path-effect="#path-effect444;#path-effect446"
       inkscape:original-d="m -13.053579,149.38728 c -0.153268,1.34649 0.0388,2.69859 0.111368,4.04339 0.03047,0.20941 0.08315,0.41796 0.180391,0.60699"
       style="fill:#000000;fill-rule:nonzero;stroke:none;stroke-width:1.19021" />
  </g>
</svg>
