<?xml version="1.0" encoding="UTF-8" standalone="no"?>
<!-- Created with Inkscape (http://www.inkscape.org/) -->

<svg
   width="6mm"
   height="10mm"
   viewBox="0 0 6.0000001 9.9999994"
   version="1.1"
   id="svg1681"
   inkscape:version="1.2.1 (9c6d41e410, 2022-07-14)"
   sodipodi:docname="lower s 1.2.svg"
   inkscape:export-filename="..\..\..\..\Downloads\lower a diff canvas resize 3.0.png"
   inkscape:export-xdpi="96"
   inkscape:export-ydpi="96"
   xmlns:inkscape="http://www.inkscape.org/namespaces/inkscape"
   xmlns:sodipodi="http://sodipodi.sourceforge.net/DTD/sodipodi-0.dtd"
   xmlns="http://www.w3.org/2000/svg"
   xmlns:svg="http://www.w3.org/2000/svg"
   xmlns:rdf="http://www.w3.org/1999/02/22-rdf-syntax-ns#"
   xmlns:cc="http://creativecommons.org/ns#"
   xmlns:dc="http://purl.org/dc/elements/1.1/">
  <defs
     id="defs1675">
    <inkscape:path-effect
       effect="powerstroke"
       id="path-effect265"
       is_visible="true"
       lpeversion="1"
       offset_points="2.7749358,0.10064963"
       not_jump="true"
       sort_points="true"
       interpolator_type="CentripetalCatmullRom"
       interpolator_beta="0.75"
       start_linecap_type="round"
       linejoin_type="spiro"
       miter_limit="4"
       scale_width="1"
       end_linecap_type="round" />
    <inkscape:path-effect
       effect="simplify"
       id="path-effect263"
       is_visible="true"
       lpeversion="1"
       steps="1"
       threshold="0.0035951417"
       smooth_angles="0"
       helper_size="0"
       simplify_individual_paths="false"
       simplify_just_coalesce="false"
       step="1" />
    <inkscape:path-effect
       effect="powerstroke"
       id="path-effect258"
       is_visible="true"
       lpeversion="1"
       offset_points="2.1687504,0.094863163 | 11.046966,0.11461094 | 12.51448,0.10353742"
       not_jump="true"
       sort_points="true"
       interpolator_type="CentripetalCatmullRom"
       interpolator_beta="0.75"
       start_linecap_type="round"
       linejoin_type="spiro"
       miter_limit="4"
       scale_width="1"
       end_linecap_type="round" />
    <inkscape:path-effect
       effect="simplify"
       id="path-effect256"
       is_visible="true"
       lpeversion="1"
       steps="1"
       threshold="0.0035951417"
       smooth_angles="0"
       helper_size="0"
       simplify_individual_paths="false"
       simplify_just_coalesce="false"
       step="1" />
    <inkscape:path-effect
       effect="powerstroke"
       id="path-effect251"
       is_visible="true"
       lpeversion="1"
       offset_points="3.5488213,0.09394037 | 16.761554,0.1147955"
       not_jump="true"
       sort_points="true"
       interpolator_type="CentripetalCatmullRom"
       interpolator_beta="0.75"
       start_linecap_type="round"
       linejoin_type="spiro"
       miter_limit="4"
       scale_width="1"
       end_linecap_type="round" />
    <inkscape:path-effect
       effect="simplify"
       id="path-effect249"
       is_visible="true"
       lpeversion="1"
       steps="1"
       threshold="0.0035951417"
       smooth_angles="0"
       helper_size="0"
       simplify_individual_paths="false"
       simplify_just_coalesce="false"
       step="1" />
    <inkscape:path-effect
       effect="powerstroke"
       id="path-effect244"
       is_visible="true"
       lpeversion="1"
       offset_points="9.0027493,0.1031683"
       not_jump="true"
       sort_points="true"
       interpolator_type="CentripetalCatmullRom"
       interpolator_beta="0.75"
       start_linecap_type="round"
       linejoin_type="spiro"
       miter_limit="4"
       scale_width="1"
       end_linecap_type="round" />
    <inkscape:path-effect
       effect="simplify"
       id="path-effect242"
       is_visible="true"
       lpeversion="1"
       steps="1"
       threshold="0.0035951417"
       smooth_angles="0"
       helper_size="0"
       simplify_individual_paths="false"
       simplify_just_coalesce="false"
       step="1" />
    <inkscape:path-effect
       effect="powerstroke"
       id="path-effect183"
       is_visible="true"
       lpeversion="1"
       offset_points="1.6213509,0.11637614 | 2.7469365,0.13025246 | 8.7182132,0.07345203 | 10.513115,0.11304582"
       not_jump="true"
       sort_points="true"
       interpolator_type="CentripetalCatmullRom"
       interpolator_beta="0.75"
       start_linecap_type="round"
       linejoin_type="spiro"
       miter_limit="4"
       scale_width="1"
       end_linecap_type="round" />
    <inkscape:path-effect
       effect="simplify"
       id="path-effect181"
       is_visible="true"
       lpeversion="1"
       steps="1"
       threshold="0.0035951417"
       smooth_angles="0"
       helper_size="0"
       simplify_individual_paths="false"
       simplify_just_coalesce="false"
       step="1" />
    <inkscape:path-effect
       effect="powerstroke"
       id="path-effect502"
       is_visible="true"
       lpeversion="1"
       offset_points="3.0091841,0.21607495 | 7.3602657,0.17554228 | 9.4159651,0.20236537"
       not_jump="true"
       sort_points="true"
       interpolator_type="CentripetalCatmullRom"
       interpolator_beta="0.75"
       start_linecap_type="round"
       linejoin_type="spiro"
       miter_limit="4"
       scale_width="1"
       end_linecap_type="round" />
    <inkscape:path-effect
       effect="simplify"
       id="path-effect500"
       is_visible="true"
       lpeversion="1"
       steps="1"
       threshold="0.0035951417"
       smooth_angles="0"
       helper_size="0"
       simplify_individual_paths="false"
       simplify_just_coalesce="false"
       step="1" />
    <inkscape:path-effect
       effect="powerstroke"
       id="path-effect241"
       is_visible="true"
       lpeversion="1"
       offset_points="2.6879454,0.34086734"
       not_jump="true"
       sort_points="true"
       interpolator_type="CentripetalCatmullRom"
       interpolator_beta="0.75"
       start_linecap_type="round"
       linejoin_type="spiro"
       miter_limit="4"
       scale_width="1"
       end_linecap_type="round" />
    <inkscape:path-effect
       effect="simplify"
       id="path-effect239"
       is_visible="true"
       lpeversion="1"
       steps="1"
       threshold="0.0028332064"
       smooth_angles="0"
       helper_size="0"
       simplify_individual_paths="false"
       simplify_just_coalesce="false"
       step="1" />
    <inkscape:path-effect
       effect="powerstroke"
       id="path-effect234"
       is_visible="true"
       lpeversion="1"
       offset_points="2.13563,0.075169555"
       not_jump="true"
       sort_points="true"
       interpolator_type="CentripetalCatmullRom"
       interpolator_beta="0.75"
       start_linecap_type="round"
       linejoin_type="spiro"
       miter_limit="4"
       scale_width="1"
       end_linecap_type="round" />
    <inkscape:path-effect
       effect="simplify"
       id="path-effect232"
       is_visible="true"
       lpeversion="1"
       steps="1"
       threshold="0.0028332064"
       smooth_angles="0"
       helper_size="0"
       simplify_individual_paths="false"
       simplify_just_coalesce="false"
       step="1" />
    <inkscape:path-effect
       effect="powerstroke"
       id="path-effect227"
       is_visible="true"
       lpeversion="1"
       offset_points="2.1868266,0.075169555"
       not_jump="true"
       sort_points="true"
       interpolator_type="CentripetalCatmullRom"
       interpolator_beta="0.75"
       start_linecap_type="round"
       linejoin_type="spiro"
       miter_limit="4"
       scale_width="1"
       end_linecap_type="round" />
    <inkscape:path-effect
       effect="simplify"
       id="path-effect225"
       is_visible="true"
       lpeversion="1"
       steps="1"
       threshold="0.0028332064"
       smooth_angles="0"
       helper_size="0"
       simplify_individual_paths="false"
       simplify_just_coalesce="false"
       step="1" />
    <inkscape:path-effect
       effect="powerstroke"
       id="path-effect166"
       is_visible="true"
       lpeversion="1"
       offset_points="1.9637935,0.075169555"
       not_jump="true"
       sort_points="true"
       interpolator_type="CentripetalCatmullRom"
       interpolator_beta="0.75"
       start_linecap_type="round"
       linejoin_type="spiro"
       miter_limit="4"
       scale_width="1"
       end_linecap_type="round" />
    <inkscape:path-effect
       effect="simplify"
       id="path-effect164"
       is_visible="true"
       lpeversion="1"
       steps="1"
       threshold="0.0028332064"
       smooth_angles="0"
       helper_size="0"
       simplify_individual_paths="false"
       simplify_just_coalesce="false"
       step="1" />
    <inkscape:path-effect
       effect="powerstroke"
       id="path-effect159"
       is_visible="true"
       lpeversion="1"
       offset_points="2.2611036,0.075169555"
       not_jump="true"
       sort_points="true"
       interpolator_type="CentripetalCatmullRom"
       interpolator_beta="0.75"
       start_linecap_type="round"
       linejoin_type="spiro"
       miter_limit="4"
       scale_width="1"
       end_linecap_type="round" />
    <inkscape:path-effect
       effect="simplify"
       id="path-effect157"
       is_visible="true"
       lpeversion="1"
       steps="1"
       threshold="0.0028332064"
       smooth_angles="0"
       helper_size="0"
       simplify_individual_paths="false"
       simplify_just_coalesce="false"
       step="1" />
    <inkscape:path-effect
       effect="powerstroke"
       id="path-effect152"
       is_visible="true"
       lpeversion="1"
       offset_points="2.826981,0.075169555"
       not_jump="true"
       sort_points="true"
       interpolator_type="CentripetalCatmullRom"
       interpolator_beta="0.75"
       start_linecap_type="round"
       linejoin_type="spiro"
       miter_limit="4"
       scale_width="1"
       end_linecap_type="round" />
    <inkscape:path-effect
       effect="simplify"
       id="path-effect150"
       is_visible="true"
       lpeversion="1"
       steps="1"
       threshold="0.0028332064"
       smooth_angles="0"
       helper_size="0"
       simplify_individual_paths="false"
       simplify_just_coalesce="false"
       step="1" />
    <inkscape:path-effect
       effect="powerstroke"
       id="path-effect145"
       is_visible="true"
       lpeversion="1"
       offset_points="3.8374447,0.075169555"
       not_jump="true"
       sort_points="true"
       interpolator_type="CentripetalCatmullRom"
       interpolator_beta="0.75"
       start_linecap_type="round"
       linejoin_type="spiro"
       miter_limit="4"
       scale_width="1"
       end_linecap_type="round" />
    <inkscape:path-effect
       effect="simplify"
       id="path-effect143"
       is_visible="true"
       lpeversion="1"
       steps="1"
       threshold="0.0028332064"
       smooth_angles="0"
       helper_size="0"
       simplify_individual_paths="false"
       simplify_just_coalesce="false"
       step="1" />
    <inkscape:path-effect
       effect="powerstroke"
       id="path-effect138"
       is_visible="true"
       lpeversion="1"
       offset_points="2.6880907,0.075169555"
       not_jump="true"
       sort_points="true"
       interpolator_type="CentripetalCatmullRom"
       interpolator_beta="0.75"
       start_linecap_type="round"
       linejoin_type="spiro"
       miter_limit="4"
       scale_width="1"
       end_linecap_type="round" />
    <inkscape:path-effect
       effect="simplify"
       id="path-effect136"
       is_visible="true"
       lpeversion="1"
       steps="1"
       threshold="0.0028332064"
       smooth_angles="0"
       helper_size="0"
       simplify_individual_paths="false"
       simplify_just_coalesce="false"
       step="1" />
    <inkscape:path-effect
       effect="powerstroke"
       id="path-effect131"
       is_visible="true"
       lpeversion="1"
       offset_points="1.9940581,0.075169555"
       not_jump="true"
       sort_points="true"
       interpolator_type="CentripetalCatmullRom"
       interpolator_beta="0.75"
       start_linecap_type="round"
       linejoin_type="spiro"
       miter_limit="4"
       scale_width="1"
       end_linecap_type="round" />
    <inkscape:path-effect
       effect="simplify"
       id="path-effect129"
       is_visible="true"
       lpeversion="1"
       steps="1"
       threshold="0.0028332064"
       smooth_angles="0"
       helper_size="0"
       simplify_individual_paths="false"
       simplify_just_coalesce="false"
       step="1" />
  </defs>
  <sodipodi:namedview
     id="base"
     pagecolor="#ffffff"
     bordercolor="#666666"
     borderopacity="1.0"
     inkscape:pageopacity="0.0"
     inkscape:pageshadow="2"
     inkscape:zoom="5.6"
     inkscape:cx="-21.964286"
     inkscape:cy="12.142857"
     inkscape:document-units="mm"
     inkscape:current-layer="layer1"
     showgrid="false"
     fit-margin-top="0"
     fit-margin-left="0"
     fit-margin-right="0"
     fit-margin-bottom="0"
     inkscape:window-width="1280"
     inkscape:window-height="649"
     inkscape:window-x="-8"
     inkscape:window-y="1912"
     inkscape:window-maximized="1"
     showguides="true"
     inkscape:guide-bbox="true"
     inkscape:snap-bbox="true"
     inkscape:bbox-nodes="true"
     inkscape:snap-nodes="false"
     inkscape:snap-others="false"
     inkscape:snap-page="true"
     inkscape:snap-grids="false"
     inkscape:snap-to-guides="false"
     inkscape:snap-global="false"
     inkscape:pagecheckerboard="0"
     inkscape:showpageshadow="2"
     inkscape:deskcolor="#d1d1d1">
    <sodipodi:guide
       position="-6.1806075,9.4988692"
       orientation="0,1"
       id="guide816"
       inkscape:locked="false" />
    <sodipodi:guide
       position="-4.4101636,10.646923"
       orientation="0,1"
       id="guide818"
       inkscape:locked="false" />
    <sodipodi:guide
       position="2.7595724,11.09577"
       orientation="1,0"
       id="guide820"
       inkscape:locked="false" />
    <sodipodi:guide
       position="3.6572659,10.942217"
       orientation="1,0"
       id="guide822"
       inkscape:locked="false" />
    <sodipodi:guide
       position="-0.051625511,9.7492299"
       orientation="1,0"
       id="guide1853"
       inkscape:locked="false" />
    <sodipodi:guide
       position="-2.3720169,3.0175835"
       orientation="0,1"
       id="guide1855"
       inkscape:locked="false" />
  </sodipodi:namedview>
  <metadata
     id="metadata1678">
    <rdf:RDF>
      <cc:Work
         rdf:about="">
        <dc:format>image/svg+xml</dc:format>
        <dc:type
           rdf:resource="http://purl.org/dc/dcmitype/StillImage" />
      </cc:Work>
    </rdf:RDF>
  </metadata>
  <g
     inkscape:label="Layer 1"
     inkscape:groupmode="layer"
     id="layer1"
     transform="translate(17.028496,-147.22856)">
    <path
       d="m -12.974002,151.37512 c -0.04331,-0.0697 -0.13398,-0.19308 -0.287786,-0.28851 -0.109907,-0.0682 -0.2449,-0.11685 -0.394541,-0.11715 -0.259617,-0.0209 -0.495375,0.0119 -0.692095,0.0681 -0.154124,0.044 -0.287301,0.10259 -0.398373,0.165 -0.0023,0.001 -0.0046,0.003 -0.0068,0.004 -0.0022,0.002 -0.0043,0.003 -0.0065,0.005 -0.06178,0.0446 -0.121369,0.11314 -0.154014,0.20741 -0.0125,0.0361 -0.02198,0.079 -0.02357,0.12695 -0.0013,0.0401 0.0029,0.0861 0.01739,0.1345 0.02289,0.0853 0.06888,0.17312 0.138884,0.25317 0.05824,0.0666 0.131236,0.1255 0.214783,0.17171 0.246254,0.17226 0.514503,0.28872 0.793248,0.41086 0.261408,0.11454 0.523916,0.23095 0.752507,0.39952 0.101022,0.0681 0.188613,0.15146 0.286875,0.24479 0.05461,0.0566 0.08849,0.13946 0.09325,0.22505 0.0024,0.0431 -0.0027,0.0857 -0.01499,0.12519 -0.01251,0.0401 -0.03241,0.0768 -0.05951,0.10821 -0.01674,0.0207 -0.03498,0.0377 -0.05552,0.053 -0.02124,0.0159 -0.04478,0.03 -0.07004,0.0431 -0.05372,0.0279 -0.113837,0.0508 -0.170836,0.0766 -0.220043,0.0867 -0.435332,0.13955 -0.635244,0.1627 -0.100823,0.0117 -0.196084,0.0156 -0.285471,0.0135 -0.126109,-0.003 -0.247703,-0.0186 -0.364032,-0.046 -0.183245,-0.0456 -0.336791,-0.13048 -0.453551,-0.20845 -0.01695,-0.0153 -0.02725,-0.0259 -0.03724,-0.0326 -0.01466,-0.01 -0.02982,-0.0146 -0.03593,-0.0175 a 0.11304582,0.11304582 90 0 0 -0.09757,0.20396 c 0.0056,0.003 0.01772,0.0111 0.03347,0.0163 0.01076,0.004 0.02481,0.005 0.04102,0.007 0.131865,0.0678 0.31187,0.1412 0.516757,0.18064 0.126915,0.0272 0.258694,0.0417 0.3942,0.0438 0.09608,0.001 0.197886,-0.003 0.305203,-0.0159 0.212725,-0.025 0.440121,-0.08 0.674803,-0.17042 0.05452,-0.0228 0.116574,-0.0435 0.182393,-0.0738 0.03066,-0.0142 0.06269,-0.0309 0.09375,-0.0516 0.03025,-0.0202 0.06012,-0.0445 0.08745,-0.0746 0.04336,-0.0467 0.07624,-0.10267 0.09763,-0.16299 0.02097,-0.0591 0.0308,-0.12216 0.02982,-0.18535 -0.0019,-0.12358 -0.04546,-0.25127 -0.132534,-0.34975 -0.09117,-0.0988 -0.184599,-0.20166 -0.295776,-0.28812 -0.247366,-0.18828 -0.530347,-0.3179 -0.787391,-0.43505 -0.283723,-0.1293 -0.529665,-0.24107 -0.752504,-0.40251 -0.0032,-0.002 -0.0066,-0.004 -0.01002,-0.006 -0.05968,-0.0367 -0.109097,-0.081 -0.146402,-0.12737 -0.04342,-0.054 -0.06883,-0.10903 -0.08128,-0.15934 -0.0061,-0.0224 -0.0076,-0.0408 -0.0072,-0.0575 4.81e-4,-0.02 0.0039,-0.0384 0.0084,-0.0545 0.01144,-0.0399 0.03222,-0.0719 0.05469,-0.0935 0.09147,-0.0546 0.201171,-0.10618 0.330861,-0.14487 0.172408,-0.0514 0.382026,-0.0811 0.612817,-0.0618 0.0034,2.8e-4 0.0068,4.1e-4 0.01013,3.9e-4 0.100568,-4.8e-4 0.195232,0.0324 0.276263,0.0832 0.112815,0.0708 0.17998,0.16305 0.212374,0.21518 a 0.11637614,0.11637614 90 0 0 0.197692,-0.12284 z"
       id="path-1"
       inkscape:path-effect="#path-effect181;#path-effect183"
       inkscape:original-d="m -13.072848,151.43654 c -0.128687,-0.20323 -0.341781,-0.35156 -0.588082,-0.35204 -0.351681,-0.0298 -0.720544,0.0446 -1.024744,0.22282 -0.253655,0.21219 -0.06731,0.55413 0.169916,0.68584 0.563103,0.4093 1.314674,0.5243 1.797393,1.05037 0.241294,0.20126 0.223599,0.59256 -0.0733,0.73329 -0.609677,0.29078 -1.380503,0.39607 -1.985564,0.0354 -0.03141,-0.016 -0.06288,-0.0318 -0.09465,-0.047"
       style="fill:#000000;fill-rule:nonzero;stroke:none;stroke-width:1.00249" />
    <path
       d="m -12.844385,151.66121 c -0.0047,-0.0263 -0.01387,-0.0541 -0.02948,-0.0822 -0.01238,-0.0223 -0.02792,-0.0433 -0.04641,-0.0632 -0.03058,-0.0329 -0.0661,-0.0595 -0.102523,-0.0839 -0.03926,-0.0263 -0.07913,-0.0474 -0.120759,-0.0692 -0.03606,-0.0189 -0.0713,-0.0373 -0.102776,-0.0581 -0.0036,-0.002 -0.0073,-0.005 -0.01115,-0.006 0.0037,0.002 0.0064,0.003 0.008,0.005 0.0078,0.007 0.0092,0.008 0.01104,0.0113 0.0013,0.002 0.0057,0.01 0.0087,0.021 0.0015,0.006 0.0033,0.0153 0.0028,0.0269 -4.92e-4,0.0119 -0.0036,0.0276 -0.01221,0.043 -0.0034,0.006 -0.0076,0.0119 -0.0123,0.0172 -0.0071,0.008 -0.01506,0.0142 -0.02303,0.0189 -0.01273,0.007 -0.02465,0.0105 -0.03299,0.0118 -0.0081,0.001 -0.01465,0.001 -0.01865,8.2e-4 -0.004,-2.9e-4 -0.0069,-8.2e-4 -0.0084,-0.001 0.03225,0.004 0.05927,0.0134 0.09061,0.0308 0.02804,0.0156 0.05658,0.0362 0.08872,0.0626 0.0176,0.0158 0.03648,0.033 0.05214,0.0508 0.01447,0.0164 0.02465,0.0315 0.03084,0.0463 0.0032,0.008 0.0073,0.0148 0.01217,0.0213 -0.0083,-0.0112 -0.01187,-0.0214 -0.01339,-0.0268 -0.0016,-0.006 -0.0022,-0.0105 -0.0023,-0.0136 -1.8e-4,-0.003 -8.1e-5,-0.006 2.73e-4,-0.009 3.31e-4,-0.003 0.0011,-0.007 0.0028,-0.0125 9.11e-4,-0.003 0.0023,-0.006 0.0044,-0.0105 0.002,-0.004 0.0052,-0.009 0.01,-0.0154 0.0047,-0.006 0.01195,-0.0133 0.0223,-0.0199 0.01064,-0.007 0.02424,-0.0124 0.04024,-0.0143 0.016,-0.002 0.0308,4.3e-4 0.04324,0.005 0.01194,0.004 0.02081,0.0101 0.02673,0.0149 0.0059,0.005 0.0099,0.009 0.01242,0.0124 0.0025,0.003 0.0041,0.006 0.005,0.007 l -0.01296,-0.0172 c -0.102457,-0.10949 -0.196124,-0.2304 -0.292477,-0.36418 -0.01013,-0.0145 -0.01988,-0.0285 -0.0285,-0.0425 l -0.137052,0.13945 c 0.02654,0.0158 0.05328,0.0286 0.07779,0.0398 0.02549,0.0116 0.04588,0.0204 0.06741,0.0308 l -0.05184,-0.12133 c 0.0052,-0.0161 0.01424,-0.0299 0.02546,-0.0407 0.0107,-0.0102 0.02153,-0.0161 0.03008,-0.0196 0.0083,-0.003 0.01539,-0.005 0.02015,-0.006 0.0049,-7.9e-4 0.0088,-0.001 0.01143,-0.001 0.0049,-1.1e-4 0.0082,3e-4 0.0088,3.7e-4 -0.0032,-6.4e-4 -0.0058,-0.001 -0.01229,-0.003 -0.0027,-5.9e-4 -0.0062,-0.001 -0.0098,-0.002 -0.0013,-2.5e-4 -0.0029,-5.4e-4 -0.0046,-8.3e-4 -0.03182,-0.008 -0.06343,-0.0105 -0.08307,-0.0125 -0.02445,-0.003 -0.03742,-0.005 -0.04768,-0.009 -0.0091,-0.004 -0.01925,-0.007 -0.02768,-0.0108 -0.0088,-0.004 -0.01466,-0.006 -0.01885,-0.009 -0.0042,-0.002 -0.0044,-0.003 -0.0028,-0.001 0.002,0.002 0.0054,0.007 0.0075,0.013 0.0032,0.01 0.0063,0.0202 0.0076,0.0306 0.0012,0.0105 5.52e-4,0.0212 -0.0026,0.0313 -0.0031,0.0101 -0.0086,0.0193 -0.01559,0.0272 -0.0069,0.008 -0.01526,0.0145 -0.02358,0.021 -0.0083,0.006 -0.01696,0.009 -0.02228,0.01 -0.0041,4.8e-4 -0.0047,-2.4e-4 4.43e-4,7.2e-4 0.0053,9.9e-4 0.01167,0.003 0.02265,0.006 0.0077,0.002 0.01953,0.006 0.03196,0.008 0.02776,0.009 0.05623,0.0142 0.07539,0.0184 0.02352,0.005 0.03894,0.009 0.05178,0.0148 l -0.04601,-0.0402 c -0.0032,-0.005 -0.0073,-0.0132 -0.01011,-0.0239 -0.0029,-0.011 -0.0046,-0.025 -0.0019,-0.0409 0.0027,-0.0162 0.0094,-0.0305 0.01809,-0.0421 0.0084,-0.0111 0.01758,-0.0184 0.02472,-0.023 0.0071,-0.005 0.01349,-0.007 0.01784,-0.009 0.0045,-0.002 0.0082,-0.003 0.01063,-0.003 0.0047,-0.001 0.0079,-0.001 0.0085,-0.001 0.0021,-1.4e-4 -3.79e-4,0 -0.0042,-9e-5 -0.0015,-4e-5 -0.0047,-1.3e-4 -0.0073,-1.6e-4 -0.0015,-2e-5 -0.0034,-3e-5 -0.0055,0 -0.002,4e-5 -0.0051,1.3e-4 -0.0087,4.4e-4 l 0.01326,-2.4e-4 c -0.08896,-0.004 -0.173326,-0.0163 -0.251817,-0.0391 3.07e-4,-1e-5 -0.0031,-0.001 -0.0063,-0.002 -0.0033,-0.001 -0.0061,-0.002 -0.0086,-0.003 -0.005,-0.002 -0.0082,-0.004 -0.0055,-0.002 0.001,6.6e-4 0.0048,0.003 0.0093,0.008 0.0049,0.005 0.01192,0.014 0.01674,0.0277 0.0025,0.007 0.0041,0.0148 0.0045,0.0231 4.38e-4,0.008 -3.96e-4,0.0162 -0.0021,0.0234 -0.0034,0.0143 -0.0095,0.0234 -0.01324,0.028 -0.0046,0.006 -0.0099,0.011 -0.01565,0.0157 -0.0014,0.001 -5.49e-4,1.7e-4 0.0039,-0.002 0.0055,-0.002 0.01173,-0.004 0.02333,-0.008 0.01836,-0.006 0.03695,-0.0123 0.05244,-0.0238 0.01549,-0.0115 0.02739,-0.0282 0.0315,-0.047 0.0041,-0.0188 2.36e-4,-0.039 -0.0091,-0.0559 -0.0093,-0.0169 -0.02356,-0.0304 -0.03779,-0.0434 -0.02271,-0.0208 -0.04747,-0.0367 -0.07279,-0.0487 -0.0259,-0.0123 -0.05237,-0.0204 -0.07809,-0.0255 -0.05332,-0.0105 -0.106067,-0.008 -0.151612,-5.5e-4 -0.09377,0.0156 -0.18028,0.0496 -0.251239,0.079 -0.08504,0.0353 -0.145705,0.0629 -0.215319,0.0834 -0.02561,0.007 -0.05054,0.013 -0.06963,0.0171 a 0.10064963,0.10064963 90 0 0 0.042,0.19686 c 0.02151,-0.005 0.05119,-0.0114 0.08365,-0.0206 0.08392,-0.0248 0.158766,-0.0586 0.236499,-0.0909 0.06983,-0.029 0.137926,-0.0549 0.207693,-0.0665 0.0273,-0.005 0.05469,-0.005 0.07906,-4.1e-4 0.01147,0.002 0.02179,0.006 0.03084,0.01 0.0087,0.004 0.01643,0.009 0.02311,0.0153 l 0.03708,-0.17009 c -0.0083,0.003 -0.02375,0.007 -0.03859,0.0136 -0.01504,0.006 -0.03415,0.0156 -0.05286,0.0306 -0.0058,0.005 -0.01103,0.01 -0.01565,0.0157 -0.01,0.0125 -0.02021,0.0294 -0.02534,0.051 -0.0026,0.0108 -0.0037,0.0221 -0.0031,0.0338 6.11e-4,0.0116 0.0029,0.0226 0.0065,0.0328 0.007,0.02 0.01789,0.0346 0.02791,0.0451 0.0097,0.0101 0.01974,0.0175 0.02793,0.0227 0.01581,0.0101 0.03203,0.0167 0.04289,0.0208 0.0058,0.002 0.01118,0.004 0.0155,0.005 0.0043,0.001 0.0079,0.003 0.0096,0.003 0.101465,0.0296 0.202011,0.0434 0.302698,0.0482 0.0044,2.2e-4 0.0088,1.4e-4 0.01326,-2.4e-4 -0.0024,2.1e-4 -0.0041,2.4e-4 -0.0046,2.5e-4 9e-6,2e-5 0.0018,6e-5 0.0043,1.2e-4 0.0041,1.1e-4 0.01341,3.5e-4 0.0231,-3.2e-4 0.0049,-3.5e-4 0.01226,-0.001 0.02053,-0.003 0.0042,-9.3e-4 0.0096,-0.002 0.01553,-0.005 0.0058,-0.002 0.0135,-0.005 0.02174,-0.0108 0.0083,-0.005 0.01839,-0.0134 0.02743,-0.0255 0.0094,-0.0125 0.01648,-0.0278 0.01943,-0.0452 0.0029,-0.017 0.0012,-0.0323 -0.0021,-0.0447 -0.0032,-0.012 -0.008,-0.0215 -0.01213,-0.0284 -0.0054,-0.009 -0.01123,-0.0177 -0.01908,-0.0246 -0.0078,-0.007 -0.01737,-0.0115 -0.02693,-0.0156 -0.03222,-0.014 -0.06425,-0.0214 -0.089,-0.0268 -0.02716,-0.006 -0.04446,-0.009 -0.06145,-0.0149 -0.0042,-0.001 -0.0085,-0.002 -0.01283,-0.003 -0.0041,-7.8e-4 -0.0095,-0.002 -0.0213,-0.006 -0.0098,-0.003 -0.02486,-0.007 -0.04065,-0.01 -0.01588,-0.003 -0.03735,-0.006 -0.06113,-0.003 -0.025,0.003 -0.05226,0.012 -0.07721,0.0314 -0.0083,0.006 -0.01663,0.013 -0.02358,0.021 -0.0069,0.008 -0.01247,0.0171 -0.01559,0.0272 -0.0031,0.0101 -0.0038,0.0208 -0.0026,0.0313 0.0012,0.0105 0.0044,0.0206 0.0076,0.0306 0.0088,0.0275 0.02366,0.0495 0.04031,0.0666 0.01617,0.0165 0.03379,0.0283 0.04888,0.0367 0.0151,0.008 0.03002,0.0148 0.04183,0.0195 0.0122,0.005 0.0225,0.009 0.02943,0.0115 0.03953,0.0148 0.07564,0.0188 0.100235,0.0213 0.02846,0.003 0.04291,0.004 0.05673,0.008 0.0054,0.001 0.01084,0.003 0.01637,0.003 -0.0028,-2.9e-4 -0.0031,-4.3e-4 -0.0026,-3.3e-4 0.0072,0.002 0.01496,0.003 0.02171,0.005 0.0037,7.1e-4 0.0084,0.002 0.01353,0.002 0.0049,6e-4 0.0121,0.001 0.02047,0.001 0.0043,-9e-5 0.0099,-4.4e-4 0.01617,-0.001 0.0062,-0.001 0.0146,-0.003 0.02397,-0.007 0.0097,-0.004 0.02141,-0.0103 0.03284,-0.0213 0.01195,-0.0114 0.02154,-0.0261 0.02704,-0.0432 0.0038,-0.0119 0.0075,-0.0239 0.0086,-0.0364 0.0011,-0.0125 -5.2e-4,-0.0252 -0.0054,-0.0367 -0.0049,-0.0115 -0.01302,-0.0215 -0.02277,-0.0293 -0.0098,-0.008 -0.02103,-0.0135 -0.03227,-0.0189 -0.02419,-0.0118 -0.05166,-0.0237 -0.07175,-0.0329 -0.02246,-0.0103 -0.04139,-0.0195 -0.0585,-0.0297 -0.02278,-0.0135 -0.04661,-0.0269 -0.07292,-0.0301 -0.01316,-0.002 -0.02667,-6.6e-4 -0.03931,0.003 -0.01264,0.004 -0.02432,0.011 -0.03361,0.0205 -0.0093,0.009 -0.01613,0.0213 -0.01989,0.034 -0.0038,0.0127 -0.0045,0.0262 -0.0026,0.0394 0.0036,0.0263 0.01739,0.0499 0.03133,0.0724 0.01207,0.0195 0.02502,0.038 0.03558,0.0531 0.09777,0.13576 0.195533,0.26252 0.304255,0.37942 0.0011,0.001 0.0022,0.003 0.0034,0.004 0.0044,0.006 0.01037,0.012 0.01807,0.0182 0.0077,0.006 0.01835,0.0131 0.03195,0.018 0.01411,0.005 0.0305,0.008 0.04799,0.005 0.0175,-0.002 0.03252,-0.008 0.04448,-0.0159 0.01169,-0.007 0.02015,-0.016 0.02602,-0.0233 0.0059,-0.007 0.01016,-0.0145 0.01315,-0.0204 0.003,-0.006 0.0053,-0.0117 0.0069,-0.0167 0.0033,-0.01 0.0051,-0.0194 0.0061,-0.0276 9.93e-4,-0.008 0.0013,-0.0171 7.74e-4,-0.0257 -4.91e-4,-0.009 -0.0018,-0.0186 -0.0048,-0.0292 -0.0019,-0.007 -0.0049,-0.0153 -0.0098,-0.0245 -0.01726,-0.0387 -0.04069,-0.0702 -0.06278,-0.0952 -0.02461,-0.0279 -0.05188,-0.0524 -0.07234,-0.0706 -0.03986,-0.0328 -0.07886,-0.0617 -0.12168,-0.0855 -0.04901,-0.0272 -0.100304,-0.0461 -0.154704,-0.0531 0.0024,1.9e-4 -0.0039,-8.5e-4 -0.01089,-0.001 -0.007,-5e-4 -0.01609,-5.6e-4 -0.02634,0.001 -0.01051,0.002 -0.02416,0.005 -0.03825,0.0135 -0.0088,0.005 -0.01742,0.012 -0.02512,0.0206 -0.0051,0.006 -0.0096,0.012 -0.01327,0.0186 -0.0093,0.0165 -0.01276,0.0337 -0.01331,0.0471 -5.46e-4,0.0132 0.0014,0.0242 0.0035,0.032 0.0039,0.0151 0.01031,0.0267 0.01426,0.0332 0.0045,0.007 0.0093,0.0137 0.01341,0.0186 0.0043,0.005 0.0088,0.01 0.01322,0.0143 0.0045,0.004 0.0095,0.009 0.01484,0.0129 0.0028,0.002 0.0059,0.004 0.0094,0.007 0.0016,0.001 0.0033,0.002 0.0053,0.003 0.04081,0.0267 0.08438,0.0492 0.117254,0.0664 0.04228,0.0221 0.07298,0.0386 0.102095,0.0581 0.03129,0.0209 0.05204,0.0375 0.06714,0.0537 0.0087,0.009 0.01417,0.0172 0.01777,0.0237 0.0044,0.008 0.0064,0.0145 0.0074,0.02 a 0.10064963,0.10064963 90 0 0 0.19816,-0.0354 z"
       id="path-1-4"
       inkscape:path-effect="#path-effect263;#path-effect265"
       inkscape:original-d="m -12.943465,151.67891 c -0.02789,-0.17548 -0.389606,-0.26188 -0.384949,-0.32554 0.153356,10e-6 0.401576,0.24189 0.344749,0.29093 -0.117097,-0.11787 -0.304646,-0.36902 -0.344264,-0.43389 0.09689,0.0568 0.236752,0.0935 0.04557,0.0529 -0.176141,2.7e-4 -0.323235,-0.1585 -0.05953,-0.0742 0.451458,0.0924 -0.512469,0.0119 -0.188745,-0.0859 -0.171224,-0.15105 -0.467447,0.0517 -0.669922,0.10932 l -0.03971,0.0107 -0.04013,0.009"
       style="fill:#000000;fill-rule:nonzero;stroke:none;stroke-width:1.00249" />
  </g>
</svg>
