<?xml version="1.0" encoding="UTF-8" standalone="no"?>
<!-- Created with Inkscape (http://www.inkscape.org/) -->

<svg
   width="6mm"
   height="10mm"
   viewBox="0 0 6.0000001 9.9999994"
   version="1.1"
   id="svg1681"
   inkscape:version="1.2.1 (9c6d41e410, 2022-07-14)"
   sodipodi:docname="upper B 1.4.svg"
   inkscape:export-filename="..\..\..\..\Downloads\lower a diff canvas resize 3.0.png"
   inkscape:export-xdpi="96"
   inkscape:export-ydpi="96"
   xmlns:inkscape="http://www.inkscape.org/namespaces/inkscape"
   xmlns:sodipodi="http://sodipodi.sourceforge.net/DTD/sodipodi-0.dtd"
   xmlns="http://www.w3.org/2000/svg"
   xmlns:svg="http://www.w3.org/2000/svg"
   xmlns:rdf="http://www.w3.org/1999/02/22-rdf-syntax-ns#"
   xmlns:cc="http://creativecommons.org/ns#"
   xmlns:dc="http://purl.org/dc/elements/1.1/">
  <defs
     id="defs1675">
    <inkscape:path-effect
       effect="powerstroke"
       id="path-effect2104"
       is_visible="true"
       lpeversion="1"
       offset_points="2.2289028,0.095812662 | 4.0401275,0.12391771 | 6.2785069,0.10512017 | 13.068397,0.1175302 | 14.64567,0.091797654 | 17.685625,0.1244652"
       not_jump="true"
       sort_points="true"
       interpolator_type="CentripetalCatmullRom"
       interpolator_beta="0.75"
       start_linecap_type="round"
       linejoin_type="spiro"
       miter_limit="4"
       scale_width="1"
       end_linecap_type="round" />
    <inkscape:path-effect
       effect="simplify"
       id="path-effect2102"
       is_visible="true"
       lpeversion="1"
       steps="1"
       threshold="0.0035951417"
       smooth_angles="0"
       helper_size="0"
       simplify_individual_paths="false"
       simplify_just_coalesce="false"
       step="1" />
    <inkscape:path-effect
       effect="powerstroke"
       id="path-effect502"
       is_visible="true"
       lpeversion="1"
       offset_points="3.0091841,0.21607495 | 7.3602657,0.17554228 | 9.4159651,0.20236537"
       not_jump="true"
       sort_points="true"
       interpolator_type="CentripetalCatmullRom"
       interpolator_beta="0.75"
       start_linecap_type="round"
       linejoin_type="spiro"
       miter_limit="4"
       scale_width="1"
       end_linecap_type="round" />
    <inkscape:path-effect
       effect="simplify"
       id="path-effect500"
       is_visible="true"
       lpeversion="1"
       steps="1"
       threshold="0.0035951417"
       smooth_angles="0"
       helper_size="0"
       simplify_individual_paths="false"
       simplify_just_coalesce="false"
       step="1" />
    <inkscape:path-effect
       effect="powerstroke"
       id="path-effect241"
       is_visible="true"
       lpeversion="1"
       offset_points="2.6879454,0.34086734"
       not_jump="true"
       sort_points="true"
       interpolator_type="CentripetalCatmullRom"
       interpolator_beta="0.75"
       start_linecap_type="round"
       linejoin_type="spiro"
       miter_limit="4"
       scale_width="1"
       end_linecap_type="round" />
    <inkscape:path-effect
       effect="simplify"
       id="path-effect239"
       is_visible="true"
       lpeversion="1"
       steps="1"
       threshold="0.0028332064"
       smooth_angles="0"
       helper_size="0"
       simplify_individual_paths="false"
       simplify_just_coalesce="false"
       step="1" />
    <inkscape:path-effect
       effect="powerstroke"
       id="path-effect234"
       is_visible="true"
       lpeversion="1"
       offset_points="2.13563,0.075169555"
       not_jump="true"
       sort_points="true"
       interpolator_type="CentripetalCatmullRom"
       interpolator_beta="0.75"
       start_linecap_type="round"
       linejoin_type="spiro"
       miter_limit="4"
       scale_width="1"
       end_linecap_type="round" />
    <inkscape:path-effect
       effect="simplify"
       id="path-effect232"
       is_visible="true"
       lpeversion="1"
       steps="1"
       threshold="0.0028332064"
       smooth_angles="0"
       helper_size="0"
       simplify_individual_paths="false"
       simplify_just_coalesce="false"
       step="1" />
    <inkscape:path-effect
       effect="powerstroke"
       id="path-effect227"
       is_visible="true"
       lpeversion="1"
       offset_points="2.1868266,0.075169555"
       not_jump="true"
       sort_points="true"
       interpolator_type="CentripetalCatmullRom"
       interpolator_beta="0.75"
       start_linecap_type="round"
       linejoin_type="spiro"
       miter_limit="4"
       scale_width="1"
       end_linecap_type="round" />
    <inkscape:path-effect
       effect="simplify"
       id="path-effect225"
       is_visible="true"
       lpeversion="1"
       steps="1"
       threshold="0.0028332064"
       smooth_angles="0"
       helper_size="0"
       simplify_individual_paths="false"
       simplify_just_coalesce="false"
       step="1" />
    <inkscape:path-effect
       effect="powerstroke"
       id="path-effect166"
       is_visible="true"
       lpeversion="1"
       offset_points="1.9637935,0.075169555"
       not_jump="true"
       sort_points="true"
       interpolator_type="CentripetalCatmullRom"
       interpolator_beta="0.75"
       start_linecap_type="round"
       linejoin_type="spiro"
       miter_limit="4"
       scale_width="1"
       end_linecap_type="round" />
    <inkscape:path-effect
       effect="simplify"
       id="path-effect164"
       is_visible="true"
       lpeversion="1"
       steps="1"
       threshold="0.0028332064"
       smooth_angles="0"
       helper_size="0"
       simplify_individual_paths="false"
       simplify_just_coalesce="false"
       step="1" />
    <inkscape:path-effect
       effect="powerstroke"
       id="path-effect159"
       is_visible="true"
       lpeversion="1"
       offset_points="2.2611036,0.075169555"
       not_jump="true"
       sort_points="true"
       interpolator_type="CentripetalCatmullRom"
       interpolator_beta="0.75"
       start_linecap_type="round"
       linejoin_type="spiro"
       miter_limit="4"
       scale_width="1"
       end_linecap_type="round" />
    <inkscape:path-effect
       effect="simplify"
       id="path-effect157"
       is_visible="true"
       lpeversion="1"
       steps="1"
       threshold="0.0028332064"
       smooth_angles="0"
       helper_size="0"
       simplify_individual_paths="false"
       simplify_just_coalesce="false"
       step="1" />
    <inkscape:path-effect
       effect="powerstroke"
       id="path-effect152"
       is_visible="true"
       lpeversion="1"
       offset_points="2.826981,0.075169555"
       not_jump="true"
       sort_points="true"
       interpolator_type="CentripetalCatmullRom"
       interpolator_beta="0.75"
       start_linecap_type="round"
       linejoin_type="spiro"
       miter_limit="4"
       scale_width="1"
       end_linecap_type="round" />
    <inkscape:path-effect
       effect="simplify"
       id="path-effect150"
       is_visible="true"
       lpeversion="1"
       steps="1"
       threshold="0.0028332064"
       smooth_angles="0"
       helper_size="0"
       simplify_individual_paths="false"
       simplify_just_coalesce="false"
       step="1" />
    <inkscape:path-effect
       effect="powerstroke"
       id="path-effect145"
       is_visible="true"
       lpeversion="1"
       offset_points="3.8374447,0.075169555"
       not_jump="true"
       sort_points="true"
       interpolator_type="CentripetalCatmullRom"
       interpolator_beta="0.75"
       start_linecap_type="round"
       linejoin_type="spiro"
       miter_limit="4"
       scale_width="1"
       end_linecap_type="round" />
    <inkscape:path-effect
       effect="simplify"
       id="path-effect143"
       is_visible="true"
       lpeversion="1"
       steps="1"
       threshold="0.0028332064"
       smooth_angles="0"
       helper_size="0"
       simplify_individual_paths="false"
       simplify_just_coalesce="false"
       step="1" />
    <inkscape:path-effect
       effect="powerstroke"
       id="path-effect138"
       is_visible="true"
       lpeversion="1"
       offset_points="2.6880907,0.075169555"
       not_jump="true"
       sort_points="true"
       interpolator_type="CentripetalCatmullRom"
       interpolator_beta="0.75"
       start_linecap_type="round"
       linejoin_type="spiro"
       miter_limit="4"
       scale_width="1"
       end_linecap_type="round" />
    <inkscape:path-effect
       effect="simplify"
       id="path-effect136"
       is_visible="true"
       lpeversion="1"
       steps="1"
       threshold="0.0028332064"
       smooth_angles="0"
       helper_size="0"
       simplify_individual_paths="false"
       simplify_just_coalesce="false"
       step="1" />
    <inkscape:path-effect
       effect="powerstroke"
       id="path-effect131"
       is_visible="true"
       lpeversion="1"
       offset_points="1.9940581,0.075169555"
       not_jump="true"
       sort_points="true"
       interpolator_type="CentripetalCatmullRom"
       interpolator_beta="0.75"
       start_linecap_type="round"
       linejoin_type="spiro"
       miter_limit="4"
       scale_width="1"
       end_linecap_type="round" />
    <inkscape:path-effect
       effect="simplify"
       id="path-effect129"
       is_visible="true"
       lpeversion="1"
       steps="1"
       threshold="0.0028332064"
       smooth_angles="0"
       helper_size="0"
       simplify_individual_paths="false"
       simplify_just_coalesce="false"
       step="1" />
  </defs>
  <sodipodi:namedview
     id="base"
     pagecolor="#ffffff"
     bordercolor="#666666"
     borderopacity="1.0"
     inkscape:pageopacity="0.0"
     inkscape:pageshadow="2"
     inkscape:zoom="7.919596"
     inkscape:cx="-5.3033008"
     inkscape:cy="20.834396"
     inkscape:document-units="mm"
     inkscape:current-layer="layer1"
     showgrid="false"
     fit-margin-top="0"
     fit-margin-left="0"
     fit-margin-right="0"
     fit-margin-bottom="0"
     inkscape:window-width="1920"
     inkscape:window-height="974"
     inkscape:window-x="-11"
     inkscape:window-y="2869"
     inkscape:window-maximized="1"
     showguides="true"
     inkscape:guide-bbox="true"
     inkscape:snap-bbox="true"
     inkscape:bbox-nodes="true"
     inkscape:snap-nodes="false"
     inkscape:snap-others="false"
     inkscape:snap-page="true"
     inkscape:snap-grids="false"
     inkscape:snap-to-guides="false"
     inkscape:snap-global="false"
     inkscape:pagecheckerboard="0"
     inkscape:showpageshadow="2"
     inkscape:deskcolor="#d1d1d1">
    <sodipodi:guide
       position="-6.1806075,9.4988692"
       orientation="0,1"
       id="guide816"
       inkscape:locked="false" />
    <sodipodi:guide
       position="-4.4101636,10.646923"
       orientation="0,1"
       id="guide818"
       inkscape:locked="false" />
    <sodipodi:guide
       position="2.7595724,11.09577"
       orientation="1,0"
       id="guide820"
       inkscape:locked="false" />
    <sodipodi:guide
       position="3.6572659,10.942217"
       orientation="1,0"
       id="guide822"
       inkscape:locked="false" />
    <sodipodi:guide
       position="-0.051625511,9.7492299"
       orientation="1,0"
       id="guide1853"
       inkscape:locked="false" />
    <sodipodi:guide
       position="-2.3720169,3.0175835"
       orientation="0,1"
       id="guide1855"
       inkscape:locked="false" />
  </sodipodi:namedview>
  <metadata
     id="metadata1678">
    <rdf:RDF>
      <cc:Work
         rdf:about="">
        <dc:format>image/svg+xml</dc:format>
        <dc:type
           rdf:resource="http://purl.org/dc/dcmitype/StillImage" />
      </cc:Work>
    </rdf:RDF>
  </metadata>
  <g
     inkscape:label="Layer 1"
     inkscape:groupmode="layer"
     id="layer1"
     transform="translate(17.028496,-147.22856)">
    <path
       d="m -14.8314,148.54097 c -0.0428,0.0125 -0.094,0.0362 -0.14211,0.0811 -0.03519,0.0329 -0.06549,0.0742 -0.0891,0.12368 -0.02038,0.0427 -0.03504,0.09 -0.0436,0.13984 -0.0079,0.0461 -0.01054,0.0939 -0.0077,0.14091 0.0015,0.0965 0.02152,0.19303 0.03881,0.28125 0.01871,0.0955 0.03207,0.1721 0.03031,0.24994 0.0013,0.0965 0.0059,0.18616 0.01179,0.26928 0.02042,0.28823 0.06699,0.62132 0.09528,0.87876 0.13498,1.01035 0.307647,1.99759 0.439651,3.074 0.0044,0.0358 0.01002,0.0727 0.02943,0.10303 0.0097,0.0152 0.02262,0.0284 0.03803,0.0378 0.01541,0.009 0.03326,0.0147 0.05128,0.0151 0.01802,3.9e-4 0.03608,-0.004 0.05189,-0.0128 0.01581,-0.009 0.02931,-0.0213 0.03971,-0.036 0.02081,-0.0294 0.02826,-0.066 0.03445,-0.10148 0.0033,-0.0188 0.0061,-0.0377 0.0085,-0.0565 0.01247,-0.0996 0.01195,-0.19615 0.0036,-0.28865 -0.01014,-0.11246 -0.0321,-0.22162 -0.05826,-0.32588 -0.05246,-0.20906 -0.123361,-0.40622 -0.168726,-0.60298 -0.03868,-0.17744 -0.06147,-0.37828 -0.106085,-0.62177 -0.02989,-0.19801 -0.06002,-0.41367 -0.08201,-0.63174 -0.01611,-0.15969 -0.02886,-0.33006 -0.03353,-0.50498 -0.0093,-0.34754 0.01248,-0.73174 0.114498,-1.11781 0.08981,-0.33885 0.255537,-0.69373 0.515263,-1.00779 0.05854,-0.0554 0.129409,-0.0938 0.207709,-0.11531 0.07867,-0.0216 0.164484,-0.0259 0.250125,-0.0129 0.08432,0.0128 0.166837,0.0423 0.239551,0.0868 0.07181,0.0439 0.132991,0.10169 0.177068,0.17102 0.03593,0.0683 0.08285,0.14168 0.123233,0.20866 0.04154,0.0689 0.07764,0.13329 0.104359,0.20047 0.09469,0.21282 0.147927,0.44212 0.151114,0.66655 0.0033,0.23041 -0.04607,0.45082 -0.152944,0.64252 -0.06536,0.12333 -0.154457,0.22526 -0.256316,0.3078 -0.109029,0.0884 -0.231824,0.15384 -0.355035,0.19815 -0.204079,0.0787 -0.422801,0.11846 -0.622054,0.15385 -0.251655,0.0447 -0.454058,0.0802 -0.662843,0.15241 -0.01563,0.005 -0.03136,0.0111 -0.04523,0.0201 -0.01387,0.009 -0.02567,0.0214 -0.03286,0.0363 -0.0072,0.0149 -0.0096,0.0319 -0.0078,0.0483 0.0017,0.0164 0.0074,0.0322 0.01328,0.0477 0.0059,0.0157 0.01274,0.0303 0.02028,0.0439 0.0065,0.0117 0.0135,0.0227 0.02091,0.0329 0.01732,0.0239 0.03668,0.0437 0.05652,0.06 0.04398,0.0361 0.0921,0.0566 0.133056,0.0688 0.04768,0.0141 0.0947,0.0196 0.134329,0.0214 0.04397,0.002 0.08606,-2.2e-4 0.122431,-0.004 0.118769,-0.0131 0.250642,-0.0119 0.410546,0.0149 0.07139,0.012 0.145674,0.0286 0.22428,0.0497 0.09404,0.0195 0.178252,0.0324 0.271134,0.0477 0.08487,0.014 0.169903,0.0289 0.252561,0.0496 0.212201,0.0437 0.422259,0.10038 0.615792,0.18471 0.195551,0.0852 0.367739,0.19586 0.506513,0.34293 0.05112,0.0528 0.08938,0.10492 0.114466,0.15692 0.0097,0.0201 0.01717,0.0396 0.02263,0.0587 0.0019,0.007 0.0036,0.0134 0.005,0.0201 0.0054,0.0252 0.0075,0.051 0.0053,0.0776 -0.0026,0.0523 -0.01254,0.10011 -0.02943,0.14691 -0.01669,0.0462 -0.04007,0.0911 -0.06919,0.13386 -0.05987,0.0879 -0.140987,0.16244 -0.227847,0.21847 -0.236028,0.16699 -0.491145,0.28286 -0.719349,0.37492 -0.323382,0.13045 -0.604685,0.22704 -0.782637,0.29931 a 0.1244652,0.1244652 90 0 0 0.09367,0.23064 c 0.171565,-0.0697 0.447443,-0.16329 0.782415,-0.29749 0.234212,-0.0938 0.511121,-0.21772 0.766874,-0.39826 0.106795,-0.0682 0.214314,-0.16538 0.295898,-0.28531 0.04001,-0.0588 0.07351,-0.12275 0.09784,-0.19099 0.0247,-0.0693 0.03959,-0.14202 0.04272,-0.21704 0.0036,-0.0504 -0.0018,-0.10158 -0.01302,-0.1487 -0.003,-0.0125 -0.0064,-0.0247 -0.01014,-0.0366 -0.0107,-0.034 -0.02469,-0.0668 -0.04138,-0.0983 -0.04258,-0.0804 -0.102106,-0.15116 -0.167035,-0.21104 -0.166025,-0.16933 -0.369307,-0.29157 -0.587161,-0.3808 -0.214877,-0.088 -0.442334,-0.14325 -0.659917,-0.18314 -0.08955,-0.0173 -0.182353,-0.0286 -0.267311,-0.0388 -0.09398,-0.0113 -0.175527,-0.0209 -0.257515,-0.036 -0.07774,-0.0196 -0.156781,-0.0368 -0.233983,-0.0504 -0.171376,-0.0302 -0.320723,-0.0408 -0.453518,-0.0353 -0.02738,-7.8e-4 -0.05982,-0.003 -0.09141,-0.008 -0.02898,-0.004 -0.05787,-0.0113 -0.08301,-0.0214 -0.02205,-0.009 -0.04004,-0.0195 -0.05339,-0.0323 -0.0058,-0.006 -0.01094,-0.0117 -0.01532,-0.0185 -0.0019,-0.003 -0.0037,-0.006 -0.0055,-0.01 -0.002,-0.004 -0.004,-0.009 -0.0057,-0.0139 l -0.07263,0.15245 c 0.189682,-0.0637 0.372567,-0.0951 0.628275,-0.13992 0.196538,-0.0344 0.43769,-0.0774 0.664317,-0.16515 0.143278,-0.0518 0.290055,-0.13038 0.4216,-0.23803 0.123052,-0.1007 0.233363,-0.22747 0.313168,-0.38058 0.127364,-0.23062 0.182964,-0.49284 0.177905,-0.75829 -0.0049,-0.25803 -0.06717,-0.51771 -0.173261,-0.75261 -0.03365,-0.081 -0.07891,-0.15758 -0.123011,-0.22812 -0.04576,-0.0732 -0.0873,-0.13548 -0.124703,-0.20318 -0.06876,-0.10719 -0.155947,-0.18721 -0.253624,-0.24604 -0.09876,-0.0595 -0.209142,-0.0979 -0.321045,-0.11426 -0.113707,-0.0166 -0.23017,-0.0106 -0.339741,0.0202 -0.112075,0.0315 -0.216419,0.0888 -0.302843,0.17329 -0.0027,0.003 -0.0054,0.006 -0.0078,0.008 -0.282053,0.343 -0.4603,0.72873 -0.556819,1.09532 -0.108402,0.41163 -0.130608,0.81713 -0.121467,1.17663 0.0046,0.18126 0.01745,0.35695 0.03346,0.52033 0.02185,0.22289 0.05161,0.44278 0.08092,0.64467 0.03789,0.23417 0.05188,0.44008 0.08624,0.63578 0.04578,0.21941 0.113697,0.4192 0.160113,0.61373 0.02326,0.0975 0.04149,0.19368 0.04982,0.28932 0.0068,0.0784 0.0071,0.15714 -0.0024,0.23655 -0.0018,0.0151 -0.0039,0.0301 -0.0064,0.045 l 0.244789,0.006 c -0.136516,-1.08542 -0.323553,-2.07051 -0.471076,-3.0723 -0.03994,-0.27157 -0.09395,-0.57546 -0.118413,-0.86478 -0.0068,-0.0802 -0.01201,-0.16592 -0.01394,-0.25489 6.44e-4,-0.0971 -0.01724,-0.19095 -0.03593,-0.28557 -0.01818,-0.0921 -0.03391,-0.17142 -0.03477,-0.25191 -0.0019,-0.0367 2.29e-4,-0.07 0.006,-0.10159 0.0062,-0.0342 0.01626,-0.0645 0.02879,-0.0901 0.01438,-0.0293 0.03122,-0.0507 0.04812,-0.0662 0.02268,-0.0207 0.04608,-0.0313 0.06613,-0.0371 a 0.09581266,0.09581266 90 0 0 -0.05383,-0.1839 z"
       id="path-1"
       inkscape:path-effect="#path-effect2102;#path-effect2104"
       inkscape:original-d="m -14.804485,148.63292 c -0.251647,0.0848 -0.233397,0.3942 -0.189924,0.60454 0.06145,0.22666 0.03705,0.45887 0.0653,0.68808 0.147659,1.28485 0.394467,2.55571 0.553859,3.83897 0.08734,-0.51048 -0.208523,-0.98295 -0.247247,-1.48438 -0.143016,-0.92925 -0.301762,-1.90523 -0.01001,-2.82286 0.107839,-0.32711 0.274819,-0.63899 0.494149,-0.90293 0.324318,-0.31314 0.918108,-0.17426 1.094285,0.23346 0.380373,0.52846 0.507586,1.30949 0.111324,1.86464 -0.279365,0.40663 -0.788824,0.52612 -1.246373,0.60077 -0.214926,0.0388 -0.43148,0.0754 -0.638874,0.1457 0.0978,0.24152 0.432902,0.13367 0.640774,0.16785 0.205559,0.009 0.396189,0.0904 0.602469,0.10316 0.575062,0.0885 1.214923,0.22306 1.592314,0.70836 0.205772,0.2637 0.04752,0.63043 -0.18676,0.81643 -0.475636,0.37759 -1.072082,0.53532 -1.625373,0.75991"
       style="fill:#000000;fill-rule:nonzero;stroke:none;stroke-width:1.24306" />
  </g>
</svg>
