<?xml version="1.0" encoding="UTF-8" standalone="no"?>
<!-- Created with Inkscape (http://www.inkscape.org/) -->

<svg
   width="6mm"
   height="10mm"
   viewBox="0 0 6.0000001 9.9999994"
   version="1.1"
   id="svg1681"
   inkscape:version="1.2.1 (9c6d41e410, 2022-07-14)"
   sodipodi:docname="upper B 1.5.svg"
   inkscape:export-filename="..\..\..\..\Downloads\lower a diff canvas resize 3.0.png"
   inkscape:export-xdpi="96"
   inkscape:export-ydpi="96"
   xmlns:inkscape="http://www.inkscape.org/namespaces/inkscape"
   xmlns:sodipodi="http://sodipodi.sourceforge.net/DTD/sodipodi-0.dtd"
   xmlns="http://www.w3.org/2000/svg"
   xmlns:svg="http://www.w3.org/2000/svg"
   xmlns:rdf="http://www.w3.org/1999/02/22-rdf-syntax-ns#"
   xmlns:cc="http://creativecommons.org/ns#"
   xmlns:dc="http://purl.org/dc/elements/1.1/">
  <defs
     id="defs1675">
    <inkscape:path-effect
       effect="powerstroke"
       id="path-effect2145"
       is_visible="true"
       lpeversion="1"
       offset_points="3.5956328,0.10683726 | 5.9172597,0.085208773 | 13.153414,0.11615988 | 14.971207,0.079615199"
       not_jump="true"
       sort_points="true"
       interpolator_type="CentripetalCatmullRom"
       interpolator_beta="0.75"
       start_linecap_type="round"
       linejoin_type="spiro"
       miter_limit="4"
       scale_width="1"
       end_linecap_type="round" />
    <inkscape:path-effect
       effect="simplify"
       id="path-effect2143"
       is_visible="true"
       lpeversion="1"
       steps="1"
       threshold="0.0035951417"
       smooth_angles="0"
       helper_size="0"
       simplify_individual_paths="false"
       simplify_just_coalesce="false"
       step="1" />
    <inkscape:path-effect
       effect="powerstroke"
       id="path-effect502"
       is_visible="true"
       lpeversion="1"
       offset_points="3.0091841,0.21607495 | 7.3602657,0.17554228 | 9.4159651,0.20236537"
       not_jump="true"
       sort_points="true"
       interpolator_type="CentripetalCatmullRom"
       interpolator_beta="0.75"
       start_linecap_type="round"
       linejoin_type="spiro"
       miter_limit="4"
       scale_width="1"
       end_linecap_type="round" />
    <inkscape:path-effect
       effect="simplify"
       id="path-effect500"
       is_visible="true"
       lpeversion="1"
       steps="1"
       threshold="0.0035951417"
       smooth_angles="0"
       helper_size="0"
       simplify_individual_paths="false"
       simplify_just_coalesce="false"
       step="1" />
    <inkscape:path-effect
       effect="powerstroke"
       id="path-effect241"
       is_visible="true"
       lpeversion="1"
       offset_points="2.6879454,0.34086734"
       not_jump="true"
       sort_points="true"
       interpolator_type="CentripetalCatmullRom"
       interpolator_beta="0.75"
       start_linecap_type="round"
       linejoin_type="spiro"
       miter_limit="4"
       scale_width="1"
       end_linecap_type="round" />
    <inkscape:path-effect
       effect="simplify"
       id="path-effect239"
       is_visible="true"
       lpeversion="1"
       steps="1"
       threshold="0.0028332064"
       smooth_angles="0"
       helper_size="0"
       simplify_individual_paths="false"
       simplify_just_coalesce="false"
       step="1" />
    <inkscape:path-effect
       effect="powerstroke"
       id="path-effect234"
       is_visible="true"
       lpeversion="1"
       offset_points="2.13563,0.075169555"
       not_jump="true"
       sort_points="true"
       interpolator_type="CentripetalCatmullRom"
       interpolator_beta="0.75"
       start_linecap_type="round"
       linejoin_type="spiro"
       miter_limit="4"
       scale_width="1"
       end_linecap_type="round" />
    <inkscape:path-effect
       effect="simplify"
       id="path-effect232"
       is_visible="true"
       lpeversion="1"
       steps="1"
       threshold="0.0028332064"
       smooth_angles="0"
       helper_size="0"
       simplify_individual_paths="false"
       simplify_just_coalesce="false"
       step="1" />
    <inkscape:path-effect
       effect="powerstroke"
       id="path-effect227"
       is_visible="true"
       lpeversion="1"
       offset_points="2.1868266,0.075169555"
       not_jump="true"
       sort_points="true"
       interpolator_type="CentripetalCatmullRom"
       interpolator_beta="0.75"
       start_linecap_type="round"
       linejoin_type="spiro"
       miter_limit="4"
       scale_width="1"
       end_linecap_type="round" />
    <inkscape:path-effect
       effect="simplify"
       id="path-effect225"
       is_visible="true"
       lpeversion="1"
       steps="1"
       threshold="0.0028332064"
       smooth_angles="0"
       helper_size="0"
       simplify_individual_paths="false"
       simplify_just_coalesce="false"
       step="1" />
    <inkscape:path-effect
       effect="powerstroke"
       id="path-effect166"
       is_visible="true"
       lpeversion="1"
       offset_points="1.9637935,0.075169555"
       not_jump="true"
       sort_points="true"
       interpolator_type="CentripetalCatmullRom"
       interpolator_beta="0.75"
       start_linecap_type="round"
       linejoin_type="spiro"
       miter_limit="4"
       scale_width="1"
       end_linecap_type="round" />
    <inkscape:path-effect
       effect="simplify"
       id="path-effect164"
       is_visible="true"
       lpeversion="1"
       steps="1"
       threshold="0.0028332064"
       smooth_angles="0"
       helper_size="0"
       simplify_individual_paths="false"
       simplify_just_coalesce="false"
       step="1" />
    <inkscape:path-effect
       effect="powerstroke"
       id="path-effect159"
       is_visible="true"
       lpeversion="1"
       offset_points="2.2611036,0.075169555"
       not_jump="true"
       sort_points="true"
       interpolator_type="CentripetalCatmullRom"
       interpolator_beta="0.75"
       start_linecap_type="round"
       linejoin_type="spiro"
       miter_limit="4"
       scale_width="1"
       end_linecap_type="round" />
    <inkscape:path-effect
       effect="simplify"
       id="path-effect157"
       is_visible="true"
       lpeversion="1"
       steps="1"
       threshold="0.0028332064"
       smooth_angles="0"
       helper_size="0"
       simplify_individual_paths="false"
       simplify_just_coalesce="false"
       step="1" />
    <inkscape:path-effect
       effect="powerstroke"
       id="path-effect152"
       is_visible="true"
       lpeversion="1"
       offset_points="2.826981,0.075169555"
       not_jump="true"
       sort_points="true"
       interpolator_type="CentripetalCatmullRom"
       interpolator_beta="0.75"
       start_linecap_type="round"
       linejoin_type="spiro"
       miter_limit="4"
       scale_width="1"
       end_linecap_type="round" />
    <inkscape:path-effect
       effect="simplify"
       id="path-effect150"
       is_visible="true"
       lpeversion="1"
       steps="1"
       threshold="0.0028332064"
       smooth_angles="0"
       helper_size="0"
       simplify_individual_paths="false"
       simplify_just_coalesce="false"
       step="1" />
    <inkscape:path-effect
       effect="powerstroke"
       id="path-effect145"
       is_visible="true"
       lpeversion="1"
       offset_points="3.8374447,0.075169555"
       not_jump="true"
       sort_points="true"
       interpolator_type="CentripetalCatmullRom"
       interpolator_beta="0.75"
       start_linecap_type="round"
       linejoin_type="spiro"
       miter_limit="4"
       scale_width="1"
       end_linecap_type="round" />
    <inkscape:path-effect
       effect="simplify"
       id="path-effect143"
       is_visible="true"
       lpeversion="1"
       steps="1"
       threshold="0.0028332064"
       smooth_angles="0"
       helper_size="0"
       simplify_individual_paths="false"
       simplify_just_coalesce="false"
       step="1" />
    <inkscape:path-effect
       effect="powerstroke"
       id="path-effect138"
       is_visible="true"
       lpeversion="1"
       offset_points="2.6880907,0.075169555"
       not_jump="true"
       sort_points="true"
       interpolator_type="CentripetalCatmullRom"
       interpolator_beta="0.75"
       start_linecap_type="round"
       linejoin_type="spiro"
       miter_limit="4"
       scale_width="1"
       end_linecap_type="round" />
    <inkscape:path-effect
       effect="simplify"
       id="path-effect136"
       is_visible="true"
       lpeversion="1"
       steps="1"
       threshold="0.0028332064"
       smooth_angles="0"
       helper_size="0"
       simplify_individual_paths="false"
       simplify_just_coalesce="false"
       step="1" />
    <inkscape:path-effect
       effect="powerstroke"
       id="path-effect131"
       is_visible="true"
       lpeversion="1"
       offset_points="1.9940581,0.075169555"
       not_jump="true"
       sort_points="true"
       interpolator_type="CentripetalCatmullRom"
       interpolator_beta="0.75"
       start_linecap_type="round"
       linejoin_type="spiro"
       miter_limit="4"
       scale_width="1"
       end_linecap_type="round" />
    <inkscape:path-effect
       effect="simplify"
       id="path-effect129"
       is_visible="true"
       lpeversion="1"
       steps="1"
       threshold="0.0028332064"
       smooth_angles="0"
       helper_size="0"
       simplify_individual_paths="false"
       simplify_just_coalesce="false"
       step="1" />
  </defs>
  <sodipodi:namedview
     id="base"
     pagecolor="#ffffff"
     bordercolor="#666666"
     borderopacity="1.0"
     inkscape:pageopacity="0.0"
     inkscape:pageshadow="2"
     inkscape:zoom="7.919596"
     inkscape:cx="-5.3033008"
     inkscape:cy="20.834396"
     inkscape:document-units="mm"
     inkscape:current-layer="layer1"
     showgrid="false"
     fit-margin-top="0"
     fit-margin-left="0"
     fit-margin-right="0"
     fit-margin-bottom="0"
     inkscape:window-width="1920"
     inkscape:window-height="974"
     inkscape:window-x="-11"
     inkscape:window-y="2869"
     inkscape:window-maximized="1"
     showguides="true"
     inkscape:guide-bbox="true"
     inkscape:snap-bbox="true"
     inkscape:bbox-nodes="true"
     inkscape:snap-nodes="false"
     inkscape:snap-others="false"
     inkscape:snap-page="true"
     inkscape:snap-grids="false"
     inkscape:snap-to-guides="false"
     inkscape:snap-global="false"
     inkscape:pagecheckerboard="0"
     inkscape:showpageshadow="2"
     inkscape:deskcolor="#d1d1d1">
    <sodipodi:guide
       position="-6.1806075,9.4988692"
       orientation="0,1"
       id="guide816"
       inkscape:locked="false" />
    <sodipodi:guide
       position="-4.4101636,10.646923"
       orientation="0,1"
       id="guide818"
       inkscape:locked="false" />
    <sodipodi:guide
       position="2.7595724,11.09577"
       orientation="1,0"
       id="guide820"
       inkscape:locked="false" />
    <sodipodi:guide
       position="3.6572659,10.942217"
       orientation="1,0"
       id="guide822"
       inkscape:locked="false" />
    <sodipodi:guide
       position="-0.051625511,9.7492299"
       orientation="1,0"
       id="guide1853"
       inkscape:locked="false" />
    <sodipodi:guide
       position="-2.3720169,3.0175835"
       orientation="0,1"
       id="guide1855"
       inkscape:locked="false" />
  </sodipodi:namedview>
  <metadata
     id="metadata1678">
    <rdf:RDF>
      <cc:Work
         rdf:about="">
        <dc:format>image/svg+xml</dc:format>
        <dc:type
           rdf:resource="http://purl.org/dc/dcmitype/StillImage" />
      </cc:Work>
    </rdf:RDF>
  </metadata>
  <g
     inkscape:label="Layer 1"
     inkscape:groupmode="layer"
     id="layer1"
     transform="translate(17.028496,-147.22856)">
    <path
       d="m -14.191825,148.76101 c -0.04697,0.63457 -0.03462,1.03834 -0.03717,2.02539 -0.0015,0.58784 -0.01335,1.2988 -0.133118,1.99271 -0.04802,0.27827 -0.118525,0.56874 -0.214977,0.86996 -7.47e-4,0.002 -0.0014,0.005 -0.0017,0.007 -3.24e-4,0.002 -3.4e-4,0.005 -3.9e-4,0.007 -5e-5,0.002 -1.78e-4,0.005 -6.93e-4,0.007 -5.14e-4,0.002 -0.0014,0.005 -0.0025,0.007 -4.03e-4,8.9e-4 -0.0013,0.003 -0.0032,0.005 -0.0019,0.002 -0.0041,0.004 -0.0065,0.006 -0.0023,0.001 -0.0043,0.002 -0.0046,0.002 -2.3e-4,8e-5 0.0016,-6e-4 0.0064,-1.2e-4 0.0051,5.1e-4 0.01267,0.002 0.02054,0.008 0.0082,0.006 0.01292,0.0123 0.01501,0.0167 0.0018,0.004 7.04e-4,0.004 2.51e-4,-0.003 -0.012,-0.11268 -0.0039,-0.22609 0.0032,-0.33041 0.0015,-0.0226 0.003,-0.0445 0.0043,-0.0665 0.0061,-0.10015 0.0085,-0.19413 -0.0017,-0.28936 0.05052,-1.29256 0.203513,-2.55787 0.629583,-3.73652 0.0546,-0.12225 0.123276,-0.28063 0.208087,-0.41565 0.03871,-0.0616 0.08321,-0.12262 0.135423,-0.17789 0.03253,-0.0344 0.06858,-0.0672 0.108882,-0.0969 0.01904,-0.014 0.03921,-0.0275 0.06064,-0.0402 0.0035,-0.002 0.007,-0.004 0.01014,-0.007 0.01141,-0.009 0.024,-0.016 0.03838,-0.0201 0.01346,-0.004 0.02925,-0.006 0.04781,-0.005 0.01752,7.3e-4 0.03686,0.004 0.05796,0.009 0.02004,0.005 0.04075,0.0123 0.06187,0.021 0.04888,0.0213 0.09578,0.0518 0.138735,0.0899 0.04159,0.0369 0.07934,0.0808 0.113587,0.13062 0.06634,0.0966 0.11676,0.21156 0.156056,0.33144 0.120954,0.30057 0.162501,0.63358 0.118476,0.95997 -0.04295,0.31843 -0.166999,0.62629 -0.37411,0.87723 -0.133912,0.16384 -0.301795,0.29954 -0.489676,0.39759 -0.185827,0.097 -0.389157,0.15607 -0.595519,0.16995 -0.01125,-5.9e-4 -0.02192,-2.1e-4 -0.03127,5.4e-4 -0.01157,9.3e-4 -0.02291,0.003 -0.03346,0.005 -0.0106,0.002 -0.02122,0.005 -0.03131,0.008 -0.0098,0.003 -0.02102,0.007 -0.03206,0.0125 -0.0056,0.003 -0.01262,0.007 -0.02003,0.0119 -0.0038,0.003 -0.0083,0.006 -0.01295,0.0105 -0.0046,0.004 -0.01032,0.0103 -0.01589,0.0181 -0.0055,0.008 -0.012,0.0188 -0.01639,0.0332 -0.0046,0.0148 -0.0067,0.0327 -0.0035,0.0522 0.0032,0.0195 0.01119,0.0361 0.02079,0.0492 0.0093,0.0126 0.01955,0.0213 0.0278,0.027 0.0083,0.006 0.01614,0.01 0.02225,0.0122 0.0062,0.003 0.01199,0.005 0.01679,0.006 0.0094,0.003 0.01822,0.004 0.02533,0.005 0.01431,0.002 0.02965,0.002 0.04506,0.002 0.291603,0.0188 0.576543,0.0406 0.854708,0.0903 0.293503,0.0525 0.559731,0.13321 0.801077,0.25983 0.117416,0.0648 0.221428,0.12886 0.309489,0.20346 0.0473,0.0401 0.08721,0.081 0.120227,0.1233 0.03594,0.0461 0.06318,0.0933 0.08286,0.14206 0.0092,0.0247 0.01576,0.0524 0.01945,0.0793 0.0025,0.018 0.0037,0.0359 0.0038,0.0538 3.54e-4,0.0489 -0.0075,0.0973 -0.02111,0.14316 -0.03102,0.10454 -0.09106,0.19459 -0.156803,0.25919 -0.0673,0.07 -0.144724,0.12498 -0.221681,0.17288 -0.07985,0.0497 -0.162809,0.094 -0.247108,0.14286 -0.0051,0.003 -0.01031,0.006 -0.01549,0.009 -0.290009,0.14927 -0.5987,0.26316 -0.908518,0.35991 -0.31293,0.0977 -0.866923,0.24342 -0.955839,0.26783 a 0.0796152,0.0796152 90 0 0 0.04215,0.15354 c 0.08968,-0.0246 0.639232,-0.17161 0.96032,-0.27253 0.314689,-0.0989 0.631404,-0.21512 0.937016,-0.36903 0.0081,-0.004 0.013,-0.007 0.01793,-0.01 0.0809,-0.0433 0.166652,-0.0815 0.256581,-0.12745 0.0846,-0.0433 0.183918,-0.0991 0.273169,-0.17804 0.09225,-0.0784 0.181663,-0.19487 0.231506,-0.33919 0.02202,-0.0638 0.0368,-0.13477 0.03846,-0.21004 6.07e-4,-0.0275 -5.41e-4,-0.0557 -0.0038,-0.0844 -0.0049,-0.043 -0.0146,-0.0881 -0.0309,-0.13393 -0.02869,-0.074 -0.06682,-0.14078 -0.115303,-0.20371 -0.04432,-0.0575 -0.09608,-0.11026 -0.15397,-0.15931 -0.106299,-0.09 -0.227297,-0.16279 -0.351575,-0.23022 -0.270662,-0.14094 -0.561682,-0.22655 -0.871801,-0.28038 -0.292553,-0.0508 -0.589267,-0.0714 -0.890964,-0.0884 -0.01906,3.1e-4 -0.02472,8e-5 -0.02379,4.4e-4 4.62e-4,1.7e-4 0.0026,4.3e-4 0.0079,0.002 0.0025,7.3e-4 0.0063,0.002 0.01078,0.004 0.0044,0.002 0.0108,0.005 0.01793,0.01 0.0071,0.005 0.01647,0.0128 0.02509,0.0245 0.0089,0.0122 0.0165,0.0278 0.01959,0.0464 0.0031,0.0185 9.93e-4,0.0354 -0.0033,0.0493 -0.0041,0.0133 -0.01004,0.0234 -0.01484,0.0301 -0.0048,0.007 -0.0096,0.0117 -0.0131,0.0149 -0.0036,0.003 -0.0067,0.006 -0.009,0.007 -0.0045,0.003 -0.0077,0.005 -0.009,0.005 -0.0032,0.001 -0.0023,4.3e-4 -2.33e-4,-5.5e-4 0.0021,-0.001 0.0053,-0.002 0.0088,-0.003 0.0037,-0.001 0.0067,-0.002 0.0092,-0.002 0.0025,-5.6e-4 0.0033,-6.8e-4 0.0012,-0.001 l 0.01449,1e-5 c 0.24017,-0.0173 0.473999,-0.0879 0.685183,-0.20095 0.210968,-0.11296 0.39878,-0.26809 0.547709,-0.4543 0.230751,-0.28359 0.36527,-0.62762 0.410096,-0.97796 0.04591,-0.3588 -0.002,-0.72477 -0.135294,-1.04958 -0.04283,-0.12391 -0.101843,-0.25529 -0.182804,-0.36954 -0.04209,-0.0594 -0.0899,-0.11387 -0.144393,-0.16091 -0.05648,-0.0487 -0.119386,-0.0889 -0.189226,-0.1182 -0.02935,-0.0111 -0.05757,-0.0201 -0.0866,-0.0269 -0.03053,-0.007 -0.06195,-0.0119 -0.09362,-0.0127 -0.03383,-8.5e-4 -0.06764,0.003 -0.10051,0.0124 -0.03367,0.01 -0.06462,0.0255 -0.09241,0.0467 -0.02473,0.0148 -0.04804,0.0303 -0.07005,0.0463 -0.04958,0.0361 -0.09339,0.0755 -0.132321,0.11603 -0.06232,0.0648 -0.114273,0.13474 -0.158167,0.20249 -0.09438,0.14568 -0.172523,0.3167 -0.230853,0.43963 -0.446463,1.2113 -0.611048,2.49976 -0.668053,3.80568 -2.14e-4,0.005 1.6e-5,0.01 4.31e-4,0.0147 0.0068,0.0802 0.0035,0.16194 -0.0038,0.26102 -0.0016,0.0214 -0.0033,0.0424 -0.0051,0.0652 -0.0079,0.0999 -0.01905,0.2331 -0.0056,0.36357 0.0011,0.0234 0.0072,0.0527 0.0204,0.0801 0.01323,0.0274 0.03302,0.0515 0.05922,0.0691 0.02553,0.0172 0.05349,0.0259 0.0804,0.0285 0.02621,0.003 0.05137,-7.4e-4 0.07392,-0.007 0.0224,-0.006 0.04354,-0.0162 0.06263,-0.0285 0.019,-0.0122 0.0368,-0.0273 0.05235,-0.045 0.01549,-0.0176 0.02921,-0.0383 0.03941,-0.0617 0.0082,-0.0187 0.01404,-0.0392 0.01669,-0.0611 0.09725,-0.30662 0.168273,-0.60337 0.216563,-0.88813 0.122667,-0.71347 0.133736,-1.44053 0.134868,-2.02877 0.0019,-0.99007 -0.01052,-1.38659 0.03563,-2.01009 a 0.10683726,0.10683726 90 0 0 -0.213092,-0.0158 z"
       id="path-1"
       inkscape:path-effect="#path-effect2143;#path-effect2145"
       inkscape:original-d="m -14.085279,148.7689 c -0.114752,1.54965 0.115072,3.13764 -0.3109,4.65434 -0.04242,0.11649 -0.09552,0.50775 -0.260453,0.33946 -0.03958,-0.23796 0.02898,-0.47961 0.0032,-0.71846 0.05208,-1.28143 0.206179,-2.57605 0.648177,-3.78665 0.144284,-0.31533 0.305477,-0.67676 0.647587,-0.81764 0.356554,-0.009 0.566495,0.34077 0.664062,0.63894 0.237901,0.59092 0.181042,1.29627 -0.186245,1.82229 -0.23031,0.33814 -0.592175,0.58825 -0.989588,0.68078 -0.09109,0.0293 -0.392376,0.0402 -0.341562,0.0682 0.668065,0.0388 1.38073,0.0924 1.952593,0.47635 0.224273,0.14614 0.453059,0.37898 0.396177,0.67121 -0.03774,0.28369 -0.271867,0.48155 -0.51539,0.5987 -0.645483,0.38021 -1.381776,0.5569 -2.097325,0.75323"
       style="fill:#000000;fill-rule:nonzero;stroke:none;stroke-width:1.26998" />
  </g>
</svg>
