<?xml version="1.0" encoding="UTF-8" standalone="no"?>
<!-- Created with Inkscape (http://www.inkscape.org/) -->

<svg
   width="6mm"
   height="10mm"
   viewBox="0 0 6.0000001 9.9999994"
   version="1.1"
   id="svg1681"
   inkscape:version="1.2.1 (9c6d41e410, 2022-07-14)"
   sodipodi:docname="upper B 1.1.svg"
   inkscape:export-filename="..\..\..\..\Downloads\lower a diff canvas resize 3.0.png"
   inkscape:export-xdpi="96"
   inkscape:export-ydpi="96"
   xmlns:inkscape="http://www.inkscape.org/namespaces/inkscape"
   xmlns:sodipodi="http://sodipodi.sourceforge.net/DTD/sodipodi-0.dtd"
   xmlns="http://www.w3.org/2000/svg"
   xmlns:svg="http://www.w3.org/2000/svg"
   xmlns:rdf="http://www.w3.org/1999/02/22-rdf-syntax-ns#"
   xmlns:cc="http://creativecommons.org/ns#"
   xmlns:dc="http://purl.org/dc/elements/1.1/">
  <defs
     id="defs1675">
    <inkscape:path-effect
       effect="powerstroke"
       id="path-effect1578"
       is_visible="true"
       lpeversion="1"
       offset_points="6.130227,0.130573 | 12.54847,0.15016927 | 14.607739,0.13077928"
       not_jump="true"
       sort_points="true"
       interpolator_type="CentripetalCatmullRom"
       interpolator_beta="0.75"
       start_linecap_type="round"
       linejoin_type="spiro"
       miter_limit="4"
       scale_width="1"
       end_linecap_type="round" />
    <inkscape:path-effect
       effect="simplify"
       id="path-effect1576"
       is_visible="true"
       lpeversion="1"
       steps="1"
       threshold="0.0035951417"
       smooth_angles="0"
       helper_size="0"
       simplify_individual_paths="false"
       simplify_just_coalesce="false"
       step="1" />
    <inkscape:path-effect
       effect="powerstroke"
       id="path-effect502"
       is_visible="true"
       lpeversion="1"
       offset_points="3.0091841,0.21607495 | 7.3602657,0.17554228 | 9.4159651,0.20236537"
       not_jump="true"
       sort_points="true"
       interpolator_type="CentripetalCatmullRom"
       interpolator_beta="0.75"
       start_linecap_type="round"
       linejoin_type="spiro"
       miter_limit="4"
       scale_width="1"
       end_linecap_type="round" />
    <inkscape:path-effect
       effect="simplify"
       id="path-effect500"
       is_visible="true"
       lpeversion="1"
       steps="1"
       threshold="0.0035951417"
       smooth_angles="0"
       helper_size="0"
       simplify_individual_paths="false"
       simplify_just_coalesce="false"
       step="1" />
    <inkscape:path-effect
       effect="powerstroke"
       id="path-effect241"
       is_visible="true"
       lpeversion="1"
       offset_points="2.6879454,0.34086734"
       not_jump="true"
       sort_points="true"
       interpolator_type="CentripetalCatmullRom"
       interpolator_beta="0.75"
       start_linecap_type="round"
       linejoin_type="spiro"
       miter_limit="4"
       scale_width="1"
       end_linecap_type="round" />
    <inkscape:path-effect
       effect="simplify"
       id="path-effect239"
       is_visible="true"
       lpeversion="1"
       steps="1"
       threshold="0.0028332064"
       smooth_angles="0"
       helper_size="0"
       simplify_individual_paths="false"
       simplify_just_coalesce="false"
       step="1" />
    <inkscape:path-effect
       effect="powerstroke"
       id="path-effect234"
       is_visible="true"
       lpeversion="1"
       offset_points="2.13563,0.075169555"
       not_jump="true"
       sort_points="true"
       interpolator_type="CentripetalCatmullRom"
       interpolator_beta="0.75"
       start_linecap_type="round"
       linejoin_type="spiro"
       miter_limit="4"
       scale_width="1"
       end_linecap_type="round" />
    <inkscape:path-effect
       effect="simplify"
       id="path-effect232"
       is_visible="true"
       lpeversion="1"
       steps="1"
       threshold="0.0028332064"
       smooth_angles="0"
       helper_size="0"
       simplify_individual_paths="false"
       simplify_just_coalesce="false"
       step="1" />
    <inkscape:path-effect
       effect="powerstroke"
       id="path-effect227"
       is_visible="true"
       lpeversion="1"
       offset_points="2.1868266,0.075169555"
       not_jump="true"
       sort_points="true"
       interpolator_type="CentripetalCatmullRom"
       interpolator_beta="0.75"
       start_linecap_type="round"
       linejoin_type="spiro"
       miter_limit="4"
       scale_width="1"
       end_linecap_type="round" />
    <inkscape:path-effect
       effect="simplify"
       id="path-effect225"
       is_visible="true"
       lpeversion="1"
       steps="1"
       threshold="0.0028332064"
       smooth_angles="0"
       helper_size="0"
       simplify_individual_paths="false"
       simplify_just_coalesce="false"
       step="1" />
    <inkscape:path-effect
       effect="powerstroke"
       id="path-effect166"
       is_visible="true"
       lpeversion="1"
       offset_points="1.9637935,0.075169555"
       not_jump="true"
       sort_points="true"
       interpolator_type="CentripetalCatmullRom"
       interpolator_beta="0.75"
       start_linecap_type="round"
       linejoin_type="spiro"
       miter_limit="4"
       scale_width="1"
       end_linecap_type="round" />
    <inkscape:path-effect
       effect="simplify"
       id="path-effect164"
       is_visible="true"
       lpeversion="1"
       steps="1"
       threshold="0.0028332064"
       smooth_angles="0"
       helper_size="0"
       simplify_individual_paths="false"
       simplify_just_coalesce="false"
       step="1" />
    <inkscape:path-effect
       effect="powerstroke"
       id="path-effect159"
       is_visible="true"
       lpeversion="1"
       offset_points="2.2611036,0.075169555"
       not_jump="true"
       sort_points="true"
       interpolator_type="CentripetalCatmullRom"
       interpolator_beta="0.75"
       start_linecap_type="round"
       linejoin_type="spiro"
       miter_limit="4"
       scale_width="1"
       end_linecap_type="round" />
    <inkscape:path-effect
       effect="simplify"
       id="path-effect157"
       is_visible="true"
       lpeversion="1"
       steps="1"
       threshold="0.0028332064"
       smooth_angles="0"
       helper_size="0"
       simplify_individual_paths="false"
       simplify_just_coalesce="false"
       step="1" />
    <inkscape:path-effect
       effect="powerstroke"
       id="path-effect152"
       is_visible="true"
       lpeversion="1"
       offset_points="2.826981,0.075169555"
       not_jump="true"
       sort_points="true"
       interpolator_type="CentripetalCatmullRom"
       interpolator_beta="0.75"
       start_linecap_type="round"
       linejoin_type="spiro"
       miter_limit="4"
       scale_width="1"
       end_linecap_type="round" />
    <inkscape:path-effect
       effect="simplify"
       id="path-effect150"
       is_visible="true"
       lpeversion="1"
       steps="1"
       threshold="0.0028332064"
       smooth_angles="0"
       helper_size="0"
       simplify_individual_paths="false"
       simplify_just_coalesce="false"
       step="1" />
    <inkscape:path-effect
       effect="powerstroke"
       id="path-effect145"
       is_visible="true"
       lpeversion="1"
       offset_points="3.8374447,0.075169555"
       not_jump="true"
       sort_points="true"
       interpolator_type="CentripetalCatmullRom"
       interpolator_beta="0.75"
       start_linecap_type="round"
       linejoin_type="spiro"
       miter_limit="4"
       scale_width="1"
       end_linecap_type="round" />
    <inkscape:path-effect
       effect="simplify"
       id="path-effect143"
       is_visible="true"
       lpeversion="1"
       steps="1"
       threshold="0.0028332064"
       smooth_angles="0"
       helper_size="0"
       simplify_individual_paths="false"
       simplify_just_coalesce="false"
       step="1" />
    <inkscape:path-effect
       effect="powerstroke"
       id="path-effect138"
       is_visible="true"
       lpeversion="1"
       offset_points="2.6880907,0.075169555"
       not_jump="true"
       sort_points="true"
       interpolator_type="CentripetalCatmullRom"
       interpolator_beta="0.75"
       start_linecap_type="round"
       linejoin_type="spiro"
       miter_limit="4"
       scale_width="1"
       end_linecap_type="round" />
    <inkscape:path-effect
       effect="simplify"
       id="path-effect136"
       is_visible="true"
       lpeversion="1"
       steps="1"
       threshold="0.0028332064"
       smooth_angles="0"
       helper_size="0"
       simplify_individual_paths="false"
       simplify_just_coalesce="false"
       step="1" />
    <inkscape:path-effect
       effect="powerstroke"
       id="path-effect131"
       is_visible="true"
       lpeversion="1"
       offset_points="1.9940581,0.075169555"
       not_jump="true"
       sort_points="true"
       interpolator_type="CentripetalCatmullRom"
       interpolator_beta="0.75"
       start_linecap_type="round"
       linejoin_type="spiro"
       miter_limit="4"
       scale_width="1"
       end_linecap_type="round" />
    <inkscape:path-effect
       effect="simplify"
       id="path-effect129"
       is_visible="true"
       lpeversion="1"
       steps="1"
       threshold="0.0028332064"
       smooth_angles="0"
       helper_size="0"
       simplify_individual_paths="false"
       simplify_just_coalesce="false"
       step="1" />
  </defs>
  <sodipodi:namedview
     id="base"
     pagecolor="#ffffff"
     bordercolor="#666666"
     borderopacity="1.0"
     inkscape:pageopacity="0.0"
     inkscape:pageshadow="2"
     inkscape:zoom="7.919596"
     inkscape:cx="-5.3033008"
     inkscape:cy="20.834396"
     inkscape:document-units="mm"
     inkscape:current-layer="layer1"
     showgrid="false"
     fit-margin-top="0"
     fit-margin-left="0"
     fit-margin-right="0"
     fit-margin-bottom="0"
     inkscape:window-width="1280"
     inkscape:window-height="649"
     inkscape:window-x="-8"
     inkscape:window-y="1912"
     inkscape:window-maximized="1"
     showguides="true"
     inkscape:guide-bbox="true"
     inkscape:snap-bbox="true"
     inkscape:bbox-nodes="true"
     inkscape:snap-nodes="false"
     inkscape:snap-others="false"
     inkscape:snap-page="true"
     inkscape:snap-grids="false"
     inkscape:snap-to-guides="false"
     inkscape:snap-global="false"
     inkscape:pagecheckerboard="0"
     inkscape:showpageshadow="2"
     inkscape:deskcolor="#d1d1d1">
    <sodipodi:guide
       position="-6.1806075,9.4988692"
       orientation="0,1"
       id="guide816"
       inkscape:locked="false" />
    <sodipodi:guide
       position="-4.4101636,10.646923"
       orientation="0,1"
       id="guide818"
       inkscape:locked="false" />
    <sodipodi:guide
       position="2.7595724,11.09577"
       orientation="1,0"
       id="guide820"
       inkscape:locked="false" />
    <sodipodi:guide
       position="3.6572659,10.942217"
       orientation="1,0"
       id="guide822"
       inkscape:locked="false" />
    <sodipodi:guide
       position="-0.051625511,9.7492299"
       orientation="1,0"
       id="guide1853"
       inkscape:locked="false" />
    <sodipodi:guide
       position="-2.3720169,3.0175835"
       orientation="0,1"
       id="guide1855"
       inkscape:locked="false" />
  </sodipodi:namedview>
  <metadata
     id="metadata1678">
    <rdf:RDF>
      <cc:Work
         rdf:about="">
        <dc:format>image/svg+xml</dc:format>
        <dc:type
           rdf:resource="http://purl.org/dc/dcmitype/StillImage" />
      </cc:Work>
    </rdf:RDF>
  </metadata>
  <g
     inkscape:label="Layer 1"
     inkscape:groupmode="layer"
     id="layer1"
     transform="translate(17.028496,-147.22856)">
    <path
       d="m -14.379481,148.81725 c -0.02053,0.79563 0.0044,1.43331 0.0357,2.54185 0.02085,0.73823 0.04097,1.63888 -0.02254,2.52084 l 0.203084,-0.0983 c -0.02926,-0.0199 -0.05487,-0.0448 -0.07747,-0.0754 -0.02156,-0.0293 -0.04042,-0.0639 -0.05689,-0.10428 -0.03181,-0.0781 -0.05075,-0.16748 -0.06747,-0.26819 -0.02507,-0.16757 -0.03307,-0.33699 -0.04257,-0.52598 -0.0087,-0.17324 -0.01865,-0.36066 -0.04933,-0.54646 -0.01369,-0.38734 -0.01628,-0.78195 0.01771,-1.17089 0.03393,-0.38828 0.104146,-0.7694 0.235122,-1.13429 0.03978,-0.10149 0.07303,-0.19527 0.116689,-0.28643 0.0432,-0.0902 0.09165,-0.16635 0.154507,-0.22771 0.106661,-0.10812 0.235234,-0.19152 0.370538,-0.24201 0.141125,-0.0527 0.286614,-0.0683 0.421897,-0.0438 0.02191,0.004 0.042,0.009 0.06143,0.0156 0.05489,0.0188 0.106918,0.0502 0.151845,0.0921 0.05896,0.055 0.103774,0.12656 0.125194,0.20565 0.03084,0.11314 0.04142,0.23227 0.05141,0.3677 0.0091,0.22789 -0.05613,0.45875 -0.176298,0.66367 -0.120327,0.20517 -0.293664,0.38065 -0.494349,0.50295 -0.155333,0.0947 -0.323727,0.15771 -0.493757,0.18571 -0.01092,0.002 -0.02185,0.004 -0.03202,0.008 -0.01017,0.004 -0.01938,0.0106 -0.02838,0.0171 -0.01219,0.009 -0.02438,0.0185 -0.03579,0.0297 -0.01137,0.0111 -0.0232,0.0247 -0.03345,0.0412 -0.01038,0.0167 -0.01982,0.0374 -0.02461,0.0618 -0.0049,0.0251 -0.0043,0.0512 0.0022,0.0765 0.0065,0.025 0.01776,0.0455 0.0298,0.0616 0.0119,0.0159 0.02496,0.028 0.03649,0.0371 0.02248,0.0176 0.04624,0.029 0.06448,0.0364 0.01934,0.008 0.03886,0.0137 0.05636,0.0182 0.01794,0.005 0.03566,0.008 0.05189,0.0109 0.01648,0.003 0.03219,0.005 0.04612,0.007 0.0108,0.001 0.02102,0.002 0.03016,0.003 0.13545,0.0173 0.262817,0.0238 0.379369,0.0352 0.123362,0.0121 0.228975,0.0284 0.327441,0.0587 0.05419,0.0286 0.110472,0.0457 0.143621,0.0563 -0.0071,-0.002 0.0197,0.006 0.01263,0.004 0.04252,0.0136 0.06708,0.0227 0.0884,0.0343 0.087,0.046 0.153789,0.10521 0.206749,0.17336 0.0566,0.0728 0.09763,0.1562 0.122674,0.2414 0.02656,0.0904 0.03514,0.18243 0.02691,0.26924 -0.0086,0.0907 -0.03553,0.17607 -0.08005,0.25118 -0.02471,0.0428 -0.05488,0.0813 -0.08967,0.11663 -0.03513,0.0357 -0.07527,0.0683 -0.119715,0.0985 -0.01901,0.0129 -0.03879,0.0254 -0.05929,0.0374 -0.07258,0.0427 -0.152751,0.0796 -0.23958,0.11486 -0.209152,0.0823 -0.44491,0.14985 -0.543728,0.1875 a 0.13077928,0.13077928 90 0 0 0.09311,0.24442 c 0.09032,-0.0344 0.314271,-0.10014 0.546587,-0.19077 0.09437,-0.038 0.186779,-0.0795 0.274601,-0.12962 0.02495,-0.0142 0.0496,-0.0292 0.07378,-0.045 0.05641,-0.0368 0.111013,-0.0786 0.161272,-0.12671 0.04994,-0.0478 0.09632,-0.10255 0.135805,-0.16568 0.06832,-0.11036 0.109583,-0.23432 0.124436,-0.36315 0.01416,-0.12285 0.0044,-0.25126 -0.02985,-0.37637 -0.03226,-0.11785 -0.08699,-0.23519 -0.165945,-0.34022 -0.07389,-0.0983 -0.170866,-0.18809 -0.291529,-0.25336 -0.04285,-0.0277 -0.09426,-0.0471 -0.139971,-0.0629 -0.0046,-0.002 -0.0091,-0.003 -0.01351,-0.005 -0.0449,-0.0153 -0.07658,-0.0259 -0.102986,-0.041 -0.0092,-0.005 -0.01884,-0.01 -0.0289,-0.0128 -0.132539,-0.0427 -0.267083,-0.0622 -0.404804,-0.075 -0.1267,-0.0117 -0.253166,-0.0175 -0.374515,-0.0322 -0.0039,-4.6e-4 -0.0077,-9.2e-4 -0.01162,-9.9e-4 -0.0045,-8e-5 -0.01197,-4.8e-4 -0.02104,-0.001 -0.0089,-7.9e-4 -0.01901,-0.002 -0.0293,-0.003 -0.01026,-0.002 -0.02004,-0.003 -0.02876,-0.005 -0.0091,-0.002 -0.01475,-0.004 -0.01838,-0.005 -0.0029,-9.9e-4 -0.0018,-0.001 0.0068,0.005 0.004,0.003 0.01065,0.009 0.01755,0.0184 0.0071,0.009 0.01477,0.0231 0.0193,0.0407 0.0046,0.018 0.0049,0.0363 0.0016,0.0532 -0.0032,0.0163 -0.0092,0.0284 -0.01404,0.036 -0.0047,0.008 -0.0089,0.0116 -0.01024,0.0129 -0.0016,0.001 -0.0011,6.7e-4 0.0014,-0.001 l -0.0604,0.0254 c 0.208,-0.0374 0.409829,-0.11725 0.592295,-0.23238 0.238791,-0.14747 0.44377,-0.35757 0.585944,-0.60324 0.142284,-0.24586 0.222395,-0.52877 0.208987,-0.82064 -0.0131,-0.13938 -0.02763,-0.28211 -0.06821,-0.42189 -0.03628,-0.12849 -0.109395,-0.24135 -0.202536,-0.32689 -0.07138,-0.0656 -0.155233,-0.11585 -0.246117,-0.14651 -0.03222,-0.0109 -0.06584,-0.0194 -0.100634,-0.0253 -0.185414,-0.033 -0.37744,-0.0101 -0.557667,0.0575 -0.171318,0.0643 -0.331583,0.16897 -0.462281,0.30179 -0.08983,0.088 -0.154228,0.19342 -0.204945,0.29954 -0.04901,0.10255 -0.08823,0.21239 -0.125357,0.30727 -0.141615,0.39444 -0.215302,0.79841 -0.250653,1.20251 -0.03562,0.4072 -0.03243,0.81683 -0.01842,1.21099 2.01e-4,0.006 7.75e-4,0.0113 0.0017,0.0169 0.02883,0.17151 0.03836,0.34746 0.04716,0.52491 0.0092,0.18596 0.01751,0.36876 0.04498,0.55334 0.01747,0.10639 0.03989,0.2195 0.08291,0.32568 0.02289,0.0565 0.05153,0.11079 0.08803,0.16054 0.03873,0.0528 0.08524,0.099 0.14058,0.13668 0.0207,0.0141 0.04206,0.0281 0.0662,0.0348 0.02414,0.007 0.05075,0.005 0.07329,-0.005 0.02254,-0.0109 0.03998,-0.031 0.04972,-0.0541 0.0097,-0.0231 0.01206,-0.0485 0.01387,-0.0735 0.06474,-0.89647 0.04432,-1.80901 0.02361,-2.5469 -0.0312,-1.11175 -0.05571,-1.74047 -0.03539,-2.52777 a 0.130573,0.130573 90 0 0 -0.26106,-0.007 z"
       id="path-1"
       inkscape:path-effect="#path-effect1576;#path-effect1578"
       inkscape:original-d="m -14.248951,148.82062 c -0.04361,1.68965 0.134246,3.38027 0.01247,5.06868 -0.370256,-0.23904 -0.251921,-1.10489 -0.348635,-1.59425 -0.03312,-0.88469 -0.0084,-1.81732 0.361795,-2.6351 0.264138,-0.7071 1.510806,-0.99556 1.58751,-0.02 0.150251,0.79675 -0.482716,1.55928 -1.254456,1.69291 -0.261836,0.1752 0.750782,0.0906 0.969725,0.25333 0.650659,0.14675 0.859271,1.06592 0.284301,1.4414 -0.262517,0.18923 -0.594328,0.25713 -0.8932,0.37117"
       style="fill:#000000;fill-rule:nonzero;stroke:none;stroke-width:1.40501" />
  </g>
</svg>
