<?xml version="1.0" encoding="UTF-8" standalone="no"?>
<!-- Created with Inkscape (http://www.inkscape.org/) -->

<svg
   width="6mm"
   height="10mm"
   viewBox="0 0 6.0000001 9.9999994"
   version="1.1"
   id="svg1681"
   inkscape:version="1.2.1 (9c6d41e410, 2022-07-14)"
   sodipodi:docname="upper B 1.2.svg"
   inkscape:export-filename="..\..\..\..\Downloads\lower a diff canvas resize 3.0.png"
   inkscape:export-xdpi="96"
   inkscape:export-ydpi="96"
   xmlns:inkscape="http://www.inkscape.org/namespaces/inkscape"
   xmlns:sodipodi="http://sodipodi.sourceforge.net/DTD/sodipodi-0.dtd"
   xmlns="http://www.w3.org/2000/svg"
   xmlns:svg="http://www.w3.org/2000/svg"
   xmlns:rdf="http://www.w3.org/1999/02/22-rdf-syntax-ns#"
   xmlns:cc="http://creativecommons.org/ns#"
   xmlns:dc="http://purl.org/dc/elements/1.1/">
  <defs
     id="defs1675">
    <inkscape:path-effect
       effect="powerstroke"
       id="path-effect2022"
       is_visible="true"
       lpeversion="1"
       offset_points="2.3054235,0.13070563 | 12.763891,0.14617509"
       not_jump="true"
       sort_points="true"
       interpolator_type="CentripetalCatmullRom"
       interpolator_beta="0.75"
       start_linecap_type="round"
       linejoin_type="spiro"
       miter_limit="4"
       scale_width="1"
       end_linecap_type="round" />
    <inkscape:path-effect
       effect="simplify"
       id="path-effect2020"
       is_visible="true"
       lpeversion="1"
       steps="1"
       threshold="0.0035951417"
       smooth_angles="0"
       helper_size="0"
       simplify_individual_paths="false"
       simplify_just_coalesce="false"
       step="1" />
    <inkscape:path-effect
       effect="powerstroke"
       id="path-effect502"
       is_visible="true"
       lpeversion="1"
       offset_points="3.0091841,0.21607495 | 7.3602657,0.17554228 | 9.4159651,0.20236537"
       not_jump="true"
       sort_points="true"
       interpolator_type="CentripetalCatmullRom"
       interpolator_beta="0.75"
       start_linecap_type="round"
       linejoin_type="spiro"
       miter_limit="4"
       scale_width="1"
       end_linecap_type="round" />
    <inkscape:path-effect
       effect="simplify"
       id="path-effect500"
       is_visible="true"
       lpeversion="1"
       steps="1"
       threshold="0.0035951417"
       smooth_angles="0"
       helper_size="0"
       simplify_individual_paths="false"
       simplify_just_coalesce="false"
       step="1" />
    <inkscape:path-effect
       effect="powerstroke"
       id="path-effect241"
       is_visible="true"
       lpeversion="1"
       offset_points="2.6879454,0.34086734"
       not_jump="true"
       sort_points="true"
       interpolator_type="CentripetalCatmullRom"
       interpolator_beta="0.75"
       start_linecap_type="round"
       linejoin_type="spiro"
       miter_limit="4"
       scale_width="1"
       end_linecap_type="round" />
    <inkscape:path-effect
       effect="simplify"
       id="path-effect239"
       is_visible="true"
       lpeversion="1"
       steps="1"
       threshold="0.0028332064"
       smooth_angles="0"
       helper_size="0"
       simplify_individual_paths="false"
       simplify_just_coalesce="false"
       step="1" />
    <inkscape:path-effect
       effect="powerstroke"
       id="path-effect234"
       is_visible="true"
       lpeversion="1"
       offset_points="2.13563,0.075169555"
       not_jump="true"
       sort_points="true"
       interpolator_type="CentripetalCatmullRom"
       interpolator_beta="0.75"
       start_linecap_type="round"
       linejoin_type="spiro"
       miter_limit="4"
       scale_width="1"
       end_linecap_type="round" />
    <inkscape:path-effect
       effect="simplify"
       id="path-effect232"
       is_visible="true"
       lpeversion="1"
       steps="1"
       threshold="0.0028332064"
       smooth_angles="0"
       helper_size="0"
       simplify_individual_paths="false"
       simplify_just_coalesce="false"
       step="1" />
    <inkscape:path-effect
       effect="powerstroke"
       id="path-effect227"
       is_visible="true"
       lpeversion="1"
       offset_points="2.1868266,0.075169555"
       not_jump="true"
       sort_points="true"
       interpolator_type="CentripetalCatmullRom"
       interpolator_beta="0.75"
       start_linecap_type="round"
       linejoin_type="spiro"
       miter_limit="4"
       scale_width="1"
       end_linecap_type="round" />
    <inkscape:path-effect
       effect="simplify"
       id="path-effect225"
       is_visible="true"
       lpeversion="1"
       steps="1"
       threshold="0.0028332064"
       smooth_angles="0"
       helper_size="0"
       simplify_individual_paths="false"
       simplify_just_coalesce="false"
       step="1" />
    <inkscape:path-effect
       effect="powerstroke"
       id="path-effect166"
       is_visible="true"
       lpeversion="1"
       offset_points="1.9637935,0.075169555"
       not_jump="true"
       sort_points="true"
       interpolator_type="CentripetalCatmullRom"
       interpolator_beta="0.75"
       start_linecap_type="round"
       linejoin_type="spiro"
       miter_limit="4"
       scale_width="1"
       end_linecap_type="round" />
    <inkscape:path-effect
       effect="simplify"
       id="path-effect164"
       is_visible="true"
       lpeversion="1"
       steps="1"
       threshold="0.0028332064"
       smooth_angles="0"
       helper_size="0"
       simplify_individual_paths="false"
       simplify_just_coalesce="false"
       step="1" />
    <inkscape:path-effect
       effect="powerstroke"
       id="path-effect159"
       is_visible="true"
       lpeversion="1"
       offset_points="2.2611036,0.075169555"
       not_jump="true"
       sort_points="true"
       interpolator_type="CentripetalCatmullRom"
       interpolator_beta="0.75"
       start_linecap_type="round"
       linejoin_type="spiro"
       miter_limit="4"
       scale_width="1"
       end_linecap_type="round" />
    <inkscape:path-effect
       effect="simplify"
       id="path-effect157"
       is_visible="true"
       lpeversion="1"
       steps="1"
       threshold="0.0028332064"
       smooth_angles="0"
       helper_size="0"
       simplify_individual_paths="false"
       simplify_just_coalesce="false"
       step="1" />
    <inkscape:path-effect
       effect="powerstroke"
       id="path-effect152"
       is_visible="true"
       lpeversion="1"
       offset_points="2.826981,0.075169555"
       not_jump="true"
       sort_points="true"
       interpolator_type="CentripetalCatmullRom"
       interpolator_beta="0.75"
       start_linecap_type="round"
       linejoin_type="spiro"
       miter_limit="4"
       scale_width="1"
       end_linecap_type="round" />
    <inkscape:path-effect
       effect="simplify"
       id="path-effect150"
       is_visible="true"
       lpeversion="1"
       steps="1"
       threshold="0.0028332064"
       smooth_angles="0"
       helper_size="0"
       simplify_individual_paths="false"
       simplify_just_coalesce="false"
       step="1" />
    <inkscape:path-effect
       effect="powerstroke"
       id="path-effect145"
       is_visible="true"
       lpeversion="1"
       offset_points="3.8374447,0.075169555"
       not_jump="true"
       sort_points="true"
       interpolator_type="CentripetalCatmullRom"
       interpolator_beta="0.75"
       start_linecap_type="round"
       linejoin_type="spiro"
       miter_limit="4"
       scale_width="1"
       end_linecap_type="round" />
    <inkscape:path-effect
       effect="simplify"
       id="path-effect143"
       is_visible="true"
       lpeversion="1"
       steps="1"
       threshold="0.0028332064"
       smooth_angles="0"
       helper_size="0"
       simplify_individual_paths="false"
       simplify_just_coalesce="false"
       step="1" />
    <inkscape:path-effect
       effect="powerstroke"
       id="path-effect138"
       is_visible="true"
       lpeversion="1"
       offset_points="2.6880907,0.075169555"
       not_jump="true"
       sort_points="true"
       interpolator_type="CentripetalCatmullRom"
       interpolator_beta="0.75"
       start_linecap_type="round"
       linejoin_type="spiro"
       miter_limit="4"
       scale_width="1"
       end_linecap_type="round" />
    <inkscape:path-effect
       effect="simplify"
       id="path-effect136"
       is_visible="true"
       lpeversion="1"
       steps="1"
       threshold="0.0028332064"
       smooth_angles="0"
       helper_size="0"
       simplify_individual_paths="false"
       simplify_just_coalesce="false"
       step="1" />
    <inkscape:path-effect
       effect="powerstroke"
       id="path-effect131"
       is_visible="true"
       lpeversion="1"
       offset_points="1.9940581,0.075169555"
       not_jump="true"
       sort_points="true"
       interpolator_type="CentripetalCatmullRom"
       interpolator_beta="0.75"
       start_linecap_type="round"
       linejoin_type="spiro"
       miter_limit="4"
       scale_width="1"
       end_linecap_type="round" />
    <inkscape:path-effect
       effect="simplify"
       id="path-effect129"
       is_visible="true"
       lpeversion="1"
       steps="1"
       threshold="0.0028332064"
       smooth_angles="0"
       helper_size="0"
       simplify_individual_paths="false"
       simplify_just_coalesce="false"
       step="1" />
  </defs>
  <sodipodi:namedview
     id="base"
     pagecolor="#ffffff"
     bordercolor="#666666"
     borderopacity="1.0"
     inkscape:pageopacity="0.0"
     inkscape:pageshadow="2"
     inkscape:zoom="7.919596"
     inkscape:cx="-5.3033008"
     inkscape:cy="20.834396"
     inkscape:document-units="mm"
     inkscape:current-layer="layer1"
     showgrid="false"
     fit-margin-top="0"
     fit-margin-left="0"
     fit-margin-right="0"
     fit-margin-bottom="0"
     inkscape:window-width="1920"
     inkscape:window-height="974"
     inkscape:window-x="-11"
     inkscape:window-y="2869"
     inkscape:window-maximized="1"
     showguides="true"
     inkscape:guide-bbox="true"
     inkscape:snap-bbox="true"
     inkscape:bbox-nodes="true"
     inkscape:snap-nodes="false"
     inkscape:snap-others="false"
     inkscape:snap-page="true"
     inkscape:snap-grids="false"
     inkscape:snap-to-guides="false"
     inkscape:snap-global="false"
     inkscape:pagecheckerboard="0"
     inkscape:showpageshadow="2"
     inkscape:deskcolor="#d1d1d1">
    <sodipodi:guide
       position="-6.1806075,9.4988692"
       orientation="0,1"
       id="guide816"
       inkscape:locked="false" />
    <sodipodi:guide
       position="-4.4101636,10.646923"
       orientation="0,1"
       id="guide818"
       inkscape:locked="false" />
    <sodipodi:guide
       position="2.7595724,11.09577"
       orientation="1,0"
       id="guide820"
       inkscape:locked="false" />
    <sodipodi:guide
       position="3.6572659,10.942217"
       orientation="1,0"
       id="guide822"
       inkscape:locked="false" />
    <sodipodi:guide
       position="-0.051625511,9.7492299"
       orientation="1,0"
       id="guide1853"
       inkscape:locked="false" />
    <sodipodi:guide
       position="-2.3720169,3.0175835"
       orientation="0,1"
       id="guide1855"
       inkscape:locked="false" />
  </sodipodi:namedview>
  <metadata
     id="metadata1678">
    <rdf:RDF>
      <cc:Work
         rdf:about="">
        <dc:format>image/svg+xml</dc:format>
        <dc:type
           rdf:resource="http://purl.org/dc/dcmitype/StillImage" />
      </cc:Work>
    </rdf:RDF>
  </metadata>
  <g
     inkscape:label="Layer 1"
     inkscape:groupmode="layer"
     id="layer1"
     transform="translate(17.028496,-147.22856)">
    <path
       d="m -14.575287,148.57061 c -0.05827,0.32308 -0.09378,0.72828 -0.06411,1.27218 0.02145,0.39308 0.07097,0.78032 0.139019,1.25081 0.06228,0.42392 0.142974,0.96822 0.178411,1.49143 0.02326,0.23846 0.02417,0.25226 0.04711,0.48683 0.0298,0.29984 0.07254,0.70551 0.144401,1.10368 0.0038,0.0212 0.0077,0.0424 0.01428,0.0629 0.0066,0.0205 0.01586,0.0403 0.029,0.0573 0.01314,0.017 0.03015,0.0312 0.04976,0.04 0.01961,0.009 0.0417,0.0122 0.063,0.009 0.0213,-0.003 0.04163,-0.0122 0.05809,-0.0261 0.01645,-0.0139 0.02896,-0.0321 0.03696,-0.0521 0.008,-0.02 0.01157,-0.0415 0.01231,-0.063 7.49e-4,-0.0215 -0.0013,-0.043 -0.0033,-0.0644 -0.05019,-0.5185 -0.172258,-0.99972 -0.30229,-1.54889 -0.113412,-0.47898 -0.227522,-0.99148 -0.241222,-1.51158 -0.01494,-0.48094 0.08232,-0.99069 0.300677,-1.47938 0.06957,-0.15187 0.158479,-0.3013 0.268198,-0.43185 0.103865,-0.12358 0.225784,-0.22955 0.367368,-0.30581 0.03218,-0.009 0.06536,-0.0126 0.09901,-0.0113 0.03713,0.001 0.07504,0.009 0.112514,0.0219 0.0749,0.0262 0.145158,0.0742 0.198769,0.13565 0.08713,0.0948 0.151835,0.20468 0.202015,0.32641 0.05032,0.12207 0.08519,0.25395 0.111221,0.38781 0.04458,0.27054 0.0017,0.5595 -0.11337,0.81295 -0.05803,0.12779 -0.133957,0.24559 -0.22517,0.34788 -0.09205,0.10323 -0.199372,0.19036 -0.319581,0.25663 -0.38794,0.21461 -0.84111,0.26836 -1.251244,0.19416 l 0.0012,0.27997 c 0.30487,-0.0573 0.611486,-0.0471 0.904879,0.006 0.311003,0.0561 0.608801,0.16058 0.878049,0.28628 0.132831,0.0562 0.243514,0.13909 0.328543,0.23448 0.09547,0.10709 0.156158,0.22651 0.184782,0.34373 0.0201,0.0794 0.01252,0.15584 -0.0072,0.2179 -0.01292,0.0406 -0.0309,0.0751 -0.05016,0.10323 -0.02006,0.0293 -0.0431,0.054 -0.06781,0.0743 -0.180804,0.15287 -0.372174,0.26091 -0.534763,0.33888 -0.241534,0.11584 -0.489885,0.19684 -0.60637,0.23392 a 0.14617509,0.14617509 90 0 0 0.08867,0.27858 c 0.11803,-0.0376 0.383112,-0.12343 0.644227,-0.24854 0.176106,-0.0844 0.391134,-0.20496 0.595774,-0.37822 0.04442,-0.0366 0.08614,-0.0819 0.121735,-0.13414 0.03415,-0.0501 0.06514,-0.1104 0.08706,-0.18032 0.03313,-0.10561 0.0465,-0.23801 0.01075,-0.37645 -0.0404,-0.16342 -0.124693,-0.32491 -0.251093,-0.46581 -0.112247,-0.12512 -0.257937,-0.2337 -0.42764,-0.30471 -0.282089,-0.13125 -0.603829,-0.24409 -0.943948,-0.30491 -0.32109,-0.0574 -0.663355,-0.0693 -1.008304,-0.004 -0.03922,0.007 -0.07951,0.0162 -0.111978,0.0395 -0.01624,0.0116 -0.0302,0.0265 -0.03987,0.044 -0.0097,0.0175 -0.01494,0.0374 -0.01486,0.0573 8e-5,0.02 0.0055,0.0398 0.01533,0.0572 0.0098,0.0174 0.02391,0.0322 0.04025,0.0436 0.03268,0.0229 0.07307,0.0313 0.112365,0.0383 0.467394,0.0834 0.987742,0.0223 1.437907,-0.22816 0.149295,-0.0827 0.281118,-0.19051 0.392865,-0.31629 0.110632,-0.12452 0.201512,-0.26653 0.270411,-0.419 0.136091,-0.30115 0.187548,-0.646 0.132143,-0.97797 -0.0295,-0.14897 -0.06933,-0.29981 -0.129474,-0.44411 -0.06017,-0.14439 -0.141259,-0.28364 -0.253221,-0.40443 -0.08208,-0.0931 -0.192332,-0.16826 -0.313695,-0.20992 -0.06143,-0.0211 -0.126276,-0.0338 -0.192521,-0.0359 -0.06688,-0.002 -0.134777,0.007 -0.201286,0.0279 -0.0075,0.002 -0.01487,0.005 -0.02188,0.009 -0.182969,0.0965 -0.334876,0.22986 -0.459384,0.37889 -0.127885,0.15307 -0.228449,0.32445 -0.305931,0.49489 -0.233898,0.52619 -0.33845,1.0761 -0.32131,1.5975 0.01499,0.55006 0.136051,1.08692 0.249612,1.56472 0.132056,0.55562 0.249203,1.0168 0.297646,1.51337 l 0.260068,-0.0361 c -0.07043,-0.38695 -0.112804,-0.78323 -0.142862,-1.08279 -0.01183,-0.11788 -0.03529,-0.36459 -0.04712,-0.48246 -0.03625,-0.53101 -0.118672,-1.08611 -0.180459,-1.50742 -0.0677,-0.46864 -0.115711,-0.84648 -0.136374,-1.22741 -0.02845,-0.52447 0.0061,-0.90926 0.06066,-1.21159 a 0.13070563,0.13070563 90 0 0 -0.25726,-0.0464 z"
       id="path-1"
       inkscape:path-effect="#path-effect2020;#path-effect2022"
       inkscape:original-d="m -14.446657,148.59381 c -0.234636,1.30989 0.164128,2.6137 0.248568,3.91815 0.05448,0.54789 0.09864,1.09783 0.196928,1.64015 -0.126807,-1.31463 -0.781308,-2.60415 -0.457653,-3.94079 0.134905,-0.56662 0.390449,-1.18969 0.929404,-1.47568 0.444661,-0.12468 0.744965,0.33709 0.846885,0.70625 0.251103,0.70629 -0.07449,1.56985 -0.77286,1.87621 -0.380071,0.18386 -0.819528,0.22863 -1.233272,0.15596 0.629789,-0.12085 1.297294,0.0337 1.870105,0.30158 0.487401,0.19479 0.893863,0.89801 0.350127,1.27169 -0.326535,0.26118 -0.725241,0.41734 -1.119536,0.54453"
       style="fill:#000000;fill-rule:nonzero;stroke:none;stroke-width:1.52705" />
  </g>
</svg>
