<?xml version="1.0" encoding="UTF-8" standalone="no"?>
<!-- Created with Inkscape (http://www.inkscape.org/) -->

<svg
   width="6mm"
   height="10mm"
   viewBox="0 0 6.0000001 9.9999994"
   version="1.1"
   id="svg1681"
   inkscape:version="1.2.1 (9c6d41e410, 2022-07-14)"
   sodipodi:docname="lower e 1.6.svg"
   inkscape:export-filename="..\..\..\..\Downloads\lower a diff canvas resize 3.0.png"
   inkscape:export-xdpi="96"
   inkscape:export-ydpi="96"
   xmlns:inkscape="http://www.inkscape.org/namespaces/inkscape"
   xmlns:sodipodi="http://sodipodi.sourceforge.net/DTD/sodipodi-0.dtd"
   xmlns="http://www.w3.org/2000/svg"
   xmlns:svg="http://www.w3.org/2000/svg"
   xmlns:rdf="http://www.w3.org/1999/02/22-rdf-syntax-ns#"
   xmlns:cc="http://creativecommons.org/ns#"
   xmlns:dc="http://purl.org/dc/elements/1.1/">
  <defs
     id="defs1675">
    <inkscape:path-effect
       effect="powerstroke"
       id="path-effect1152"
       is_visible="true"
       lpeversion="1"
       offset_points="1.8256754,0.12176389 | 5.3007007,0.13605353"
       not_jump="true"
       sort_points="true"
       interpolator_type="CentripetalCatmullRom"
       interpolator_beta="0.75"
       start_linecap_type="round"
       linejoin_type="spiro"
       miter_limit="4"
       scale_width="1"
       end_linecap_type="round" />
    <inkscape:path-effect
       effect="simplify"
       id="path-effect1150"
       is_visible="true"
       lpeversion="1"
       steps="1"
       threshold="0.0035951417"
       smooth_angles="0"
       helper_size="0"
       simplify_individual_paths="false"
       simplify_just_coalesce="false"
       step="1" />
    <inkscape:path-effect
       effect="powerstroke"
       id="path-effect1145"
       is_visible="true"
       lpeversion="1"
       offset_points="3.0262148,0.09895367"
       not_jump="true"
       sort_points="true"
       interpolator_type="CentripetalCatmullRom"
       interpolator_beta="0.75"
       start_linecap_type="round"
       linejoin_type="spiro"
       miter_limit="4"
       scale_width="1"
       end_linecap_type="round" />
    <inkscape:path-effect
       effect="simplify"
       id="path-effect1143"
       is_visible="true"
       lpeversion="1"
       steps="1"
       threshold="0.0035951417"
       smooth_angles="0"
       helper_size="0"
       simplify_individual_paths="false"
       simplify_just_coalesce="false"
       step="1" />
    <inkscape:path-effect
       effect="powerstroke"
       id="path-effect1138"
       is_visible="true"
       lpeversion="1"
       offset_points="1.5473072,0.075756815 | 5.7218013,0.099394116"
       not_jump="true"
       sort_points="true"
       interpolator_type="CentripetalCatmullRom"
       interpolator_beta="0.75"
       start_linecap_type="round"
       linejoin_type="spiro"
       miter_limit="4"
       scale_width="1"
       end_linecap_type="round" />
    <inkscape:path-effect
       effect="simplify"
       id="path-effect1136"
       is_visible="true"
       lpeversion="1"
       steps="1"
       threshold="0.0035951417"
       smooth_angles="0"
       helper_size="0"
       simplify_individual_paths="false"
       simplify_just_coalesce="false"
       step="1" />
    <inkscape:path-effect
       effect="powerstroke"
       id="path-effect502"
       is_visible="true"
       lpeversion="1"
       offset_points="3.0091841,0.21607495 | 7.3602657,0.17554228 | 9.4159651,0.20236537"
       not_jump="true"
       sort_points="true"
       interpolator_type="CentripetalCatmullRom"
       interpolator_beta="0.75"
       start_linecap_type="round"
       linejoin_type="spiro"
       miter_limit="4"
       scale_width="1"
       end_linecap_type="round" />
    <inkscape:path-effect
       effect="simplify"
       id="path-effect500"
       is_visible="true"
       lpeversion="1"
       steps="1"
       threshold="0.0035951417"
       smooth_angles="0"
       helper_size="0"
       simplify_individual_paths="false"
       simplify_just_coalesce="false"
       step="1" />
    <inkscape:path-effect
       effect="powerstroke"
       id="path-effect241"
       is_visible="true"
       lpeversion="1"
       offset_points="2.6879454,0.34086734"
       not_jump="true"
       sort_points="true"
       interpolator_type="CentripetalCatmullRom"
       interpolator_beta="0.75"
       start_linecap_type="round"
       linejoin_type="spiro"
       miter_limit="4"
       scale_width="1"
       end_linecap_type="round" />
    <inkscape:path-effect
       effect="simplify"
       id="path-effect239"
       is_visible="true"
       lpeversion="1"
       steps="1"
       threshold="0.0028332064"
       smooth_angles="0"
       helper_size="0"
       simplify_individual_paths="false"
       simplify_just_coalesce="false"
       step="1" />
    <inkscape:path-effect
       effect="powerstroke"
       id="path-effect234"
       is_visible="true"
       lpeversion="1"
       offset_points="2.13563,0.075169555"
       not_jump="true"
       sort_points="true"
       interpolator_type="CentripetalCatmullRom"
       interpolator_beta="0.75"
       start_linecap_type="round"
       linejoin_type="spiro"
       miter_limit="4"
       scale_width="1"
       end_linecap_type="round" />
    <inkscape:path-effect
       effect="simplify"
       id="path-effect232"
       is_visible="true"
       lpeversion="1"
       steps="1"
       threshold="0.0028332064"
       smooth_angles="0"
       helper_size="0"
       simplify_individual_paths="false"
       simplify_just_coalesce="false"
       step="1" />
    <inkscape:path-effect
       effect="powerstroke"
       id="path-effect227"
       is_visible="true"
       lpeversion="1"
       offset_points="2.1868266,0.075169555"
       not_jump="true"
       sort_points="true"
       interpolator_type="CentripetalCatmullRom"
       interpolator_beta="0.75"
       start_linecap_type="round"
       linejoin_type="spiro"
       miter_limit="4"
       scale_width="1"
       end_linecap_type="round" />
    <inkscape:path-effect
       effect="simplify"
       id="path-effect225"
       is_visible="true"
       lpeversion="1"
       steps="1"
       threshold="0.0028332064"
       smooth_angles="0"
       helper_size="0"
       simplify_individual_paths="false"
       simplify_just_coalesce="false"
       step="1" />
    <inkscape:path-effect
       effect="powerstroke"
       id="path-effect166"
       is_visible="true"
       lpeversion="1"
       offset_points="1.9637935,0.075169555"
       not_jump="true"
       sort_points="true"
       interpolator_type="CentripetalCatmullRom"
       interpolator_beta="0.75"
       start_linecap_type="round"
       linejoin_type="spiro"
       miter_limit="4"
       scale_width="1"
       end_linecap_type="round" />
    <inkscape:path-effect
       effect="simplify"
       id="path-effect164"
       is_visible="true"
       lpeversion="1"
       steps="1"
       threshold="0.0028332064"
       smooth_angles="0"
       helper_size="0"
       simplify_individual_paths="false"
       simplify_just_coalesce="false"
       step="1" />
    <inkscape:path-effect
       effect="powerstroke"
       id="path-effect159"
       is_visible="true"
       lpeversion="1"
       offset_points="2.2611036,0.075169555"
       not_jump="true"
       sort_points="true"
       interpolator_type="CentripetalCatmullRom"
       interpolator_beta="0.75"
       start_linecap_type="round"
       linejoin_type="spiro"
       miter_limit="4"
       scale_width="1"
       end_linecap_type="round" />
    <inkscape:path-effect
       effect="simplify"
       id="path-effect157"
       is_visible="true"
       lpeversion="1"
       steps="1"
       threshold="0.0028332064"
       smooth_angles="0"
       helper_size="0"
       simplify_individual_paths="false"
       simplify_just_coalesce="false"
       step="1" />
    <inkscape:path-effect
       effect="powerstroke"
       id="path-effect152"
       is_visible="true"
       lpeversion="1"
       offset_points="2.826981,0.075169555"
       not_jump="true"
       sort_points="true"
       interpolator_type="CentripetalCatmullRom"
       interpolator_beta="0.75"
       start_linecap_type="round"
       linejoin_type="spiro"
       miter_limit="4"
       scale_width="1"
       end_linecap_type="round" />
    <inkscape:path-effect
       effect="simplify"
       id="path-effect150"
       is_visible="true"
       lpeversion="1"
       steps="1"
       threshold="0.0028332064"
       smooth_angles="0"
       helper_size="0"
       simplify_individual_paths="false"
       simplify_just_coalesce="false"
       step="1" />
    <inkscape:path-effect
       effect="powerstroke"
       id="path-effect145"
       is_visible="true"
       lpeversion="1"
       offset_points="3.8374447,0.075169555"
       not_jump="true"
       sort_points="true"
       interpolator_type="CentripetalCatmullRom"
       interpolator_beta="0.75"
       start_linecap_type="round"
       linejoin_type="spiro"
       miter_limit="4"
       scale_width="1"
       end_linecap_type="round" />
    <inkscape:path-effect
       effect="simplify"
       id="path-effect143"
       is_visible="true"
       lpeversion="1"
       steps="1"
       threshold="0.0028332064"
       smooth_angles="0"
       helper_size="0"
       simplify_individual_paths="false"
       simplify_just_coalesce="false"
       step="1" />
    <inkscape:path-effect
       effect="powerstroke"
       id="path-effect138"
       is_visible="true"
       lpeversion="1"
       offset_points="2.6880907,0.075169555"
       not_jump="true"
       sort_points="true"
       interpolator_type="CentripetalCatmullRom"
       interpolator_beta="0.75"
       start_linecap_type="round"
       linejoin_type="spiro"
       miter_limit="4"
       scale_width="1"
       end_linecap_type="round" />
    <inkscape:path-effect
       effect="simplify"
       id="path-effect136"
       is_visible="true"
       lpeversion="1"
       steps="1"
       threshold="0.0028332064"
       smooth_angles="0"
       helper_size="0"
       simplify_individual_paths="false"
       simplify_just_coalesce="false"
       step="1" />
    <inkscape:path-effect
       effect="powerstroke"
       id="path-effect131"
       is_visible="true"
       lpeversion="1"
       offset_points="1.9940581,0.075169555"
       not_jump="true"
       sort_points="true"
       interpolator_type="CentripetalCatmullRom"
       interpolator_beta="0.75"
       start_linecap_type="round"
       linejoin_type="spiro"
       miter_limit="4"
       scale_width="1"
       end_linecap_type="round" />
    <inkscape:path-effect
       effect="simplify"
       id="path-effect129"
       is_visible="true"
       lpeversion="1"
       steps="1"
       threshold="0.0028332064"
       smooth_angles="0"
       helper_size="0"
       simplify_individual_paths="false"
       simplify_just_coalesce="false"
       step="1" />
  </defs>
  <sodipodi:namedview
     id="base"
     pagecolor="#ffffff"
     bordercolor="#666666"
     borderopacity="1.0"
     inkscape:pageopacity="0.0"
     inkscape:pageshadow="2"
     inkscape:zoom="7.919596"
     inkscape:cx="-5.3033008"
     inkscape:cy="20.834396"
     inkscape:document-units="mm"
     inkscape:current-layer="layer1"
     showgrid="false"
     fit-margin-top="0"
     fit-margin-left="0"
     fit-margin-right="0"
     fit-margin-bottom="0"
     inkscape:window-width="1920"
     inkscape:window-height="974"
     inkscape:window-x="-11"
     inkscape:window-y="2869"
     inkscape:window-maximized="1"
     showguides="true"
     inkscape:guide-bbox="true"
     inkscape:snap-bbox="true"
     inkscape:bbox-nodes="true"
     inkscape:snap-nodes="false"
     inkscape:snap-others="false"
     inkscape:snap-page="true"
     inkscape:snap-grids="false"
     inkscape:snap-to-guides="false"
     inkscape:snap-global="false"
     inkscape:pagecheckerboard="0"
     inkscape:showpageshadow="2"
     inkscape:deskcolor="#d1d1d1">
    <sodipodi:guide
       position="-6.1806075,9.4988692"
       orientation="0,1"
       id="guide816"
       inkscape:locked="false" />
    <sodipodi:guide
       position="-4.4101636,10.646923"
       orientation="0,1"
       id="guide818"
       inkscape:locked="false" />
    <sodipodi:guide
       position="2.7595724,11.09577"
       orientation="1,0"
       id="guide820"
       inkscape:locked="false" />
    <sodipodi:guide
       position="3.6572659,10.942217"
       orientation="1,0"
       id="guide822"
       inkscape:locked="false" />
    <sodipodi:guide
       position="-0.051625511,9.7492299"
       orientation="1,0"
       id="guide1853"
       inkscape:locked="false" />
    <sodipodi:guide
       position="-2.3720169,3.0175835"
       orientation="0,1"
       id="guide1855"
       inkscape:locked="false" />
  </sodipodi:namedview>
  <metadata
     id="metadata1678">
    <rdf:RDF>
      <cc:Work
         rdf:about="">
        <dc:format>image/svg+xml</dc:format>
        <dc:type
           rdf:resource="http://purl.org/dc/dcmitype/StillImage" />
      </cc:Work>
    </rdf:RDF>
  </metadata>
  <g
     inkscape:label="Layer 1"
     inkscape:groupmode="layer"
     id="layer1"
     transform="translate(17.028496,-147.22856)">
    <path
       d="m -15.193547,151.61725 c 0.02524,-0.0106 0.05938,-0.0214 0.104061,-0.0263 0.03322,-0.004 0.07127,-0.004 0.115533,7e-4 0.07641,0.008 0.157576,0.0294 0.251726,0.061 0.07773,0.0254 0.151041,0.0572 0.235998,0.0931 0.05377,0.0228 0.10869,0.0456 0.165478,0.0659 0.03066,0.011 0.06233,0.0214 0.09497,0.0307 0.01149,0.003 0.01857,0.005 0.02541,0.006 0.0065,0.001 0.01462,0.003 0.02343,0.003 0.0045,3.2e-4 0.01032,5.6e-4 0.01701,2.8e-4 0.0063,-2.6e-4 0.01623,-0.001 0.02794,-0.004 0.006,-0.002 0.01364,-0.004 0.022,-0.008 0.0083,-0.004 0.01848,-0.01 0.02867,-0.0187 0.01039,-0.009 0.02064,-0.021 0.02861,-0.0362 0.008,-0.0153 0.01245,-0.0315 0.01379,-0.0473 0.0013,-0.0155 -4.39e-4,-0.029 -0.0031,-0.0399 -0.0026,-0.0108 -0.0062,-0.0196 -0.0095,-0.0263 -0.0063,-0.0128 -0.01351,-0.022 -0.01797,-0.0272 -0.0048,-0.006 -0.0094,-0.0101 -0.01273,-0.0131 -0.0035,-0.003 -0.0068,-0.006 -0.0095,-0.008 -0.0054,-0.004 -0.01062,-0.008 -0.01496,-0.0108 -0.0045,-0.003 -0.009,-0.006 -0.01324,-0.008 -0.0085,-0.005 -0.01746,-0.0101 -0.02625,-0.0147 -0.0087,-0.005 -0.01783,-0.009 -0.02664,-0.0134 -0.0086,-0.004 -0.01757,-0.008 -0.02601,-0.0117 -0.0042,-0.002 -0.0086,-0.004 -0.01313,-0.005 -0.0043,-0.002 -0.0097,-0.003 -0.01558,-0.005 -0.125054,-0.0443 -0.295565,-0.0891 -0.475757,-0.0784 -0.0191,-0.001 -0.03887,2.6e-4 -0.05864,0.005 -0.02417,0.006 -0.04729,0.0165 -0.06772,0.032 -0.01998,0.0152 -0.03637,0.0344 -0.04822,0.0562 -0.01157,0.0213 -0.01871,0.045 -0.02065,0.0696 -0.0019,0.0242 0.0012,0.0495 0.01034,0.074 0.009,0.0242 0.02375,0.0469 0.04388,0.0657 0.01982,0.0185 0.04323,0.0318 0.06826,0.0398 0.01557,0.005 0.03131,0.008 0.04688,0.009 0.110924,0.0287 0.227808,0.0528 0.348308,0.0689 0.07899,0.0106 0.162069,0.0181 0.247924,0.0208 0.193857,0.006 0.40901,-0.0122 0.626043,-0.0805 0.05831,-0.0198 0.121467,-0.0432 0.183999,-0.0732 0.05833,-0.028 0.120091,-0.0636 0.178039,-0.11068 0.07511,-0.0701 0.12524,-0.15612 0.145921,-0.25118 0.01006,-0.0462 0.0133,-0.0955 0.0073,-0.14551 -0.0059,-0.0492 -0.02086,-0.099 -0.04681,-0.14619 -0.02367,-0.049 -0.06137,-0.0963 -0.105862,-0.1346 -0.04377,-0.0377 -0.09432,-0.0668 -0.14824,-0.0864 -0.05325,-0.0193 -0.110692,-0.0295 -0.169034,-0.0286 -0.05785,8.5e-4 -0.117122,0.0126 -0.17355,0.0378 -0.03988,0.0169 -0.07685,0.0404 -0.103247,0.0569 -0.02907,0.0182 -0.04758,0.0293 -0.06595,0.0368 -0.0044,0.002 -0.0088,0.004 -0.01298,0.006 -0.213494,0.11457 -0.389202,0.28147 -0.522688,0.47555 -0.133669,0.19434 -0.225623,0.41673 -0.27175,0.64432 -0.04981,0.23722 -0.05189,0.48758 -0.0031,0.72585 0.04958,0.24206 0.151772,0.47216 0.310166,0.66533 0.152045,0.18297 0.342096,0.31916 0.522651,0.42532 0.378806,0.21577 0.800926,0.30789 1.193396,0.28746 0.0087,-4.5e-4 0.01753,-0.001 0.02603,-0.003 0.0085,-0.002 0.01657,-0.006 0.02451,-0.009 0.03391,-0.0158 0.06231,-0.0371 0.08542,-0.0604 0.024,-0.0242 0.04286,-0.051 0.05729,-0.078 0.03079,-0.0574 0.04436,-0.12044 0.04301,-0.17809 -2.14e-4,-0.009 -0.0013,-0.0183 -0.0034,-0.0273 -0.0052,-0.0228 -0.01508,-0.0489 -0.03388,-0.073 -0.0098,-0.0125 -0.02144,-0.0239 -0.03503,-0.0335 -0.01386,-0.01 -0.02852,-0.0169 -0.04322,-0.0217 -0.03,-0.01 -0.05654,-0.009 -0.077,-0.007 -0.02068,0.003 -0.03825,0.009 -0.05107,0.0139 -0.02702,0.011 -0.04998,0.026 -0.06323,0.0351 -0.0082,0.006 -0.01551,0.0111 -0.02106,0.0153 -0.0054,0.004 -0.01179,0.009 -0.0138,0.0106 a 0.13605353,0.13605353 90 0 0 0.16632,0.21536 c 0.0041,-0.003 0.0077,-0.006 0.01188,-0.009 0.0037,-0.003 0.0075,-0.006 0.01126,-0.008 0.0066,-0.005 0.01378,-0.008 0.01085,-0.007 -6.69e-4,2.7e-4 -0.0058,0.002 -0.01457,0.004 -0.0091,0.001 -0.02452,0.002 -0.04435,-0.004 -0.0098,-0.003 -0.01973,-0.008 -0.02916,-0.0146 -0.0093,-0.007 -0.01688,-0.014 -0.02292,-0.0218 -0.01154,-0.0148 -0.01545,-0.0277 -0.01683,-0.0337 -0.0021,-0.009 -0.0032,-0.0181 -0.0034,-0.0273 1.95e-4,0.0119 -0.003,0.0281 -0.01097,0.0427 -0.0035,0.006 -0.0072,0.0112 -0.01059,0.0146 -0.0032,0.003 -0.0055,0.004 -0.0068,0.005 l 0.05054,-0.0125 c -0.341279,0.0175 -0.709652,-0.0623 -1.041673,-0.25177 -0.164703,-0.0972 -0.324825,-0.2146 -0.447839,-0.36303 -0.126395,-0.15433 -0.211051,-0.34271 -0.25245,-0.5454 -0.0409,-0.20022 -0.03926,-0.41243 0.0033,-0.61474 0.03933,-0.19354 0.11723,-0.38106 0.22906,-0.54351 0.110301,-0.16022 0.25224,-0.29413 0.420177,-0.38544 0.04028,-0.0173 0.0752,-0.0393 0.100235,-0.0549 0.03007,-0.0187 0.04849,-0.03 0.06721,-0.0379 0.02208,-0.01 0.04404,-0.0145 0.0672,-0.0148 0.0235,-3.5e-4 0.04767,0.004 0.0707,0.0121 0.0233,0.008 0.04442,0.0208 0.06197,0.0359 0.01772,0.0152 0.03145,0.0329 0.04081,0.0521 0.01099,0.0203 0.01581,0.0357 0.01782,0.0521 0.0021,0.0169 0.0012,0.0351 -0.0028,0.0537 -0.0085,0.0394 -0.0298,0.0761 -0.05748,0.10229 -0.02915,0.0234 -0.07108,0.0484 -0.116016,0.0702 -0.04831,0.0235 -0.0998,0.0431 -0.150219,0.0606 -0.177638,0.0563 -0.3609,0.0731 -0.532004,0.0683 -0.07557,-0.002 -0.149413,-0.009 -0.220411,-0.0178 -0.113225,-0.0148 -0.2242,-0.0375 -0.330551,-0.065 -0.0067,-0.002 -0.01348,-0.003 -0.02038,-0.004 -0.0069,-6.3e-4 -0.01384,-4.9e-4 -0.02076,-3.3e-4 0.0041,-9e-5 0.012,2.6e-4 0.02223,0.004 0.01061,0.003 0.0224,0.01 0.0332,0.02 0.01095,0.0103 0.01914,0.023 0.02416,0.0366 0.005,0.0137 0.0066,0.0276 0.0055,0.0405 -0.0011,0.0131 -0.005,0.0256 -0.01103,0.0366 -0.0062,0.0113 -0.01469,0.021 -0.02461,0.0284 -0.01018,0.008 -0.02087,0.0122 -0.03056,0.0144 -0.0098,0.002 -0.01747,0.002 -0.02199,0.001 l 0.02595,4.2e-4 c 0.132316,-0.0125 0.269068,0.0169 0.393046,0.0573 0.0053,0.002 0.0054,0.001 0.0058,0.001 0.0079,0.002 0.01331,0.005 0.01921,0.007 0.006,0.002 0.01218,0.005 0.01795,0.008 0.0061,0.003 0.01072,0.005 0.01442,0.007 0.0038,0.002 0.0032,0.001 0.0012,-1.9e-4 -9.45e-4,-7.7e-4 -0.0027,-0.002 -0.0048,-0.004 -0.002,-0.002 -0.0054,-0.005 -0.0092,-0.01 -0.0035,-0.004 -0.01003,-0.0124 -0.01587,-0.0242 -0.0031,-0.006 -0.0065,-0.0146 -0.009,-0.0249 -0.0025,-0.0104 -0.0042,-0.0236 -0.003,-0.0387 0.0013,-0.0155 0.0056,-0.0313 0.01349,-0.0463 0.0078,-0.0149 0.01782,-0.0265 0.0279,-0.0353 0.0099,-0.009 0.01963,-0.0142 0.02752,-0.018 0.0079,-0.004 0.01498,-0.006 0.02041,-0.007 0.0105,-0.003 0.01894,-0.003 0.02336,-0.004 0.0049,-2e-4 0.0085,1e-5 0.01048,1.7e-4 0.0022,1.9e-4 0.007,9.2e-4 0.0041,5.9e-4 -0.001,-1.1e-4 -0.0036,-5.7e-4 -0.0075,-0.001 -0.02206,-0.006 -0.04849,-0.0144 -0.07508,-0.0237 -0.04971,-0.0173 -0.09923,-0.0376 -0.152546,-0.0599 -0.08125,-0.034 -0.165272,-0.0705 -0.253853,-0.0995 -0.100388,-0.0338 -0.200411,-0.0614 -0.302027,-0.0725 -0.05998,-0.007 -0.115604,-0.007 -0.167731,-0.001 -0.0709,0.008 -0.12786,0.0251 -0.171827,0.0435 a 0.12176389,0.12176389 90 0 0 0.09399,0.22466 z"
       id="path-1"
       inkscape:path-effect="#path-effect1150;#path-effect1152"
       inkscape:original-d="m -15.240542,151.50492 c 0.359197,-0.15568 0.890577,0.21339 1.088512,0.22602 -0.14886,-0.1159 -0.716361,-0.19159 -0.603246,-0.0518 0.480102,0.13682 1.083408,0.16866 1.508452,-0.11988 0.329396,-0.30735 -0.08697,-0.74684 -0.429532,-0.47817 -0.94162,0.43223 -1.144351,1.89852 -0.315736,2.54038 0.384313,0.31969 0.900193,0.48897 1.396412,0.46273 0.104619,-0.0327 0.184908,-0.33477 -0.0152,-0.17174"
       style="fill:#000000;fill-rule:nonzero;stroke:none;stroke-width:1.37085" />
  </g>
</svg>
