<?xml version="1.0" encoding="UTF-8" standalone="no"?>
<!-- Created with Inkscape (http://www.inkscape.org/) -->

<svg
   width="6mm"
   height="10mm"
   viewBox="0 0 6.0000001 9.9999994"
   version="1.1"
   id="svg1681"
   inkscape:version="1.2.1 (9c6d41e410, 2022-07-14)"
   sodipodi:docname="lower e 1.6.svg"
   inkscape:export-filename="..\..\..\..\Downloads\lower a diff canvas resize 3.0.png"
   inkscape:export-xdpi="96"
   inkscape:export-ydpi="96"
   xmlns:inkscape="http://www.inkscape.org/namespaces/inkscape"
   xmlns:sodipodi="http://sodipodi.sourceforge.net/DTD/sodipodi-0.dtd"
   xmlns="http://www.w3.org/2000/svg"
   xmlns:svg="http://www.w3.org/2000/svg"
   xmlns:rdf="http://www.w3.org/1999/02/22-rdf-syntax-ns#"
   xmlns:cc="http://creativecommons.org/ns#"
   xmlns:dc="http://purl.org/dc/elements/1.1/">
  <defs
     id="defs1675">
    <inkscape:path-effect
       effect="powerstroke"
       id="path-effect2362"
       is_visible="true"
       lpeversion="1"
       offset_points="1.7037483,0.12238865 | 13.126883,0.14531283"
       not_jump="true"
       sort_points="true"
       interpolator_type="CentripetalCatmullRom"
       interpolator_beta="0.75"
       start_linecap_type="round"
       linejoin_type="spiro"
       miter_limit="4"
       scale_width="1"
       end_linecap_type="round" />
    <inkscape:path-effect
       effect="simplify"
       id="path-effect2360"
       is_visible="true"
       lpeversion="1"
       steps="1"
       threshold="0.0035951417"
       smooth_angles="0"
       helper_size="0"
       simplify_individual_paths="false"
       simplify_just_coalesce="false"
       step="1" />
    <inkscape:path-effect
       effect="powerstroke"
       id="path-effect502"
       is_visible="true"
       lpeversion="1"
       offset_points="3.0091841,0.21607495 | 7.3602657,0.17554228 | 9.4159651,0.20236537"
       not_jump="true"
       sort_points="true"
       interpolator_type="CentripetalCatmullRom"
       interpolator_beta="0.75"
       start_linecap_type="round"
       linejoin_type="spiro"
       miter_limit="4"
       scale_width="1"
       end_linecap_type="round" />
    <inkscape:path-effect
       effect="simplify"
       id="path-effect500"
       is_visible="true"
       lpeversion="1"
       steps="1"
       threshold="0.0035951417"
       smooth_angles="0"
       helper_size="0"
       simplify_individual_paths="false"
       simplify_just_coalesce="false"
       step="1" />
    <inkscape:path-effect
       effect="powerstroke"
       id="path-effect241"
       is_visible="true"
       lpeversion="1"
       offset_points="2.6879454,0.34086734"
       not_jump="true"
       sort_points="true"
       interpolator_type="CentripetalCatmullRom"
       interpolator_beta="0.75"
       start_linecap_type="round"
       linejoin_type="spiro"
       miter_limit="4"
       scale_width="1"
       end_linecap_type="round" />
    <inkscape:path-effect
       effect="simplify"
       id="path-effect239"
       is_visible="true"
       lpeversion="1"
       steps="1"
       threshold="0.0028332064"
       smooth_angles="0"
       helper_size="0"
       simplify_individual_paths="false"
       simplify_just_coalesce="false"
       step="1" />
    <inkscape:path-effect
       effect="powerstroke"
       id="path-effect234"
       is_visible="true"
       lpeversion="1"
       offset_points="2.13563,0.075169555"
       not_jump="true"
       sort_points="true"
       interpolator_type="CentripetalCatmullRom"
       interpolator_beta="0.75"
       start_linecap_type="round"
       linejoin_type="spiro"
       miter_limit="4"
       scale_width="1"
       end_linecap_type="round" />
    <inkscape:path-effect
       effect="simplify"
       id="path-effect232"
       is_visible="true"
       lpeversion="1"
       steps="1"
       threshold="0.0028332064"
       smooth_angles="0"
       helper_size="0"
       simplify_individual_paths="false"
       simplify_just_coalesce="false"
       step="1" />
    <inkscape:path-effect
       effect="powerstroke"
       id="path-effect227"
       is_visible="true"
       lpeversion="1"
       offset_points="2.1868266,0.075169555"
       not_jump="true"
       sort_points="true"
       interpolator_type="CentripetalCatmullRom"
       interpolator_beta="0.75"
       start_linecap_type="round"
       linejoin_type="spiro"
       miter_limit="4"
       scale_width="1"
       end_linecap_type="round" />
    <inkscape:path-effect
       effect="simplify"
       id="path-effect225"
       is_visible="true"
       lpeversion="1"
       steps="1"
       threshold="0.0028332064"
       smooth_angles="0"
       helper_size="0"
       simplify_individual_paths="false"
       simplify_just_coalesce="false"
       step="1" />
    <inkscape:path-effect
       effect="powerstroke"
       id="path-effect166"
       is_visible="true"
       lpeversion="1"
       offset_points="1.9637935,0.075169555"
       not_jump="true"
       sort_points="true"
       interpolator_type="CentripetalCatmullRom"
       interpolator_beta="0.75"
       start_linecap_type="round"
       linejoin_type="spiro"
       miter_limit="4"
       scale_width="1"
       end_linecap_type="round" />
    <inkscape:path-effect
       effect="simplify"
       id="path-effect164"
       is_visible="true"
       lpeversion="1"
       steps="1"
       threshold="0.0028332064"
       smooth_angles="0"
       helper_size="0"
       simplify_individual_paths="false"
       simplify_just_coalesce="false"
       step="1" />
    <inkscape:path-effect
       effect="powerstroke"
       id="path-effect159"
       is_visible="true"
       lpeversion="1"
       offset_points="2.2611036,0.075169555"
       not_jump="true"
       sort_points="true"
       interpolator_type="CentripetalCatmullRom"
       interpolator_beta="0.75"
       start_linecap_type="round"
       linejoin_type="spiro"
       miter_limit="4"
       scale_width="1"
       end_linecap_type="round" />
    <inkscape:path-effect
       effect="simplify"
       id="path-effect157"
       is_visible="true"
       lpeversion="1"
       steps="1"
       threshold="0.0028332064"
       smooth_angles="0"
       helper_size="0"
       simplify_individual_paths="false"
       simplify_just_coalesce="false"
       step="1" />
    <inkscape:path-effect
       effect="powerstroke"
       id="path-effect152"
       is_visible="true"
       lpeversion="1"
       offset_points="2.826981,0.075169555"
       not_jump="true"
       sort_points="true"
       interpolator_type="CentripetalCatmullRom"
       interpolator_beta="0.75"
       start_linecap_type="round"
       linejoin_type="spiro"
       miter_limit="4"
       scale_width="1"
       end_linecap_type="round" />
    <inkscape:path-effect
       effect="simplify"
       id="path-effect150"
       is_visible="true"
       lpeversion="1"
       steps="1"
       threshold="0.0028332064"
       smooth_angles="0"
       helper_size="0"
       simplify_individual_paths="false"
       simplify_just_coalesce="false"
       step="1" />
    <inkscape:path-effect
       effect="powerstroke"
       id="path-effect145"
       is_visible="true"
       lpeversion="1"
       offset_points="3.8374447,0.075169555"
       not_jump="true"
       sort_points="true"
       interpolator_type="CentripetalCatmullRom"
       interpolator_beta="0.75"
       start_linecap_type="round"
       linejoin_type="spiro"
       miter_limit="4"
       scale_width="1"
       end_linecap_type="round" />
    <inkscape:path-effect
       effect="simplify"
       id="path-effect143"
       is_visible="true"
       lpeversion="1"
       steps="1"
       threshold="0.0028332064"
       smooth_angles="0"
       helper_size="0"
       simplify_individual_paths="false"
       simplify_just_coalesce="false"
       step="1" />
    <inkscape:path-effect
       effect="powerstroke"
       id="path-effect138"
       is_visible="true"
       lpeversion="1"
       offset_points="2.6880907,0.075169555"
       not_jump="true"
       sort_points="true"
       interpolator_type="CentripetalCatmullRom"
       interpolator_beta="0.75"
       start_linecap_type="round"
       linejoin_type="spiro"
       miter_limit="4"
       scale_width="1"
       end_linecap_type="round" />
    <inkscape:path-effect
       effect="simplify"
       id="path-effect136"
       is_visible="true"
       lpeversion="1"
       steps="1"
       threshold="0.0028332064"
       smooth_angles="0"
       helper_size="0"
       simplify_individual_paths="false"
       simplify_just_coalesce="false"
       step="1" />
    <inkscape:path-effect
       effect="powerstroke"
       id="path-effect131"
       is_visible="true"
       lpeversion="1"
       offset_points="1.9940581,0.075169555"
       not_jump="true"
       sort_points="true"
       interpolator_type="CentripetalCatmullRom"
       interpolator_beta="0.75"
       start_linecap_type="round"
       linejoin_type="spiro"
       miter_limit="4"
       scale_width="1"
       end_linecap_type="round" />
    <inkscape:path-effect
       effect="simplify"
       id="path-effect129"
       is_visible="true"
       lpeversion="1"
       steps="1"
       threshold="0.0028332064"
       smooth_angles="0"
       helper_size="0"
       simplify_individual_paths="false"
       simplify_just_coalesce="false"
       step="1" />
  </defs>
  <sodipodi:namedview
     id="base"
     pagecolor="#ffffff"
     bordercolor="#666666"
     borderopacity="1.0"
     inkscape:pageopacity="0.0"
     inkscape:pageshadow="2"
     inkscape:zoom="7.919596"
     inkscape:cx="-5.3033008"
     inkscape:cy="20.834396"
     inkscape:document-units="mm"
     inkscape:current-layer="layer1"
     showgrid="false"
     fit-margin-top="0"
     fit-margin-left="0"
     fit-margin-right="0"
     fit-margin-bottom="0"
     inkscape:window-width="1920"
     inkscape:window-height="974"
     inkscape:window-x="-11"
     inkscape:window-y="2869"
     inkscape:window-maximized="1"
     showguides="true"
     inkscape:guide-bbox="true"
     inkscape:snap-bbox="true"
     inkscape:bbox-nodes="true"
     inkscape:snap-nodes="false"
     inkscape:snap-others="false"
     inkscape:snap-page="true"
     inkscape:snap-grids="false"
     inkscape:snap-to-guides="false"
     inkscape:snap-global="false"
     inkscape:pagecheckerboard="0"
     inkscape:showpageshadow="2"
     inkscape:deskcolor="#d1d1d1">
    <sodipodi:guide
       position="-6.1806075,9.4988692"
       orientation="0,1"
       id="guide816"
       inkscape:locked="false" />
    <sodipodi:guide
       position="-4.4101636,10.646923"
       orientation="0,1"
       id="guide818"
       inkscape:locked="false" />
    <sodipodi:guide
       position="2.7595724,11.09577"
       orientation="1,0"
       id="guide820"
       inkscape:locked="false" />
    <sodipodi:guide
       position="3.6572659,10.942217"
       orientation="1,0"
       id="guide822"
       inkscape:locked="false" />
    <sodipodi:guide
       position="-0.051625511,9.7492299"
       orientation="1,0"
       id="guide1853"
       inkscape:locked="false" />
    <sodipodi:guide
       position="-2.3720169,3.0175835"
       orientation="0,1"
       id="guide1855"
       inkscape:locked="false" />
  </sodipodi:namedview>
  <metadata
     id="metadata1678">
    <rdf:RDF>
      <cc:Work
         rdf:about="">
        <dc:format>image/svg+xml</dc:format>
        <dc:type
           rdf:resource="http://purl.org/dc/dcmitype/StillImage" />
      </cc:Work>
    </rdf:RDF>
  </metadata>
  <g
     inkscape:label="Layer 1"
     inkscape:groupmode="layer"
     id="layer1"
     transform="translate(17.028496,-147.22856)">
    <path
       d="m -15.339149,152.2623 c 0.02822,-0.006 0.06143,-0.01 0.110282,-0.0136 0.03547,-0.003 0.0774,-0.004 0.126519,-0.008 0.03998,-0.003 0.08925,-0.007 0.139604,-0.0168 0.04423,-0.008 0.09377,-0.0216 0.144442,-0.0442 0.01426,-0.006 0.02685,-0.0126 0.03722,-0.0192 0.0117,-0.007 0.02296,-0.0159 0.03339,-0.0249 0.01005,-0.009 0.02017,-0.0184 0.02963,-0.0291 0.0089,-0.0101 0.01869,-0.0224 0.02722,-0.0367 0.0042,-0.007 0.0087,-0.0154 0.01257,-0.0249 0.0038,-0.009 0.0077,-0.0209 0.01,-0.0345 0.0022,-0.0134 0.0032,-0.0307 -4.22e-4,-0.05 -9.5e-4,-0.005 -0.0022,-0.0101 -0.0038,-0.0154 -0.0046,-0.0148 -0.01201,-0.0296 -0.02253,-0.0431 -0.01381,-0.0177 -0.03059,-0.0303 -0.04734,-0.0387 -0.0157,-0.008 -0.03103,-0.012 -0.04415,-0.0142 -0.02037,-0.003 -0.04024,-0.003 -0.058,-7.4e-4 -0.04255,7.1e-4 -0.09686,0.003 -0.152582,0.0114 -0.05127,0.008 -0.110567,0.0217 -0.169785,0.0489 -0.0086,0.004 -0.01721,0.008 -0.02515,0.0131 -0.0079,0.005 -0.01519,0.0114 -0.02117,0.0188 -0.01194,0.0147 -0.01764,0.0334 -0.02213,0.0517 -0.0035,0.0143 -0.0053,0.0304 -0.0039,0.0478 0.0014,0.0173 0.0058,0.0343 0.01316,0.0501 0.0072,0.0155 0.01653,0.0284 0.02641,0.039 0.0097,0.0103 0.01982,0.0183 0.02923,0.0245 0.01804,0.0118 0.03623,0.0188 0.05068,0.0231 0.01461,0.004 0.02894,0.007 0.04181,0.009 0.02489,0.003 0.05004,0.004 0.07157,0.003 0.01074,-3.7e-4 0.02127,-0.001 0.03116,-0.002 0.0095,-9.7e-4 0.01958,-0.002 0.02924,-0.004 0.01091,-0.003 0.01729,-0.004 0.02297,-0.006 0.0028,-8e-4 0.0061,-0.002 0.0094,-0.003 0.0029,-9.5e-4 0.008,-0.003 0.01383,-0.005 0.0029,-0.001 0.0077,-0.004 0.01342,-0.007 0.0029,-0.002 0.0069,-0.004 0.01141,-0.007 0.0043,-0.003 0.01083,-0.008 0.01782,-0.0158 0.0065,-0.007 0.01742,-0.0202 0.02519,-0.0398 0.0041,-0.0102 0.0075,-0.0228 0.0086,-0.0374 0.0011,-0.0148 -3.55e-4,-0.0302 -0.0048,-0.0454 -0.0045,-0.0151 -0.01131,-0.028 -0.01897,-0.0386 -0.0075,-0.0104 -0.01563,-0.0182 -0.02274,-0.024 -0.01363,-0.0111 -0.02662,-0.0169 -0.03419,-0.0199 -0.0081,-0.003 -0.01506,-0.005 -0.01965,-0.006 -0.0048,-0.001 -0.0089,-0.002 -0.01196,-0.002 -0.0059,-7.1e-4 -0.01081,-8.8e-4 -0.01379,-9.3e-4 -0.006,-10e-5 -0.011,1.9e-4 -0.01391,3.9e-4 -0.0062,4.4e-4 -0.01203,0.001 -0.01669,0.002 -0.005,7e-4 -0.01019,0.002 -0.01546,0.003 -0.01036,0.002 -0.02237,0.005 -0.03466,0.008 -0.0117,0.003 -0.02625,0.007 -0.04066,0.0134 -0.0072,0.003 -0.01616,0.007 -0.02552,0.0126 -0.0085,0.005 -0.02246,0.0141 -0.03582,0.0287 -0.007,0.008 -0.01528,0.0183 -0.02224,0.0324 -0.0071,0.0144 -0.01294,0.0326 -0.01386,0.0539 -9.35e-4,0.0216 0.0034,0.042 0.0113,0.06 0.0076,0.0173 0.01764,0.0304 0.02689,0.04 0.009,0.009 0.01813,0.0163 0.02561,0.0212 0.0076,0.005 0.01481,0.009 0.02107,0.0117 0.01223,0.006 0.02439,0.01 0.03501,0.0128 0.07258,0.0163 0.135564,0.0154 0.191942,0.0101 0.05536,-0.005 0.10576,-0.0145 0.149766,-0.0204 0.217241,-0.0407 0.415034,-0.11656 0.602425,-0.21021 0.180413,-0.0902 0.351612,-0.19703 0.515508,-0.3037 0.02706,-0.0108 0.05318,-0.025 0.07717,-0.042 0.02881,-0.0204 0.05647,-0.0462 0.07933,-0.0771 0.02289,-0.0309 0.04223,-0.0688 0.05114,-0.11276 0.0091,-0.0449 0.0065,-0.0928 -0.01056,-0.13993 -0.0185,-0.0483 -0.04699,-0.0857 -0.08179,-0.11384 -0.03433,-0.0278 -0.07248,-0.045 -0.109751,-0.0549 -0.03719,-0.01 -0.07488,-0.013 -0.110266,-0.0112 -0.029,0.001 -0.0579,0.006 -0.08549,0.0142 -0.07881,0.008 -0.15313,0.0257 -0.223155,0.0498 -0.07522,0.0259 -0.1458,0.0591 -0.211866,0.0954 -0.131124,0.0719 -0.257928,0.16373 -0.364215,0.23648 -0.179074,0.10686 -0.32855,0.26304 -0.435544,0.43785 -0.112165,0.18326 -0.178652,0.38816 -0.195904,0.59321 -0.014,0.16312 0.0041,0.3205 0.03974,0.46453 0.0385,0.15577 0.09826,0.29951 0.16487,0.42532 0.15863,0.29312 0.382658,0.52549 0.622084,0.69002 0.285593,0.19625 0.590594,0.29625 0.874882,0.32108 0.02067,0.002 0.04303,0.004 0.06422,0.005 0.158129,0.008 0.320659,-0.0163 0.428765,-0.0318 0.305258,-0.0394 0.522478,-0.0812 0.647936,-0.0945 a 0.14531283,0.14531283 90 0 0 -0.03055,-0.28902 c -0.136184,0.0144 -0.367885,0.0575 -0.656589,0.0948 -0.11585,0.0165 -0.250356,0.0359 -0.375758,0.0302 -0.01626,-7.4e-4 -0.0331,-0.002 -0.05035,-0.004 -0.237586,-0.0204 -0.494796,-0.10311 -0.739114,-0.27034 -0.20529,-0.14052 -0.397354,-0.33922 -0.532497,-0.58769 -0.05769,-0.10783 -0.108506,-0.22945 -0.141018,-0.35843 -0.03004,-0.11916 -0.04451,-0.24488 -0.03422,-0.37201 0.01294,-0.16084 0.06472,-0.32364 0.153683,-0.47023 0.08485,-0.13981 0.202421,-0.26271 0.346411,-0.34965 0.122211,-0.0842 0.231836,-0.16464 0.346953,-0.22855 0.05585,-0.031 0.111729,-0.0574 0.168477,-0.0772 0.05599,-0.0196 0.112823,-0.0329 0.17144,-0.038 0.0059,-5.1e-4 0.01172,-0.001 0.01747,-0.002 0.0058,-0.001 0.01133,-0.003 0.01682,-0.005 0.0077,-0.003 0.0174,-0.005 0.0278,-0.006 0.01036,-7.7e-4 0.01926,7e-5 0.02589,0.002 0.0063,0.001 0.0089,0.003 0.0089,0.003 9e-6,-2.3e-4 -0.0017,-0.003 -0.0012,-0.002 -6.42e-4,-0.002 -9.89e-4,-0.007 -5.85e-4,-0.008 4.03e-4,-0.001 1.85e-4,0.002 -0.0034,0.007 -0.0037,0.005 -0.01,0.012 -0.01852,0.0184 -0.0086,0.006 -0.01757,0.0111 -0.02541,0.014 -0.0051,0.002 -0.01022,0.004 -0.01514,0.006 -0.0049,0.002 -0.0096,0.005 -0.01412,0.008 -0.165634,0.10892 -0.33019,0.21271 -0.500771,0.29875 -0.171962,0.0867 -0.346017,0.15331 -0.527068,0.18803 -0.04608,0.007 -0.09243,0.0159 -0.132772,0.0203 -0.04197,0.005 -0.07526,0.004 -0.104278,-0.002 0.0056,0.001 0.0064,0.001 0.01137,0.004 0.0023,0.001 0.0062,0.003 0.01098,0.006 0.0047,0.003 0.0115,0.008 0.01877,0.0157 0.0075,0.008 0.01622,0.019 0.02306,0.0345 0.0071,0.0162 0.01109,0.0348 0.01023,0.0545 -8.46e-4,0.0194 -0.0062,0.0359 -0.01242,0.0485 -0.0061,0.0123 -0.01314,0.0212 -0.01853,0.0271 -0.01019,0.0111 -0.01958,0.0168 -0.02255,0.0185 -0.0042,0.002 -0.0058,0.003 -0.0061,0.003 -6.43e-4,1.7e-4 0.0037,-0.002 0.0087,-0.003 0.0053,-0.002 0.01095,-0.003 0.01572,-0.004 0.0025,-5.3e-4 0.004,-8e-4 0.0052,-0.001 0.0012,-2.4e-4 8.79e-4,-1.6e-4 -0.0017,0 -9.36e-4,5e-5 -0.0045,2.8e-4 -0.0091,1.9e-4 -0.0024,-4e-5 -0.0067,-1.8e-4 -0.01219,-8.4e-4 -0.0028,-3.3e-4 -0.0067,-9e-4 -0.01137,-0.002 -0.0044,-9.5e-4 -0.01122,-0.003 -0.01921,-0.006 -0.0074,-0.003 -0.02034,-0.009 -0.03389,-0.0197 -0.0071,-0.006 -0.01514,-0.0136 -0.02265,-0.0239 -0.0076,-0.0105 -0.01447,-0.0234 -0.01892,-0.0384 -0.0045,-0.0152 -0.0059,-0.0305 -0.0048,-0.0453 0.0011,-0.0145 0.0045,-0.0271 0.0086,-0.0373 0.0077,-0.0195 0.01856,-0.0326 0.02501,-0.0395 0.0069,-0.007 0.01335,-0.0125 0.01748,-0.0155 0.0044,-0.003 0.0082,-0.006 0.0109,-0.007 0.0053,-0.003 0.0096,-0.005 0.01188,-0.006 0.0046,-0.002 0.0078,-0.003 0.0085,-0.003 2.06e-4,2e-5 -0.0028,8.9e-4 -0.0074,0.002 0.0048,-9.2e-4 0.0013,-2.6e-4 -0.002,1.9e-4 -0.0039,5.3e-4 -0.0087,9.9e-4 -0.01397,0.001 -0.01142,6.7e-4 -0.02147,4.1e-4 -0.02851,-3.1e-4 -0.0033,-3.5e-4 -0.0046,-6.7e-4 -0.0035,-2.9e-4 3.55e-4,1.3e-4 0.0067,0.002 0.01485,0.008 0.0045,0.003 0.01032,0.007 0.01639,0.0139 0.0062,0.007 0.01265,0.0155 0.01774,0.0264 0.0052,0.0113 0.0083,0.0233 0.0093,0.0354 9.39e-4,0.012 -3.95e-4,0.0225 -0.0024,0.0307 -0.0023,0.009 -0.0046,0.0184 -0.0081,0.0271 -0.0035,0.009 -0.0082,0.0171 -0.01423,0.0244 -0.012,0.0146 -0.02904,0.024 -0.0461,0.0321 0.03141,-0.015 0.06639,-0.0244 0.102918,-0.0304 0.04192,-0.007 0.0858,-0.009 0.125466,-0.0101 0.0054,-1.3e-4 0.01082,-4.9e-4 0.01616,-0.001 0.0046,-7.5e-4 0.0028,6.5e-4 -0.0087,-0.001 -0.0058,-9.7e-4 -0.01516,-0.003 -0.02608,-0.009 -0.01179,-0.006 -0.02485,-0.0154 -0.03597,-0.0297 -0.0085,-0.0109 -0.01438,-0.0227 -0.01805,-0.0345 -0.0013,-0.004 -0.0023,-0.008 -0.003,-0.012 -0.0028,-0.0149 -0.0019,-0.0274 -4.89e-4,-0.0357 0.0014,-0.008 0.0037,-0.0148 0.0052,-0.0184 0.0016,-0.004 0.003,-0.006 0.0037,-0.007 0.0013,-0.002 0.0016,-0.002 -8.5e-5,-1.5e-4 -0.0015,0.002 -0.0036,0.004 -0.006,0.006 -0.0025,0.002 -0.0045,0.004 -0.0054,0.004 -7.39e-4,4.8e-4 -6e-6,-4.7e-4 0.0065,-0.003 l -0.0097,0.004 c -0.02964,0.0135 -0.06085,0.0222 -0.09292,0.0283 -0.03611,0.007 -0.07404,0.0104 -0.11092,0.0129 -0.04399,0.003 -0.08714,0.005 -0.127156,0.008 -0.05571,0.004 -0.09948,0.009 -0.140265,0.0174 a 0.12238865,0.12238865 90 0 0 0.04754,0.24012 z"
       id="path-1"
       inkscape:path-effect="#path-effect2360;#path-effect2362"
       inkscape:original-d="m -15.362921,152.14224 c 0.179721,-0.0378 0.519919,0.008 0.581462,-0.16423 -0.109054,-0.0329 -0.549837,0.0597 -0.224396,0.0874 0.221953,-0.0418 -0.210518,0.0127 0.04725,0.0439 0.481348,-0.0133 0.916733,-0.27132 1.309536,-0.52921 0.241178,-0.0972 0.14074,-0.35728 -0.102976,-0.28255 -0.319988,0.0271 -0.573474,0.24944 -0.831832,0.41803 -0.373084,0.27236 -0.560714,0.76039 -0.463843,1.21294 0.165809,0.85743 1.052505,1.54119 1.93144,1.3857 0.245687,-0.0268 0.487927,-0.0784 0.733718,-0.10438"
       style="fill:#000000;fill-rule:nonzero;stroke:none;stroke-width:1.29044" />
  </g>
</svg>
