<?xml version="1.0" encoding="UTF-8" standalone="no"?>
<!-- Created with Inkscape (http://www.inkscape.org/) -->

<svg
   width="6mm"
   height="10mm"
   viewBox="0 0 6.0000001 9.9999994"
   version="1.1"
   id="svg1681"
   inkscape:version="1.2.1 (9c6d41e410, 2022-07-14)"
   sodipodi:docname="lower e 1.3.svg"
   inkscape:export-filename="..\..\..\..\Downloads\lower a diff canvas resize 3.0.png"
   inkscape:export-xdpi="96"
   inkscape:export-ydpi="96"
   xmlns:inkscape="http://www.inkscape.org/namespaces/inkscape"
   xmlns:sodipodi="http://sodipodi.sourceforge.net/DTD/sodipodi-0.dtd"
   xmlns="http://www.w3.org/2000/svg"
   xmlns:svg="http://www.w3.org/2000/svg"
   xmlns:rdf="http://www.w3.org/1999/02/22-rdf-syntax-ns#"
   xmlns:cc="http://creativecommons.org/ns#"
   xmlns:dc="http://purl.org/dc/elements/1.1/">
  <defs
     id="defs1675">
    <inkscape:path-effect
       effect="powerstroke"
       id="path-effect476"
       is_visible="true"
       lpeversion="1"
       offset_points="4.4743331,0.080360994 | 8.9566294,0.092801818"
       not_jump="true"
       sort_points="true"
       interpolator_type="CentripetalCatmullRom"
       interpolator_beta="0.75"
       start_linecap_type="round"
       linejoin_type="spiro"
       miter_limit="4"
       scale_width="1"
       end_linecap_type="round" />
    <inkscape:path-effect
       effect="simplify"
       id="path-effect474"
       is_visible="true"
       lpeversion="1"
       steps="1"
       threshold="0.0035951417"
       smooth_angles="0"
       helper_size="0"
       simplify_individual_paths="false"
       simplify_just_coalesce="false"
       step="1" />
    <inkscape:path-effect
       effect="powerstroke"
       id="path-effect469"
       is_visible="true"
       lpeversion="1"
       offset_points="1.9270131,0.07044196 | 5.2697524,0.082714664"
       not_jump="true"
       sort_points="true"
       interpolator_type="CentripetalCatmullRom"
       interpolator_beta="0.75"
       start_linecap_type="round"
       linejoin_type="spiro"
       miter_limit="4"
       scale_width="1"
       end_linecap_type="round" />
    <inkscape:path-effect
       effect="simplify"
       id="path-effect467"
       is_visible="true"
       lpeversion="1"
       steps="1"
       threshold="0.0035951417"
       smooth_angles="0"
       helper_size="0"
       simplify_individual_paths="false"
       simplify_just_coalesce="false"
       step="1" />
    <inkscape:path-effect
       effect="powerstroke"
       id="path-effect462"
       is_visible="true"
       lpeversion="1"
       offset_points="1.5742442,0.085236452 | 6.2436496,0.10406581"
       not_jump="true"
       sort_points="true"
       interpolator_type="CentripetalCatmullRom"
       interpolator_beta="0.75"
       start_linecap_type="round"
       linejoin_type="spiro"
       miter_limit="4"
       scale_width="1"
       end_linecap_type="round" />
    <inkscape:path-effect
       effect="simplify"
       id="path-effect460"
       is_visible="true"
       lpeversion="1"
       steps="1"
       threshold="0.0035951417"
       smooth_angles="0"
       helper_size="0"
       simplify_individual_paths="false"
       simplify_just_coalesce="false"
       step="1" />
    <inkscape:path-effect
       effect="powerstroke"
       id="path-effect502"
       is_visible="true"
       lpeversion="1"
       offset_points="3.0091841,0.21607495 | 7.3602657,0.17554228 | 9.4159651,0.20236537"
       not_jump="true"
       sort_points="true"
       interpolator_type="CentripetalCatmullRom"
       interpolator_beta="0.75"
       start_linecap_type="round"
       linejoin_type="spiro"
       miter_limit="4"
       scale_width="1"
       end_linecap_type="round" />
    <inkscape:path-effect
       effect="simplify"
       id="path-effect500"
       is_visible="true"
       lpeversion="1"
       steps="1"
       threshold="0.0035951417"
       smooth_angles="0"
       helper_size="0"
       simplify_individual_paths="false"
       simplify_just_coalesce="false"
       step="1" />
    <inkscape:path-effect
       effect="powerstroke"
       id="path-effect241"
       is_visible="true"
       lpeversion="1"
       offset_points="2.6879454,0.34086734"
       not_jump="true"
       sort_points="true"
       interpolator_type="CentripetalCatmullRom"
       interpolator_beta="0.75"
       start_linecap_type="round"
       linejoin_type="spiro"
       miter_limit="4"
       scale_width="1"
       end_linecap_type="round" />
    <inkscape:path-effect
       effect="simplify"
       id="path-effect239"
       is_visible="true"
       lpeversion="1"
       steps="1"
       threshold="0.0028332064"
       smooth_angles="0"
       helper_size="0"
       simplify_individual_paths="false"
       simplify_just_coalesce="false"
       step="1" />
    <inkscape:path-effect
       effect="powerstroke"
       id="path-effect234"
       is_visible="true"
       lpeversion="1"
       offset_points="2.13563,0.075169555"
       not_jump="true"
       sort_points="true"
       interpolator_type="CentripetalCatmullRom"
       interpolator_beta="0.75"
       start_linecap_type="round"
       linejoin_type="spiro"
       miter_limit="4"
       scale_width="1"
       end_linecap_type="round" />
    <inkscape:path-effect
       effect="simplify"
       id="path-effect232"
       is_visible="true"
       lpeversion="1"
       steps="1"
       threshold="0.0028332064"
       smooth_angles="0"
       helper_size="0"
       simplify_individual_paths="false"
       simplify_just_coalesce="false"
       step="1" />
    <inkscape:path-effect
       effect="powerstroke"
       id="path-effect227"
       is_visible="true"
       lpeversion="1"
       offset_points="2.1868266,0.075169555"
       not_jump="true"
       sort_points="true"
       interpolator_type="CentripetalCatmullRom"
       interpolator_beta="0.75"
       start_linecap_type="round"
       linejoin_type="spiro"
       miter_limit="4"
       scale_width="1"
       end_linecap_type="round" />
    <inkscape:path-effect
       effect="simplify"
       id="path-effect225"
       is_visible="true"
       lpeversion="1"
       steps="1"
       threshold="0.0028332064"
       smooth_angles="0"
       helper_size="0"
       simplify_individual_paths="false"
       simplify_just_coalesce="false"
       step="1" />
    <inkscape:path-effect
       effect="powerstroke"
       id="path-effect166"
       is_visible="true"
       lpeversion="1"
       offset_points="1.9637935,0.075169555"
       not_jump="true"
       sort_points="true"
       interpolator_type="CentripetalCatmullRom"
       interpolator_beta="0.75"
       start_linecap_type="round"
       linejoin_type="spiro"
       miter_limit="4"
       scale_width="1"
       end_linecap_type="round" />
    <inkscape:path-effect
       effect="simplify"
       id="path-effect164"
       is_visible="true"
       lpeversion="1"
       steps="1"
       threshold="0.0028332064"
       smooth_angles="0"
       helper_size="0"
       simplify_individual_paths="false"
       simplify_just_coalesce="false"
       step="1" />
    <inkscape:path-effect
       effect="powerstroke"
       id="path-effect159"
       is_visible="true"
       lpeversion="1"
       offset_points="2.2611036,0.075169555"
       not_jump="true"
       sort_points="true"
       interpolator_type="CentripetalCatmullRom"
       interpolator_beta="0.75"
       start_linecap_type="round"
       linejoin_type="spiro"
       miter_limit="4"
       scale_width="1"
       end_linecap_type="round" />
    <inkscape:path-effect
       effect="simplify"
       id="path-effect157"
       is_visible="true"
       lpeversion="1"
       steps="1"
       threshold="0.0028332064"
       smooth_angles="0"
       helper_size="0"
       simplify_individual_paths="false"
       simplify_just_coalesce="false"
       step="1" />
    <inkscape:path-effect
       effect="powerstroke"
       id="path-effect152"
       is_visible="true"
       lpeversion="1"
       offset_points="2.826981,0.075169555"
       not_jump="true"
       sort_points="true"
       interpolator_type="CentripetalCatmullRom"
       interpolator_beta="0.75"
       start_linecap_type="round"
       linejoin_type="spiro"
       miter_limit="4"
       scale_width="1"
       end_linecap_type="round" />
    <inkscape:path-effect
       effect="simplify"
       id="path-effect150"
       is_visible="true"
       lpeversion="1"
       steps="1"
       threshold="0.0028332064"
       smooth_angles="0"
       helper_size="0"
       simplify_individual_paths="false"
       simplify_just_coalesce="false"
       step="1" />
    <inkscape:path-effect
       effect="powerstroke"
       id="path-effect145"
       is_visible="true"
       lpeversion="1"
       offset_points="3.8374447,0.075169555"
       not_jump="true"
       sort_points="true"
       interpolator_type="CentripetalCatmullRom"
       interpolator_beta="0.75"
       start_linecap_type="round"
       linejoin_type="spiro"
       miter_limit="4"
       scale_width="1"
       end_linecap_type="round" />
    <inkscape:path-effect
       effect="simplify"
       id="path-effect143"
       is_visible="true"
       lpeversion="1"
       steps="1"
       threshold="0.0028332064"
       smooth_angles="0"
       helper_size="0"
       simplify_individual_paths="false"
       simplify_just_coalesce="false"
       step="1" />
    <inkscape:path-effect
       effect="powerstroke"
       id="path-effect138"
       is_visible="true"
       lpeversion="1"
       offset_points="2.6880907,0.075169555"
       not_jump="true"
       sort_points="true"
       interpolator_type="CentripetalCatmullRom"
       interpolator_beta="0.75"
       start_linecap_type="round"
       linejoin_type="spiro"
       miter_limit="4"
       scale_width="1"
       end_linecap_type="round" />
    <inkscape:path-effect
       effect="simplify"
       id="path-effect136"
       is_visible="true"
       lpeversion="1"
       steps="1"
       threshold="0.0028332064"
       smooth_angles="0"
       helper_size="0"
       simplify_individual_paths="false"
       simplify_just_coalesce="false"
       step="1" />
    <inkscape:path-effect
       effect="powerstroke"
       id="path-effect131"
       is_visible="true"
       lpeversion="1"
       offset_points="1.9940581,0.075169555"
       not_jump="true"
       sort_points="true"
       interpolator_type="CentripetalCatmullRom"
       interpolator_beta="0.75"
       start_linecap_type="round"
       linejoin_type="spiro"
       miter_limit="4"
       scale_width="1"
       end_linecap_type="round" />
    <inkscape:path-effect
       effect="simplify"
       id="path-effect129"
       is_visible="true"
       lpeversion="1"
       steps="1"
       threshold="0.0028332064"
       smooth_angles="0"
       helper_size="0"
       simplify_individual_paths="false"
       simplify_just_coalesce="false"
       step="1" />
  </defs>
  <sodipodi:namedview
     id="base"
     pagecolor="#ffffff"
     bordercolor="#666666"
     borderopacity="1.0"
     inkscape:pageopacity="0.0"
     inkscape:pageshadow="2"
     inkscape:zoom="7.919596"
     inkscape:cx="-5.3033008"
     inkscape:cy="20.834396"
     inkscape:document-units="mm"
     inkscape:current-layer="layer1"
     showgrid="false"
     fit-margin-top="0"
     fit-margin-left="0"
     fit-margin-right="0"
     fit-margin-bottom="0"
     inkscape:window-width="1280"
     inkscape:window-height="649"
     inkscape:window-x="-8"
     inkscape:window-y="1912"
     inkscape:window-maximized="1"
     showguides="true"
     inkscape:guide-bbox="true"
     inkscape:snap-bbox="true"
     inkscape:bbox-nodes="true"
     inkscape:snap-nodes="false"
     inkscape:snap-others="false"
     inkscape:snap-page="true"
     inkscape:snap-grids="false"
     inkscape:snap-to-guides="false"
     inkscape:snap-global="false"
     inkscape:pagecheckerboard="0"
     inkscape:showpageshadow="2"
     inkscape:deskcolor="#d1d1d1">
    <sodipodi:guide
       position="-6.1806075,9.4988692"
       orientation="0,1"
       id="guide816"
       inkscape:locked="false" />
    <sodipodi:guide
       position="-4.4101636,10.646923"
       orientation="0,1"
       id="guide818"
       inkscape:locked="false" />
    <sodipodi:guide
       position="2.7595724,11.09577"
       orientation="1,0"
       id="guide820"
       inkscape:locked="false" />
    <sodipodi:guide
       position="3.6572659,10.942217"
       orientation="1,0"
       id="guide822"
       inkscape:locked="false" />
    <sodipodi:guide
       position="-0.051625511,9.7492299"
       orientation="1,0"
       id="guide1853"
       inkscape:locked="false" />
    <sodipodi:guide
       position="-2.3720169,3.0175835"
       orientation="0,1"
       id="guide1855"
       inkscape:locked="false" />
  </sodipodi:namedview>
  <metadata
     id="metadata1678">
    <rdf:RDF>
      <cc:Work
         rdf:about="">
        <dc:format>image/svg+xml</dc:format>
        <dc:type
           rdf:resource="http://purl.org/dc/dcmitype/StillImage" />
      </cc:Work>
    </rdf:RDF>
  </metadata>
  <g
     inkscape:label="Layer 1"
     inkscape:groupmode="layer"
     id="layer1"
     transform="translate(17.028496,-147.22856)">
    <path
       d="m -14.793978,153.37128 c 0.11032,-0.0268 0.24691,-0.0462 0.466669,-0.0465 0.14454,-2e-4 0.311419,0.009 0.491434,0.008 0.123344,-3e-4 0.258335,-0.008 0.392683,-0.0325 0.01947,-0.004 0.03894,-0.008 0.05838,-0.012 0.101655,-0.023 0.214055,-0.0596 0.324383,-0.12105 0.02876,-0.0147 0.0569,-0.036 0.08139,-0.0617 0.02314,-0.0242 0.04288,-0.0523 0.05845,-0.0831 0.02908,-0.0576 0.04448,-0.12681 0.03707,-0.19755 -0.0061,-0.0536 -0.02188,-0.10479 -0.04552,-0.15222 -0.02313,-0.0464 -0.0538,-0.0892 -0.09028,-0.12668 -0.07111,-0.073 -0.166264,-0.12771 -0.272154,-0.14636 -0.04008,-0.006 -0.08304,-0.0132 -0.124869,-0.0177 -0.04322,-0.005 -0.08957,-0.007 -0.137802,-0.003 -0.146247,0.0108 -0.284079,0.0613 -0.403112,0.13396 -0.124484,0.0761 -0.229157,0.17669 -0.309347,0.28605 -0.02388,0.0319 -0.04582,0.0651 -0.0655,0.0986 -0.05957,0.10144 -0.105197,0.21687 -0.131589,0.34195 -0.0398,0.14957 -0.05471,0.31331 -0.04104,0.47582 0.01369,0.16272 0.05586,0.32216 0.127059,0.4683 0.05606,0.11533 0.133351,0.21867 0.224817,0.30195 0.09879,0.0899 0.211885,0.15461 0.331966,0.19007 0.02096,0.005 0.03468,0.008 0.0433,0.0105 a 0.10406581,0.10406581 90 0 0 0.05153,-0.20166 c -0.0083,-0.002 -0.02263,-0.006 -0.03918,-0.0106 -0.08395,-0.0251 -0.169382,-0.0734 -0.246125,-0.14345 -0.07126,-0.0651 -0.132484,-0.14684 -0.177085,-0.23877 -0.05915,-0.12159 -0.09487,-0.25559 -0.106553,-0.39396 -0.01167,-0.13825 9.1e-4,-0.27784 0.03566,-0.40977 0.02266,-0.10836 0.05957,-0.20293 0.107142,-0.28567 0.01571,-0.0273 0.03315,-0.0544 0.05243,-0.0808 0.06546,-0.0906 0.150086,-0.17302 0.249507,-0.23505 0.09488,-0.0592 0.201714,-0.0988 0.314367,-0.10838 0.0332,-0.004 0.06566,-0.004 0.101928,-0.002 0.03703,0.003 0.07279,0.007 0.114526,0.0117 0.05938,0.009 0.12036,0.0416 0.16781,0.0884 0.02402,0.0237 0.04393,0.0505 0.05885,0.079 0.01522,0.0291 0.0251,0.0596 0.02924,0.0905 0.0046,0.0325 -0.0015,0.0677 -0.01568,0.0981 -0.0074,0.016 -0.01681,0.03 -0.02738,0.0418 -0.01114,0.0124 -0.02346,0.0221 -0.03639,0.0292 -0.09404,0.0534 -0.189765,0.0859 -0.279834,0.10673 -0.01715,0.004 -0.03443,0.008 -0.0518,0.0109 -0.120404,0.0229 -0.244189,0.0301 -0.362185,0.0305 -0.172499,0.001 -0.340202,-0.008 -0.490595,-0.008 -0.230608,-7e-5 -0.381187,0.02 -0.506832,0.0505 a 0.08523645,0.08523645 90 0 0 0.04025,0.16566 z"
       id="path-1"
       inkscape:path-effect="#path-effect460;#path-effect462"
       inkscape:original-d="m -14.814104,153.28845 c 0.571591,-0.14041 1.21273,0.10299 1.742481,-0.21483 0.241332,-0.2106 0.0024,-0.57289 -0.274333,-0.58398 -0.475663,-0.0928 -0.917164,0.30455 -1.010198,0.75445 -0.138305,0.48082 0.01696,1.12136 0.521279,1.31723 l 0.04113,0.0133 0.04191,0.0107"
       style="fill:#000000;fill-rule:nonzero;stroke:none;stroke-width:1.14511" />
    <path
       d="m -13.769986,154.68314 c 0.0382,0.0174 0.258456,0.12476 0.412443,0.16934 0.02696,0.007 0.05757,0.0151 0.08933,0.0198 0.02773,0.004 0.05686,0.006 0.0869,0.003 0.0052,-5e-4 0.01045,-0.001 0.0158,-0.002 0.01973,-0.003 0.04141,-0.009 0.0622,-0.0214 0.0099,-0.006 0.0199,-0.0129 0.02924,-0.0219 0.0091,-0.009 0.01763,-0.0192 0.0247,-0.0314 0.0065,-0.0113 0.01292,-0.0229 0.01551,-0.0357 0.0026,-0.0128 0.0011,-0.0265 -0.005,-0.038 -0.0061,-0.0115 -0.01655,-0.0204 -0.02843,-0.0258 -0.01188,-0.005 -0.02497,-0.007 -0.03789,-0.009 -0.108019,-0.0151 -0.211425,-0.0425 -0.327422,-0.0703 -0.06596,-0.0161 -0.133895,-0.0353 -0.205482,-0.0455 -0.008,-0.002 -0.01018,-0.002 -0.01244,-0.002 -0.0066,-4.6e-4 -0.0093,-4.5e-4 -0.01166,-3.8e-4 -0.02191,7e-4 -0.04439,0.002 -0.06444,0.0107 -0.01003,0.004 -0.01929,0.0107 -0.02674,0.0187 -0.0075,0.008 -0.01304,0.0178 -0.01594,0.0284 -0.0029,0.0106 -0.0031,0.0219 -6.66e-4,0.0325 0.0024,0.0107 0.0075,0.0207 0.01422,0.0294 0.01351,0.0173 0.03344,0.0281 0.05305,0.0379 0.0337,0.0169 0.06721,0.0276 0.09758,0.0352 0.03249,0.008 0.0651,0.0135 0.09145,0.0176 0.03411,0.005 0.05614,0.008 0.08149,0.0135 0.03057,0.006 0.05181,0.0124 0.06886,0.0189 a 0.08271466,0.08271466 90 0 0 0.05952,-0.15436 c -0.02736,-0.0105 -0.05783,-0.0193 -0.09591,-0.027 -0.02959,-0.006 -0.05629,-0.01 -0.08801,-0.015 -0.02604,-0.004 -0.0522,-0.009 -0.0768,-0.0149 -0.0226,-0.006 -0.0438,-0.0129 -0.06343,-0.0228 l -0.04052,0.15766 c 0.0024,2.6e-4 0.0051,4.7e-4 0.0077,4.4e-4 -0.0017,-1.4e-4 5.47e-4,-1.6e-4 0.0026,-4.1e-4 0.06157,0.006 0.116615,0.0201 0.191255,0.035 0.111761,0.0239 0.225535,0.0507 0.343203,0.0642 l -0.05489,-0.10771 c -0.0019,0.002 -0.0058,0.004 -0.01034,0.005 -0.002,3.7e-4 -0.0046,7.7e-4 -0.0073,0.001 -0.01553,0.002 -0.03263,0.001 -0.05205,-0.001 -0.02284,-0.003 -0.04652,-0.009 -0.07163,-0.0159 -0.139453,-0.0406 -0.343287,-0.14097 -0.391755,-0.16301 a 0.07044196,0.07044196 90 0 0 -0.05832,0.12824 z"
       id="path-1-3"
       inkscape:path-effect="#path-effect467;#path-effect469"
       inkscape:original-d="m -13.740825,154.61902 c 0.17347,0.0782 0.552749,0.27412 0.626402,0.1441 -0.168425,-0.0191 -0.476176,-0.10865 -0.550884,-0.10896 0.103494,0.052 0.225019,0.0413 0.331771,0.0825"
       style="fill:#000000;fill-rule:nonzero;stroke:none;stroke-width:1.14511" />
    <path
       d="m -14.203299,153.47418 c 0.0106,-0.003 0.02542,-0.007 0.04152,-0.0135 0.01282,-0.005 0.02863,-0.013 0.04429,-0.0242 0.01369,-0.01 0.02912,-0.0235 0.04187,-0.0423 0.0119,-0.0176 0.02117,-0.0393 0.02427,-0.0648 0.0019,-0.0207 3.11e-4,-0.0386 -0.0039,-0.0557 -0.004,-0.0161 -0.01018,-0.0312 -0.01782,-0.0449 -0.01435,-0.0257 -0.03413,-0.0475 -0.05536,-0.0645 -0.0084,-0.007 -0.02036,-0.0151 -0.03328,-0.0215 -0.01261,-0.006 -0.02823,-0.0121 -0.04578,-0.0147 -0.0089,-0.001 -0.01881,-0.002 -0.02943,-0.001 -0.01065,8.8e-4 -0.02224,0.003 -0.03385,0.008 -0.01178,0.005 -0.02296,0.0118 -0.03292,0.0209 -0.0099,0.009 -0.01773,0.0197 -0.02366,0.031 -0.01418,0.0305 -0.01793,0.0585 -0.01537,0.0847 0.0024,0.0241 0.01004,0.0468 0.02151,0.0666 0.0016,0.004 0.003,0.008 0.004,0.0114 0.0012,0.004 0.0015,0.007 0.0014,0.008 3.19e-4,-0.005 9.96e-4,-0.008 0.0026,-0.0112 0.0017,-0.004 0.0041,-0.007 0.0073,-0.0109 0.0032,-0.003 0.0064,-0.006 0.009,-0.007 0.0055,-0.003 0.0019,-0.002 -0.0028,-0.002 -0.0049,-1e-5 -0.01109,-6.7e-4 -0.01885,-0.002 -0.01674,-0.004 -0.03459,-0.0105 -0.05797,-0.02 -0.0084,-0.005 -0.01665,-0.009 -0.02304,-0.0135 -0.0027,-0.002 -0.0041,-0.003 -0.0044,-0.004 l 0.01539,0.0293 c 0.0018,0.006 0.0036,0.0156 0.0024,0.0277 -6.43e-4,0.006 -0.0021,0.0125 -0.0045,0.0191 -0.0024,0.007 -0.0056,0.0126 -0.0095,0.0181 -0.0077,0.011 -0.01677,0.0181 -0.02393,0.0225 -0.0069,0.004 -0.01285,0.006 -0.0163,0.007 -0.0074,0.002 -0.0091,0.002 -0.0083,0.002 0.0048,2.4e-4 0.0077,2.8e-4 0.01141,9e-5 0.0059,7.5e-4 0.01786,0.002 0.02829,0.005 0.0089,0.002 0.01634,0.005 0.02281,0.009 0.005,0.003 0.01019,0.005 0.01549,0.007 0.001,4.1e-4 0.0199,0.009 0.03341,0.013 0.0081,0.003 0.01848,0.005 0.03044,0.007 0.01166,0.002 0.02531,0.002 0.04032,4.4e-4 0.01,-0.001 0.02005,-0.003 0.0291,-0.007 0.0091,-0.004 0.01669,-0.0112 0.02395,-0.0181 0.0094,-0.009 0.01883,-0.0212 0.02531,-0.0369 0.0065,-0.0157 0.0088,-0.032 0.0077,-0.0474 -9.96e-4,-0.0147 -0.0048,-0.0268 -0.0088,-0.0361 -0.0039,-0.009 -0.0084,-0.0163 -0.01206,-0.0216 -0.0068,-0.01 -0.01422,-0.0176 -0.01703,-0.0206 -0.0033,-0.004 -0.0026,-0.003 -4.59e-4,-1.2e-4 l -0.01017,-0.0116 c -0.05187,-0.0502 -0.113926,-0.0889 -0.180123,-0.11698 -0.02673,-0.0108 -0.05733,-0.0214 -0.09077,-0.027 -0.03336,-0.006 -0.07188,-0.007 -0.112084,0.004 -0.0097,0.002 -0.02346,0.007 -0.0351,0.013 -0.01144,0.006 -0.02093,0.0124 -0.02833,0.018 -0.01004,0.008 -0.01733,0.014 -0.0221,0.0182 -0.0031,0.002 -0.0062,0.004 -0.0093,0.006 -0.0082,0.005 -0.01937,0.0138 -0.02961,0.0259 -0.0053,0.006 -0.01111,0.0144 -0.01603,0.0244 -0.005,0.0102 -0.0093,0.023 -0.01067,0.0374 -0.0015,0.015 2.2e-4,0.0301 0.0051,0.0447 0.0048,0.0144 0.01214,0.0262 0.01993,0.0356 0.0039,0.005 0.0082,0.009 0.01285,0.0128 0.01557,0.0128 0.03198,0.0224 0.04811,0.0298 0.01625,0.007 0.03241,0.0125 0.04754,0.0162 0.0303,0.007 0.05991,0.009 0.08259,0.0104 l -0.04079,-0.0114 c 0.0069,0.004 0.01312,0.006 0.01772,0.007 0.0047,0.001 0.0089,0.002 0.01212,0.003 0.0064,0.001 0.01175,0.001 0.01538,0.001 0.0073,9e-5 0.0136,-6.4e-4 0.01811,-0.001 0.0049,-7.8e-4 0.0098,-0.002 0.01459,-0.003 0.0048,-0.001 0.01057,-0.003 0.01678,-0.006 0.0059,-0.003 0.01488,-0.008 0.02408,-0.0159 0.0048,-0.004 0.01049,-0.0102 0.0158,-0.0179 0.0054,-0.008 0.0107,-0.0181 0.01388,-0.0306 0.0033,-0.0129 0.0039,-0.0265 0.0016,-0.0399 -0.0023,-0.0133 -0.0071,-0.0246 -0.01245,-0.0334 -0.0053,-0.009 -0.01117,-0.0154 -0.01619,-0.0202 -0.003,-0.003 -0.0059,-0.005 -0.0087,-0.007 -0.0024,-0.002 -0.0044,-0.003 -0.0058,-0.004 -0.0034,-0.002 -0.0063,-0.004 -0.008,-0.005 -0.0038,-0.002 -0.0034,-0.002 -0.0012,-5.1e-4 9.49e-4,6.1e-4 0.0028,0.002 0.0051,0.004 0.002,0.002 0.0062,0.005 0.01091,0.01 0.0024,0.003 0.0057,0.006 0.0091,0.0112 0.0033,0.005 0.0076,0.012 0.01096,0.0214 0.0035,0.01 0.0062,0.0225 0.0052,0.0374 -0.001,0.0155 -0.0059,0.03 -0.01358,0.0425 -0.0074,0.012 -0.0163,0.0203 -0.02355,0.0257 -0.0072,0.005 -0.01395,0.009 -0.01875,0.0108 -0.0093,0.004 -0.01701,0.005 -0.02041,0.006 -0.0041,6.8e-4 -0.0072,9.1e-4 -0.0089,0.001 l 0.01009,-9.6e-4 c 0.0044,-8.1e-4 0.01101,-0.001 0.01812,-0.002 a 0.09280182,0.09280182 90 0 0 -0.0108,-0.18528 c -0.0039,2.2e-4 -0.02042,9.4e-4 -0.0352,0.003 l 0.01403,-0.001 c -0.0019,0 -0.0044,3e-5 -0.0071,1.8e-4 -0.0026,1.5e-4 -0.0065,4.6e-4 -0.01118,0.001 -0.004,6.7e-4 -0.01223,0.002 -0.02185,0.006 -0.005,0.002 -0.01185,0.006 -0.01919,0.011 -0.0074,0.005 -0.01633,0.0138 -0.02382,0.026 -0.0077,0.0126 -0.01264,0.0272 -0.01368,0.0428 -10e-4,0.0151 0.0018,0.028 0.0053,0.0377 0.0034,0.01 0.0077,0.0168 0.01115,0.0217 0.0035,0.005 0.0068,0.009 0.0094,0.0116 0.0049,0.005 0.0095,0.009 0.01191,0.0106 0.0027,0.002 0.005,0.004 0.0065,0.005 0.0027,0.002 0.0053,0.003 0.0059,0.004 -0.004,-0.003 -0.0057,-0.004 -0.0078,-0.006 -0.0011,-9.7e-4 -0.0023,-0.002 -0.0035,-0.003 -0.0042,-0.004 -0.0095,-0.01 -0.01437,-0.018 -0.0049,-0.008 -0.0095,-0.0186 -0.01164,-0.0313 -0.0022,-0.0128 -0.0016,-0.0257 0.0015,-0.038 0.003,-0.0119 0.008,-0.0215 0.01304,-0.0288 0.0049,-0.007 0.01008,-0.0125 0.01431,-0.0163 0.008,-0.007 0.01551,-0.0111 0.01965,-0.0131 0.0045,-0.002 0.0084,-0.003 0.01122,-0.004 0.0029,-8.6e-4 0.0058,-0.002 0.0089,-0.002 0.0027,-4.4e-4 0.0073,-0.001 0.01321,-9.5e-4 0.0029,3e-5 0.0077,2.3e-4 0.01354,0.001 0.003,5e-4 0.0069,0.001 0.01141,0.003 0.0044,0.001 0.01042,0.004 0.01716,0.007 l -0.04079,-0.0114 c -0.01854,-8.7e-4 -0.0339,-0.002 -0.04648,-0.006 -0.0059,-0.001 -0.01045,-0.003 -0.01386,-0.005 -0.0033,-0.002 -0.0053,-0.003 -0.0067,-0.004 l 0.01285,0.0128 c 0.0046,0.006 0.0097,0.0135 0.01328,0.0241 0.0036,0.0108 0.0049,0.0223 0.0038,0.0336 -0.0011,0.0109 -0.0042,0.0202 -0.0076,0.027 -0.0033,0.007 -0.0069,0.0116 -0.0096,0.0147 -0.005,0.006 -0.0094,0.009 -0.01054,0.01 -0.0015,0.001 -0.0027,0.002 -0.004,0.002 l 0.02063,-0.0122 c 0.01404,-0.0109 0.02205,-0.0185 0.02539,-0.021 0.0018,-0.001 0.0018,-0.001 6.15e-4,-5.4e-4 -0.0014,7.4e-4 -0.0043,0.002 -0.0083,0.003 0.0136,-0.003 0.02375,-0.004 0.03795,-0.002 0.01469,0.002 0.03124,0.008 0.0501,0.0153 0.04511,0.0191 0.08563,0.0447 0.117964,0.0749 0.0011,0.001 0.002,0.002 0.0027,0.003 0.0021,0.002 0.0044,0.005 0.0053,0.006 0.0031,0.003 0.0018,0.002 -3.64e-4,-0.001 -0.0013,-0.002 -0.0038,-0.006 -0.0062,-0.0113 -0.0025,-0.006 -0.0054,-0.0145 -0.0061,-0.0257 -8.05e-4,-0.0119 9.81e-4,-0.0248 0.0061,-0.0371 0.0051,-0.0122 0.01213,-0.021 0.01813,-0.0267 0.0073,-0.007 0.01488,-0.0138 0.02392,-0.0182 0.009,-0.004 0.01913,-0.006 0.02912,-0.007 0.0043,-5e-4 0.0076,-1.8e-4 0.0092,1.1e-4 0.0014,2.4e-4 0.0019,5.8e-4 10e-5,1e-4 -0.0032,-8.4e-4 -0.01234,-0.005 -0.02535,-0.009 l 0.01372,0.006 c -0.0022,-0.001 -0.0045,-0.002 -0.0067,-0.004 -0.02422,-0.0125 -0.04851,-0.0201 -0.07114,-0.0246 -0.02609,-0.005 -0.05115,-0.007 -0.07337,-0.006 -0.0061,2.9e-4 -0.007,4.8e-4 -0.0083,6.2e-4 -0.0015,1.8e-4 -0.0039,3.7e-4 -0.0071,6.8e-4 -0.0053,5.2e-4 -0.01684,0.002 -0.02933,0.005 -0.0067,0.002 -0.01566,0.005 -0.02512,0.011 -0.0098,0.006 -0.021,0.0148 -0.03036,0.0281 -0.0047,0.007 -0.0086,0.014 -0.01155,0.0219 -0.003,0.008 -0.0047,0.0159 -0.0056,0.0236 -0.0017,0.0154 4.8e-4,0.0286 0.0035,0.0391 0.0015,0.005 0.003,0.0103 0.0053,0.0152 0.0023,0.005 0.0053,0.009 0.0086,0.0136 0.0092,0.0121 0.01946,0.0219 0.0294,0.0298 0.01001,0.008 0.02,0.014 0.02891,0.0189 0.01668,0.009 0.03507,0.0162 0.04397,0.0198 0.02821,0.0103 0.05984,0.0216 0.09317,0.0273 0.01709,0.003 0.03609,0.005 0.0562,0.004 0.02004,-0.001 0.04125,-0.005 0.0626,-0.0135 0.02013,-0.01 0.03106,-0.0181 0.04058,-0.0281 0.0094,-0.01 0.01678,-0.0209 0.02217,-0.0325 0.0053,-0.0113 0.0085,-0.0227 0.01026,-0.0333 0.0017,-0.0105 0.0022,-0.0206 0.0018,-0.0298 -7.1e-5,-0.002 -1.75e-4,-0.004 -3.08e-4,-0.006 -0.0011,-0.0154 -0.0043,-0.0299 -0.0081,-0.0424 -0.004,-0.0135 -0.0091,-0.0258 -0.01391,-0.0363 -2.65e-4,-5.7e-4 -5.47e-4,-0.001 -9.6e-4,-0.002 -4.14e-4,-4.7e-4 -9.51e-4,-8.3e-4 -0.0015,-0.001 -5.94e-4,-2e-4 -0.0012,-2.4e-4 -0.0019,-2e-4 -6.25e-4,4e-5 -0.0012,1.5e-4 -0.0019,2.2e-4 -6.23e-4,6e-5 -0.0013,6e-5 -0.0019,-1e-4 -6.03e-4,-1.7e-4 -0.0012,-5.3e-4 -0.0015,-0.001 -3.6e-4,-5.2e-4 -5.02e-4,-0.001 -4.26e-4,-0.002 7.7e-5,-6.2e-4 3.6e-4,-0.001 6.53e-4,-0.002 -0.0018,0.003 -0.0047,0.008 -0.0091,0.0116 -0.0044,0.004 -0.0095,0.007 -0.01475,0.009 -0.0051,0.002 -0.0097,0.003 -0.01318,0.003 -0.0034,2.8e-4 -0.0059,4e-5 -0.0073,-1.6e-4 -0.0025,-3.6e-4 -0.0028,-7.9e-4 -0.0013,-4e-5 0.01186,0.009 0.01707,0.0157 0.01986,0.0209 0.0014,0.003 0.0019,0.004 0.0021,0.005 5.39e-4,-0.004 0.0015,-0.006 0.0023,-0.007 6e-4,-9.5e-4 2.92e-4,-2.1e-4 -0.0023,0.002 -0.003,0.002 -0.0072,0.004 -0.01249,0.006 -0.0065,0.003 -0.0131,0.005 -0.01863,0.006 a 0.08036099,0.08036099 90 0 0 0.03825,0.1561 z"
       id="path-1-9"
       inkscape:path-effect="#path-effect474;#path-effect476"
       inkscape:original-d="m -14.222425,153.39613 c 0.237005,-0.0608 -0.06049,-0.3098 -0.04031,-0.1202 0.158616,0.29449 -0.438876,-0.003 -0.113242,0.0539 0.297695,0.14462 -0.134824,-0.25083 -0.263561,-0.0895 -0.123264,0.0545 0.173242,0.0973 0.09657,0.0573 l 0.01599,-0.002 0.01558,-10e-4"
       style="fill:#000000;fill-rule:nonzero;stroke:none;stroke-width:1.14511" />
  </g>
</svg>
