<?xml version="1.0" encoding="UTF-8" standalone="no"?>
<!-- Created with Inkscape (http://www.inkscape.org/) -->

<svg
   width="6mm"
   height="10mm"
   viewBox="0 0 6.0000001 9.9999994"
   version="1.1"
   id="svg1681"
   inkscape:version="1.2.1 (9c6d41e410, 2022-07-14)"
   sodipodi:docname="lower p 1.3.svg"
   inkscape:export-filename="..\..\..\..\Downloads\lower a diff canvas resize 3.0.png"
   inkscape:export-xdpi="96"
   inkscape:export-ydpi="96"
   xmlns:inkscape="http://www.inkscape.org/namespaces/inkscape"
   xmlns:sodipodi="http://sodipodi.sourceforge.net/DTD/sodipodi-0.dtd"
   xmlns="http://www.w3.org/2000/svg"
   xmlns:svg="http://www.w3.org/2000/svg"
   xmlns:rdf="http://www.w3.org/1999/02/22-rdf-syntax-ns#"
   xmlns:cc="http://creativecommons.org/ns#"
   xmlns:dc="http://purl.org/dc/elements/1.1/">
  <defs
     id="defs1675">
    <inkscape:path-effect
       effect="powerstroke"
       id="path-effect1523"
       is_visible="true"
       lpeversion="1"
       offset_points="1.6176534,0.12471439 | 3.9686903,0.15055164 | 7.9370245,0.13589397 | 10.675974,0.16073748"
       not_jump="true"
       sort_points="true"
       interpolator_type="CentripetalCatmullRom"
       interpolator_beta="0.75"
       start_linecap_type="round"
       linejoin_type="spiro"
       miter_limit="4"
       scale_width="1"
       end_linecap_type="round" />
    <inkscape:path-effect
       effect="simplify"
       id="path-effect1521"
       is_visible="true"
       lpeversion="1"
       steps="1"
       threshold="0.0035951417"
       smooth_angles="0"
       helper_size="0"
       simplify_individual_paths="false"
       simplify_just_coalesce="false"
       step="1" />
    <inkscape:path-effect
       effect="powerstroke"
       id="path-effect1516"
       is_visible="true"
       lpeversion="1"
       offset_points="2.2658063,0.074141845 | 3.489582,0.086033903 | 9.2876197,0.10056864"
       not_jump="true"
       sort_points="true"
       interpolator_type="CentripetalCatmullRom"
       interpolator_beta="0.75"
       start_linecap_type="round"
       linejoin_type="spiro"
       miter_limit="4"
       scale_width="1"
       end_linecap_type="round" />
    <inkscape:path-effect
       effect="simplify"
       id="path-effect1514"
       is_visible="true"
       lpeversion="1"
       steps="1"
       threshold="0.0035951417"
       smooth_angles="0"
       helper_size="0"
       simplify_individual_paths="false"
       simplify_just_coalesce="false"
       step="1" />
    <inkscape:path-effect
       effect="powerstroke"
       id="path-effect502"
       is_visible="true"
       lpeversion="1"
       offset_points="3.0091841,0.21607495 | 7.3602657,0.17554228 | 9.4159651,0.20236537"
       not_jump="true"
       sort_points="true"
       interpolator_type="CentripetalCatmullRom"
       interpolator_beta="0.75"
       start_linecap_type="round"
       linejoin_type="spiro"
       miter_limit="4"
       scale_width="1"
       end_linecap_type="round" />
    <inkscape:path-effect
       effect="simplify"
       id="path-effect500"
       is_visible="true"
       lpeversion="1"
       steps="1"
       threshold="0.0035951417"
       smooth_angles="0"
       helper_size="0"
       simplify_individual_paths="false"
       simplify_just_coalesce="false"
       step="1" />
    <inkscape:path-effect
       effect="powerstroke"
       id="path-effect241"
       is_visible="true"
       lpeversion="1"
       offset_points="2.6879454,0.34086734"
       not_jump="true"
       sort_points="true"
       interpolator_type="CentripetalCatmullRom"
       interpolator_beta="0.75"
       start_linecap_type="round"
       linejoin_type="spiro"
       miter_limit="4"
       scale_width="1"
       end_linecap_type="round" />
    <inkscape:path-effect
       effect="simplify"
       id="path-effect239"
       is_visible="true"
       lpeversion="1"
       steps="1"
       threshold="0.0028332064"
       smooth_angles="0"
       helper_size="0"
       simplify_individual_paths="false"
       simplify_just_coalesce="false"
       step="1" />
    <inkscape:path-effect
       effect="powerstroke"
       id="path-effect234"
       is_visible="true"
       lpeversion="1"
       offset_points="2.13563,0.075169555"
       not_jump="true"
       sort_points="true"
       interpolator_type="CentripetalCatmullRom"
       interpolator_beta="0.75"
       start_linecap_type="round"
       linejoin_type="spiro"
       miter_limit="4"
       scale_width="1"
       end_linecap_type="round" />
    <inkscape:path-effect
       effect="simplify"
       id="path-effect232"
       is_visible="true"
       lpeversion="1"
       steps="1"
       threshold="0.0028332064"
       smooth_angles="0"
       helper_size="0"
       simplify_individual_paths="false"
       simplify_just_coalesce="false"
       step="1" />
    <inkscape:path-effect
       effect="powerstroke"
       id="path-effect227"
       is_visible="true"
       lpeversion="1"
       offset_points="2.1868266,0.075169555"
       not_jump="true"
       sort_points="true"
       interpolator_type="CentripetalCatmullRom"
       interpolator_beta="0.75"
       start_linecap_type="round"
       linejoin_type="spiro"
       miter_limit="4"
       scale_width="1"
       end_linecap_type="round" />
    <inkscape:path-effect
       effect="simplify"
       id="path-effect225"
       is_visible="true"
       lpeversion="1"
       steps="1"
       threshold="0.0028332064"
       smooth_angles="0"
       helper_size="0"
       simplify_individual_paths="false"
       simplify_just_coalesce="false"
       step="1" />
    <inkscape:path-effect
       effect="powerstroke"
       id="path-effect166"
       is_visible="true"
       lpeversion="1"
       offset_points="1.9637935,0.075169555"
       not_jump="true"
       sort_points="true"
       interpolator_type="CentripetalCatmullRom"
       interpolator_beta="0.75"
       start_linecap_type="round"
       linejoin_type="spiro"
       miter_limit="4"
       scale_width="1"
       end_linecap_type="round" />
    <inkscape:path-effect
       effect="simplify"
       id="path-effect164"
       is_visible="true"
       lpeversion="1"
       steps="1"
       threshold="0.0028332064"
       smooth_angles="0"
       helper_size="0"
       simplify_individual_paths="false"
       simplify_just_coalesce="false"
       step="1" />
    <inkscape:path-effect
       effect="powerstroke"
       id="path-effect159"
       is_visible="true"
       lpeversion="1"
       offset_points="2.2611036,0.075169555"
       not_jump="true"
       sort_points="true"
       interpolator_type="CentripetalCatmullRom"
       interpolator_beta="0.75"
       start_linecap_type="round"
       linejoin_type="spiro"
       miter_limit="4"
       scale_width="1"
       end_linecap_type="round" />
    <inkscape:path-effect
       effect="simplify"
       id="path-effect157"
       is_visible="true"
       lpeversion="1"
       steps="1"
       threshold="0.0028332064"
       smooth_angles="0"
       helper_size="0"
       simplify_individual_paths="false"
       simplify_just_coalesce="false"
       step="1" />
    <inkscape:path-effect
       effect="powerstroke"
       id="path-effect152"
       is_visible="true"
       lpeversion="1"
       offset_points="2.826981,0.075169555"
       not_jump="true"
       sort_points="true"
       interpolator_type="CentripetalCatmullRom"
       interpolator_beta="0.75"
       start_linecap_type="round"
       linejoin_type="spiro"
       miter_limit="4"
       scale_width="1"
       end_linecap_type="round" />
    <inkscape:path-effect
       effect="simplify"
       id="path-effect150"
       is_visible="true"
       lpeversion="1"
       steps="1"
       threshold="0.0028332064"
       smooth_angles="0"
       helper_size="0"
       simplify_individual_paths="false"
       simplify_just_coalesce="false"
       step="1" />
    <inkscape:path-effect
       effect="powerstroke"
       id="path-effect145"
       is_visible="true"
       lpeversion="1"
       offset_points="3.8374447,0.075169555"
       not_jump="true"
       sort_points="true"
       interpolator_type="CentripetalCatmullRom"
       interpolator_beta="0.75"
       start_linecap_type="round"
       linejoin_type="spiro"
       miter_limit="4"
       scale_width="1"
       end_linecap_type="round" />
    <inkscape:path-effect
       effect="simplify"
       id="path-effect143"
       is_visible="true"
       lpeversion="1"
       steps="1"
       threshold="0.0028332064"
       smooth_angles="0"
       helper_size="0"
       simplify_individual_paths="false"
       simplify_just_coalesce="false"
       step="1" />
    <inkscape:path-effect
       effect="powerstroke"
       id="path-effect138"
       is_visible="true"
       lpeversion="1"
       offset_points="2.6880907,0.075169555"
       not_jump="true"
       sort_points="true"
       interpolator_type="CentripetalCatmullRom"
       interpolator_beta="0.75"
       start_linecap_type="round"
       linejoin_type="spiro"
       miter_limit="4"
       scale_width="1"
       end_linecap_type="round" />
    <inkscape:path-effect
       effect="simplify"
       id="path-effect136"
       is_visible="true"
       lpeversion="1"
       steps="1"
       threshold="0.0028332064"
       smooth_angles="0"
       helper_size="0"
       simplify_individual_paths="false"
       simplify_just_coalesce="false"
       step="1" />
    <inkscape:path-effect
       effect="powerstroke"
       id="path-effect131"
       is_visible="true"
       lpeversion="1"
       offset_points="1.9940581,0.075169555"
       not_jump="true"
       sort_points="true"
       interpolator_type="CentripetalCatmullRom"
       interpolator_beta="0.75"
       start_linecap_type="round"
       linejoin_type="spiro"
       miter_limit="4"
       scale_width="1"
       end_linecap_type="round" />
    <inkscape:path-effect
       effect="simplify"
       id="path-effect129"
       is_visible="true"
       lpeversion="1"
       steps="1"
       threshold="0.0028332064"
       smooth_angles="0"
       helper_size="0"
       simplify_individual_paths="false"
       simplify_just_coalesce="false"
       step="1" />
  </defs>
  <sodipodi:namedview
     id="base"
     pagecolor="#ffffff"
     bordercolor="#666666"
     borderopacity="1.0"
     inkscape:pageopacity="0.0"
     inkscape:pageshadow="2"
     inkscape:zoom="7.919596"
     inkscape:cx="-5.3033008"
     inkscape:cy="20.834396"
     inkscape:document-units="mm"
     inkscape:current-layer="layer1"
     showgrid="false"
     fit-margin-top="0"
     fit-margin-left="0"
     fit-margin-right="0"
     fit-margin-bottom="0"
     inkscape:window-width="1920"
     inkscape:window-height="974"
     inkscape:window-x="-11"
     inkscape:window-y="2869"
     inkscape:window-maximized="1"
     showguides="true"
     inkscape:guide-bbox="true"
     inkscape:snap-bbox="true"
     inkscape:bbox-nodes="true"
     inkscape:snap-nodes="false"
     inkscape:snap-others="false"
     inkscape:snap-page="true"
     inkscape:snap-grids="false"
     inkscape:snap-to-guides="false"
     inkscape:snap-global="false"
     inkscape:pagecheckerboard="0"
     inkscape:showpageshadow="2"
     inkscape:deskcolor="#d1d1d1">
    <sodipodi:guide
       position="-6.1806075,9.4988692"
       orientation="0,1"
       id="guide816"
       inkscape:locked="false" />
    <sodipodi:guide
       position="-4.4101636,10.646923"
       orientation="0,1"
       id="guide818"
       inkscape:locked="false" />
    <sodipodi:guide
       position="2.7595724,11.09577"
       orientation="1,0"
       id="guide820"
       inkscape:locked="false" />
    <sodipodi:guide
       position="3.6572659,10.942217"
       orientation="1,0"
       id="guide822"
       inkscape:locked="false" />
    <sodipodi:guide
       position="-0.051625511,9.7492299"
       orientation="1,0"
       id="guide1853"
       inkscape:locked="false" />
    <sodipodi:guide
       position="-2.3720169,3.0175835"
       orientation="0,1"
       id="guide1855"
       inkscape:locked="false" />
  </sodipodi:namedview>
  <metadata
     id="metadata1678">
    <rdf:RDF>
      <cc:Work
         rdf:about="">
        <dc:format>image/svg+xml</dc:format>
        <dc:type
           rdf:resource="http://purl.org/dc/dcmitype/StillImage" />
      </cc:Work>
    </rdf:RDF>
  </metadata>
  <g
     inkscape:label="Layer 1"
     inkscape:groupmode="layer"
     id="layer1"
     transform="translate(17.028496,-147.22856)">
    <path
       d="m -13.712053,150.0515 c -0.116188,0.65746 -0.153386,1.16561 -0.235052,2.33593 -0.0492,0.70502 -0.111896,1.51583 -0.292854,2.2946 -0.01768,0.10313 -0.03538,0.19276 -0.06187,0.27667 -0.0064,0.0202 -0.0131,0.0395 -0.02025,0.0582 -0.02332,0.0608 -0.05242,0.11695 -0.08961,0.16693 -0.001,0.001 -0.0019,0.003 -0.0026,0.004 -3.83e-4,7.7e-4 -7.92e-4,0.002 -0.0013,0.002 -4.95e-4,7e-4 -0.0011,0.001 -0.0017,0.002 -0.0028,0.003 -0.0022,-2.8e-4 -0.001,-0.002 0.0013,-0.002 0.0018,-0.003 2.86e-4,-0.004 -0.0017,-0.002 -0.0039,-0.003 -0.006,-0.006 -0.002,-0.003 -0.0026,-0.005 -0.0027,-0.007 l 0.0064,0.0125 c -0.01173,-0.0311 -0.01858,-0.0693 -0.02205,-0.11941 -0.0034,-0.0494 -0.0028,-0.0893 -0.0047,-0.15111 -1.12e-4,-0.004 -2.34e-4,-0.007 -3.68e-4,-0.0111 0.001,-0.12341 0.01411,-0.25274 0.03106,-0.40399 0.0148,-0.13208 0.03292,-0.28361 0.03806,-0.43368 0.12868,-1.13342 0.410083,-2.2975 0.984387,-3.333 0.03909,-0.0676 0.07157,-0.13508 0.1056,-0.18877 0.01729,-0.0273 0.03441,-0.0506 0.05248,-0.0704 0.01812,-0.0199 0.03712,-0.0362 0.05799,-0.0493 0.05568,-0.0383 0.111306,-0.0657 0.169759,-0.085 0.05992,-0.0198 0.12164,-0.0309 0.181695,-0.0329 0.06202,-0.002 0.121141,0.006 0.174951,0.022 0.04161,0.0127 0.07986,0.0307 0.114398,0.0536 0.01176,0.008 0.02324,0.0163 0.0344,0.0255 0.02269,0.0196 0.04388,0.0445 0.06271,0.0739 0.01848,0.0289 0.03452,0.0617 0.04903,0.0989 0.02975,0.0763 0.04853,0.15775 0.0726,0.25072 0.09,0.38778 0.05325,0.79764 -0.07644,1.15914 -0.143128,0.39894 -0.390276,0.7191 -0.684879,0.93339 -0.113845,0.0779 -0.200926,0.1224 -0.266328,0.15196 -0.06285,0.0284 -0.110775,0.0447 -0.13113,0.051 a 0.16073748,0.16073748 90 0 0 0.09557,0.30694 c 0.02819,-0.009 0.09088,-0.0284 0.170967,-0.0664 0.08255,-0.0392 0.186194,-0.099 0.312396,-0.19423 0.344978,-0.25571 0.624784,-0.6291 0.783363,-1.08373 0.143548,-0.41154 0.18223,-0.87873 0.07378,-1.32942 -0.02553,-0.0864 -0.05285,-0.18959 -0.09277,-0.2843 -0.02076,-0.0492 -0.0457,-0.0984 -0.07709,-0.14516 -0.03236,-0.0482 -0.071,-0.0929 -0.117816,-0.13208 -0.02035,-0.0166 -0.03945,-0.0305 -0.05893,-0.0432 -0.05731,-0.0375 -0.119449,-0.0661 -0.184759,-0.086 -0.08424,-0.0256 -0.173068,-0.0365 -0.262469,-0.0339 -0.08651,0.003 -0.173829,0.0179 -0.25787,0.045 -0.08192,0.0265 -0.161431,0.0645 -0.233769,0.11346 -0.03895,0.0229 -0.07752,0.0551 -0.111022,0.0901 -0.03288,0.0343 -0.06061,0.0708 -0.08486,0.10685 -0.04814,0.0716 -0.08427,0.14224 -0.119593,0.19939 -0.60591,1.08295 -0.899241,2.28911 -1.033398,3.44807 -4.38e-4,0.004 -6.98e-4,0.008 -8.63e-4,0.0114 -0.0059,0.13739 -0.02383,0.27762 -0.03993,0.4159 -0.01762,0.15131 -0.03253,0.29598 -0.03243,0.4446 3.32e-4,0.0105 5.09e-4,0.0138 6.83e-4,0.0171 0.0026,0.0504 0.0048,0.10953 0.0122,0.16861 0.0084,0.0671 0.02409,0.13859 0.05749,0.20682 0.001,0.002 0.002,0.004 0.003,0.006 0.001,0.002 0.0022,0.004 0.0034,0.006 0.02638,0.0432 0.06201,0.0764 0.100909,0.0994 0.03976,0.0235 0.08412,0.0371 0.12883,0.0399 0.04597,0.003 0.09346,-0.006 0.136956,-0.0276 0.04423,-0.0224 0.0808,-0.0571 0.106541,-0.10126 0.04821,-0.0718 0.08334,-0.14738 0.110293,-0.22185 0.0085,-0.0236 0.01644,-0.0476 0.02379,-0.0721 0.0302,-0.10047 0.0495,-0.20281 0.06614,-0.30118 0.184461,-0.79286 0.248564,-1.62202 0.298246,-2.32573 0.08277,-1.17239 0.119814,-1.66565 0.233658,-2.30986 a 0.12471439,0.12471439 90 0 0 -0.245622,-0.0434 z"
       id="path-1"
       inkscape:path-effect="#path-effect1521;#path-effect1523"
       inkscape:original-d="m -13.589242,150.0732 c -0.271235,1.5346 -0.176772,3.11378 -0.530641,4.63673 -0.02684,0.20409 -0.183795,0.85839 -0.441369,0.51883 -0.0935,-0.37241 0.0198,-0.765 0.03068,-1.14373 0.142555,-1.27425 0.474062,-2.55644 1.148882,-3.65627 0.2675,-0.32918 0.907545,-0.37614 1.099763,0.0542 0.420016,0.99102 -0.02439,2.2817 -1.009974,2.74552 -0.04496,0.0194 -0.09083,0.0367 -0.137423,0.0518"
       style="fill:#000000;fill-rule:nonzero;stroke:none;stroke-width:1.69217" />
  </g>
</svg>
